<?xml version="1.0" encoding="UTF-8" standalone="no"?>
<!DOCTYPE svg PUBLIC "-//W3C//DTD SVG 1.1//EN"
 "http://www.w3.org/Graphics/SVG/1.1/DTD/svg11.dtd">
<!-- Generated by graphviz version 9.0.0 (20230911.1827)
 -->
<!-- Title: D Pages: 1 -->
<svg width="990pt" height="360pt"
 viewBox="0.00 0.00 989.90 360.03" xmlns="http://www.w3.org/2000/svg" xmlns:xlink="http://www.w3.org/1999/xlink">
<g id="graph0" class="graph" transform="scale(1 1) rotate(0) translate(18 342.03)">
<title>D</title>
<text text-anchor="start" x="172.07" y="-303.93" font-family="Roboto, sans-serif" font-weight="bold" font-size="18.00">MaBiS</text>
<text text-anchor="start" x="172.07" y="-275.83" font-family="Roboto, sans-serif" font-weight="bold" font-size="16.00">7.24.1: Datenstatus nach erfolgter Bilanzkreisabrechnung vergeben</text>
<!-- Start -->
<g id="node1" class="node">
<title>Start</title>
<path fill="#8ba2d7" stroke="black" stroke-width="0" d="M283.42,-232.42C283.42,-232.42 130.87,-232.42 130.87,-232.42 124.87,-232.42 118.87,-226.42 118.87,-220.42 118.87,-220.42 118.87,-199.14 118.87,-199.14 118.87,-193.14 124.87,-187.14 130.87,-187.14 130.87,-187.14 283.42,-187.14 283.42,-187.14 289.42,-187.14 295.42,-193.14 295.42,-199.14 295.42,-199.14 295.42,-220.42 295.42,-220.42 295.42,-226.42 289.42,-232.42 283.42,-232.42"/>
<text text-anchor="start" x="133.27" y="-211.48" font-family="Roboto, sans-serif" font-weight="bold" font-size="14.00">E_0003</text>
<text text-anchor="start" x="133.27" y="-197.48" font-family="Roboto, sans-serif" font-size="14.00">Prüfende Rolle: </text>
<text text-anchor="start" x="242.77" y="-197.48" font-family="Roboto, sans-serif" font-weight="bold" font-size="14.00">BIKO</text>
</g>
<!-- 1 -->
<g id="node2" class="node">
<title>1</title>
<path fill="#c2cee9" stroke="black" stroke-width="0" d="M402.3,-148.53C402.3,-148.53 12,-148.53 12,-148.53 6,-148.53 0,-142.53 0,-136.53 0,-136.53 0,-124.53 0,-124.53 0,-118.53 6,-112.53 12,-112.53 12,-112.53 402.3,-112.53 402.3,-112.53 408.3,-112.53 414.3,-118.53 414.3,-124.53 414.3,-124.53 414.3,-136.53 414.3,-136.53 414.3,-142.53 408.3,-148.53 402.3,-148.53"/>
<text text-anchor="start" x="14.4" y="-126.86" font-family="Roboto, sans-serif" font-weight="bold" font-size="14.00">1: </text>
<text text-anchor="start" x="33.9" y="-126.86" font-family="Roboto, sans-serif" font-size="14.00">Erfolgt die Bestellung zum Monatsersten 00:00 Uhr?</text>
</g>
<!-- Start&#45;&gt;1 -->
<g id="edge1" class="edge">
<title>Start&#45;&gt;1</title>
<path fill="none" stroke="#88a0d6" d="M207.15,-187.26C207.15,-178.69 207.15,-168.72 207.15,-159.6"/>
<polygon fill="#88a0d6" stroke="#88a0d6" points="210.65,-159.8 207.15,-149.8 203.65,-159.8 210.65,-159.8"/>
</g>
<!-- A01 -->
<g id="node3" class="node">
<title>A01</title>
<path fill="#c4cac1" stroke="black" stroke-width="0" d="M189.17,-59.28C189.17,-59.28 95.12,-59.28 95.12,-59.28 89.12,-59.28 83.12,-53.28 83.12,-47.28 83.12,-47.28 83.12,-12 83.12,-12 83.12,-6 89.12,0 95.12,0 95.12,0 189.17,0 189.17,0 195.17,0 201.17,-6 201.17,-12 201.17,-12 201.17,-47.28 201.17,-47.28 201.17,-53.28 195.17,-59.28 189.17,-59.28"/>
<text text-anchor="start" x="97.52" y="-38.34" font-family="Roboto, sans-serif" font-weight="bold" font-size="14.00">A01</text>
<text text-anchor="start" x="97.52" y="-10.34" font-family="Roboto, sans-serif" font-size="14.00">Zustimmung</text>
</g>
<!-- 1&#45;&gt;A01 -->
<g id="edge2" class="edge">
<title>1&#45;&gt;A01</title>
<path fill="none" stroke="#88a0d6" d="M196.12,-112.75C188.14,-100.62 177.04,-83.72 166.98,-68.41"/>
<polygon fill="#88a0d6" stroke="#88a0d6" points="170.13,-66.84 161.72,-60.41 164.28,-70.69 170.13,-66.84"/>
<text text-anchor="start" x="182.15" y="-82.23" font-family="Roboto, sans-serif" font-weight="bold" font-size="14.00">JA</text>
</g>
<!-- A02 -->
<g id="node4" class="node">
<title>A02</title>
<path fill="#c4cac1" stroke="black" stroke-width="0" d="M311.42,-59.28C311.42,-59.28 230.87,-59.28 230.87,-59.28 224.87,-59.28 218.87,-53.28 218.87,-47.28 218.87,-47.28 218.87,-12 218.87,-12 218.87,-6 224.87,0 230.87,0 230.87,0 311.42,0 311.42,0 317.42,0 323.42,-6 323.42,-12 323.42,-12 323.42,-47.28 323.42,-47.28 323.42,-53.28 317.42,-59.28 311.42,-59.28"/>
<text text-anchor="start" x="233.27" y="-38.34" font-family="Roboto, sans-serif" font-weight="bold" font-size="14.00">A02</text>
<text text-anchor="start" x="233.27" y="-10.34" font-family="Roboto, sans-serif" font-size="14.00">Ablehnung</text>
</g>
<!-- 1&#45;&gt;A02 -->
<g id="edge3" class="edge">
<title>1&#45;&gt;A02</title>
<path fill="none" stroke="#88a0d6" d="M218.01,-112.75C225.86,-100.62 236.8,-83.72 246.7,-68.41"/>
<polygon fill="#88a0d6" stroke="#88a0d6" points="249.39,-70.71 251.88,-60.41 243.51,-66.91 249.39,-70.71"/>
<text text-anchor="start" x="239.15" y="-82.23" font-family="Roboto, sans-serif" font-weight="bold" font-size="14.00">NEIN</text>
</g>
<!-- pruefidentifikatoren -->
<g id="node5" class="node">
<title>pruefidentifikatoren</title>
<text text-anchor="start" x="786.4" y="-217.73" font-family="Roboto, sans-serif" font-weight="bold" font-size="14.00">Prüfidentifikator(en)</text>
<g id="a_node5_0"><a xlink:href="https://ahb-tabellen.hochfrequenz.de/ahb/FV2604/19204" xlink:title="&lt;TABLE&gt;" target="_blank">
<text text-anchor="start" x="786.4" y="-193.48" font-family="Roboto, sans-serif" font-size="14.00" fill="#0066cc">19204 (FV2604)</text>
</a>
</g>
</g>
</g>
</svg>
