<?xml version="1.0" encoding="UTF-8" standalone="no"?>
<!DOCTYPE svg PUBLIC "-//W3C//DTD SVG 1.1//EN"
 "http://www.w3.org/Graphics/SVG/1.1/DTD/svg11.dtd">
<!-- Generated by graphviz version 9.0.0 (20230911.1827)
 -->
<!-- Title: D Pages: 1 -->
<svg width="662pt" height="371pt"
 viewBox="0.00 0.00 661.75 370.81" xmlns="http://www.w3.org/2000/svg" xmlns:xlink="http://www.w3.org/1999/xlink">
<g id="graph0" class="graph" transform="scale(1 1) rotate(0) translate(18 352.81)">
<title>D</title>
<text text-anchor="start" x="8" y="-314.71" font-family="Roboto, sans-serif" font-weight="bold" font-size="18.00">MaBiS</text>
<text text-anchor="start" x="8" y="-286.61" font-family="Roboto, sans-serif" font-weight="bold" font-size="16.00">7.24.1: Datenstatus nach erfolgter Bilanzkreisabrechnung vergeben</text>
<!-- Start -->
<g id="node1" class="node">
<title>Start</title>
<path fill="#8ba2d7" stroke="black" stroke-width="0" d="M412.02,-244.81C412.02,-244.81 213.72,-244.81 213.72,-244.81 207.72,-244.81 201.72,-238.81 201.72,-232.81 201.72,-232.81 201.72,-197.53 201.72,-197.53 201.72,-191.53 207.72,-185.53 213.72,-185.53 213.72,-185.53 412.02,-185.53 412.02,-185.53 418.02,-185.53 424.02,-191.53 424.02,-197.53 424.02,-197.53 424.02,-232.81 424.02,-232.81 424.02,-238.81 418.02,-244.81 412.02,-244.81"/>
<text text-anchor="start" x="216.12" y="-223.87" font-family="Roboto, sans-serif" font-weight="bold" font-size="14.00">E_0003</text>
<text text-anchor="start" x="239" y="-209.87" font-family="Roboto, sans-serif" font-size="14.00">Prüfende Rolle: </text>
<text text-anchor="start" x="348.5" y="-209.87" font-family="Roboto, sans-serif" font-weight="bold" font-size="14.00">BIKO</text>
<text text-anchor="start" x="216.12" y="-195.87" font-family="Roboto, sans-serif" font-size="14.00">Prüfidentifikator(en): 19204</text>
</g>
<!-- 1 -->
<g id="node2" class="node">
<title>1</title>
<path fill="#c2cee9" stroke="black" stroke-width="0" d="M508.02,-148.53C508.02,-148.53 117.73,-148.53 117.73,-148.53 111.73,-148.53 105.72,-142.53 105.72,-136.53 105.72,-136.53 105.72,-124.53 105.72,-124.53 105.72,-118.53 111.72,-112.53 117.72,-112.53 117.72,-112.53 508.02,-112.53 508.02,-112.53 514.02,-112.53 520.02,-118.53 520.02,-124.53 520.02,-124.53 520.02,-136.53 520.02,-136.53 520.02,-142.53 514.02,-148.53 508.02,-148.53"/>
<text text-anchor="start" x="120.12" y="-126.86" font-family="Roboto, sans-serif" font-weight="bold" font-size="14.00">1: </text>
<text text-anchor="start" x="139.62" y="-126.86" font-family="Roboto, sans-serif" font-size="14.00">Erfolgt die Bestellung zum Monatsersten 00:00 Uhr?</text>
</g>
<!-- Start&#45;&gt;1 -->
<g id="edge1" class="edge">
<title>Start&#45;&gt;1</title>
<path fill="none" stroke="#88a0d6" d="M312.88,-185.73C312.88,-177.23 312.88,-167.91 312.88,-159.44"/>
<polygon fill="#88a0d6" stroke="#88a0d6" points="316.38,-159.71 312.88,-149.71 309.38,-159.71 316.38,-159.71"/>
</g>
<!-- A01 -->
<g id="node3" class="node">
<title>A01</title>
<path fill="#c4cac1" stroke="black" stroke-width="0" d="M294.9,-59.28C294.9,-59.28 200.85,-59.28 200.85,-59.28 194.85,-59.28 188.85,-53.28 188.85,-47.28 188.85,-47.28 188.85,-12 188.85,-12 188.85,-6 194.85,0 200.85,0 200.85,0 294.9,0 294.9,0 300.9,0 306.9,-6 306.9,-12 306.9,-12 306.9,-47.28 306.9,-47.28 306.9,-53.28 300.9,-59.28 294.9,-59.28"/>
<text text-anchor="start" x="203.25" y="-38.34" font-family="Roboto, sans-serif" font-weight="bold" font-size="14.00">A01</text>
<text text-anchor="start" x="203.25" y="-10.34" font-family="Roboto, sans-serif" font-size="14.00">Zustimmung</text>
</g>
<!-- 1&#45;&gt;A01 -->
<g id="edge2" class="edge">
<title>1&#45;&gt;A01</title>
<path fill="none" stroke="#88a0d6" d="M301.85,-112.75C293.87,-100.62 282.77,-83.72 272.7,-68.41"/>
<polygon fill="#88a0d6" stroke="#88a0d6" points="275.86,-66.84 267.44,-60.41 270.01,-70.69 275.86,-66.84"/>
<text text-anchor="start" x="287.88" y="-82.23" font-family="Roboto, sans-serif" font-weight="bold" font-size="14.00">JA</text>
</g>
<!-- A02 -->
<g id="node4" class="node">
<title>A02</title>
<path fill="#c4cac1" stroke="black" stroke-width="0" d="M417.15,-59.28C417.15,-59.28 336.6,-59.28 336.6,-59.28 330.6,-59.28 324.6,-53.28 324.6,-47.28 324.6,-47.28 324.6,-12 324.6,-12 324.6,-6 330.6,0 336.6,0 336.6,0 417.15,0 417.15,0 423.15,0 429.15,-6 429.15,-12 429.15,-12 429.15,-47.28 429.15,-47.28 429.15,-53.28 423.15,-59.28 417.15,-59.28"/>
<text text-anchor="start" x="339" y="-38.34" font-family="Roboto, sans-serif" font-weight="bold" font-size="14.00">A02</text>
<text text-anchor="start" x="339" y="-10.34" font-family="Roboto, sans-serif" font-size="14.00">Ablehnung</text>
</g>
<!-- 1&#45;&gt;A02 -->
<g id="edge3" class="edge">
<title>1&#45;&gt;A02</title>
<path fill="none" stroke="#88a0d6" d="M323.73,-112.75C331.59,-100.62 342.52,-83.72 352.43,-68.41"/>
<polygon fill="#88a0d6" stroke="#88a0d6" points="355.11,-70.71 357.61,-60.41 349.24,-66.91 355.11,-70.71"/>
<text text-anchor="start" x="344.88" y="-82.23" font-family="Roboto, sans-serif" font-weight="bold" font-size="14.00">NEIN</text>
</g>
</g>
</svg>
