<svg xmlns="http://www.w3.org/2000/svg" xmlns:xlink="http://www.w3.org/1999/xlink" width="662pt" height="357pt" viewBox="0.00 0.00 661.75 356.81">
<g id="graph0" class="graph" transform="scale(1 1) rotate(0) translate(18 338.81)">
<title>D</title>
<text text-anchor="start" x="8" y="-300.71" font-family="Roboto, sans-serif" font-weight="bold" font-size="18.00">MaBiS</text>
<text text-anchor="start" x="8" y="-272.61" font-family="Roboto, sans-serif" font-weight="bold" font-size="16.00">7.24.1: Datenstatus nach erfolgter Bilanzkreisabrechnung vergeben</text>
<!-- Start -->
<g id="node1" class="node">
<title>Start</title>
<path fill="#8ba2d7" stroke="black" stroke-width="0" d="M389.15,-230.81C389.15,-230.81 236.6,-230.81 236.6,-230.81 230.6,-230.81 224.6,-224.81 224.6,-218.81 224.6,-218.81 224.6,-197.53 224.6,-197.53 224.6,-191.53 230.6,-185.53 236.6,-185.53 236.6,-185.53 389.15,-185.53 389.15,-185.53 395.15,-185.53 401.15,-191.53 401.15,-197.53 401.15,-197.53 401.15,-218.81 401.15,-218.81 401.15,-224.81 395.15,-230.81 389.15,-230.81"/>
<text text-anchor="start" x="239" y="-209.87" font-family="Roboto, sans-serif" font-weight="bold" font-size="14.00">E_0003</text>
<text text-anchor="start" x="239" y="-195.87" font-family="Roboto, sans-serif" font-size="14.00">Prüfende Rolle: </text>
<text text-anchor="start" x="348.5" y="-195.87" font-family="Roboto, sans-serif" font-weight="bold" font-size="14.00">BIKO</text>
</g>
<!-- 1 -->
<g id="node2" class="node">
<title>1</title>
<path fill="#c2cee9" stroke="black" stroke-width="0" d="M508.02,-148.53C508.02,-148.53 117.73,-148.53 117.73,-148.53 111.73,-148.53 105.72,-142.53 105.72,-136.53 105.72,-136.53 105.72,-124.53 105.72,-124.53 105.72,-118.53 111.72,-112.53 117.72,-112.53 117.72,-112.53 508.02,-112.53 508.02,-112.53 514.02,-112.53 520.02,-118.53 520.02,-124.53 520.02,-124.53 520.02,-136.53 520.02,-136.53 520.02,-142.53 514.02,-148.53 508.02,-148.53"/>
<text text-anchor="start" x="120.12" y="-126.86" font-family="Roboto, sans-serif" font-weight="bold" font-size="14.00">1: </text>
<text text-anchor="start" x="139.62" y="-126.86" font-family="Roboto, sans-serif" font-size="14.00">Erfolgt die Bestellung zum Monatsersten 00:00 Uhr?</text>
</g>
<!-- Start&#45;&gt;1 -->
<g id="edge1" class="edge">
<title>Start-&gt;1</title>
<path fill="none" stroke="#88a0d6" d="M312.88,-185.7C312.88,-177.62 312.88,-168.32 312.88,-159.72"/>
<polygon fill="#88a0d6" stroke="#88a0d6" points="316.38,-159.76 312.88,-149.76 309.38,-159.76 316.38,-159.76"/>
</g>
<!-- A01 -->
<g id="node3" class="node">
<title>A01</title>
<path fill="#c4cac1" stroke="black" stroke-width="0" d="M294.9,-59.28C294.9,-59.28 200.85,-59.28 200.85,-59.28 194.85,-59.28 188.85,-53.28 188.85,-47.28 188.85,-47.28 188.85,-12 188.85,-12 188.85,-6 194.85,0 200.85,0 200.85,0 294.9,0 294.9,0 300.9,0 306.9,-6 306.9,-12 306.9,-12 306.9,-47.28 306.9,-47.28 306.9,-53.28 300.9,-59.28 294.9,-59.28"/>
<text text-anchor="start" x="203.25" y="-38.34" font-family="Roboto, sans-serif" font-weight="bold" font-size="14.00">A01</text>
<text text-anchor="start" x="203.25" y="-10.34" font-family="Roboto, sans-serif" font-size="14.00">Zustimmung</text>
</g>
<!-- 1&#45;&gt;A01 -->
<g id="edge2" class="edge">
<title>1-&gt;A01</title>
<path fill="none" stroke="#88a0d6" d="M301.85,-112.75C293.87,-100.62 282.77,-83.72 272.7,-68.41"/>
<polygon fill="#88a0d6" stroke="#88a0d6" points="275.86,-66.84 267.44,-60.41 270.01,-70.69 275.86,-66.84"/>
<text text-anchor="start" x="287.88" y="-82.23" font-family="Roboto, sans-serif" font-weight="bold" font-size="14.00">JA</text>
</g>
<!-- A02 -->
<g id="node4" class="node">
<title>A02</title>
<path fill="#c4cac1" stroke="black" stroke-width="0" d="M417.15,-59.28C417.15,-59.28 336.6,-59.28 336.6,-59.28 330.6,-59.28 324.6,-53.28 324.6,-47.28 324.6,-47.28 324.6,-12 324.6,-12 324.6,-6 330.6,0 336.6,0 336.6,0 417.15,0 417.15,0 423.15,0 429.15,-6 429.15,-12 429.15,-12 429.15,-47.28 429.15,-47.28 429.15,-53.28 423.15,-59.28 417.15,-59.28"/>
<text text-anchor="start" x="339" y="-38.34" font-family="Roboto, sans-serif" font-weight="bold" font-size="14.00">A02</text>
<text text-anchor="start" x="339" y="-10.34" font-family="Roboto, sans-serif" font-size="14.00">Ablehnung</text>
</g>
<!-- 1&#45;&gt;A02 -->
<g id="edge3" class="edge">
<title>1-&gt;A02</title>
<path fill="none" stroke="#88a0d6" d="M323.73,-112.75C331.59,-100.62 342.52,-83.72 352.43,-68.41"/>
<polygon fill="#88a0d6" stroke="#88a0d6" points="355.11,-70.71 357.61,-60.41 349.24,-66.91 355.11,-70.71"/>
<text text-anchor="start" x="344.88" y="-82.23" font-family="Roboto, sans-serif" font-weight="bold" font-size="14.00">NEIN</text>
</g>
</g>
<a href="https://ahb-tabellen.hochfrequenz.de/ahb/FV2604/19204" target="_blank"><text x="10.0" y="346.81" text-anchor="start" font-family="Roboto, sans-serif" font-size="10" fill="#666666" text-decoration="none">PI: 19204</text></a></svg>