<?xml version='1.0' encoding='ASCII' standalone='yes'?>
<svg xmlns="http://www.w3.org/2000/svg" xmlns:xlink="http://www.w3.org/1999/xlink" version="1.1" width="1882.6666666666667px" viewBox="0 0 1882.6666666666667 1826.6666666666667" height="1826.6666666666667px">
  <g>
    <svg version="1.1" width="1882.6666666666667px" viewBox="0 0 1882.6666666666667 1826.6666666666667" height="1826.6666666666667px">
  <polygon fill="#f3f1f6" points="0,0 1882.6666666666667,0 1882.6666666666667,1826.6666666666667 0,1826.6666666666667"/><g>
    <g transform="translate(211.20865001537493, 182.66666666666663) scale(1 1) translate(0, 0) scale(8.261311618144088 8.261311618144088) "><sodipodi:namedview xmlns:sodipodi="http://sodipodi.sourceforge.net/DTD/sodipodi-0.dtd" xmlns:inkscape="http://www.inkscape.org/namespaces/inkscape" id="namedview7" pagecolor="#ffffff" bordercolor="#999999" borderopacity="1" inkscape:pageshadow="0" inkscape:pageopacity="0" inkscape:pagecheckerboard="0" inkscape:document-units="mm" showgrid="false" fit-margin-top="0" fit-margin-left="0" fit-margin-right="0" fit-margin-bottom="0" inkscape:zoom="0.64052329" inkscape:cx="130.36216" inkscape:cy="412.163" inkscape:window-width="1512" inkscape:window-height="916" inkscape:window-x="3840" inkscape:window-y="136" inkscape:window-maximized="0" inkscape:current-layer="layer1"/>
  <defs id="defs2">
    <clipPath clipPathUnits="userSpaceOnUse" id="clipPath23">
      <path d="M 0,568.156 H 579.236 V 0 H 0 Z" id="path21"/>
    </clipPath>
  </defs>
  <g xmlns:inkscape="http://www.inkscape.org/namespaces/inkscape" inkscape:label="Layer 1" inkscape:groupmode="layer" id="layer1" transform="translate(-16.541937,-55.305267)">
    <g id="g19" clip-path="url(#clipPath23)" transform="matrix(0.35277777,0,0,-0.35277777,0.01017023,243.73675)" style="opacity:0.2">
      <g id="g25" transform="translate(122.444,32.7195)">
        <path d="m 0,0 h -56.104 c -11,0 -19.898,9.123 -19.463,20.115 10.594,267.191 231.277,481.302 501.029,481.302 v -56.02 c 0,-10.98 -8.688,-19.892 -19.658,-20.393 C 180.29,414.697 0,228.005 0,0" style="fill:#6ead83;fill-opacity:0.5;fill-rule:nonzero;stroke:none" id="path27"/>
      </g>
      <g id="g29" transform="translate(273.7828,32.7195)">
        <path d="m 0,0 h -55.926 c -11.228,0 -20.091,9.482 -19.435,20.69 10.744,183.439 163.389,329.388 349.485,329.388 v -56.263 c 0,-10.709 -8.273,-19.617 -18.957,-20.35 C 112.819,263.696 0,144.774 0,0" style="fill:#6ead83;fill-opacity:0.5;fill-rule:nonzero;stroke:none" id="path31"/>
      </g>
      <g id="g33" transform="translate(425.7667,32.7195)">
        <path d="m 0,0 h -55.445 c -11.653,0 -20.604,10.17 -19.334,21.753 10.866,99.032 95.031,176.341 196.919,176.341 v -57.011 c 0,-10.046 -7.283,-18.755 -17.229,-20.165 C 45.688,112.522 0,61.497 0,0" style="fill:#6ead83;fill-opacity:0.5;fill-rule:nonzero;stroke:none" id="path35"/>
      </g>
    </g>
  </g>
</g>
    <svg width="1412pt" height="1370pt" viewBox="0.00 0.00 1412.02 1369.98">
<g id="graph0" class="graph" transform="scale(1 1) rotate(0) translate(4 1365.98)">
<title>D</title>
<text text-anchor="start" x="155.63" y="-1341.88" font-family="Times,serif" font-weight="bold" font-size="18.00">7.17 AD: Aktivierung eines MaBiS-ZP f&#252;r Bilanzierungsgebietssummenzeitreihen vom &#220;NB an BIKO und NB</text>
<text text-anchor="start" x="500.63" y="-1311.78" font-family="Times,serif" font-weight="bold" font-size="16.00">7.17.1 E_0015_MaBiS-ZP Aktivierung pr&#252;fen</text>
<!-- Start -->
<g id="node1" class="node">
<title>Start</title>
<path fill="#7a8da1" stroke="black" d="M383.39,-1263.98C383.39,-1263.98 233.09,-1263.98 233.09,-1263.98 227.09,-1263.98 221.09,-1257.98 221.09,-1251.98 221.09,-1251.98 221.09,-1232.7 221.09,-1232.7 221.09,-1226.7 227.09,-1220.7 233.09,-1220.7 233.09,-1220.7 383.39,-1220.7 383.39,-1220.7 389.39,-1220.7 395.39,-1226.7 395.39,-1232.7 395.39,-1232.7 395.39,-1251.98 395.39,-1251.98 395.39,-1257.98 389.39,-1263.98 383.39,-1263.98"/>
<text text-anchor="start" x="280.12" y="-1243.04" font-family="Times,serif" font-weight="bold" font-size="14.00">E_0015</text>
<text text-anchor="start" x="235.49" y="-1230.94" font-family="Times,serif" font-weight="bold" text-decoration="underline" font-size="12.00">Pr&#252;fende Rolle:</text>
<text text-anchor="start" x="340.49" y="-1230.94" font-family="Times,serif" font-weight="bold" font-size="12.00"> BIKO</text>
</g>
<!-- 1 -->
<g id="node2" class="node">
<title>1</title>
<path fill="#7aab8a" stroke="black" d="M560.76,-1183.7C560.76,-1183.7 55.72,-1183.7 55.72,-1183.7 49.72,-1183.7 43.72,-1177.7 43.72,-1171.7 43.72,-1171.7 43.72,-1159.7 43.72,-1159.7 43.72,-1153.7 49.72,-1147.7 55.72,-1147.7 55.72,-1147.7 560.76,-1147.7 560.76,-1147.7 566.76,-1147.7 572.76,-1153.7 572.76,-1159.7 572.76,-1159.7 572.76,-1171.7 572.76,-1171.7 572.76,-1177.7 566.76,-1183.7 560.76,-1183.7"/>
<text text-anchor="start" x="58.12" y="-1162.03" font-family="Times,serif" font-weight="bold" font-size="14.00">1: </text>
<text text-anchor="start" x="77.62" y="-1162.03" font-family="Times,serif" font-size="14.00">Erfolgt die Aktivierung nach Ablauf der Clearingfrist f&#252;r die KBKA?</text>
</g>
<!-- Start&#45;&gt;1 -->
<g id="edge1" class="edge">
<title>Start-&gt;1</title>
<path fill="none" stroke="black" d="M308.24,-1220.55C308.24,-1212.69 308.24,-1203.61 308.24,-1195.17"/>
<polygon fill="black" stroke="black" points="311.74,-1195.37 308.24,-1185.37 304.74,-1195.37 311.74,-1195.37"/>
</g>
<!-- A01 -->
<g id="node3" class="node">
<title>A01</title>
<path fill="#cfb986" stroke="black" d="M132.48,-1094.45C132.48,-1094.45 12,-1094.45 12,-1094.45 6,-1094.45 0,-1088.45 0,-1082.45 0,-1082.45 0,-1044.93 0,-1044.93 0,-1038.93 6,-1032.93 12,-1032.93 12,-1032.93 132.48,-1032.93 132.48,-1032.93 138.48,-1032.93 144.48,-1038.93 144.48,-1044.93 144.48,-1044.93 144.48,-1082.45 144.48,-1082.45 144.48,-1088.45 138.48,-1094.45 132.48,-1094.45"/>
<text text-anchor="start" x="57.24" y="-1076.39" font-family="Times,serif" font-weight="bold" font-size="14.00">A01</text>
<text text-anchor="start" x="12.24" y="-1064.29" font-family="Times,serif" text-decoration="underline" font-size="12.00">Hinweis:</text>
<text text-anchor="start" x="12.24" y="-1052.29" font-family="Times,serif" font-size="12.00">Cluster Ablehnung</text>
<text text-anchor="start" x="12.24" y="-1040.29" font-family="Times,serif" font-size="12.00">Frist&#252;berschreitung</text>
</g>
<!-- 1&#45;&gt;A01 -->
<g id="edge2" class="edge">
<title>1-&gt;A01</title>
<path fill="none" stroke="black" d="M267.13,-1147.28C235.85,-1134.03 191.81,-1115.36 153.51,-1099.13"/>
<polygon fill="black" stroke="black" points="155.35,-1096.11 144.78,-1095.43 152.62,-1102.56 155.35,-1096.11"/>
<text text-anchor="middle" x="230.99" y="-1116.4" font-family="Times,serif" font-size="14.00">Ja</text>
</g>
<!-- 2 -->
<g id="node4" class="node">
<title>2</title>
<path fill="#7aab8a" stroke="black" d="M585.89,-1081.69C585.89,-1081.69 174.59,-1081.69 174.59,-1081.69 168.59,-1081.69 162.59,-1075.69 162.59,-1069.69 162.59,-1069.69 162.59,-1057.69 162.59,-1057.69 162.59,-1051.69 168.59,-1045.69 174.59,-1045.69 174.59,-1045.69 585.89,-1045.69 585.89,-1045.69 591.89,-1045.69 597.89,-1051.69 597.89,-1057.69 597.89,-1057.69 597.89,-1069.69 597.89,-1069.69 597.89,-1075.69 591.89,-1081.69 585.89,-1081.69"/>
<text text-anchor="start" x="176.99" y="-1060.02" font-family="Times,serif" font-weight="bold" font-size="14.00">2: </text>
<text text-anchor="start" x="196.49" y="-1060.02" font-family="Times,serif" font-size="14.00">Erfolgt die Aktivierung zum Monatsersten 00:00 Uhr?</text>
</g>
<!-- 1&#45;&gt;2 -->
<g id="edge3" class="edge">
<title>1-&gt;2</title>
<path fill="none" stroke="black" d="M320.78,-1147.28C331.93,-1131.79 348.4,-1108.92 361.18,-1091.17"/>
<polygon fill="black" stroke="black" points="363.96,-1093.3 366.96,-1083.14 358.27,-1089.21 363.96,-1093.3"/>
<text text-anchor="middle" x="361.12" y="-1116.4" font-family="Times,serif" font-size="14.00">Nein</text>
</g>
<!-- A02 -->
<g id="node5" class="node">
<title>A02</title>
<path fill="#cfb986" stroke="black" d="M248.48,-979.68C248.48,-979.68 38,-979.68 38,-979.68 32,-979.68 26,-973.68 26,-967.68 26,-967.68 26,-930.16 26,-930.16 26,-924.16 32,-918.16 38,-918.16 38,-918.16 248.48,-918.16 248.48,-918.16 254.48,-918.16 260.48,-924.16 260.48,-930.16 260.48,-930.16 260.48,-967.68 260.48,-967.68 260.48,-973.68 254.48,-979.68 248.48,-979.68"/>
<text text-anchor="start" x="128.24" y="-961.62" font-family="Times,serif" font-weight="bold" font-size="14.00">A02</text>
<text text-anchor="start" x="38.24" y="-949.52" font-family="Times,serif" text-decoration="underline" font-size="12.00">Hinweis:</text>
<text text-anchor="start" x="38.24" y="-937.52" font-family="Times,serif" font-size="12.00">Cluster Ablehnung</text>
<text text-anchor="start" x="38.24" y="-925.52" font-family="Times,serif" font-size="12.00">Gew&#228;hlter Zeitpunkt nicht zul&#228;ssig</text>
</g>
<!-- 2&#45;&gt;A02 -->
<g id="edge4" class="edge">
<title>2-&gt;A02</title>
<path fill="none" stroke="black" d="M343.47,-1045.19C309.72,-1029.13 258.72,-1004.87 216.64,-984.84"/>
<polygon fill="black" stroke="black" points="218.33,-981.77 207.79,-980.64 215.32,-988.09 218.33,-981.77"/>
<text text-anchor="middle" x="292.12" y="-1001.63" font-family="Times,serif" font-size="14.00">Nein</text>
</g>
<!-- 3 -->
<g id="node6" class="node">
<title>3</title>
<path fill="#7aab8a" stroke="black" d="M580.14,-966.92C580.14,-966.92 290.34,-966.92 290.34,-966.92 284.34,-966.92 278.34,-960.92 278.34,-954.92 278.34,-954.92 278.34,-942.92 278.34,-942.92 278.34,-936.92 284.34,-930.92 290.34,-930.92 290.34,-930.92 580.14,-930.92 580.14,-930.92 586.14,-930.92 592.14,-936.92 592.14,-942.92 592.14,-942.92 592.14,-954.92 592.14,-954.92 592.14,-960.92 586.14,-966.92 580.14,-966.92"/>
<text text-anchor="start" x="292.74" y="-945.25" font-family="Times,serif" font-weight="bold" font-size="14.00">3: </text>
<text text-anchor="start" x="312.24" y="-945.25" font-family="Times,serif" font-size="14.00">Ist die richtige Regelzone angegeben</text>
</g>
<!-- 2&#45;&gt;3 -->
<g id="edge5" class="edge">
<title>2-&gt;3</title>
<path fill="none" stroke="black" d="M388.59,-1045.56C397.4,-1027.51 411.4,-998.81 421.76,-977.55"/>
<polygon fill="black" stroke="black" points="424.91,-979.09 426.14,-968.57 418.62,-976.02 424.91,-979.09"/>
<text text-anchor="middle" x="416.99" y="-1001.63" font-family="Times,serif" font-size="14.00">Ja</text>
</g>
<!-- A03 -->
<g id="node7" class="node">
<title>A03</title>
<path fill="#cfb986" stroke="black" d="M131.35,-864.91C131.35,-864.91 19.12,-864.91 19.12,-864.91 13.12,-864.91 7.12,-858.91 7.12,-852.91 7.12,-852.91 7.12,-815.39 7.12,-815.39 7.12,-809.39 13.12,-803.39 19.12,-803.39 19.12,-803.39 131.35,-803.39 131.35,-803.39 137.35,-803.39 143.35,-809.39 143.35,-815.39 143.35,-815.39 143.35,-852.91 143.35,-852.91 143.35,-858.91 137.35,-864.91 131.35,-864.91"/>
<text text-anchor="start" x="60.24" y="-846.85" font-family="Times,serif" font-weight="bold" font-size="14.00">A03</text>
<text text-anchor="start" x="19.36" y="-834.75" font-family="Times,serif" text-decoration="underline" font-size="12.00">Hinweis:</text>
<text text-anchor="start" x="19.36" y="-822.75" font-family="Times,serif" font-size="12.00">Cluster Ablehnung</text>
<text text-anchor="start" x="19.36" y="-810.75" font-family="Times,serif" font-size="12.00">Regelzone falsch</text>
</g>
<!-- 3&#45;&gt;A03 -->
<g id="edge6" class="edge">
<title>3-&gt;A03</title>
<path fill="none" stroke="black" d="M370.13,-930.49C314.93,-915.33 233.55,-892.1 154.23,-865.5"/>
<polygon fill="black" stroke="black" points="155.59,-862.27 145,-862.38 153.35,-868.9 155.59,-862.27"/>
<text text-anchor="middle" x="277.12" y="-886.86" font-family="Times,serif" font-size="14.00">Nein</text>
</g>
<!-- 4 -->
<g id="node8" class="node">
<title>4</title>
<path fill="#7aab8a" stroke="black" d="M821.01,-852.15C821.01,-852.15 173.47,-852.15 173.47,-852.15 167.47,-852.15 161.47,-846.15 161.47,-840.15 161.47,-840.15 161.47,-828.15 161.47,-828.15 161.47,-822.15 167.47,-816.15 173.47,-816.15 173.47,-816.15 821.01,-816.15 821.01,-816.15 827.01,-816.15 833.01,-822.15 833.01,-828.15 833.01,-828.15 833.01,-840.15 833.01,-840.15 833.01,-846.15 827.01,-852.15 821.01,-852.15"/>
<text text-anchor="start" x="175.87" y="-830.48" font-family="Times,serif" font-weight="bold" font-size="14.00">4: </text>
<text text-anchor="start" x="195.37" y="-830.48" font-family="Times,serif" font-size="14.00">Ist das Bilanzierungsgebiet zum Aktivierungsbeginn in der Regelzone des BIKO g&#252;ltig?</text>
</g>
<!-- 3&#45;&gt;4 -->
<g id="edge7" class="edge">
<title>3-&gt;4</title>
<path fill="none" stroke="black" d="M444.66,-930.79C454.63,-912.66 470.51,-883.78 482.21,-862.49"/>
<polygon fill="black" stroke="black" points="485.25,-864.21 487.01,-853.76 479.12,-860.84 485.25,-864.21"/>
<text text-anchor="middle" x="475.99" y="-886.86" font-family="Times,serif" font-size="14.00">Ja</text>
</g>
<!-- A04 -->
<g id="node9" class="node">
<title>A04</title>
<path fill="#cfb986" stroke="black" d="M236.11,-750.14C236.11,-750.14 44.38,-750.14 44.38,-750.14 38.38,-750.14 32.38,-744.14 32.38,-738.14 32.38,-738.14 32.38,-700.62 32.38,-700.62 32.38,-694.62 38.38,-688.62 44.38,-688.62 44.38,-688.62 236.11,-688.62 236.11,-688.62 242.11,-688.62 248.11,-694.62 248.11,-700.62 248.11,-700.62 248.11,-738.14 248.11,-738.14 248.11,-744.14 242.11,-750.14 236.11,-750.14"/>
<text text-anchor="start" x="125.24" y="-732.08" font-family="Times,serif" font-weight="bold" font-size="14.00">A04</text>
<text text-anchor="start" x="44.62" y="-719.98" font-family="Times,serif" text-decoration="underline" font-size="12.00">Hinweis:</text>
<text text-anchor="start" x="44.62" y="-707.98" font-family="Times,serif" font-size="12.00">Cluster Ablehnung</text>
<text text-anchor="start" x="44.62" y="-695.98" font-family="Times,serif" font-size="12.00">Bilanzierungsgebiet nicht g&#252;ltig</text>
</g>
<!-- 4&#45;&gt;A04 -->
<g id="edge8" class="edge">
<title>4-&gt;A04</title>
<path fill="none" stroke="black" d="M441.85,-815.65C389.92,-799.25 310.88,-774.28 246.74,-754.02"/>
<polygon fill="black" stroke="black" points="247.8,-750.69 237.21,-751.01 245.69,-757.36 247.8,-750.69"/>
<text text-anchor="middle" x="356.12" y="-772.09" font-family="Times,serif" font-size="14.00">Nein</text>
</g>
<!-- 5 -->
<g id="node10" class="node">
<title>5</title>
<path fill="#7aab8a" stroke="black" d="M851.89,-737.38C851.89,-737.38 278.59,-737.38 278.59,-737.38 272.59,-737.38 266.59,-731.38 266.59,-725.38 266.59,-725.38 266.59,-713.38 266.59,-713.38 266.59,-707.38 272.59,-701.38 278.59,-701.38 278.59,-701.38 851.89,-701.38 851.89,-701.38 857.89,-701.38 863.89,-707.38 863.89,-713.38 863.89,-713.38 863.89,-725.38 863.89,-725.38 863.89,-731.38 857.89,-737.38 851.89,-737.38"/>
<text text-anchor="start" x="280.99" y="-715.71" font-family="Times,serif" font-weight="bold" font-size="14.00">5: </text>
<text text-anchor="start" x="300.49" y="-715.71" font-family="Times,serif" font-size="14.00">Ist der &#220;NB zum Aktivierungsbeginn f&#252;r das Bilanzierungsgebiet zust&#228;ndig?</text>
</g>
<!-- 4&#45;&gt;5 -->
<g id="edge9" class="edge">
<title>4-&gt;5</title>
<path fill="none" stroke="black" d="M507.57,-816.02C518.55,-797.81 536.08,-768.74 548.93,-747.43"/>
<polygon fill="black" stroke="black" points="551.87,-749.34 554.03,-738.96 545.87,-745.72 551.87,-749.34"/>
<text text-anchor="middle" x="541.99" y="-772.09" font-family="Times,serif" font-size="14.00">Ja</text>
</g>
<!-- A05 -->
<g id="node11" class="node">
<title>A05</title>
<path fill="#cfb986" stroke="black" d="M400.73,-635.37C400.73,-635.37 281.75,-635.37 281.75,-635.37 275.75,-635.37 269.75,-629.37 269.75,-623.37 269.75,-623.37 269.75,-585.85 269.75,-585.85 269.75,-579.85 275.75,-573.85 281.75,-573.85 281.75,-573.85 400.73,-573.85 400.73,-573.85 406.73,-573.85 412.73,-579.85 412.73,-585.85 412.73,-585.85 412.73,-623.37 412.73,-623.37 412.73,-629.37 406.73,-635.37 400.73,-635.37"/>
<text text-anchor="start" x="326.24" y="-617.31" font-family="Times,serif" font-weight="bold" font-size="14.00">A05</text>
<text text-anchor="start" x="281.99" y="-605.21" font-family="Times,serif" text-decoration="underline" font-size="12.00">Hinweis:</text>
<text text-anchor="start" x="281.99" y="-593.21" font-family="Times,serif" font-size="12.00">Cluster Ablehnung</text>
<text text-anchor="start" x="281.99" y="-581.21" font-family="Times,serif" font-size="12.00">Keine Berechtigung</text>
</g>
<!-- 5&#45;&gt;A05 -->
<g id="edge10" class="edge">
<title>5-&gt;A05</title>
<path fill="none" stroke="black" d="M530.73,-701.01C499.01,-685.04 451.02,-660.87 411.27,-640.86"/>
<polygon fill="black" stroke="black" points="412.95,-637.79 402.44,-636.42 409.8,-644.05 412.95,-637.79"/>
<text text-anchor="middle" x="483.12" y="-657.32" font-family="Times,serif" font-size="14.00">Nein</text>
</g>
<!-- 6 -->
<g id="node12" class="node">
<title>6</title>
<path fill="#7aab8a" stroke="black" d="M965.39,-622.61C965.39,-622.61 443.09,-622.61 443.09,-622.61 437.09,-622.61 431.09,-616.61 431.09,-610.61 431.09,-610.61 431.09,-598.61 431.09,-598.61 431.09,-592.61 437.09,-586.61 443.09,-586.61 443.09,-586.61 965.39,-586.61 965.39,-586.61 971.39,-586.61 977.39,-592.61 977.39,-598.61 977.39,-598.61 977.39,-610.61 977.39,-610.61 977.39,-616.61 971.39,-622.61 965.39,-622.61"/>
<text text-anchor="start" x="445.49" y="-600.94" font-family="Times,serif" font-weight="bold" font-size="14.00">6: </text>
<text text-anchor="start" x="464.99" y="-600.94" font-family="Times,serif" font-size="14.00">Existiert bereits ein abweichendes Tupel unter der ID des MaBiS-ZP?</text>
</g>
<!-- 5&#45;&gt;6 -->
<g id="edge11" class="edge">
<title>5-&gt;6</title>
<path fill="none" stroke="black" d="M586.65,-701.01C610.09,-682 647.83,-651.38 674.21,-629.97"/>
<polygon fill="black" stroke="black" points="676.29,-632.79 681.85,-623.77 671.88,-627.35 676.29,-632.79"/>
<text text-anchor="middle" x="648.99" y="-657.32" font-family="Times,serif" font-size="14.00">Ja</text>
</g>
<!-- A06 -->
<g id="node13" class="node">
<title>A06</title>
<path fill="#cfb986" stroke="black" d="M473.86,-520.6C473.86,-520.6 208.62,-520.6 208.62,-520.6 202.62,-520.6 196.62,-514.6 196.62,-508.6 196.62,-508.6 196.62,-471.08 196.62,-471.08 196.62,-465.08 202.62,-459.08 208.62,-459.08 208.62,-459.08 473.86,-459.08 473.86,-459.08 479.86,-459.08 485.86,-465.08 485.86,-471.08 485.86,-471.08 485.86,-508.6 485.86,-508.6 485.86,-514.6 479.86,-520.6 473.86,-520.6"/>
<text text-anchor="start" x="326.24" y="-502.54" font-family="Times,serif" font-weight="bold" font-size="14.00">A06</text>
<text text-anchor="start" x="208.87" y="-490.44" font-family="Times,serif" text-decoration="underline" font-size="12.00">Hinweis:</text>
<text text-anchor="start" x="208.87" y="-478.44" font-family="Times,serif" font-size="12.00">Cluster Ablehnung</text>
<text text-anchor="start" x="208.87" y="-466.44" font-family="Times,serif" font-size="12.00">Abweichender MaBiS-ZP bereits vorhanden</text>
</g>
<!-- 6&#45;&gt;A06 -->
<g id="edge12" class="edge">
<title>6-&gt;A06</title>
<path fill="none" stroke="black" d="M647.92,-586.11C595.01,-569.68 514.42,-544.64 449.13,-524.36"/>
<polygon fill="black" stroke="black" points="450.41,-521.09 439.82,-521.47 448.33,-527.77 450.41,-521.09"/>
<text text-anchor="middle" x="550.99" y="-542.55" font-family="Times,serif" font-size="14.00">Ja</text>
</g>
<!-- 7 -->
<g id="node14" class="node">
<title>7</title>
<path fill="#7aab8a" stroke="black" d="M1126.26,-512.48C1126.26,-512.48 516.22,-512.48 516.22,-512.48 510.22,-512.48 504.22,-506.48 504.22,-500.48 504.22,-500.48 504.22,-479.2 504.22,-479.2 504.22,-473.2 510.22,-467.2 516.22,-467.2 516.22,-467.2 1126.26,-467.2 1126.26,-467.2 1132.26,-467.2 1138.26,-473.2 1138.26,-479.2 1138.26,-479.2 1138.26,-500.48 1138.26,-500.48 1138.26,-506.48 1132.26,-512.48 1126.26,-512.48"/>
<text text-anchor="start" x="518.62" y="-491.54" font-family="Times,serif" font-weight="bold" font-size="14.00">7: </text>
<text text-anchor="start" x="538.12" y="-491.54" font-family="Times,serif" font-size="14.00">Existiert bereits f&#252;r das genannte Tupel aus Aggregations-verantwortlicher,</text>
<text text-anchor="start" x="518.62" y="-477.54" font-family="Times,serif" font-size="14.00">Bilanzierungsgebiet, Spannungsebene und ZRT eine abweichende ID des MaBiS-ZP?</text>
</g>
<!-- 6&#45;&gt;7 -->
<g id="edge13" class="edge">
<title>6-&gt;7</title>
<path fill="none" stroke="black" d="M722.26,-586.24C740.37,-568.78 768.63,-541.55 790.32,-520.64"/>
<polygon fill="black" stroke="black" points="792.72,-523.19 797.49,-513.73 787.86,-518.15 792.72,-523.19"/>
<text text-anchor="middle" x="786.12" y="-542.55" font-family="Times,serif" font-size="14.00">Nein</text>
</g>
<!-- A07 -->
<g id="node15" class="node">
<title>A07</title>
<path fill="#cfb986" stroke="black" d="M772.11,-405.83C772.11,-405.83 466.38,-405.83 466.38,-405.83 460.38,-405.83 454.38,-399.83 454.38,-393.83 454.38,-393.83 454.38,-356.31 454.38,-356.31 454.38,-350.31 460.38,-344.31 466.38,-344.31 466.38,-344.31 772.11,-344.31 772.11,-344.31 778.11,-344.31 784.11,-350.31 784.11,-356.31 784.11,-356.31 784.11,-393.83 784.11,-393.83 784.11,-399.83 778.11,-405.83 772.11,-405.83"/>
<text text-anchor="start" x="604.24" y="-387.77" font-family="Times,serif" font-weight="bold" font-size="14.00">A07</text>
<text text-anchor="start" x="466.62" y="-375.67" font-family="Times,serif" text-decoration="underline" font-size="12.00">Hinweis:</text>
<text text-anchor="start" x="466.62" y="-363.67" font-family="Times,serif" font-size="12.00">Cluster Ablehnung</text>
<text text-anchor="start" x="466.62" y="-351.67" font-family="Times,serif" font-size="12.00">Abweichende ID zum MaBiS-ZP bereits vorhanden</text>
</g>
<!-- 7&#45;&gt;A07 -->
<g id="edge14" class="edge">
<title>7-&gt;A07</title>
<path fill="none" stroke="black" d="M781.81,-466.83C753.72,-451.15 715.35,-429.72 682.94,-411.63"/>
<polygon fill="black" stroke="black" points="684.85,-408.69 674.41,-406.87 681.44,-414.8 684.85,-408.69"/>
<text text-anchor="middle" x="738.99" y="-427.78" font-family="Times,serif" font-size="14.00">Ja</text>
</g>
<!-- 8 -->
<g id="node16" class="node">
<title>8</title>
<path fill="#7aab8a" stroke="black" d="M1189.89,-393.07C1189.89,-393.07 814.59,-393.07 814.59,-393.07 808.59,-393.07 802.59,-387.07 802.59,-381.07 802.59,-381.07 802.59,-369.07 802.59,-369.07 802.59,-363.07 808.59,-357.07 814.59,-357.07 814.59,-357.07 1189.89,-357.07 1189.89,-357.07 1195.89,-357.07 1201.89,-363.07 1201.89,-369.07 1201.89,-369.07 1201.89,-381.07 1201.89,-381.07 1201.89,-387.07 1195.89,-393.07 1189.89,-393.07"/>
<text text-anchor="start" x="816.99" y="-371.39" font-family="Times,serif" font-weight="bold" font-size="14.00">8: </text>
<text text-anchor="start" x="836.49" y="-371.39" font-family="Times,serif" font-size="14.00">Ist der &#220;NB zur Aktivierung des ZRT berechtigt?</text>
</g>
<!-- 7&#45;&gt;8 -->
<g id="edge15" class="edge">
<title>7-&gt;8</title>
<path fill="none" stroke="black" d="M856.57,-466.83C887.8,-447.37 933.21,-419.08 965.01,-399.27"/>
<polygon fill="black" stroke="black" points="966.48,-402.47 973.12,-394.21 962.78,-396.53 966.48,-402.47"/>
<text text-anchor="middle" x="939.12" y="-427.78" font-family="Times,serif" font-size="14.00">Nein</text>
</g>
<!-- A08 -->
<g id="node17" class="node">
<title>A08</title>
<path fill="#cfb986" stroke="black" d="M912.86,-291.06C912.86,-291.06 713.62,-291.06 713.62,-291.06 707.62,-291.06 701.62,-285.06 701.62,-279.06 701.62,-279.06 701.62,-241.54 701.62,-241.54 701.62,-235.54 707.62,-229.54 713.62,-229.54 713.62,-229.54 912.86,-229.54 912.86,-229.54 918.86,-229.54 924.86,-235.54 924.86,-241.54 924.86,-241.54 924.86,-279.06 924.86,-279.06 924.86,-285.06 918.86,-291.06 912.86,-291.06"/>
<text text-anchor="start" x="798.24" y="-273" font-family="Times,serif" font-weight="bold" font-size="14.00">A08</text>
<text text-anchor="start" x="713.87" y="-260.9" font-family="Times,serif" text-decoration="underline" font-size="12.00">Hinweis:</text>
<text text-anchor="start" x="713.87" y="-248.9" font-family="Times,serif" font-size="12.00">Cluster Ablehnung</text>
<text text-anchor="start" x="713.87" y="-236.9" font-family="Times,serif" font-size="12.00">ZRT Aktivierung nicht berechtigt</text>
</g>
<!-- 8&#45;&gt;A08 -->
<g id="edge16" class="edge">
<title>8-&gt;A08</title>
<path fill="none" stroke="black" d="M973.12,-356.7C946.64,-340.9 906.72,-317.08 873.4,-297.19"/>
<polygon fill="black" stroke="black" points="875.42,-294.33 865.04,-292.21 871.83,-300.34 875.42,-294.33"/>
<text text-anchor="middle" x="935.12" y="-313.01" font-family="Times,serif" font-size="14.00">Nein</text>
</g>
<!-- 9 -->
<g id="node18" class="node">
<title>9</title>
<path fill="#7aab8a" stroke="black" d="M1230.02,-278.3C1230.02,-278.3 954.47,-278.3 954.47,-278.3 948.47,-278.3 942.47,-272.3 942.47,-266.3 942.47,-266.3 942.47,-254.3 942.47,-254.3 942.47,-248.3 948.47,-242.3 954.47,-242.3 954.47,-242.3 1230.02,-242.3 1230.02,-242.3 1236.02,-242.3 1242.02,-248.3 1242.02,-254.3 1242.02,-254.3 1242.02,-266.3 1242.02,-266.3 1242.02,-272.3 1236.02,-278.3 1230.02,-278.3"/>
<text text-anchor="start" x="956.87" y="-256.62" font-family="Times,serif" font-weight="bold" font-size="14.00">9: </text>
<text text-anchor="start" x="976.37" y="-256.62" font-family="Times,serif" font-size="14.00">Passt die OBIS-Kennzahl zum ZRT?</text>
</g>
<!-- 8&#45;&gt;9 -->
<g id="edge17" class="edge">
<title>8-&gt;9</title>
<path fill="none" stroke="black" d="M1015.91,-356.94C1030.64,-338.48 1054.28,-308.87 1071.35,-287.48"/>
<polygon fill="black" stroke="black" points="1074,-289.77 1077.5,-279.77 1068.52,-285.4 1074,-289.77"/>
<text text-anchor="middle" x="1058.99" y="-313.01" font-family="Times,serif" font-size="14.00">Ja</text>
</g>
<!-- A09 -->
<g id="node19" class="node">
<title>A09</title>
<path fill="#cfb986" stroke="black" d="M840.36,-176.29C840.36,-176.29 722.12,-176.29 722.12,-176.29 716.12,-176.29 710.12,-170.29 710.12,-164.29 710.12,-164.29 710.12,-126.77 710.12,-126.77 710.12,-120.77 716.12,-114.77 722.12,-114.77 722.12,-114.77 840.36,-114.77 840.36,-114.77 846.36,-114.77 852.36,-120.77 852.36,-126.77 852.36,-126.77 852.36,-164.29 852.36,-164.29 852.36,-170.29 846.36,-176.29 840.36,-176.29"/>
<text text-anchor="start" x="766.24" y="-158.23" font-family="Times,serif" font-weight="bold" font-size="14.00">A09</text>
<text text-anchor="start" x="722.37" y="-146.13" font-family="Times,serif" text-decoration="underline" font-size="12.00">Hinweis:</text>
<text text-anchor="start" x="722.37" y="-134.13" font-family="Times,serif" font-size="12.00">Cluster Ablehnung</text>
<text text-anchor="start" x="722.37" y="-122.13" font-family="Times,serif" font-size="12.00">OBIS nicht passend</text>
</g>
<!-- 9&#45;&gt;A09 -->
<g id="edge18" class="edge">
<title>9-&gt;A09</title>
<path fill="none" stroke="black" d="M1043.06,-241.81C998.55,-225.93 930.88,-201.7 863.18,-176.99"/>
<polygon fill="black" stroke="black" points="864.77,-173.84 854.18,-173.7 862.37,-180.42 864.77,-173.84"/>
<text text-anchor="middle" x="973.12" y="-198.24" font-family="Times,serif" font-size="14.00">Nein</text>
</g>
<!-- 10 -->
<g id="node20" class="node">
<title>10</title>
<path fill="#7aab8a" stroke="black" d="M1392.01,-163.53C1392.01,-163.53 882.47,-163.53 882.47,-163.53 876.47,-163.53 870.47,-157.53 870.47,-151.53 870.47,-151.53 870.47,-139.53 870.47,-139.53 870.47,-133.53 876.47,-127.53 882.47,-127.53 882.47,-127.53 1392.01,-127.53 1392.01,-127.53 1398.01,-127.53 1404.01,-133.53 1404.01,-139.53 1404.01,-139.53 1404.01,-151.53 1404.01,-151.53 1404.01,-157.53 1398.01,-163.53 1392.01,-163.53"/>
<text text-anchor="start" x="884.87" y="-141.85" font-family="Times,serif" font-weight="bold" font-size="14.00">10: </text>
<text text-anchor="start" x="914.12" y="-141.85" font-family="Times,serif" font-size="14.00">Ist der MaBiS-ZP zum Zeitpunkt der Aktivierung bereits aktiviert?</text>
</g>
<!-- 9&#45;&gt;10 -->
<g id="edge19" class="edge">
<title>9-&gt;10</title>
<path fill="none" stroke="black" d="M1099.07,-242.17C1106.24,-224.21 1117.63,-195.68 1126.1,-174.45"/>
<polygon fill="black" stroke="black" points="1129.32,-175.81 1129.78,-165.22 1122.82,-173.21 1129.32,-175.81"/>
<text text-anchor="middle" x="1123.99" y="-198.24" font-family="Times,serif" font-size="14.00">Ja</text>
</g>
<!-- A10 -->
<g id="node21" class="node">
<title>A10</title>
<path fill="#cfb986" stroke="black" d="M1110.11,-61.52C1110.11,-61.52 948.38,-61.52 948.38,-61.52 942.38,-61.52 936.38,-55.52 936.38,-49.52 936.38,-49.52 936.38,-12 936.38,-12 936.38,-6 942.38,0 948.38,0 948.38,0 1110.11,0 1110.11,0 1116.11,0 1122.11,-6 1122.11,-12 1122.11,-12 1122.11,-49.52 1122.11,-49.52 1122.11,-55.52 1116.11,-61.52 1110.11,-61.52"/>
<text text-anchor="start" x="1014.24" y="-43.46" font-family="Times,serif" font-weight="bold" font-size="14.00">A10</text>
<text text-anchor="start" x="948.62" y="-31.36" font-family="Times,serif" text-decoration="underline" font-size="12.00">Hinweis:</text>
<text text-anchor="start" x="948.62" y="-19.36" font-family="Times,serif" font-size="12.00">Cluster Ablehnung</text>
<text text-anchor="start" x="948.62" y="-7.36" font-family="Times,serif" font-size="12.00">MaBiS-ZP bereits aktiviert</text>
</g>
<!-- 10&#45;&gt;A10 -->
<g id="edge20" class="edge">
<title>10-&gt;A10</title>
<path fill="none" stroke="black" d="M1120.84,-127.4C1106.28,-112.2 1084.48,-89.44 1065.8,-69.93"/>
<polygon fill="black" stroke="black" points="1068.5,-67.7 1059.06,-62.9 1063.45,-72.54 1068.5,-67.7"/>
<text text-anchor="middle" x="1095.99" y="-83.47" font-family="Times,serif" font-size="14.00">Ja</text>
</g>
<!-- A11 -->
<g id="node22" class="node">
<title>A11</title>
<path fill="#cfb986" stroke="black" d="M1306.36,-61.52C1306.36,-61.52 1152.12,-61.52 1152.12,-61.52 1146.12,-61.52 1140.12,-55.52 1140.12,-49.52 1140.12,-49.52 1140.12,-12 1140.12,-12 1140.12,-6 1146.12,0 1152.12,0 1152.12,0 1306.36,0 1306.36,0 1312.36,0 1318.36,-6 1318.36,-12 1318.36,-12 1318.36,-49.52 1318.36,-49.52 1318.36,-55.52 1312.36,-61.52 1306.36,-61.52"/>
<text text-anchor="start" x="1214.24" y="-43.46" font-family="Times,serif" font-weight="bold" font-size="14.00">A11</text>
<text text-anchor="start" x="1152.37" y="-31.36" font-family="Times,serif" text-decoration="underline" font-size="12.00">Hinweis:</text>
<text text-anchor="start" x="1152.37" y="-19.36" font-family="Times,serif" font-size="12.00">Cluster: Zustimmung</text>
<text text-anchor="start" x="1152.37" y="-7.36" font-family="Times,serif" font-size="12.00">Aktivierung durchgef&#252;hrt</text>
</g>
<!-- 10&#45;&gt;A11 -->
<g id="edge21" class="edge">
<title>10-&gt;A11</title>
<path fill="none" stroke="black" d="M1151.21,-127.4C1163.45,-112.4 1181.69,-90.04 1197.46,-70.72"/>
<polygon fill="black" stroke="black" points="1200.16,-72.94 1203.77,-62.97 1194.74,-68.51 1200.16,-72.94"/>
<text text-anchor="middle" x="1205.12" y="-83.47" font-family="Times,serif" font-size="14.00">Nein</text>
</g>
</g>
</svg>
  </g>
</svg>
  </g>
</svg>
