<?xml version='1.0' encoding='ASCII' standalone='yes'?>
<svg xmlns="http://www.w3.org/2000/svg" xmlns:xlink="http://www.w3.org/1999/xlink" version="1.1" width="236.0px" viewBox="0 0 236.0 96.0" height="96.0px">
  <g>
    <g transform="translate(79.62848379642847, 9.599999999999998) scale(1 1) translate(0, 0) scale(0.43417112153749954 0.43417112153749954) "><sodipodi:namedview xmlns:sodipodi="http://sodipodi.sourceforge.net/DTD/sodipodi-0.dtd" xmlns:inkscape="http://www.inkscape.org/namespaces/inkscape" id="namedview7" pagecolor="#ffffff" bordercolor="#999999" borderopacity="1" inkscape:pageshadow="0" inkscape:pageopacity="0" inkscape:pagecheckerboard="0" inkscape:document-units="mm" showgrid="false" fit-margin-top="0" fit-margin-left="0" fit-margin-right="0" fit-margin-bottom="0" inkscape:zoom="0.64052329" inkscape:cx="130.36216" inkscape:cy="412.163" inkscape:window-width="1512" inkscape:window-height="916" inkscape:window-x="3840" inkscape:window-y="136" inkscape:window-maximized="0" inkscape:current-layer="layer1"/>
  <defs id="defs2">
    <clipPath clipPathUnits="userSpaceOnUse" id="clipPath23">
      <path d="M 0,568.156 H 579.236 V 0 H 0 Z" id="path21"/>
    </clipPath>
  </defs>
  <g xmlns:inkscape="http://www.inkscape.org/namespaces/inkscape" inkscape:label="Layer 1" inkscape:groupmode="layer" id="layer1" transform="translate(-16.541937,-55.305267)">
    <g id="g19" clip-path="url(#clipPath23)" transform="matrix(0.35277777,0,0,-0.35277777,0.01017023,243.73675)" style="opacity:0.2">
      <g id="g25" transform="translate(122.444,32.7195)">
        <path d="m 0,0 h -56.104 c -11,0 -19.898,9.123 -19.463,20.115 10.594,267.191 231.277,481.302 501.029,481.302 v -56.02 c 0,-10.98 -8.688,-19.892 -19.658,-20.393 C 180.29,414.697 0,228.005 0,0" style="fill:#6ead83;fill-opacity:0.5;fill-rule:nonzero;stroke:none" id="path27"/>
      </g>
      <g id="g29" transform="translate(273.7828,32.7195)">
        <path d="m 0,0 h -55.926 c -11.228,0 -20.091,9.482 -19.435,20.69 10.744,183.439 163.389,329.388 349.485,329.388 v -56.263 c 0,-10.709 -8.273,-19.617 -18.957,-20.35 C 112.819,263.696 0,144.774 0,0" style="fill:#6ead83;fill-opacity:0.5;fill-rule:nonzero;stroke:none" id="path31"/>
      </g>
      <g id="g33" transform="translate(425.7667,32.7195)">
        <path d="m 0,0 h -55.445 c -11.653,0 -20.604,10.17 -19.334,21.753 10.866,99.032 95.031,176.341 196.919,176.341 v -57.011 c 0,-10.046 -7.283,-18.755 -17.229,-20.165 C 45.688,112.522 0,61.497 0,0" style="fill:#6ead83;fill-opacity:0.5;fill-rule:nonzero;stroke:none" id="path35"/>
      </g>
    </g>
  </g>
</g>
    <svg width="177pt" height="72pt" viewBox="0.00 0.00 177.47 72.00">
<!--curl - -request POST - -url https://kroki.io/ via local kroki docker container instance hosted at http://localhost:8125/- -header 'Content-Type: application/json' - -data 'digraph D {
    labelloc="t";
    label=<<B><FONT POINT-SIZE="18">7.39 AD: Bestellung der Aggregationsebene der Bilanzkreissummenzeitreihe auf Ebene der Regelzone</FONT></B><BR/><BR/><B><FONT POINT-SIZE="16">7.39.1 E_0003_Bestellung der Aggregationsebene RZ pr&#252;fen</FONT></B><BR/><BR/><BR/><BR/>>;
    size="3,1";
    ratio="compress";
    "Start" [margin="0.2,0.12", shape=box, style=filled, fillcolor="#7a8da1", label=<<B>E_0003</B><BR align="center"/><FONT point-size="12"><B><U>Pr&#252;fende Rolle:</U> &#220;NB</B></FONT><BR align="center"/>>];
    "1" [margin="0.2,0.12", shape=box, style="filled,rounded", fillcolor="#7aab8a", label=<<B>1: </B>Erfolgt der Eingang der Bestellung fristgerecht?<BR align="left"/>>];
    "A01" [margin="0.17,0.08", shape=box, style=filled, fillcolor="#cfb986", label=<<B>A01</B><BR align="center"/><FONT point-size="12"><U>Hinweis:</U><BR align="left"/>Frist&#252;berschreitung<BR align="left"/></FONT>>];
    "2" [margin="0.2,0.12", shape=box, style="filled,rounded", fillcolor="#7aab8a", label=<<B>2: </B>Erfolgt die Bestellung zum Monatsersten 00:00 Uhr?<BR align="left"/>>];
    "A02" [margin="0.17,0.08", shape=box, style=filled, fillcolor="#cfb986", label=<<B>A02</B><BR align="center"/><FONT point-size="12"><U>Hinweis:</U><BR align="left"/>Gew&#228;hlter Zeitpunkt nicht zul&#228;ssig<BR align="left"/></FONT>>];
    "Ende" [margin="0.2,0.12", shape=box, style=filled, fillcolor="#7a8da1", label="Ende"];

    "Start" -> "1";
    "1" -> "A01" [label="Nein"];
    "1" -> "2" [label="Ja"];
    "2" -> "A02" [label="Nein"];
    "2" -> "Ende" [label="Ja"];

    bgcolor="transparent";
}'--><g id="graph0" class="graph" transform="scale(0.168295 0.168295) rotate(0) translate(4 423.82)">
<title>D</title>
<text text-anchor="start" x="8" y="-399.72" font-family="Times,serif" font-weight="bold" font-size="18.00">7.39 AD: Bestellung der Aggregationsebene der Bilanzkreissummenzeitreihe auf Ebene der Regelzone</text>
<text text-anchor="start" x="250.62" y="-369.62" font-family="Times,serif" font-weight="bold" font-size="16.00">7.39.1 E_0003_Bestellung der Aggregationsebene RZ pr&#252;fen</text>
<!-- Start -->
<g id="node1" class="node">
<title>Start</title>
<polygon fill="#7a8da1" stroke="black" points="601.01,-321.82 430.46,-321.82 430.46,-278.54 601.01,-278.54 601.01,-321.82"/>
<text text-anchor="start" x="487.61" y="-300.88" font-family="Times,serif" font-weight="bold" font-size="14.00">E_0003</text>
<text text-anchor="start" x="444.86" y="-288.78" font-family="Times,serif" font-weight="bold" text-decoration="underline" font-size="12.00">Pr&#252;fende Rolle:</text>
<text text-anchor="start" x="549.86" y="-288.78" font-family="Times,serif" font-weight="bold" font-size="12.00"> &#220;NB</text>
</g>
<!-- 1 -->
<g id="node2" class="node">
<title>1</title>
<path fill="#7aab8a" stroke="black" d="M702.26,-241.54C702.26,-241.54 329.21,-241.54 329.21,-241.54 323.21,-241.54 317.21,-235.54 317.21,-229.54 317.21,-229.54 317.21,-217.54 317.21,-217.54 317.21,-211.54 323.21,-205.54 329.21,-205.54 329.21,-205.54 702.26,-205.54 702.26,-205.54 708.26,-205.54 714.26,-211.54 714.26,-217.54 714.26,-217.54 714.26,-229.54 714.26,-229.54 714.26,-235.54 708.26,-241.54 702.26,-241.54"/>
<text text-anchor="start" x="331.61" y="-219.86" font-family="Times,serif" font-weight="bold" font-size="14.00">1: </text>
<text text-anchor="start" x="351.11" y="-219.86" font-family="Times,serif" font-size="14.00">Erfolgt der Eingang der Bestellung fristgerecht?</text>
</g>
<!-- Start&#45;&gt;1 -->
<g id="edge1" class="edge">
<title>Start-&gt;1</title>
<path fill="none" stroke="black" d="M515.73,-278.39C515.73,-270.53 515.73,-261.45 515.73,-253.01"/>
<polygon fill="black" stroke="black" points="519.23,-253.21 515.73,-243.21 512.23,-253.21 519.23,-253.21"/>
</g>
<!-- A01 -->
<g id="node3" class="node">
<title>A01</title>
<polygon fill="#cfb986" stroke="black" points="371.97,-152.29 227.49,-152.29 227.49,-102.77 371.97,-102.77 371.97,-152.29"/>
<text text-anchor="start" x="284.73" y="-134.23" font-family="Times,serif" font-weight="bold" font-size="14.00">A01</text>
<text text-anchor="start" x="239.73" y="-122.13" font-family="Times,serif" text-decoration="underline" font-size="12.00">Hinweis:</text>
<text text-anchor="start" x="239.73" y="-110.13" font-family="Times,serif" font-size="12.00">Frist&#252;berschreitung</text>
</g>
<!-- 1&#45;&gt;A01 -->
<g id="edge2" class="edge">
<title>1-&gt;A01</title>
<path fill="none" stroke="black" d="M475.61,-205.08C444.74,-191.64 401.43,-172.79 365.51,-157.16"/>
<polygon fill="black" stroke="black" points="367.06,-154.02 356.5,-153.24 364.27,-160.44 367.06,-154.02"/>
<text text-anchor="middle" x="449.61" y="-174.24" font-family="Times,serif" font-size="14.00">Nein</text>
</g>
<!-- 2 -->
<g id="node4" class="node">
<title>2</title>
<path fill="#7aab8a" stroke="black" d="M807.01,-145.53C807.01,-145.53 402.46,-145.53 402.46,-145.53 396.46,-145.53 390.46,-139.53 390.46,-133.53 390.46,-133.53 390.46,-121.53 390.46,-121.53 390.46,-115.53 396.46,-109.53 402.46,-109.53 402.46,-109.53 807.01,-109.53 807.01,-109.53 813.01,-109.53 819.01,-115.53 819.01,-121.53 819.01,-121.53 819.01,-133.53 819.01,-133.53 819.01,-139.53 813.01,-145.53 807.01,-145.53"/>
<text text-anchor="start" x="404.86" y="-123.86" font-family="Times,serif" font-weight="bold" font-size="14.00">2: </text>
<text text-anchor="start" x="424.36" y="-123.86" font-family="Times,serif" font-size="14.00">Erfolgt die Bestellung zum Monatsersten 00:00 Uhr?</text>
</g>
<!-- 1&#45;&gt;2 -->
<g id="edge3" class="edge">
<title>1-&gt;2</title>
<path fill="none" stroke="black" d="M532.06,-205.3C545.65,-190.94 565.19,-170.3 580.59,-154.03"/>
<polygon fill="black" stroke="black" points="582.84,-156.75 587.17,-147.08 577.75,-151.94 582.84,-156.75"/>
<text text-anchor="middle" x="569.48" y="-174.24" font-family="Times,serif" font-size="14.00">Ja</text>
</g>
<!-- A02 -->
<g id="node5" class="node">
<title>A02</title>
<polygon fill="#cfb986" stroke="black" points="637.97,-49.52 403.49,-49.52 403.49,0 637.97,0 637.97,-49.52"/>
<text text-anchor="start" x="505.73" y="-31.46" font-family="Times,serif" font-weight="bold" font-size="14.00">A02</text>
<text text-anchor="start" x="415.73" y="-19.36" font-family="Times,serif" text-decoration="underline" font-size="12.00">Hinweis:</text>
<text text-anchor="start" x="415.73" y="-7.36" font-family="Times,serif" font-size="12.00">Gew&#228;hlter Zeitpunkt nicht zul&#228;ssig</text>
</g>
<!-- 2&#45;&gt;A02 -->
<g id="edge4" class="edge">
<title>2-&gt;A02</title>
<path fill="none" stroke="black" d="M590.48,-109.44C578.84,-95.47 562.06,-75.34 547.87,-58.32"/>
<polygon fill="black" stroke="black" points="550.79,-56.35 541.7,-50.91 545.41,-60.83 550.79,-56.35"/>
<text text-anchor="middle" x="584.61" y="-71.47" font-family="Times,serif" font-size="14.00">Nein</text>
</g>
<!-- Ende -->
<g id="node6" class="node">
<title>Ende</title>
<polygon fill="#7a8da1" stroke="black" points="721.51,-42.76 655.96,-42.76 655.96,-6.76 721.51,-6.76 721.51,-42.76"/>
<text text-anchor="middle" x="688.73" y="-20.08" font-family="Times,serif" font-size="14.00">Ende</text>
</g>
<!-- 2&#45;&gt;Ende -->
<g id="edge5" class="edge">
<title>2-&gt;Ende</title>
<path fill="none" stroke="black" d="M618.98,-109.44C632.26,-93.51 652.22,-69.56 667.4,-51.35"/>
<polygon fill="black" stroke="black" points="669.73,-54.02 673.44,-44.1 664.35,-49.54 669.73,-54.02"/>
<text text-anchor="middle" x="658.48" y="-71.47" font-family="Times,serif" font-size="14.00">Ja</text>
</g>
</g>
</svg>
  </g>
</svg>
