<?xml version='1.0' encoding='ASCII' standalone='yes'?>
<svg xmlns="http://www.w3.org/2000/svg" xmlns:xlink="http://www.w3.org/1999/xlink" version="1.1" width="1402.6666666666667px" viewBox="0 0 1402.6666666666667 526.6666666666666" height="526.6666666666666px">
  <g>
    <g transform="translate(486.55834037360376, 52.66666666666665) scale(1 1) translate(0, 0) scale(0.7415751431521637 0.7415751431521637) "><!-- note that I manually added the width and height attribute to the root node
  https://chatgpt.com/share/678e3028-70cc-800b-a296-782714735772
  -->
  <defs>
    <style>.cls-1{fill:#fff;}</style>
  </defs>
  <path class="cls-1" d="M122.44,531.2h-56.1c-11,0-19.9-9.12-19.46-20.11C57.47,243.89,278.15,29.78,547.91,29.78v56.02c0,10.98-8.69,19.89-19.66,20.39-225.51,10.31-405.8,197-405.8,425Z"/>
  <path class="cls-1" d="M273.78,531.2h-55.93c-11.23,0-20.09-9.48-19.43-20.69,10.74-183.44,163.39-329.39,349.48-329.39v56.26c0,10.71-8.27,19.62-18.96,20.35-142.35,9.77-255.17,128.69-255.17,273.46Z"/>
  <path class="cls-1" d="M425.77,531.2h-55.45c-11.65,0-20.6-10.17-19.33-21.75,10.87-99.03,95.03-176.34,196.92-176.34v57.01c0,10.05-7.28,18.75-17.23,20.16-59.22,8.4-104.91,59.42-104.91,120.92Z"/>
</g>
    <svg width="1052pt" height="395pt" viewBox="0.00 0.00 1051.50 394.78">
<g id="graph0" class="graph" transform="scale(1 1) rotate(0) translate(4 390.78)">
<title>D</title>
<text text-anchor="start" x="8" y="-366.68" font-family="Roboto, sans-serif" font-weight="bold" font-size="18.00">7.39 AD: Bestellung der Aggregationsebene der Bilanzkreissummenzeitreihe auf Ebene der Regelzone</text>
<text text-anchor="start" x="8" y="-338.58" font-family="Roboto, sans-serif" font-weight="bold" font-size="16.00">7.39.1 E_0003_Bestellung der Aggregationsebene RZ pr&#252;fen</text>
<!-- Start -->
<g id="node1" class="node">
<title>Start</title>
<path fill="#8ba2d7" stroke="black" stroke-width="0" d="M514.65,-296.78C514.65,-296.78 366.6,-296.78 366.6,-296.78 360.6,-296.78 354.6,-290.78 354.6,-284.78 354.6,-284.78 354.6,-263.5 354.6,-263.5 354.6,-257.5 360.6,-251.5 366.6,-251.5 366.6,-251.5 514.65,-251.5 514.65,-251.5 520.65,-251.5 526.65,-257.5 526.65,-263.5 526.65,-263.5 526.65,-284.78 526.65,-284.78 526.65,-290.78 520.65,-296.78 514.65,-296.78"/>
<text text-anchor="start" x="369" y="-275.84" font-family="Roboto, sans-serif" font-weight="bold" font-size="14.00">E_0003</text>
<text text-anchor="start" x="369" y="-261.84" font-family="Roboto, sans-serif" font-size="14.00">Pr&#252;fende Rolle: </text>
<text text-anchor="start" x="478.5" y="-261.84" font-family="Roboto, sans-serif" font-weight="bold" font-size="14.00">&#220;NB</text>
</g>
<!-- 1 -->
<g id="node2" class="node">
<title>1</title>
<path fill="#c2cee9" stroke="black" stroke-width="0" d="M619.65,-214.5C619.65,-214.5 261.6,-214.5 261.6,-214.5 255.6,-214.5 249.6,-208.5 249.6,-202.5 249.6,-202.5 249.6,-190.5 249.6,-190.5 249.6,-184.5 255.6,-178.5 261.6,-178.5 261.6,-178.5 619.65,-178.5 619.65,-178.5 625.65,-178.5 631.65,-184.5 631.65,-190.5 631.65,-190.5 631.65,-202.5 631.65,-202.5 631.65,-208.5 625.65,-214.5 619.65,-214.5"/>
<text text-anchor="start" x="264" y="-192.82" font-family="Roboto, sans-serif" font-weight="bold" font-size="14.00">1: </text>
<text text-anchor="start" x="283.5" y="-192.82" font-family="Roboto, sans-serif" font-size="14.00">Erfolgt der Eingang der Bestellung fristgerecht?</text>
</g>
<!-- Start&#45;&gt;1 -->
<g id="edge1" class="edge">
<title>Start-&gt;1</title>
<path fill="none" stroke="#88a0d6" d="M440.62,-251.67C440.62,-243.59 440.62,-234.29 440.62,-225.69"/>
<polygon fill="#88a0d6" stroke="#88a0d6" points="444.13,-225.73 440.63,-215.73 437.13,-225.73 444.13,-225.73"/>
</g>
<!-- A01 -->
<g id="node3" class="node">
<title>A01</title>
<path fill="#c4cac1" stroke="black" stroke-width="0" d="M375.52,-125.25C375.52,-125.25 235.72,-125.25 235.72,-125.25 229.72,-125.25 223.72,-119.25 223.72,-113.25 223.72,-113.25 223.72,-101.25 223.72,-101.25 223.72,-95.25 229.72,-89.25 235.72,-89.25 235.72,-89.25 375.52,-89.25 375.52,-89.25 381.52,-89.25 387.52,-95.25 387.52,-101.25 387.52,-101.25 387.52,-113.25 387.52,-113.25 387.52,-119.25 381.52,-125.25 375.52,-125.25"/>
<text text-anchor="start" x="238.12" y="-102.58" font-family="Roboto, sans-serif" font-size="14.00">Frist&#252;berschreitung</text>
</g>
<!-- 1&#45;&gt;A01 -->
<g id="edge2" class="edge">
<title>1-&gt;A01</title>
<path fill="none" stroke="#88a0d6" d="M414.6,-178.68C393.68,-165.16 364.09,-146.03 341.02,-131.12"/>
<polygon fill="#88a0d6" stroke="#88a0d6" points="343.14,-128.33 332.85,-125.84 339.34,-134.21 343.14,-128.33"/>
<text text-anchor="start" x="384.62" y="-148.2" font-family="Roboto, sans-serif" font-weight="bold" font-size="14.00">NEIN</text>
</g>
<!-- 2 -->
<g id="node4" class="node">
<title>2</title>
<path fill="#c2cee9" stroke="black" stroke-width="0" d="M807.77,-125.25C807.77,-125.25 417.48,-125.25 417.48,-125.25 411.48,-125.25 405.48,-119.25 405.48,-113.25 405.48,-113.25 405.48,-101.25 405.48,-101.25 405.48,-95.25 411.48,-89.25 417.48,-89.25 417.48,-89.25 807.77,-89.25 807.77,-89.25 813.77,-89.25 819.77,-95.25 819.77,-101.25 819.77,-101.25 819.77,-113.25 819.77,-113.25 819.77,-119.25 813.77,-125.25 807.77,-125.25"/>
<text text-anchor="start" x="419.88" y="-103.58" font-family="Roboto, sans-serif" font-weight="bold" font-size="14.00">2: </text>
<text text-anchor="start" x="439.38" y="-103.58" font-family="Roboto, sans-serif" font-size="14.00">Erfolgt die Bestellung zum Monatsersten 00:00 Uhr?</text>
</g>
<!-- 1&#45;&gt;2 -->
<g id="edge3" class="edge">
<title>1-&gt;2</title>
<path fill="none" stroke="#88a0d6" d="M473.79,-178.68C500.95,-164.9 539.58,-145.3 569.2,-130.28"/>
<polygon fill="#88a0d6" stroke="#88a0d6" points="570.59,-133.5 577.92,-125.85 567.42,-127.26 570.59,-133.5"/>
<text text-anchor="start" x="541.62" y="-148.2" font-family="Roboto, sans-serif" font-weight="bold" font-size="14.00">JA</text>
</g>
<!-- A02 -->
<g id="node5" class="node">
<title>A02</title>
<path fill="#c4cac1" stroke="black" stroke-width="0" d="M643.15,-36C643.15,-36 396.1,-36 396.1,-36 390.1,-36 384.1,-30 384.1,-24 384.1,-24 384.1,-12 384.1,-12 384.1,-6 390.1,0 396.1,0 396.1,0 643.15,0 643.15,0 649.15,0 655.15,-6 655.15,-12 655.15,-12 655.15,-24 655.15,-24 655.15,-30 649.15,-36 643.15,-36"/>
<text text-anchor="start" x="398.5" y="-13.32" font-family="Roboto, sans-serif" font-size="14.00">Gew&#228;hlter Zeitpunkt nicht zul&#228;ssig</text>
</g>
<!-- 2&#45;&gt;A02 -->
<g id="edge4" class="edge">
<title>2-&gt;A02</title>
<path fill="none" stroke="#88a0d6" d="M594.69,-89.43C580.8,-76.39 561.35,-58.14 545.73,-43.49"/>
<polygon fill="#88a0d6" stroke="#88a0d6" points="548.29,-41.1 538.61,-36.81 543.5,-46.2 548.29,-41.1"/>
<text text-anchor="start" x="573.62" y="-58.95" font-family="Roboto, sans-serif" font-weight="bold" font-size="14.00">NEIN</text>
</g>
<!-- Ende -->
<g id="node6" class="node">
<title>Ende</title>
<path fill="#8ba2d7" stroke="black" stroke-width="0" d="M725.65,-36C725.65,-36 685.6,-36 685.6,-36 679.6,-36 673.6,-30 673.6,-24 673.6,-24 673.6,-12 673.6,-12 673.6,-6 679.6,0 685.6,0 685.6,0 725.65,0 725.65,0 731.65,0 737.65,-6 737.65,-12 737.65,-12 737.65,-24 737.65,-24 737.65,-30 731.65,-36 725.65,-36"/>
<text text-anchor="middle" x="705.62" y="-13.32" font-family="Roboto, sans-serif" font-size="14.00">Ende</text>
</g>
<!-- 2&#45;&gt;Ende -->
<g id="edge5" class="edge">
<title>2-&gt;Ende</title>
<path fill="none" stroke="#88a0d6" d="M630.56,-89.43C644.45,-76.39 663.9,-58.14 679.52,-43.49"/>
<polygon fill="#88a0d6" stroke="#88a0d6" points="681.75,-46.2 686.64,-36.81 676.96,-41.1 681.75,-46.2"/>
<text text-anchor="start" x="666.62" y="-58.95" font-family="Roboto, sans-serif" font-weight="bold" font-size="14.00">JA</text>
</g>
</g>
</svg>
  </g>
</svg>
