<?xml version="1.0" encoding="UTF-8" standalone="no"?><svg xmlns="http://www.w3.org/2000/svg" xmlns:xlink="http://www.w3.org/1999/xlink" contentStyleType="text/css" height="1485px" preserveAspectRatio="none" style="width:1413px;height:1485px;background:#FFFFFF;" version="1.1" viewBox="0 0 1413 1485" width="1413px" zoomAndPan="magnify"><defs/><g><rect fill="none" height="23.3887" style="stroke:none;stroke-width:1.0;" width="54" x="1346" y="10"/><text fill="#888888" font-family="DejaVu Serif Condensed" font-size="10" font-weight="bold" lengthAdjust="spacing" textLength="37" x="1363" y="19.3896">FV2210</text><text fill="#888888" font-family="DejaVu Serif Condensed" font-size="10" lengthAdjust="spacing" textLength="54" x="1346" y="31.0303">2022-12-12</text><rect fill="none" height="108.6836" id="_title" style="stroke:none;stroke-width:1.0;" width="777" x="316.5" y="39.3887"/><text fill="#000000" font-family="DejaVu Serif Condensed" font-size="14" font-weight="bold" lengthAdjust="spacing" textLength="767" x="321.5" y="57.5342">7.17 AD: Aktivierung eines MaBiS-ZP für Bilanzierungsgebietssummenzeitreihen vom ÜNB an BIKO und NB</text><text fill="#000000" font-family="DejaVu Serif Condensed" font-size="14" font-weight="bold" lengthAdjust="spacing" textLength="4" x="703" y="73.9814"> </text><text fill="#000000" font-family="DejaVu Serif Condensed" font-size="14" font-weight="bold" lengthAdjust="spacing" textLength="315" x="547.5" y="90.4287">7.17.1 E_0015_MaBiS-ZP Aktivierung prüfen</text><text fill="#000000" font-family="DejaVu Serif Condensed" font-size="14" font-weight="bold" lengthAdjust="spacing" textLength="4" x="703" y="106.876"> </text><text fill="#000000" font-family="DejaVu Serif Condensed" font-size="14" font-weight="bold" lengthAdjust="spacing" textLength="4" x="703" y="123.3232"> </text><text fill="#000000" font-family="DejaVu Serif Condensed" font-size="14" font-weight="bold" lengthAdjust="spacing" textLength="4" x="703" y="139.7705"> </text><path d="M753.5,162.4219 L753.5,170.4707 L733.5,174.4707 L753.5,178.4707 L753.5,186.5195 A0,0 0 0 0 753.5,186.5195 L906.5,186.5195 A0,0 0 0 0 906.5,186.5195 L906.5,172.4219 L896.5,162.4219 L753.5,162.4219 A0,0 0 0 0 753.5,162.4219 " fill="#F3F1F6" style="stroke:#181818;stroke-width:0.5;"/><path d="M896.5,162.4219 L896.5,172.4219 L906.5,172.4219 L896.5,162.4219 " fill="#F3F1F6" style="stroke:#181818;stroke-width:0.5;"/><text fill="#000000" font-family="DejaVu Serif Condensed" font-size="12" font-style="italic" font-weight="bold" lengthAdjust="spacing" textLength="132" x="759.5" y="178.6895">Prüfende Rolle: BIKO</text><rect fill="#7A8DA1" height="38.7969" rx="12.5" ry="12.5" style="stroke:none;stroke-width:0.5;" width="78" x="655.5" y="155.0723"/><text fill="#000000" font-family="DejaVu Serif Condensed" font-size="16" font-weight="bold" lengthAdjust="spacing" textLength="58" x="665.5" y="180.0957">E_0015</text><path d="M521.5,265.5254 L521.5,303.4629 A0,0 0 0 0 521.5,303.4629 L650.5,303.4629 A0,0 0 0 0 650.5,303.4629 L650.5,288.4941 L670.5,284.4941 L650.5,280.4941 L650.5,275.5254 L640.5,265.5254 L521.5,265.5254 A0,0 0 0 0 521.5,265.5254 " fill="#F3F1F6" style="stroke:#181818;stroke-width:0.5;"/><path d="M640.5,265.5254 L640.5,275.5254 L650.5,275.5254 L640.5,265.5254 " fill="#F3F1F6" style="stroke:#181818;stroke-width:0.5;"/><text fill="#000000" font-family="DejaVu Serif Condensed" font-size="12" lengthAdjust="spacing" textLength="101" x="527.5" y="281.6641">Cluster Ablehnung</text><text fill="#000000" font-family="DejaVu Serif Condensed" font-size="12" lengthAdjust="spacing" textLength="108" x="527.5" y="295.6328">Fristüberschreitung</text><rect fill="#7A8DA1" height="38.625" rx="12.5" ry="12.5" style="stroke:none;stroke-width:0.5;" width="48" x="670.5" y="265.1816"/><text fill="#000000" font-family="DejaVu Serif Condensed" font-size="16" lengthAdjust="spacing" textLength="28" x="680.5" y="290.0332">A01</text><polygon fill="#7AAB8A" points="417.5,213.8691,971.5,213.8691,983.5,225.8691,971.5,237.8691,417.5,237.8691,405.5,225.8691,417.5,213.8691" style="stroke:#7AAB8A;stroke-width:0.5;"/><text fill="#000000" font-family="DejaVu Serif Condensed" font-size="16" lengthAdjust="spacing" textLength="13" x="698.5" y="252.7207">ja</text><text fill="#000000" font-family="DejaVu Serif Condensed" font-size="18" lengthAdjust="spacing" textLength="554" x="417.5" y="232.1006">Erfolgt die Aktivierung nach Ablauf der Clearingfrist für die KBKA?</text><text fill="#000000" font-family="DejaVu Serif Condensed" font-size="16" lengthAdjust="spacing" textLength="32" x="983.5" y="222.0957">nein</text><path d="M441.5,397.4629 L441.5,435.4004 A0,0 0 0 0 441.5,435.4004 L650.5,435.4004 A0,0 0 0 0 650.5,435.4004 L650.5,420.4316 L670.5,416.4316 L650.5,412.4316 L650.5,407.4629 L640.5,397.4629 L441.5,397.4629 A0,0 0 0 0 441.5,397.4629 " fill="#F3F1F6" style="stroke:#181818;stroke-width:0.5;"/><path d="M640.5,397.4629 L640.5,407.4629 L650.5,407.4629 L640.5,397.4629 " fill="#F3F1F6" style="stroke:#181818;stroke-width:0.5;"/><text fill="#000000" font-family="DejaVu Serif Condensed" font-size="12" lengthAdjust="spacing" textLength="101" x="447.5" y="413.6016">Cluster Ablehnung</text><text fill="#000000" font-family="DejaVu Serif Condensed" font-size="12" lengthAdjust="spacing" textLength="188" x="447.5" y="427.5703">Gewählter Zeitpunkt nicht zulässig</text><rect fill="#7A8DA1" height="38.625" rx="12.5" ry="12.5" style="stroke:none;stroke-width:0.5;" width="48" x="670.5" y="397.1191"/><text fill="#000000" font-family="DejaVu Serif Condensed" font-size="16" lengthAdjust="spacing" textLength="28" x="680.5" y="421.9707">A02</text><polygon fill="#7AAB8A" points="472.5,345.8066,916.5,345.8066,928.5,357.8066,916.5,369.8066,472.5,369.8066,460.5,357.8066,472.5,345.8066" style="stroke:#7AAB8A;stroke-width:0.5;"/><text fill="#000000" font-family="DejaVu Serif Condensed" font-size="16" lengthAdjust="spacing" textLength="32" x="698.5" y="384.6582">nein</text><text fill="#000000" font-family="DejaVu Serif Condensed" font-size="18" lengthAdjust="spacing" textLength="444" x="472.5" y="364.0381">Erfolgt die Aktivierung zum Monatsersten 00:00 Uhr?</text><text fill="#000000" font-family="DejaVu Serif Condensed" font-size="16" lengthAdjust="spacing" textLength="13" x="928.5" y="354.0332">ja</text><path d="M528.5,529.4004 L528.5,567.3379 A0,0 0 0 0 528.5,567.3379 L650.5,567.3379 A0,0 0 0 0 650.5,567.3379 L650.5,552.3691 L670.5,548.3691 L650.5,544.3691 L650.5,539.4004 L640.5,529.4004 L528.5,529.4004 A0,0 0 0 0 528.5,529.4004 " fill="#F3F1F6" style="stroke:#181818;stroke-width:0.5;"/><path d="M640.5,529.4004 L640.5,539.4004 L650.5,539.4004 L640.5,529.4004 " fill="#F3F1F6" style="stroke:#181818;stroke-width:0.5;"/><text fill="#000000" font-family="DejaVu Serif Condensed" font-size="12" lengthAdjust="spacing" textLength="101" x="534.5" y="545.5391">Cluster Ablehnung</text><text fill="#000000" font-family="DejaVu Serif Condensed" font-size="12" lengthAdjust="spacing" textLength="91" x="534.5" y="559.5078">Regelzone falsch</text><rect fill="#7A8DA1" height="38.625" rx="12.5" ry="12.5" style="stroke:none;stroke-width:0.5;" width="48" x="670.5" y="529.0566"/><text fill="#000000" font-family="DejaVu Serif Condensed" font-size="16" lengthAdjust="spacing" textLength="28" x="680.5" y="553.9082">A03</text><polygon fill="#7AAB8A" points="541.5,477.7441,847.5,477.7441,859.5,489.7441,847.5,501.7441,541.5,501.7441,529.5,489.7441,541.5,477.7441" style="stroke:#7AAB8A;stroke-width:0.5;"/><text fill="#000000" font-family="DejaVu Serif Condensed" font-size="16" lengthAdjust="spacing" textLength="32" x="698.5" y="516.5957">nein</text><text fill="#000000" font-family="DejaVu Serif Condensed" font-size="18" lengthAdjust="spacing" textLength="306" x="541.5" y="495.9756">Ist die richtige Regelzone angegeben</text><text fill="#000000" font-family="DejaVu Serif Condensed" font-size="16" lengthAdjust="spacing" textLength="13" x="859.5" y="485.9707">ja</text><path d="M458.5,661.3379 L458.5,699.2754 A0,0 0 0 0 458.5,699.2754 L650.5,699.2754 A0,0 0 0 0 650.5,699.2754 L650.5,684.3066 L670.5,680.3066 L650.5,676.3066 L650.5,671.3379 L640.5,661.3379 L458.5,661.3379 A0,0 0 0 0 458.5,661.3379 " fill="#F3F1F6" style="stroke:#181818;stroke-width:0.5;"/><path d="M640.5,661.3379 L640.5,671.3379 L650.5,671.3379 L640.5,661.3379 " fill="#F3F1F6" style="stroke:#181818;stroke-width:0.5;"/><text fill="#000000" font-family="DejaVu Serif Condensed" font-size="12" lengthAdjust="spacing" textLength="101" x="464.5" y="677.4766">Cluster Ablehnung</text><text fill="#000000" font-family="DejaVu Serif Condensed" font-size="12" lengthAdjust="spacing" textLength="171" x="464.5" y="691.4453">Bilanzierungsgebiet nicht gültig</text><rect fill="#7A8DA1" height="38.625" rx="12.5" ry="12.5" style="stroke:none;stroke-width:0.5;" width="48" x="670.5" y="660.9941"/><text fill="#000000" font-family="DejaVu Serif Condensed" font-size="16" lengthAdjust="spacing" textLength="28" x="680.5" y="685.8457">A04</text><polygon fill="#7AAB8A" points="338.5,609.6816,1050.5,609.6816,1062.5,621.6816,1050.5,633.6816,338.5,633.6816,326.5,621.6816,338.5,609.6816" style="stroke:#7AAB8A;stroke-width:0.5;"/><text fill="#000000" font-family="DejaVu Serif Condensed" font-size="16" lengthAdjust="spacing" textLength="32" x="698.5" y="648.5332">nein</text><text fill="#000000" font-family="DejaVu Serif Condensed" font-size="18" lengthAdjust="spacing" textLength="712" x="338.5" y="627.9131">Ist das Bilanzierungsgebiet zum Aktivierungsbeginn in der Regelzone des BIKO gültig?</text><text fill="#000000" font-family="DejaVu Serif Condensed" font-size="16" lengthAdjust="spacing" textLength="13" x="1062.5" y="617.9082">ja</text><path d="M523.5,793.2754 L523.5,831.2129 A0,0 0 0 0 523.5,831.2129 L650.5,831.2129 A0,0 0 0 0 650.5,831.2129 L650.5,816.2441 L670.5,812.2441 L650.5,808.2441 L650.5,803.2754 L640.5,793.2754 L523.5,793.2754 A0,0 0 0 0 523.5,793.2754 " fill="#F3F1F6" style="stroke:#181818;stroke-width:0.5;"/><path d="M640.5,793.2754 L640.5,803.2754 L650.5,803.2754 L640.5,793.2754 " fill="#F3F1F6" style="stroke:#181818;stroke-width:0.5;"/><text fill="#000000" font-family="DejaVu Serif Condensed" font-size="12" lengthAdjust="spacing" textLength="101" x="529.5" y="809.4141">Cluster Ablehnung</text><text fill="#000000" font-family="DejaVu Serif Condensed" font-size="12" lengthAdjust="spacing" textLength="106" x="529.5" y="823.3828">Keine Berechtigung</text><rect fill="#7A8DA1" height="38.625" rx="12.5" ry="12.5" style="stroke:none;stroke-width:0.5;" width="48" x="670.5" y="792.9316"/><text fill="#000000" font-family="DejaVu Serif Condensed" font-size="16" lengthAdjust="spacing" textLength="28" x="680.5" y="817.7832">A05</text><polygon fill="#7AAB8A" points="381.5,741.6191,1007.5,741.6191,1019.5,753.6191,1007.5,765.6191,381.5,765.6191,369.5,753.6191,381.5,741.6191" style="stroke:#7AAB8A;stroke-width:0.5;"/><text fill="#000000" font-family="DejaVu Serif Condensed" font-size="16" lengthAdjust="spacing" textLength="32" x="698.5" y="780.4707">nein</text><text fill="#000000" font-family="DejaVu Serif Condensed" font-size="18" lengthAdjust="spacing" textLength="626" x="381.5" y="759.8506">Ist der ÜNB zum Aktivierungsbeginn für das Bilanzierungsgebiet zuständig?</text><text fill="#000000" font-family="DejaVu Serif Condensed" font-size="16" lengthAdjust="spacing" textLength="13" x="1019.5" y="749.8457">ja</text><path d="M394.5,925.2129 L394.5,963.1504 A0,0 0 0 0 394.5,963.1504 L650.5,963.1504 A0,0 0 0 0 650.5,963.1504 L650.5,948.1816 L670.5,944.1816 L650.5,940.1816 L650.5,935.2129 L640.5,925.2129 L394.5,925.2129 A0,0 0 0 0 394.5,925.2129 " fill="#F3F1F6" style="stroke:#181818;stroke-width:0.5;"/><path d="M640.5,925.2129 L640.5,935.2129 L650.5,935.2129 L640.5,925.2129 " fill="#F3F1F6" style="stroke:#181818;stroke-width:0.5;"/><text fill="#000000" font-family="DejaVu Serif Condensed" font-size="12" lengthAdjust="spacing" textLength="101" x="400.5" y="941.3516">Cluster Ablehnung</text><text fill="#000000" font-family="DejaVu Serif Condensed" font-size="12" lengthAdjust="spacing" textLength="235" x="400.5" y="955.3203">Abweichender MaBiS-ZP bereits vorhanden</text><rect fill="#7A8DA1" height="38.625" rx="12.5" ry="12.5" style="stroke:none;stroke-width:0.5;" width="48" x="670.5" y="924.8691"/><text fill="#000000" font-family="DejaVu Serif Condensed" font-size="16" lengthAdjust="spacing" textLength="28" x="680.5" y="949.7207">A06</text><polygon fill="#7AAB8A" points="408.5,873.5566,980.5,873.5566,992.5,885.5566,980.5,897.5566,408.5,897.5566,396.5,885.5566,408.5,873.5566" style="stroke:#7AAB8A;stroke-width:0.5;"/><text fill="#000000" font-family="DejaVu Serif Condensed" font-size="16" lengthAdjust="spacing" textLength="13" x="698.5" y="912.4082">ja</text><text fill="#000000" font-family="DejaVu Serif Condensed" font-size="18" lengthAdjust="spacing" textLength="572" x="408.5" y="891.7881">Existiert bereits ein abweichendes Tupel unter der ID des MaBiS-ZP?</text><text fill="#000000" font-family="DejaVu Serif Condensed" font-size="16" lengthAdjust="spacing" textLength="32" x="992.5" y="881.7832">nein</text><path d="M357.5,1057.1504 L357.5,1095.0879 A0,0 0 0 0 357.5,1095.0879 L650.5,1095.0879 A0,0 0 0 0 650.5,1095.0879 L650.5,1080.1191 L670.5,1076.1191 L650.5,1072.1191 L650.5,1067.1504 L640.5,1057.1504 L357.5,1057.1504 A0,0 0 0 0 357.5,1057.1504 " fill="#F3F1F6" style="stroke:#181818;stroke-width:0.5;"/><path d="M640.5,1057.1504 L640.5,1067.1504 L650.5,1067.1504 L640.5,1057.1504 " fill="#F3F1F6" style="stroke:#181818;stroke-width:0.5;"/><text fill="#000000" font-family="DejaVu Serif Condensed" font-size="12" lengthAdjust="spacing" textLength="101" x="363.5" y="1073.2891">Cluster Ablehnung</text><text fill="#000000" font-family="DejaVu Serif Condensed" font-size="12" lengthAdjust="spacing" textLength="272" x="363.5" y="1087.2578">Abweichende ID zum MaBiS-ZP bereits vorhanden</text><rect fill="#7A8DA1" height="38.625" rx="12.5" ry="12.5" style="stroke:none;stroke-width:0.5;" width="48" x="670.5" y="1056.8066"/><text fill="#000000" font-family="DejaVu Serif Condensed" font-size="16" lengthAdjust="spacing" textLength="28" x="680.5" y="1081.6582">A07</text><polygon fill="#7AAB8A" points="32,1005.4941,1357,1005.4941,1369,1017.4941,1357,1029.4941,32,1029.4941,20,1017.4941,32,1005.4941" style="stroke:#7AAB8A;stroke-width:0.5;"/><text fill="#000000" font-family="DejaVu Serif Condensed" font-size="16" lengthAdjust="spacing" textLength="13" x="698.5" y="1044.3457">ja</text><text fill="#000000" font-family="DejaVu Serif Condensed" font-size="18" lengthAdjust="spacing" textLength="1325" x="32" y="1023.7256">Existiert bereits für das genannte Tupel aus Aggregations-verantwortlicher, Bilanzierungsgebiet, Spannungsebene und ZRT eine abweichende ID des MaBiS-ZP?</text><text fill="#000000" font-family="DejaVu Serif Condensed" font-size="16" lengthAdjust="spacing" textLength="32" x="1369" y="1013.7207">nein</text><path d="M452.5,1189.0879 L452.5,1227.0254 A0,0 0 0 0 452.5,1227.0254 L650.5,1227.0254 A0,0 0 0 0 650.5,1227.0254 L650.5,1212.0566 L670.5,1208.0566 L650.5,1204.0566 L650.5,1199.0879 L640.5,1189.0879 L452.5,1189.0879 A0,0 0 0 0 452.5,1189.0879 " fill="#F3F1F6" style="stroke:#181818;stroke-width:0.5;"/><path d="M640.5,1189.0879 L640.5,1199.0879 L650.5,1199.0879 L640.5,1189.0879 " fill="#F3F1F6" style="stroke:#181818;stroke-width:0.5;"/><text fill="#000000" font-family="DejaVu Serif Condensed" font-size="12" lengthAdjust="spacing" textLength="101" x="458.5" y="1205.2266">Cluster Ablehnung</text><text fill="#000000" font-family="DejaVu Serif Condensed" font-size="12" lengthAdjust="spacing" textLength="177" x="458.5" y="1219.1953">ZRT Aktivierung nicht berechtigt</text><rect fill="#7A8DA1" height="38.625" rx="12.5" ry="12.5" style="stroke:none;stroke-width:0.5;" width="48" x="670.5" y="1188.7441"/><text fill="#000000" font-family="DejaVu Serif Condensed" font-size="16" lengthAdjust="spacing" textLength="28" x="680.5" y="1213.5957">A08</text><polygon fill="#7AAB8A" points="492.5,1137.4316,896.5,1137.4316,908.5,1149.4316,896.5,1161.4316,492.5,1161.4316,480.5,1149.4316,492.5,1137.4316" style="stroke:#7AAB8A;stroke-width:0.5;"/><text fill="#000000" font-family="DejaVu Serif Condensed" font-size="16" lengthAdjust="spacing" textLength="32" x="698.5" y="1176.2832">nein</text><text fill="#000000" font-family="DejaVu Serif Condensed" font-size="18" lengthAdjust="spacing" textLength="404" x="492.5" y="1155.6631">Ist der ÜNB zur Aktivierung des ZRT berechtigt?</text><text fill="#000000" font-family="DejaVu Serif Condensed" font-size="16" lengthAdjust="spacing" textLength="13" x="908.5" y="1145.6582">ja</text><path d="M523.5,1321.0254 L523.5,1358.9629 A0,0 0 0 0 523.5,1358.9629 L650.5,1358.9629 A0,0 0 0 0 650.5,1358.9629 L650.5,1343.9941 L670.5,1339.9941 L650.5,1335.9941 L650.5,1331.0254 L640.5,1321.0254 L523.5,1321.0254 A0,0 0 0 0 523.5,1321.0254 " fill="#F3F1F6" style="stroke:#181818;stroke-width:0.5;"/><path d="M640.5,1321.0254 L640.5,1331.0254 L650.5,1331.0254 L640.5,1321.0254 " fill="#F3F1F6" style="stroke:#181818;stroke-width:0.5;"/><text fill="#000000" font-family="DejaVu Serif Condensed" font-size="12" lengthAdjust="spacing" textLength="101" x="529.5" y="1337.1641">Cluster Ablehnung</text><text fill="#000000" font-family="DejaVu Serif Condensed" font-size="12" lengthAdjust="spacing" textLength="106" x="529.5" y="1351.1328">OBIS nicht passend</text><rect fill="#7A8DA1" height="38.625" rx="12.5" ry="12.5" style="stroke:none;stroke-width:0.5;" width="48" x="670.5" y="1320.6816"/><text fill="#000000" font-family="DejaVu Serif Condensed" font-size="16" lengthAdjust="spacing" textLength="28" x="680.5" y="1345.5332">A09</text><polygon fill="#7AAB8A" points="550,1269.3691,839,1269.3691,851,1281.3691,839,1293.3691,550,1293.3691,538,1281.3691,550,1269.3691" style="stroke:#7AAB8A;stroke-width:0.5;"/><text fill="#000000" font-family="DejaVu Serif Condensed" font-size="16" lengthAdjust="spacing" textLength="32" x="698.5" y="1308.2207">nein</text><text fill="#000000" font-family="DejaVu Serif Condensed" font-size="18" lengthAdjust="spacing" textLength="289" x="550" y="1287.6006">Passt die OBIS-Kennzahl zum ZRT?</text><text fill="#000000" font-family="DejaVu Serif Condensed" font-size="16" lengthAdjust="spacing" textLength="13" x="851" y="1277.5957">ja</text><polygon fill="#7AAB8A" points="421,1401.3066,968,1401.3066,980,1413.3066,968,1425.3066,421,1425.3066,409,1413.3066,421,1401.3066" style="stroke:#7AAB8A;stroke-width:0.5;"/><text fill="#000000" font-family="DejaVu Serif Condensed" font-size="18" lengthAdjust="spacing" textLength="547" x="421" y="1419.5381">Ist der MaBiS-ZP zum Zeitpunkt der Aktivierung bereits aktiviert?</text><text fill="#000000" font-family="DejaVu Serif Condensed" font-size="16" lengthAdjust="spacing" textLength="13" x="396" y="1409.5332">ja</text><text fill="#000000" font-family="DejaVu Serif Condensed" font-size="16" lengthAdjust="spacing" textLength="32" x="980" y="1409.5332">nein</text><path d="M193,1435.6504 L193,1473.5879 A0,0 0 0 0 193,1473.5879 L355,1473.5879 A0,0 0 0 0 355,1473.5879 L355,1458.6191 L375,1454.6191 L355,1450.6191 L355,1445.6504 L345,1435.6504 L193,1435.6504 A0,0 0 0 0 193,1435.6504 " fill="#F3F1F6" style="stroke:#181818;stroke-width:0.5;"/><path d="M345,1435.6504 L345,1445.6504 L355,1445.6504 L345,1435.6504 " fill="#F3F1F6" style="stroke:#181818;stroke-width:0.5;"/><text fill="#000000" font-family="DejaVu Serif Condensed" font-size="12" lengthAdjust="spacing" textLength="101" x="199" y="1451.7891">Cluster Ablehnung</text><text fill="#000000" font-family="DejaVu Serif Condensed" font-size="12" lengthAdjust="spacing" textLength="141" x="199" y="1465.7578">MaBiS-ZP bereits aktiviert</text><rect fill="#7A8DA1" height="38.625" rx="12.5" ry="12.5" style="stroke:none;stroke-width:0.5;" width="48" x="375" y="1435.3066"/><text fill="#000000" font-family="DejaVu Serif Condensed" font-size="16" lengthAdjust="spacing" textLength="28" x="385" y="1460.1582">A10</text><path d="M787,1435.6504 L787,1473.5879 A0,0 0 0 0 787,1473.5879 L946,1473.5879 A0,0 0 0 0 946,1473.5879 L946,1458.6191 L966,1454.6191 L946,1450.6191 L946,1445.6504 L936,1435.6504 L787,1435.6504 A0,0 0 0 0 787,1435.6504 " fill="#F3F1F6" style="stroke:#181818;stroke-width:0.5;"/><path d="M936,1435.6504 L936,1445.6504 L946,1445.6504 L936,1435.6504 " fill="#F3F1F6" style="stroke:#181818;stroke-width:0.5;"/><text fill="#000000" font-family="DejaVu Serif Condensed" font-size="12" lengthAdjust="spacing" textLength="115" x="793" y="1451.7891">Cluster: Zustimmung</text><text fill="#000000" font-family="DejaVu Serif Condensed" font-size="12" lengthAdjust="spacing" textLength="138" x="793" y="1465.7578">Aktivierung durchgeführt</text><rect fill="#7A8DA1" height="38.625" rx="12.5" ry="12.5" style="stroke:none;stroke-width:0.5;" width="48" x="966" y="1435.3066"/><text fill="#000000" font-family="DejaVu Serif Condensed" font-size="16" lengthAdjust="spacing" textLength="28" x="976" y="1460.1582">A11</text><line style="stroke:#7AAB8A;stroke-width:1.0;" x1="694.5" x2="694.5" y1="237.8691" y2="265.1816"/><polygon fill="#7AAB8A" points="690.5,255.1816,694.5,265.1816,698.5,255.1816,694.5,259.1816" style="stroke:#7AAB8A;stroke-width:1.0;"/><line style="stroke:#7AAB8A;stroke-width:1.0;" x1="983.5" x2="995.5" y1="225.8691" y2="225.8691"/><polygon fill="#7AAB8A" points="991.5,271.4941,995.5,281.4941,999.5,271.4941,995.5,275.4941" style="stroke:#7AAB8A;stroke-width:1.0;"/><line style="stroke:#7AAB8A;stroke-width:1.0;" x1="995.5" x2="995.5" y1="225.8691" y2="325.8066"/><line style="stroke:#7AAB8A;stroke-width:1.0;" x1="995.5" x2="694.5" y1="325.8066" y2="325.8066"/><line style="stroke:#7AAB8A;stroke-width:1.0;" x1="694.5" x2="694.5" y1="325.8066" y2="345.8066"/><polygon fill="#7AAB8A" points="690.5,335.8066,694.5,345.8066,698.5,335.8066,694.5,339.8066" style="stroke:#7AAB8A;stroke-width:1.0;"/><line style="stroke:#7AAB8A;stroke-width:1.0;" x1="694.5" x2="694.5" y1="193.8691" y2="213.8691"/><polygon fill="#7AAB8A" points="690.5,203.8691,694.5,213.8691,698.5,203.8691,694.5,207.8691" style="stroke:#7AAB8A;stroke-width:1.0;"/><line style="stroke:#7AAB8A;stroke-width:1.0;" x1="694.5" x2="694.5" y1="369.8066" y2="397.1191"/><polygon fill="#7AAB8A" points="690.5,387.1191,694.5,397.1191,698.5,387.1191,694.5,391.1191" style="stroke:#7AAB8A;stroke-width:1.0;"/><line style="stroke:#7AAB8A;stroke-width:1.0;" x1="928.5" x2="940.5" y1="357.8066" y2="357.8066"/><polygon fill="#7AAB8A" points="936.5,403.4316,940.5,413.4316,944.5,403.4316,940.5,407.4316" style="stroke:#7AAB8A;stroke-width:1.0;"/><line style="stroke:#7AAB8A;stroke-width:1.0;" x1="940.5" x2="940.5" y1="357.8066" y2="457.7441"/><line style="stroke:#7AAB8A;stroke-width:1.0;" x1="940.5" x2="694.5" y1="457.7441" y2="457.7441"/><line style="stroke:#7AAB8A;stroke-width:1.0;" x1="694.5" x2="694.5" y1="457.7441" y2="477.7441"/><polygon fill="#7AAB8A" points="690.5,467.7441,694.5,477.7441,698.5,467.7441,694.5,471.7441" style="stroke:#7AAB8A;stroke-width:1.0;"/><line style="stroke:#7AAB8A;stroke-width:1.0;" x1="694.5" x2="694.5" y1="501.7441" y2="529.0566"/><polygon fill="#7AAB8A" points="690.5,519.0566,694.5,529.0566,698.5,519.0566,694.5,523.0566" style="stroke:#7AAB8A;stroke-width:1.0;"/><line style="stroke:#7AAB8A;stroke-width:1.0;" x1="859.5" x2="871.5" y1="489.7441" y2="489.7441"/><polygon fill="#7AAB8A" points="867.5,535.3691,871.5,545.3691,875.5,535.3691,871.5,539.3691" style="stroke:#7AAB8A;stroke-width:1.0;"/><line style="stroke:#7AAB8A;stroke-width:1.0;" x1="871.5" x2="871.5" y1="489.7441" y2="589.6816"/><line style="stroke:#7AAB8A;stroke-width:1.0;" x1="871.5" x2="694.5" y1="589.6816" y2="589.6816"/><line style="stroke:#7AAB8A;stroke-width:1.0;" x1="694.5" x2="694.5" y1="589.6816" y2="609.6816"/><polygon fill="#7AAB8A" points="690.5,599.6816,694.5,609.6816,698.5,599.6816,694.5,603.6816" style="stroke:#7AAB8A;stroke-width:1.0;"/><line style="stroke:#7AAB8A;stroke-width:1.0;" x1="694.5" x2="694.5" y1="633.6816" y2="660.9941"/><polygon fill="#7AAB8A" points="690.5,650.9941,694.5,660.9941,698.5,650.9941,694.5,654.9941" style="stroke:#7AAB8A;stroke-width:1.0;"/><line style="stroke:#7AAB8A;stroke-width:1.0;" x1="1062.5" x2="1074.5" y1="621.6816" y2="621.6816"/><polygon fill="#7AAB8A" points="1070.5,667.3066,1074.5,677.3066,1078.5,667.3066,1074.5,671.3066" style="stroke:#7AAB8A;stroke-width:1.0;"/><line style="stroke:#7AAB8A;stroke-width:1.0;" x1="1074.5" x2="1074.5" y1="621.6816" y2="721.6191"/><line style="stroke:#7AAB8A;stroke-width:1.0;" x1="1074.5" x2="694.5" y1="721.6191" y2="721.6191"/><line style="stroke:#7AAB8A;stroke-width:1.0;" x1="694.5" x2="694.5" y1="721.6191" y2="741.6191"/><polygon fill="#7AAB8A" points="690.5,731.6191,694.5,741.6191,698.5,731.6191,694.5,735.6191" style="stroke:#7AAB8A;stroke-width:1.0;"/><line style="stroke:#7AAB8A;stroke-width:1.0;" x1="694.5" x2="694.5" y1="765.6191" y2="792.9316"/><polygon fill="#7AAB8A" points="690.5,782.9316,694.5,792.9316,698.5,782.9316,694.5,786.9316" style="stroke:#7AAB8A;stroke-width:1.0;"/><line style="stroke:#7AAB8A;stroke-width:1.0;" x1="1019.5" x2="1031.5" y1="753.6191" y2="753.6191"/><polygon fill="#7AAB8A" points="1027.5,799.2441,1031.5,809.2441,1035.5,799.2441,1031.5,803.2441" style="stroke:#7AAB8A;stroke-width:1.0;"/><line style="stroke:#7AAB8A;stroke-width:1.0;" x1="1031.5" x2="1031.5" y1="753.6191" y2="853.5566"/><line style="stroke:#7AAB8A;stroke-width:1.0;" x1="1031.5" x2="694.5" y1="853.5566" y2="853.5566"/><line style="stroke:#7AAB8A;stroke-width:1.0;" x1="694.5" x2="694.5" y1="853.5566" y2="873.5566"/><polygon fill="#7AAB8A" points="690.5,863.5566,694.5,873.5566,698.5,863.5566,694.5,867.5566" style="stroke:#7AAB8A;stroke-width:1.0;"/><line style="stroke:#7AAB8A;stroke-width:1.0;" x1="694.5" x2="694.5" y1="897.5566" y2="924.8691"/><polygon fill="#7AAB8A" points="690.5,914.8691,694.5,924.8691,698.5,914.8691,694.5,918.8691" style="stroke:#7AAB8A;stroke-width:1.0;"/><line style="stroke:#7AAB8A;stroke-width:1.0;" x1="992.5" x2="1004.5" y1="885.5566" y2="885.5566"/><polygon fill="#7AAB8A" points="1000.5,931.1816,1004.5,941.1816,1008.5,931.1816,1004.5,935.1816" style="stroke:#7AAB8A;stroke-width:1.0;"/><line style="stroke:#7AAB8A;stroke-width:1.0;" x1="1004.5" x2="1004.5" y1="885.5566" y2="985.4941"/><line style="stroke:#7AAB8A;stroke-width:1.0;" x1="1004.5" x2="694.5" y1="985.4941" y2="985.4941"/><line style="stroke:#7AAB8A;stroke-width:1.0;" x1="694.5" x2="694.5" y1="985.4941" y2="1005.4941"/><polygon fill="#7AAB8A" points="690.5,995.4941,694.5,1005.4941,698.5,995.4941,694.5,999.4941" style="stroke:#7AAB8A;stroke-width:1.0;"/><line style="stroke:#7AAB8A;stroke-width:1.0;" x1="694.5" x2="694.5" y1="1029.4941" y2="1056.8066"/><polygon fill="#7AAB8A" points="690.5,1046.8066,694.5,1056.8066,698.5,1046.8066,694.5,1050.8066" style="stroke:#7AAB8A;stroke-width:1.0;"/><line style="stroke:#7AAB8A;stroke-width:1.0;" x1="1369" x2="1381" y1="1017.4941" y2="1017.4941"/><polygon fill="#7AAB8A" points="1377,1063.1191,1381,1073.1191,1385,1063.1191,1381,1067.1191" style="stroke:#7AAB8A;stroke-width:1.0;"/><line style="stroke:#7AAB8A;stroke-width:1.0;" x1="1381" x2="1381" y1="1017.4941" y2="1117.4316"/><line style="stroke:#7AAB8A;stroke-width:1.0;" x1="1381" x2="694.5" y1="1117.4316" y2="1117.4316"/><line style="stroke:#7AAB8A;stroke-width:1.0;" x1="694.5" x2="694.5" y1="1117.4316" y2="1137.4316"/><polygon fill="#7AAB8A" points="690.5,1127.4316,694.5,1137.4316,698.5,1127.4316,694.5,1131.4316" style="stroke:#7AAB8A;stroke-width:1.0;"/><line style="stroke:#7AAB8A;stroke-width:1.0;" x1="694.5" x2="694.5" y1="1161.4316" y2="1188.7441"/><polygon fill="#7AAB8A" points="690.5,1178.7441,694.5,1188.7441,698.5,1178.7441,694.5,1182.7441" style="stroke:#7AAB8A;stroke-width:1.0;"/><line style="stroke:#7AAB8A;stroke-width:1.0;" x1="908.5" x2="920.5" y1="1149.4316" y2="1149.4316"/><polygon fill="#7AAB8A" points="916.5,1195.0566,920.5,1205.0566,924.5,1195.0566,920.5,1199.0566" style="stroke:#7AAB8A;stroke-width:1.0;"/><line style="stroke:#7AAB8A;stroke-width:1.0;" x1="920.5" x2="920.5" y1="1149.4316" y2="1249.3691"/><line style="stroke:#7AAB8A;stroke-width:1.0;" x1="920.5" x2="694.5" y1="1249.3691" y2="1249.3691"/><line style="stroke:#7AAB8A;stroke-width:1.0;" x1="694.5" x2="694.5" y1="1249.3691" y2="1269.3691"/><polygon fill="#7AAB8A" points="690.5,1259.3691,694.5,1269.3691,698.5,1259.3691,694.5,1263.3691" style="stroke:#7AAB8A;stroke-width:1.0;"/><line style="stroke:#7AAB8A;stroke-width:1.0;" x1="694.5" x2="694.5" y1="1293.3691" y2="1320.6816"/><polygon fill="#7AAB8A" points="690.5,1310.6816,694.5,1320.6816,698.5,1310.6816,694.5,1314.6816" style="stroke:#7AAB8A;stroke-width:1.0;"/><line style="stroke:#7AAB8A;stroke-width:1.0;" x1="851" x2="863" y1="1281.3691" y2="1281.3691"/><polygon fill="#7AAB8A" points="859,1326.9941,863,1336.9941,867,1326.9941,863,1330.9941" style="stroke:#7AAB8A;stroke-width:1.0;"/><line style="stroke:#7AAB8A;stroke-width:1.0;" x1="863" x2="863" y1="1281.3691" y2="1381.3066"/><line style="stroke:#7AAB8A;stroke-width:1.0;" x1="863" x2="694.5" y1="1381.3066" y2="1381.3066"/><line style="stroke:#7AAB8A;stroke-width:1.0;" x1="694.5" x2="694.5" y1="1381.3066" y2="1401.3066"/><polygon fill="#7AAB8A" points="690.5,1391.3066,694.5,1401.3066,698.5,1391.3066,694.5,1395.3066" style="stroke:#7AAB8A;stroke-width:1.0;"/><line style="stroke:#7AAB8A;stroke-width:1.0;" x1="409" x2="399" y1="1413.3066" y2="1413.3066"/><line style="stroke:#7AAB8A;stroke-width:1.0;" x1="399" x2="399" y1="1413.3066" y2="1435.3066"/><polygon fill="#7AAB8A" points="395,1425.3066,399,1435.3066,403,1425.3066,399,1429.3066" style="stroke:#7AAB8A;stroke-width:1.0;"/><line style="stroke:#7AAB8A;stroke-width:1.0;" x1="980" x2="990" y1="1413.3066" y2="1413.3066"/><line style="stroke:#7AAB8A;stroke-width:1.0;" x1="990" x2="990" y1="1413.3066" y2="1435.3066"/><polygon fill="#7AAB8A" points="986,1425.3066,990,1435.3066,994,1425.3066,990,1429.3066" style="stroke:#7AAB8A;stroke-width:1.0;"/><!--MD5=[209b08be649b4272ceac5ae3899efce3]
@startuml
skinparam Shadowing false
skinparam NoteBorderColor #f3f1f6
skinparam NoteBackgroundColor #f3f1f6
skinparam NoteFontSize 12
skinparam ActivityBorderColor none
skinparam ActivityBackgroundColor #7a8da1
skinparam ActivityFontSize 16
skinparam ArrowColor #7aab8a
skinparam ArrowFontSize 16
skinparam ActivityDiamondBackgroundColor #7aab8a
skinparam ActivityDiamondBorderColor #7aab8a
skinparam ActivityDiamondFontSize 18
skinparam defaultFontName DejaVu Serif Condensed
skinparam ActivityEndColor #669580

header
<b>FV2210
2022-12-12
endheader

title
7.17 AD: Aktivierung eines MaBiS-ZP für Bilanzierungsgebietssummenzeitreihen vom ÜNB an BIKO und NB

7.17.1 E_0015_MaBiS-ZP Aktivierung prüfen



end title
:<b>E_0015</b>;
note right
<b><i>Prüfende Rolle: BIKO
end note

if (Erfolgt die Aktivierung nach Ablauf der Clearingfrist für die KBKA?) then (ja)
    :A01;
    note left
        Cluster Ablehnung
        Fristüberschreitung
    endnote
    kill;
else (nein)
endif
if (Erfolgt die Aktivierung zum Monatsersten 00:00 Uhr?) then (ja)
else (nein)
    :A02;
    note left
        Cluster Ablehnung
        Gewählter Zeitpunkt nicht zulässig
    endnote
    kill;
endif
if (Ist die richtige Regelzone angegeben) then (ja)
else (nein)
    :A03;
    note left
        Cluster Ablehnung
        Regelzone falsch
    endnote
    kill;
endif
if (Ist das Bilanzierungsgebiet zum Aktivierungsbeginn in der Regelzone des BIKO gültig?) then (ja)
else (nein)
    :A04;
    note left
        Cluster Ablehnung
        Bilanzierungsgebiet nicht gültig
    endnote
    kill;
endif
if (Ist der ÜNB zum Aktivierungsbeginn für das Bilanzierungsgebiet zuständig?) then (ja)
else (nein)
    :A05;
    note left
        Cluster Ablehnung
        Keine Berechtigung
    endnote
    kill;
endif
if (Existiert bereits ein abweichendes Tupel unter der ID des MaBiS-ZP?) then (ja)
    :A06;
    note left
        Cluster Ablehnung
        Abweichender MaBiS-ZP bereits vorhanden
    endnote
    kill;
else (nein)
endif
if (Existiert bereits für das genannte Tupel aus Aggregations-verantwortlicher, Bilanzierungsgebiet, Spannungsebene und ZRT eine abweichende ID des MaBiS-ZP?) then (ja)
    :A07;
    note left
        Cluster Ablehnung
        Abweichende ID zum MaBiS-ZP bereits vorhanden
    endnote
    kill;
else (nein)
endif
if (Ist der ÜNB zur Aktivierung des ZRT berechtigt?) then (ja)
else (nein)
    :A08;
    note left
        Cluster Ablehnung
        ZRT Aktivierung nicht berechtigt
    endnote
    kill;
endif
if (Passt die OBIS-Kennzahl zum ZRT?) then (ja)
else (nein)
    :A09;
    note left
        Cluster Ablehnung
        OBIS nicht passend
    endnote
    kill;
endif
if (Ist der MaBiS-ZP zum Zeitpunkt der Aktivierung bereits aktiviert?) then (ja)
    :A10;
    note left
        Cluster Ablehnung
        MaBiS-ZP bereits aktiviert
    endnote
    kill;
else (nein)
    :A11;
    note left
        Cluster: Zustimmung
        Aktivierung durchgeführt
    endnote
    kill;
endif

@enduml

PlantUML version 1.2022.12(Sun Oct 23 18:12:26 GMT 2022)
(GPL source distribution)
Java Runtime: OpenJDK Runtime Environment
JVM: OpenJDK 64-Bit Server VM
Default Encoding: UTF-8
Language: en
Country: US
--></g></svg>
