<?xml version="1.0" encoding="us-ascii" standalone="no"?><svg xmlns="http://www.w3.org/2000/svg" xmlns:xlink="http://www.w3.org/1999/xlink" contentStyleType="text/css" height="723px" preserveAspectRatio="none" style="width:1310px;height:723px;background:#FFFFFF;" version="1.1" viewBox="0 0 1310 723" width="1310px" zoomAndPan="magnify"><defs/><g><text fill="#888888" font-family="DejaVu Serif Condensed" font-size="10" font-weight="bold" lengthAdjust="spacing" textLength="43" x="1254" y="19.2822">FV2210</text><text fill="#888888" font-family="DejaVu Serif Condensed" font-size="10" lengthAdjust="spacing" textLength="56" x="1241" y="30.9229">2022-12-12</text><text fill="#000000" font-family="DejaVu Serif Condensed" font-size="14" font-weight="bold" lengthAdjust="spacing" textLength="788" x="259.5" y="57.2764">7.41 AD: &#220;bermittlung Pr&#252;fmitteilung f&#252;r die Bilanzkreissummenzeitreihe vom BKV an BIKO und &#220;NB</text><text fill="#000000" font-family="DejaVu Serif Condensed" font-size="14" font-weight="bold" lengthAdjust="spacing" textLength="5" x="651" y="73.5732">&#160;</text><text fill="#000000" font-family="DejaVu Serif Condensed" font-size="14" font-weight="bold" lengthAdjust="spacing" textLength="287" x="510" y="89.8701">7.41.2 E_0025_Pr&#252;fmitteilung pr&#252;fen</text><text fill="#000000" font-family="DejaVu Serif Condensed" font-size="14" font-weight="bold" lengthAdjust="spacing" textLength="5" x="651" y="106.167">&#160;</text><text fill="#000000" font-family="DejaVu Serif Condensed" font-size="14" font-weight="bold" lengthAdjust="spacing" textLength="5" x="651" y="122.4639">&#160;</text><text fill="#000000" font-family="DejaVu Serif Condensed" font-size="14" font-weight="bold" lengthAdjust="spacing" textLength="5" x="651" y="138.7607">&#160;</text><path d="M702,161.3906 L702,169.375 L682,173.375 L702,177.375 L702,185.3594 A0,0 0 0 0 702,185.3594 L869,185.3594 A0,0 0 0 0 869,185.3594 L869,171.3906 L859,161.3906 L702,161.3906 A0,0 0 0 0 702,161.3906 " fill="#F3F1F6" style="stroke:#F3F1F6;stroke-width:0.5;"/><path d="M859,161.3906 L859,171.3906 L869,171.3906 L859,161.3906 " fill="#F3F1F6" style="stroke:#F3F1F6;stroke-width:0.5;"/><text fill="#000000" font-family="DejaVu Serif Condensed" font-size="12" font-style="italic" font-weight="bold" lengthAdjust="spacing" textLength="146" x="708" y="177.5293">Pr&#252;fende Rolle: BIKO</text><rect fill="#7A8DA1" height="38.625" rx="12.5" ry="12.5" style="stroke:none;stroke-width:0.5;" width="82" x="600" y="154.0625"/><text fill="#000000" font-family="DejaVu Serif Condensed" font-size="16" font-weight="bold" lengthAdjust="spacing" textLength="62" x="610" y="178.9141">E_0025</text><path d="M451.5,271.3281 L451.5,295.2969 A0,0 0 0 0 451.5,295.2969 L595.5,295.2969 A0,0 0 0 0 595.5,295.2969 L595.5,289.3281 L615.5,283.3125 L595.5,281.3281 L595.5,281.3281 L585.5,271.3281 L451.5,271.3281 A0,0 0 0 0 451.5,271.3281 " fill="#F3F1F6" style="stroke:#F3F1F6;stroke-width:0.5;"/><path d="M585.5,271.3281 L585.5,281.3281 L595.5,281.3281 L585.5,271.3281 " fill="#F3F1F6" style="stroke:#F3F1F6;stroke-width:0.5;"/><text fill="#000000" font-family="DejaVu Serif Condensed" font-size="12" lengthAdjust="spacing" textLength="123" x="457.5" y="287.4668">Frist&#252;berschreitung</text><rect fill="#7A8DA1" height="38.625" rx="12.5" ry="12.5" style="stroke:none;stroke-width:0.5;" width="51" x="615.5" y="264"/><text fill="#000000" font-family="DejaVu Serif Condensed" font-size="16" lengthAdjust="spacing" textLength="31" x="625.5" y="288.8516">A01</text><polygon fill="#7AAB8A" points="262.5,212.6875,1019.5,212.6875,1031.5,224.6875,1019.5,236.6875,262.5,236.6875,250.5,224.6875,262.5,212.6875" style="stroke:#7AAB8A;stroke-width:0.5;"/><text fill="#000000" font-family="DejaVu Serif Condensed" font-size="16" lengthAdjust="spacing" textLength="12" x="645" y="251.5391">ja</text><text fill="#000000" font-family="DejaVu Serif Condensed" font-size="18" font-weight="bold" lengthAdjust="spacing" textLength="20" x="262.5" y="230.9189">1:</text><text fill="#000000" font-family="DejaVu Serif Condensed" font-size="18" lengthAdjust="spacing" textLength="725" x="294.5" y="230.9189">Erfolgt der Eingang der Pr&#252;fmitteilung nach Ablauf der Clearingfrist f&#252;r die KBKA?</text><text fill="#000000" font-family="DejaVu Serif Condensed" font-size="16" lengthAdjust="spacing" textLength="32" x="1031.5" y="220.9141">nein</text><polygon fill="#7AAB8A" points="361,344.625,921,344.625,933,356.625,921,368.625,361,368.625,349,356.625,361,344.625" style="stroke:#7AAB8A;stroke-width:0.5;"/><text fill="#000000" font-family="DejaVu Serif Condensed" font-size="18" font-weight="bold" lengthAdjust="spacing" textLength="20" x="361" y="362.8564">2:</text><text fill="#000000" font-family="DejaVu Serif Condensed" font-size="18" lengthAdjust="spacing" textLength="528" x="393" y="362.8564">Befindet sich der MaBiS-ZP auf der Aggregationsebene RZ?</text><text fill="#000000" font-family="DejaVu Serif Condensed" font-size="16" lengthAdjust="spacing" textLength="12" x="337" y="352.8516">ja</text><text fill="#000000" font-family="DejaVu Serif Condensed" font-size="16" lengthAdjust="spacing" textLength="32" x="933" y="352.8516">nein</text><path d="M56.5,476.125 L56.5,500.0938 A0,0 0 0 0 56.5,500.0938 L274.5,500.0938 A0,0 0 0 0 274.5,500.0938 L274.5,494.125 L294.5,488.1094 L274.5,486.125 L274.5,486.125 L264.5,476.125 L56.5,476.125 A0,0 0 0 0 56.5,476.125 " fill="#F3F1F6" style="stroke:#F3F1F6;stroke-width:0.5;"/><path d="M264.5,476.125 L264.5,486.125 L274.5,486.125 L264.5,476.125 " fill="#F3F1F6" style="stroke:#F3F1F6;stroke-width:0.5;"/><text fill="#000000" font-family="DejaVu Serif Condensed" font-size="12" lengthAdjust="spacing" textLength="197" x="62.5" y="492.2637">Falsche Aggregationsebene RZ</text><rect fill="#7A8DA1" height="38.625" rx="12.5" ry="12.5" style="stroke:none;stroke-width:0.5;" width="51" x="294.5" y="468.7969"/><text fill="#000000" font-family="DejaVu Serif Condensed" font-size="16" lengthAdjust="spacing" textLength="31" x="304.5" y="493.6484">A03</text><polygon fill="#7AAB8A" points="32,378.625,608,378.625,620,410.0547,608,441.4844,32,441.4844,20,410.0547,32,378.625" style="stroke:#7AAB8A;stroke-width:0.5;"/><text fill="#000000" font-family="DejaVu Serif Condensed" font-size="16" lengthAdjust="spacing" textLength="12" x="324" y="456.3359">ja</text><text fill="#000000" font-family="DejaVu Serif Condensed" font-size="18" font-weight="bold" lengthAdjust="spacing" textLength="20" x="32" y="395.333">5:</text><text fill="#000000" font-family="DejaVu Serif Condensed" font-size="18" lengthAdjust="spacing" textLength="544" x="64" y="395.333">Hat der BKV dem BIKO f&#252;r diesen Bilanzierungsmonat bereits</text><text fill="#000000" font-family="DejaVu Serif Condensed" font-size="18" lengthAdjust="spacing" textLength="513" x="32" y="416.2861">mitgeteilt, dass die weiteren Pr&#252;fungen auf Ebene des BG</text><text fill="#000000" font-family="DejaVu Serif Condensed" font-size="18" lengthAdjust="spacing" textLength="176" x="32" y="437.2393">stattfinden m&#252;ssen?</text><text fill="#000000" font-family="DejaVu Serif Condensed" font-size="16" lengthAdjust="spacing" textLength="32" x="620" y="406.2813">nein</text><path d="M698.5,545.3438 L698.5,569.3125 A0,0 0 0 0 698.5,569.3125 L916.5,569.3125 A0,0 0 0 0 916.5,569.3125 L916.5,563.3438 L936.5,557.3281 L916.5,555.3438 L916.5,555.3438 L906.5,545.3438 L698.5,545.3438 A0,0 0 0 0 698.5,545.3438 " fill="#F3F1F6" style="stroke:#F3F1F6;stroke-width:0.5;"/><path d="M906.5,545.3438 L906.5,555.3438 L916.5,555.3438 L906.5,545.3438 " fill="#F3F1F6" style="stroke:#F3F1F6;stroke-width:0.5;"/><text fill="#000000" font-family="DejaVu Serif Condensed" font-size="12" lengthAdjust="spacing" textLength="197" x="704.5" y="561.4824">Falsche Aggregationsebene BG</text><rect fill="#7A8DA1" height="38.625" rx="12.5" ry="12.5" style="stroke:none;stroke-width:0.5;" width="51" x="936.5" y="538.0156"/><text fill="#000000" font-family="DejaVu Serif Condensed" font-size="16" lengthAdjust="spacing" textLength="31" x="946.5" y="562.8672">A02</text><polygon fill="#7AAB8A" points="674,447.8438,1250,447.8438,1262,479.2734,1250,510.7031,674,510.7031,662,479.2734,674,447.8438" style="stroke:#7AAB8A;stroke-width:0.5;"/><text fill="#000000" font-family="DejaVu Serif Condensed" font-size="16" lengthAdjust="spacing" textLength="32" x="966" y="525.5547">nein</text><text fill="#000000" font-family="DejaVu Serif Condensed" font-size="18" font-weight="bold" lengthAdjust="spacing" textLength="20" x="674" y="464.5518">4:</text><text fill="#000000" font-family="DejaVu Serif Condensed" font-size="18" lengthAdjust="spacing" textLength="544" x="706" y="464.5518">Hat der BKV dem BIKO f&#252;r diesen Bilanzierungsmonat bereits</text><text fill="#000000" font-family="DejaVu Serif Condensed" font-size="18" lengthAdjust="spacing" textLength="513" x="674" y="485.5049">mitgeteilt, dass die weiteren Pr&#252;fungen auf Ebene des BG</text><text fill="#000000" font-family="DejaVu Serif Condensed" font-size="18" lengthAdjust="spacing" textLength="176" x="674" y="506.458">stattfinden m&#252;ssen?</text><text fill="#000000" font-family="DejaVu Serif Condensed" font-size="16" lengthAdjust="spacing" textLength="12" x="1262" y="475.5">ja</text><polygon fill="#7AAB8A" points="680,378.625,1244,378.625,1256,399.5781,1244,420.5313,680,420.5313,668,399.5781,680,378.625" style="stroke:#7AAB8A;stroke-width:0.5;"/><text fill="#000000" font-family="DejaVu Serif Condensed" font-size="16" lengthAdjust="spacing" textLength="32" x="966" y="435.3828">nein</text><text fill="#000000" font-family="DejaVu Serif Condensed" font-size="18" font-weight="bold" lengthAdjust="spacing" textLength="20" x="680" y="395.333">3:</text><text fill="#000000" font-family="DejaVu Serif Condensed" font-size="18" lengthAdjust="spacing" textLength="532" x="712" y="395.333">Hat der BKV f&#252;r den BK dieses MaBiS-ZP in diesem Bilanzie-</text><text fill="#000000" font-family="DejaVu Serif Condensed" font-size="18" lengthAdjust="spacing" textLength="449" x="680" y="416.2861">rungsmonat die Aggregationsebene RZ abbestellt?</text><text fill="#000000" font-family="DejaVu Serif Condensed" font-size="16" lengthAdjust="spacing" textLength="12" x="1256" y="395.8047">ja</text><polygon fill="#7AAB8A" points="962,618.6406,974,630.6406,962,642.6406,950,630.6406,962,618.6406" style="stroke:#7AAB8A;stroke-width:0.5;"/><polygon fill="#7AAB8A" points="641,648.6406,653,660.6406,641,672.6406,629,660.6406,641,648.6406" style="stroke:#7AAB8A;stroke-width:0.5;"/><ellipse cx="641" cy="702.6406" fill="none" rx="10" ry="10" style="stroke:#669580;stroke-width:1.5;"/><line style="stroke:#669580;stroke-width:2.5;" x1="634.8128" x2="647.1872" y1="696.4534" y2="708.8278"/><line style="stroke:#669580;stroke-width:2.5;" x1="647.1872" x2="634.8128" y1="696.4534" y2="708.8278"/><line style="stroke:#7AAB8A;stroke-width:1.0;" x1="641" x2="641" y1="236.6875" y2="264"/><polygon fill="#7AAB8A" points="637,254,641,264,645,254,641,258" style="stroke:#7AAB8A;stroke-width:1.0;"/><line style="stroke:#7AAB8A;stroke-width:1.0;" x1="1031.5" x2="1043.5" y1="224.6875" y2="224.6875"/><polygon fill="#7AAB8A" points="1039.5,270.3125,1043.5,280.3125,1047.5,270.3125,1043.5,274.3125" style="stroke:#7AAB8A;stroke-width:1.0;"/><line style="stroke:#7AAB8A;stroke-width:1.0;" x1="1043.5" x2="1043.5" y1="224.6875" y2="324.625"/><line style="stroke:#7AAB8A;stroke-width:1.0;" x1="1043.5" x2="641" y1="324.625" y2="324.625"/><line style="stroke:#7AAB8A;stroke-width:1.0;" x1="641" x2="641" y1="324.625" y2="344.625"/><polygon fill="#7AAB8A" points="637,334.625,641,344.625,645,334.625,641,338.625" style="stroke:#7AAB8A;stroke-width:1.0;"/><line style="stroke:#7AAB8A;stroke-width:1.0;" x1="641" x2="641" y1="192.6875" y2="212.6875"/><polygon fill="#7AAB8A" points="637,202.6875,641,212.6875,645,202.6875,641,206.6875" style="stroke:#7AAB8A;stroke-width:1.0;"/><line style="stroke:#7AAB8A;stroke-width:1.0;" x1="320" x2="320" y1="441.4844" y2="468.7969"/><polygon fill="#7AAB8A" points="316,458.7969,320,468.7969,324,458.7969,320,462.7969" style="stroke:#7AAB8A;stroke-width:1.0;"/><line style="stroke:#7AAB8A;stroke-width:1.0;" x1="620" x2="632" y1="410.0547" y2="410.0547"/><polygon fill="#7AAB8A" points="628,465.3945,632,475.3945,636,465.3945,632,469.3945" style="stroke:#7AAB8A;stroke-width:1.0;"/><line style="stroke:#7AAB8A;stroke-width:1.0;" x1="632" x2="632" y1="410.0547" y2="540.7344"/><line style="stroke:#7AAB8A;stroke-width:1.0;" x1="632" x2="320" y1="540.7344" y2="540.7344"/><line style="stroke:#7AAB8A;stroke-width:1.0;" x1="320" x2="320" y1="540.7344" y2="660.6406"/><line style="stroke:#7AAB8A;stroke-width:1.0;" x1="320" x2="629" y1="660.6406" y2="660.6406"/><polygon fill="#7AAB8A" points="619,656.6406,629,660.6406,619,664.6406,623,660.6406" style="stroke:#7AAB8A;stroke-width:1.0;"/><line style="stroke:#7AAB8A;stroke-width:1.0;" x1="962" x2="962" y1="510.7031" y2="538.0156"/><polygon fill="#7AAB8A" points="958,528.0156,962,538.0156,966,528.0156,962,532.0156" style="stroke:#7AAB8A;stroke-width:1.0;"/><line style="stroke:#7AAB8A;stroke-width:1.0;" x1="1262" x2="1274" y1="479.2734" y2="479.2734"/><polygon fill="#7AAB8A" points="1270,534.6133,1274,544.6133,1278,534.6133,1274,538.6133" style="stroke:#7AAB8A;stroke-width:1.0;"/><line style="stroke:#7AAB8A;stroke-width:1.0;" x1="1274" x2="1274" y1="479.2734" y2="598.6406"/><line style="stroke:#7AAB8A;stroke-width:1.0;" x1="1274" x2="962" y1="598.6406" y2="598.6406"/><line style="stroke:#7AAB8A;stroke-width:1.0;" x1="962" x2="962" y1="598.6406" y2="618.6406"/><polygon fill="#7AAB8A" points="958,608.6406,962,618.6406,966,608.6406,962,612.6406" style="stroke:#7AAB8A;stroke-width:1.0;"/><line style="stroke:#7AAB8A;stroke-width:1.0;" x1="962" x2="962" y1="420.5313" y2="447.8438"/><polygon fill="#7AAB8A" points="958,437.8438,962,447.8438,966,437.8438,962,441.8438" style="stroke:#7AAB8A;stroke-width:1.0;"/><line style="stroke:#7AAB8A;stroke-width:1.0;" x1="1256" x2="1284" y1="399.5781" y2="399.5781"/><polygon fill="#7AAB8A" points="1280,514.4219,1284,524.4219,1288,514.4219,1284,518.4219" style="stroke:#7AAB8A;stroke-width:1.0;"/><line style="stroke:#7AAB8A;stroke-width:1.0;" x1="1284" x2="1284" y1="399.5781" y2="630.6406"/><line style="stroke:#7AAB8A;stroke-width:1.0;" x1="1284" x2="974" y1="630.6406" y2="630.6406"/><polygon fill="#7AAB8A" points="984,626.6406,974,630.6406,984,634.6406,980,630.6406" style="stroke:#7AAB8A;stroke-width:1.0;"/><line style="stroke:#7AAB8A;stroke-width:1.0;" x1="349" x2="320" y1="356.625" y2="356.625"/><line style="stroke:#7AAB8A;stroke-width:1.0;" x1="320" x2="320" y1="356.625" y2="378.625"/><polygon fill="#7AAB8A" points="316,368.625,320,378.625,324,368.625,320,372.625" style="stroke:#7AAB8A;stroke-width:1.0;"/><line style="stroke:#7AAB8A;stroke-width:1.0;" x1="933" x2="962" y1="356.625" y2="356.625"/><line style="stroke:#7AAB8A;stroke-width:1.0;" x1="962" x2="962" y1="356.625" y2="378.625"/><polygon fill="#7AAB8A" points="958,368.625,962,378.625,966,368.625,962,372.625" style="stroke:#7AAB8A;stroke-width:1.0;"/><line style="stroke:#7AAB8A;stroke-width:1.0;" x1="962" x2="962" y1="642.6406" y2="660.6406"/><line style="stroke:#7AAB8A;stroke-width:1.0;" x1="962" x2="653" y1="660.6406" y2="660.6406"/><polygon fill="#7AAB8A" points="663,656.6406,653,660.6406,663,664.6406,659,660.6406" style="stroke:#7AAB8A;stroke-width:1.0;"/><line style="stroke:#7AAB8A;stroke-width:1.0;" x1="641" x2="641" y1="672.6406" y2="692.6406"/><polygon fill="#7AAB8A" points="637,682.6406,641,692.6406,645,682.6406,641,686.6406" style="stroke:#7AAB8A;stroke-width:1.0;"/><!--SRC=[rPJTJjim5CVl_HH7sWr8WpLXGDSYfWRADbLZQ9Muu0OvpKbYwZZ8Ta7ZMVOelUkBxTX9sv1cx7fHLTa-N__pEqxCNAX7hda1qvmdvRDG6QHS6cHcOxakBKQbJb1VbBBKy2uzIeFqfEt1P_DCbmkLlELrLIex5Iy8GTYmZ6PMF0dxgrb5bGgxNDfbJda_uK67vxPKKyH8w_9v4yhZFcyR_n9NPxqKl2XLqY6ZdQiLq0JuB-UjX7x3AS6KBwHrncjU85pY0xzTm1IrIE62mb0PJ3goZZSgJqu-7VTxZEN8IGqxYy-lRiCmwB6m5uO7WVinL4bjPbPOYUpqy6C0eyi1h7x7g0jXhLpGDRdHgsNgTYZyFbqjDIG28HAIgvUvHc7CeYXGlQ2mjCiHdie2eiajS0NHjyaF87wKzJfYliXX2EFxNYyylc_dVdHxL8mUaWULhW79h_pFFiJdGwReVe4MMMvTOsVY_AQAIX1-bbBYmDVq2PmhOuHjZpo30RW4CDPfAJDBd3MCwKNWLDYjss8Kd-KmYYLVfDv-8P5hya-rC7QBOH9DHf_tmUQeOE-1xpEWPp3g1KE_ycebfjRlt7FbubTBOcncEV6oLCmRIR4NxDPp8UMG8RsXiATGg7tNZqZNlOHrBn6cWXgtO0I9TIg_yqXC3-vkO2rxb6KQCsv5ITScHaMKxdRqrccFwxHVUON7pJ31eXhYkcD3WTNi1MhIRkWgap_rGxqOHWGpT0pjUqYuCHxICvd8hYh854HB9t3i1ILe8Fh2ZENM-duK5AkbeK8xGckuHyFDRXUmXqmVjndTnAxkDuvDu5letj80NtiI_FPfJUseWre5ov6QLCpCTZ92LKV51kC1Qu1qlBfa0uzZD1Qbj3jOsieQwZx-5pFjQg2UTJXyTT8zxxTdJaAQZksvlvxzTjwDoQ__sHy0]--></g></svg>