<?xml version="1.0" encoding="UTF-8" standalone="no"?>
<!DOCTYPE svg PUBLIC "-//W3C//DTD SVG 1.1//EN"
 "http://www.w3.org/Graphics/SVG/1.1/DTD/svg11.dtd">
<!-- Generated by graphviz version 3.0.0 (20221109.1736)
 -->
<!-- Title: D Pages: 1 -->
<svg width="585pt" height="291pt"
 viewBox="0.00 0.00 585.00 291.00" xmlns="http://www.w3.org/2000/svg" xmlns:xlink="http://www.w3.org/1999/xlink">
<g id="graph0" class="graph" transform="scale(1 1) rotate(0) translate(4 287)">
<title>D</title>
<polygon fill="white" stroke="transparent" points="-4,4 -4,-287 581,-287 581,4 -4,4"/>
<!-- Start -->
<g id="node1" class="node">
<title>Start</title>
<path fill="none" stroke="black" d="M207.5,-283C207.5,-283 177.5,-283 177.5,-283 171.5,-283 165.5,-277 165.5,-271 165.5,-271 165.5,-259 165.5,-259 165.5,-253 171.5,-247 177.5,-247 177.5,-247 207.5,-247 207.5,-247 213.5,-247 219.5,-253 219.5,-259 219.5,-259 219.5,-271 219.5,-271 219.5,-277 213.5,-283 207.5,-283"/>
<text text-anchor="middle" x="192.5" y="-261.3" font-family="Times,serif" font-size="14.00">Start</text>
</g>
<!-- 1 -->
<g id="node2" class="node">
<title>1</title>
<polygon fill="green" stroke="black" points="385,-210 0,-210 0,-174 385,-174 385,-210"/>
<text text-anchor="start" x="8" y="-189.3" font-family="Times,serif" font-weight="bold" font-size="14.00">1: </text>
<text text-anchor="start" x="28" y="-189.3" font-family="Times,serif" font-size="14.00">Erfolgt der Eingang der Bestellung fristgerecht?</text>
</g>
<!-- Start&#45;&gt;1 -->
<g id="edge1" class="edge">
<title>Start&#45;&gt;1</title>
<path fill="none" stroke="black" d="M192.5,-246.81C192.5,-238.79 192.5,-229.05 192.5,-220.07"/>
<polygon fill="black" stroke="black" points="196,-220.03 192.5,-210.03 189,-220.03 196,-220.03"/>
</g>
<!-- A01 -->
<g id="node3" class="node">
<title>A01</title>
<polygon fill="red" stroke="black" points="142.5,-123 88.5,-123 88.5,-87 142.5,-87 142.5,-123"/>
<text text-anchor="start" x="101.5" y="-101.3" font-family="Times,serif" font-size="14.00">A01</text>
</g>
<!-- 1&#45;&gt;A01 -->
<g id="edge2" class="edge">
<title>1&#45;&gt;A01</title>
<path fill="none" stroke="black" d="M176.92,-173.8C165.75,-161.47 150.54,-144.68 138.05,-130.89"/>
<polygon fill="black" stroke="black" points="140.37,-128.24 131.06,-123.18 135.18,-132.94 140.37,-128.24"/>
<text text-anchor="middle" x="175.5" y="-144.8" font-family="Times,serif" font-size="14.00">Nein</text>
</g>
<!-- 2 -->
<g id="node4" class="node">
<title>2</title>
<polygon fill="green" stroke="black" points="577,-123 160,-123 160,-87 577,-87 577,-123"/>
<text text-anchor="start" x="168" y="-102.3" font-family="Times,serif" font-weight="bold" font-size="14.00">2: </text>
<text text-anchor="start" x="188" y="-102.3" font-family="Times,serif" font-size="14.00">Erfolgt die Bestellung zum Monatsersten 00:00 Uhr?</text>
</g>
<!-- 1&#45;&gt;2 -->
<g id="edge3" class="edge">
<title>1&#45;&gt;2</title>
<path fill="none" stroke="black" d="M228.12,-173.8C255.76,-160.45 294.25,-141.86 323.93,-127.52"/>
<polygon fill="black" stroke="black" points="325.75,-130.53 333.24,-123.03 322.71,-124.23 325.75,-130.53"/>
<text text-anchor="middle" x="297.5" y="-144.8" font-family="Times,serif" font-size="14.00">Ja</text>
</g>
<!-- A02 -->
<g id="node5" class="node">
<title>A02</title>
<polygon fill="red" stroke="black" points="359.5,-36 305.5,-36 305.5,0 359.5,0 359.5,-36"/>
<text text-anchor="start" x="318.5" y="-14.3" font-family="Times,serif" font-size="14.00">A02</text>
</g>
<!-- 2&#45;&gt;A02 -->
<g id="edge4" class="edge">
<title>2&#45;&gt;A02</title>
<path fill="none" stroke="black" d="M357.79,-86.93C354.55,-81.34 351.15,-75.02 348.5,-69 345.32,-61.77 342.46,-53.71 340.07,-46.21"/>
<polygon fill="black" stroke="black" points="343.36,-45.01 337.11,-36.45 336.66,-47.04 343.36,-45.01"/>
<text text-anchor="middle" x="365.5" y="-57.8" font-family="Times,serif" font-size="14.00">Nein</text>
</g>
<!-- Ende -->
<g id="node6" class="node">
<title>Ende</title>
<path fill="none" stroke="black" d="M419.5,-36C419.5,-36 389.5,-36 389.5,-36 383.5,-36 377.5,-30 377.5,-24 377.5,-24 377.5,-12 377.5,-12 377.5,-6 383.5,0 389.5,0 389.5,0 419.5,0 419.5,0 425.5,0 431.5,-6 431.5,-12 431.5,-12 431.5,-24 431.5,-24 431.5,-30 425.5,-36 419.5,-36"/>
<text text-anchor="middle" x="404.5" y="-14.3" font-family="Times,serif" font-size="14.00">Ende</text>
</g>
<!-- 2&#45;&gt;Ende -->
<g id="edge5" class="edge">
<title>2&#45;&gt;Ende</title>
<path fill="none" stroke="black" d="M375.79,-86.8C380.81,-74.93 387.59,-58.93 393.3,-45.45"/>
<polygon fill="black" stroke="black" points="396.55,-46.75 397.23,-36.18 390.1,-44.02 396.55,-46.75"/>
<text text-anchor="middle" x="395.5" y="-57.8" font-family="Times,serif" font-size="14.00">Ja</text>
</g>
</g>
</svg>
