<?xml version="1.0" encoding="UTF-8" standalone="no"?>
<!DOCTYPE svg PUBLIC "-//W3C//DTD SVG 1.1//EN"
 "http://www.w3.org/Graphics/SVG/1.1/DTD/svg11.dtd">
<!-- Generated by graphviz version 9.0.0 (20230911.1827)
 -->
<!-- Title: D Pages: 1 -->
<svg width="1440pt" height="780pt"
 viewBox="0.00 0.00 1440.00 780.18" xmlns="http://www.w3.org/2000/svg" xmlns:xlink="http://www.w3.org/1999/xlink">
<g id="graph0" class="graph" transform="scale(0.981077 0.981077) rotate(0) translate(18 777.23)">
<title>D</title>
<text text-anchor="start" x="224.64" y="-739.13" font-family="Roboto, sans-serif" font-weight="bold" font-size="18.00">MaBiS</text>
<text text-anchor="start" x="224.64" y="-711.03" font-family="Roboto, sans-serif" font-weight="bold" font-size="16.00">7.27.3: AD: Übermittlung Datenstatus für die Bilanzierungsgebietssummenzeitreihe vom BIKO an ÜNB und NB</text>
<g id="clust1" class="cluster">
<title>cluster_footer</title>
</g>
<!-- Start -->
<g id="node1" class="node">
<title>Start</title>
<path fill="#8ba2d7" stroke="black" stroke-width="0" d="M377.05,-567.87C377.05,-567.87 224.5,-567.87 224.5,-567.87 218.5,-567.87 212.5,-561.87 212.5,-555.87 212.5,-555.87 212.5,-534.59 212.5,-534.59 212.5,-528.59 218.5,-522.59 224.5,-522.59 224.5,-522.59 377.05,-522.59 377.05,-522.59 383.05,-522.59 389.05,-528.59 389.05,-534.59 389.05,-534.59 389.05,-555.87 389.05,-555.87 389.05,-561.87 383.05,-567.87 377.05,-567.87"/>
<text text-anchor="start" x="226.9" y="-546.93" font-family="Roboto, sans-serif" font-weight="bold" font-size="14.00">E_0055</text>
<text text-anchor="start" x="226.9" y="-532.93" font-family="Roboto, sans-serif" font-size="14.00">Prüfende Rolle: </text>
<text text-anchor="start" x="336.4" y="-532.93" font-family="Roboto, sans-serif" font-weight="bold" font-size="14.00">BIKO</text>
</g>
<!-- 1 -->
<g id="node2" class="node">
<title>1</title>
<path fill="#c2cee9" stroke="black" stroke-width="0" d="M513.67,-485.59C513.67,-485.59 181.88,-485.59 181.88,-485.59 175.88,-485.59 169.87,-479.59 169.87,-473.59 169.87,-473.59 169.87,-461.59 169.87,-461.59 169.87,-455.59 175.87,-449.59 181.87,-449.59 181.87,-449.59 513.67,-449.59 513.67,-449.59 519.67,-449.59 525.67,-455.59 525.67,-461.59 525.67,-461.59 525.67,-473.59 525.67,-473.59 525.67,-479.59 519.67,-485.59 513.67,-485.59"/>
<text text-anchor="start" x="184.27" y="-463.91" font-family="Roboto, sans-serif" font-weight="bold" font-size="14.00">1: </text>
<text text-anchor="start" x="203.77" y="-463.91" font-family="Roboto, sans-serif" font-size="14.00">Ist die eingegangene Prüfmitteilung positiv?</text>
</g>
<!-- Start&#45;&gt;1 -->
<g id="edge1" class="edge">
<title>Start&#45;&gt;1</title>
<path fill="none" stroke="#88a0d6" d="M314.12,-522.76C319.48,-514.13 325.72,-504.09 331.36,-495.01"/>
<polygon fill="#88a0d6" stroke="#88a0d6" points="334.28,-496.93 336.59,-486.59 328.34,-493.24 334.28,-496.93"/>
</g>
<!-- A**: Hinweis: A** wird durch richtigen Code aus dem System des BIKO ersetzt. Mögliche Codes sind:
A01	Datenstatus „Abrechnungsdaten“
A02	Datenstatus „Prüfdaten“
A03	Datenstatus „Abgerechnete Daten“
A04	Datenstatus „Abrechnungsdaten KBKA“ -->
<g id="node3" class="node">
<title>A**: Hinweis: A** wird durch richtigen Code aus dem System des BIKO ersetzt. Mögliche Codes sind:
A01	Datenstatus „Abrechnungsdaten“
A02	Datenstatus „Prüfdaten“
A03	Datenstatus „Abgerechnete Daten“
A04	Datenstatus „Abrechnungsdaten KBKA“</title>
<path fill="#c4cac1" stroke="black" stroke-width="0" d="M683.55,-396.34C683.55,-396.34 12,-396.34 12,-396.34 6,-396.34 0,-390.34 0,-384.34 0,-384.34 0,-293.06 0,-293.06 0,-287.06 6,-281.06 12,-281.06 12,-281.06 683.55,-281.06 683.55,-281.06 689.55,-281.06 695.55,-287.06 695.55,-293.06 695.55,-293.06 695.55,-384.34 695.55,-384.34 695.55,-390.34 689.55,-396.34 683.55,-396.34"/>
<text text-anchor="start" x="14.4" y="-375.4" font-family="Roboto, sans-serif" font-weight="bold" font-size="14.00">A**</text>
<text text-anchor="start" x="14.4" y="-347.4" font-family="Roboto, sans-serif" font-size="14.00">Hinweis: A** wird durch richtigen Code aus dem System des BIKO ersetzt. Mögliche Codes sind:</text>
<text text-anchor="start" x="14.4" y="-333.4" font-family="Roboto, sans-serif" font-size="14.00">A01Datenstatus „Abrechnungsdaten“</text>
<text text-anchor="start" x="14.4" y="-319.4" font-family="Roboto, sans-serif" font-size="14.00">A02Datenstatus „Prüfdaten“</text>
<text text-anchor="start" x="14.4" y="-305.4" font-family="Roboto, sans-serif" font-size="14.00">A03Datenstatus „Abgerechnete Daten“</text>
<text text-anchor="start" x="14.4" y="-291.4" font-family="Roboto, sans-serif" font-size="14.00">A04Datenstatus „Abrechnungsdaten KBKA“</text>
</g>
<!-- 1&#45;&gt;A**: Hinweis: A** wird durch richtigen Code aus dem System des BIKO ersetzt. Mögliche Codes sind:
A01	Datenstatus „Abrechnungsdaten“
A02	Datenstatus „Prüfdaten“
A03	Datenstatus „Abgerechnete Daten“
A04	Datenstatus „Abrechnungsdaten KBKA“ -->
<g id="edge2" class="edge">
<title>1&#45;&gt;A**: Hinweis: A** wird durch richtigen Code aus dem System des BIKO ersetzt. Mögliche Codes sind:
A01	Datenstatus „Abrechnungsdaten“
A02	Datenstatus „Prüfdaten“
A03	Datenstatus „Abgerechnete Daten“
A04	Datenstatus „Abrechnungsdaten KBKA“</title>
<path fill="none" stroke="#88a0d6" d="M347.77,-449.74C347.77,-438.67 347.77,-423.39 347.77,-407.73"/>
<polygon fill="#88a0d6" stroke="#88a0d6" points="351.28,-407.84 347.78,-397.84 344.28,-407.84 351.28,-407.84"/>
<text text-anchor="start" x="347.77" y="-419.29" font-family="Roboto, sans-serif" font-weight="bold" font-size="14.00">NEIN</text>
</g>
<!-- 2 -->
<g id="node4" class="node">
<title>2</title>
<path fill="#c2cee9" stroke="black" stroke-width="0" d="M1019.92,-356.7C1019.92,-356.7 725.62,-356.7 725.62,-356.7 719.62,-356.7 713.62,-350.7 713.62,-344.7 713.62,-344.7 713.62,-332.7 713.62,-332.7 713.62,-326.7 719.62,-320.7 725.62,-320.7 725.62,-320.7 1019.92,-320.7 1019.92,-320.7 1025.92,-320.7 1031.92,-326.7 1031.92,-332.7 1031.92,-332.7 1031.92,-344.7 1031.92,-344.7 1031.92,-350.7 1025.92,-356.7 1019.92,-356.7"/>
<text text-anchor="start" x="728.02" y="-335.02" font-family="Roboto, sans-serif" font-weight="bold" font-size="14.00">2: </text>
<text text-anchor="start" x="747.52" y="-335.02" font-family="Roboto, sans-serif" font-size="14.00">Liegt der Datenstatus „Prüfdaten“ vor?</text>
</g>
<!-- 1&#45;&gt;2 -->
<g id="edge3" class="edge">
<title>1&#45;&gt;2</title>
<path fill="none" stroke="#88a0d6" d="M452.87,-449.64C524.42,-437.19 620.99,-418.61 704.77,-396.34 742.86,-386.22 784.87,-372.06 817.35,-360.42"/>
<polygon fill="#88a0d6" stroke="#88a0d6" points="818.34,-363.79 826.56,-357.1 815.97,-357.2 818.34,-363.79"/>
<text text-anchor="start" x="626.77" y="-419.29" font-family="Roboto, sans-serif" font-weight="bold" font-size="14.00">JA</text>
</g>
<!-- A**: Aktueller Datenstatus
Hinweis: A** wird durch richtigen Code aus dem System des BIKO ersetzt. Mögliche Codes sind:
A01	Datenstatus „Abrechnungsdaten“
A03	Datenstatus „Abgerechnete Daten“
A04	Datenstatus „Abrechnungsdaten KBKA“ -->
<g id="node5" class="node">
<title>A**: Aktueller Datenstatus
Hinweis: A** wird durch richtigen Code aus dem System des BIKO ersetzt. Mögliche Codes sind:
A01	Datenstatus „Abrechnungsdaten“
A03	Datenstatus „Abgerechnete Daten“
A04	Datenstatus „Abrechnungsdaten KBKA“</title>
<path fill="#c4cac1" stroke="black" stroke-width="0" d="M786.55,-227.81C786.55,-227.81 115,-227.81 115,-227.81 109,-227.81 103,-221.81 103,-215.81 103,-215.81 103,-124.53 103,-124.53 103,-118.53 109,-112.53 115,-112.53 115,-112.53 786.55,-112.53 786.55,-112.53 792.55,-112.53 798.55,-118.53 798.55,-124.53 798.55,-124.53 798.55,-215.81 798.55,-215.81 798.55,-221.81 792.55,-227.81 786.55,-227.81"/>
<text text-anchor="start" x="117.4" y="-206.87" font-family="Roboto, sans-serif" font-weight="bold" font-size="14.00">A**</text>
<text text-anchor="start" x="117.4" y="-178.87" font-family="Roboto, sans-serif" font-size="14.00">Aktueller Datenstatus</text>
<text text-anchor="start" x="117.4" y="-164.87" font-family="Roboto, sans-serif" font-size="14.00">Hinweis: A** wird durch richtigen Code aus dem System des BIKO ersetzt. Mögliche Codes sind:</text>
<text text-anchor="start" x="117.4" y="-150.87" font-family="Roboto, sans-serif" font-size="14.00">A01Datenstatus „Abrechnungsdaten“</text>
<text text-anchor="start" x="117.4" y="-136.87" font-family="Roboto, sans-serif" font-size="14.00">A03Datenstatus „Abgerechnete Daten“</text>
<text text-anchor="start" x="117.4" y="-122.87" font-family="Roboto, sans-serif" font-size="14.00">A04Datenstatus „Abrechnungsdaten KBKA“</text>
</g>
<!-- 2&#45;&gt;A**: Aktueller Datenstatus
Hinweis: A** wird durch richtigen Code aus dem System des BIKO ersetzt. Mögliche Codes sind:
A01	Datenstatus „Abrechnungsdaten“
A03	Datenstatus „Abgerechnete Daten“
A04	Datenstatus „Abrechnungsdaten KBKA“ -->
<g id="edge4" class="edge">
<title>2&#45;&gt;A**: Aktueller Datenstatus
Hinweis: A** wird durch richtigen Code aus dem System des BIKO ersetzt. Mögliche Codes sind:
A01	Datenstatus „Abrechnungsdaten“
A03	Datenstatus „Abgerechnete Daten“
A04	Datenstatus „Abrechnungsdaten KBKA“</title>
<path fill="none" stroke="#88a0d6" d="M829.99,-320.82C777.24,-300 684.69,-263.48 604.23,-231.73"/>
<polygon fill="#88a0d6" stroke="#88a0d6" points="605.97,-228.65 595.39,-228.24 603.4,-235.16 605.97,-228.65"/>
<text text-anchor="start" x="673.77" y="-250.76" font-family="Roboto, sans-serif" font-weight="bold" font-size="14.00">NEIN</text>
</g>
<!-- 3 -->
<g id="node6" class="node">
<title>3</title>
<path fill="#c2cee9" stroke="black" stroke-width="0" d="M1308.55,-192.81C1308.55,-192.81 829,-192.81 829,-192.81 823,-192.81 817,-186.81 817,-180.81 817,-180.81 817,-159.53 817,-159.53 817,-153.53 823,-147.53 829,-147.53 829,-147.53 1308.55,-147.53 1308.55,-147.53 1314.55,-147.53 1320.55,-153.53 1320.55,-159.53 1320.55,-159.53 1320.55,-180.81 1320.55,-180.81 1320.55,-186.81 1314.55,-192.81 1308.55,-192.81"/>
<text text-anchor="start" x="831.4" y="-171.87" font-family="Roboto, sans-serif" font-weight="bold" font-size="14.00">3: </text>
<text text-anchor="start" x="850.9" y="-171.87" font-family="Roboto, sans-serif" font-size="14.00">Erfolgt der Eingang der Prüfmitteilung vor Ablauf der Frist für die</text>
<text text-anchor="start" x="831.4" y="-157.87" font-family="Roboto, sans-serif" font-size="14.00">Clearingphase der BKA (ohne KBKA)?</text>
</g>
<!-- 2&#45;&gt;3 -->
<g id="edge5" class="edge">
<title>2&#45;&gt;3</title>
<path fill="none" stroke="#88a0d6" d="M892.65,-320.82C926.01,-292.47 993.67,-234.98 1034.73,-200.1"/>
<polygon fill="#88a0d6" stroke="#88a0d6" points="1036.81,-202.92 1042.16,-193.78 1032.27,-197.59 1036.81,-202.92"/>
<text text-anchor="start" x="975.77" y="-250.76" font-family="Roboto, sans-serif" font-weight="bold" font-size="14.00">JA</text>
</g>
<!-- A01 -->
<g id="node7" class="node">
<title>A01</title>
<path fill="#c4cac1" stroke="black" stroke-width="0" d="M988.17,-59.28C988.17,-59.28 749.38,-59.28 749.38,-59.28 743.38,-59.28 737.38,-53.28 737.38,-47.28 737.38,-47.28 737.38,-12 737.38,-12 737.38,-6 743.38,0 749.38,0 749.38,0 988.17,0 988.17,0 994.17,0 1000.17,-6 1000.17,-12 1000.17,-12 1000.17,-47.28 1000.17,-47.28 1000.17,-53.28 994.17,-59.28 988.17,-59.28"/>
<text text-anchor="start" x="751.77" y="-38.34" font-family="Roboto, sans-serif" font-weight="bold" font-size="14.00">A01</text>
<text text-anchor="start" x="751.77" y="-10.34" font-family="Roboto, sans-serif" font-size="14.00">Datenstatus „Abrechnungsdaten“</text>
</g>
<!-- 3&#45;&gt;A01 -->
<g id="edge6" class="edge">
<title>3&#45;&gt;A01</title>
<path fill="none" stroke="#88a0d6" d="M1037.96,-147.83C1006.35,-125.93 956.63,-91.49 919.26,-65.61"/>
<polygon fill="#88a0d6" stroke="#88a0d6" points="921.5,-62.9 911.28,-60.08 917.51,-68.66 921.5,-62.9"/>
<text text-anchor="start" x="956.77" y="-82.23" font-family="Roboto, sans-serif" font-weight="bold" font-size="14.00">JA</text>
</g>
<!-- A04 -->
<g id="node8" class="node">
<title>A04</title>
<path fill="#c4cac1" stroke="black" stroke-width="0" d="M1309.8,-59.28C1309.8,-59.28 1029.75,-59.28 1029.75,-59.28 1023.75,-59.28 1017.75,-53.28 1017.75,-47.28 1017.75,-47.28 1017.75,-12 1017.75,-12 1017.75,-6 1023.75,0 1029.75,0 1029.75,0 1309.8,0 1309.8,0 1315.8,0 1321.8,-6 1321.8,-12 1321.8,-12 1321.8,-47.28 1321.8,-47.28 1321.8,-53.28 1315.8,-59.28 1309.8,-59.28"/>
<text text-anchor="start" x="1032.15" y="-38.34" font-family="Roboto, sans-serif" font-weight="bold" font-size="14.00">A04</text>
<text text-anchor="start" x="1032.15" y="-10.34" font-family="Roboto, sans-serif" font-size="14.00">Datenstatus „Abrechnungsdaten KBKA“</text>
</g>
<!-- 3&#45;&gt;A04 -->
<g id="edge7" class="edge">
<title>3&#45;&gt;A04</title>
<path fill="none" stroke="#88a0d6" d="M1084.33,-147.83C1099.76,-126.67 1123.72,-93.81 1142.34,-68.27"/>
<polygon fill="#88a0d6" stroke="#88a0d6" points="1144.98,-70.59 1148.04,-60.45 1139.33,-66.46 1144.98,-70.59"/>
<text text-anchor="start" x="1133.78" y="-82.23" font-family="Roboto, sans-serif" font-weight="bold" font-size="14.00">NEIN</text>
</g>
<!-- _footer -->
<g id="node9" class="node">
<title>_footer</title>
<text text-anchor="middle" x="911.77" y="-542.11" font-family="Roboto, sans-serif" font-size="10.00" fill="#666666">v4.2 | 11.12.2025 (urspr. 01.10.2025)</text>
</g>
</g>
</svg>
