<?xml version='1.0' encoding='ASCII' standalone='yes'?>
<svg xmlns="http://www.w3.org/2000/svg" xmlns:xlink="http://www.w3.org/1999/xlink" version="1.1" width="1402.6666666666667px" viewBox="0 0 1402.6666666666667 585.3333333333334" height="585.3333333333334px">
  <g>
    <svg version="1.1" width="1402.6666666666667px" viewBox="0 0 1402.6666666666667 585.3333333333334" height="585.3333333333334px">
  <rect fill="#e7e6e5" x="0" y="0" width="1402.6666666666667" height="585.3333333333334" rx="20" ry="20"/><g>
    <g transform="translate(462.634037360368, 58.533333333333324) scale(1 1) translate(0, 0) scale(0.8241809818830378 0.8241809818830378) "><!-- note that I manually added the width and height attribute to the root node
  https://chatgpt.com/share/678e3028-70cc-800b-a296-782714735772
  -->
  <defs>
    <style>.cls-1{fill:#fff;}</style>
  </defs>
  <path class="cls-1" d="M122.44,531.2h-56.1c-11,0-19.9-9.12-19.46-20.11C57.47,243.89,278.15,29.78,547.91,29.78v56.02c0,10.98-8.69,19.89-19.66,20.39-225.51,10.31-405.8,197-405.8,425Z"/>
  <path class="cls-1" d="M273.78,531.2h-55.93c-11.23,0-20.09-9.48-19.43-20.69,10.74-183.44,163.39-329.39,349.48-329.39v56.26c0,10.71-8.27,19.62-18.96,20.35-142.35,9.77-255.17,128.69-255.17,273.46Z"/>
  <path class="cls-1" d="M425.77,531.2h-55.45c-11.65,0-20.6-10.17-19.33-21.75,10.87-99.03,95.03-176.34,196.92-176.34v57.01c0,10.05-7.28,18.75-17.23,20.16-59.22,8.4-104.91,59.42-104.91,120.92Z"/>
</g>
    <svg width="1052pt" height="439pt" viewBox="0.00 0.00 1051.50 439.34">
<!--curl - -request POST - -url https://kroki.io/ via local kroki docker container instance hosted at http://localhost:8125/- -header 'Content-Type: application/json' - -data 'digraph D {
    labelloc="t";
    label=<<B><FONT POINT-SIZE="18">7.39 AD: Bestellung der Aggregationsebene der Bilanzkreissummenzeitreihe auf Ebene der Regelzone</FONT></B><BR align="left"/><BR/><B><FONT POINT-SIZE="16">7.39.1 E_0003_Bestellung der Aggregationsebene RZ pr&#252;fen</FONT></B><BR align="left"/><BR/><BR/><BR/>>;
    ratio="compress";
    concentrate=true;
    pack=true;
    rankdir=TB;
    packmode="array";
    size="20,20";
    "Start" [margin="0.2,0.12", shape=box, style="filled,rounded", penwidth=0.0, fillcolor="#8ba2d7", label=<<B>E_0003</B><BR align="left"/><FONT point-size="12"><B><U>Pr&#252;fende Rolle:</U> &#220;NB</B></FONT><BR align="center"/>>, fontname="Roboto, sans-serif"];
    "1" [margin="0.2,0.12", shape=box, style="filled,rounded", penwidth=0.0, fillcolor="#c2cee9", label=<<B>1: </B>Erfolgt der Eingang der Bestellung fristgerecht?<BR align="left"/>>, fontname="Roboto, sans-serif"];
    "A01" [margin="0.2,0.12", shape=box, style="filled,rounded", penwidth=0.0, fillcolor="#c4cac1", label=<<B>A01</B><BR align="left"/><FONT point-size="12"><U>Hinweis:</U><BR align="left"/>Frist&#252;berschreitung<BR align="left"/></FONT>>, fontname="Roboto, sans-serif"];
    "2" [margin="0.2,0.12", shape=box, style="filled,rounded", penwidth=0.0, fillcolor="#c2cee9", label=<<B>2: </B>Erfolgt die Bestellung zum Monatsersten 00:00 Uhr?<BR align="left"/>>, fontname="Roboto, sans-serif"];
    "A02" [margin="0.2,0.12", shape=box, style="filled,rounded", penwidth=0.0, fillcolor="#c4cac1", label=<<B>A02</B><BR align="left"/><FONT point-size="12"><U>Hinweis:</U><BR align="left"/>Gew&#228;hlter Zeitpunkt nicht zul&#228;ssig<BR align="left"/></FONT>>, fontname="Roboto, sans-serif"];
    "Ende" [margin="0.2,0.12", shape=box, style="filled,rounded", penwidth=0.0, fillcolor="#8ba2d7", label="Ende", fontname="Roboto, sans-serif"];

    "Start" -> "1" [color="#88a0d6"];
    "1" -> "A01" [label=<<B>NEIN</B>>, color="#88a0d6", fontname="Roboto, sans-serif"];
    "1" -> "2" [label=<<B>JA</B>>, color="#88a0d6", fontname="Roboto, sans-serif"];
    "2" -> "A02" [label=<<B>NEIN</B>>, color="#88a0d6", fontname="Roboto, sans-serif"];
    "2" -> "Ende" [label=<<B>JA</B>>, color="#88a0d6", fontname="Roboto, sans-serif"];

    bgcolor="transparent";
fontname="Roboto, sans-serif";
}'--><g id="graph0" class="graph" transform="scale(1 1) rotate(0) translate(4 435.34)">
<title>D</title>
<text text-anchor="start" x="8" y="-411.24" font-family="Roboto, sans-serif" font-weight="bold" font-size="18.00">7.39 AD: Bestellung der Aggregationsebene der Bilanzkreissummenzeitreihe auf Ebene der Regelzone</text>
<text text-anchor="start" x="8" y="-381.14" font-family="Roboto, sans-serif" font-weight="bold" font-size="16.00">7.39.1 E_0003_Bestellung der Aggregationsebene RZ pr&#252;fen</text>
<!-- Start -->
<g id="node1" class="node">
<title>Start</title>
<path fill="#8ba2d7" stroke="black" stroke-width="0" d="M511.21,-333.34C511.21,-333.34 369.91,-333.34 369.91,-333.34 363.91,-333.34 357.91,-327.34 357.91,-321.34 357.91,-321.34 357.91,-302.06 357.91,-302.06 357.91,-296.06 363.91,-290.06 369.91,-290.06 369.91,-290.06 511.21,-290.06 511.21,-290.06 517.21,-290.06 523.21,-296.06 523.21,-302.06 523.21,-302.06 523.21,-321.34 523.21,-321.34 523.21,-327.34 517.21,-333.34 511.21,-333.34"/>
<text text-anchor="start" x="372.31" y="-312.4" font-family="Roboto, sans-serif" font-weight="bold" font-size="14.00">E_0003</text>
<text text-anchor="start" x="372.31" y="-300.3" font-family="Roboto, sans-serif" font-weight="bold" text-decoration="underline" font-size="12.00">Pr&#252;fende Rolle:</text>
<text text-anchor="start" x="475.81" y="-300.3" font-family="Roboto, sans-serif" font-weight="bold" font-size="12.00"> &#220;NB</text>
</g>
<!-- 1 -->
<g id="node2" class="node">
<title>1</title>
<path fill="#c2cee9" stroke="black" stroke-width="0" d="M619.59,-253.06C619.59,-253.06 261.54,-253.06 261.54,-253.06 255.54,-253.06 249.54,-247.06 249.54,-241.06 249.54,-241.06 249.54,-229.06 249.54,-229.06 249.54,-223.06 255.54,-217.06 261.54,-217.06 261.54,-217.06 619.59,-217.06 619.59,-217.06 625.59,-217.06 631.59,-223.06 631.59,-229.06 631.59,-229.06 631.59,-241.06 631.59,-241.06 631.59,-247.06 625.59,-253.06 619.59,-253.06"/>
<text text-anchor="start" x="263.94" y="-231.38" font-family="Roboto, sans-serif" font-weight="bold" font-size="14.00">1: </text>
<text text-anchor="start" x="283.44" y="-231.38" font-family="Roboto, sans-serif" font-size="14.00">Erfolgt der Eingang der Bestellung fristgerecht?</text>
</g>
<!-- Start&#45;&gt;1 -->
<g id="edge1" class="edge">
<title>Start-&gt;1</title>
<path fill="none" stroke="#88a0d6" d="M440.56,-290.3C440.56,-282.23 440.56,-272.82 440.56,-264.13"/>
<polygon fill="#88a0d6" stroke="#88a0d6" points="444.06,-264.42 440.56,-254.42 437.06,-264.42 444.06,-264.42"/>
</g>
<!-- A01 -->
<g id="node3" class="node">
<title>A01</title>
<path fill="#c4cac1" stroke="black" stroke-width="0" d="M365.34,-163.81C365.34,-163.81 245.79,-163.81 245.79,-163.81 239.79,-163.81 233.79,-157.81 233.79,-151.81 233.79,-151.81 233.79,-120.53 233.79,-120.53 233.79,-114.53 239.79,-108.53 245.79,-108.53 245.79,-108.53 365.34,-108.53 365.34,-108.53 371.34,-108.53 377.34,-114.53 377.34,-120.53 377.34,-120.53 377.34,-151.81 377.34,-151.81 377.34,-157.81 371.34,-163.81 365.34,-163.81"/>
<text text-anchor="start" x="248.19" y="-142.87" font-family="Roboto, sans-serif" font-weight="bold" font-size="14.00">A01</text>
<text text-anchor="start" x="248.19" y="-130.77" font-family="Roboto, sans-serif" text-decoration="underline" font-size="12.00">Hinweis:</text>
<text text-anchor="start" x="248.19" y="-118.77" font-family="Roboto, sans-serif" font-size="12.00">Frist&#252;berschreitung</text>
</g>
<!-- 1&#45;&gt;A01 -->
<g id="edge2" class="edge">
<title>1-&gt;A01</title>
<path fill="none" stroke="#88a0d6" d="M417.05,-217.18C399.07,-204.28 373.71,-186.08 351.73,-170.3"/>
<polygon fill="#88a0d6" stroke="#88a0d6" points="353.94,-167.58 343.77,-164.59 349.85,-173.27 353.94,-167.58"/>
<text text-anchor="start" x="388.56" y="-186.76" font-family="Roboto, sans-serif" font-weight="bold" font-size="14.00">NEIN</text>
</g>
<!-- 2 -->
<g id="node4" class="node">
<title>2</title>
<path fill="#c2cee9" stroke="black" stroke-width="0" d="M797.71,-154.17C797.71,-154.17 407.41,-154.17 407.41,-154.17 401.41,-154.17 395.41,-148.17 395.41,-142.17 395.41,-142.17 395.41,-130.17 395.41,-130.17 395.41,-124.17 401.41,-118.17 407.41,-118.17 407.41,-118.17 797.71,-118.17 797.71,-118.17 803.71,-118.17 809.71,-124.17 809.71,-130.17 809.71,-130.17 809.71,-142.17 809.71,-142.17 809.71,-148.17 803.71,-154.17 797.71,-154.17"/>
<text text-anchor="start" x="409.81" y="-132.5" font-family="Roboto, sans-serif" font-weight="bold" font-size="14.00">2: </text>
<text text-anchor="start" x="429.31" y="-132.5" font-family="Roboto, sans-serif" font-size="14.00">Erfolgt die Bestellung zum Monatsersten 00:00 Uhr?</text>
</g>
<!-- 1&#45;&gt;2 -->
<g id="edge3" class="edge">
<title>1-&gt;2</title>
<path fill="none" stroke="#88a0d6" d="M468.78,-217.18C495.41,-201.25 535.53,-177.26 564.89,-159.7"/>
<polygon fill="#88a0d6" stroke="#88a0d6" points="566.31,-162.93 573.1,-154.79 562.72,-156.92 566.31,-162.93"/>
<text text-anchor="start" x="525.56" y="-186.76" font-family="Roboto, sans-serif" font-weight="bold" font-size="14.00">JA</text>
</g>
<!-- A02 -->
<g id="node5" class="node">
<title>A02</title>
<path fill="#c4cac1" stroke="black" stroke-width="0" d="M623.71,-55.28C623.71,-55.28 413.41,-55.28 413.41,-55.28 407.41,-55.28 401.41,-49.28 401.41,-43.28 401.41,-43.28 401.41,-12 401.41,-12 401.41,-6 407.41,0 413.41,0 413.41,0 623.71,0 623.71,0 629.71,0 635.71,-6 635.71,-12 635.71,-12 635.71,-43.28 635.71,-43.28 635.71,-49.28 629.71,-55.28 623.71,-55.28"/>
<text text-anchor="start" x="415.81" y="-34.34" font-family="Roboto, sans-serif" font-weight="bold" font-size="14.00">A02</text>
<text text-anchor="start" x="415.81" y="-22.24" font-family="Roboto, sans-serif" text-decoration="underline" font-size="12.00">Hinweis:</text>
<text text-anchor="start" x="415.81" y="-10.24" font-family="Roboto, sans-serif" font-size="12.00">Gew&#228;hlter Zeitpunkt nicht zul&#228;ssig</text>
</g>
<!-- 2&#45;&gt;A02 -->
<g id="edge4" class="edge">
<title>2-&gt;A02</title>
<path fill="none" stroke="#88a0d6" d="M589.44,-118.52C577.99,-104.01 561,-82.45 546.52,-64.09"/>
<polygon fill="#88a0d6" stroke="#88a0d6" points="549.31,-61.98 540.37,-56.3 543.82,-66.32 549.31,-61.98"/>
<text text-anchor="start" x="565.56" y="-78.23" font-family="Roboto, sans-serif" font-weight="bold" font-size="14.00">NEIN</text>
</g>
<!-- Ende -->
<g id="node6" class="node">
<title>Ende</title>
<path fill="#8ba2d7" stroke="black" stroke-width="0" d="M705.59,-45.64C705.59,-45.64 665.54,-45.64 665.54,-45.64 659.54,-45.64 653.54,-39.64 653.54,-33.64 653.54,-33.64 653.54,-21.64 653.54,-21.64 653.54,-15.64 659.54,-9.64 665.54,-9.64 665.54,-9.64 705.59,-9.64 705.59,-9.64 711.59,-9.64 717.59,-15.64 717.59,-21.64 717.59,-21.64 717.59,-33.64 717.59,-33.64 717.59,-39.64 711.59,-45.64 705.59,-45.64"/>
<text text-anchor="middle" x="685.56" y="-22.96" font-family="Roboto, sans-serif" font-size="14.00">Ende</text>
</g>
<!-- 2&#45;&gt;Ende -->
<g id="edge5" class="edge">
<title>2-&gt;Ende</title>
<path fill="none" stroke="#88a0d6" d="M615.53,-118.52C628.91,-101.35 649.97,-74.33 665.5,-54.39"/>
<polygon fill="#88a0d6" stroke="#88a0d6" points="668.1,-56.75 671.48,-46.71 662.57,-52.45 668.1,-56.75"/>
<text text-anchor="start" x="648.56" y="-78.23" font-family="Roboto, sans-serif" font-weight="bold" font-size="14.00">JA</text>
</g>
</g>
</svg>
  </g>
</svg>
  </g>
</svg>
