<svg xmlns="http://www.w3.org/2000/svg" xmlns:xlink="http://www.w3.org/1999/xlink" contentStyleType="text/css" data-diagram-type="ACTIVITY" height="723px" preserveAspectRatio="none" style="width:1328px;height:723px;background:#FFFFFF;" version="1.1" viewBox="0 0 1328 723" width="1328px" zoomAndPan="magnify"><title>7.41 AD: &#220;bermittlung Pr&#252;fmitteilung f&#252;r die Bilanzkreissummenzeitreihe vom BKV an BIKO und &#220;NB</title><defs/><g><text fill="#888888" font-family="DejaVu Serif Condensed" font-size="10" font-weight="bold" lengthAdjust="spacing" textLength="42.4023" x="1273.459" y="19.2822">FV2210</text><text fill="#888888" font-family="DejaVu Serif Condensed" font-size="10" lengthAdjust="spacing" textLength="58.1152" x="1257.7461" y="30.9229">2022-12-12</text><text fill="#000000" font-family="DejaVu Serif Condensed" font-size="14" font-weight="bold" lengthAdjust="spacing" textLength="799.5654" x="263.1479" y="57.2764">7.41 AD: &#220;bermittlung Pr&#252;fmitteilung f&#252;r die Bilanzkreissummenzeitreihe vom BKV an BIKO und &#220;NB</text><text fill="#000000" font-family="DejaVu Serif Condensed" font-size="14" font-weight="bold" lengthAdjust="spacing" textLength="4.874" x="660.4937" y="73.5732">&#160;</text><text fill="#000000" font-family="DejaVu Serif Condensed" font-size="14" font-weight="bold" lengthAdjust="spacing" textLength="289.3652" x="518.248" y="89.8701">7.41.2 E_0025_Pr&#252;fmitteilung pr&#252;fen</text><text fill="#000000" font-family="DejaVu Serif Condensed" font-size="14" font-weight="bold" lengthAdjust="spacing" textLength="4.874" x="660.4937" y="106.167">&#160;</text><text fill="#000000" font-family="DejaVu Serif Condensed" font-size="14" font-weight="bold" lengthAdjust="spacing" textLength="4.874" x="660.4937" y="122.4639">&#160;</text><text fill="#000000" font-family="DejaVu Serif Condensed" font-size="14" font-weight="bold" lengthAdjust="spacing" textLength="4.874" x="660.4937" y="138.7607">&#160;</text><path d="M712.1611,161.3906 L712.1611,169.375 L692.1611,173.375 L712.1611,177.375 L712.1611,185.3594 A0,0 0 0 0 712.1611,185.3594 L875.1631,185.3594 A0,0 0 0 0 875.1631,185.3594 L875.1631,171.3906 L865.1631,161.3906 L712.1611,161.3906 A0,0 0 0 0 712.1611,161.3906" fill="#F3F1F6" style="stroke:#F3F1F6;stroke-width:0.5;"/><path d="M865.1631,161.3906 L865.1631,171.3906 L875.1631,171.3906 L865.1631,161.3906" fill="#F3F1F6" style="stroke:#F3F1F6;stroke-width:0.5;"/><text fill="#000000" font-family="DejaVu Serif Condensed" font-size="12" font-style="italic" font-weight="bold" lengthAdjust="spacing" textLength="142.002" x="718.1611" y="177.5293">Pr&#252;fende Rolle: BIKO</text><rect fill="#7A8DA1" height="38.625" rx="12.5" ry="12.5" style="stroke:none;stroke-width:0.5;" width="83.4609" x="608.7002" y="154.0625"/><text fill="#000000" font-family="DejaVu Serif Condensed" font-size="16" font-weight="bold" lengthAdjust="spacing" textLength="63.4609" x="618.7002" y="178.9141">E_0025</text><path d="M466.4736,271.3281 L466.4736,295.2969 A0,0 0 0 0 466.4736,295.2969 L604.7783,295.2969 A0,0 0 0 0 604.7783,295.2969 L604.7783,289.3281 L624.7783,283.3125 L604.7783,281.3281 L604.7783,281.3281 L594.7783,271.3281 L466.4736,271.3281 A0,0 0 0 0 466.4736,271.3281" fill="#F3F1F6" style="stroke:#F3F1F6;stroke-width:0.5;"/><path d="M594.7783,271.3281 L594.7783,281.3281 L604.7783,281.3281 L594.7783,271.3281" fill="#F3F1F6" style="stroke:#F3F1F6;stroke-width:0.5;"/><text fill="#000000" font-family="DejaVu Serif Condensed" font-size="12" lengthAdjust="spacing" textLength="117.3047" x="472.4736" y="287.4668">Frist&#252;berschreitung</text><rect fill="#7A8DA1" height="38.625" rx="12.5" ry="12.5" style="stroke:none;stroke-width:0.5;" width="51.3047" x="624.7783" y="264"/><text fill="#000000" font-family="DejaVu Serif Condensed" font-size="16" lengthAdjust="spacing" textLength="31.3047" x="634.7783" y="288.8516">A01</text><polygon fill="#7AAB8A" points="267.0254,212.6875,1033.8359,212.6875,1045.8359,224.6875,1033.8359,236.6875,267.0254,236.6875,255.0254,224.6875,267.0254,212.6875" style="stroke:#7AAB8A;stroke-width:0.5;"/><text fill="#000000" font-family="DejaVu Serif Condensed" font-size="16" lengthAdjust="spacing" textLength="14.25" x="654.4307" y="251.5391">ja</text><text fill="#000000" font-family="DejaVu Serif Condensed" font-size="18" font-weight="bold" lengthAdjust="spacing" textLength="19.7227" x="267.0254" y="230.9189">1:</text><text fill="#000000" font-family="DejaVu Serif Condensed" font-size="18" lengthAdjust="spacing" textLength="735.0996" x="298.7363" y="230.9189">Erfolgt der Eingang der Pr&#252;fmitteilung nach Ablauf der Clearingfrist f&#252;r die KBKA?</text><text fill="#000000" font-family="DejaVu Serif Condensed" font-size="16" lengthAdjust="spacing" textLength="34.5703" x="1045.8359" y="220.9141">nein</text><polygon fill="#7AAB8A" points="366.8472,344.625,934.0142,344.625,946.0142,356.625,934.0142,368.625,366.8472,368.625,354.8472,356.625,366.8472,344.625" style="stroke:#7AAB8A;stroke-width:0.5;"/><text fill="#000000" font-family="DejaVu Serif Condensed" font-size="18" font-weight="bold" lengthAdjust="spacing" textLength="19.7227" x="366.8472" y="362.8564">2:</text><text fill="#000000" font-family="DejaVu Serif Condensed" font-size="18" lengthAdjust="spacing" textLength="535.4561" x="398.5581" y="362.8564">Befindet sich der MaBiS-ZP auf der Aggregationsebene RZ?</text><text fill="#000000" font-family="DejaVu Serif Condensed" font-size="16" lengthAdjust="spacing" textLength="14.25" x="340.5972" y="352.8516">ja</text><text fill="#000000" font-family="DejaVu Serif Condensed" font-size="16" lengthAdjust="spacing" textLength="34.5703" x="946.0142" y="352.8516">nein</text><path d="M71.1079,476.125 L71.1079,500.0938 A0,0 0 0 0 71.1079,500.0938 L279.063,500.0938 A0,0 0 0 0 279.063,500.0938 L279.063,494.125 L299.063,488.1094 L279.063,486.125 L279.063,486.125 L269.063,476.125 L71.1079,476.125 A0,0 0 0 0 71.1079,476.125" fill="#F3F1F6" style="stroke:#F3F1F6;stroke-width:0.5;"/><path d="M269.063,476.125 L269.063,486.125 L279.063,486.125 L269.063,476.125" fill="#F3F1F6" style="stroke:#F3F1F6;stroke-width:0.5;"/><text fill="#000000" font-family="DejaVu Serif Condensed" font-size="12" lengthAdjust="spacing" textLength="186.9551" x="77.1079" y="492.2637">Falsche Aggregationsebene RZ</text><rect fill="#7A8DA1" height="38.625" rx="12.5" ry="12.5" style="stroke:none;stroke-width:0.5;" width="51.3047" x="299.063" y="468.7969"/><text fill="#000000" font-family="DejaVu Serif Condensed" font-size="16" lengthAdjust="spacing" textLength="31.3047" x="309.063" y="493.6484">A03</text><polygon fill="#7AAB8A" points="32,378.625,617.4307,378.625,629.4307,410.0547,617.4307,441.4844,32,441.4844,20,410.0547,32,378.625" style="stroke:#7AAB8A;stroke-width:0.5;"/><text fill="#000000" font-family="DejaVu Serif Condensed" font-size="16" lengthAdjust="spacing" textLength="14.25" x="328.7153" y="456.3359">ja</text><text fill="#000000" font-family="DejaVu Serif Condensed" font-size="18" font-weight="bold" lengthAdjust="spacing" textLength="19.7227" x="32" y="395.333">5:</text><text fill="#000000" font-family="DejaVu Serif Condensed" font-size="18" lengthAdjust="spacing" textLength="553.7197" x="63.7109" y="395.333">Hat der BKV dem BIKO f&#252;r diesen Bilanzierungsmonat bereits</text><text fill="#000000" font-family="DejaVu Serif Condensed" font-size="18" lengthAdjust="spacing" textLength="522.334" x="32" y="416.2861">mitgeteilt, dass die weiteren Pr&#252;fungen auf Ebene des BG</text><text fill="#000000" font-family="DejaVu Serif Condensed" font-size="18" lengthAdjust="spacing" textLength="183.6914" x="32" y="437.2393">stattfinden m&#252;ssen?</text><text fill="#000000" font-family="DejaVu Serif Condensed" font-size="16" lengthAdjust="spacing" textLength="34.5703" x="629.4307" y="406.2813">nein</text><path d="M721.5659,545.3438 L721.5659,569.3125 A0,0 0 0 0 721.5659,569.3125 L930.4937,569.3125 A0,0 0 0 0 930.4937,569.3125 L930.4937,563.3438 L950.4937,557.3281 L930.4937,555.3438 L930.4937,555.3438 L920.4937,545.3438 L721.5659,545.3438 A0,0 0 0 0 721.5659,545.3438" fill="#F3F1F6" style="stroke:#F3F1F6;stroke-width:0.5;"/><path d="M920.4937,545.3438 L920.4937,555.3438 L930.4937,555.3438 L920.4937,545.3438" fill="#F3F1F6" style="stroke:#F3F1F6;stroke-width:0.5;"/><text fill="#000000" font-family="DejaVu Serif Condensed" font-size="12" lengthAdjust="spacing" textLength="187.9277" x="727.5659" y="561.4824">Falsche Aggregationsebene BG</text><rect fill="#7A8DA1" height="38.625" rx="12.5" ry="12.5" style="stroke:none;stroke-width:0.5;" width="51.3047" x="950.4937" y="538.0156"/><text fill="#000000" font-family="DejaVu Serif Condensed" font-size="16" lengthAdjust="spacing" textLength="31.3047" x="960.4937" y="562.8672">A02</text><polygon fill="#7AAB8A" points="683.4307,447.8438,1268.8613,447.8438,1280.8613,479.2734,1268.8613,510.7031,683.4307,510.7031,671.4307,479.2734,683.4307,447.8438" style="stroke:#7AAB8A;stroke-width:0.5;"/><text fill="#000000" font-family="DejaVu Serif Condensed" font-size="16" lengthAdjust="spacing" textLength="34.5703" x="980.146" y="525.5547">nein</text><text fill="#000000" font-family="DejaVu Serif Condensed" font-size="18" font-weight="bold" lengthAdjust="spacing" textLength="19.7227" x="683.4307" y="464.5518">4:</text><text fill="#000000" font-family="DejaVu Serif Condensed" font-size="18" lengthAdjust="spacing" textLength="553.7197" x="715.1416" y="464.5518">Hat der BKV dem BIKO f&#252;r diesen Bilanzierungsmonat bereits</text><text fill="#000000" font-family="DejaVu Serif Condensed" font-size="18" lengthAdjust="spacing" textLength="522.334" x="683.4307" y="485.5049">mitgeteilt, dass die weiteren Pr&#252;fungen auf Ebene des BG</text><text fill="#000000" font-family="DejaVu Serif Condensed" font-size="18" lengthAdjust="spacing" textLength="183.6914" x="683.4307" y="506.458">stattfinden m&#252;ssen?</text><text fill="#000000" font-family="DejaVu Serif Condensed" font-size="16" lengthAdjust="spacing" textLength="14.25" x="1280.8613" y="475.5">ja</text><polygon fill="#7AAB8A" points="690.5586,378.625,1261.7334,378.625,1273.7334,399.5781,1261.7334,420.5313,690.5586,420.5313,678.5586,399.5781,690.5586,378.625" style="stroke:#7AAB8A;stroke-width:0.5;"/><text fill="#000000" font-family="DejaVu Serif Condensed" font-size="16" lengthAdjust="spacing" textLength="34.5703" x="980.146" y="435.3828">nein</text><text fill="#000000" font-family="DejaVu Serif Condensed" font-size="18" font-weight="bold" lengthAdjust="spacing" textLength="19.7227" x="690.5586" y="395.333">3:</text><text fill="#000000" font-family="DejaVu Serif Condensed" font-size="18" lengthAdjust="spacing" textLength="539.4639" x="722.2695" y="395.333">Hat der BKV f&#252;r den BK dieses MaBiS-ZP in diesem Bilanzie-</text><text fill="#000000" font-family="DejaVu Serif Condensed" font-size="18" lengthAdjust="spacing" textLength="459.3779" x="690.5586" y="416.2861">rungsmonat die Aggregationsebene RZ abbestellt?</text><text fill="#000000" font-family="DejaVu Serif Condensed" font-size="16" lengthAdjust="spacing" textLength="14.25" x="1273.7334" y="395.8047">ja</text><polygon fill="#7AAB8A" points="976.146,618.6406,988.146,630.6406,976.146,642.6406,964.146,630.6406,976.146,618.6406" style="stroke:#7AAB8A;stroke-width:0.5;"/><polygon fill="#7AAB8A" points="650.4307,648.6406,662.4307,660.6406,650.4307,672.6406,638.4307,660.6406,650.4307,648.6406" style="stroke:#7AAB8A;stroke-width:0.5;"/><ellipse cx="650.4307" cy="702.6406" fill="none" rx="10" ry="10" style="stroke:#669580;stroke-width:1.5;"/><line style="stroke:#669580;stroke-width:2.5;" x1="644.2435" x2="656.6178" y1="696.4534" y2="708.8278"/><line style="stroke:#669580;stroke-width:2.5;" x1="656.6178" x2="644.2435" y1="696.4534" y2="708.8278"/><line style="stroke:#7AAB8A;stroke-width:1;" x1="650.4307" x2="650.4307" y1="236.6875" y2="264"/><polygon fill="#7AAB8A" points="646.4307,254,650.4307,264,654.4307,254,650.4307,258" style="stroke:#7AAB8A;stroke-width:1;"/><line style="stroke:#7AAB8A;stroke-width:1;" x1="1045.8359" x2="1057.8359" y1="224.6875" y2="224.6875"/><polygon fill="#7AAB8A" points="1053.8359,270.3125,1057.8359,280.3125,1061.8359,270.3125,1057.8359,274.3125" style="stroke:#7AAB8A;stroke-width:1;"/><line style="stroke:#7AAB8A;stroke-width:1;" x1="1057.8359" x2="1057.8359" y1="224.6875" y2="324.625"/><line style="stroke:#7AAB8A;stroke-width:1;" x1="1057.8359" x2="650.4307" y1="324.625" y2="324.625"/><line style="stroke:#7AAB8A;stroke-width:1;" x1="650.4307" x2="650.4307" y1="324.625" y2="344.625"/><polygon fill="#7AAB8A" points="646.4307,334.625,650.4307,344.625,654.4307,334.625,650.4307,338.625" style="stroke:#7AAB8A;stroke-width:1;"/><line style="stroke:#7AAB8A;stroke-width:1;" x1="650.4307" x2="650.4307" y1="192.6875" y2="212.6875"/><polygon fill="#7AAB8A" points="646.4307,202.6875,650.4307,212.6875,654.4307,202.6875,650.4307,206.6875" style="stroke:#7AAB8A;stroke-width:1;"/><line style="stroke:#7AAB8A;stroke-width:1;" x1="324.7153" x2="324.7153" y1="441.4844" y2="468.7969"/><polygon fill="#7AAB8A" points="320.7153,458.7969,324.7153,468.7969,328.7153,458.7969,324.7153,462.7969" style="stroke:#7AAB8A;stroke-width:1;"/><line style="stroke:#7AAB8A;stroke-width:1;" x1="629.4307" x2="641.4307" y1="410.0547" y2="410.0547"/><polygon fill="#7AAB8A" points="637.4307,465.3945,641.4307,475.3945,645.4307,465.3945,641.4307,469.3945" style="stroke:#7AAB8A;stroke-width:1;"/><line style="stroke:#7AAB8A;stroke-width:1;" x1="641.4307" x2="641.4307" y1="410.0547" y2="540.7344"/><line style="stroke:#7AAB8A;stroke-width:1;" x1="641.4307" x2="324.7153" y1="540.7344" y2="540.7344"/><line style="stroke:#7AAB8A;stroke-width:1;" x1="324.7153" x2="324.7153" y1="540.7344" y2="660.6406"/><line style="stroke:#7AAB8A;stroke-width:1;" x1="324.7153" x2="638.4307" y1="660.6406" y2="660.6406"/><polygon fill="#7AAB8A" points="628.4307,656.6406,638.4307,660.6406,628.4307,664.6406,632.4307,660.6406" style="stroke:#7AAB8A;stroke-width:1;"/><line style="stroke:#7AAB8A;stroke-width:1;" x1="976.146" x2="976.146" y1="510.7031" y2="538.0156"/><polygon fill="#7AAB8A" points="972.146,528.0156,976.146,538.0156,980.146,528.0156,976.146,532.0156" style="stroke:#7AAB8A;stroke-width:1;"/><line style="stroke:#7AAB8A;stroke-width:1;" x1="1280.8613" x2="1292.8613" y1="479.2734" y2="479.2734"/><polygon fill="#7AAB8A" points="1288.8613,534.6133,1292.8613,544.6133,1296.8613,534.6133,1292.8613,538.6133" style="stroke:#7AAB8A;stroke-width:1;"/><line style="stroke:#7AAB8A;stroke-width:1;" x1="1292.8613" x2="1292.8613" y1="479.2734" y2="598.6406"/><line style="stroke:#7AAB8A;stroke-width:1;" x1="1292.8613" x2="976.146" y1="598.6406" y2="598.6406"/><line style="stroke:#7AAB8A;stroke-width:1;" x1="976.146" x2="976.146" y1="598.6406" y2="618.6406"/><polygon fill="#7AAB8A" points="972.146,608.6406,976.146,618.6406,980.146,608.6406,976.146,612.6406" style="stroke:#7AAB8A;stroke-width:1;"/><line style="stroke:#7AAB8A;stroke-width:1;" x1="976.146" x2="976.146" y1="420.5313" y2="447.8438"/><polygon fill="#7AAB8A" points="972.146,437.8438,976.146,447.8438,980.146,437.8438,976.146,441.8438" style="stroke:#7AAB8A;stroke-width:1;"/><line style="stroke:#7AAB8A;stroke-width:1;" x1="1273.7334" x2="1302.8613" y1="399.5781" y2="399.5781"/><polygon fill="#7AAB8A" points="1298.8613,514.4219,1302.8613,524.4219,1306.8613,514.4219,1302.8613,518.4219" style="stroke:#7AAB8A;stroke-width:1;"/><line style="stroke:#7AAB8A;stroke-width:1;" x1="1302.8613" x2="1302.8613" y1="399.5781" y2="630.6406"/><line style="stroke:#7AAB8A;stroke-width:1;" x1="1302.8613" x2="988.146" y1="630.6406" y2="630.6406"/><polygon fill="#7AAB8A" points="998.146,626.6406,988.146,630.6406,998.146,634.6406,994.146,630.6406" style="stroke:#7AAB8A;stroke-width:1;"/><line style="stroke:#7AAB8A;stroke-width:1;" x1="354.8472" x2="324.7153" y1="356.625" y2="356.625"/><line style="stroke:#7AAB8A;stroke-width:1;" x1="324.7153" x2="324.7153" y1="356.625" y2="378.625"/><polygon fill="#7AAB8A" points="320.7153,368.625,324.7153,378.625,328.7153,368.625,324.7153,372.625" style="stroke:#7AAB8A;stroke-width:1;"/><line style="stroke:#7AAB8A;stroke-width:1;" x1="946.0142" x2="976.146" y1="356.625" y2="356.625"/><line style="stroke:#7AAB8A;stroke-width:1;" x1="976.146" x2="976.146" y1="356.625" y2="378.625"/><polygon fill="#7AAB8A" points="972.146,368.625,976.146,378.625,980.146,368.625,976.146,372.625" style="stroke:#7AAB8A;stroke-width:1;"/><line style="stroke:#7AAB8A;stroke-width:1;" x1="976.146" x2="976.146" y1="642.6406" y2="660.6406"/><line style="stroke:#7AAB8A;stroke-width:1;" x1="976.146" x2="662.4307" y1="660.6406" y2="660.6406"/><polygon fill="#7AAB8A" points="672.4307,656.6406,662.4307,660.6406,672.4307,664.6406,668.4307,660.6406" style="stroke:#7AAB8A;stroke-width:1;"/><line style="stroke:#7AAB8A;stroke-width:1;" x1="650.4307" x2="650.4307" y1="672.6406" y2="692.6406"/><polygon fill="#7AAB8A" points="646.4307,682.6406,650.4307,692.6406,654.4307,682.6406,650.4307,686.6406" style="stroke:#7AAB8A;stroke-width:1;"/><!--SRC=[rPJTJjim5CVl_HH7sWr8WpLXGDSYfWRADbLZQ9Muu0OvpKbYwZZ8Ta7ZMVOelUkBxTX9sv1cx7fHLTa-N__pEqxCNAX7hda1qvmdvRDG6QHS6cHcOxakBKQbJb1VbBBKy2uzIeFqfEt1P_DCbmkLlELrLIex5Iy8GTYmZ6PMF0dxgrb5bGgxNDfbJda_uK67vxPKKyH8w_9v4yhZFcyR_n9NPxqKl2XLqY6ZdQiLq0JuB-UjX7x3AS6KBwHrncjU85pY0xzTm1IrIE62mb0PJ3goZZSgJqu-7VTxZEN8IGqxYy-lRiCmwB6m5uO7WVinL4bjPbPOYUpqy6C0eyi1h7x7g0jXhLpGDRdHgsNgTYZyFbqjDIG28HAIgvUvHc7CeYXGlQ2mjCiHdie2eiajS0NHjyaF87wKzJfYliXX2EFxNYyylc_dVdHxL8mUaWULhW79h_pFFiJdGwReVe4MMMvTOsVY_AQAIX1-bbBYmDVq2PmhOuHjZpo30RW4CDPfAJDBd3MCwKNWLDYjss8Kd-KmYYLVfDv-8P5hya-rC7QBOH9DHf_tmUQeOE-1xpEWPp3g1KE_ycebfjRlt7FbubTBOcncEV6oLCmRIR4NxDPp8UMG8RsXiATGg7tNZqZNlOHrBn6cWXgtO0I9TIg_yqXC3-vkO2rxb6KQCsv5ITScHaMKxdRqrccFwxHVUON7pJ31eXhYkcD3WTNi1MhIRkWgap_rGxqOHWGpT0pjUqYuCHxICvd8hYh854HB9t3i1ILe8Fh2ZENM-duK5AkbeK8xGckuHyFDRXUmXqmVjndTnAxkDuvDu5letj80NtiI_FPfJUseWre5ov6QLCpCTZ92LKV51kC1Qu1qlBfa0uzZD1Qbj3jOsieQwZx-5pFjQg2UTJXyTT8zxxTdJaAQZksvlvxzTjwDoQ__sHy0]--></g></svg>