<?xml version="1.0" encoding="UTF-8" standalone="no"?>
<!DOCTYPE svg PUBLIC "-//W3C//DTD SVG 1.1//EN"
 "http://www.w3.org/Graphics/SVG/1.1/DTD/svg11.dtd">
<!-- Generated by graphviz version 3.0.0 (20221109.1736)
 -->
<!-- Title: D Pages: 1 -->
<svg width="637pt" height="339pt"
 viewBox="0.00 0.00 637.00 339.00" xmlns="http://www.w3.org/2000/svg" xmlns:xlink="http://www.w3.org/1999/xlink">
<g id="graph0" class="graph" transform="scale(1 1) rotate(0) translate(4 335)">
<title>D</title>
<polygon fill="white" stroke="transparent" points="-4,4 -4,-335 633,-335 633,4 -4,4"/>
<!-- Start -->
<g id="node1" class="node">
<title>Start</title>
<polygon fill="#7a8da1" stroke="black" points="284,-331 113,-331 113,-287 284,-287 284,-331"/>
<text text-anchor="start" x="170" y="-311.8" font-family="Times,serif" font-weight="bold" font-size="14.00">E_0003</text>
<text text-anchor="start" x="127" y="-299.4" font-family="Times,serif" font-weight="bold" text-decoration="underline" font-size="12.00">Prüfende Rolle:</text>
<text text-anchor="start" x="233" y="-299.4" font-family="Times,serif" font-weight="bold" font-size="12.00"> ÜNB</text>
</g>
<!-- 1 -->
<g id="node2" class="node">
<title>1</title>
<path fill="#7aab8a" stroke="black" d="M385,-250C385,-250 12,-250 12,-250 6,-250 0,-244 0,-238 0,-238 0,-226 0,-226 0,-220 6,-214 12,-214 12,-214 385,-214 385,-214 391,-214 397,-220 397,-226 397,-226 397,-238 397,-238 397,-244 391,-250 385,-250"/>
<text text-anchor="start" x="14" y="-229.3" font-family="Times,serif" font-weight="bold" font-size="14.00">1: </text>
<text text-anchor="start" x="34" y="-229.3" font-family="Times,serif" font-size="14.00">Erfolgt der Eingang der Bestellung fristgerecht?</text>
</g>
<!-- Start&#45;&gt;1 -->
<g id="edge1" class="edge">
<title>Start&#45;&gt;1</title>
<path fill="none" stroke="black" d="M198.5,-286.71C198.5,-278.46 198.5,-268.91 198.5,-260.17"/>
<polygon fill="black" stroke="black" points="202,-260.06 198.5,-250.06 195,-260.06 202,-260.06"/>
</g>
<!-- A01 -->
<g id="node3" class="node">
<title>A01</title>
<polygon fill="#cca9ab" stroke="black" points="182,-163 33,-163 33,-107 182,-107 182,-163"/>
<text text-anchor="start" x="92" y="-143.8" font-family="Times,serif" font-weight="bold" font-size="14.00">A01</text>
<text text-anchor="start" x="47" y="-131.4" font-family="Times,serif" text-decoration="underline" font-size="12.00">Hinweis:</text>
<text text-anchor="start" x="47" y="-119.4" font-family="Times,serif" font-size="12.00">Fristüberschreitung</text>
</g>
<!-- 1&#45;&gt;A01 -->
<g id="edge2" class="edge">
<title>1&#45;&gt;A01</title>
<path fill="none" stroke="black" d="M181.81,-213.58C170.27,-201.53 154.54,-185.11 140.52,-170.47"/>
<polygon fill="black" stroke="black" points="142.82,-167.82 133.38,-163.02 137.77,-172.66 142.82,-167.82"/>
<text text-anchor="middle" x="181.5" y="-184.8" font-family="Times,serif" font-size="14.00">Nein</text>
</g>
<!-- 2 -->
<g id="node4" class="node">
<title>2</title>
<path fill="#7aab8a" stroke="black" d="M617,-153C617,-153 212,-153 212,-153 206,-153 200,-147 200,-141 200,-141 200,-129 200,-129 200,-123 206,-117 212,-117 212,-117 617,-117 617,-117 623,-117 629,-123 629,-129 629,-129 629,-141 629,-141 629,-147 623,-153 617,-153"/>
<text text-anchor="start" x="214" y="-132.3" font-family="Times,serif" font-weight="bold" font-size="14.00">2: </text>
<text text-anchor="start" x="234" y="-132.3" font-family="Times,serif" font-size="14.00">Erfolgt die Bestellung zum Monatsersten 00:00 Uhr?</text>
</g>
<!-- 1&#45;&gt;2 -->
<g id="edge3" class="edge">
<title>1&#45;&gt;2</title>
<path fill="none" stroke="black" d="M237.62,-213.8C273.7,-197.92 327.4,-174.31 366.16,-157.26"/>
<polygon fill="black" stroke="black" points="367.93,-160.31 375.68,-153.08 365.11,-153.9 367.93,-160.31"/>
<text text-anchor="middle" x="313.5" y="-184.8" font-family="Times,serif" font-size="14.00">Ja</text>
</g>
<!-- A02 -->
<g id="node5" class="node">
<title>A02</title>
<polygon fill="#cca9ab" stroke="black" points="449,-56 210,-56 210,0 449,0 449,-56"/>
<text text-anchor="start" x="314" y="-36.8" font-family="Times,serif" font-weight="bold" font-size="14.00">A02</text>
<text text-anchor="start" x="224" y="-24.4" font-family="Times,serif" text-decoration="underline" font-size="12.00">Hinweis:</text>
<text text-anchor="start" x="224" y="-12.4" font-family="Times,serif" font-size="12.00">Gewählter Zeitpunkt nicht zulässig</text>
</g>
<!-- 2&#45;&gt;A02 -->
<g id="edge4" class="edge">
<title>2&#45;&gt;A02</title>
<path fill="none" stroke="black" d="M400.46,-116.66C388.93,-102.42 372.23,-81.78 357.92,-64.11"/>
<polygon fill="black" stroke="black" points="360.56,-61.8 351.55,-56.23 355.12,-66.21 360.56,-61.8"/>
<text text-anchor="middle" x="393.5" y="-77.8" font-family="Times,serif" font-size="14.00">Nein</text>
</g>
<!-- Ende -->
<g id="node6" class="node">
<title>Ende</title>
<polygon fill="#7a8da1" stroke="black" points="532,-46 467,-46 467,-10 532,-10 532,-46"/>
<text text-anchor="middle" x="499.5" y="-24.3" font-family="Times,serif" font-size="14.00">Ende</text>
</g>
<!-- 2&#45;&gt;Ende -->
<g id="edge5" class="edge">
<title>2&#45;&gt;Ende</title>
<path fill="none" stroke="black" d="M428.54,-116.66C442.4,-99.54 463.74,-73.17 479.4,-53.83"/>
<polygon fill="black" stroke="black" points="482.15,-55.99 485.73,-46.02 476.71,-51.59 482.15,-55.99"/>
<text text-anchor="middle" x="468.5" y="-77.8" font-family="Times,serif" font-size="14.00">Ja</text>
</g>
</g>
</svg>
