<?xml version="1.0" encoding="us-ascii" standalone="no"?><svg xmlns="http://www.w3.org/2000/svg" xmlns:xlink="http://www.w3.org/1999/xlink" contentStyleType="text/css" height="445px" preserveAspectRatio="none" style="width:855px;height:445px;background:#FFFFFF;" version="1.1" viewBox="0 0 855 445" width="855px" zoomAndPan="magnify"><defs/><g><text fill="#888888" font-family="DejaVu Serif Condensed" font-size="10" font-weight="bold" lengthAdjust="spacing" textLength="43" x="799" y="19.2822">FV2210</text><text fill="#888888" font-family="DejaVu Serif Condensed" font-size="10" lengthAdjust="spacing" textLength="56" x="786" y="30.9229">2022-12-12</text><text fill="#000000" font-family="DejaVu Serif Condensed" font-size="14" font-weight="bold" lengthAdjust="spacing" textLength="812" x="20" y="57.2764">7.39 AD: Bestellung der Aggregationsebene der Bilanzkreissummenzeitreihe auf Ebene der Regelzone</text><text fill="#000000" font-family="DejaVu Serif Condensed" font-size="14" font-weight="bold" lengthAdjust="spacing" textLength="5" x="423.5" y="73.5732">&#160;</text><text fill="#000000" font-family="DejaVu Serif Condensed" font-size="14" font-weight="bold" lengthAdjust="spacing" textLength="478" x="187" y="89.8701">7.39.1 E_0003_Bestellung der Aggregationsebene RZ pr&#252;fen</text><text fill="#000000" font-family="DejaVu Serif Condensed" font-size="14" font-weight="bold" lengthAdjust="spacing" textLength="5" x="423.5" y="106.167">&#160;</text><text fill="#000000" font-family="DejaVu Serif Condensed" font-size="14" font-weight="bold" lengthAdjust="spacing" textLength="5" x="423.5" y="122.4639">&#160;</text><text fill="#000000" font-family="DejaVu Serif Condensed" font-size="14" font-weight="bold" lengthAdjust="spacing" textLength="5" x="423.5" y="138.7607">&#160;</text><path d="M478.5,161.3906 L478.5,169.375 L458.5,173.375 L478.5,177.375 L478.5,185.3594 A0,0 0 0 0 478.5,185.3594 L641.5,185.3594 A0,0 0 0 0 641.5,185.3594 L641.5,171.3906 L631.5,161.3906 L478.5,161.3906 A0,0 0 0 0 478.5,161.3906 " fill="#F3F1F6" style="stroke:#F3F1F6;stroke-width:0.5;"/><path d="M631.5,161.3906 L631.5,171.3906 L641.5,171.3906 L631.5,161.3906 " fill="#F3F1F6" style="stroke:#F3F1F6;stroke-width:0.5;"/><text fill="#000000" font-family="DejaVu Serif Condensed" font-size="12" font-style="italic" font-weight="bold" lengthAdjust="spacing" textLength="142" x="484.5" y="177.5293">Pr&#252;fende Rolle: &#220;NB</text><rect fill="#7A8DA1" height="38.625" rx="12.5" ry="12.5" style="stroke:none;stroke-width:0.5;" width="82" x="376.5" y="154.0625"/><text fill="#000000" font-family="DejaVu Serif Condensed" font-size="16" font-weight="bold" lengthAdjust="spacing" textLength="62" x="386.5" y="178.9141">E_0003</text><path d="M228,271.3281 L228,295.2969 A0,0 0 0 0 228,295.2969 L372,295.2969 A0,0 0 0 0 372,295.2969 L372,289.3281 L392,283.3125 L372,281.3281 L372,281.3281 L362,271.3281 L228,271.3281 A0,0 0 0 0 228,271.3281 " fill="#F3F1F6" style="stroke:#F3F1F6;stroke-width:0.5;"/><path d="M362,271.3281 L362,281.3281 L372,281.3281 L362,271.3281 " fill="#F3F1F6" style="stroke:#F3F1F6;stroke-width:0.5;"/><text fill="#000000" font-family="DejaVu Serif Condensed" font-size="12" lengthAdjust="spacing" textLength="123" x="234" y="287.4668">Frist&#252;berschreitung</text><rect fill="#7A8DA1" height="38.625" rx="12.5" ry="12.5" style="stroke:none;stroke-width:0.5;" width="51" x="392" y="264"/><text fill="#000000" font-family="DejaVu Serif Condensed" font-size="16" lengthAdjust="spacing" textLength="31" x="402" y="288.8516">A01</text><polygon fill="#7AAB8A" points="190,212.6875,645,212.6875,657,224.6875,645,236.6875,190,236.6875,178,224.6875,190,212.6875" style="stroke:#7AAB8A;stroke-width:0.5;"/><text fill="#000000" font-family="DejaVu Serif Condensed" font-size="16" lengthAdjust="spacing" textLength="32" x="421.5" y="251.5391">nein</text><text fill="#000000" font-family="DejaVu Serif Condensed" font-size="18" font-weight="bold" lengthAdjust="spacing" textLength="20" x="190" y="230.9189">1:</text><text fill="#000000" font-family="DejaVu Serif Condensed" font-size="18" lengthAdjust="spacing" textLength="423" x="222" y="230.9189">Erfolgt der Eingang der Bestellung fristgerecht?</text><text fill="#000000" font-family="DejaVu Serif Condensed" font-size="16" lengthAdjust="spacing" textLength="12" x="657" y="220.9141">ja</text><path d="M135,403.2656 L135,427.2344 A0,0 0 0 0 135,427.2344 L372,427.2344 A0,0 0 0 0 372,427.2344 L372,421.2656 L392,415.25 L372,413.2656 L372,413.2656 L362,403.2656 L135,403.2656 A0,0 0 0 0 135,403.2656 " fill="#F3F1F6" style="stroke:#F3F1F6;stroke-width:0.5;"/><path d="M362,403.2656 L362,413.2656 L372,413.2656 L362,403.2656 " fill="#F3F1F6" style="stroke:#F3F1F6;stroke-width:0.5;"/><text fill="#000000" font-family="DejaVu Serif Condensed" font-size="12" lengthAdjust="spacing" textLength="216" x="141" y="419.4043">Gew&#228;hlter Zeitpunkt nicht zul&#228;ssig</text><rect fill="#7A8DA1" height="38.625" rx="12.5" ry="12.5" style="stroke:none;stroke-width:0.5;" width="51" x="392" y="395.9375"/><text fill="#000000" font-family="DejaVu Serif Condensed" font-size="16" lengthAdjust="spacing" textLength="31" x="402" y="420.7891">A02</text><polygon fill="#7AAB8A" points="170,344.625,665,344.625,677,356.625,665,368.625,170,368.625,158,356.625,170,344.625" style="stroke:#7AAB8A;stroke-width:0.5;"/><text fill="#000000" font-family="DejaVu Serif Condensed" font-size="16" lengthAdjust="spacing" textLength="32" x="421.5" y="383.4766">nein</text><text fill="#000000" font-family="DejaVu Serif Condensed" font-size="18" font-weight="bold" lengthAdjust="spacing" textLength="20" x="170" y="362.8564">2:</text><text fill="#000000" font-family="DejaVu Serif Condensed" font-size="18" lengthAdjust="spacing" textLength="463" x="202" y="362.8564">Erfolgt die Bestellung zum Monatsersten 00:00 Uhr?</text><text fill="#000000" font-family="DejaVu Serif Condensed" font-size="16" lengthAdjust="spacing" textLength="12" x="677" y="352.8516">ja</text><ellipse cx="709" cy="356.625" fill="none" rx="10" ry="10" style="stroke:#669580;stroke-width:1.5;"/><line style="stroke:#669580;stroke-width:2.5;" x1="702.8128" x2="715.1872" y1="350.4378" y2="362.8122"/><line style="stroke:#669580;stroke-width:2.5;" x1="715.1872" x2="702.8128" y1="350.4378" y2="362.8122"/><line style="stroke:#7AAB8A;stroke-width:1.0;" x1="417.5" x2="417.5" y1="236.6875" y2="264"/><polygon fill="#7AAB8A" points="413.5,254,417.5,264,421.5,254,417.5,258" style="stroke:#7AAB8A;stroke-width:1.0;"/><line style="stroke:#7AAB8A;stroke-width:1.0;" x1="657" x2="669" y1="224.6875" y2="224.6875"/><polygon fill="#7AAB8A" points="665,270.3125,669,280.3125,673,270.3125,669,274.3125" style="stroke:#7AAB8A;stroke-width:1.0;"/><line style="stroke:#7AAB8A;stroke-width:1.0;" x1="669" x2="669" y1="224.6875" y2="324.625"/><line style="stroke:#7AAB8A;stroke-width:1.0;" x1="669" x2="417.5" y1="324.625" y2="324.625"/><line style="stroke:#7AAB8A;stroke-width:1.0;" x1="417.5" x2="417.5" y1="324.625" y2="344.625"/><polygon fill="#7AAB8A" points="413.5,334.625,417.5,344.625,421.5,334.625,417.5,338.625" style="stroke:#7AAB8A;stroke-width:1.0;"/><line style="stroke:#7AAB8A;stroke-width:1.0;" x1="417.5" x2="417.5" y1="192.6875" y2="212.6875"/><polygon fill="#7AAB8A" points="413.5,202.6875,417.5,212.6875,421.5,202.6875,417.5,206.6875" style="stroke:#7AAB8A;stroke-width:1.0;"/><line style="stroke:#7AAB8A;stroke-width:1.0;" x1="417.5" x2="417.5" y1="368.625" y2="395.9375"/><polygon fill="#7AAB8A" points="413.5,385.9375,417.5,395.9375,421.5,385.9375,417.5,389.9375" style="stroke:#7AAB8A;stroke-width:1.0;"/><line style="stroke:#7AAB8A;stroke-width:1.0;" x1="677" x2="699" y1="356.625" y2="356.625"/><polygon fill="#7AAB8A" points="689,352.625,699,356.625,689,360.625,693,356.625" style="stroke:#7AAB8A;stroke-width:1.0;"/><!--SRC=[XPF1Rk8m48RlVegHzWA7xIP1Isb0L51WJukgeksXbygGSUBYsCXs5YtFiiS-Hc-ys4u2IzE8jbOEIUQV__yyYTrQwWstF8T5nXEpbJe5mPL3vawLkV4uDZP1UsEKiV15T4Gekaq5NwrJQmgTVAIQ6UqNSeSGHhNAQENbR-d_r5EqqNXEqeovvBs4XsUKhr5rY96rPdjgvSiURnRVwJkwJYJFZKxEO3Iz6Wtr0NucVaNerKG92bueNnRdF4UOu1E_Bs21LWgueJRK3fCphjCJPRTxzRqNC9OX9nesM0vdzr4K1YmAekXhM5uCTN8iCo-zGdPvqRc2qII6CJgFIXNqZr0PHcbgCULU6ifTeiRgxLWghdThYzAv8izHxr1wUieGU25WUXBUOOfgLtxbAk4YXEbZ40ITnqzZxXvWO_Sl0ZMZHRnm08rfFmUFmRVbiCyq_N1WPPhvSgS3ERmzT2LaOPJ26FP_v-FAe9GoHdDiaJACeJI0gHL6fRwYcDB9u4UY6g2mqlaKBQuoVzq6dw66rXDlCwGp12sDKhSPq8f7GTYlxYegXS9NJ-MQbIRxboLQjyfeL9wSgoAHLM3b_LegrIzPfVZF6JKv9TRPTaKEFutctf6n9x0WY8C0VcNs3Uanw1nnz1xn3zpkdpFbQHWFnBifzDg3bZG4IbNxP-Vanplu1m00]--></g></svg>