<?xml version="1.0" encoding="UTF-8" standalone="no"?>
<!DOCTYPE svg PUBLIC "-//W3C//DTD SVG 1.1//EN"
 "http://www.w3.org/Graphics/SVG/1.1/DTD/svg11.dtd">
<!-- Generated by graphviz version 3.0.0 (20221109.1736)
 -->
<!-- Title: D Pages: 1 -->
<svg width="1013pt" height="493pt"
 viewBox="0.00 0.00 1013.00 493.00" xmlns="http://www.w3.org/2000/svg" xmlns:xlink="http://www.w3.org/1999/xlink">
<g id="graph0" class="graph" transform="scale(1 1) rotate(0) translate(4 489)">
<title>D</title>
<polygon fill="white" stroke="transparent" points="-4,4 -4,-489 1009,-489 1009,4 -4,4"/>
<!-- Start -->
<g id="node1" class="node">
<title>Start</title>
<path fill="none" stroke="black" d="M332,-485C332,-485 302,-485 302,-485 296,-485 290,-479 290,-473 290,-473 290,-461 290,-461 290,-455 296,-449 302,-449 302,-449 332,-449 332,-449 338,-449 344,-455 344,-461 344,-461 344,-473 344,-473 344,-479 338,-485 332,-485"/>
<text text-anchor="middle" x="317" y="-463.3" font-family="Times,serif" font-size="14.00">Start</text>
</g>
<!-- 1 -->
<g id="node2" class="node">
<title>1</title>
<polygon fill="green" stroke="black" points="634,-412 0,-412 0,-376 634,-376 634,-412"/>
<text text-anchor="start" x="8" y="-391.3" font-family="Times,serif" font-weight="bold" font-size="14.00">1: </text>
<text text-anchor="start" x="28" y="-391.3" font-family="Times,serif" font-size="14.00">Erfolgt der Eingang der Prüfmitteilung nach Ablauf der Clearingfrist für die KBKA?</text>
</g>
<!-- Start&#45;&gt;1 -->
<g id="edge1" class="edge">
<title>Start&#45;&gt;1</title>
<path fill="none" stroke="black" d="M317,-448.81C317,-440.79 317,-431.05 317,-422.07"/>
<polygon fill="black" stroke="black" points="320.5,-422.03 317,-412.03 313.5,-422.03 320.5,-422.03"/>
</g>
<!-- A01 -->
<g id="node3" class="node">
<title>A01</title>
<polygon fill="red" stroke="black" points="266,-325 212,-325 212,-289 266,-289 266,-325"/>
<text text-anchor="start" x="225" y="-303.3" font-family="Times,serif" font-size="14.00">A01</text>
</g>
<!-- 1&#45;&gt;A01 -->
<g id="edge2" class="edge">
<title>1&#45;&gt;A01</title>
<path fill="none" stroke="black" d="M301.22,-375.8C289.9,-363.47 274.49,-346.68 261.84,-332.89"/>
<polygon fill="black" stroke="black" points="264.1,-330.18 254.76,-325.18 258.94,-334.91 264.1,-330.18"/>
<text text-anchor="middle" x="290" y="-346.8" font-family="Times,serif" font-size="14.00">Ja</text>
</g>
<!-- 2 -->
<g id="node4" class="node">
<title>2</title>
<polygon fill="green" stroke="black" points="748,-325 284,-325 284,-289 748,-289 748,-325"/>
<text text-anchor="start" x="292" y="-304.3" font-family="Times,serif" font-weight="bold" font-size="14.00">2: </text>
<text text-anchor="start" x="312" y="-304.3" font-family="Times,serif" font-size="14.00">Befindet sich der MaBiS&#45;ZP auf der Aggregationsebene RZ?</text>
</g>
<!-- 1&#45;&gt;2 -->
<g id="edge3" class="edge">
<title>1&#45;&gt;2</title>
<path fill="none" stroke="black" d="M357.27,-375.8C388.93,-362.27 433.18,-343.38 466.91,-328.97"/>
<polygon fill="black" stroke="black" points="468.31,-332.18 476.13,-325.03 465.56,-325.74 468.31,-332.18"/>
<text text-anchor="middle" x="445" y="-346.8" font-family="Times,serif" font-size="14.00">Nein</text>
</g>
<!-- 3 -->
<g id="node5" class="node">
<title>3</title>
<polygon fill="green" stroke="black" points="505.5,-231 32.5,-231 32.5,-195 505.5,-195 505.5,-231"/>
<text text-anchor="start" x="40.5" y="-216.8" font-family="Times,serif" font-weight="bold" font-size="14.00">3: </text>
<text text-anchor="start" x="60.5" y="-216.8" font-family="Times,serif" font-size="14.00">Hat der BKV für den BK dieses MaBiS&#45;ZP in diesem Bilanzie&#45;</text>
<text text-anchor="start" x="40.5" y="-202.8" font-family="Times,serif" font-size="14.00">rungsmonat die Aggregationsebene RZ abbestellt?</text>
</g>
<!-- 2&#45;&gt;3 -->
<g id="edge4" class="edge">
<title>2&#45;&gt;3</title>
<path fill="none" stroke="black" d="M470.12,-288.91C428.92,-273.56 368.33,-251 324.43,-234.65"/>
<polygon fill="black" stroke="black" points="325.65,-231.36 315.05,-231.15 323.2,-237.92 325.65,-231.36"/>
<text text-anchor="middle" x="438" y="-259.8" font-family="Times,serif" font-size="14.00">Nein</text>
</g>
<!-- 5 -->
<g id="node9" class="node">
<title>5</title>
<polygon fill="green" stroke="black" points="1005,-238 523,-238 523,-188 1005,-188 1005,-238"/>
<text text-anchor="start" x="531" y="-223.8" font-family="Times,serif" font-weight="bold" font-size="14.00">5: </text>
<text text-anchor="start" x="551" y="-223.8" font-family="Times,serif" font-size="14.00">Hat der BKV dem BIKO für diesen Bilanzierungsmonat bereits</text>
<text text-anchor="start" x="531" y="-209.8" font-family="Times,serif" font-size="14.00">mitgeteilt, dass die weiteren Prüfungen auf Ebene des BG</text>
<text text-anchor="start" x="531" y="-195.8" font-family="Times,serif" font-size="14.00">stattfinden müssen?</text>
</g>
<!-- 2&#45;&gt;5 -->
<g id="edge5" class="edge">
<title>2&#45;&gt;5</title>
<path fill="none" stroke="black" d="M562.07,-288.91C597.8,-275.65 648.06,-257.01 689.5,-241.64"/>
<polygon fill="black" stroke="black" points="690.86,-244.87 699.01,-238.11 688.42,-238.3 690.86,-244.87"/>
<text text-anchor="middle" x="654" y="-259.8" font-family="Times,serif" font-size="14.00">Ja</text>
</g>
<!-- Ende -->
<g id="node6" class="node">
<title>Ende</title>
<path fill="none" stroke="black" d="M561,-36C561,-36 531,-36 531,-36 525,-36 519,-30 519,-24 519,-24 519,-12 519,-12 519,-6 525,0 531,0 531,0 561,0 561,0 567,0 573,-6 573,-12 573,-12 573,-24 573,-24 573,-30 567,-36 561,-36"/>
<text text-anchor="middle" x="546" y="-14.3" font-family="Times,serif" font-size="14.00">Ende</text>
</g>
<!-- 3&#45;&gt;Ende -->
<g id="edge7" class="edge">
<title>3&#45;&gt;Ende</title>
<path fill="none" stroke="black" d="M416.14,-194.93C454.13,-183.88 491.91,-165.95 519,-137 541.84,-112.59 546.72,-72.95 547.14,-46.43"/>
<polygon fill="black" stroke="black" points="550.64,-46.28 547.1,-36.3 543.64,-46.31 550.64,-46.28"/>
<text text-anchor="middle" x="549" y="-108.3" font-family="Times,serif" font-size="14.00">Ja</text>
</g>
<!-- 4 -->
<g id="node7" class="node">
<title>4</title>
<polygon fill="green" stroke="black" points="510,-137 28,-137 28,-87 510,-87 510,-137"/>
<text text-anchor="start" x="36" y="-122.8" font-family="Times,serif" font-weight="bold" font-size="14.00">4: </text>
<text text-anchor="start" x="56" y="-122.8" font-family="Times,serif" font-size="14.00">Hat der BKV dem BIKO für diesen Bilanzierungsmonat bereits</text>
<text text-anchor="start" x="36" y="-108.8" font-family="Times,serif" font-size="14.00">mitgeteilt, dass die weiteren Prüfungen auf Ebene des BG</text>
<text text-anchor="start" x="36" y="-94.8" font-family="Times,serif" font-size="14.00">stattfinden müssen?</text>
</g>
<!-- 3&#45;&gt;4 -->
<g id="edge6" class="edge">
<title>3&#45;&gt;4</title>
<path fill="none" stroke="black" d="M269,-194.76C269,-181.67 269,-163.25 269,-147.21"/>
<polygon fill="black" stroke="black" points="272.5,-147.09 269,-137.09 265.5,-147.09 272.5,-147.09"/>
<text text-anchor="middle" x="286" y="-158.8" font-family="Times,serif" font-size="14.00">Nein</text>
</g>
<!-- 4&#45;&gt;Ende -->
<g id="edge9" class="edge">
<title>4&#45;&gt;Ende</title>
<path fill="none" stroke="black" d="M341.42,-86.95C395.29,-69.06 466.58,-45.38 509.21,-31.22"/>
<polygon fill="black" stroke="black" points="510.5,-34.48 518.89,-28 508.3,-27.83 510.5,-34.48"/>
<text text-anchor="middle" x="447" y="-57.8" font-family="Times,serif" font-size="14.00">Ja</text>
</g>
<!-- A02 -->
<g id="node8" class="node">
<title>A02</title>
<polygon fill="red" stroke="black" points="296,-36 242,-36 242,0 296,0 296,-36"/>
<text text-anchor="start" x="255" y="-14.3" font-family="Times,serif" font-size="14.00">A02</text>
</g>
<!-- 4&#45;&gt;A02 -->
<g id="edge8" class="edge">
<title>4&#45;&gt;A02</title>
<path fill="none" stroke="black" d="M269,-86.83C269,-74.35 269,-59.08 269,-46.19"/>
<polygon fill="black" stroke="black" points="272.5,-46.04 269,-36.04 265.5,-46.04 272.5,-46.04"/>
<text text-anchor="middle" x="286" y="-57.8" font-family="Times,serif" font-size="14.00">Nein</text>
</g>
<!-- 5&#45;&gt;Ende -->
<g id="edge11" class="edge">
<title>5&#45;&gt;Ende</title>
<path fill="none" stroke="black" d="M736.83,-187.95C694.9,-150.83 614.91,-80.01 573.06,-42.95"/>
<polygon fill="black" stroke="black" points="575.27,-40.24 565.46,-36.23 570.63,-45.48 575.27,-40.24"/>
<text text-anchor="middle" x="693" y="-108.3" font-family="Times,serif" font-size="14.00">Nein</text>
</g>
<!-- A03 -->
<g id="node10" class="node">
<title>A03</title>
<polygon fill="red" stroke="black" points="791,-130 737,-130 737,-94 791,-94 791,-130"/>
<text text-anchor="start" x="750" y="-108.3" font-family="Times,serif" font-size="14.00">A03</text>
</g>
<!-- 5&#45;&gt;A03 -->
<g id="edge10" class="edge">
<title>5&#45;&gt;A03</title>
<path fill="none" stroke="black" d="M764,-187.78C764,-173.41 764,-155.15 764,-140.27"/>
<polygon fill="black" stroke="black" points="767.5,-140.14 764,-130.14 760.5,-140.14 767.5,-140.14"/>
<text text-anchor="middle" x="771" y="-158.8" font-family="Times,serif" font-size="14.00">Ja</text>
</g>
</g>
</svg>
