<?xml version='1.0' encoding='ASCII' standalone='yes'?>
<svg xmlns="http://www.w3.org/2000/svg" xmlns:xlink="http://www.w3.org/1999/xlink" version="1.1" width="1418.6666666666667px" viewBox="0 0 1418.6666666666667 882.6666666666666" height="882.6666666666666px">
  <g>
    <svg version="1.1" width="1418.6666666666667px" viewBox="0 0 1418.6666666666667 882.6666666666666" height="882.6666666666666px">
  <polygon fill="#f3f1f6" points="0,0 1418.6666666666667,0 1418.6666666666667,882.6666666666666 0,882.6666666666666"/><g>
    <g transform="translate(356.52855935049513, 88.26666666666664) scale(1 1) translate(0, 0) scale(3.9919622563586756 3.9919622563586756) "><sodipodi:namedview xmlns:sodipodi="http://sodipodi.sourceforge.net/DTD/sodipodi-0.dtd" xmlns:inkscape="http://www.inkscape.org/namespaces/inkscape" id="namedview7" pagecolor="#ffffff" bordercolor="#999999" borderopacity="1" inkscape:pageshadow="0" inkscape:pageopacity="0" inkscape:pagecheckerboard="0" inkscape:document-units="mm" showgrid="false" fit-margin-top="0" fit-margin-left="0" fit-margin-right="0" fit-margin-bottom="0" inkscape:zoom="0.64052329" inkscape:cx="130.36216" inkscape:cy="412.163" inkscape:window-width="1512" inkscape:window-height="916" inkscape:window-x="3840" inkscape:window-y="136" inkscape:window-maximized="0" inkscape:current-layer="layer1"/>
  <defs id="defs2">
    <clipPath clipPathUnits="userSpaceOnUse" id="clipPath23">
      <path d="M 0,568.156 H 579.236 V 0 H 0 Z" id="path21"/>
    </clipPath>
  </defs>
  <g xmlns:inkscape="http://www.inkscape.org/namespaces/inkscape" inkscape:label="Layer 1" inkscape:groupmode="layer" id="layer1" transform="translate(-16.541937,-55.305267)">
    <g id="g19" clip-path="url(#clipPath23)" transform="matrix(0.35277777,0,0,-0.35277777,0.01017023,243.73675)" style="opacity:0.2">
      <g id="g25" transform="translate(122.444,32.7195)">
        <path d="m 0,0 h -56.104 c -11,0 -19.898,9.123 -19.463,20.115 10.594,267.191 231.277,481.302 501.029,481.302 v -56.02 c 0,-10.98 -8.688,-19.892 -19.658,-20.393 C 180.29,414.697 0,228.005 0,0" style="fill:#6ead83;fill-opacity:0.5;fill-rule:nonzero;stroke:none" id="path27"/>
      </g>
      <g id="g29" transform="translate(273.7828,32.7195)">
        <path d="m 0,0 h -55.926 c -11.228,0 -20.091,9.482 -19.435,20.69 10.744,183.439 163.389,329.388 349.485,329.388 v -56.263 c 0,-10.709 -8.273,-19.617 -18.957,-20.35 C 112.819,263.696 0,144.774 0,0" style="fill:#6ead83;fill-opacity:0.5;fill-rule:nonzero;stroke:none" id="path31"/>
      </g>
      <g id="g33" transform="translate(425.7667,32.7195)">
        <path d="m 0,0 h -55.445 c -11.653,0 -20.604,10.17 -19.334,21.753 10.866,99.032 95.031,176.341 196.919,176.341 v -57.011 c 0,-10.046 -7.283,-18.755 -17.229,-20.165 C 45.688,112.522 0,61.497 0,0" style="fill:#6ead83;fill-opacity:0.5;fill-rule:nonzero;stroke:none" id="path35"/>
      </g>
    </g>
  </g>
</g>
    <svg width="1064pt" height="662pt" viewBox="0.00 0.00 1064.30 662.16">
<!--curl - -request POST - -url https://kroki.io/ via local kroki docker container instance hosted at http://localhost:8125/- -header 'Content-Type: application/json' - -data 'digraph D {
    labelloc="t";
    label=<<B><FONT POINT-SIZE="18">7.41 AD: &#220;bermittlung Pr&#252;fmitteilung f&#252;r die Bilanzkreissummenzeitreihe vom BKV an BIKO und &#220;NB</FONT></B><BR/><BR/><B><FONT POINT-SIZE="16">7.41.2 E_0025_Pr&#252;fmitteilung pr&#252;fen</FONT></B><BR/><BR/><BR/><BR/>>;
    ratio="compress";
    concentrate=true;
    pack=true;
    rankdir=TB;
    packmode="array";
    size="20,20";
    "Start" [margin="0.2,0.12", shape=box, style=filled, fillcolor="#7a8da1", label=<<B>E_0025</B><BR align="center"/><FONT point-size="12"><B><U>Pr&#252;fende Rolle:</U> BIKO</B></FONT><BR align="center"/>>];
    "1" [margin="0.2,0.12", shape=box, style="filled,rounded", fillcolor="#7aab8a", label=<<B>1: </B>Erfolgt der Eingang der Pr&#252;fmitteilung nach Ablauf der Clearingfrist f&#252;r die<BR align="left"/>KBKA?<BR align="left"/>>];
    "A01" [margin="0.17,0.08", shape=box, style=filled, fillcolor="#cfb986", label=<<B>A01</B><BR align="center"/><FONT point-size="12"><U>Hinweis:</U><BR align="left"/>Frist&#252;berschreitung<BR align="left"/></FONT>>];
    "2" [margin="0.2,0.12", shape=box, style="filled,rounded", fillcolor="#7aab8a", label=<<B>2: </B>Befindet sich der MaBiS-ZP auf der Aggregationsebene RZ?<BR align="left"/>>];
    "3" [margin="0.2,0.12", shape=box, style="filled,rounded", fillcolor="#7aab8a", label=<<B>3: </B>Hat der BKV f&#252;r den BK dieses MaBiS-ZP in diesem Bilanzie-<BR align="left"/>rungsmonat die Aggregationsebene RZ abbestellt?<BR align="left"/>>];
    "Ende" [margin="0.2,0.12", shape=box, style=filled, fillcolor="#7a8da1", label="Ende"];
    "4" [margin="0.2,0.12", shape=box, style="filled,rounded", fillcolor="#7aab8a", label=<<B>4: </B>Hat der BKV dem BIKO f&#252;r diesen Bilanzierungsmonat bereits<BR align="left"/>mitgeteilt, dass die weiteren Pr&#252;fungen auf Ebene des BG<BR align="left"/>stattfinden m&#252;ssen?<BR align="left"/>>];
    "A02" [margin="0.17,0.08", shape=box, style=filled, fillcolor="#cfb986", label=<<B>A02</B><BR align="center"/><FONT point-size="12"><U>Hinweis:</U><BR align="left"/>Falsche Aggregationsebene BG<BR align="left"/></FONT>>];
    "5" [margin="0.2,0.12", shape=box, style="filled,rounded", fillcolor="#7aab8a", label=<<B>5: </B>Hat der BKV dem BIKO f&#252;r diesen Bilanzierungsmonat bereits<BR align="left"/>mitgeteilt, dass die weiteren Pr&#252;fungen auf Ebene des BG<BR align="left"/>stattfinden m&#252;ssen?<BR align="left"/>>];
    "A03" [margin="0.17,0.08", shape=box, style=filled, fillcolor="#cfb986", label=<<B>A03</B><BR align="center"/><FONT point-size="12"><U>Hinweis:</U><BR align="left"/>Falsche Aggregationsebene RZ<BR align="left"/></FONT>>];

    "Start" -> "1";
    "1" -> "A01" [label="Ja"];
    "1" -> "2" [label="Nein"];
    "2" -> "3" [label="Nein"];
    "2" -> "5" [label="Ja"];
    "3" -> "4" [label="Nein"];
    "3" -> "Ende" [label="Ja"];
    "4" -> "A02" [label="Nein"];
    "4" -> "Ende" [label="Ja"];
    "5" -> "A03" [label="Ja"];
    "5" -> "Ende" [label="Nein"];

    bgcolor="transparent";
}'--><g id="graph0" class="graph" transform="scale(1 1) rotate(0) translate(4 658.16)">
<title>D</title>
<text text-anchor="start" x="9.53" y="-634.06" font-family="Times,serif" font-weight="bold" font-size="18.00">7.41 AD: &#220;bermittlung Pr&#252;fmitteilung f&#252;r die Bilanzkreissummenzeitreihe vom BKV an BIKO und &#220;NB</text>
<text text-anchor="start" x="360.53" y="-603.96" font-family="Times,serif" font-weight="bold" font-size="16.00">7.41.2 E_0025_Pr&#252;fmitteilung pr&#252;fen</text>
<!-- Start -->
<g id="node1" class="node">
<title>Start</title>
<polygon fill="#7a8da1" stroke="black" points="383.55,-556.16 209.25,-556.16 209.25,-512.88 383.55,-512.88 383.55,-556.16"/>
<text text-anchor="start" x="268.27" y="-535.22" font-family="Times,serif" font-weight="bold" font-size="14.00">E_0025</text>
<text text-anchor="start" x="223.65" y="-523.12" font-family="Times,serif" font-weight="bold" text-decoration="underline" font-size="12.00">Pr&#252;fende Rolle:</text>
<text text-anchor="start" x="328.65" y="-523.12" font-family="Times,serif" font-weight="bold" font-size="12.00"> BIKO</text>
</g>
<!-- 1 -->
<g id="node2" class="node">
<title>1</title>
<path fill="#7aab8a" stroke="black" d="M580.8,-475.88C580.8,-475.88 12,-475.88 12,-475.88 6,-475.88 0,-469.88 0,-463.88 0,-463.88 0,-442.6 0,-442.6 0,-436.6 6,-430.6 12,-430.6 12,-430.6 580.8,-430.6 580.8,-430.6 586.8,-430.6 592.8,-436.6 592.8,-442.6 592.8,-442.6 592.8,-463.88 592.8,-463.88 592.8,-469.88 586.8,-475.88 580.8,-475.88"/>
<text text-anchor="start" x="14.4" y="-454.94" font-family="Times,serif" font-weight="bold" font-size="14.00">1: </text>
<text text-anchor="start" x="33.9" y="-454.94" font-family="Times,serif" font-size="14.00">Erfolgt der Eingang der Pr&#252;fmitteilung nach Ablauf der Clearingfrist f&#252;r die</text>
<text text-anchor="start" x="14.4" y="-440.94" font-family="Times,serif" font-size="14.00">KBKA?</text>
</g>
<!-- Start&#45;&gt;1 -->
<g id="edge1" class="edge">
<title>Start-&gt;1</title>
<path fill="none" stroke="black" d="M296.4,-512.69C296.4,-504.99 296.4,-496.07 296.4,-487.54"/>
<polygon fill="black" stroke="black" points="299.9,-487.83 296.4,-477.83 292.9,-487.83 299.9,-487.83"/>
</g>
<!-- A01 -->
<g id="node3" class="node">
<title>A01</title>
<polygon fill="#cfb986" stroke="black" points="211.64,-377.35 67.16,-377.35 67.16,-327.83 211.64,-327.83 211.64,-377.35"/>
<text text-anchor="start" x="124.4" y="-359.29" font-family="Times,serif" font-weight="bold" font-size="14.00">A01</text>
<text text-anchor="start" x="79.4" y="-347.19" font-family="Times,serif" text-decoration="underline" font-size="12.00">Hinweis:</text>
<text text-anchor="start" x="79.4" y="-335.19" font-family="Times,serif" font-size="12.00">Frist&#252;berschreitung</text>
</g>
<!-- 1&#45;&gt;A01 -->
<g id="edge2" class="edge">
<title>1-&gt;A01</title>
<path fill="none" stroke="black" d="M261.17,-430.1C239.39,-416.42 211.16,-398.68 187.37,-383.73"/>
<polygon fill="black" stroke="black" points="189.43,-380.89 179.1,-378.53 185.7,-386.82 189.43,-380.89"/>
<text text-anchor="middle" x="238.15" y="-399.3" font-family="Times,serif" font-size="14.00">Ja</text>
</g>
<!-- 2 -->
<g id="node4" class="node">
<title>2</title>
<path fill="#7aab8a" stroke="black" d="M693.3,-370.59C693.3,-370.59 241.5,-370.59 241.5,-370.59 235.5,-370.59 229.5,-364.59 229.5,-358.59 229.5,-358.59 229.5,-346.59 229.5,-346.59 229.5,-340.59 235.5,-334.59 241.5,-334.59 241.5,-334.59 693.3,-334.59 693.3,-334.59 699.3,-334.59 705.3,-340.59 705.3,-346.59 705.3,-346.59 705.3,-358.59 705.3,-358.59 705.3,-364.59 699.3,-370.59 693.3,-370.59"/>
<text text-anchor="start" x="243.9" y="-348.91" font-family="Times,serif" font-weight="bold" font-size="14.00">2: </text>
<text text-anchor="start" x="263.4" y="-348.91" font-family="Times,serif" font-size="14.00">Befindet sich der MaBiS-ZP auf der Aggregationsebene RZ?</text>
</g>
<!-- 1&#45;&gt;2 -->
<g id="edge3" class="edge">
<title>1-&gt;2</title>
<path fill="none" stroke="black" d="M334.78,-430.1C362.31,-414.21 399.34,-392.86 427.27,-376.74"/>
<polygon fill="black" stroke="black" points="428.89,-379.85 435.8,-371.82 425.39,-373.79 428.89,-379.85"/>
<text text-anchor="middle" x="408.27" y="-399.3" font-family="Times,serif" font-size="14.00">Nein</text>
</g>
<!-- 3 -->
<g id="node5" class="node">
<title>3</title>
<path fill="#7aab8a" stroke="black" d="M532.8,-267.58C532.8,-267.58 72,-267.58 72,-267.58 66,-267.58 60,-261.58 60,-255.58 60,-255.58 60,-234.3 60,-234.3 60,-228.3 66,-222.3 72,-222.3 72,-222.3 532.8,-222.3 532.8,-222.3 538.8,-222.3 544.8,-228.3 544.8,-234.3 544.8,-234.3 544.8,-255.58 544.8,-255.58 544.8,-261.58 538.8,-267.58 532.8,-267.58"/>
<text text-anchor="start" x="74.4" y="-246.64" font-family="Times,serif" font-weight="bold" font-size="14.00">3: </text>
<text text-anchor="start" x="93.9" y="-246.64" font-family="Times,serif" font-size="14.00">Hat der BKV f&#252;r den BK dieses MaBiS-ZP in diesem Bilanzie-</text>
<text text-anchor="start" x="74.4" y="-232.64" font-family="Times,serif" font-size="14.00">rungsmonat die Aggregationsebene RZ abbestellt?</text>
</g>
<!-- 2&#45;&gt;3 -->
<g id="edge4" class="edge">
<title>2-&gt;3</title>
<path fill="none" stroke="black" d="M440.15,-334.14C414.63,-317.8 376.05,-293.1 346.21,-273.99"/>
<polygon fill="black" stroke="black" points="348.44,-271.26 338.13,-268.82 344.66,-277.16 348.44,-271.26"/>
<text text-anchor="middle" x="416.27" y="-296.53" font-family="Times,serif" font-size="14.00">Nein</text>
</g>
<!-- 5 -->
<g id="node9" class="node">
<title>5</title>
<path fill="#7aab8a" stroke="black" d="M1044.3,-274.58C1044.3,-274.58 574.5,-274.58 574.5,-274.58 568.5,-274.58 562.5,-268.58 562.5,-262.58 562.5,-262.58 562.5,-227.3 562.5,-227.3 562.5,-221.3 568.5,-215.3 574.5,-215.3 574.5,-215.3 1044.3,-215.3 1044.3,-215.3 1050.3,-215.3 1056.3,-221.3 1056.3,-227.3 1056.3,-227.3 1056.3,-262.58 1056.3,-262.58 1056.3,-268.58 1050.3,-274.58 1044.3,-274.58"/>
<text text-anchor="start" x="576.9" y="-253.64" font-family="Times,serif" font-weight="bold" font-size="14.00">5: </text>
<text text-anchor="start" x="596.4" y="-253.64" font-family="Times,serif" font-size="14.00">Hat der BKV dem BIKO f&#252;r diesen Bilanzierungsmonat bereits</text>
<text text-anchor="start" x="576.9" y="-239.64" font-family="Times,serif" font-size="14.00">mitgeteilt, dass die weiteren Pr&#252;fungen auf Ebene des BG</text>
<text text-anchor="start" x="576.9" y="-225.64" font-family="Times,serif" font-size="14.00">stattfinden m&#252;ssen?</text>
</g>
<!-- 2&#45;&gt;5 -->
<g id="edge5" class="edge">
<title>2-&gt;5</title>
<path fill="none" stroke="black" d="M523.87,-334.14C572.81,-319.03 644.91,-296.75 704.41,-278.37"/>
<polygon fill="black" stroke="black" points="705.4,-281.73 713.92,-275.44 703.33,-275.04 705.4,-281.73"/>
<text text-anchor="middle" x="655.15" y="-296.53" font-family="Times,serif" font-size="14.00">Ja</text>
</g>
<!-- Ende -->
<g id="node6" class="node">
<title>Ende</title>
<polygon fill="#7a8da1" stroke="black" points="568.17,-42.76 502.62,-42.76 502.62,-6.76 568.17,-6.76 568.17,-42.76"/>
<text text-anchor="middle" x="535.4" y="-20.08" font-family="Times,serif" font-size="14.00">Ende</text>
</g>
<!-- 3&#45;&gt;Ende -->
<g id="edge7" class="edge">
<title>3-&gt;Ende</title>
<path fill="none" stroke="black" d="M430.84,-221.87C474.6,-209.66 521.69,-190.86 558.4,-162.05 562.75,-158.63 612.98,-82.04 610.4,-77.14"/>
<path fill="none" stroke="black" d="M610.4,-75.14C602.83,-62.47 590.6,-52.41 578.2,-44.78"/>
<polygon fill="black" stroke="black" points="580.03,-41.8 569.61,-39.91 576.58,-47.89 580.03,-41.8"/>
<text text-anchor="middle" x="604.15" y="-127.73" font-family="Times,serif" font-size="14.00">Ja</text>
</g>
<!-- 4 -->
<g id="node7" class="node">
<title>4</title>
<path fill="#7aab8a" stroke="black" d="M537.3,-162.05C537.3,-162.05 67.5,-162.05 67.5,-162.05 61.5,-162.05 55.5,-156.05 55.5,-150.05 55.5,-150.05 55.5,-114.77 55.5,-114.77 55.5,-108.77 61.5,-102.77 67.5,-102.77 67.5,-102.77 537.3,-102.77 537.3,-102.77 543.3,-102.77 549.3,-108.77 549.3,-114.77 549.3,-114.77 549.3,-150.05 549.3,-150.05 549.3,-156.05 543.3,-162.05 537.3,-162.05"/>
<text text-anchor="start" x="69.9" y="-141.11" font-family="Times,serif" font-weight="bold" font-size="14.00">4: </text>
<text text-anchor="start" x="89.4" y="-141.11" font-family="Times,serif" font-size="14.00">Hat der BKV dem BIKO f&#252;r diesen Bilanzierungsmonat bereits</text>
<text text-anchor="start" x="69.9" y="-127.11" font-family="Times,serif" font-size="14.00">mitgeteilt, dass die weiteren Pr&#252;fungen auf Ebene des BG</text>
<text text-anchor="start" x="69.9" y="-113.11" font-family="Times,serif" font-size="14.00">stattfinden m&#252;ssen?</text>
</g>
<!-- 3&#45;&gt;4 -->
<g id="edge6" class="edge">
<title>3-&gt;4</title>
<path fill="none" stroke="black" d="M302.4,-221.84C302.4,-208.05 302.4,-189.89 302.4,-173.62"/>
<polygon fill="black" stroke="black" points="305.9,-173.7 302.4,-163.7 298.9,-173.7 305.9,-173.7"/>
<text text-anchor="middle" x="319.27" y="-184" font-family="Times,serif" font-size="14.00">Nein</text>
</g>
<!-- 4&#45;&gt;Ende -->
<g id="edge9" class="edge">
<title>4-&gt;Ende</title>
<path fill="none" stroke="black" d="M366.38,-102.4C406.3,-84.3 456.63,-61.48 491.95,-45.46"/>
<polygon fill="black" stroke="black" points="493.36,-48.67 501.02,-41.35 490.47,-42.29 493.36,-48.67"/>
<text text-anchor="middle" x="446.15" y="-71.47" font-family="Times,serif" font-size="14.00">Ja</text>
</g>
<!-- A02 -->
<g id="node8" class="node">
<title>A02</title>
<polygon fill="#cfb986" stroke="black" points="408.76,-49.52 196.03,-49.52 196.03,0 408.76,0 408.76,-49.52"/>
<text text-anchor="start" x="287.4" y="-31.46" font-family="Times,serif" font-weight="bold" font-size="14.00">A02</text>
<text text-anchor="start" x="208.27" y="-19.36" font-family="Times,serif" text-decoration="underline" font-size="12.00">Hinweis:</text>
<text text-anchor="start" x="208.27" y="-7.36" font-family="Times,serif" font-size="12.00">Falsche Aggregationsebene BG</text>
</g>
<!-- 4&#45;&gt;A02 -->
<g id="edge8" class="edge">
<title>4-&gt;A02</title>
<path fill="none" stroke="black" d="M302.4,-102.54C302.4,-89.78 302.4,-74.66 302.4,-61.22"/>
<polygon fill="black" stroke="black" points="305.9,-61.46 302.4,-51.46 298.9,-61.46 305.9,-61.46"/>
<text text-anchor="middle" x="319.27" y="-71.47" font-family="Times,serif" font-size="14.00">Nein</text>
</g>
<!-- 5&#45;&gt;Ende -->
<g id="edge11" class="edge">
<title>5-&gt;Ende</title>
<path fill="none" stroke="black" d="M739.15,-214.94C712.45,-201.58 683.09,-183.8 660.65,-162.05 629.16,-131.53 632.88,-114.8 610.4,-77.14"/>
<text text-anchor="middle" x="677.27" y="-127.73" font-family="Times,serif" font-size="14.00">Nein</text>
</g>
<!-- A03 -->
<g id="node10" class="node">
<title>A03</title>
<polygon fill="#cfb986" stroke="black" points="915.01,-157.17 703.78,-157.17 703.78,-107.65 915.01,-107.65 915.01,-157.17"/>
<text text-anchor="start" x="794.4" y="-139.11" font-family="Times,serif" font-weight="bold" font-size="14.00">A03</text>
<text text-anchor="start" x="716.02" y="-127.01" font-family="Times,serif" text-decoration="underline" font-size="12.00">Hinweis:</text>
<text text-anchor="start" x="716.02" y="-115.01" font-family="Times,serif" font-size="12.00">Falsche Aggregationsebene RZ</text>
</g>
<!-- 5&#45;&gt;A03 -->
<g id="edge10" class="edge">
<title>5-&gt;A03</title>
<path fill="none" stroke="black" d="M809.4,-214.9C809.4,-200.77 809.4,-183.66 809.4,-168.77"/>
<polygon fill="black" stroke="black" points="812.9,-168.92 809.4,-158.92 805.9,-168.92 812.9,-168.92"/>
<text text-anchor="middle" x="816.15" y="-184" font-family="Times,serif" font-size="14.00">Ja</text>
</g>
</g>
</svg>
  </g>
</svg>
  </g>
</svg>
