<?xml version="1.0" encoding="us-ascii" standalone="no"?><svg xmlns="http://www.w3.org/2000/svg" xmlns:xlink="http://www.w3.org/1999/xlink" contentStyleType="text/css" height="1484px" preserveAspectRatio="none" style="width:1544px;height:1484px;background:#FFFFFF;" version="1.1" viewBox="0 0 1544 1484" width="1544px" zoomAndPan="magnify"><defs/><g><text fill="#888888" font-family="DejaVu Serif Condensed" font-size="10" font-weight="bold" lengthAdjust="spacing" textLength="43" x="1488" y="19.2822">FV2210</text><text fill="#888888" font-family="DejaVu Serif Condensed" font-size="10" lengthAdjust="spacing" textLength="56" x="1475" y="30.9229">2022-12-12</text><text fill="#000000" font-family="DejaVu Serif Condensed" font-size="14" font-weight="bold" lengthAdjust="spacing" textLength="836" x="352.5" y="57.2764">7.17 AD: Aktivierung eines MaBiS-ZP f&#252;r Bilanzierungsgebietssummenzeitreihen vom &#220;NB an BIKO und NB</text><text fill="#000000" font-family="DejaVu Serif Condensed" font-size="14" font-weight="bold" lengthAdjust="spacing" textLength="5" x="768" y="73.5732">&#160;</text><text fill="#000000" font-family="DejaVu Serif Condensed" font-size="14" font-weight="bold" lengthAdjust="spacing" textLength="344" x="598.5" y="89.8701">7.17.1 E_0015_MaBiS-ZP Aktivierung pr&#252;fen</text><text fill="#000000" font-family="DejaVu Serif Condensed" font-size="14" font-weight="bold" lengthAdjust="spacing" textLength="5" x="768" y="106.167">&#160;</text><text fill="#000000" font-family="DejaVu Serif Condensed" font-size="14" font-weight="bold" lengthAdjust="spacing" textLength="5" x="768" y="122.4639">&#160;</text><text fill="#000000" font-family="DejaVu Serif Condensed" font-size="14" font-weight="bold" lengthAdjust="spacing" textLength="5" x="768" y="138.7607">&#160;</text><path d="M821,161.3906 L821,169.375 L801,173.375 L821,177.375 L821,185.3594 A0,0 0 0 0 821,185.3594 L988,185.3594 A0,0 0 0 0 988,185.3594 L988,171.3906 L978,161.3906 L821,161.3906 A0,0 0 0 0 821,161.3906 " fill="#F3F1F6" style="stroke:#F3F1F6;stroke-width:0.5;"/><path d="M978,161.3906 L978,171.3906 L988,171.3906 L978,161.3906 " fill="#F3F1F6" style="stroke:#F3F1F6;stroke-width:0.5;"/><text fill="#000000" font-family="DejaVu Serif Condensed" font-size="12" font-style="italic" font-weight="bold" lengthAdjust="spacing" textLength="146" x="827" y="177.5293">Pr&#252;fende Rolle: BIKO</text><rect fill="#7A8DA1" height="38.625" rx="12.5" ry="12.5" style="stroke:none;stroke-width:0.5;" width="82" x="719" y="154.0625"/><text fill="#000000" font-family="DejaVu Serif Condensed" font-size="16" font-weight="bold" lengthAdjust="spacing" textLength="62" x="729" y="178.9141">E_0015</text><path d="M570.5,264.3438 L570.5,302.2813 A0,0 0 0 0 570.5,302.2813 L714.5,302.2813 A0,0 0 0 0 714.5,302.2813 L714.5,287.3125 L734.5,283.3125 L714.5,279.3125 L714.5,274.3438 L704.5,264.3438 L570.5,264.3438 A0,0 0 0 0 570.5,264.3438 " fill="#F3F1F6" style="stroke:#F3F1F6;stroke-width:0.5;"/><path d="M704.5,264.3438 L704.5,274.3438 L714.5,274.3438 L704.5,264.3438 " fill="#F3F1F6" style="stroke:#F3F1F6;stroke-width:0.5;"/><text fill="#000000" font-family="DejaVu Serif Condensed" font-size="12" lengthAdjust="spacing" textLength="115" x="576.5" y="280.4824">Cluster Ablehnung</text><text fill="#000000" font-family="DejaVu Serif Condensed" font-size="12" lengthAdjust="spacing" textLength="123" x="576.5" y="294.4512">Frist&#252;berschreitung</text><rect fill="#7A8DA1" height="38.625" rx="12.5" ry="12.5" style="stroke:none;stroke-width:0.5;" width="51" x="734.5" y="264"/><text fill="#000000" font-family="DejaVu Serif Condensed" font-size="16" lengthAdjust="spacing" textLength="31" x="744.5" y="288.8516">A01</text><polygon fill="#7AAB8A" points="451,212.6875,1069,212.6875,1081,224.6875,1069,236.6875,451,236.6875,439,224.6875,451,212.6875" style="stroke:#7AAB8A;stroke-width:0.5;"/><text fill="#000000" font-family="DejaVu Serif Condensed" font-size="16" lengthAdjust="spacing" textLength="12" x="764" y="251.5391">ja</text><text fill="#000000" font-family="DejaVu Serif Condensed" font-size="18" font-weight="bold" lengthAdjust="spacing" textLength="20" x="451" y="230.9189">1:</text><text fill="#000000" font-family="DejaVu Serif Condensed" font-size="18" lengthAdjust="spacing" textLength="586" x="483" y="230.9189">Erfolgt die Aktivierung nach Ablauf der Clearingfrist f&#252;r die KBKA?</text><text fill="#000000" font-family="DejaVu Serif Condensed" font-size="16" lengthAdjust="spacing" textLength="32" x="1081" y="220.9141">nein</text><path d="M477.5,396.2813 L477.5,434.2188 A0,0 0 0 0 477.5,434.2188 L714.5,434.2188 A0,0 0 0 0 714.5,434.2188 L714.5,419.25 L734.5,415.25 L714.5,411.25 L714.5,406.2813 L704.5,396.2813 L477.5,396.2813 A0,0 0 0 0 477.5,396.2813 " fill="#F3F1F6" style="stroke:#F3F1F6;stroke-width:0.5;"/><path d="M704.5,396.2813 L704.5,406.2813 L714.5,406.2813 L704.5,396.2813 " fill="#F3F1F6" style="stroke:#F3F1F6;stroke-width:0.5;"/><text fill="#000000" font-family="DejaVu Serif Condensed" font-size="12" lengthAdjust="spacing" textLength="115" x="483.5" y="412.4199">Cluster Ablehnung</text><text fill="#000000" font-family="DejaVu Serif Condensed" font-size="12" lengthAdjust="spacing" textLength="216" x="483.5" y="426.3887">Gew&#228;hlter Zeitpunkt nicht zul&#228;ssig</text><rect fill="#7A8DA1" height="38.625" rx="12.5" ry="12.5" style="stroke:none;stroke-width:0.5;" width="51" x="734.5" y="395.9375"/><text fill="#000000" font-family="DejaVu Serif Condensed" font-size="16" lengthAdjust="spacing" textLength="31" x="744.5" y="420.7891">A02</text><polygon fill="#7AAB8A" points="507.5,344.625,1012.5,344.625,1024.5,356.625,1012.5,368.625,507.5,368.625,495.5,356.625,507.5,344.625" style="stroke:#7AAB8A;stroke-width:0.5;"/><text fill="#000000" font-family="DejaVu Serif Condensed" font-size="16" lengthAdjust="spacing" textLength="32" x="764" y="383.4766">nein</text><text fill="#000000" font-family="DejaVu Serif Condensed" font-size="18" font-weight="bold" lengthAdjust="spacing" textLength="20" x="507.5" y="362.8564">2:</text><text fill="#000000" font-family="DejaVu Serif Condensed" font-size="18" lengthAdjust="spacing" textLength="473" x="539.5" y="362.8564">Erfolgt die Aktivierung zum Monatsersten 00:00 Uhr?</text><text fill="#000000" font-family="DejaVu Serif Condensed" font-size="16" lengthAdjust="spacing" textLength="12" x="1024.5" y="352.8516">ja</text><path d="M578.5,528.2188 L578.5,566.1563 A0,0 0 0 0 578.5,566.1563 L714.5,566.1563 A0,0 0 0 0 714.5,566.1563 L714.5,551.1875 L734.5,547.1875 L714.5,543.1875 L714.5,538.2188 L704.5,528.2188 L578.5,528.2188 A0,0 0 0 0 578.5,528.2188 " fill="#F3F1F6" style="stroke:#F3F1F6;stroke-width:0.5;"/><path d="M704.5,528.2188 L704.5,538.2188 L714.5,538.2188 L704.5,528.2188 " fill="#F3F1F6" style="stroke:#F3F1F6;stroke-width:0.5;"/><text fill="#000000" font-family="DejaVu Serif Condensed" font-size="12" lengthAdjust="spacing" textLength="115" x="584.5" y="544.3574">Cluster Ablehnung</text><text fill="#000000" font-family="DejaVu Serif Condensed" font-size="12" lengthAdjust="spacing" textLength="105" x="584.5" y="558.3262">Regelzone falsch</text><rect fill="#7A8DA1" height="38.625" rx="12.5" ry="12.5" style="stroke:none;stroke-width:0.5;" width="51" x="734.5" y="527.875"/><text fill="#000000" font-family="DejaVu Serif Condensed" font-size="16" lengthAdjust="spacing" textLength="31" x="744.5" y="552.7266">A03</text><polygon fill="#7AAB8A" points="579,476.5625,941,476.5625,953,488.5625,941,500.5625,579,500.5625,567,488.5625,579,476.5625" style="stroke:#7AAB8A;stroke-width:0.5;"/><text fill="#000000" font-family="DejaVu Serif Condensed" font-size="16" lengthAdjust="spacing" textLength="32" x="764" y="515.4141">nein</text><text fill="#000000" font-family="DejaVu Serif Condensed" font-size="18" font-weight="bold" lengthAdjust="spacing" textLength="20" x="579" y="494.7939">3:</text><text fill="#000000" font-family="DejaVu Serif Condensed" font-size="18" lengthAdjust="spacing" textLength="330" x="611" y="494.7939">Ist die richtige Regelzone angegeben</text><text fill="#000000" font-family="DejaVu Serif Condensed" font-size="16" lengthAdjust="spacing" textLength="12" x="953" y="484.7891">ja</text><path d="M497.5,660.1563 L497.5,698.0938 A0,0 0 0 0 497.5,698.0938 L714.5,698.0938 A0,0 0 0 0 714.5,698.0938 L714.5,683.125 L734.5,679.125 L714.5,675.125 L714.5,670.1563 L704.5,660.1563 L497.5,660.1563 A0,0 0 0 0 497.5,660.1563 " fill="#F3F1F6" style="stroke:#F3F1F6;stroke-width:0.5;"/><path d="M704.5,660.1563 L704.5,670.1563 L714.5,670.1563 L704.5,660.1563 " fill="#F3F1F6" style="stroke:#F3F1F6;stroke-width:0.5;"/><text fill="#000000" font-family="DejaVu Serif Condensed" font-size="12" lengthAdjust="spacing" textLength="115" x="503.5" y="676.2949">Cluster Ablehnung</text><text fill="#000000" font-family="DejaVu Serif Condensed" font-size="12" lengthAdjust="spacing" textLength="196" x="503.5" y="690.2637">Bilanzierungsgebiet nicht g&#252;ltig</text><rect fill="#7A8DA1" height="38.625" rx="12.5" ry="12.5" style="stroke:none;stroke-width:0.5;" width="51" x="734.5" y="659.8125"/><text fill="#000000" font-family="DejaVu Serif Condensed" font-size="16" lengthAdjust="spacing" textLength="31" x="744.5" y="684.6641">A04</text><polygon fill="#7AAB8A" points="362.5,608.5,1157.5,608.5,1169.5,620.5,1157.5,632.5,362.5,632.5,350.5,620.5,362.5,608.5" style="stroke:#7AAB8A;stroke-width:0.5;"/><text fill="#000000" font-family="DejaVu Serif Condensed" font-size="16" lengthAdjust="spacing" textLength="32" x="764" y="647.3516">nein</text><text fill="#000000" font-family="DejaVu Serif Condensed" font-size="18" font-weight="bold" lengthAdjust="spacing" textLength="20" x="362.5" y="626.7314">4:</text><text fill="#000000" font-family="DejaVu Serif Condensed" font-size="18" lengthAdjust="spacing" textLength="763" x="394.5" y="626.7314">Ist das Bilanzierungsgebiet zum Aktivierungsbeginn in der Regelzone des BIKO g&#252;ltig?</text><text fill="#000000" font-family="DejaVu Serif Condensed" font-size="16" lengthAdjust="spacing" textLength="12" x="1169.5" y="616.7266">ja</text><path d="M571.5,792.0938 L571.5,830.0313 A0,0 0 0 0 571.5,830.0313 L714.5,830.0313 A0,0 0 0 0 714.5,830.0313 L714.5,815.0625 L734.5,811.0625 L714.5,807.0625 L714.5,802.0938 L704.5,792.0938 L571.5,792.0938 A0,0 0 0 0 571.5,792.0938 " fill="#F3F1F6" style="stroke:#F3F1F6;stroke-width:0.5;"/><path d="M704.5,792.0938 L704.5,802.0938 L714.5,802.0938 L704.5,792.0938 " fill="#F3F1F6" style="stroke:#F3F1F6;stroke-width:0.5;"/><text fill="#000000" font-family="DejaVu Serif Condensed" font-size="12" lengthAdjust="spacing" textLength="115" x="577.5" y="808.2324">Cluster Ablehnung</text><text fill="#000000" font-family="DejaVu Serif Condensed" font-size="12" lengthAdjust="spacing" textLength="122" x="577.5" y="822.2012">Keine Berechtigung</text><rect fill="#7A8DA1" height="38.625" rx="12.5" ry="12.5" style="stroke:none;stroke-width:0.5;" width="51" x="734.5" y="791.75"/><text fill="#000000" font-family="DejaVu Serif Condensed" font-size="16" lengthAdjust="spacing" textLength="31" x="744.5" y="816.6016">A05</text><polygon fill="#7AAB8A" points="411,740.4375,1109,740.4375,1121,752.4375,1109,764.4375,411,764.4375,399,752.4375,411,740.4375" style="stroke:#7AAB8A;stroke-width:0.5;"/><text fill="#000000" font-family="DejaVu Serif Condensed" font-size="16" lengthAdjust="spacing" textLength="32" x="764" y="779.2891">nein</text><text fill="#000000" font-family="DejaVu Serif Condensed" font-size="18" font-weight="bold" lengthAdjust="spacing" textLength="20" x="411" y="758.6689">5:</text><text fill="#000000" font-family="DejaVu Serif Condensed" font-size="18" lengthAdjust="spacing" textLength="666" x="443" y="758.6689">Ist der &#220;NB zum Aktivierungsbeginn f&#252;r das Bilanzierungsgebiet zust&#228;ndig?</text><text fill="#000000" font-family="DejaVu Serif Condensed" font-size="16" lengthAdjust="spacing" textLength="12" x="1121" y="748.6641">ja</text><path d="M424.5,924.0313 L424.5,961.9688 A0,0 0 0 0 424.5,961.9688 L714.5,961.9688 A0,0 0 0 0 714.5,961.9688 L714.5,947 L734.5,943 L714.5,939 L714.5,934.0313 L704.5,924.0313 L424.5,924.0313 A0,0 0 0 0 424.5,924.0313 " fill="#F3F1F6" style="stroke:#F3F1F6;stroke-width:0.5;"/><path d="M704.5,924.0313 L704.5,934.0313 L714.5,934.0313 L704.5,924.0313 " fill="#F3F1F6" style="stroke:#F3F1F6;stroke-width:0.5;"/><text fill="#000000" font-family="DejaVu Serif Condensed" font-size="12" lengthAdjust="spacing" textLength="115" x="430.5" y="940.1699">Cluster Ablehnung</text><text fill="#000000" font-family="DejaVu Serif Condensed" font-size="12" lengthAdjust="spacing" textLength="269" x="430.5" y="954.1387">Abweichender MaBiS-ZP bereits vorhanden</text><rect fill="#7A8DA1" height="38.625" rx="12.5" ry="12.5" style="stroke:none;stroke-width:0.5;" width="51" x="734.5" y="923.6875"/><text fill="#000000" font-family="DejaVu Serif Condensed" font-size="16" lengthAdjust="spacing" textLength="31" x="744.5" y="948.5391">A06</text><polygon fill="#7AAB8A" points="437.5,872.375,1082.5,872.375,1094.5,884.375,1082.5,896.375,437.5,896.375,425.5,884.375,437.5,872.375" style="stroke:#7AAB8A;stroke-width:0.5;"/><text fill="#000000" font-family="DejaVu Serif Condensed" font-size="16" lengthAdjust="spacing" textLength="12" x="764" y="911.2266">ja</text><text fill="#000000" font-family="DejaVu Serif Condensed" font-size="18" font-weight="bold" lengthAdjust="spacing" textLength="20" x="437.5" y="890.6064">6:</text><text fill="#000000" font-family="DejaVu Serif Condensed" font-size="18" lengthAdjust="spacing" textLength="613" x="469.5" y="890.6064">Existiert bereits ein abweichendes Tupel unter der ID des MaBiS-ZP?</text><text fill="#000000" font-family="DejaVu Serif Condensed" font-size="16" lengthAdjust="spacing" textLength="32" x="1094.5" y="880.6016">nein</text><path d="M385.5,1055.9688 L385.5,1093.9063 A0,0 0 0 0 385.5,1093.9063 L714.5,1093.9063 A0,0 0 0 0 714.5,1093.9063 L714.5,1078.9375 L734.5,1074.9375 L714.5,1070.9375 L714.5,1065.9688 L704.5,1055.9688 L385.5,1055.9688 A0,0 0 0 0 385.5,1055.9688 " fill="#F3F1F6" style="stroke:#F3F1F6;stroke-width:0.5;"/><path d="M704.5,1055.9688 L704.5,1065.9688 L714.5,1065.9688 L704.5,1055.9688 " fill="#F3F1F6" style="stroke:#F3F1F6;stroke-width:0.5;"/><text fill="#000000" font-family="DejaVu Serif Condensed" font-size="12" lengthAdjust="spacing" textLength="115" x="391.5" y="1072.1074">Cluster Ablehnung</text><text fill="#000000" font-family="DejaVu Serif Condensed" font-size="12" lengthAdjust="spacing" textLength="308" x="391.5" y="1086.0762">Abweichende ID zum MaBiS-ZP bereits vorhanden</text><rect fill="#7A8DA1" height="38.625" rx="12.5" ry="12.5" style="stroke:none;stroke-width:0.5;" width="51" x="734.5" y="1055.625"/><text fill="#000000" font-family="DejaVu Serif Condensed" font-size="16" lengthAdjust="spacing" textLength="31" x="744.5" y="1080.4766">A07</text><polygon fill="#7AAB8A" points="32,1004.3125,1488,1004.3125,1500,1016.3125,1488,1028.3125,32,1028.3125,20,1016.3125,32,1004.3125" style="stroke:#7AAB8A;stroke-width:0.5;"/><text fill="#000000" font-family="DejaVu Serif Condensed" font-size="16" lengthAdjust="spacing" textLength="12" x="764" y="1043.1641">ja</text><text fill="#000000" font-family="DejaVu Serif Condensed" font-size="18" font-weight="bold" lengthAdjust="spacing" textLength="20" x="32" y="1022.5439">7:</text><text fill="#000000" font-family="DejaVu Serif Condensed" font-size="18" lengthAdjust="spacing" textLength="1424" x="64" y="1022.5439">Existiert bereits f&#252;r das genannte Tupel aus Aggregations-verantwortlicher, Bilanzierungsgebiet, Spannungsebene und ZRT eine abweichende ID des MaBiS-ZP?</text><text fill="#000000" font-family="DejaVu Serif Condensed" font-size="16" lengthAdjust="spacing" textLength="32" x="1500" y="1012.5391">nein</text><path d="M492.5,1187.9063 L492.5,1225.8438 A0,0 0 0 0 492.5,1225.8438 L714.5,1225.8438 A0,0 0 0 0 714.5,1225.8438 L714.5,1210.875 L734.5,1206.875 L714.5,1202.875 L714.5,1197.9063 L704.5,1187.9063 L492.5,1187.9063 A0,0 0 0 0 492.5,1187.9063 " fill="#F3F1F6" style="stroke:#F3F1F6;stroke-width:0.5;"/><path d="M704.5,1187.9063 L704.5,1197.9063 L714.5,1197.9063 L704.5,1187.9063 " fill="#F3F1F6" style="stroke:#F3F1F6;stroke-width:0.5;"/><text fill="#000000" font-family="DejaVu Serif Condensed" font-size="12" lengthAdjust="spacing" textLength="115" x="498.5" y="1204.0449">Cluster Ablehnung</text><text fill="#000000" font-family="DejaVu Serif Condensed" font-size="12" lengthAdjust="spacing" textLength="201" x="498.5" y="1218.0137">ZRT Aktivierung nicht berechtigt</text><rect fill="#7A8DA1" height="38.625" rx="12.5" ry="12.5" style="stroke:none;stroke-width:0.5;" width="51" x="734.5" y="1187.5625"/><text fill="#000000" font-family="DejaVu Serif Condensed" font-size="16" lengthAdjust="spacing" textLength="31" x="744.5" y="1212.4141">A08</text><polygon fill="#7AAB8A" points="528,1136.25,992,1136.25,1004,1148.25,992,1160.25,528,1160.25,516,1148.25,528,1136.25" style="stroke:#7AAB8A;stroke-width:0.5;"/><text fill="#000000" font-family="DejaVu Serif Condensed" font-size="16" lengthAdjust="spacing" textLength="32" x="764" y="1175.1016">nein</text><text fill="#000000" font-family="DejaVu Serif Condensed" font-size="18" font-weight="bold" lengthAdjust="spacing" textLength="20" x="528" y="1154.4814">8:</text><text fill="#000000" font-family="DejaVu Serif Condensed" font-size="18" lengthAdjust="spacing" textLength="432" x="560" y="1154.4814">Ist der &#220;NB zur Aktivierung des ZRT berechtigt?</text><text fill="#000000" font-family="DejaVu Serif Condensed" font-size="16" lengthAdjust="spacing" textLength="12" x="1004" y="1144.4766">ja</text><path d="M572.5,1319.8438 L572.5,1357.7813 A0,0 0 0 0 572.5,1357.7813 L714.5,1357.7813 A0,0 0 0 0 714.5,1357.7813 L714.5,1342.8125 L734.5,1338.8125 L714.5,1334.8125 L714.5,1329.8438 L704.5,1319.8438 L572.5,1319.8438 A0,0 0 0 0 572.5,1319.8438 " fill="#F3F1F6" style="stroke:#F3F1F6;stroke-width:0.5;"/><path d="M704.5,1319.8438 L704.5,1329.8438 L714.5,1329.8438 L704.5,1319.8438 " fill="#F3F1F6" style="stroke:#F3F1F6;stroke-width:0.5;"/><text fill="#000000" font-family="DejaVu Serif Condensed" font-size="12" lengthAdjust="spacing" textLength="115" x="578.5" y="1335.9824">Cluster Ablehnung</text><text fill="#000000" font-family="DejaVu Serif Condensed" font-size="12" lengthAdjust="spacing" textLength="121" x="578.5" y="1349.9512">OBIS nicht passend</text><rect fill="#7A8DA1" height="38.625" rx="12.5" ry="12.5" style="stroke:none;stroke-width:0.5;" width="51" x="734.5" y="1319.5"/><text fill="#000000" font-family="DejaVu Serif Condensed" font-size="16" lengthAdjust="spacing" textLength="31" x="744.5" y="1344.3516">A09</text><polygon fill="#7AAB8A" points="589,1268.1875,931,1268.1875,943,1280.1875,931,1292.1875,589,1292.1875,577,1280.1875,589,1268.1875" style="stroke:#7AAB8A;stroke-width:0.5;"/><text fill="#000000" font-family="DejaVu Serif Condensed" font-size="16" lengthAdjust="spacing" textLength="32" x="764" y="1307.0391">nein</text><text fill="#000000" font-family="DejaVu Serif Condensed" font-size="18" font-weight="bold" lengthAdjust="spacing" textLength="20" x="589" y="1286.4189">9:</text><text fill="#000000" font-family="DejaVu Serif Condensed" font-size="18" lengthAdjust="spacing" textLength="310" x="621" y="1286.4189">Passt die OBIS-Kennzahl zum ZRT?</text><text fill="#000000" font-family="DejaVu Serif Condensed" font-size="16" lengthAdjust="spacing" textLength="12" x="943" y="1276.4141">ja</text><polygon fill="#7AAB8A" points="445.5,1400.125,1074.5,1400.125,1086.5,1412.125,1074.5,1424.125,445.5,1424.125,433.5,1412.125,445.5,1400.125" style="stroke:#7AAB8A;stroke-width:0.5;"/><text fill="#000000" font-family="DejaVu Serif Condensed" font-size="18" font-weight="bold" lengthAdjust="spacing" textLength="33" x="445.5" y="1418.3564">10:</text><text fill="#000000" font-family="DejaVu Serif Condensed" font-size="18" lengthAdjust="spacing" textLength="584" x="490.5" y="1418.3564">Ist der MaBiS-ZP zum Zeitpunkt der Aktivierung bereits aktiviert?</text><text fill="#000000" font-family="DejaVu Serif Condensed" font-size="16" lengthAdjust="spacing" textLength="12" x="421.5" y="1408.3516">ja</text><text fill="#000000" font-family="DejaVu Serif Condensed" font-size="16" lengthAdjust="spacing" textLength="32" x="1086.5" y="1408.3516">nein</text><path d="M197,1434.4688 L197,1472.4063 A0,0 0 0 0 197,1472.4063 L378,1472.4063 A0,0 0 0 0 378,1472.4063 L378,1457.4375 L398,1453.4375 L378,1449.4375 L378,1444.4688 L368,1434.4688 L197,1434.4688 A0,0 0 0 0 197,1434.4688 " fill="#F3F1F6" style="stroke:#F3F1F6;stroke-width:0.5;"/><path d="M368,1434.4688 L368,1444.4688 L378,1444.4688 L368,1434.4688 " fill="#F3F1F6" style="stroke:#F3F1F6;stroke-width:0.5;"/><text fill="#000000" font-family="DejaVu Serif Condensed" font-size="12" lengthAdjust="spacing" textLength="115" x="203" y="1450.6074">Cluster Ablehnung</text><text fill="#000000" font-family="DejaVu Serif Condensed" font-size="12" lengthAdjust="spacing" textLength="160" x="203" y="1464.5762">MaBiS-ZP bereits aktiviert</text><rect fill="#7A8DA1" height="38.625" rx="12.5" ry="12.5" style="stroke:none;stroke-width:0.5;" width="51" x="398" y="1434.125"/><text fill="#000000" font-family="DejaVu Serif Condensed" font-size="16" lengthAdjust="spacing" textLength="31" x="408" y="1458.9766">A10</text><path d="M875,1434.4688 L875,1472.4063 A0,0 0 0 0 875,1472.4063 L1051,1472.4063 A0,0 0 0 0 1051,1472.4063 L1051,1457.4375 L1071,1453.4375 L1051,1449.4375 L1051,1444.4688 L1041,1434.4688 L875,1434.4688 A0,0 0 0 0 875,1434.4688 " fill="#F3F1F6" style="stroke:#F3F1F6;stroke-width:0.5;"/><path d="M1041,1434.4688 L1041,1444.4688 L1051,1444.4688 L1041,1434.4688 " fill="#F3F1F6" style="stroke:#F3F1F6;stroke-width:0.5;"/><text fill="#000000" font-family="DejaVu Serif Condensed" font-size="12" lengthAdjust="spacing" textLength="130" x="881" y="1450.6074">Cluster: Zustimmung</text><text fill="#000000" font-family="DejaVu Serif Condensed" font-size="12" lengthAdjust="spacing" textLength="155" x="881" y="1464.5762">Aktivierung durchgef&#252;hrt</text><rect fill="#7A8DA1" height="38.625" rx="12.5" ry="12.5" style="stroke:none;stroke-width:0.5;" width="51" x="1071" y="1434.125"/><text fill="#000000" font-family="DejaVu Serif Condensed" font-size="16" lengthAdjust="spacing" textLength="31" x="1081" y="1458.9766">A11</text><line style="stroke:#7AAB8A;stroke-width:1.0;" x1="760" x2="760" y1="236.6875" y2="264"/><polygon fill="#7AAB8A" points="756,254,760,264,764,254,760,258" style="stroke:#7AAB8A;stroke-width:1.0;"/><line style="stroke:#7AAB8A;stroke-width:1.0;" x1="1081" x2="1093" y1="224.6875" y2="224.6875"/><polygon fill="#7AAB8A" points="1089,270.3125,1093,280.3125,1097,270.3125,1093,274.3125" style="stroke:#7AAB8A;stroke-width:1.0;"/><line style="stroke:#7AAB8A;stroke-width:1.0;" x1="1093" x2="1093" y1="224.6875" y2="324.625"/><line style="stroke:#7AAB8A;stroke-width:1.0;" x1="1093" x2="760" y1="324.625" y2="324.625"/><line style="stroke:#7AAB8A;stroke-width:1.0;" x1="760" x2="760" y1="324.625" y2="344.625"/><polygon fill="#7AAB8A" points="756,334.625,760,344.625,764,334.625,760,338.625" style="stroke:#7AAB8A;stroke-width:1.0;"/><line style="stroke:#7AAB8A;stroke-width:1.0;" x1="760" x2="760" y1="192.6875" y2="212.6875"/><polygon fill="#7AAB8A" points="756,202.6875,760,212.6875,764,202.6875,760,206.6875" style="stroke:#7AAB8A;stroke-width:1.0;"/><line style="stroke:#7AAB8A;stroke-width:1.0;" x1="760" x2="760" y1="368.625" y2="395.9375"/><polygon fill="#7AAB8A" points="756,385.9375,760,395.9375,764,385.9375,760,389.9375" style="stroke:#7AAB8A;stroke-width:1.0;"/><line style="stroke:#7AAB8A;stroke-width:1.0;" x1="1024.5" x2="1036.5" y1="356.625" y2="356.625"/><polygon fill="#7AAB8A" points="1032.5,402.25,1036.5,412.25,1040.5,402.25,1036.5,406.25" style="stroke:#7AAB8A;stroke-width:1.0;"/><line style="stroke:#7AAB8A;stroke-width:1.0;" x1="1036.5" x2="1036.5" y1="356.625" y2="456.5625"/><line style="stroke:#7AAB8A;stroke-width:1.0;" x1="1036.5" x2="760" y1="456.5625" y2="456.5625"/><line style="stroke:#7AAB8A;stroke-width:1.0;" x1="760" x2="760" y1="456.5625" y2="476.5625"/><polygon fill="#7AAB8A" points="756,466.5625,760,476.5625,764,466.5625,760,470.5625" style="stroke:#7AAB8A;stroke-width:1.0;"/><line style="stroke:#7AAB8A;stroke-width:1.0;" x1="760" x2="760" y1="500.5625" y2="527.875"/><polygon fill="#7AAB8A" points="756,517.875,760,527.875,764,517.875,760,521.875" style="stroke:#7AAB8A;stroke-width:1.0;"/><line style="stroke:#7AAB8A;stroke-width:1.0;" x1="953" x2="965" y1="488.5625" y2="488.5625"/><polygon fill="#7AAB8A" points="961,534.1875,965,544.1875,969,534.1875,965,538.1875" style="stroke:#7AAB8A;stroke-width:1.0;"/><line style="stroke:#7AAB8A;stroke-width:1.0;" x1="965" x2="965" y1="488.5625" y2="588.5"/><line style="stroke:#7AAB8A;stroke-width:1.0;" x1="965" x2="760" y1="588.5" y2="588.5"/><line style="stroke:#7AAB8A;stroke-width:1.0;" x1="760" x2="760" y1="588.5" y2="608.5"/><polygon fill="#7AAB8A" points="756,598.5,760,608.5,764,598.5,760,602.5" style="stroke:#7AAB8A;stroke-width:1.0;"/><line style="stroke:#7AAB8A;stroke-width:1.0;" x1="760" x2="760" y1="632.5" y2="659.8125"/><polygon fill="#7AAB8A" points="756,649.8125,760,659.8125,764,649.8125,760,653.8125" style="stroke:#7AAB8A;stroke-width:1.0;"/><line style="stroke:#7AAB8A;stroke-width:1.0;" x1="1169.5" x2="1181.5" y1="620.5" y2="620.5"/><polygon fill="#7AAB8A" points="1177.5,666.125,1181.5,676.125,1185.5,666.125,1181.5,670.125" style="stroke:#7AAB8A;stroke-width:1.0;"/><line style="stroke:#7AAB8A;stroke-width:1.0;" x1="1181.5" x2="1181.5" y1="620.5" y2="720.4375"/><line style="stroke:#7AAB8A;stroke-width:1.0;" x1="1181.5" x2="760" y1="720.4375" y2="720.4375"/><line style="stroke:#7AAB8A;stroke-width:1.0;" x1="760" x2="760" y1="720.4375" y2="740.4375"/><polygon fill="#7AAB8A" points="756,730.4375,760,740.4375,764,730.4375,760,734.4375" style="stroke:#7AAB8A;stroke-width:1.0;"/><line style="stroke:#7AAB8A;stroke-width:1.0;" x1="760" x2="760" y1="764.4375" y2="791.75"/><polygon fill="#7AAB8A" points="756,781.75,760,791.75,764,781.75,760,785.75" style="stroke:#7AAB8A;stroke-width:1.0;"/><line style="stroke:#7AAB8A;stroke-width:1.0;" x1="1121" x2="1133" y1="752.4375" y2="752.4375"/><polygon fill="#7AAB8A" points="1129,798.0625,1133,808.0625,1137,798.0625,1133,802.0625" style="stroke:#7AAB8A;stroke-width:1.0;"/><line style="stroke:#7AAB8A;stroke-width:1.0;" x1="1133" x2="1133" y1="752.4375" y2="852.375"/><line style="stroke:#7AAB8A;stroke-width:1.0;" x1="1133" x2="760" y1="852.375" y2="852.375"/><line style="stroke:#7AAB8A;stroke-width:1.0;" x1="760" x2="760" y1="852.375" y2="872.375"/><polygon fill="#7AAB8A" points="756,862.375,760,872.375,764,862.375,760,866.375" style="stroke:#7AAB8A;stroke-width:1.0;"/><line style="stroke:#7AAB8A;stroke-width:1.0;" x1="760" x2="760" y1="896.375" y2="923.6875"/><polygon fill="#7AAB8A" points="756,913.6875,760,923.6875,764,913.6875,760,917.6875" style="stroke:#7AAB8A;stroke-width:1.0;"/><line style="stroke:#7AAB8A;stroke-width:1.0;" x1="1094.5" x2="1106.5" y1="884.375" y2="884.375"/><polygon fill="#7AAB8A" points="1102.5,930,1106.5,940,1110.5,930,1106.5,934" style="stroke:#7AAB8A;stroke-width:1.0;"/><line style="stroke:#7AAB8A;stroke-width:1.0;" x1="1106.5" x2="1106.5" y1="884.375" y2="984.3125"/><line style="stroke:#7AAB8A;stroke-width:1.0;" x1="1106.5" x2="760" y1="984.3125" y2="984.3125"/><line style="stroke:#7AAB8A;stroke-width:1.0;" x1="760" x2="760" y1="984.3125" y2="1004.3125"/><polygon fill="#7AAB8A" points="756,994.3125,760,1004.3125,764,994.3125,760,998.3125" style="stroke:#7AAB8A;stroke-width:1.0;"/><line style="stroke:#7AAB8A;stroke-width:1.0;" x1="760" x2="760" y1="1028.3125" y2="1055.625"/><polygon fill="#7AAB8A" points="756,1045.625,760,1055.625,764,1045.625,760,1049.625" style="stroke:#7AAB8A;stroke-width:1.0;"/><line style="stroke:#7AAB8A;stroke-width:1.0;" x1="1500" x2="1512" y1="1016.3125" y2="1016.3125"/><polygon fill="#7AAB8A" points="1508,1061.9375,1512,1071.9375,1516,1061.9375,1512,1065.9375" style="stroke:#7AAB8A;stroke-width:1.0;"/><line style="stroke:#7AAB8A;stroke-width:1.0;" x1="1512" x2="1512" y1="1016.3125" y2="1116.25"/><line style="stroke:#7AAB8A;stroke-width:1.0;" x1="1512" x2="760" y1="1116.25" y2="1116.25"/><line style="stroke:#7AAB8A;stroke-width:1.0;" x1="760" x2="760" y1="1116.25" y2="1136.25"/><polygon fill="#7AAB8A" points="756,1126.25,760,1136.25,764,1126.25,760,1130.25" style="stroke:#7AAB8A;stroke-width:1.0;"/><line style="stroke:#7AAB8A;stroke-width:1.0;" x1="760" x2="760" y1="1160.25" y2="1187.5625"/><polygon fill="#7AAB8A" points="756,1177.5625,760,1187.5625,764,1177.5625,760,1181.5625" style="stroke:#7AAB8A;stroke-width:1.0;"/><line style="stroke:#7AAB8A;stroke-width:1.0;" x1="1004" x2="1016" y1="1148.25" y2="1148.25"/><polygon fill="#7AAB8A" points="1012,1193.875,1016,1203.875,1020,1193.875,1016,1197.875" style="stroke:#7AAB8A;stroke-width:1.0;"/><line style="stroke:#7AAB8A;stroke-width:1.0;" x1="1016" x2="1016" y1="1148.25" y2="1248.1875"/><line style="stroke:#7AAB8A;stroke-width:1.0;" x1="1016" x2="760" y1="1248.1875" y2="1248.1875"/><line style="stroke:#7AAB8A;stroke-width:1.0;" x1="760" x2="760" y1="1248.1875" y2="1268.1875"/><polygon fill="#7AAB8A" points="756,1258.1875,760,1268.1875,764,1258.1875,760,1262.1875" style="stroke:#7AAB8A;stroke-width:1.0;"/><line style="stroke:#7AAB8A;stroke-width:1.0;" x1="760" x2="760" y1="1292.1875" y2="1319.5"/><polygon fill="#7AAB8A" points="756,1309.5,760,1319.5,764,1309.5,760,1313.5" style="stroke:#7AAB8A;stroke-width:1.0;"/><line style="stroke:#7AAB8A;stroke-width:1.0;" x1="943" x2="955" y1="1280.1875" y2="1280.1875"/><polygon fill="#7AAB8A" points="951,1325.8125,955,1335.8125,959,1325.8125,955,1329.8125" style="stroke:#7AAB8A;stroke-width:1.0;"/><line style="stroke:#7AAB8A;stroke-width:1.0;" x1="955" x2="955" y1="1280.1875" y2="1380.125"/><line style="stroke:#7AAB8A;stroke-width:1.0;" x1="955" x2="760" y1="1380.125" y2="1380.125"/><line style="stroke:#7AAB8A;stroke-width:1.0;" x1="760" x2="760" y1="1380.125" y2="1400.125"/><polygon fill="#7AAB8A" points="756,1390.125,760,1400.125,764,1390.125,760,1394.125" style="stroke:#7AAB8A;stroke-width:1.0;"/><line style="stroke:#7AAB8A;stroke-width:1.0;" x1="433.5" x2="423.5" y1="1412.125" y2="1412.125"/><line style="stroke:#7AAB8A;stroke-width:1.0;" x1="423.5" x2="423.5" y1="1412.125" y2="1434.125"/><polygon fill="#7AAB8A" points="419.5,1424.125,423.5,1434.125,427.5,1424.125,423.5,1428.125" style="stroke:#7AAB8A;stroke-width:1.0;"/><line style="stroke:#7AAB8A;stroke-width:1.0;" x1="1086.5" x2="1096.5" y1="1412.125" y2="1412.125"/><line style="stroke:#7AAB8A;stroke-width:1.0;" x1="1096.5" x2="1096.5" y1="1412.125" y2="1434.125"/><polygon fill="#7AAB8A" points="1092.5,1424.125,1096.5,1434.125,1100.5,1424.125,1096.5,1428.125" style="stroke:#7AAB8A;stroke-width:1.0;"/><!--SRC=[hLRTRjf85BxtKnnfRnAfwTga0KAYL92VLOIQHgNRYznKOtniJnd6Q6OSTdcMlSnZv8uNspE3COQQ06ej91pEcVDzt_cRw16N4wRO60OfYx8fbmd4J6ZqT6bvo0psCXMXkiv4fk2F-3GEukQc1nkE4fNbCdhBwowJPi1d246ZOkaE3N_cvjygYimarhbimhHOEs91ZUSAgagYgrGsBO-oiCqsZLlE5L5lE1jdCggXiHbhuq0rWRkSLnJQ5QS8OvOBOuqFR8nmWp_Ojnm6g7WCrtGCfSQe9kfjoRBPF3zh-vwN8YCstcLuTVUjqGXyh-4t6YU1_NWeeyBi6Mu4UgttGGkwDnteZcmyL3ar2NA96Zwn7X-SF3r2F7zLqEE2oTd2GISOSZHQv-CnoXboev2dAE4v6yFyluSUC0cz-_vde1p2GyzpCEy3kFtk-y7Pzp9o5NIYvgynIeyUOWaBUXrIiJXq-MTuTU59QZDGF4cDrNV9hnuNfoA4BvaGs76mBe1rzJpAtX5v1Xsm0U1MnPb834GSry0b6wRG3GNBOog5Wck1JD6yn8fhiqY0FTBlzRiVZy5OhKS_sB47z7IwVd3XtXmxWR5nVzddMkJQK3mAZQaafD9oPoFFNqDKUfXI-ipIIDmTTVi-ua9SU4WZ2qUIgd9ibV5ugQgnGzKi7yEdJ3AZ2SKGPz_l-3xydQer4TNuXQ36uOB-mkdy9HNM-4Ho9haS6P1yc1hY8UOlMlEj0gkYJWjHzteXIDaGFA42Ou9YHfk3kYkXzn3b3XMdXwjOWTXDEKptOVoXofZfkb5nfQYKHeUOS2c1IzTkAzI81izDJZ9_5IHxLw4-72wnZjwYJWNcFfhFgfe9natz5f6ByTcQ61g35mgzK-hPuLBxTfD13nMw7dfZnAhQcikn-eT6bDWQe2cbbjPsCG8BfqZPiZj7mzTyWeAsd8MtQRY_SHLSBhYwNT4yN4Pt1QbMQtb9wZbJARCNnA7hexLLPrcn12MJfAuGod8DtIHHc333CwbFdb4nQQQPCi8ILE_gQlmE1XEAOd-mGulkLdZwyjNTCzLyxfE-rY-bpoAuhVZRajYk7mIrjeYjA2iuN7QYsTNixSDbMe2rEytDz0fodzO_BzGyCbsity-z-y597wMSiLIut17EBlRdXxEtE0Nb2O4Jgttu1lv6-il2EgRbFMHDrTmioywAtqnDgmN-uIf-wgiIO8- -Ac1t_JFHWIVwvkFnMezNkorNmpH16k9KlLtr_m40]--></g></svg>