<?xml version='1.0' encoding='ASCII' standalone='yes'?>
<svg xmlns="http://www.w3.org/2000/svg" xmlns:xlink="http://www.w3.org/1999/xlink" version="1.1" width="1884.0px" viewBox="0 0 1884.0 1826.6666666666667" height="1826.6666666666667px">
  <g>
    <svg version="1.1" width="1884.0px" viewBox="0 0 1884.0 1826.6666666666667" height="1826.6666666666667px">
  <polygon fill="#f3f1f6" points="0,0 1884.0,0 1884.0,1826.6666666666667 0,1826.6666666666667"/><g>
    <g transform="translate(211.87531668204156, 182.66666666666663) scale(1 1) translate(0, 0) scale(8.261311618144088 8.261311618144088) "><sodipodi:namedview xmlns:sodipodi="http://sodipodi.sourceforge.net/DTD/sodipodi-0.dtd" xmlns:inkscape="http://www.inkscape.org/namespaces/inkscape" id="namedview7" pagecolor="#ffffff" bordercolor="#999999" borderopacity="1" inkscape:pageshadow="0" inkscape:pageopacity="0" inkscape:pagecheckerboard="0" inkscape:document-units="mm" showgrid="false" fit-margin-top="0" fit-margin-left="0" fit-margin-right="0" fit-margin-bottom="0" inkscape:zoom="0.64052329" inkscape:cx="130.36216" inkscape:cy="412.163" inkscape:window-width="1512" inkscape:window-height="916" inkscape:window-x="3840" inkscape:window-y="136" inkscape:window-maximized="0" inkscape:current-layer="layer1"/>
  <defs id="defs2">
    <clipPath clipPathUnits="userSpaceOnUse" id="clipPath23">
      <path d="M 0,568.156 H 579.236 V 0 H 0 Z" id="path21"/>
    </clipPath>
  </defs>
  <g xmlns:inkscape="http://www.inkscape.org/namespaces/inkscape" inkscape:label="Layer 1" inkscape:groupmode="layer" id="layer1" transform="translate(-16.541937,-55.305267)">
    <g id="g19" clip-path="url(#clipPath23)" transform="matrix(0.35277777,0,0,-0.35277777,0.01017023,243.73675)" style="opacity:0.2">
      <g id="g25" transform="translate(122.444,32.7195)">
        <path d="m 0,0 h -56.104 c -11,0 -19.898,9.123 -19.463,20.115 10.594,267.191 231.277,481.302 501.029,481.302 v -56.02 c 0,-10.98 -8.688,-19.892 -19.658,-20.393 C 180.29,414.697 0,228.005 0,0" style="fill:#6ead83;fill-opacity:0.5;fill-rule:nonzero;stroke:none" id="path27"/>
      </g>
      <g id="g29" transform="translate(273.7828,32.7195)">
        <path d="m 0,0 h -55.926 c -11.228,0 -20.091,9.482 -19.435,20.69 10.744,183.439 163.389,329.388 349.485,329.388 v -56.263 c 0,-10.709 -8.273,-19.617 -18.957,-20.35 C 112.819,263.696 0,144.774 0,0" style="fill:#6ead83;fill-opacity:0.5;fill-rule:nonzero;stroke:none" id="path31"/>
      </g>
      <g id="g33" transform="translate(425.7667,32.7195)">
        <path d="m 0,0 h -55.445 c -11.653,0 -20.604,10.17 -19.334,21.753 10.866,99.032 95.031,176.341 196.919,176.341 v -57.011 c 0,-10.046 -7.283,-18.755 -17.229,-20.165 C 45.688,112.522 0,61.497 0,0" style="fill:#6ead83;fill-opacity:0.5;fill-rule:nonzero;stroke:none" id="path35"/>
      </g>
    </g>
  </g>
</g>
    <svg width="1413pt" height="1370pt" viewBox="0.00 0.00 1413.02 1369.98">
<g id="graph0" class="graph" transform="scale(1 1) rotate(0) translate(4 1365.98)">
<title>D</title>
<text text-anchor="start" x="156.13" y="-1341.88" font-family="Times,serif" font-weight="bold" font-size="18.00">7.17 AD: Aktivierung eines MaBiS-ZP f&#252;r Bilanzierungsgebietssummenzeitreihen vom &#220;NB an BIKO und NB</text>
<text text-anchor="start" x="501.13" y="-1311.78" font-family="Times,serif" font-weight="bold" font-size="16.00">7.17.1 E_0015_MaBiS-ZP Aktivierung pr&#252;fen</text>
<!-- Start -->
<g id="node1" class="node">
<title>Start</title>
<polygon fill="#7a8da1" stroke="black" points="395.39,-1263.98 221.09,-1263.98 221.09,-1220.7 395.39,-1220.7 395.39,-1263.98"/>
<text text-anchor="start" x="280.12" y="-1243.04" font-family="Times,serif" font-weight="bold" font-size="14.00">E_0015</text>
<text text-anchor="start" x="235.49" y="-1230.94" font-family="Times,serif" font-weight="bold" text-decoration="underline" font-size="12.00">Pr&#252;fende Rolle:</text>
<text text-anchor="start" x="340.49" y="-1230.94" font-family="Times,serif" font-weight="bold" font-size="12.00"> BIKO</text>
</g>
<!-- 1 -->
<g id="node2" class="node">
<title>1</title>
<path fill="#7aab8a" stroke="black" d="M560.76,-1183.7C560.76,-1183.7 55.72,-1183.7 55.72,-1183.7 49.72,-1183.7 43.72,-1177.7 43.72,-1171.7 43.72,-1171.7 43.72,-1159.7 43.72,-1159.7 43.72,-1153.7 49.72,-1147.7 55.72,-1147.7 55.72,-1147.7 560.76,-1147.7 560.76,-1147.7 566.76,-1147.7 572.76,-1153.7 572.76,-1159.7 572.76,-1159.7 572.76,-1171.7 572.76,-1171.7 572.76,-1177.7 566.76,-1183.7 560.76,-1183.7"/>
<text text-anchor="start" x="58.12" y="-1162.03" font-family="Times,serif" font-weight="bold" font-size="14.00">1: </text>
<text text-anchor="start" x="77.62" y="-1162.03" font-family="Times,serif" font-size="14.00">Erfolgt die Aktivierung nach Ablauf der Clearingfrist f&#252;r die KBKA?</text>
</g>
<!-- Start&#45;&gt;1 -->
<g id="edge1" class="edge">
<title>Start-&gt;1</title>
<path fill="none" stroke="black" d="M308.24,-1220.55C308.24,-1212.69 308.24,-1203.61 308.24,-1195.17"/>
<polygon fill="black" stroke="black" points="311.74,-1195.37 308.24,-1185.37 304.74,-1195.37 311.74,-1195.37"/>
</g>
<!-- A01 -->
<g id="node3" class="node">
<title>A01</title>
<polygon fill="#cfb986" stroke="black" points="144.48,-1094.45 0,-1094.45 0,-1032.93 144.48,-1032.93 144.48,-1094.45"/>
<text text-anchor="start" x="57.24" y="-1076.39" font-family="Times,serif" font-weight="bold" font-size="14.00">A01</text>
<text text-anchor="start" x="12.24" y="-1064.29" font-family="Times,serif" text-decoration="underline" font-size="12.00">Hinweis:</text>
<text text-anchor="start" x="12.24" y="-1052.29" font-family="Times,serif" font-size="12.00">Cluster Ablehnung</text>
<text text-anchor="start" x="12.24" y="-1040.29" font-family="Times,serif" font-size="12.00">Frist&#252;berschreitung</text>
</g>
<!-- 1&#45;&gt;A01 -->
<g id="edge2" class="edge">
<title>1-&gt;A01</title>
<path fill="none" stroke="black" d="M267.13,-1147.28C235.85,-1134.03 191.81,-1115.36 153.51,-1099.13"/>
<polygon fill="black" stroke="black" points="155.35,-1096.11 144.78,-1095.43 152.62,-1102.56 155.35,-1096.11"/>
<text text-anchor="middle" x="230.99" y="-1116.4" font-family="Times,serif" font-size="14.00">Ja</text>
</g>
<!-- 2 -->
<g id="node4" class="node">
<title>2</title>
<path fill="#7aab8a" stroke="black" d="M585.89,-1081.69C585.89,-1081.69 174.59,-1081.69 174.59,-1081.69 168.59,-1081.69 162.59,-1075.69 162.59,-1069.69 162.59,-1069.69 162.59,-1057.69 162.59,-1057.69 162.59,-1051.69 168.59,-1045.69 174.59,-1045.69 174.59,-1045.69 585.89,-1045.69 585.89,-1045.69 591.89,-1045.69 597.89,-1051.69 597.89,-1057.69 597.89,-1057.69 597.89,-1069.69 597.89,-1069.69 597.89,-1075.69 591.89,-1081.69 585.89,-1081.69"/>
<text text-anchor="start" x="176.99" y="-1060.02" font-family="Times,serif" font-weight="bold" font-size="14.00">2: </text>
<text text-anchor="start" x="196.49" y="-1060.02" font-family="Times,serif" font-size="14.00">Erfolgt die Aktivierung zum Monatsersten 00:00 Uhr?</text>
</g>
<!-- 1&#45;&gt;2 -->
<g id="edge3" class="edge">
<title>1-&gt;2</title>
<path fill="none" stroke="black" d="M320.78,-1147.28C331.93,-1131.79 348.4,-1108.92 361.18,-1091.17"/>
<polygon fill="black" stroke="black" points="363.96,-1093.3 366.96,-1083.14 358.27,-1089.21 363.96,-1093.3"/>
<text text-anchor="middle" x="361.12" y="-1116.4" font-family="Times,serif" font-size="14.00">Nein</text>
</g>
<!-- A02 -->
<g id="node5" class="node">
<title>A02</title>
<polygon fill="#cfb986" stroke="black" points="260.48,-979.68 26,-979.68 26,-918.16 260.48,-918.16 260.48,-979.68"/>
<text text-anchor="start" x="128.24" y="-961.62" font-family="Times,serif" font-weight="bold" font-size="14.00">A02</text>
<text text-anchor="start" x="38.24" y="-949.52" font-family="Times,serif" text-decoration="underline" font-size="12.00">Hinweis:</text>
<text text-anchor="start" x="38.24" y="-937.52" font-family="Times,serif" font-size="12.00">Cluster Ablehnung</text>
<text text-anchor="start" x="38.24" y="-925.52" font-family="Times,serif" font-size="12.00">Gew&#228;hlter Zeitpunkt nicht zul&#228;ssig</text>
</g>
<!-- 2&#45;&gt;A02 -->
<g id="edge4" class="edge">
<title>2-&gt;A02</title>
<path fill="none" stroke="black" d="M343.47,-1045.19C309.72,-1029.13 258.72,-1004.87 216.64,-984.84"/>
<polygon fill="black" stroke="black" points="218.33,-981.77 207.79,-980.64 215.32,-988.09 218.33,-981.77"/>
<text text-anchor="middle" x="292.12" y="-1001.63" font-family="Times,serif" font-size="14.00">Nein</text>
</g>
<!-- 3 -->
<g id="node6" class="node">
<title>3</title>
<path fill="#7aab8a" stroke="black" d="M580.14,-966.92C580.14,-966.92 290.34,-966.92 290.34,-966.92 284.34,-966.92 278.34,-960.92 278.34,-954.92 278.34,-954.92 278.34,-942.92 278.34,-942.92 278.34,-936.92 284.34,-930.92 290.34,-930.92 290.34,-930.92 580.14,-930.92 580.14,-930.92 586.14,-930.92 592.14,-936.92 592.14,-942.92 592.14,-942.92 592.14,-954.92 592.14,-954.92 592.14,-960.92 586.14,-966.92 580.14,-966.92"/>
<text text-anchor="start" x="292.74" y="-945.25" font-family="Times,serif" font-weight="bold" font-size="14.00">3: </text>
<text text-anchor="start" x="312.24" y="-945.25" font-family="Times,serif" font-size="14.00">Ist die richtige Regelzone angegeben</text>
</g>
<!-- 2&#45;&gt;3 -->
<g id="edge5" class="edge">
<title>2-&gt;3</title>
<path fill="none" stroke="black" d="M388.59,-1045.56C397.4,-1027.51 411.4,-998.81 421.76,-977.55"/>
<polygon fill="black" stroke="black" points="424.91,-979.09 426.14,-968.57 418.62,-976.02 424.91,-979.09"/>
<text text-anchor="middle" x="416.99" y="-1001.63" font-family="Times,serif" font-size="14.00">Ja</text>
</g>
<!-- A03 -->
<g id="node7" class="node">
<title>A03</title>
<polygon fill="#cfb986" stroke="black" points="143.35,-864.91 7.12,-864.91 7.12,-803.39 143.35,-803.39 143.35,-864.91"/>
<text text-anchor="start" x="60.24" y="-846.85" font-family="Times,serif" font-weight="bold" font-size="14.00">A03</text>
<text text-anchor="start" x="19.36" y="-834.75" font-family="Times,serif" text-decoration="underline" font-size="12.00">Hinweis:</text>
<text text-anchor="start" x="19.36" y="-822.75" font-family="Times,serif" font-size="12.00">Cluster Ablehnung</text>
<text text-anchor="start" x="19.36" y="-810.75" font-family="Times,serif" font-size="12.00">Regelzone falsch</text>
</g>
<!-- 3&#45;&gt;A03 -->
<g id="edge6" class="edge">
<title>3-&gt;A03</title>
<path fill="none" stroke="black" d="M370.13,-930.49C314.93,-915.33 233.55,-892.1 154.23,-865.5"/>
<polygon fill="black" stroke="black" points="155.59,-862.27 145,-862.38 153.35,-868.9 155.59,-862.27"/>
<text text-anchor="middle" x="277.12" y="-886.86" font-family="Times,serif" font-size="14.00">Nein</text>
</g>
<!-- 4 -->
<g id="node8" class="node">
<title>4</title>
<path fill="#7aab8a" stroke="black" d="M821.01,-852.15C821.01,-852.15 173.47,-852.15 173.47,-852.15 167.47,-852.15 161.47,-846.15 161.47,-840.15 161.47,-840.15 161.47,-828.15 161.47,-828.15 161.47,-822.15 167.47,-816.15 173.47,-816.15 173.47,-816.15 821.01,-816.15 821.01,-816.15 827.01,-816.15 833.01,-822.15 833.01,-828.15 833.01,-828.15 833.01,-840.15 833.01,-840.15 833.01,-846.15 827.01,-852.15 821.01,-852.15"/>
<text text-anchor="start" x="175.87" y="-830.48" font-family="Times,serif" font-weight="bold" font-size="14.00">4: </text>
<text text-anchor="start" x="195.37" y="-830.48" font-family="Times,serif" font-size="14.00">Ist das Bilanzierungsgebiet zum Aktivierungsbeginn in der Regelzone des BIKO g&#252;ltig?</text>
</g>
<!-- 3&#45;&gt;4 -->
<g id="edge7" class="edge">
<title>3-&gt;4</title>
<path fill="none" stroke="black" d="M444.66,-930.79C454.63,-912.66 470.51,-883.78 482.21,-862.49"/>
<polygon fill="black" stroke="black" points="485.25,-864.21 487.01,-853.76 479.12,-860.84 485.25,-864.21"/>
<text text-anchor="middle" x="475.99" y="-886.86" font-family="Times,serif" font-size="14.00">Ja</text>
</g>
<!-- A04 -->
<g id="node9" class="node">
<title>A04</title>
<polygon fill="#cfb986" stroke="black" points="275.11,-750.14 59.38,-750.14 59.38,-688.62 275.11,-688.62 275.11,-750.14"/>
<text text-anchor="start" x="152.24" y="-732.08" font-family="Times,serif" font-weight="bold" font-size="14.00">A04</text>
<text text-anchor="start" x="71.62" y="-719.98" font-family="Times,serif" text-decoration="underline" font-size="12.00">Hinweis:</text>
<text text-anchor="start" x="71.62" y="-707.98" font-family="Times,serif" font-size="12.00">Cluster Ablehnung</text>
<text text-anchor="start" x="71.62" y="-695.98" font-family="Times,serif" font-size="12.00">Bilanzierungsgebiet nicht g&#252;ltig</text>
</g>
<!-- 4&#45;&gt;A04 -->
<g id="edge8" class="edge">
<title>4-&gt;A04</title>
<path fill="none" stroke="black" d="M446.04,-815.65C398.23,-799.32 325.58,-774.49 266.42,-754.27"/>
<polygon fill="black" stroke="black" points="267.57,-750.97 256.98,-751.05 265.31,-757.59 267.57,-750.97"/>
<text text-anchor="middle" x="368.12" y="-772.09" font-family="Times,serif" font-size="14.00">Nein</text>
</g>
<!-- 5 -->
<g id="node10" class="node">
<title>5</title>
<path fill="#7aab8a" stroke="black" d="M878.89,-737.38C878.89,-737.38 305.59,-737.38 305.59,-737.38 299.59,-737.38 293.59,-731.38 293.59,-725.38 293.59,-725.38 293.59,-713.38 293.59,-713.38 293.59,-707.38 299.59,-701.38 305.59,-701.38 305.59,-701.38 878.89,-701.38 878.89,-701.38 884.89,-701.38 890.89,-707.38 890.89,-713.38 890.89,-713.38 890.89,-725.38 890.89,-725.38 890.89,-731.38 884.89,-737.38 878.89,-737.38"/>
<text text-anchor="start" x="307.99" y="-715.71" font-family="Times,serif" font-weight="bold" font-size="14.00">5: </text>
<text text-anchor="start" x="327.49" y="-715.71" font-family="Times,serif" font-size="14.00">Ist der &#220;NB zum Aktivierungsbeginn f&#252;r das Bilanzierungsgebiet zust&#228;ndig?</text>
</g>
<!-- 4&#45;&gt;5 -->
<g id="edge9" class="edge">
<title>4-&gt;5</title>
<path fill="none" stroke="black" d="M511.67,-816.02C527.29,-797.48 552.39,-767.68 570.43,-746.27"/>
<polygon fill="black" stroke="black" points="572.93,-748.73 576.7,-738.83 567.58,-744.22 572.93,-748.73"/>
<text text-anchor="middle" x="556.99" y="-772.09" font-family="Times,serif" font-size="14.00">Ja</text>
</g>
<!-- A05 -->
<g id="node11" class="node">
<title>A05</title>
<polygon fill="#cfb986" stroke="black" points="448.73,-635.37 305.75,-635.37 305.75,-573.85 448.73,-573.85 448.73,-635.37"/>
<text text-anchor="start" x="362.24" y="-617.31" font-family="Times,serif" font-weight="bold" font-size="14.00">A05</text>
<text text-anchor="start" x="317.99" y="-605.21" font-family="Times,serif" text-decoration="underline" font-size="12.00">Hinweis:</text>
<text text-anchor="start" x="317.99" y="-593.21" font-family="Times,serif" font-size="12.00">Cluster Ablehnung</text>
<text text-anchor="start" x="317.99" y="-581.21" font-family="Times,serif" font-size="12.00">Keine Berechtigung</text>
</g>
<!-- 5&#45;&gt;A05 -->
<g id="edge10" class="edge">
<title>5-&gt;A05</title>
<path fill="none" stroke="black" d="M559.12,-701.01C528.73,-685.07 482.8,-660.98 444.7,-640.99"/>
<polygon fill="black" stroke="black" points="446.51,-637.99 436.03,-636.44 443.26,-644.19 446.51,-637.99"/>
<text text-anchor="middle" x="514.12" y="-657.32" font-family="Times,serif" font-size="14.00">Nein</text>
</g>
<!-- 6 -->
<g id="node12" class="node">
<title>6</title>
<path fill="#7aab8a" stroke="black" d="M1001.39,-622.61C1001.39,-622.61 479.09,-622.61 479.09,-622.61 473.09,-622.61 467.09,-616.61 467.09,-610.61 467.09,-610.61 467.09,-598.61 467.09,-598.61 467.09,-592.61 473.09,-586.61 479.09,-586.61 479.09,-586.61 1001.39,-586.61 1001.39,-586.61 1007.39,-586.61 1013.39,-592.61 1013.39,-598.61 1013.39,-598.61 1013.39,-610.61 1013.39,-610.61 1013.39,-616.61 1007.39,-622.61 1001.39,-622.61"/>
<text text-anchor="start" x="481.49" y="-600.94" font-family="Times,serif" font-weight="bold" font-size="14.00">6: </text>
<text text-anchor="start" x="500.99" y="-600.94" font-family="Times,serif" font-size="14.00">Existiert bereits ein abweichendes Tupel unter der ID des MaBiS-ZP?</text>
</g>
<!-- 5&#45;&gt;6 -->
<g id="edge11" class="edge">
<title>5-&gt;6</title>
<path fill="none" stroke="black" d="M615.04,-701.01C640.1,-681.91 680.53,-651.11 708.64,-629.69"/>
<polygon fill="black" stroke="black" points="710.62,-632.58 716.45,-623.74 706.38,-627.01 710.62,-632.58"/>
<text text-anchor="middle" x="680.99" y="-657.32" font-family="Times,serif" font-size="14.00">Ja</text>
</g>
<!-- A06 -->
<g id="node13" class="node">
<title>A06</title>
<polygon fill="#cfb986" stroke="black" points="461.86,-520.6 172.62,-520.6 172.62,-459.08 461.86,-459.08 461.86,-520.6"/>
<text text-anchor="start" x="302.24" y="-502.54" font-family="Times,serif" font-weight="bold" font-size="14.00">A06</text>
<text text-anchor="start" x="184.87" y="-490.44" font-family="Times,serif" text-decoration="underline" font-size="12.00">Hinweis:</text>
<text text-anchor="start" x="184.87" y="-478.44" font-family="Times,serif" font-size="12.00">Cluster Ablehnung</text>
<text text-anchor="start" x="184.87" y="-466.44" font-family="Times,serif" font-size="12.00">Abweichender MaBiS-ZP bereits vorhanden</text>
</g>
<!-- 6&#45;&gt;A06 -->
<g id="edge12" class="edge">
<title>6-&gt;A06</title>
<path fill="none" stroke="black" d="M674.61,-586.11C612.57,-569.57 517.88,-544.33 441.55,-523.98"/>
<polygon fill="black" stroke="black" points="442.46,-520.6 431.89,-521.41 440.65,-527.36 442.46,-520.6"/>
<text text-anchor="middle" x="559.99" y="-542.55" font-family="Times,serif" font-size="14.00">Ja</text>
</g>
<!-- 7 -->
<g id="node14" class="node">
<title>7</title>
<path fill="#7aab8a" stroke="black" d="M1212.39,-512.48C1212.39,-512.48 492.09,-512.48 492.09,-512.48 486.09,-512.48 480.09,-506.48 480.09,-500.48 480.09,-500.48 480.09,-479.2 480.09,-479.2 480.09,-473.2 486.09,-467.2 492.09,-467.2 492.09,-467.2 1212.39,-467.2 1212.39,-467.2 1218.39,-467.2 1224.39,-473.2 1224.39,-479.2 1224.39,-479.2 1224.39,-500.48 1224.39,-500.48 1224.39,-506.48 1218.39,-512.48 1212.39,-512.48"/>
<text text-anchor="start" x="494.49" y="-491.54" font-family="Times,serif" font-weight="bold" font-size="14.00">7: </text>
<text text-anchor="start" x="513.99" y="-491.54" font-family="Times,serif" font-size="14.00">Existiert bereits f&#252;r das genannte Tupel aus Aggregations-verantwortlicher, Bilanzierungsgebiet,</text>
<text text-anchor="start" x="494.49" y="-477.54" font-family="Times,serif" font-size="14.00">Spannungsebene und ZRT eine abweichende ID des MaBiS-ZP?</text>
</g>
<!-- 6&#45;&gt;7 -->
<g id="edge13" class="edge">
<title>6-&gt;7</title>
<path fill="none" stroke="black" d="M757.25,-586.48C774.54,-569.08 801.67,-541.76 822.51,-520.77"/>
<polygon fill="black" stroke="black" points="824.82,-523.42 829.38,-513.86 819.85,-518.49 824.82,-523.42"/>
<text text-anchor="middle" x="819.12" y="-542.55" font-family="Times,serif" font-size="14.00">Nein</text>
</g>
<!-- A07 -->
<g id="node15" class="node">
<title>A07</title>
<polygon fill="#cfb986" stroke="black" points="797.11,-405.83 467.38,-405.83 467.38,-344.31 797.11,-344.31 797.11,-405.83"/>
<text text-anchor="start" x="617.24" y="-387.77" font-family="Times,serif" font-weight="bold" font-size="14.00">A07</text>
<text text-anchor="start" x="479.62" y="-375.67" font-family="Times,serif" text-decoration="underline" font-size="12.00">Hinweis:</text>
<text text-anchor="start" x="479.62" y="-363.67" font-family="Times,serif" font-size="12.00">Cluster Ablehnung</text>
<text text-anchor="start" x="479.62" y="-351.67" font-family="Times,serif" font-size="12.00">Abweichende ID zum MaBiS-ZP bereits vorhanden</text>
</g>
<!-- 7&#45;&gt;A07 -->
<g id="edge14" class="edge">
<title>7-&gt;A07</title>
<path fill="none" stroke="black" d="M809.3,-466.83C778.44,-451.01 736.19,-429.35 700.7,-411.16"/>
<polygon fill="black" stroke="black" points="702.73,-408.27 692.23,-406.82 699.54,-414.5 702.73,-408.27"/>
<text text-anchor="middle" x="761.99" y="-427.78" font-family="Times,serif" font-size="14.00">Ja</text>
</g>
<!-- 8 -->
<g id="node16" class="node">
<title>8</title>
<path fill="#7aab8a" stroke="black" d="M1202.89,-393.07C1202.89,-393.07 827.59,-393.07 827.59,-393.07 821.59,-393.07 815.59,-387.07 815.59,-381.07 815.59,-381.07 815.59,-369.07 815.59,-369.07 815.59,-363.07 821.59,-357.07 827.59,-357.07 827.59,-357.07 1202.89,-357.07 1202.89,-357.07 1208.89,-357.07 1214.89,-363.07 1214.89,-369.07 1214.89,-369.07 1214.89,-381.07 1214.89,-381.07 1214.89,-387.07 1208.89,-393.07 1202.89,-393.07"/>
<text text-anchor="start" x="829.99" y="-371.39" font-family="Times,serif" font-weight="bold" font-size="14.00">8: </text>
<text text-anchor="start" x="849.49" y="-371.39" font-family="Times,serif" font-size="14.00">Ist der &#220;NB zur Aktivierung des ZRT berechtigt?</text>
</g>
<!-- 7&#45;&gt;8 -->
<g id="edge15" class="edge">
<title>7-&gt;8</title>
<path fill="none" stroke="black" d="M884.05,-466.83C911.94,-447.54 952.37,-419.56 980.97,-399.78"/>
<polygon fill="black" stroke="black" points="982.7,-402.84 988.93,-394.27 978.71,-397.08 982.7,-402.84"/>
<text text-anchor="middle" x="960.12" y="-427.78" font-family="Times,serif" font-size="14.00">Nein</text>
</g>
<!-- A08 -->
<g id="node17" class="node">
<title>A08</title>
<polygon fill="#cfb986" stroke="black" points="929.86,-291.06 706.62,-291.06 706.62,-229.54 929.86,-229.54 929.86,-291.06"/>
<text text-anchor="start" x="803.24" y="-273" font-family="Times,serif" font-weight="bold" font-size="14.00">A08</text>
<text text-anchor="start" x="718.87" y="-260.9" font-family="Times,serif" text-decoration="underline" font-size="12.00">Hinweis:</text>
<text text-anchor="start" x="718.87" y="-248.9" font-family="Times,serif" font-size="12.00">Cluster Ablehnung</text>
<text text-anchor="start" x="718.87" y="-236.9" font-family="Times,serif" font-size="12.00">ZRT Aktivierung nicht berechtigt</text>
</g>
<!-- 8&#45;&gt;A08 -->
<g id="edge16" class="edge">
<title>8-&gt;A08</title>
<path fill="none" stroke="black" d="M984.89,-356.7C957.17,-340.83 915.32,-316.87 880.5,-296.94"/>
<polygon fill="black" stroke="black" points="882.61,-294.11 872.19,-292.18 879.13,-300.19 882.61,-294.11"/>
<text text-anchor="middle" x="945.12" y="-313.01" font-family="Times,serif" font-size="14.00">Nein</text>
</g>
<!-- 9 -->
<g id="node18" class="node">
<title>9</title>
<path fill="#7aab8a" stroke="black" d="M1235.02,-278.3C1235.02,-278.3 959.47,-278.3 959.47,-278.3 953.47,-278.3 947.47,-272.3 947.47,-266.3 947.47,-266.3 947.47,-254.3 947.47,-254.3 947.47,-248.3 953.47,-242.3 959.47,-242.3 959.47,-242.3 1235.02,-242.3 1235.02,-242.3 1241.02,-242.3 1247.02,-248.3 1247.02,-254.3 1247.02,-254.3 1247.02,-266.3 1247.02,-266.3 1247.02,-272.3 1241.02,-278.3 1235.02,-278.3"/>
<text text-anchor="start" x="961.87" y="-256.62" font-family="Times,serif" font-weight="bold" font-size="14.00">9: </text>
<text text-anchor="start" x="981.37" y="-256.62" font-family="Times,serif" font-size="14.00">Passt die OBIS-Kennzahl zum ZRT?</text>
</g>
<!-- 8&#45;&gt;9 -->
<g id="edge17" class="edge">
<title>8-&gt;9</title>
<path fill="none" stroke="black" d="M1027.69,-356.94C1041.06,-338.56 1062.46,-309.13 1077.99,-287.77"/>
<polygon fill="black" stroke="black" points="1080.73,-289.96 1083.78,-279.81 1075.07,-285.84 1080.73,-289.96"/>
<text text-anchor="middle" x="1066.99" y="-313.01" font-family="Times,serif" font-size="14.00">Ja</text>
</g>
<!-- A09 -->
<g id="node19" class="node">
<title>A09</title>
<polygon fill="#cfb986" stroke="black" points="853.36,-176.29 711.12,-176.29 711.12,-114.77 853.36,-114.77 853.36,-176.29"/>
<text text-anchor="start" x="767.24" y="-158.23" font-family="Times,serif" font-weight="bold" font-size="14.00">A09</text>
<text text-anchor="start" x="723.37" y="-146.13" font-family="Times,serif" text-decoration="underline" font-size="12.00">Hinweis:</text>
<text text-anchor="start" x="723.37" y="-134.13" font-family="Times,serif" font-size="12.00">Cluster Ablehnung</text>
<text text-anchor="start" x="723.37" y="-122.13" font-family="Times,serif" font-size="12.00">OBIS nicht passend</text>
</g>
<!-- 9&#45;&gt;A09 -->
<g id="edge18" class="edge">
<title>9-&gt;A09</title>
<path fill="none" stroke="black" d="M1047.19,-241.89C1001.88,-226.07 933.03,-201.88 864.32,-177.03"/>
<polygon fill="black" stroke="black" points="865.77,-173.83 855.17,-173.71 863.38,-180.41 865.77,-173.83"/>
<text text-anchor="middle" x="975.12" y="-198.24" font-family="Times,serif" font-size="14.00">Nein</text>
</g>
<!-- 10 -->
<g id="node20" class="node">
<title>10</title>
<path fill="#7aab8a" stroke="black" d="M1393.01,-163.53C1393.01,-163.53 883.47,-163.53 883.47,-163.53 877.47,-163.53 871.47,-157.53 871.47,-151.53 871.47,-151.53 871.47,-139.53 871.47,-139.53 871.47,-133.53 877.47,-127.53 883.47,-127.53 883.47,-127.53 1393.01,-127.53 1393.01,-127.53 1399.01,-127.53 1405.01,-133.53 1405.01,-139.53 1405.01,-139.53 1405.01,-151.53 1405.01,-151.53 1405.01,-157.53 1399.01,-163.53 1393.01,-163.53"/>
<text text-anchor="start" x="885.87" y="-141.85" font-family="Times,serif" font-weight="bold" font-size="14.00">10: </text>
<text text-anchor="start" x="915.12" y="-141.85" font-family="Times,serif" font-size="14.00">Ist der MaBiS-ZP zum Zeitpunkt der Aktivierung bereits aktiviert?</text>
</g>
<!-- 9&#45;&gt;10 -->
<g id="edge19" class="edge">
<title>9-&gt;10</title>
<path fill="none" stroke="black" d="M1103.47,-242.17C1110,-224.21 1120.37,-195.68 1128.09,-174.45"/>
<polygon fill="black" stroke="black" points="1131.31,-175.84 1131.44,-165.24 1124.73,-173.44 1131.31,-175.84"/>
<text text-anchor="middle" x="1125.99" y="-198.24" font-family="Times,serif" font-size="14.00">Ja</text>
</g>
<!-- A10 -->
<g id="node21" class="node">
<title>A10</title>
<polygon fill="#cfb986" stroke="black" points="1122.11,-61.52 936.38,-61.52 936.38,0 1122.11,0 1122.11,-61.52"/>
<text text-anchor="start" x="1014.24" y="-43.46" font-family="Times,serif" font-weight="bold" font-size="14.00">A10</text>
<text text-anchor="start" x="948.62" y="-31.36" font-family="Times,serif" text-decoration="underline" font-size="12.00">Hinweis:</text>
<text text-anchor="start" x="948.62" y="-19.36" font-family="Times,serif" font-size="12.00">Cluster Ablehnung</text>
<text text-anchor="start" x="948.62" y="-7.36" font-family="Times,serif" font-size="12.00">MaBiS-ZP bereits aktiviert</text>
</g>
<!-- 10&#45;&gt;A10 -->
<g id="edge20" class="edge">
<title>10-&gt;A10</title>
<path fill="none" stroke="black" d="M1121.69,-127.4C1106.99,-112.2 1084.99,-89.44 1066.13,-69.93"/>
<polygon fill="black" stroke="black" points="1068.8,-67.65 1059.33,-62.89 1063.76,-72.51 1068.8,-67.65"/>
<text text-anchor="middle" x="1096.99" y="-83.47" font-family="Times,serif" font-size="14.00">Ja</text>
</g>
<!-- A11 -->
<g id="node22" class="node">
<title>A11</title>
<polygon fill="#cfb986" stroke="black" points="1318.36,-61.52 1140.12,-61.52 1140.12,0 1318.36,0 1318.36,-61.52"/>
<text text-anchor="start" x="1214.24" y="-43.46" font-family="Times,serif" font-weight="bold" font-size="14.00">A11</text>
<text text-anchor="start" x="1152.37" y="-31.36" font-family="Times,serif" text-decoration="underline" font-size="12.00">Hinweis:</text>
<text text-anchor="start" x="1152.37" y="-19.36" font-family="Times,serif" font-size="12.00">Cluster: Zustimmung</text>
<text text-anchor="start" x="1152.37" y="-7.36" font-family="Times,serif" font-size="12.00">Aktivierung durchgef&#252;hrt</text>
</g>
<!-- 10&#45;&gt;A11 -->
<g id="edge21" class="edge">
<title>10-&gt;A11</title>
<path fill="none" stroke="black" d="M1152.06,-127.4C1164.17,-112.4 1182.21,-90.04 1197.8,-70.72"/>
<polygon fill="black" stroke="black" points="1200.49,-72.96 1204.05,-62.98 1195.04,-68.56 1200.49,-72.96"/>
<text text-anchor="middle" x="1205.12" y="-83.47" font-family="Times,serif" font-size="14.00">Nein</text>
</g>
</g>
</svg>
  </g>
</svg>
  </g>
</svg>
