<?xml version="1.0" encoding="UTF-8" standalone="no"?>
<!DOCTYPE svg PUBLIC "-//W3C//DTD SVG 1.1//EN"
 "http://www.w3.org/Graphics/SVG/1.1/DTD/svg11.dtd">
<!-- Generated by graphviz version 9.0.0 (20230911.1827)
 -->
<!-- Title: D Pages: 1 -->
<svg width="1052pt" height="428pt"
 viewBox="0.00 0.00 1051.50 427.82" xmlns="http://www.w3.org/2000/svg" xmlns:xlink="http://www.w3.org/1999/xlink">
<g id="graph0" class="graph" transform="scale(1 1) rotate(0) translate(4 423.82)">
<title>D</title>
<text text-anchor="start" x="8" y="-399.72" font-family="Roboto, sans-serif" font-weight="bold" font-size="18.00">7.39 AD: Bestellung der Aggregationsebene der Bilanzkreissummenzeitreihe auf Ebene der Regelzone</text>
<text text-anchor="start" x="8" y="-369.62" font-family="Roboto, sans-serif" font-weight="bold" font-size="16.00">7.39.1 E_0003_Bestellung der Aggregationsebene RZ prüfen</text>
<!-- Start -->
<g id="node1" class="node">
<title>Start</title>
<path fill="#7a8da1" stroke="black" stroke-width="0" d="M511.13,-321.82C511.13,-321.82 369.83,-321.82 369.83,-321.82 363.83,-321.82 357.83,-315.82 357.83,-309.82 357.83,-309.82 357.83,-290.54 357.83,-290.54 357.83,-284.54 363.83,-278.54 369.83,-278.54 369.83,-278.54 511.13,-278.54 511.13,-278.54 517.13,-278.54 523.13,-284.54 523.13,-290.54 523.13,-290.54 523.13,-309.82 523.13,-309.82 523.13,-315.82 517.13,-321.82 511.13,-321.82"/>
<text text-anchor="start" x="412.73" y="-300.88" font-family="Roboto, sans-serif" font-weight="bold" font-size="14.00">E_0003</text>
<text text-anchor="start" x="372.23" y="-288.78" font-family="Roboto, sans-serif" font-weight="bold" text-decoration="underline" font-size="12.00">Prüfende Rolle:</text>
<text text-anchor="start" x="475.73" y="-288.78" font-family="Roboto, sans-serif" font-weight="bold" font-size="12.00"> ÜNB</text>
</g>
<!-- 1 -->
<g id="node2" class="node">
<title>1</title>
<path fill="#7aab8a" stroke="black" stroke-width="0" d="M619.51,-241.54C619.51,-241.54 261.46,-241.54 261.46,-241.54 255.46,-241.54 249.46,-235.54 249.46,-229.54 249.46,-229.54 249.46,-217.54 249.46,-217.54 249.46,-211.54 255.46,-205.54 261.46,-205.54 261.46,-205.54 619.51,-205.54 619.51,-205.54 625.51,-205.54 631.51,-211.54 631.51,-217.54 631.51,-217.54 631.51,-229.54 631.51,-229.54 631.51,-235.54 625.51,-241.54 619.51,-241.54"/>
<text text-anchor="start" x="263.86" y="-219.86" font-family="Roboto, sans-serif" font-weight="bold" font-size="14.00">1: </text>
<text text-anchor="start" x="283.36" y="-219.86" font-family="Roboto, sans-serif" font-size="14.00">Erfolgt der Eingang der Bestellung fristgerecht?</text>
</g>
<!-- Start&#45;&gt;1 -->
<g id="edge1" class="edge">
<title>Start&#45;&gt;1</title>
<path fill="none" stroke="black" d="M440.48,-278.78C440.48,-270.71 440.48,-261.3 440.48,-252.61"/>
<polygon fill="black" stroke="black" points="443.98,-252.9 440.48,-242.9 436.98,-252.9 443.98,-252.9"/>
</g>
<!-- A01 -->
<g id="node3" class="node">
<title>A01</title>
<path fill="#cfb986" stroke="black" stroke-width="0" d="M363.1,-152.29C363.1,-152.29 247.87,-152.29 247.87,-152.29 241.87,-152.29 235.87,-146.29 235.87,-140.29 235.87,-140.29 235.87,-114.77 235.87,-114.77 235.87,-108.77 241.87,-102.77 247.87,-102.77 247.87,-102.77 363.1,-102.77 363.1,-102.77 369.1,-102.77 375.1,-108.77 375.1,-114.77 375.1,-114.77 375.1,-140.29 375.1,-140.29 375.1,-146.29 369.1,-152.29 363.1,-152.29"/>
<text text-anchor="start" x="248.11" y="-134.23" font-family="Roboto, sans-serif" font-weight="bold" font-size="14.00">A01</text>
<text text-anchor="start" x="248.11" y="-122.13" font-family="Roboto, sans-serif" text-decoration="underline" font-size="12.00">Hinweis:</text>
<text text-anchor="start" x="248.11" y="-110.13" font-family="Roboto, sans-serif" font-size="12.00">Fristüberschreitung</text>
</g>
<!-- 1&#45;&gt;A01 -->
<g id="edge2" class="edge">
<title>1&#45;&gt;A01</title>
<path fill="none" stroke="#7aab8a" d="M416.35,-205.73C397.63,-192.7 371.21,-174.3 348.85,-158.73"/>
<polygon fill="#7aab8a" stroke="#7aab8a" points="351,-155.96 340.79,-153.12 347,-161.71 351,-155.96"/>
<text text-anchor="start" x="388.48" y="-175.24" font-family="Roboto, sans-serif" font-weight="bold" font-size="14.00">NEIN</text>
</g>
<!-- 2 -->
<g id="node4" class="node">
<title>2</title>
<path fill="#7aab8a" stroke="black" stroke-width="0" d="M795.63,-145.53C795.63,-145.53 405.33,-145.53 405.33,-145.53 399.33,-145.53 393.33,-139.53 393.33,-133.53 393.33,-133.53 393.33,-121.53 393.33,-121.53 393.33,-115.53 399.33,-109.53 405.33,-109.53 405.33,-109.53 795.63,-109.53 795.63,-109.53 801.63,-109.53 807.63,-115.53 807.63,-121.53 807.63,-121.53 807.63,-133.53 807.63,-133.53 807.63,-139.53 801.63,-145.53 795.63,-145.53"/>
<text text-anchor="start" x="407.73" y="-123.86" font-family="Roboto, sans-serif" font-weight="bold" font-size="14.00">2: </text>
<text text-anchor="start" x="427.23" y="-123.86" font-family="Roboto, sans-serif" font-size="14.00">Erfolgt die Bestellung zum Monatsersten 00:00 Uhr?</text>
</g>
<!-- 1&#45;&gt;2 -->
<g id="edge3" class="edge">
<title>1&#45;&gt;2</title>
<path fill="none" stroke="#7aab8a" d="M469.09,-205.73C494.98,-190.52 533.32,-167.99 561.92,-151.19"/>
<polygon fill="#7aab8a" stroke="#7aab8a" points="563.43,-154.36 570.28,-146.28 559.89,-148.32 563.43,-154.36"/>
<text text-anchor="start" x="524.48" y="-175.24" font-family="Roboto, sans-serif" font-weight="bold" font-size="14.00">JA</text>
</g>
<!-- A02 -->
<g id="node5" class="node">
<title>A02</title>
<path fill="#cfb986" stroke="black" stroke-width="0" d="M620.47,-49.52C620.47,-49.52 414.49,-49.52 414.49,-49.52 408.49,-49.52 402.49,-43.52 402.49,-37.52 402.49,-37.52 402.49,-12 402.49,-12 402.49,-6 408.49,0 414.49,0 414.49,0 620.47,0 620.47,0 626.47,0 632.47,-6 632.47,-12 632.47,-12 632.47,-37.52 632.47,-37.52 632.47,-43.52 626.47,-49.52 620.47,-49.52"/>
<text text-anchor="start" x="414.73" y="-31.46" font-family="Roboto, sans-serif" font-weight="bold" font-size="14.00">A02</text>
<text text-anchor="start" x="414.73" y="-19.36" font-family="Roboto, sans-serif" text-decoration="underline" font-size="12.00">Hinweis:</text>
<text text-anchor="start" x="414.73" y="-7.36" font-family="Roboto, sans-serif" font-size="12.00">Gewählter Zeitpunkt nicht zulässig</text>
</g>
<!-- 2&#45;&gt;A02 -->
<g id="edge4" class="edge">
<title>2&#45;&gt;A02</title>
<path fill="none" stroke="#7aab8a" d="M586.78,-109.89C575.17,-95.8 558.2,-75.19 543.95,-57.9"/>
<polygon fill="#7aab8a" stroke="#7aab8a" points="546.82,-55.87 537.76,-50.38 541.42,-60.32 546.82,-55.87"/>
<text text-anchor="start" x="563.48" y="-72.47" font-family="Roboto, sans-serif" font-weight="bold" font-size="14.00">NEIN</text>
</g>
<!-- Ende -->
<g id="node6" class="node">
<title>Ende</title>
<path fill="#7a8da1" stroke="black" stroke-width="0" d="M702.51,-42.76C702.51,-42.76 662.46,-42.76 662.46,-42.76 656.46,-42.76 650.46,-36.76 650.46,-30.76 650.46,-30.76 650.46,-18.76 650.46,-18.76 650.46,-12.76 656.46,-6.76 662.46,-6.76 662.46,-6.76 702.51,-6.76 702.51,-6.76 708.51,-6.76 714.51,-12.76 714.51,-18.76 714.51,-18.76 714.51,-30.76 714.51,-30.76 714.51,-36.76 708.51,-42.76 702.51,-42.76"/>
<text text-anchor="middle" x="682.48" y="-20.08" font-family="Roboto, sans-serif" font-size="14.00">Ende</text>
</g>
<!-- 2&#45;&gt;Ende -->
<g id="edge5" class="edge">
<title>2&#45;&gt;Ende</title>
<path fill="none" stroke="#7aab8a" d="M614.02,-109.89C627.02,-93.92 646.83,-69.57 661.8,-51.17"/>
<polygon fill="#7aab8a" stroke="#7aab8a" points="664.37,-53.56 667.97,-43.6 658.94,-49.15 664.37,-53.56"/>
<text text-anchor="start" x="645.48" y="-72.47" font-family="Roboto, sans-serif" font-weight="bold" font-size="14.00">JA</text>
</g>
</g>
</svg>
