<svg xmlns="http://www.w3.org/2000/svg" xmlns:xlink="http://www.w3.org/1999/xlink" contentStyleType="text/css" data-diagram-type="ACTIVITY" height="1484px" preserveAspectRatio="none" style="width:1569px;height:1484px;background:#FFFFFF;" version="1.1" viewBox="0 0 1569 1484" width="1569px" zoomAndPan="magnify"><title>7.17 AD: Aktivierung eines MaBiS-ZP f&#252;r Bilanzierungsgebietssummenzeitreihen vom &#220;NB an BIKO und NB</title><defs/><g><text fill="#888888" font-family="DejaVu Serif Condensed" font-size="10" font-weight="bold" lengthAdjust="spacing" textLength="42.4023" x="1514.4639" y="19.2822">FV2210</text><text fill="#888888" font-family="DejaVu Serif Condensed" font-size="10" lengthAdjust="spacing" textLength="58.1152" x="1498.751" y="30.9229">2022-12-12</text><text fill="#000000" font-family="DejaVu Serif Condensed" font-size="14" font-weight="bold" lengthAdjust="spacing" textLength="843.5547" x="361.6558" y="57.2764">7.17 AD: Aktivierung eines MaBiS-ZP f&#252;r Bilanzierungsgebietssummenzeitreihen vom &#220;NB an BIKO und NB</text><text fill="#000000" font-family="DejaVu Serif Condensed" font-size="14" font-weight="bold" lengthAdjust="spacing" textLength="4.874" x="780.9961" y="73.5732">&#160;</text><text fill="#000000" font-family="DejaVu Serif Condensed" font-size="14" font-weight="bold" lengthAdjust="spacing" textLength="346.2676" x="610.2993" y="89.8701">7.17.1 E_0015_MaBiS-ZP Aktivierung pr&#252;fen</text><text fill="#000000" font-family="DejaVu Serif Condensed" font-size="14" font-weight="bold" lengthAdjust="spacing" textLength="4.874" x="780.9961" y="106.167">&#160;</text><text fill="#000000" font-family="DejaVu Serif Condensed" font-size="14" font-weight="bold" lengthAdjust="spacing" textLength="4.874" x="780.9961" y="122.4639">&#160;</text><text fill="#000000" font-family="DejaVu Serif Condensed" font-size="14" font-weight="bold" lengthAdjust="spacing" textLength="4.874" x="780.9961" y="138.7607">&#160;</text><path d="M833.3784,161.3906 L833.3784,169.375 L813.3784,173.375 L833.3784,177.375 L833.3784,185.3594 A0,0 0 0 0 833.3784,185.3594 L996.3804,185.3594 A0,0 0 0 0 996.3804,185.3594 L996.3804,171.3906 L986.3804,161.3906 L833.3784,161.3906 A0,0 0 0 0 833.3784,161.3906" fill="#F3F1F6" style="stroke:#F3F1F6;stroke-width:0.5;"/><path d="M986.3804,161.3906 L986.3804,171.3906 L996.3804,171.3906 L986.3804,161.3906" fill="#F3F1F6" style="stroke:#F3F1F6;stroke-width:0.5;"/><text fill="#000000" font-family="DejaVu Serif Condensed" font-size="12" font-style="italic" font-weight="bold" lengthAdjust="spacing" textLength="142.002" x="839.3784" y="177.5293">Pr&#252;fende Rolle: BIKO</text><rect fill="#7A8DA1" height="38.625" rx="12.5" ry="12.5" style="stroke:none;stroke-width:0.5;" width="83.4609" x="729.9175" y="154.0625"/><text fill="#000000" font-family="DejaVu Serif Condensed" font-size="16" font-weight="bold" lengthAdjust="spacing" textLength="63.4609" x="739.9175" y="178.9141">E_0015</text><path d="M587.6909,264.3438 L587.6909,302.2813 A0,0 0 0 0 587.6909,302.2813 L725.9956,302.2813 A0,0 0 0 0 725.9956,302.2813 L725.9956,287.3125 L745.9956,283.3125 L725.9956,279.3125 L725.9956,274.3438 L715.9956,264.3438 L587.6909,264.3438 A0,0 0 0 0 587.6909,264.3438" fill="#F3F1F6" style="stroke:#F3F1F6;stroke-width:0.5;"/><path d="M715.9956,264.3438 L715.9956,274.3438 L725.9956,274.3438 L715.9956,264.3438" fill="#F3F1F6" style="stroke:#F3F1F6;stroke-width:0.5;"/><text fill="#000000" font-family="DejaVu Serif Condensed" font-size="12" lengthAdjust="spacing" textLength="110.9883" x="593.6909" y="280.4824">Cluster Ablehnung</text><text fill="#000000" font-family="DejaVu Serif Condensed" font-size="12" lengthAdjust="spacing" textLength="117.3047" x="593.6909" y="294.4512">Frist&#252;berschreitung</text><rect fill="#7A8DA1" height="38.625" rx="12.5" ry="12.5" style="stroke:none;stroke-width:0.5;" width="51.3047" x="745.9956" y="264"/><text fill="#000000" font-family="DejaVu Serif Condensed" font-size="16" lengthAdjust="spacing" textLength="31.3047" x="755.9956" y="288.8516">A01</text><polygon fill="#7AAB8A" points="459.0518,212.6875,1084.2441,212.6875,1096.2441,224.6875,1084.2441,236.6875,459.0518,236.6875,447.0518,224.6875,459.0518,212.6875" style="stroke:#7AAB8A;stroke-width:0.5;"/><text fill="#000000" font-family="DejaVu Serif Condensed" font-size="16" lengthAdjust="spacing" textLength="14.25" x="775.6479" y="251.5391">ja</text><text fill="#000000" font-family="DejaVu Serif Condensed" font-size="18" font-weight="bold" lengthAdjust="spacing" textLength="19.7227" x="459.0518" y="230.9189">1:</text><text fill="#000000" font-family="DejaVu Serif Condensed" font-size="18" lengthAdjust="spacing" textLength="593.4814" x="490.7627" y="230.9189">Erfolgt die Aktivierung nach Ablauf der Clearingfrist f&#252;r die KBKA?</text><text fill="#000000" font-family="DejaVu Serif Condensed" font-size="16" lengthAdjust="spacing" textLength="34.5703" x="1096.2441" y="220.9141">nein</text><path d="M495.7222,396.2813 L495.7222,434.2188 A0,0 0 0 0 495.7222,434.2188 L725.9956,434.2188 A0,0 0 0 0 725.9956,434.2188 L725.9956,419.25 L745.9956,415.25 L725.9956,411.25 L725.9956,406.2813 L715.9956,396.2813 L495.7222,396.2813 A0,0 0 0 0 495.7222,396.2813" fill="#F3F1F6" style="stroke:#F3F1F6;stroke-width:0.5;"/><path d="M715.9956,396.2813 L715.9956,406.2813 L725.9956,406.2813 L715.9956,396.2813" fill="#F3F1F6" style="stroke:#F3F1F6;stroke-width:0.5;"/><text fill="#000000" font-family="DejaVu Serif Condensed" font-size="12" lengthAdjust="spacing" textLength="110.9883" x="501.7222" y="412.4199">Cluster Ablehnung</text><text fill="#000000" font-family="DejaVu Serif Condensed" font-size="12" lengthAdjust="spacing" textLength="209.2734" x="501.7222" y="426.3887">Gew&#228;hlter Zeitpunkt nicht zul&#228;ssig</text><rect fill="#7A8DA1" height="38.625" rx="12.5" ry="12.5" style="stroke:none;stroke-width:0.5;" width="51.3047" x="745.9956" y="395.9375"/><text fill="#000000" font-family="DejaVu Serif Condensed" font-size="16" lengthAdjust="spacing" textLength="31.3047" x="755.9956" y="420.7891">A02</text><polygon fill="#7AAB8A" points="516.1851,344.625,1027.1108,344.625,1039.1108,356.625,1027.1108,368.625,516.1851,368.625,504.1851,356.625,516.1851,344.625" style="stroke:#7AAB8A;stroke-width:0.5;"/><text fill="#000000" font-family="DejaVu Serif Condensed" font-size="16" lengthAdjust="spacing" textLength="34.5703" x="775.6479" y="383.4766">nein</text><text fill="#000000" font-family="DejaVu Serif Condensed" font-size="18" font-weight="bold" lengthAdjust="spacing" textLength="19.7227" x="516.1851" y="362.8564">2:</text><text fill="#000000" font-family="DejaVu Serif Condensed" font-size="18" lengthAdjust="spacing" textLength="479.2148" x="547.896" y="362.8564">Erfolgt die Aktivierung zum Monatsersten 00:00 Uhr?</text><text fill="#000000" font-family="DejaVu Serif Condensed" font-size="16" lengthAdjust="spacing" textLength="14.25" x="1039.1108" y="352.8516">ja</text><path d="M594.0073,528.2188 L594.0073,566.1563 A0,0 0 0 0 594.0073,566.1563 L725.9956,566.1563 A0,0 0 0 0 725.9956,566.1563 L725.9956,551.1875 L745.9956,547.1875 L725.9956,543.1875 L725.9956,538.2188 L715.9956,528.2188 L594.0073,528.2188 A0,0 0 0 0 594.0073,528.2188" fill="#F3F1F6" style="stroke:#F3F1F6;stroke-width:0.5;"/><path d="M715.9956,528.2188 L715.9956,538.2188 L725.9956,538.2188 L715.9956,528.2188" fill="#F3F1F6" style="stroke:#F3F1F6;stroke-width:0.5;"/><text fill="#000000" font-family="DejaVu Serif Condensed" font-size="12" lengthAdjust="spacing" textLength="110.9883" x="600.0073" y="544.3574">Cluster Ablehnung</text><text fill="#000000" font-family="DejaVu Serif Condensed" font-size="12" lengthAdjust="spacing" textLength="101.8652" x="600.0073" y="558.3262">Regelzone falsch</text><rect fill="#7A8DA1" height="38.625" rx="12.5" ry="12.5" style="stroke:none;stroke-width:0.5;" width="51.3047" x="745.9956" y="527.875"/><text fill="#000000" font-family="DejaVu Serif Condensed" font-size="16" lengthAdjust="spacing" textLength="31.3047" x="755.9956" y="552.7266">A03</text><polygon fill="#7AAB8A" points="587.9082,476.5625,955.3877,476.5625,967.3877,488.5625,955.3877,500.5625,587.9082,500.5625,575.9082,488.5625,587.9082,476.5625" style="stroke:#7AAB8A;stroke-width:0.5;"/><text fill="#000000" font-family="DejaVu Serif Condensed" font-size="16" lengthAdjust="spacing" textLength="34.5703" x="775.6479" y="515.4141">nein</text><text fill="#000000" font-family="DejaVu Serif Condensed" font-size="18" font-weight="bold" lengthAdjust="spacing" textLength="19.7227" x="587.9082" y="494.7939">3:</text><text fill="#000000" font-family="DejaVu Serif Condensed" font-size="18" lengthAdjust="spacing" textLength="335.7686" x="619.6191" y="494.7939">Ist die richtige Regelzone angegeben</text><text fill="#000000" font-family="DejaVu Serif Condensed" font-size="16" lengthAdjust="spacing" textLength="14.25" x="967.3877" y="484.7891">ja</text><path d="M514.3784,660.1563 L514.3784,698.0938 A0,0 0 0 0 514.3784,698.0938 L725.9956,698.0938 A0,0 0 0 0 725.9956,698.0938 L725.9956,683.125 L745.9956,679.125 L725.9956,675.125 L725.9956,670.1563 L715.9956,660.1563 L514.3784,660.1563 A0,0 0 0 0 514.3784,660.1563" fill="#F3F1F6" style="stroke:#F3F1F6;stroke-width:0.5;"/><path d="M715.9956,660.1563 L715.9956,670.1563 L725.9956,670.1563 L715.9956,660.1563" fill="#F3F1F6" style="stroke:#F3F1F6;stroke-width:0.5;"/><text fill="#000000" font-family="DejaVu Serif Condensed" font-size="12" lengthAdjust="spacing" textLength="110.9883" x="520.3784" y="676.2949">Cluster Ablehnung</text><text fill="#000000" font-family="DejaVu Serif Condensed" font-size="12" lengthAdjust="spacing" textLength="190.6172" x="520.3784" y="690.2637">Bilanzierungsgebiet nicht g&#252;ltig</text><rect fill="#7A8DA1" height="38.625" rx="12.5" ry="12.5" style="stroke:none;stroke-width:0.5;" width="51.3047" x="745.9956" y="659.8125"/><text fill="#000000" font-family="DejaVu Serif Condensed" font-size="16" lengthAdjust="spacing" textLength="31.3047" x="755.9956" y="684.6641">A04</text><polygon fill="#7AAB8A" points="366.5029,608.5,1176.793,608.5,1188.793,620.5,1176.793,632.5,366.5029,632.5,354.5029,620.5,366.5029,608.5" style="stroke:#7AAB8A;stroke-width:0.5;"/><text fill="#000000" font-family="DejaVu Serif Condensed" font-size="16" lengthAdjust="spacing" textLength="34.5703" x="775.6479" y="647.3516">nein</text><text fill="#000000" font-family="DejaVu Serif Condensed" font-size="18" font-weight="bold" lengthAdjust="spacing" textLength="19.7227" x="366.5029" y="626.7314">4:</text><text fill="#000000" font-family="DejaVu Serif Condensed" font-size="18" lengthAdjust="spacing" textLength="778.5791" x="398.2139" y="626.7314">Ist das Bilanzierungsgebiet zum Aktivierungsbeginn in der Regelzone des BIKO g&#252;ltig?</text><text fill="#000000" font-family="DejaVu Serif Condensed" font-size="16" lengthAdjust="spacing" textLength="14.25" x="1188.793" y="616.7266">ja</text><path d="M586.9878,792.0938 L586.9878,830.0313 A0,0 0 0 0 586.9878,830.0313 L725.9956,830.0313 A0,0 0 0 0 725.9956,830.0313 L725.9956,815.0625 L745.9956,811.0625 L725.9956,807.0625 L725.9956,802.0938 L715.9956,792.0938 L586.9878,792.0938 A0,0 0 0 0 586.9878,792.0938" fill="#F3F1F6" style="stroke:#F3F1F6;stroke-width:0.5;"/><path d="M715.9956,792.0938 L715.9956,802.0938 L725.9956,802.0938 L715.9956,792.0938" fill="#F3F1F6" style="stroke:#F3F1F6;stroke-width:0.5;"/><text fill="#000000" font-family="DejaVu Serif Condensed" font-size="12" lengthAdjust="spacing" textLength="110.9883" x="592.9878" y="808.2324">Cluster Ablehnung</text><text fill="#000000" font-family="DejaVu Serif Condensed" font-size="12" lengthAdjust="spacing" textLength="118.0078" x="592.9878" y="822.2012">Keine Berechtigung</text><rect fill="#7A8DA1" height="38.625" rx="12.5" ry="12.5" style="stroke:none;stroke-width:0.5;" width="51.3047" x="745.9956" y="791.75"/><text fill="#000000" font-family="DejaVu Serif Condensed" font-size="16" lengthAdjust="spacing" textLength="31.3047" x="755.9956" y="816.6016">A05</text><polygon fill="#7AAB8A" points="414.9966,740.4375,1128.2993,740.4375,1140.2993,752.4375,1128.2993,764.4375,414.9966,764.4375,402.9966,752.4375,414.9966,740.4375" style="stroke:#7AAB8A;stroke-width:0.5;"/><text fill="#000000" font-family="DejaVu Serif Condensed" font-size="16" lengthAdjust="spacing" textLength="34.5703" x="775.6479" y="779.2891">nein</text><text fill="#000000" font-family="DejaVu Serif Condensed" font-size="18" font-weight="bold" lengthAdjust="spacing" textLength="19.7227" x="414.9966" y="758.6689">5:</text><text fill="#000000" font-family="DejaVu Serif Condensed" font-size="18" lengthAdjust="spacing" textLength="681.5918" x="446.7075" y="758.6689">Ist der &#220;NB zum Aktivierungsbeginn f&#252;r das Bilanzierungsgebiet zust&#228;ndig?</text><text fill="#000000" font-family="DejaVu Serif Condensed" font-size="16" lengthAdjust="spacing" textLength="14.25" x="1140.2993" y="748.6641">ja</text><path d="M445.2378,924.0313 L445.2378,961.9688 A0,0 0 0 0 445.2378,961.9688 L725.9956,961.9688 A0,0 0 0 0 725.9956,961.9688 L725.9956,947 L745.9956,943 L725.9956,939 L725.9956,934.0313 L715.9956,924.0313 L445.2378,924.0313 A0,0 0 0 0 445.2378,924.0313" fill="#F3F1F6" style="stroke:#F3F1F6;stroke-width:0.5;"/><path d="M715.9956,924.0313 L715.9956,934.0313 L725.9956,934.0313 L715.9956,924.0313" fill="#F3F1F6" style="stroke:#F3F1F6;stroke-width:0.5;"/><text fill="#000000" font-family="DejaVu Serif Condensed" font-size="12" lengthAdjust="spacing" textLength="110.9883" x="451.2378" y="940.1699">Cluster Ablehnung</text><text fill="#000000" font-family="DejaVu Serif Condensed" font-size="12" lengthAdjust="spacing" textLength="259.7578" x="451.2378" y="954.1387">Abweichender MaBiS-ZP bereits vorhanden</text><rect fill="#7A8DA1" height="38.625" rx="12.5" ry="12.5" style="stroke:none;stroke-width:0.5;" width="51.3047" x="745.9956" y="923.6875"/><text fill="#000000" font-family="DejaVu Serif Condensed" font-size="16" lengthAdjust="spacing" textLength="31.3047" x="755.9956" y="948.5391">A06</text><polygon fill="#7AAB8A" points="446.7559,872.375,1096.54,872.375,1108.54,884.375,1096.54,896.375,446.7559,896.375,434.7559,884.375,446.7559,872.375" style="stroke:#7AAB8A;stroke-width:0.5;"/><text fill="#000000" font-family="DejaVu Serif Condensed" font-size="16" lengthAdjust="spacing" textLength="14.25" x="775.6479" y="911.2266">ja</text><text fill="#000000" font-family="DejaVu Serif Condensed" font-size="18" font-weight="bold" lengthAdjust="spacing" textLength="19.7227" x="446.7559" y="890.6064">6:</text><text fill="#000000" font-family="DejaVu Serif Condensed" font-size="18" lengthAdjust="spacing" textLength="618.0732" x="478.4668" y="890.6064">Existiert bereits ein abweichendes Tupel unter der ID des MaBiS-ZP?</text><text fill="#000000" font-family="DejaVu Serif Condensed" font-size="16" lengthAdjust="spacing" textLength="34.5703" x="1108.54" y="880.6016">nein</text><path d="M404.1694,1055.9688 L404.1694,1093.9063 A0,0 0 0 0 404.1694,1093.9063 L725.9956,1093.9063 A0,0 0 0 0 725.9956,1093.9063 L725.9956,1078.9375 L745.9956,1074.9375 L725.9956,1070.9375 L725.9956,1065.9688 L715.9956,1055.9688 L404.1694,1055.9688 A0,0 0 0 0 404.1694,1055.9688" fill="#F3F1F6" style="stroke:#F3F1F6;stroke-width:0.5;"/><path d="M715.9956,1055.9688 L715.9956,1065.9688 L725.9956,1065.9688 L715.9956,1055.9688" fill="#F3F1F6" style="stroke:#F3F1F6;stroke-width:0.5;"/><text fill="#000000" font-family="DejaVu Serif Condensed" font-size="12" lengthAdjust="spacing" textLength="110.9883" x="410.1694" y="1072.1074">Cluster Ablehnung</text><text fill="#000000" font-family="DejaVu Serif Condensed" font-size="12" lengthAdjust="spacing" textLength="300.8262" x="410.1694" y="1086.0762">Abweichende ID zum MaBiS-ZP bereits vorhanden</text><rect fill="#7A8DA1" height="38.625" rx="12.5" ry="12.5" style="stroke:none;stroke-width:0.5;" width="51.3047" x="745.9956" y="1055.625"/><text fill="#000000" font-family="DejaVu Serif Condensed" font-size="16" lengthAdjust="spacing" textLength="31.3047" x="755.9956" y="1080.4766">A07</text><polygon fill="#7AAB8A" points="32,1004.3125,1511.2959,1004.3125,1523.2959,1016.3125,1511.2959,1028.3125,32,1028.3125,20,1016.3125,32,1004.3125" style="stroke:#7AAB8A;stroke-width:0.5;"/><text fill="#000000" font-family="DejaVu Serif Condensed" font-size="16" lengthAdjust="spacing" textLength="14.25" x="775.6479" y="1043.1641">ja</text><text fill="#000000" font-family="DejaVu Serif Condensed" font-size="18" font-weight="bold" lengthAdjust="spacing" textLength="19.7227" x="32" y="1022.5439">7:</text><text fill="#000000" font-family="DejaVu Serif Condensed" font-size="18" lengthAdjust="spacing" textLength="1447.585" x="63.7109" y="1022.5439">Existiert bereits f&#252;r das genannte Tupel aus Aggregations-verantwortlicher, Bilanzierungsgebiet, Spannungsebene und ZRT eine abweichende ID des MaBiS-ZP?</text><text fill="#000000" font-family="DejaVu Serif Condensed" font-size="16" lengthAdjust="spacing" textLength="34.5703" x="1523.2959" y="1012.5391">nein</text><path d="M509.1577,1187.9063 L509.1577,1225.8438 A0,0 0 0 0 509.1577,1225.8438 L725.9956,1225.8438 A0,0 0 0 0 725.9956,1225.8438 L725.9956,1210.875 L745.9956,1206.875 L725.9956,1202.875 L725.9956,1197.9063 L715.9956,1187.9063 L509.1577,1187.9063 A0,0 0 0 0 509.1577,1187.9063" fill="#F3F1F6" style="stroke:#F3F1F6;stroke-width:0.5;"/><path d="M715.9956,1187.9063 L715.9956,1197.9063 L725.9956,1197.9063 L715.9956,1187.9063" fill="#F3F1F6" style="stroke:#F3F1F6;stroke-width:0.5;"/><text fill="#000000" font-family="DejaVu Serif Condensed" font-size="12" lengthAdjust="spacing" textLength="110.9883" x="515.1577" y="1204.0449">Cluster Ablehnung</text><text fill="#000000" font-family="DejaVu Serif Condensed" font-size="12" lengthAdjust="spacing" textLength="195.8379" x="515.1577" y="1218.0137">ZRT Aktivierung nicht berechtigt</text><rect fill="#7A8DA1" height="38.625" rx="12.5" ry="12.5" style="stroke:none;stroke-width:0.5;" width="51.3047" x="745.9956" y="1187.5625"/><text fill="#000000" font-family="DejaVu Serif Condensed" font-size="16" lengthAdjust="spacing" textLength="31.3047" x="755.9956" y="1212.4141">A08</text><polygon fill="#7AAB8A" points="539.6958,1136.25,1003.6001,1136.25,1015.6001,1148.25,1003.6001,1160.25,539.6958,1160.25,527.6958,1148.25,539.6958,1136.25" style="stroke:#7AAB8A;stroke-width:0.5;"/><text fill="#000000" font-family="DejaVu Serif Condensed" font-size="16" lengthAdjust="spacing" textLength="34.5703" x="775.6479" y="1175.1016">nein</text><text fill="#000000" font-family="DejaVu Serif Condensed" font-size="18" font-weight="bold" lengthAdjust="spacing" textLength="19.7227" x="539.6958" y="1154.4814">8:</text><text fill="#000000" font-family="DejaVu Serif Condensed" font-size="18" lengthAdjust="spacing" textLength="432.1934" x="571.4067" y="1154.4814">Ist der &#220;NB zur Aktivierung des ZRT berechtigt?</text><text fill="#000000" font-family="DejaVu Serif Condensed" font-size="16" lengthAdjust="spacing" textLength="14.25" x="1015.6001" y="1144.4766">ja</text><path d="M588.605,1319.8438 L588.605,1357.7813 A0,0 0 0 0 588.605,1357.7813 L725.9956,1357.7813 A0,0 0 0 0 725.9956,1357.7813 L725.9956,1342.8125 L745.9956,1338.8125 L725.9956,1334.8125 L725.9956,1329.8438 L715.9956,1319.8438 L588.605,1319.8438 A0,0 0 0 0 588.605,1319.8438" fill="#F3F1F6" style="stroke:#F3F1F6;stroke-width:0.5;"/><path d="M715.9956,1319.8438 L715.9956,1329.8438 L725.9956,1329.8438 L715.9956,1319.8438" fill="#F3F1F6" style="stroke:#F3F1F6;stroke-width:0.5;"/><text fill="#000000" font-family="DejaVu Serif Condensed" font-size="12" lengthAdjust="spacing" textLength="110.9883" x="594.605" y="1335.9824">Cluster Ablehnung</text><text fill="#000000" font-family="DejaVu Serif Condensed" font-size="12" lengthAdjust="spacing" textLength="116.3906" x="594.605" y="1349.9512">OBIS nicht passend</text><rect fill="#7A8DA1" height="38.625" rx="12.5" ry="12.5" style="stroke:none;stroke-width:0.5;" width="51.3047" x="745.9956" y="1319.5"/><text fill="#000000" font-family="DejaVu Serif Condensed" font-size="16" lengthAdjust="spacing" textLength="31.3047" x="755.9956" y="1344.3516">A09</text><polygon fill="#7AAB8A" points="598.6968,1268.1875,944.5991,1268.1875,956.5991,1280.1875,944.5991,1292.1875,598.6968,1292.1875,586.6968,1280.1875,598.6968,1268.1875" style="stroke:#7AAB8A;stroke-width:0.5;"/><text fill="#000000" font-family="DejaVu Serif Condensed" font-size="16" lengthAdjust="spacing" textLength="34.5703" x="775.6479" y="1307.0391">nein</text><text fill="#000000" font-family="DejaVu Serif Condensed" font-size="18" font-weight="bold" lengthAdjust="spacing" textLength="19.7227" x="598.6968" y="1286.4189">9:</text><text fill="#000000" font-family="DejaVu Serif Condensed" font-size="18" lengthAdjust="spacing" textLength="314.1914" x="630.4077" y="1286.4189">Passt die OBIS-Kennzahl zum ZRT?</text><text fill="#000000" font-family="DejaVu Serif Condensed" font-size="16" lengthAdjust="spacing" textLength="14.25" x="956.5991" y="1276.4141">ja</text><polygon fill="#7AAB8A" points="455.6592,1400.125,1087.6367,1400.125,1099.6367,1412.125,1087.6367,1424.125,455.6592,1424.125,443.6592,1412.125,455.6592,1400.125" style="stroke:#7AAB8A;stroke-width:0.5;"/><text fill="#000000" font-family="DejaVu Serif Condensed" font-size="18" font-weight="bold" lengthAdjust="spacing" textLength="32.2471" x="455.6592" y="1418.3564">10:</text><text fill="#000000" font-family="DejaVu Serif Condensed" font-size="18" lengthAdjust="spacing" textLength="587.7422" x="499.8945" y="1418.3564">Ist der MaBiS-ZP zum Zeitpunkt der Aktivierung bereits aktiviert?</text><text fill="#000000" font-family="DejaVu Serif Condensed" font-size="16" lengthAdjust="spacing" textLength="14.25" x="429.4092" y="1408.3516">ja</text><text fill="#000000" font-family="DejaVu Serif Condensed" font-size="16" lengthAdjust="spacing" textLength="34.5703" x="1099.6367" y="1408.3516">nein</text><path d="M211.2939,1434.4688 L211.2939,1472.4063 A0,0 0 0 0 211.2939,1472.4063 L388.0068,1472.4063 A0,0 0 0 0 388.0068,1472.4063 L388.0068,1457.4375 L408.0068,1453.4375 L388.0068,1449.4375 L388.0068,1444.4688 L378.0068,1434.4688 L211.2939,1434.4688 A0,0 0 0 0 211.2939,1434.4688" fill="#F3F1F6" style="stroke:#F3F1F6;stroke-width:0.5;"/><path d="M378.0068,1434.4688 L378.0068,1444.4688 L388.0068,1444.4688 L378.0068,1434.4688" fill="#F3F1F6" style="stroke:#F3F1F6;stroke-width:0.5;"/><text fill="#000000" font-family="DejaVu Serif Condensed" font-size="12" lengthAdjust="spacing" textLength="110.9883" x="217.2939" y="1450.6074">Cluster Ablehnung</text><text fill="#000000" font-family="DejaVu Serif Condensed" font-size="12" lengthAdjust="spacing" textLength="155.7129" x="217.2939" y="1464.5762">MaBiS-ZP bereits aktiviert</text><rect fill="#7A8DA1" height="38.625" rx="12.5" ry="12.5" style="stroke:none;stroke-width:0.5;" width="51.3047" x="408.0068" y="1434.125"/><text fill="#000000" font-family="DejaVu Serif Condensed" font-size="16" lengthAdjust="spacing" textLength="31.3047" x="418.0068" y="1458.9766">A10</text><path d="M891.959,1434.4688 L891.959,1472.4063 A0,0 0 0 0 891.959,1472.4063 L1063.9844,1472.4063 A0,0 0 0 0 1063.9844,1472.4063 L1063.9844,1457.4375 L1083.9844,1453.4375 L1063.9844,1449.4375 L1063.9844,1444.4688 L1053.9844,1434.4688 L891.959,1434.4688 A0,0 0 0 0 891.959,1434.4688" fill="#F3F1F6" style="stroke:#F3F1F6;stroke-width:0.5;"/><path d="M1053.9844,1434.4688 L1053.9844,1444.4688 L1063.9844,1444.4688 L1053.9844,1434.4688" fill="#F3F1F6" style="stroke:#F3F1F6;stroke-width:0.5;"/><text fill="#000000" font-family="DejaVu Serif Condensed" font-size="12" lengthAdjust="spacing" textLength="126.7734" x="897.959" y="1450.6074">Cluster: Zustimmung</text><text fill="#000000" font-family="DejaVu Serif Condensed" font-size="12" lengthAdjust="spacing" textLength="151.0254" x="897.959" y="1464.5762">Aktivierung durchgef&#252;hrt</text><rect fill="#7A8DA1" height="38.625" rx="12.5" ry="12.5" style="stroke:none;stroke-width:0.5;" width="51.3047" x="1083.9844" y="1434.125"/><text fill="#000000" font-family="DejaVu Serif Condensed" font-size="16" lengthAdjust="spacing" textLength="31.3047" x="1093.9844" y="1458.9766">A11</text><line style="stroke:#7AAB8A;stroke-width:1;" x1="771.6479" x2="771.6479" y1="236.6875" y2="264"/><polygon fill="#7AAB8A" points="767.6479,254,771.6479,264,775.6479,254,771.6479,258" style="stroke:#7AAB8A;stroke-width:1;"/><line style="stroke:#7AAB8A;stroke-width:1;" x1="1096.2441" x2="1108.2441" y1="224.6875" y2="224.6875"/><polygon fill="#7AAB8A" points="1104.2441,270.3125,1108.2441,280.3125,1112.2441,270.3125,1108.2441,274.3125" style="stroke:#7AAB8A;stroke-width:1;"/><line style="stroke:#7AAB8A;stroke-width:1;" x1="1108.2441" x2="1108.2441" y1="224.6875" y2="324.625"/><line style="stroke:#7AAB8A;stroke-width:1;" x1="1108.2441" x2="771.6479" y1="324.625" y2="324.625"/><line style="stroke:#7AAB8A;stroke-width:1;" x1="771.6479" x2="771.6479" y1="324.625" y2="344.625"/><polygon fill="#7AAB8A" points="767.6479,334.625,771.6479,344.625,775.6479,334.625,771.6479,338.625" style="stroke:#7AAB8A;stroke-width:1;"/><line style="stroke:#7AAB8A;stroke-width:1;" x1="771.6479" x2="771.6479" y1="192.6875" y2="212.6875"/><polygon fill="#7AAB8A" points="767.6479,202.6875,771.6479,212.6875,775.6479,202.6875,771.6479,206.6875" style="stroke:#7AAB8A;stroke-width:1;"/><line style="stroke:#7AAB8A;stroke-width:1;" x1="771.6479" x2="771.6479" y1="368.625" y2="395.9375"/><polygon fill="#7AAB8A" points="767.6479,385.9375,771.6479,395.9375,775.6479,385.9375,771.6479,389.9375" style="stroke:#7AAB8A;stroke-width:1;"/><line style="stroke:#7AAB8A;stroke-width:1;" x1="1039.1108" x2="1051.1108" y1="356.625" y2="356.625"/><polygon fill="#7AAB8A" points="1047.1108,402.25,1051.1108,412.25,1055.1108,402.25,1051.1108,406.25" style="stroke:#7AAB8A;stroke-width:1;"/><line style="stroke:#7AAB8A;stroke-width:1;" x1="1051.1108" x2="1051.1108" y1="356.625" y2="456.5625"/><line style="stroke:#7AAB8A;stroke-width:1;" x1="1051.1108" x2="771.6479" y1="456.5625" y2="456.5625"/><line style="stroke:#7AAB8A;stroke-width:1;" x1="771.6479" x2="771.6479" y1="456.5625" y2="476.5625"/><polygon fill="#7AAB8A" points="767.6479,466.5625,771.6479,476.5625,775.6479,466.5625,771.6479,470.5625" style="stroke:#7AAB8A;stroke-width:1;"/><line style="stroke:#7AAB8A;stroke-width:1;" x1="771.6479" x2="771.6479" y1="500.5625" y2="527.875"/><polygon fill="#7AAB8A" points="767.6479,517.875,771.6479,527.875,775.6479,517.875,771.6479,521.875" style="stroke:#7AAB8A;stroke-width:1;"/><line style="stroke:#7AAB8A;stroke-width:1;" x1="967.3877" x2="979.3877" y1="488.5625" y2="488.5625"/><polygon fill="#7AAB8A" points="975.3877,534.1875,979.3877,544.1875,983.3877,534.1875,979.3877,538.1875" style="stroke:#7AAB8A;stroke-width:1;"/><line style="stroke:#7AAB8A;stroke-width:1;" x1="979.3877" x2="979.3877" y1="488.5625" y2="588.5"/><line style="stroke:#7AAB8A;stroke-width:1;" x1="979.3877" x2="771.6479" y1="588.5" y2="588.5"/><line style="stroke:#7AAB8A;stroke-width:1;" x1="771.6479" x2="771.6479" y1="588.5" y2="608.5"/><polygon fill="#7AAB8A" points="767.6479,598.5,771.6479,608.5,775.6479,598.5,771.6479,602.5" style="stroke:#7AAB8A;stroke-width:1;"/><line style="stroke:#7AAB8A;stroke-width:1;" x1="771.6479" x2="771.6479" y1="632.5" y2="659.8125"/><polygon fill="#7AAB8A" points="767.6479,649.8125,771.6479,659.8125,775.6479,649.8125,771.6479,653.8125" style="stroke:#7AAB8A;stroke-width:1;"/><line style="stroke:#7AAB8A;stroke-width:1;" x1="1188.793" x2="1200.793" y1="620.5" y2="620.5"/><polygon fill="#7AAB8A" points="1196.793,666.125,1200.793,676.125,1204.793,666.125,1200.793,670.125" style="stroke:#7AAB8A;stroke-width:1;"/><line style="stroke:#7AAB8A;stroke-width:1;" x1="1200.793" x2="1200.793" y1="620.5" y2="720.4375"/><line style="stroke:#7AAB8A;stroke-width:1;" x1="1200.793" x2="771.6479" y1="720.4375" y2="720.4375"/><line style="stroke:#7AAB8A;stroke-width:1;" x1="771.6479" x2="771.6479" y1="720.4375" y2="740.4375"/><polygon fill="#7AAB8A" points="767.6479,730.4375,771.6479,740.4375,775.6479,730.4375,771.6479,734.4375" style="stroke:#7AAB8A;stroke-width:1;"/><line style="stroke:#7AAB8A;stroke-width:1;" x1="771.6479" x2="771.6479" y1="764.4375" y2="791.75"/><polygon fill="#7AAB8A" points="767.6479,781.75,771.6479,791.75,775.6479,781.75,771.6479,785.75" style="stroke:#7AAB8A;stroke-width:1;"/><line style="stroke:#7AAB8A;stroke-width:1;" x1="1140.2993" x2="1152.2993" y1="752.4375" y2="752.4375"/><polygon fill="#7AAB8A" points="1148.2993,798.0625,1152.2993,808.0625,1156.2993,798.0625,1152.2993,802.0625" style="stroke:#7AAB8A;stroke-width:1;"/><line style="stroke:#7AAB8A;stroke-width:1;" x1="1152.2993" x2="1152.2993" y1="752.4375" y2="852.375"/><line style="stroke:#7AAB8A;stroke-width:1;" x1="1152.2993" x2="771.6479" y1="852.375" y2="852.375"/><line style="stroke:#7AAB8A;stroke-width:1;" x1="771.6479" x2="771.6479" y1="852.375" y2="872.375"/><polygon fill="#7AAB8A" points="767.6479,862.375,771.6479,872.375,775.6479,862.375,771.6479,866.375" style="stroke:#7AAB8A;stroke-width:1;"/><line style="stroke:#7AAB8A;stroke-width:1;" x1="771.6479" x2="771.6479" y1="896.375" y2="923.6875"/><polygon fill="#7AAB8A" points="767.6479,913.6875,771.6479,923.6875,775.6479,913.6875,771.6479,917.6875" style="stroke:#7AAB8A;stroke-width:1;"/><line style="stroke:#7AAB8A;stroke-width:1;" x1="1108.54" x2="1120.54" y1="884.375" y2="884.375"/><polygon fill="#7AAB8A" points="1116.54,930,1120.54,940,1124.54,930,1120.54,934" style="stroke:#7AAB8A;stroke-width:1;"/><line style="stroke:#7AAB8A;stroke-width:1;" x1="1120.54" x2="1120.54" y1="884.375" y2="984.3125"/><line style="stroke:#7AAB8A;stroke-width:1;" x1="1120.54" x2="771.6479" y1="984.3125" y2="984.3125"/><line style="stroke:#7AAB8A;stroke-width:1;" x1="771.6479" x2="771.6479" y1="984.3125" y2="1004.3125"/><polygon fill="#7AAB8A" points="767.6479,994.3125,771.6479,1004.3125,775.6479,994.3125,771.6479,998.3125" style="stroke:#7AAB8A;stroke-width:1;"/><line style="stroke:#7AAB8A;stroke-width:1;" x1="771.6479" x2="771.6479" y1="1028.3125" y2="1055.625"/><polygon fill="#7AAB8A" points="767.6479,1045.625,771.6479,1055.625,775.6479,1045.625,771.6479,1049.625" style="stroke:#7AAB8A;stroke-width:1;"/><line style="stroke:#7AAB8A;stroke-width:1;" x1="1523.2959" x2="1535.2959" y1="1016.3125" y2="1016.3125"/><polygon fill="#7AAB8A" points="1531.2959,1061.9375,1535.2959,1071.9375,1539.2959,1061.9375,1535.2959,1065.9375" style="stroke:#7AAB8A;stroke-width:1;"/><line style="stroke:#7AAB8A;stroke-width:1;" x1="1535.2959" x2="1535.2959" y1="1016.3125" y2="1116.25"/><line style="stroke:#7AAB8A;stroke-width:1;" x1="1535.2959" x2="771.6479" y1="1116.25" y2="1116.25"/><line style="stroke:#7AAB8A;stroke-width:1;" x1="771.6479" x2="771.6479" y1="1116.25" y2="1136.25"/><polygon fill="#7AAB8A" points="767.6479,1126.25,771.6479,1136.25,775.6479,1126.25,771.6479,1130.25" style="stroke:#7AAB8A;stroke-width:1;"/><line style="stroke:#7AAB8A;stroke-width:1;" x1="771.6479" x2="771.6479" y1="1160.25" y2="1187.5625"/><polygon fill="#7AAB8A" points="767.6479,1177.5625,771.6479,1187.5625,775.6479,1177.5625,771.6479,1181.5625" style="stroke:#7AAB8A;stroke-width:1;"/><line style="stroke:#7AAB8A;stroke-width:1;" x1="1015.6001" x2="1027.6001" y1="1148.25" y2="1148.25"/><polygon fill="#7AAB8A" points="1023.6001,1193.875,1027.6001,1203.875,1031.6001,1193.875,1027.6001,1197.875" style="stroke:#7AAB8A;stroke-width:1;"/><line style="stroke:#7AAB8A;stroke-width:1;" x1="1027.6001" x2="1027.6001" y1="1148.25" y2="1248.1875"/><line style="stroke:#7AAB8A;stroke-width:1;" x1="1027.6001" x2="771.6479" y1="1248.1875" y2="1248.1875"/><line style="stroke:#7AAB8A;stroke-width:1;" x1="771.6479" x2="771.6479" y1="1248.1875" y2="1268.1875"/><polygon fill="#7AAB8A" points="767.6479,1258.1875,771.6479,1268.1875,775.6479,1258.1875,771.6479,1262.1875" style="stroke:#7AAB8A;stroke-width:1;"/><line style="stroke:#7AAB8A;stroke-width:1;" x1="771.6479" x2="771.6479" y1="1292.1875" y2="1319.5"/><polygon fill="#7AAB8A" points="767.6479,1309.5,771.6479,1319.5,775.6479,1309.5,771.6479,1313.5" style="stroke:#7AAB8A;stroke-width:1;"/><line style="stroke:#7AAB8A;stroke-width:1;" x1="956.5991" x2="968.5991" y1="1280.1875" y2="1280.1875"/><polygon fill="#7AAB8A" points="964.5991,1325.8125,968.5991,1335.8125,972.5991,1325.8125,968.5991,1329.8125" style="stroke:#7AAB8A;stroke-width:1;"/><line style="stroke:#7AAB8A;stroke-width:1;" x1="968.5991" x2="968.5991" y1="1280.1875" y2="1380.125"/><line style="stroke:#7AAB8A;stroke-width:1;" x1="968.5991" x2="771.6479" y1="1380.125" y2="1380.125"/><line style="stroke:#7AAB8A;stroke-width:1;" x1="771.6479" x2="771.6479" y1="1380.125" y2="1400.125"/><polygon fill="#7AAB8A" points="767.6479,1390.125,771.6479,1400.125,775.6479,1390.125,771.6479,1394.125" style="stroke:#7AAB8A;stroke-width:1;"/><line style="stroke:#7AAB8A;stroke-width:1;" x1="443.6592" x2="433.6592" y1="1412.125" y2="1412.125"/><line style="stroke:#7AAB8A;stroke-width:1;" x1="433.6592" x2="433.6592" y1="1412.125" y2="1434.125"/><polygon fill="#7AAB8A" points="429.6592,1424.125,433.6592,1434.125,437.6592,1424.125,433.6592,1428.125" style="stroke:#7AAB8A;stroke-width:1;"/><line style="stroke:#7AAB8A;stroke-width:1;" x1="1099.6367" x2="1109.6367" y1="1412.125" y2="1412.125"/><line style="stroke:#7AAB8A;stroke-width:1;" x1="1109.6367" x2="1109.6367" y1="1412.125" y2="1434.125"/><polygon fill="#7AAB8A" points="1105.6367,1424.125,1109.6367,1434.125,1113.6367,1424.125,1109.6367,1428.125" style="stroke:#7AAB8A;stroke-width:1;"/><!--SRC=[hLRTRjf85BxtKnnfRnAfwTga0KAYL92VLOIQHgNRYznKOtniJnd6Q6OSTdcMlSnZv8uNspE3COQQ06ej91pEcVDzt_cRw16N4wRO60OfYx8fbmd4J6ZqT6bvo0psCXMXkiv4fk2F-3GEukQc1nkE4fNbCdhBwowJPi1d246ZOkaE3N_cvjygYimarhbimhHOEs91ZUSAgagYgrGsBO-oiCqsZLlE5L5lE1jdCggXiHbhuq0rWRkSLnJQ5QS8OvOBOuqFR8nmWp_Ojnm6g7WCrtGCfSQe9kfjoRBPF3zh-vwN8YCstcLuTVUjqGXyh-4t6YU1_NWeeyBi6Mu4UgttGGkwDnteZcmyL3ar2NA96Zwn7X-SF3r2F7zLqEE2oTd2GISOSZHQv-CnoXboev2dAE4v6yFyluSUC0cz-_vde1p2GyzpCEy3kFtk-y7Pzp9o5NIYvgynIeyUOWaBUXrIiJXq-MTuTU59QZDGF4cDrNV9hnuNfoA4BvaGs76mBe1rzJpAtX5v1Xsm0U1MnPb834GSry0b6wRG3GNBOog5Wck1JD6yn8fhiqY0FTBlzRiVZy5OhKS_sB47z7IwVd3XtXmxWR5nVzddMkJQK3mAZQaafD9oPoFFNqDKUfXI-ipIIDmTTVi-ua9SU4WZ2qUIgd9ibV5ugQgnGzKi7yEdJ3AZ2SKGPz_l-3xydQer4TNuXQ36uOB-mkdy9HNM-4Ho9haS6P1yc1hY8UOlMlEj0gkYJWjHzteXIDaGFA42Ou9YHfk3kYkXzn3b3XMdXwjOWTXDEKptOVoXofZfkb5nfQYKHeUOS2c1IzTkAzI81izDJZ9_5IHxLw4-72wnZjwYJWNcFfhFgfe9natz5f6ByTcQ61g35mgzK-hPuLBxTfD13nMw7dfZnAhQcikn-eT6bDWQe2cbbjPsCG8BfqZPiZj7mzTyWeAsd8MtQRY_SHLSBhYwNT4yN4Pt1QbMQtb9wZbJARCNnA7hexLLPrcn12MJfAuGod8DtIHHc333CwbFdb4nQQQPCi8ILE_gQlmE1XEAOd-mGulkLdZwyjNTCzLyxfE-rY-bpoAuhVZRajYk7mIrjeYjA2iuN7QYsTNixSDbMe2rEytDz0fodzO_BzGyCbsity-z-y597wMSiLIut17EBlRdXxEtE0Nb2O4Jgttu1lv6-il2EgRbFMHDrTmioywAtqnDgmN-uIf-wgiIO8- -Ac1t_JFHWIVwvkFnMezNkorNmpH16k9KlLtr_m40]--></g></svg>