<?xml version='1.0' encoding='ASCII' standalone='yes'?>
<svg xmlns="http://www.w3.org/2000/svg" xmlns:xlink="http://www.w3.org/1999/xlink" version="1.1" width="570.6666666666666px" viewBox="0 0 570.6666666666666 1406.6666666666667" height="1406.6666666666667px">
  <g>
    <svg version="1.1" width="570.6666666666666px" viewBox="0 0 570.6666666666666 1406.6666666666667" height="1406.6666666666667px">
  <polygon fill="#f3f1f6" points="0,0 570.6666666666666,0 570.6666666666666,1406.6666666666667 0,1406.6666666666667"/><g>
    <g transform="translate(57.06666666666665, 474.8972206320028) scale(1 1) translate(0, 0) scale(2.582821959666753 2.582821959666753) "><sodipodi:namedview xmlns:sodipodi="http://sodipodi.sourceforge.net/DTD/sodipodi-0.dtd" xmlns:inkscape="http://www.inkscape.org/namespaces/inkscape" id="namedview7" pagecolor="#ffffff" bordercolor="#999999" borderopacity="1" inkscape:pageshadow="0" inkscape:pageopacity="0" inkscape:pagecheckerboard="0" inkscape:document-units="mm" showgrid="false" fit-margin-top="0" fit-margin-left="0" fit-margin-right="0" fit-margin-bottom="0" inkscape:zoom="0.64052329" inkscape:cx="130.36216" inkscape:cy="412.163" inkscape:window-width="1512" inkscape:window-height="916" inkscape:window-x="3840" inkscape:window-y="136" inkscape:window-maximized="0" inkscape:current-layer="layer1"/>
  <defs id="defs2">
    <clipPath clipPathUnits="userSpaceOnUse" id="clipPath23">
      <path d="M 0,568.156 H 579.236 V 0 H 0 Z" id="path21"/>
    </clipPath>
  </defs>
  <g xmlns:inkscape="http://www.inkscape.org/namespaces/inkscape" inkscape:label="Layer 1" inkscape:groupmode="layer" id="layer1" transform="translate(-16.541937,-55.305267)">
    <g id="g19" clip-path="url(#clipPath23)" transform="matrix(0.35277777,0,0,-0.35277777,0.01017023,243.73675)" style="opacity:0.2">
      <g id="g25" transform="translate(122.444,32.7195)">
        <path d="m 0,0 h -56.104 c -11,0 -19.898,9.123 -19.463,20.115 10.594,267.191 231.277,481.302 501.029,481.302 v -56.02 c 0,-10.98 -8.688,-19.892 -19.658,-20.393 C 180.29,414.697 0,228.005 0,0" style="fill:#6ead83;fill-opacity:0.5;fill-rule:nonzero;stroke:none" id="path27"/>
      </g>
      <g id="g29" transform="translate(273.7828,32.7195)">
        <path d="m 0,0 h -55.926 c -11.228,0 -20.091,9.482 -19.435,20.69 10.744,183.439 163.389,329.388 349.485,329.388 v -56.263 c 0,-10.709 -8.273,-19.617 -18.957,-20.35 C 112.819,263.696 0,144.774 0,0" style="fill:#6ead83;fill-opacity:0.5;fill-rule:nonzero;stroke:none" id="path31"/>
      </g>
      <g id="g33" transform="translate(425.7667,32.7195)">
        <path d="m 0,0 h -55.445 c -11.653,0 -20.604,10.17 -19.334,21.753 10.866,99.032 95.031,176.341 196.919,176.341 v -57.011 c 0,-10.046 -7.283,-18.755 -17.229,-20.165 C 45.688,112.522 0,61.497 0,0" style="fill:#6ead83;fill-opacity:0.5;fill-rule:nonzero;stroke:none" id="path35"/>
      </g>
    </g>
  </g>
</g>
    <svg width="428pt" height="1055pt" viewBox="0.00 0.00 427.82 1054.50">
<g id="graph0" class="graph" transform="scale(1 1) rotate(-90) translate(-1050.5 423.82)">
<title>D</title>
<text text-anchor="start" x="8" y="-399.72" font-family="Times,serif" font-weight="bold" font-size="18.00">7.39 AD: Bestellung der Aggregationsebene der Bilanzkreissummenzeitreihe auf Ebene der Regelzone</text>
<text text-anchor="start" x="250.62" y="-369.62" font-family="Times,serif" font-weight="bold" font-size="16.00">7.39.1 E_0003_Bestellung der Aggregationsebene RZ pr&#252;fen</text>
<!-- Start -->
<g id="node1" class="node">
<title>Start</title>
<polygon fill="#7a8da1" stroke="black" points="522.01,-321.82 351.46,-321.82 351.46,-278.54 522.01,-278.54 522.01,-321.82"/>
<text text-anchor="start" x="408.61" y="-300.88" font-family="Times,serif" font-weight="bold" font-size="14.00">E_0003</text>
<text text-anchor="start" x="365.86" y="-288.78" font-family="Times,serif" font-weight="bold" text-decoration="underline" font-size="12.00">Pr&#252;fende Rolle:</text>
<text text-anchor="start" x="470.86" y="-288.78" font-family="Times,serif" font-weight="bold" font-size="12.00"> &#220;NB</text>
</g>
<!-- 1 -->
<g id="node2" class="node">
<title>1</title>
<path fill="#7aab8a" stroke="black" d="M623.26,-241.54C623.26,-241.54 250.21,-241.54 250.21,-241.54 244.21,-241.54 238.21,-235.54 238.21,-229.54 238.21,-229.54 238.21,-217.54 238.21,-217.54 238.21,-211.54 244.21,-205.54 250.21,-205.54 250.21,-205.54 623.26,-205.54 623.26,-205.54 629.26,-205.54 635.26,-211.54 635.26,-217.54 635.26,-217.54 635.26,-229.54 635.26,-229.54 635.26,-235.54 629.26,-241.54 623.26,-241.54"/>
<text text-anchor="start" x="252.61" y="-219.86" font-family="Times,serif" font-weight="bold" font-size="14.00">1: </text>
<text text-anchor="start" x="272.11" y="-219.86" font-family="Times,serif" font-size="14.00">Erfolgt der Eingang der Bestellung fristgerecht?</text>
</g>
<!-- Start&#45;&gt;1 -->
<g id="edge1" class="edge">
<title>Start-&gt;1</title>
<path fill="none" stroke="black" d="M436.73,-278.39C436.73,-270.53 436.73,-261.45 436.73,-253.01"/>
<polygon fill="black" stroke="black" points="440.23,-253.21 436.73,-243.21 433.23,-253.21 440.23,-253.21"/>
</g>
<!-- A01 -->
<g id="node3" class="node">
<title>A01</title>
<polygon fill="#cfb986" stroke="black" points="371.97,-152.29 227.49,-152.29 227.49,-102.77 371.97,-102.77 371.97,-152.29"/>
<text text-anchor="start" x="284.73" y="-134.23" font-family="Times,serif" font-weight="bold" font-size="14.00">A01</text>
<text text-anchor="start" x="239.73" y="-122.13" font-family="Times,serif" text-decoration="underline" font-size="12.00">Hinweis:</text>
<text text-anchor="start" x="239.73" y="-110.13" font-family="Times,serif" font-size="12.00">Frist&#252;berschreitung</text>
</g>
<!-- 1&#45;&gt;A01 -->
<g id="edge2" class="edge">
<title>1-&gt;A01</title>
<path fill="none" stroke="black" d="M411.28,-205.08C392.46,-192.16 366.35,-174.24 344.11,-158.98"/>
<polygon fill="black" stroke="black" points="346.33,-156.26 336.1,-153.49 342.37,-162.03 346.33,-156.26"/>
<text text-anchor="middle" x="400.61" y="-174.24" font-family="Times,serif" font-size="14.00">Nein</text>
</g>
<!-- 2 -->
<g id="node4" class="node">
<title>2</title>
<path fill="#7aab8a" stroke="black" d="M807.01,-145.53C807.01,-145.53 402.46,-145.53 402.46,-145.53 396.46,-145.53 390.46,-139.53 390.46,-133.53 390.46,-133.53 390.46,-121.53 390.46,-121.53 390.46,-115.53 396.46,-109.53 402.46,-109.53 402.46,-109.53 807.01,-109.53 807.01,-109.53 813.01,-109.53 819.01,-115.53 819.01,-121.53 819.01,-121.53 819.01,-133.53 819.01,-133.53 819.01,-139.53 813.01,-145.53 807.01,-145.53"/>
<text text-anchor="start" x="404.86" y="-123.86" font-family="Times,serif" font-weight="bold" font-size="14.00">2: </text>
<text text-anchor="start" x="424.36" y="-123.86" font-family="Times,serif" font-size="14.00">Erfolgt die Bestellung zum Monatsersten 00:00 Uhr?</text>
</g>
<!-- 1&#45;&gt;2 -->
<g id="edge3" class="edge">
<title>1-&gt;2</title>
<path fill="none" stroke="black" d="M467.94,-205.08C494.93,-189.97 534.16,-168.02 563.69,-151.5"/>
<polygon fill="black" stroke="black" points="565.36,-154.58 572.37,-146.64 561.94,-148.47 565.36,-154.58"/>
<text text-anchor="middle" x="532.48" y="-174.24" font-family="Times,serif" font-size="14.00">Ja</text>
</g>
<!-- A02 -->
<g id="node5" class="node">
<title>A02</title>
<polygon fill="#cfb986" stroke="black" points="637.97,-49.52 403.49,-49.52 403.49,0 637.97,0 637.97,-49.52"/>
<text text-anchor="start" x="505.73" y="-31.46" font-family="Times,serif" font-weight="bold" font-size="14.00">A02</text>
<text text-anchor="start" x="415.73" y="-19.36" font-family="Times,serif" text-decoration="underline" font-size="12.00">Hinweis:</text>
<text text-anchor="start" x="415.73" y="-7.36" font-family="Times,serif" font-size="12.00">Gew&#228;hlter Zeitpunkt nicht zul&#228;ssig</text>
</g>
<!-- 2&#45;&gt;A02 -->
<g id="edge4" class="edge">
<title>2-&gt;A02</title>
<path fill="none" stroke="black" d="M590.48,-109.44C578.84,-95.47 562.06,-75.34 547.87,-58.32"/>
<polygon fill="black" stroke="black" points="550.79,-56.35 541.7,-50.91 545.41,-60.83 550.79,-56.35"/>
<text text-anchor="middle" x="584.61" y="-71.47" font-family="Times,serif" font-size="14.00">Nein</text>
</g>
<!-- Ende -->
<g id="node6" class="node">
<title>Ende</title>
<polygon fill="#7a8da1" stroke="black" points="721.51,-42.76 655.96,-42.76 655.96,-6.76 721.51,-6.76 721.51,-42.76"/>
<text text-anchor="middle" x="688.73" y="-20.08" font-family="Times,serif" font-size="14.00">Ende</text>
</g>
<!-- 2&#45;&gt;Ende -->
<g id="edge5" class="edge">
<title>2-&gt;Ende</title>
<path fill="none" stroke="black" d="M618.98,-109.44C632.26,-93.51 652.22,-69.56 667.4,-51.35"/>
<polygon fill="black" stroke="black" points="669.73,-54.02 673.44,-44.1 664.35,-49.54 669.73,-54.02"/>
<text text-anchor="middle" x="658.48" y="-71.47" font-family="Times,serif" font-size="14.00">Ja</text>
</g>
</g>
</svg>
  </g>
</svg>
  </g>
</svg>
