<?xml version='1.0' encoding='ASCII' standalone='yes'?>
<svg xmlns="http://www.w3.org/2000/svg" xmlns:xlink="http://www.w3.org/1999/xlink" version="1.1" width="1406.6666666666667px" viewBox="0 0 1406.6666666666667 534.6666666666666" height="534.6666666666666px">
  <g>
    <g transform="translate(489.62530558844196, 53.466666666666654) scale(1 1) translate(0, 0) scale(2.41809194078524 2.41809194078524) "><sodipodi:namedview xmlns:sodipodi="http://sodipodi.sourceforge.net/DTD/sodipodi-0.dtd" xmlns:inkscape="http://www.inkscape.org/namespaces/inkscape" id="namedview7" pagecolor="#ffffff" bordercolor="#999999" borderopacity="1" inkscape:pageshadow="0" inkscape:pageopacity="0" inkscape:pagecheckerboard="0" inkscape:document-units="mm" showgrid="false" fit-margin-top="0" fit-margin-left="0" fit-margin-right="0" fit-margin-bottom="0" inkscape:zoom="0.64052329" inkscape:cx="130.36216" inkscape:cy="412.163" inkscape:window-width="1512" inkscape:window-height="916" inkscape:window-x="3840" inkscape:window-y="136" inkscape:window-maximized="0" inkscape:current-layer="layer1"/>
  <defs id="defs2">
    <clipPath clipPathUnits="userSpaceOnUse" id="clipPath23">
      <path d="M 0,568.156 H 579.236 V 0 H 0 Z" id="path21"/>
    </clipPath>
  </defs>
  <path class="cls-1" d="M122.44,531.2h-56.1c-11,0-19.9-9.12-19.46-20.11C57.47,243.89,278.15,29.78,547.91,29.78v56.02c0,10.98-8.69,19.89-19.66,20.39-225.51,10.31-405.8,197-405.8,425Z"/>
  <path class="cls-1" d="M273.78,531.2h-55.93c-11.23,0-20.09-9.48-19.43-20.69,10.74-183.44,163.39-329.39,349.48-329.39v56.26c0,10.71-8.27,19.62-18.96,20.35-142.35,9.77-255.17,128.69-255.17,273.46Z"/>
  <path class="cls-1" d="M425.77,531.2h-55.45c-11.65,0-20.6-10.17-19.33-21.75,10.87-99.03,95.03-176.34,196.92-176.34v57.01c0,10.05-7.28,18.75-17.23,20.16-59.22,8.4-104.91,59.42-104.91,120.92Z"/>
</g>
    <svg width="1055pt" height="401pt" viewBox="0.00 0.00 1054.50 400.78">
<g id="graph0" class="graph" transform="scale(1 1) rotate(0) translate(4 396.78)">
<title>D</title>
<text text-anchor="start" x="8" y="-372.68" font-family="Times,serif" font-weight="bold" font-size="18.00">7.39 AD: Bestellung der Aggregationsebene der Bilanzkreissummenzeitreihe auf Ebene der Regelzone</text>
<text text-anchor="start" x="250.62" y="-342.58" font-family="Times,serif" font-weight="bold" font-size="16.00">7.39.1 E_0003_Bestellung der Aggregationsebene RZ pr&#252;fen</text>
<!-- Start -->
<g id="node1" class="node">
<title>Start</title>
<polygon fill="#7a8da1" stroke="black" points="522.01,-294.78 351.46,-294.78 351.46,-251.5 522.01,-251.5 522.01,-294.78"/>
<text text-anchor="start" x="408.61" y="-273.84" font-family="Times,serif" font-weight="bold" font-size="14.00">E_0003</text>
<text text-anchor="start" x="365.86" y="-261.74" font-family="Times,serif" font-weight="bold" text-decoration="underline" font-size="12.00">Pr&#252;fende Rolle:</text>
<text text-anchor="start" x="470.86" y="-261.74" font-family="Times,serif" font-weight="bold" font-size="12.00"> &#220;NB</text>
</g>
<!-- 1 -->
<g id="node2" class="node">
<title>1</title>
<path fill="#7aab8a" stroke="black" d="M623.26,-214.5C623.26,-214.5 250.21,-214.5 250.21,-214.5 244.21,-214.5 238.21,-208.5 238.21,-202.5 238.21,-202.5 238.21,-190.5 238.21,-190.5 238.21,-184.5 244.21,-178.5 250.21,-178.5 250.21,-178.5 623.26,-178.5 623.26,-178.5 629.26,-178.5 635.26,-184.5 635.26,-190.5 635.26,-190.5 635.26,-202.5 635.26,-202.5 635.26,-208.5 629.26,-214.5 623.26,-214.5"/>
<text text-anchor="start" x="252.61" y="-192.82" font-family="Times,serif" font-weight="bold" font-size="14.00">1: </text>
<text text-anchor="start" x="272.11" y="-192.82" font-family="Times,serif" font-size="14.00">Erfolgt der Eingang der Bestellung fristgerecht?</text>
</g>
<!-- Start&#45;&gt;1 -->
<g id="edge1" class="edge">
<title>Start-&gt;1</title>
<path fill="none" stroke="black" d="M436.73,-251.35C436.73,-243.49 436.73,-234.41 436.73,-225.97"/>
<polygon fill="black" stroke="black" points="440.23,-226.17 436.73,-216.17 433.23,-226.17 440.23,-226.17"/>
</g>
<!-- A01 -->
<g id="node3" class="node">
<title>A01</title>
<polygon fill="#cfb986" stroke="black" points="371.97,-125.25 227.49,-125.25 227.49,-89.25 371.97,-89.25 371.97,-125.25"/>
<text text-anchor="start" x="239.73" y="-108.85" font-family="Times,serif" text-decoration="underline" font-size="12.00">Hinweis:</text>
<text text-anchor="start" x="239.73" y="-96.85" font-family="Times,serif" font-size="12.00">Frist&#252;berschreitung</text>
</g>
<!-- 1&#45;&gt;A01 -->
<g id="edge2" class="edge">
<title>1-&gt;A01</title>
<path fill="none" stroke="black" d="M409.34,-178.05C388.43,-164.74 359.42,-146.26 336.49,-131.66"/>
<polygon fill="black" stroke="black" points="338.67,-128.9 328.36,-126.48 334.91,-134.8 338.67,-128.9"/>
<text text-anchor="middle" x="396.61" y="-147.2" font-family="Times,serif" font-size="14.00">Nein</text>
</g>
<!-- 2 -->
<g id="node4" class="node">
<title>2</title>
<path fill="#7aab8a" stroke="black" d="M807.01,-125.25C807.01,-125.25 402.46,-125.25 402.46,-125.25 396.46,-125.25 390.46,-119.25 390.46,-113.25 390.46,-113.25 390.46,-101.25 390.46,-101.25 390.46,-95.25 396.46,-89.25 402.46,-89.25 402.46,-89.25 807.01,-89.25 807.01,-89.25 813.01,-89.25 819.01,-95.25 819.01,-101.25 819.01,-101.25 819.01,-113.25 819.01,-113.25 819.01,-119.25 813.01,-125.25 807.01,-125.25"/>
<text text-anchor="start" x="404.86" y="-103.58" font-family="Times,serif" font-weight="bold" font-size="14.00">2: </text>
<text text-anchor="start" x="424.36" y="-103.58" font-family="Times,serif" font-size="14.00">Erfolgt die Bestellung zum Monatsersten 00:00 Uhr?</text>
</g>
<!-- 1&#45;&gt;2 -->
<g id="edge3" class="edge">
<title>1-&gt;2</title>
<path fill="none" stroke="black" d="M470.33,-178.05C496.42,-164.5 532.82,-145.6 561.16,-130.88"/>
<polygon fill="black" stroke="black" points="562.59,-134.08 569.85,-126.36 559.37,-127.87 562.59,-134.08"/>
<text text-anchor="middle" x="542.48" y="-147.2" font-family="Times,serif" font-size="14.00">Ja</text>
</g>
<!-- A02 -->
<g id="node5" class="node">
<title>A02</title>
<polygon fill="#cfb986" stroke="black" points="637.97,-36 403.49,-36 403.49,0 637.97,0 637.97,-36"/>
<text text-anchor="start" x="415.73" y="-19.6" font-family="Times,serif" text-decoration="underline" font-size="12.00">Hinweis:</text>
<text text-anchor="start" x="415.73" y="-7.6" font-family="Times,serif" font-size="12.00">Gew&#228;hlter Zeitpunkt nicht zul&#228;ssig</text>
</g>
<!-- 2&#45;&gt;A02 -->
<g id="edge4" class="edge">
<title>2-&gt;A02</title>
<path fill="none" stroke="black" d="M588.14,-89.01C575.83,-76.23 558.85,-58.59 545.02,-44.22"/>
<polygon fill="black" stroke="black" points="547.8,-42.07 538.34,-37.29 542.76,-46.92 547.8,-42.07"/>
<text text-anchor="middle" x="586.61" y="-57.95" font-family="Times,serif" font-size="14.00">Nein</text>
</g>
<!-- Ende -->
<g id="node6" class="node">
<title>Ende</title>
<polygon fill="#7a8da1" stroke="black" points="721.51,-36 655.96,-36 655.96,0 721.51,0 721.51,-36"/>
<text text-anchor="middle" x="688.73" y="-13.32" font-family="Times,serif" font-size="14.00">Ende</text>
</g>
<!-- 2&#45;&gt;Ende -->
<g id="edge5" class="edge">
<title>2-&gt;Ende</title>
<path fill="none" stroke="black" d="M621.33,-89.01C633.64,-76.23 650.61,-58.59 664.45,-44.22"/>
<polygon fill="black" stroke="black" points="666.71,-46.92 671.12,-37.29 661.66,-42.07 666.71,-46.92"/>
<text text-anchor="middle" x="660.48" y="-57.95" font-family="Times,serif" font-size="14.00">Ja</text>
</g>
</g>
</svg>
  </g>
</svg>
