<?xml version='1.0' encoding='ASCII' standalone='yes'?>
<svg xmlns="http://www.w3.org/2000/svg" xmlns:xlink="http://www.w3.org/1999/xlink" version="1.1" width="1434.6666666666667px" viewBox="0 0 1434.6666666666667 870.6666666666666" height="870.6666666666666px">
  <g>
    <svg version="1.1" width="1434.6666666666667px" viewBox="0 0 1434.6666666666667 870.6666666666666" height="870.6666666666666px">
  <polygon fill="#f3f1f6" points="0,0 1434.6666666666667,0 1434.6666666666667,870.6666666666666 0,870.6666666666666"/><g>
    <g transform="translate(369.3249988759416, 87.06666666666665) scale(1 1) translate(0, 0) scale(3.937690866166488 3.937690866166488) "><sodipodi:namedview xmlns:sodipodi="http://sodipodi.sourceforge.net/DTD/sodipodi-0.dtd" xmlns:inkscape="http://www.inkscape.org/namespaces/inkscape" id="namedview7" pagecolor="#ffffff" bordercolor="#999999" borderopacity="1" inkscape:pageshadow="0" inkscape:pageopacity="0" inkscape:pagecheckerboard="0" inkscape:document-units="mm" showgrid="false" fit-margin-top="0" fit-margin-left="0" fit-margin-right="0" fit-margin-bottom="0" inkscape:zoom="0.64052329" inkscape:cx="130.36216" inkscape:cy="412.163" inkscape:window-width="1512" inkscape:window-height="916" inkscape:window-x="3840" inkscape:window-y="136" inkscape:window-maximized="0" inkscape:current-layer="layer1"/>
  <defs id="defs2">
    <clipPath clipPathUnits="userSpaceOnUse" id="clipPath23">
      <path d="M 0,568.156 H 579.236 V 0 H 0 Z" id="path21"/>
    </clipPath>
  </defs>
  <g xmlns:inkscape="http://www.inkscape.org/namespaces/inkscape" inkscape:label="Layer 1" inkscape:groupmode="layer" id="layer1" transform="translate(-16.541937,-55.305267)">
    <g id="g19" clip-path="url(#clipPath23)" transform="matrix(0.35277777,0,0,-0.35277777,0.01017023,243.73675)" style="opacity:0.2">
      <g id="g25" transform="translate(122.444,32.7195)">
        <path d="m 0,0 h -56.104 c -11,0 -19.898,9.123 -19.463,20.115 10.594,267.191 231.277,481.302 501.029,481.302 v -56.02 c 0,-10.98 -8.688,-19.892 -19.658,-20.393 C 180.29,414.697 0,228.005 0,0" style="fill:#6ead83;fill-opacity:0.5;fill-rule:nonzero;stroke:none" id="path27"/>
      </g>
      <g id="g29" transform="translate(273.7828,32.7195)">
        <path d="m 0,0 h -55.926 c -11.228,0 -20.091,9.482 -19.435,20.69 10.744,183.439 163.389,329.388 349.485,329.388 v -56.263 c 0,-10.709 -8.273,-19.617 -18.957,-20.35 C 112.819,263.696 0,144.774 0,0" style="fill:#6ead83;fill-opacity:0.5;fill-rule:nonzero;stroke:none" id="path31"/>
      </g>
      <g id="g33" transform="translate(425.7667,32.7195)">
        <path d="m 0,0 h -55.445 c -11.653,0 -20.604,10.17 -19.334,21.753 10.866,99.032 95.031,176.341 196.919,176.341 v -57.011 c 0,-10.046 -7.283,-18.755 -17.229,-20.165 C 45.688,112.522 0,61.497 0,0" style="fill:#6ead83;fill-opacity:0.5;fill-rule:nonzero;stroke:none" id="path35"/>
      </g>
    </g>
  </g>
</g>
    <svg width="1076pt" height="653pt" viewBox="0.00 0.00 1075.55 652.88">
<g id="graph0" class="graph" transform="scale(1 1) rotate(0) translate(4 648.88)">
<title>D</title>
<text text-anchor="start" x="15.15" y="-624.78" font-family="Times,serif" font-weight="bold" font-size="18.00">7.41 AD: &#220;bermittlung Pr&#252;fmitteilung f&#252;r die Bilanzkreissummenzeitreihe vom BKV an BIKO und &#220;NB</text>
<text text-anchor="start" x="366.15" y="-594.68" font-family="Times,serif" font-weight="bold" font-size="16.00">7.41.2 E_0025_Pr&#252;fmitteilung pr&#252;fen</text>
<!-- Start -->
<g id="node1" class="node">
<title>Start</title>
<path fill="#7a8da1" stroke="black" stroke-width="0" d="M397.8,-546.88C397.8,-546.88 247.5,-546.88 247.5,-546.88 241.5,-546.88 235.5,-540.88 235.5,-534.88 235.5,-534.88 235.5,-515.6 235.5,-515.6 235.5,-509.6 241.5,-503.6 247.5,-503.6 247.5,-503.6 397.8,-503.6 397.8,-503.6 403.8,-503.6 409.8,-509.6 409.8,-515.6 409.8,-515.6 409.8,-534.88 409.8,-534.88 409.8,-540.88 403.8,-546.88 397.8,-546.88"/>
<text text-anchor="start" x="294.52" y="-525.94" font-family="Times,serif" font-weight="bold" font-size="14.00">E_0025</text>
<text text-anchor="start" x="249.9" y="-513.84" font-family="Times,serif" font-weight="bold" text-decoration="underline" font-size="12.00">Pr&#252;fende Rolle:</text>
<text text-anchor="start" x="354.9" y="-513.84" font-family="Times,serif" font-weight="bold" font-size="12.00"> BIKO</text>
</g>
<!-- 1 -->
<g id="node2" class="node">
<title>1</title>
<path fill="#7aab8a" stroke="black" stroke-width="0" d="M633.3,-466.6C633.3,-466.6 12,-466.6 12,-466.6 6,-466.6 0,-460.6 0,-454.6 0,-454.6 0,-442.6 0,-442.6 0,-436.6 6,-430.6 12,-430.6 12,-430.6 633.3,-430.6 633.3,-430.6 639.3,-430.6 645.3,-436.6 645.3,-442.6 645.3,-442.6 645.3,-454.6 645.3,-454.6 645.3,-460.6 639.3,-466.6 633.3,-466.6"/>
<text text-anchor="start" x="14.4" y="-444.92" font-family="Times,serif" font-weight="bold" font-size="14.00">1: </text>
<text text-anchor="start" x="33.9" y="-444.92" font-family="Times,serif" font-size="14.00">Erfolgt der Eingang der Pr&#252;fmitteilung nach Ablauf der Clearingfrist f&#252;r die KBKA?</text>
</g>
<!-- Start&#45;&gt;1 -->
<g id="edge1" class="edge">
<title>Start-&gt;1</title>
<path fill="none" stroke="black" d="M322.65,-503.84C322.65,-495.77 322.65,-486.36 322.65,-477.67"/>
<polygon fill="black" stroke="black" points="326.15,-477.96 322.65,-467.96 319.15,-477.96 326.15,-477.96"/>
</g>
<!-- A01 -->
<g id="node3" class="node">
<title>A01</title>
<path fill="#cfb986" stroke="black" stroke-width="0" d="M217.89,-377.35C217.89,-377.35 97.41,-377.35 97.41,-377.35 91.41,-377.35 85.41,-371.35 85.41,-365.35 85.41,-365.35 85.41,-339.83 85.41,-339.83 85.41,-333.83 91.41,-327.83 97.41,-327.83 97.41,-327.83 217.89,-327.83 217.89,-327.83 223.89,-327.83 229.89,-333.83 229.89,-339.83 229.89,-339.83 229.89,-365.35 229.89,-365.35 229.89,-371.35 223.89,-377.35 217.89,-377.35"/>
<text text-anchor="start" x="97.65" y="-359.29" font-family="Times,serif" font-weight="bold" font-size="14.00">A01</text>
<text text-anchor="start" x="97.65" y="-347.19" font-family="Times,serif" text-decoration="underline" font-size="12.00">Hinweis:</text>
<text text-anchor="start" x="97.65" y="-335.19" font-family="Times,serif" font-size="12.00">Frist&#252;berschreitung</text>
</g>
<!-- 1&#45;&gt;A01 -->
<g id="edge2" class="edge">
<title>1-&gt;A01</title>
<path fill="none" stroke="#7aab8a" d="M293.15,-430.79C269.87,-417.53 236.82,-398.7 209.2,-382.96"/>
<polygon fill="#7aab8a" stroke="#7aab8a" points="211.03,-379.97 200.6,-378.06 207.56,-386.06 211.03,-379.97"/>
<text text-anchor="start" x="259.65" y="-400.3" font-family="Times,serif" font-weight="bold" font-size="14.00">JA</text>
</g>
<!-- 2 -->
<g id="node4" class="node">
<title>2</title>
<path fill="#7aab8a" stroke="black" stroke-width="0" d="M711.55,-370.59C711.55,-370.59 259.75,-370.59 259.75,-370.59 253.75,-370.59 247.75,-364.59 247.75,-358.59 247.75,-358.59 247.75,-346.59 247.75,-346.59 247.75,-340.59 253.75,-334.59 259.75,-334.59 259.75,-334.59 711.55,-334.59 711.55,-334.59 717.55,-334.59 723.55,-340.59 723.55,-346.59 723.55,-346.59 723.55,-358.59 723.55,-358.59 723.55,-364.59 717.55,-370.59 711.55,-370.59"/>
<text text-anchor="start" x="262.15" y="-348.91" font-family="Times,serif" font-weight="bold" font-size="14.00">2: </text>
<text text-anchor="start" x="281.65" y="-348.91" font-family="Times,serif" font-size="14.00">Befindet sich der MaBiS-ZP auf der Aggregationsebene RZ?</text>
</g>
<!-- 1&#45;&gt;2 -->
<g id="edge3" class="edge">
<title>1-&gt;2</title>
<path fill="none" stroke="#7aab8a" d="M351.79,-430.79C378.17,-415.58 417.23,-393.05 446.36,-376.25"/>
<polygon fill="#7aab8a" stroke="#7aab8a" points="447.99,-379.35 454.9,-371.32 444.49,-373.29 447.99,-379.35"/>
<text text-anchor="start" x="408.65" y="-400.3" font-family="Times,serif" font-weight="bold" font-size="14.00">NEIN</text>
</g>
<!-- 3 -->
<g id="node5" class="node">
<title>3</title>
<path fill="#7aab8a" stroke="black" stroke-width="0" d="M544.05,-267.58C544.05,-267.58 83.25,-267.58 83.25,-267.58 77.25,-267.58 71.25,-261.58 71.25,-255.58 71.25,-255.58 71.25,-234.3 71.25,-234.3 71.25,-228.3 77.25,-222.3 83.25,-222.3 83.25,-222.3 544.05,-222.3 544.05,-222.3 550.05,-222.3 556.05,-228.3 556.05,-234.3 556.05,-234.3 556.05,-255.58 556.05,-255.58 556.05,-261.58 550.05,-267.58 544.05,-267.58"/>
<text text-anchor="start" x="85.65" y="-246.64" font-family="Times,serif" font-weight="bold" font-size="14.00">3: </text>
<text text-anchor="start" x="105.15" y="-246.64" font-family="Times,serif" font-size="14.00">Hat der BKV f&#252;r den BK dieses MaBiS-ZP in diesem Bilanzie-</text>
<text text-anchor="start" x="85.65" y="-232.64" font-family="Times,serif" font-size="14.00">rungsmonat die Aggregationsebene RZ abbestellt?</text>
</g>
<!-- 2&#45;&gt;3 -->
<g id="edge4" class="edge">
<title>2-&gt;3</title>
<path fill="none" stroke="#7aab8a" d="M458.02,-334.62C431.08,-318.07 389.68,-292.64 358.11,-273.25"/>
<polygon fill="#7aab8a" stroke="#7aab8a" points="360.3,-270.48 349.94,-268.23 356.63,-276.45 360.3,-270.48"/>
<text text-anchor="start" x="414.65" y="-297.53" font-family="Times,serif" font-weight="bold" font-size="14.00">NEIN</text>
</g>
<!-- 5 -->
<g id="node9" class="node">
<title>5</title>
<path fill="#7aab8a" stroke="black" stroke-width="0" d="M1055.55,-274.58C1055.55,-274.58 585.75,-274.58 585.75,-274.58 579.75,-274.58 573.75,-268.58 573.75,-262.58 573.75,-262.58 573.75,-227.3 573.75,-227.3 573.75,-221.3 579.75,-215.3 585.75,-215.3 585.75,-215.3 1055.55,-215.3 1055.55,-215.3 1061.55,-215.3 1067.55,-221.3 1067.55,-227.3 1067.55,-227.3 1067.55,-262.58 1067.55,-262.58 1067.55,-268.58 1061.55,-274.58 1055.55,-274.58"/>
<text text-anchor="start" x="588.15" y="-253.64" font-family="Times,serif" font-weight="bold" font-size="14.00">5: </text>
<text text-anchor="start" x="607.65" y="-253.64" font-family="Times,serif" font-size="14.00">Hat der BKV dem BIKO f&#252;r diesen Bilanzierungsmonat bereits</text>
<text text-anchor="start" x="588.15" y="-239.64" font-family="Times,serif" font-size="14.00">mitgeteilt, dass die weiteren Pr&#252;fungen auf Ebene des BG</text>
<text text-anchor="start" x="588.15" y="-225.64" font-family="Times,serif" font-size="14.00">stattfinden m&#252;ssen?</text>
</g>
<!-- 2&#45;&gt;5 -->
<g id="edge5" class="edge">
<title>2-&gt;5</title>
<path fill="none" stroke="#7aab8a" d="M539.47,-334.62C587.79,-319.38 660,-296.6 719.15,-277.95"/>
<polygon fill="#7aab8a" stroke="#7aab8a" points="720.1,-281.32 728.59,-274.97 718,-274.64 720.1,-281.32"/>
<text text-anchor="start" x="662.65" y="-297.53" font-family="Times,serif" font-weight="bold" font-size="14.00">JA</text>
</g>
<!-- Ende -->
<g id="node6" class="node">
<title>Ende</title>
<path fill="#7a8da1" stroke="black" stroke-width="0" d="M568.42,-42.76C568.42,-42.76 526.88,-42.76 526.88,-42.76 520.88,-42.76 514.88,-36.76 514.88,-30.76 514.88,-30.76 514.88,-18.76 514.88,-18.76 514.88,-12.76 520.88,-6.76 526.88,-6.76 526.88,-6.76 568.42,-6.76 568.42,-6.76 574.42,-6.76 580.42,-12.76 580.42,-18.76 580.42,-18.76 580.42,-30.76 580.42,-30.76 580.42,-36.76 574.42,-42.76 568.42,-42.76"/>
<text text-anchor="middle" x="547.65" y="-20.08" font-family="Times,serif" font-size="14.00">Ende</text>
</g>
<!-- 3&#45;&gt;Ende -->
<g id="edge7" class="edge">
<title>3-&gt;Ende</title>
<path fill="none" stroke="#7aab8a" d="M439.66,-222.33C484.05,-210.12 532.18,-191.2 569.65,-162.05 574.04,-158.64 625.26,-82.05 622.65,-77.14"/>
<path fill="none" stroke="#7aab8a" d="M622.65,-75.14C614.96,-62.4 602.58,-52.29 590.07,-44.63"/>
<polygon fill="#7aab8a" stroke="#7aab8a" points="591.84,-41.61 581.42,-39.74 588.4,-47.7 591.84,-41.61"/>
<text text-anchor="start" x="608.65" y="-128.74" font-family="Times,serif" font-weight="bold" font-size="14.00">JA</text>
</g>
<!-- 4 -->
<g id="node7" class="node">
<title>4</title>
<path fill="#7aab8a" stroke="black" stroke-width="0" d="M548.55,-162.05C548.55,-162.05 78.75,-162.05 78.75,-162.05 72.75,-162.05 66.75,-156.05 66.75,-150.05 66.75,-150.05 66.75,-114.77 66.75,-114.77 66.75,-108.77 72.75,-102.77 78.75,-102.77 78.75,-102.77 548.55,-102.77 548.55,-102.77 554.55,-102.77 560.55,-108.77 560.55,-114.77 560.55,-114.77 560.55,-150.05 560.55,-150.05 560.55,-156.05 554.55,-162.05 548.55,-162.05"/>
<text text-anchor="start" x="81.15" y="-141.11" font-family="Times,serif" font-weight="bold" font-size="14.00">4: </text>
<text text-anchor="start" x="100.65" y="-141.11" font-family="Times,serif" font-size="14.00">Hat der BKV dem BIKO f&#252;r diesen Bilanzierungsmonat bereits</text>
<text text-anchor="start" x="81.15" y="-127.11" font-family="Times,serif" font-size="14.00">mitgeteilt, dass die weiteren Pr&#252;fungen auf Ebene des BG</text>
<text text-anchor="start" x="81.15" y="-113.11" font-family="Times,serif" font-size="14.00">stattfinden m&#252;ssen?</text>
</g>
<!-- 3&#45;&gt;4 -->
<g id="edge6" class="edge">
<title>3-&gt;4</title>
<path fill="none" stroke="#7aab8a" d="M313.65,-222.37C313.65,-208.38 313.65,-189.74 313.65,-173.13"/>
<polygon fill="#7aab8a" stroke="#7aab8a" points="317.15,-173.56 313.65,-163.56 310.15,-173.56 317.15,-173.56"/>
<text text-anchor="start" x="313.65" y="-185" font-family="Times,serif" font-weight="bold" font-size="14.00">NEIN</text>
</g>
<!-- 4&#45;&gt;Ende -->
<g id="edge9" class="edge">
<title>4-&gt;Ende</title>
<path fill="none" stroke="#7aab8a" d="M376.97,-102.82C417.5,-84.52 469.01,-61.27 504.78,-45.11"/>
<polygon fill="#7aab8a" stroke="#7aab8a" points="505.84,-48.48 513.51,-41.17 502.96,-42.1 505.84,-48.48"/>
<text text-anchor="start" x="450.65" y="-72.47" font-family="Times,serif" font-weight="bold" font-size="14.00">JA</text>
</g>
<!-- A02 -->
<g id="node8" class="node">
<title>A02</title>
<path fill="#cfb986" stroke="black" stroke-width="0" d="M408.01,-49.52C408.01,-49.52 219.28,-49.52 219.28,-49.52 213.28,-49.52 207.28,-43.52 207.28,-37.52 207.28,-37.52 207.28,-12 207.28,-12 207.28,-6 213.28,0 219.28,0 219.28,0 408.01,0 408.01,0 414.01,0 420.01,-6 420.01,-12 420.01,-12 420.01,-37.52 420.01,-37.52 420.01,-43.52 414.01,-49.52 408.01,-49.52"/>
<text text-anchor="start" x="219.52" y="-31.46" font-family="Times,serif" font-weight="bold" font-size="14.00">A02</text>
<text text-anchor="start" x="219.52" y="-19.36" font-family="Times,serif" text-decoration="underline" font-size="12.00">Hinweis:</text>
<text text-anchor="start" x="219.52" y="-7.36" font-family="Times,serif" font-size="12.00">Falsche Aggregationsebene BG</text>
</g>
<!-- 4&#45;&gt;A02 -->
<g id="edge8" class="edge">
<title>4-&gt;A02</title>
<path fill="none" stroke="#7aab8a" d="M313.65,-102.82C313.65,-89.87 313.65,-74.44 313.65,-60.8"/>
<polygon fill="#7aab8a" stroke="#7aab8a" points="317.15,-60.89 313.65,-50.89 310.15,-60.89 317.15,-60.89"/>
<text text-anchor="start" x="313.65" y="-72.47" font-family="Times,serif" font-weight="bold" font-size="14.00">NEIN</text>
</g>
<!-- 5&#45;&gt;Ende -->
<g id="edge11" class="edge">
<title>5-&gt;Ende</title>
<path fill="none" stroke="#7aab8a" d="M742.2,-215.48C714.52,-202.48 684.86,-184.82 662.9,-162.05 633.91,-131.99 644.21,-112.91 622.65,-77.14"/>
<text text-anchor="start" x="662.65" y="-128.74" font-family="Times,serif" font-weight="bold" font-size="14.00">NEIN</text>
</g>
<!-- A03 -->
<g id="node10" class="node">
<title>A03</title>
<path fill="#cfb986" stroke="black" stroke-width="0" d="M914.26,-157.17C914.26,-157.17 727.03,-157.17 727.03,-157.17 721.03,-157.17 715.03,-151.17 715.03,-145.17 715.03,-145.17 715.03,-119.65 715.03,-119.65 715.03,-113.65 721.03,-107.65 727.03,-107.65 727.03,-107.65 914.26,-107.65 914.26,-107.65 920.26,-107.65 926.26,-113.65 926.26,-119.65 926.26,-119.65 926.26,-145.17 926.26,-145.17 926.26,-151.17 920.26,-157.17 914.26,-157.17"/>
<text text-anchor="start" x="727.27" y="-139.11" font-family="Times,serif" font-weight="bold" font-size="14.00">A03</text>
<text text-anchor="start" x="727.27" y="-127.01" font-family="Times,serif" text-decoration="underline" font-size="12.00">Hinweis:</text>
<text text-anchor="start" x="727.27" y="-115.01" font-family="Times,serif" font-size="12.00">Falsche Aggregationsebene RZ</text>
</g>
<!-- 5&#45;&gt;A03 -->
<g id="edge10" class="edge">
<title>5-&gt;A03</title>
<path fill="none" stroke="#7aab8a" d="M820.65,-215.48C820.65,-201 820.65,-183.29 820.65,-168.03"/>
<polygon fill="#7aab8a" stroke="#7aab8a" points="824.15,-168.44 820.65,-158.44 817.15,-168.44 824.15,-168.44"/>
<text text-anchor="start" x="820.65" y="-185" font-family="Times,serif" font-weight="bold" font-size="14.00">JA</text>
</g>
</g>
</svg>
  </g>
</svg>
  </g>
</svg>
