<?xml version='1.0' encoding='ASCII' standalone='yes'?>
<svg xmlns="http://www.w3.org/2000/svg" xmlns:xlink="http://www.w3.org/1999/xlink" version="1.1" width="4253.333333333333px" viewBox="0 0 4253.333333333333 1826.6666666666667" height="1826.6666666666667px">
  <g>
    <svg version="1.1" width="4253.333333333333px" viewBox="0 0 4253.333333333333 1826.6666666666667" height="1826.6666666666667px">
  <polygon fill="#f3f1f6" points="0,0 4253.333333333333,0 4253.333333333333,1826.6666666666667 0,1826.6666666666667"/><g>
    <g transform="translate(1396.541983348708, 182.66666666666663) scale(1 1) translate(0, 0) scale(8.261311618144088 8.261311618144088) "><sodipodi:namedview xmlns:sodipodi="http://sodipodi.sourceforge.net/DTD/sodipodi-0.dtd" xmlns:inkscape="http://www.inkscape.org/namespaces/inkscape" id="namedview7" pagecolor="#ffffff" bordercolor="#999999" borderopacity="1" inkscape:pageshadow="0" inkscape:pageopacity="0" inkscape:pagecheckerboard="0" inkscape:document-units="mm" showgrid="false" fit-margin-top="0" fit-margin-left="0" fit-margin-right="0" fit-margin-bottom="0" inkscape:zoom="0.64052329" inkscape:cx="130.36216" inkscape:cy="412.163" inkscape:window-width="1512" inkscape:window-height="916" inkscape:window-x="3840" inkscape:window-y="136" inkscape:window-maximized="0" inkscape:current-layer="layer1"/>
  <defs id="defs2">
    <clipPath clipPathUnits="userSpaceOnUse" id="clipPath23">
      <path d="M 0,568.156 H 579.236 V 0 H 0 Z" id="path21"/>
    </clipPath>
  </defs>
  <g xmlns:inkscape="http://www.inkscape.org/namespaces/inkscape" inkscape:label="Layer 1" inkscape:groupmode="layer" id="layer1" transform="translate(-16.541937,-55.305267)">
    <g id="g19" clip-path="url(#clipPath23)" transform="matrix(0.35277777,0,0,-0.35277777,0.01017023,243.73675)" style="opacity:0.2">
      <g id="g25" transform="translate(122.444,32.7195)">
        <path d="m 0,0 h -56.104 c -11,0 -19.898,9.123 -19.463,20.115 10.594,267.191 231.277,481.302 501.029,481.302 v -56.02 c 0,-10.98 -8.688,-19.892 -19.658,-20.393 C 180.29,414.697 0,228.005 0,0" style="fill:#6ead83;fill-opacity:0.5;fill-rule:nonzero;stroke:none" id="path27"/>
      </g>
      <g id="g29" transform="translate(273.7828,32.7195)">
        <path d="m 0,0 h -55.926 c -11.228,0 -20.091,9.482 -19.435,20.69 10.744,183.439 163.389,329.388 349.485,329.388 v -56.263 c 0,-10.709 -8.273,-19.617 -18.957,-20.35 C 112.819,263.696 0,144.774 0,0" style="fill:#6ead83;fill-opacity:0.5;fill-rule:nonzero;stroke:none" id="path31"/>
      </g>
      <g id="g33" transform="translate(425.7667,32.7195)">
        <path d="m 0,0 h -55.445 c -11.653,0 -20.604,10.17 -19.334,21.753 10.866,99.032 95.031,176.341 196.919,176.341 v -57.011 c 0,-10.046 -7.283,-18.755 -17.229,-20.165 C 45.688,112.522 0,61.497 0,0" style="fill:#6ead83;fill-opacity:0.5;fill-rule:nonzero;stroke:none" id="path35"/>
      </g>
    </g>
  </g>
</g>
    <svg width="3190pt" height="1370pt" viewBox="0.00 0.00 3190.30 1369.98">
<!--curl - -request POST - -url https://kroki.io/ via local kroki docker container instance hosted at http://localhost:8125/- -header 'Content-Type: application/json' - -data 'digraph D {
    labelloc="t";
    label=<<B><FONT POINT-SIZE="18">7.17 AD: Aktivierung eines MaBiS-ZP f&#252;r Bilanzierungsgebietssummenzeitreihen vom &#220;NB an BIKO und NB</FONT></B><BR/><BR/><B><FONT POINT-SIZE="16">7.17.1 E_0015_MaBiS-ZP Aktivierung pr&#252;fen</FONT></B><BR/><BR/><BR/><BR/>>;
    ratio="compress";
    "Start" [margin="0.2,0.12", shape=box, style=filled, fillcolor="#7a8da1", label=<<B>E_0015</B><BR align="center"/><FONT point-size="12"><B><U>Pr&#252;fende Rolle:</U> BIKO</B></FONT><BR align="center"/>>];
    "1" [margin="0.2,0.12", shape=box, style="filled,rounded", fillcolor="#7aab8a", label=<<B>1: </B>Erfolgt die Aktivierung nach Ablauf der Clearingfrist f&#252;r die KBKA?<BR align="left"/>>];
    "A01" [margin="0.17,0.08", shape=box, style=filled, fillcolor="#cfb986", label=<<B>A01</B><BR align="center"/><FONT point-size="12"><U>Hinweis:</U><BR align="left"/>Cluster Ablehnung<BR align="left"/>Frist&#252;berschreitung<BR align="left"/></FONT>>];
    "2" [margin="0.2,0.12", shape=box, style="filled,rounded", fillcolor="#7aab8a", label=<<B>2: </B>Erfolgt die Aktivierung zum Monatsersten 00:00 Uhr?<BR align="left"/>>];
    "A02" [margin="0.17,0.08", shape=box, style=filled, fillcolor="#cfb986", label=<<B>A02</B><BR align="center"/><FONT point-size="12"><U>Hinweis:</U><BR align="left"/>Cluster Ablehnung<BR align="left"/>Gew&#228;hlter Zeitpunkt nicht zul&#228;ssig<BR align="left"/></FONT>>];
    "3" [margin="0.2,0.12", shape=box, style="filled,rounded", fillcolor="#7aab8a", label=<<B>3: </B>Ist die richtige Regelzone angegeben<BR align="left"/>>];
    "A03" [margin="0.17,0.08", shape=box, style=filled, fillcolor="#cfb986", label=<<B>A03</B><BR align="center"/><FONT point-size="12"><U>Hinweis:</U><BR align="left"/>Cluster Ablehnung<BR align="left"/>Regelzone falsch<BR align="left"/></FONT>>];
    "4" [margin="0.2,0.12", shape=box, style="filled,rounded", fillcolor="#7aab8a", label=<<B>4: </B>Ist das Bilanzierungsgebiet zum Aktivierungsbeginn in der Regelzone des BIKO g&#252;ltig?<BR align="left"/>>];
    "A04" [margin="0.17,0.08", shape=box, style=filled, fillcolor="#cfb986", label=<<B>A04</B><BR align="center"/><FONT point-size="12"><U>Hinweis:</U><BR align="left"/>Cluster Ablehnung<BR align="left"/>Bilanzierungsgebiet nicht g&#252;ltig<BR align="left"/></FONT>>];
    "5" [margin="0.2,0.12", shape=box, style="filled,rounded", fillcolor="#7aab8a", label=<<B>5: </B>Ist der &#220;NB zum Aktivierungsbeginn f&#252;r das Bilanzierungsgebiet zust&#228;ndig?<BR align="left"/>>];
    "A05" [margin="0.17,0.08", shape=box, style=filled, fillcolor="#cfb986", label=<<B>A05</B><BR align="center"/><FONT point-size="12"><U>Hinweis:</U><BR align="left"/>Cluster Ablehnung<BR align="left"/>Keine Berechtigung<BR align="left"/></FONT>>];
    "6" [margin="0.2,0.12", shape=box, style="filled,rounded", fillcolor="#7aab8a", label=<<B>6: </B>Existiert bereits ein abweichendes Tupel unter der ID des MaBiS-ZP?<BR align="left"/>>];
    "A06" [margin="0.17,0.08", shape=box, style=filled, fillcolor="#cfb986", label=<<B>A06</B><BR align="center"/><FONT point-size="12"><U>Hinweis:</U><BR align="left"/>Cluster Ablehnung<BR align="left"/>Abweichender MaBiS-ZP bereits vorhanden<BR align="left"/></FONT>>];
    "7" [margin="0.2,0.12", shape=box, style="filled,rounded", fillcolor="#7aab8a", label=<<B>7: </B>Existiert bereits f&#252;r das genannte Tupel aus Aggregations-verantwortlicher, Bilanzierungsgebiet, Spannungsebene und ZRT eine abweichende ID des MaBiS-ZP?<BR align="left"/>>];
    "A07" [margin="0.17,0.08", shape=box, style=filled, fillcolor="#cfb986", label=<<B>A07</B><BR align="center"/><FONT point-size="12"><U>Hinweis:</U><BR align="left"/>Cluster Ablehnung<BR align="left"/>Abweichende ID zum MaBiS-ZP bereits vorhanden<BR align="left"/></FONT>>];
    "8" [margin="0.2,0.12", shape=box, style="filled,rounded", fillcolor="#7aab8a", label=<<B>8: </B>Ist der &#220;NB zur Aktivierung des ZRT berechtigt?<BR align="left"/>>];
    "A08" [margin="0.17,0.08", shape=box, style=filled, fillcolor="#cfb986", label=<<B>A08</B><BR align="center"/><FONT point-size="12"><U>Hinweis:</U><BR align="left"/>Cluster Ablehnung<BR align="left"/>ZRT Aktivierung nicht berechtigt<BR align="left"/></FONT>>];
    "9" [margin="0.2,0.12", shape=box, style="filled,rounded", fillcolor="#7aab8a", label=<<B>9: </B>Passt die OBIS-Kennzahl zum ZRT?<BR align="left"/>>];
    "A09" [margin="0.17,0.08", shape=box, style=filled, fillcolor="#cfb986", label=<<B>A09</B><BR align="center"/><FONT point-size="12"><U>Hinweis:</U><BR align="left"/>Cluster Ablehnung<BR align="left"/>OBIS nicht passend<BR align="left"/></FONT>>];
    "10" [margin="0.2,0.12", shape=box, style="filled,rounded", fillcolor="#7aab8a", label=<<B>10: </B>Ist der MaBiS-ZP zum Zeitpunkt der Aktivierung bereits aktiviert?<BR align="left"/>>];
    "A10" [margin="0.17,0.08", shape=box, style=filled, fillcolor="#cfb986", label=<<B>A10</B><BR align="center"/><FONT point-size="12"><U>Hinweis:</U><BR align="left"/>Cluster Ablehnung<BR align="left"/>MaBiS-ZP bereits aktiviert<BR align="left"/></FONT>>];
    "A11" [margin="0.17,0.08", shape=box, style=filled, fillcolor="#cfb986", label=<<B>A11</B><BR align="center"/><FONT point-size="12"><U>Hinweis:</U><BR align="left"/>Cluster: Zustimmung<BR align="left"/>Aktivierung durchgef&#252;hrt<BR align="left"/></FONT>>];

    "Start" -> "1";
    "1" -> "A01" [label="Ja"];
    "1" -> "2" [label="Nein"];
    "2" -> "A02" [label="Nein"];
    "2" -> "3" [label="Ja"];
    "3" -> "A03" [label="Nein"];
    "3" -> "4" [label="Ja"];
    "4" -> "A04" [label="Nein"];
    "4" -> "5" [label="Ja"];
    "5" -> "A05" [label="Nein"];
    "5" -> "6" [label="Ja"];
    "6" -> "A06" [label="Ja"];
    "6" -> "7" [label="Nein"];
    "7" -> "A07" [label="Ja"];
    "7" -> "8" [label="Nein"];
    "8" -> "A08" [label="Nein"];
    "8" -> "9" [label="Ja"];
    "9" -> "A09" [label="Nein"];
    "9" -> "10" [label="Ja"];
    "10" -> "A10" [label="Ja"];
    "10" -> "A11" [label="Nein"];

    bgcolor="transparent";
}'--><g id="graph0" class="graph" transform="scale(1 1) rotate(0) translate(4 1365.98)">
<title>D</title>
<text text-anchor="start" x="1044.78" y="-1341.88" font-family="Times,serif" font-weight="bold" font-size="18.00">7.17 AD: Aktivierung eines MaBiS-ZP f&#252;r Bilanzierungsgebietssummenzeitreihen vom &#220;NB an BIKO und NB</text>
<text text-anchor="start" x="1389.78" y="-1311.78" font-family="Times,serif" font-weight="bold" font-size="16.00">7.17.1 E_0015_MaBiS-ZP Aktivierung pr&#252;fen</text>
<!-- Start -->
<g id="node1" class="node">
<title>Start</title>
<polygon fill="#7a8da1" stroke="black" points="351.68,-1263.98 177.38,-1263.98 177.38,-1220.7 351.68,-1220.7 351.68,-1263.98"/>
<text text-anchor="start" x="236.4" y="-1243.04" font-family="Times,serif" font-weight="bold" font-size="14.00">E_0015</text>
<text text-anchor="start" x="191.78" y="-1230.94" font-family="Times,serif" font-weight="bold" text-decoration="underline" font-size="12.00">Pr&#252;fende Rolle:</text>
<text text-anchor="start" x="296.78" y="-1230.94" font-family="Times,serif" font-weight="bold" font-size="12.00"> BIKO</text>
</g>
<!-- 1 -->
<g id="node2" class="node">
<title>1</title>
<path fill="#7aab8a" stroke="black" d="M517.05,-1183.7C517.05,-1183.7 12,-1183.7 12,-1183.7 6,-1183.7 0,-1177.7 0,-1171.7 0,-1171.7 0,-1159.7 0,-1159.7 0,-1153.7 6,-1147.7 12,-1147.7 12,-1147.7 517.05,-1147.7 517.05,-1147.7 523.05,-1147.7 529.05,-1153.7 529.05,-1159.7 529.05,-1159.7 529.05,-1171.7 529.05,-1171.7 529.05,-1177.7 523.05,-1183.7 517.05,-1183.7"/>
<text text-anchor="start" x="14.4" y="-1162.03" font-family="Times,serif" font-weight="bold" font-size="14.00">1: </text>
<text text-anchor="start" x="33.9" y="-1162.03" font-family="Times,serif" font-size="14.00">Erfolgt die Aktivierung nach Ablauf der Clearingfrist f&#252;r die KBKA?</text>
</g>
<!-- Start&#45;&gt;1 -->
<g id="edge1" class="edge">
<title>Start-&gt;1</title>
<path fill="none" stroke="black" d="M264.53,-1220.55C264.53,-1212.69 264.53,-1203.61 264.53,-1195.17"/>
<polygon fill="black" stroke="black" points="268.03,-1195.37 264.53,-1185.37 261.03,-1195.37 268.03,-1195.37"/>
</g>
<!-- A01 -->
<g id="node3" class="node">
<title>A01</title>
<polygon fill="#cfb986" stroke="black" points="318.77,-1094.45 174.29,-1094.45 174.29,-1032.93 318.77,-1032.93 318.77,-1094.45"/>
<text text-anchor="start" x="231.53" y="-1076.39" font-family="Times,serif" font-weight="bold" font-size="14.00">A01</text>
<text text-anchor="start" x="186.53" y="-1064.29" font-family="Times,serif" text-decoration="underline" font-size="12.00">Hinweis:</text>
<text text-anchor="start" x="186.53" y="-1052.29" font-family="Times,serif" font-size="12.00">Cluster Ablehnung</text>
<text text-anchor="start" x="186.53" y="-1040.29" font-family="Times,serif" font-size="12.00">Frist&#252;berschreitung</text>
</g>
<!-- 1&#45;&gt;A01 -->
<g id="edge2" class="edge">
<title>1-&gt;A01</title>
<path fill="none" stroke="black" d="M261.39,-1147.28C259.34,-1135.89 256.57,-1120.5 253.98,-1106.09"/>
<polygon fill="black" stroke="black" points="257.44,-1105.55 252.22,-1096.33 250.55,-1106.79 257.44,-1105.55"/>
<text text-anchor="middle" x="265.28" y="-1116.4" font-family="Times,serif" font-size="14.00">Ja</text>
</g>
<!-- 2 -->
<g id="node4" class="node">
<title>2</title>
<path fill="#7aab8a" stroke="black" d="M760.18,-1081.69C760.18,-1081.69 348.88,-1081.69 348.88,-1081.69 342.88,-1081.69 336.88,-1075.69 336.88,-1069.69 336.88,-1069.69 336.88,-1057.69 336.88,-1057.69 336.88,-1051.69 342.88,-1045.69 348.88,-1045.69 348.88,-1045.69 760.18,-1045.69 760.18,-1045.69 766.18,-1045.69 772.18,-1051.69 772.18,-1057.69 772.18,-1057.69 772.18,-1069.69 772.18,-1069.69 772.18,-1075.69 766.18,-1081.69 760.18,-1081.69"/>
<text text-anchor="start" x="351.28" y="-1060.02" font-family="Times,serif" font-weight="bold" font-size="14.00">2: </text>
<text text-anchor="start" x="370.78" y="-1060.02" font-family="Times,serif" font-size="14.00">Erfolgt die Aktivierung zum Monatsersten 00:00 Uhr?</text>
</g>
<!-- 1&#45;&gt;2 -->
<g id="edge3" class="edge">
<title>1-&gt;2</title>
<path fill="none" stroke="black" d="M315.04,-1147.28C364.68,-1130.16 440.5,-1104.01 493.49,-1085.74"/>
<polygon fill="black" stroke="black" points="494.36,-1089.14 502.67,-1082.57 492.08,-1082.52 494.36,-1089.14"/>
<text text-anchor="middle" x="426.4" y="-1116.4" font-family="Times,serif" font-size="14.00">Nein</text>
</g>
<!-- A02 -->
<g id="node5" class="node">
<title>A02</title>
<polygon fill="#cfb986" stroke="black" points="584.77,-979.68 350.29,-979.68 350.29,-918.16 584.77,-918.16 584.77,-979.68"/>
<text text-anchor="start" x="452.53" y="-961.62" font-family="Times,serif" font-weight="bold" font-size="14.00">A02</text>
<text text-anchor="start" x="362.53" y="-949.52" font-family="Times,serif" text-decoration="underline" font-size="12.00">Hinweis:</text>
<text text-anchor="start" x="362.53" y="-937.52" font-family="Times,serif" font-size="12.00">Cluster Ablehnung</text>
<text text-anchor="start" x="362.53" y="-925.52" font-family="Times,serif" font-size="12.00">Gew&#228;hlter Zeitpunkt nicht zul&#228;ssig</text>
</g>
<!-- 2&#45;&gt;A02 -->
<g id="edge4" class="edge">
<title>2-&gt;A02</title>
<path fill="none" stroke="black" d="M541.31,-1045.56C529.74,-1030.56 512.49,-1008.2 497.58,-988.88"/>
<polygon fill="black" stroke="black" points="500.51,-986.94 491.63,-981.16 494.96,-991.22 500.51,-986.94"/>
<text text-anchor="middle" x="533.4" y="-1001.63" font-family="Times,serif" font-size="14.00">Nein</text>
</g>
<!-- 3 -->
<g id="node6" class="node">
<title>3</title>
<path fill="#7aab8a" stroke="black" d="M904.43,-966.92C904.43,-966.92 614.63,-966.92 614.63,-966.92 608.63,-966.92 602.63,-960.92 602.63,-954.92 602.63,-954.92 602.63,-942.92 602.63,-942.92 602.63,-936.92 608.63,-930.92 614.63,-930.92 614.63,-930.92 904.43,-930.92 904.43,-930.92 910.43,-930.92 916.43,-936.92 916.43,-942.92 916.43,-942.92 916.43,-954.92 916.43,-954.92 916.43,-960.92 910.43,-966.92 904.43,-966.92"/>
<text text-anchor="start" x="617.03" y="-945.25" font-family="Times,serif" font-weight="bold" font-size="14.00">3: </text>
<text text-anchor="start" x="636.53" y="-945.25" font-family="Times,serif" font-size="14.00">Ist die richtige Regelzone angegeben</text>
</g>
<!-- 2&#45;&gt;3 -->
<g id="edge5" class="edge">
<title>2-&gt;3</title>
<path fill="none" stroke="black" d="M586.11,-1045.32C621.47,-1025.86 678.92,-994.26 717.92,-972.81"/>
<polygon fill="black" stroke="black" points="719.51,-975.93 726.58,-968.04 716.13,-969.8 719.51,-975.93"/>
<text text-anchor="middle" x="676.28" y="-1001.63" font-family="Times,serif" font-size="14.00">Ja</text>
</g>
<!-- A03 -->
<g id="node7" class="node">
<title>A03</title>
<polygon fill="#cfb986" stroke="black" points="708.64,-864.91 572.41,-864.91 572.41,-803.39 708.64,-803.39 708.64,-864.91"/>
<text text-anchor="start" x="625.53" y="-846.85" font-family="Times,serif" font-weight="bold" font-size="14.00">A03</text>
<text text-anchor="start" x="584.65" y="-834.75" font-family="Times,serif" text-decoration="underline" font-size="12.00">Hinweis:</text>
<text text-anchor="start" x="584.65" y="-822.75" font-family="Times,serif" font-size="12.00">Cluster Ablehnung</text>
<text text-anchor="start" x="584.65" y="-810.75" font-family="Times,serif" font-size="12.00">Regelzone falsch</text>
</g>
<!-- 3&#45;&gt;A03 -->
<g id="edge6" class="edge">
<title>3-&gt;A03</title>
<path fill="none" stroke="black" d="M741.19,-930.55C725.03,-915.23 700.93,-892.39 680.36,-872.9"/>
<polygon fill="black" stroke="black" points="682.85,-870.44 673.19,-866.1 678.04,-875.52 682.85,-870.44"/>
<text text-anchor="middle" x="724.4" y="-886.86" font-family="Times,serif" font-size="14.00">Nein</text>
</g>
<!-- 4 -->
<g id="node8" class="node">
<title>4</title>
<path fill="#7aab8a" stroke="black" d="M1386.3,-852.15C1386.3,-852.15 738.75,-852.15 738.75,-852.15 732.75,-852.15 726.75,-846.15 726.75,-840.15 726.75,-840.15 726.75,-828.15 726.75,-828.15 726.75,-822.15 732.75,-816.15 738.75,-816.15 738.75,-816.15 1386.3,-816.15 1386.3,-816.15 1392.3,-816.15 1398.3,-822.15 1398.3,-828.15 1398.3,-828.15 1398.3,-840.15 1398.3,-840.15 1398.3,-846.15 1392.3,-852.15 1386.3,-852.15"/>
<text text-anchor="start" x="741.15" y="-830.48" font-family="Times,serif" font-weight="bold" font-size="14.00">4: </text>
<text text-anchor="start" x="760.65" y="-830.48" font-family="Times,serif" font-size="14.00">Ist das Bilanzierungsgebiet zum Aktivierungsbeginn in der Regelzone des BIKO g&#252;ltig?</text>
</g>
<!-- 3&#45;&gt;4 -->
<g id="edge7" class="edge">
<title>3-&gt;4</title>
<path fill="none" stroke="black" d="M806.54,-930.42C860.1,-910.49 947.64,-877.91 1005.17,-856.5"/>
<polygon fill="black" stroke="black" points="1006.33,-859.8 1014.48,-853.03 1003.89,-853.24 1006.33,-859.8"/>
<text text-anchor="middle" x="936.28" y="-886.86" font-family="Times,serif" font-size="14.00">Ja</text>
</g>
<!-- A04 -->
<g id="node9" class="node">
<title>A04</title>
<polygon fill="#cfb986" stroke="black" points="1050.39,-750.14 834.66,-750.14 834.66,-688.62 1050.39,-688.62 1050.39,-750.14"/>
<text text-anchor="start" x="927.53" y="-732.08" font-family="Times,serif" font-weight="bold" font-size="14.00">A04</text>
<text text-anchor="start" x="846.9" y="-719.98" font-family="Times,serif" text-decoration="underline" font-size="12.00">Hinweis:</text>
<text text-anchor="start" x="846.9" y="-707.98" font-family="Times,serif" font-size="12.00">Cluster Ablehnung</text>
<text text-anchor="start" x="846.9" y="-695.98" font-family="Times,serif" font-size="12.00">Bilanzierungsgebiet nicht g&#252;ltig</text>
</g>
<!-- 4&#45;&gt;A04 -->
<g id="edge8" class="edge">
<title>4-&gt;A04</title>
<path fill="none" stroke="black" d="M1044.04,-815.78C1027.74,-800.46 1003.44,-777.62 982.69,-758.13"/>
<polygon fill="black" stroke="black" points="985.14,-755.62 975.45,-751.33 980.35,-760.72 985.14,-755.62"/>
<text text-anchor="middle" x="1027.4" y="-772.09" font-family="Times,serif" font-size="14.00">Nein</text>
</g>
<!-- 5 -->
<g id="node10" class="node">
<title>5</title>
<path fill="#7aab8a" stroke="black" d="M1654.18,-737.38C1654.18,-737.38 1080.88,-737.38 1080.88,-737.38 1074.88,-737.38 1068.88,-731.38 1068.88,-725.38 1068.88,-725.38 1068.88,-713.38 1068.88,-713.38 1068.88,-707.38 1074.88,-701.38 1080.88,-701.38 1080.88,-701.38 1654.18,-701.38 1654.18,-701.38 1660.18,-701.38 1666.18,-707.38 1666.18,-713.38 1666.18,-713.38 1666.18,-725.38 1666.18,-725.38 1666.18,-731.38 1660.18,-737.38 1654.18,-737.38"/>
<text text-anchor="start" x="1083.28" y="-715.71" font-family="Times,serif" font-weight="bold" font-size="14.00">5: </text>
<text text-anchor="start" x="1102.78" y="-715.71" font-family="Times,serif" font-size="14.00">Ist der &#220;NB zum Aktivierungsbeginn f&#252;r das Bilanzierungsgebiet zust&#228;ndig?</text>
</g>
<!-- 4&#45;&gt;5 -->
<g id="edge9" class="edge">
<title>4-&gt;5</title>
<path fill="none" stroke="black" d="M1109.85,-815.65C1163.8,-795.71 1251.99,-763.1 1309.9,-741.69"/>
<polygon fill="black" stroke="black" points="1310.76,-745.1 1318.92,-738.35 1308.33,-738.53 1310.76,-745.1"/>
<text text-anchor="middle" x="1240.28" y="-772.09" font-family="Times,serif" font-size="14.00">Ja</text>
</g>
<!-- A05 -->
<g id="node11" class="node">
<title>A05</title>
<polygon fill="#cfb986" stroke="black" points="1334.02,-635.37 1191.04,-635.37 1191.04,-573.85 1334.02,-573.85 1334.02,-635.37"/>
<text text-anchor="start" x="1247.53" y="-617.31" font-family="Times,serif" font-weight="bold" font-size="14.00">A05</text>
<text text-anchor="start" x="1203.28" y="-605.21" font-family="Times,serif" text-decoration="underline" font-size="12.00">Hinweis:</text>
<text text-anchor="start" x="1203.28" y="-593.21" font-family="Times,serif" font-size="12.00">Cluster Ablehnung</text>
<text text-anchor="start" x="1203.28" y="-581.21" font-family="Times,serif" font-size="12.00">Keine Berechtigung</text>
</g>
<!-- 5&#45;&gt;A05 -->
<g id="edge10" class="edge">
<title>5-&gt;A05</title>
<path fill="none" stroke="black" d="M1351.58,-701.25C1337.48,-686.12 1316.42,-663.49 1298.31,-644.04"/>
<polygon fill="black" stroke="black" points="1300.9,-641.69 1291.53,-636.76 1295.78,-646.46 1300.9,-641.69"/>
<text text-anchor="middle" x="1338.4" y="-657.32" font-family="Times,serif" font-size="14.00">Nein</text>
</g>
<!-- 6 -->
<g id="node12" class="node">
<title>6</title>
<path fill="#7aab8a" stroke="black" d="M1886.68,-622.61C1886.68,-622.61 1364.38,-622.61 1364.38,-622.61 1358.38,-622.61 1352.38,-616.61 1352.38,-610.61 1352.38,-610.61 1352.38,-598.61 1352.38,-598.61 1352.38,-592.61 1358.38,-586.61 1364.38,-586.61 1364.38,-586.61 1886.68,-586.61 1886.68,-586.61 1892.68,-586.61 1898.68,-592.61 1898.68,-598.61 1898.68,-598.61 1898.68,-610.61 1898.68,-610.61 1898.68,-616.61 1892.68,-622.61 1886.68,-622.61"/>
<text text-anchor="start" x="1366.78" y="-600.94" font-family="Times,serif" font-weight="bold" font-size="14.00">6: </text>
<text text-anchor="start" x="1386.28" y="-600.94" font-family="Times,serif" font-size="14.00">Existiert bereits ein abweichendes Tupel unter der ID des MaBiS-ZP?</text>
</g>
<!-- 5&#45;&gt;6 -->
<g id="edge11" class="edge">
<title>5-&gt;6</title>
<path fill="none" stroke="black" d="M1407.55,-700.88C1452.78,-681.11 1526.46,-648.91 1575.46,-627.49"/>
<polygon fill="black" stroke="black" points="1576.68,-630.78 1584.44,-623.57 1573.87,-624.37 1576.68,-630.78"/>
<text text-anchor="middle" x="1519.28" y="-657.32" font-family="Times,serif" font-size="14.00">Ja</text>
</g>
<!-- A06 -->
<g id="node13" class="node">
<title>A06</title>
<polygon fill="#cfb986" stroke="black" points="1570.14,-520.6 1280.91,-520.6 1280.91,-459.08 1570.14,-459.08 1570.14,-520.6"/>
<text text-anchor="start" x="1410.53" y="-502.54" font-family="Times,serif" font-weight="bold" font-size="14.00">A06</text>
<text text-anchor="start" x="1293.15" y="-490.44" font-family="Times,serif" text-decoration="underline" font-size="12.00">Hinweis:</text>
<text text-anchor="start" x="1293.15" y="-478.44" font-family="Times,serif" font-size="12.00">Cluster Ablehnung</text>
<text text-anchor="start" x="1293.15" y="-466.44" font-family="Times,serif" font-size="12.00">Abweichender MaBiS-ZP bereits vorhanden</text>
</g>
<!-- 6&#45;&gt;A06 -->
<g id="edge12" class="edge">
<title>6-&gt;A06</title>
<path fill="none" stroke="black" d="M1594.71,-586.24C1566.57,-570.37 1524.08,-546.41 1488.73,-526.48"/>
<polygon fill="black" stroke="black" points="1490.71,-523.58 1480.28,-521.72 1487.27,-529.68 1490.71,-523.58"/>
<text text-anchor="middle" x="1544.28" y="-542.55" font-family="Times,serif" font-size="14.00">Ja</text>
</g>
<!-- 7 -->
<g id="node14" class="node">
<title>7</title>
<path fill="#7aab8a" stroke="black" d="M2778.43,-507.84C2778.43,-507.84 1600.62,-507.84 1600.62,-507.84 1594.62,-507.84 1588.62,-501.84 1588.62,-495.84 1588.62,-495.84 1588.62,-483.84 1588.62,-483.84 1588.62,-477.84 1594.62,-471.84 1600.62,-471.84 1600.62,-471.84 2778.43,-471.84 2778.43,-471.84 2784.43,-471.84 2790.43,-477.84 2790.43,-483.84 2790.43,-483.84 2790.43,-495.84 2790.43,-495.84 2790.43,-501.84 2784.43,-507.84 2778.43,-507.84"/>
<text text-anchor="start" x="1603.03" y="-486.16" font-family="Times,serif" font-weight="bold" font-size="14.00">7: </text>
<text text-anchor="start" x="1622.53" y="-486.16" font-family="Times,serif" font-size="14.00">Existiert bereits f&#252;r das genannte Tupel aus Aggregations-verantwortlicher, Bilanzierungsgebiet, Spannungsebene und ZRT eine abweichende ID des MaBiS-ZP?</text>
</g>
<!-- 6&#45;&gt;7 -->
<g id="edge13" class="edge">
<title>6-&gt;7</title>
<path fill="none" stroke="black" d="M1713.03,-586.11C1815.38,-565.65 1984.38,-531.86 2091.18,-510.5"/>
<polygon fill="black" stroke="black" points="2091.67,-513.97 2100.79,-508.58 2090.3,-507.11 2091.67,-513.97"/>
<text text-anchor="middle" x="1958.4" y="-542.55" font-family="Times,serif" font-size="14.00">Nein</text>
</g>
<!-- A07 -->
<g id="node15" class="node">
<title>A07</title>
<polygon fill="#cfb986" stroke="black" points="2249.39,-405.83 1919.66,-405.83 1919.66,-344.31 2249.39,-344.31 2249.39,-405.83"/>
<text text-anchor="start" x="2069.53" y="-387.77" font-family="Times,serif" font-weight="bold" font-size="14.00">A07</text>
<text text-anchor="start" x="1931.9" y="-375.67" font-family="Times,serif" text-decoration="underline" font-size="12.00">Hinweis:</text>
<text text-anchor="start" x="1931.9" y="-363.67" font-family="Times,serif" font-size="12.00">Cluster Ablehnung</text>
<text text-anchor="start" x="1931.9" y="-351.67" font-family="Times,serif" font-size="12.00">Abweichende ID zum MaBiS-ZP bereits vorhanden</text>
</g>
<!-- 7&#45;&gt;A07 -->
<g id="edge14" class="edge">
<title>7-&gt;A07</title>
<path fill="none" stroke="black" d="M2173.58,-471.71C2159.48,-456.58 2138.42,-433.95 2120.31,-414.5"/>
<polygon fill="black" stroke="black" points="2122.9,-412.15 2113.53,-407.22 2117.78,-416.92 2122.9,-412.15"/>
<text text-anchor="middle" x="2150.28" y="-427.78" font-family="Times,serif" font-size="14.00">Ja</text>
</g>
<!-- 8 -->
<g id="node16" class="node">
<title>8</title>
<path fill="#7aab8a" stroke="black" d="M2655.18,-393.07C2655.18,-393.07 2279.88,-393.07 2279.88,-393.07 2273.88,-393.07 2267.88,-387.07 2267.88,-381.07 2267.88,-381.07 2267.88,-369.07 2267.88,-369.07 2267.88,-363.07 2273.88,-357.07 2279.88,-357.07 2279.88,-357.07 2655.18,-357.07 2655.18,-357.07 2661.18,-357.07 2667.18,-363.07 2667.18,-369.07 2667.18,-369.07 2667.18,-381.07 2667.18,-381.07 2667.18,-387.07 2661.18,-393.07 2655.18,-393.07"/>
<text text-anchor="start" x="2282.28" y="-371.39" font-family="Times,serif" font-weight="bold" font-size="14.00">8: </text>
<text text-anchor="start" x="2301.78" y="-371.39" font-family="Times,serif" font-size="14.00">Ist der &#220;NB zur Aktivierung des ZRT berechtigt?</text>
</g>
<!-- 7&#45;&gt;8 -->
<g id="edge15" class="edge">
<title>7-&gt;8</title>
<path fill="none" stroke="black" d="M2232.66,-471.34C2281.6,-451.49 2361.45,-419.1 2414.24,-397.68"/>
<polygon fill="black" stroke="black" points="2415.39,-400.99 2423.35,-393.99 2412.76,-394.51 2415.39,-400.99"/>
<text text-anchor="middle" x="2362.4" y="-427.78" font-family="Times,serif" font-size="14.00">Nein</text>
</g>
<!-- A08 -->
<g id="node17" class="node">
<title>A08</title>
<polygon fill="#cfb986" stroke="black" points="2495.14,-291.06 2271.91,-291.06 2271.91,-229.54 2495.14,-229.54 2495.14,-291.06"/>
<text text-anchor="start" x="2368.53" y="-273" font-family="Times,serif" font-weight="bold" font-size="14.00">A08</text>
<text text-anchor="start" x="2284.15" y="-260.9" font-family="Times,serif" text-decoration="underline" font-size="12.00">Hinweis:</text>
<text text-anchor="start" x="2284.15" y="-248.9" font-family="Times,serif" font-size="12.00">Cluster Ablehnung</text>
<text text-anchor="start" x="2284.15" y="-236.9" font-family="Times,serif" font-size="12.00">ZRT Aktivierung nicht berechtigt</text>
</g>
<!-- 8&#45;&gt;A08 -->
<g id="edge16" class="edge">
<title>8-&gt;A08</title>
<path fill="none" stroke="black" d="M2454.77,-356.94C2443.64,-342.01 2427.09,-319.79 2412.74,-300.52"/>
<polygon fill="black" stroke="black" points="2415.59,-298.48 2406.81,-292.56 2409.97,-302.67 2415.59,-298.48"/>
<text text-anchor="middle" x="2448.4" y="-313.01" font-family="Times,serif" font-size="14.00">Nein</text>
</g>
<!-- 9 -->
<g id="node18" class="node">
<title>9</title>
<path fill="#7aab8a" stroke="black" d="M2800.3,-278.3C2800.3,-278.3 2524.75,-278.3 2524.75,-278.3 2518.75,-278.3 2512.75,-272.3 2512.75,-266.3 2512.75,-266.3 2512.75,-254.3 2512.75,-254.3 2512.75,-248.3 2518.75,-242.3 2524.75,-242.3 2524.75,-242.3 2800.3,-242.3 2800.3,-242.3 2806.3,-242.3 2812.3,-248.3 2812.3,-254.3 2812.3,-254.3 2812.3,-266.3 2812.3,-266.3 2812.3,-272.3 2806.3,-278.3 2800.3,-278.3"/>
<text text-anchor="start" x="2527.15" y="-256.62" font-family="Times,serif" font-weight="bold" font-size="14.00">9: </text>
<text text-anchor="start" x="2546.65" y="-256.62" font-family="Times,serif" font-size="14.00">Passt die OBIS-Kennzahl zum ZRT?</text>
</g>
<!-- 8&#45;&gt;9 -->
<g id="edge17" class="edge">
<title>8-&gt;9</title>
<path fill="none" stroke="black" d="M2497.57,-356.7C2531.2,-337.24 2585.85,-305.64 2622.95,-284.19"/>
<polygon fill="black" stroke="black" points="2624.23,-287.49 2631.14,-279.45 2620.73,-281.43 2624.23,-287.49"/>
<text text-anchor="middle" x="2584.28" y="-313.01" font-family="Times,serif" font-size="14.00">Ja</text>
</g>
<!-- A09 -->
<g id="node19" class="node">
<title>A09</title>
<polygon fill="#cfb986" stroke="black" points="2630.64,-176.29 2488.41,-176.29 2488.41,-114.77 2630.64,-114.77 2630.64,-176.29"/>
<text text-anchor="start" x="2544.53" y="-158.23" font-family="Times,serif" font-weight="bold" font-size="14.00">A09</text>
<text text-anchor="start" x="2500.65" y="-146.13" font-family="Times,serif" text-decoration="underline" font-size="12.00">Hinweis:</text>
<text text-anchor="start" x="2500.65" y="-134.13" font-family="Times,serif" font-size="12.00">Cluster Ablehnung</text>
<text text-anchor="start" x="2500.65" y="-122.13" font-family="Times,serif" font-size="12.00">OBIS nicht passend</text>
</g>
<!-- 9&#45;&gt;A09 -->
<g id="edge18" class="edge">
<title>9-&gt;A09</title>
<path fill="none" stroke="black" d="M2646.88,-242.17C2633.06,-227.04 2612.39,-204.41 2594.63,-184.96"/>
<polygon fill="black" stroke="black" points="2597.31,-182.71 2587.99,-177.69 2592.14,-187.43 2597.31,-182.71"/>
<text text-anchor="middle" x="2634.4" y="-198.24" font-family="Times,serif" font-size="14.00">Nein</text>
</g>
<!-- 10 -->
<g id="node20" class="node">
<title>10</title>
<path fill="#7aab8a" stroke="black" d="M3170.3,-163.53C3170.3,-163.53 2660.75,-163.53 2660.75,-163.53 2654.75,-163.53 2648.75,-157.53 2648.75,-151.53 2648.75,-151.53 2648.75,-139.53 2648.75,-139.53 2648.75,-133.53 2654.75,-127.53 2660.75,-127.53 2660.75,-127.53 3170.3,-127.53 3170.3,-127.53 3176.3,-127.53 3182.3,-133.53 3182.3,-139.53 3182.3,-139.53 3182.3,-151.53 3182.3,-151.53 3182.3,-157.53 3176.3,-163.53 3170.3,-163.53"/>
<text text-anchor="start" x="2663.15" y="-141.85" font-family="Times,serif" font-weight="bold" font-size="14.00">10: </text>
<text text-anchor="start" x="2692.4" y="-141.85" font-family="Times,serif" font-size="14.00">Ist der MaBiS-ZP zum Zeitpunkt der Aktivierung bereits aktiviert?</text>
</g>
<!-- 9&#45;&gt;10 -->
<g id="edge19" class="edge">
<title>9-&gt;10</title>
<path fill="none" stroke="black" d="M2701.78,-241.8C2746.04,-222.08 2818.08,-189.96 2866.13,-168.55"/>
<polygon fill="black" stroke="black" points="2867.5,-171.77 2875.21,-164.5 2864.65,-165.37 2867.5,-171.77"/>
<text text-anchor="middle" x="2811.28" y="-198.24" font-family="Times,serif" font-size="14.00">Ja</text>
</g>
<!-- A10 -->
<g id="node21" class="node">
<title>A10</title>
<polygon fill="#cfb986" stroke="black" points="2908.39,-61.52 2722.66,-61.52 2722.66,0 2908.39,0 2908.39,-61.52"/>
<text text-anchor="start" x="2800.53" y="-43.46" font-family="Times,serif" font-weight="bold" font-size="14.00">A10</text>
<text text-anchor="start" x="2734.9" y="-31.36" font-family="Times,serif" text-decoration="underline" font-size="12.00">Hinweis:</text>
<text text-anchor="start" x="2734.9" y="-19.36" font-family="Times,serif" font-size="12.00">Cluster Ablehnung</text>
<text text-anchor="start" x="2734.9" y="-7.36" font-family="Times,serif" font-size="12.00">MaBiS-ZP bereits aktiviert</text>
</g>
<!-- 10&#45;&gt;A10 -->
<g id="edge20" class="edge">
<title>10-&gt;A10</title>
<path fill="none" stroke="black" d="M2900.34,-127.4C2886.92,-112.27 2866.85,-89.64 2849.6,-70.19"/>
<polygon fill="black" stroke="black" points="2852.42,-68.09 2843.17,-62.93 2847.19,-72.74 2852.42,-68.09"/>
<text text-anchor="middle" x="2878.28" y="-83.47" font-family="Times,serif" font-size="14.00">Ja</text>
</g>
<!-- A11 -->
<g id="node22" class="node">
<title>A11</title>
<polygon fill="#cfb986" stroke="black" points="3104.64,-61.52 2926.41,-61.52 2926.41,0 3104.64,0 3104.64,-61.52"/>
<text text-anchor="start" x="3000.53" y="-43.46" font-family="Times,serif" font-weight="bold" font-size="14.00">A11</text>
<text text-anchor="start" x="2938.65" y="-31.36" font-family="Times,serif" text-decoration="underline" font-size="12.00">Hinweis:</text>
<text text-anchor="start" x="2938.65" y="-19.36" font-family="Times,serif" font-size="12.00">Cluster: Zustimmung</text>
<text text-anchor="start" x="2938.65" y="-7.36" font-family="Times,serif" font-size="12.00">Aktivierung durchgef&#252;hrt</text>
</g>
<!-- 10&#45;&gt;A11 -->
<g id="edge21" class="edge">
<title>10-&gt;A11</title>
<path fill="none" stroke="black" d="M2930.71,-127.4C2944.13,-112.27 2964.2,-89.64 2981.45,-70.19"/>
<polygon fill="black" stroke="black" points="2983.86,-72.74 2987.88,-62.93 2978.63,-68.09 2983.86,-72.74"/>
<text text-anchor="middle" x="2988.4" y="-83.47" font-family="Times,serif" font-size="14.00">Nein</text>
</g>
</g>
</svg>
  </g>
</svg>
  </g>
</svg>
