<?xml version="1.0" encoding="UTF-8" standalone="no"?>
<!DOCTYPE svg PUBLIC "-//W3C//DTD SVG 1.1//EN"
 "http://www.w3.org/Graphics/SVG/1.1/DTD/svg11.dtd">
<!-- Generated by graphviz version 3.0.0 (20221109.1736)
 -->
<!-- Title: D Pages: 1 -->
<svg width="2613pt" height="987pt"
 viewBox="0.00 0.00 2612.50 987.00" xmlns="http://www.w3.org/2000/svg" xmlns:xlink="http://www.w3.org/1999/xlink">
<g id="graph0" class="graph" transform="scale(1 1) rotate(0) translate(4 983)">
<title>D</title>
<polygon fill="white" stroke="transparent" points="-4,4 -4,-983 2608.5,-983 2608.5,4 -4,4"/>
<!-- Start -->
<g id="node1" class="node">
<title>Start</title>
<path fill="none" stroke="black" d="M273.5,-979C273.5,-979 243.5,-979 243.5,-979 237.5,-979 231.5,-973 231.5,-967 231.5,-967 231.5,-955 231.5,-955 231.5,-949 237.5,-943 243.5,-943 243.5,-943 273.5,-943 273.5,-943 279.5,-943 285.5,-949 285.5,-955 285.5,-955 285.5,-967 285.5,-967 285.5,-973 279.5,-979 273.5,-979"/>
<text text-anchor="middle" x="258.5" y="-957.3" font-family="Times,serif" font-size="14.00">Start</text>
</g>
<!-- 1 -->
<g id="node2" class="node">
<title>1</title>
<polygon fill="green" stroke="black" points="517,-906 0,-906 0,-870 517,-870 517,-906"/>
<text text-anchor="start" x="8" y="-885.3" font-family="Times,serif" font-weight="bold" font-size="14.00">1: </text>
<text text-anchor="start" x="28" y="-885.3" font-family="Times,serif" font-size="14.00">Erfolgt die Aktivierung nach Ablauf der Clearingfrist für die KBKA?</text>
</g>
<!-- Start&#45;&gt;1 -->
<g id="edge1" class="edge">
<title>Start&#45;&gt;1</title>
<path fill="none" stroke="black" d="M258.5,-942.81C258.5,-934.79 258.5,-925.05 258.5,-916.07"/>
<polygon fill="black" stroke="black" points="262,-916.03 258.5,-906.03 255,-916.03 262,-916.03"/>
</g>
<!-- A01 -->
<g id="node3" class="node">
<title>A01</title>
<polygon fill="red" stroke="black" points="267.5,-819 213.5,-819 213.5,-783 267.5,-783 267.5,-819"/>
<text text-anchor="start" x="226.5" y="-797.3" font-family="Times,serif" font-size="14.00">A01</text>
</g>
<!-- 1&#45;&gt;A01 -->
<g id="edge2" class="edge">
<title>1&#45;&gt;A01</title>
<path fill="none" stroke="black" d="M254.86,-869.8C252.39,-858.16 249.09,-842.55 246.27,-829.24"/>
<polygon fill="black" stroke="black" points="249.63,-828.23 244.14,-819.18 242.78,-829.68 249.63,-828.23"/>
<text text-anchor="middle" x="258.5" y="-840.8" font-family="Times,serif" font-size="14.00">Ja</text>
</g>
<!-- 2 -->
<g id="node4" class="node">
<title>2</title>
<polygon fill="green" stroke="black" points="709.5,-819 285.5,-819 285.5,-783 709.5,-783 709.5,-819"/>
<text text-anchor="start" x="293.5" y="-798.3" font-family="Times,serif" font-weight="bold" font-size="14.00">2: </text>
<text text-anchor="start" x="313.5" y="-798.3" font-family="Times,serif" font-size="14.00">Erfolgt die Aktivierung zum Monatsersten 00:00 Uhr?</text>
</g>
<!-- 1&#45;&gt;2 -->
<g id="edge3" class="edge">
<title>1&#45;&gt;2</title>
<path fill="none" stroke="black" d="M306.58,-869.9C345.07,-856.21 399.17,-836.97 439.96,-822.46"/>
<polygon fill="black" stroke="black" points="441.25,-825.72 449.5,-819.07 438.9,-819.12 441.25,-825.72"/>
<text text-anchor="middle" x="409.5" y="-840.8" font-family="Times,serif" font-size="14.00">Nein</text>
</g>
<!-- A02 -->
<g id="node5" class="node">
<title>A02</title>
<polygon fill="red" stroke="black" points="461.5,-732 407.5,-732 407.5,-696 461.5,-696 461.5,-732"/>
<text text-anchor="start" x="420.5" y="-710.3" font-family="Times,serif" font-size="14.00">A02</text>
</g>
<!-- 2&#45;&gt;A02 -->
<g id="edge4" class="edge">
<title>2&#45;&gt;A02</title>
<path fill="none" stroke="black" d="M484.75,-782.8C475.7,-770.59 463.4,-753.99 453.24,-740.28"/>
<polygon fill="black" stroke="black" points="456,-738.13 447.23,-732.18 450.37,-742.29 456,-738.13"/>
<text text-anchor="middle" x="487.5" y="-753.8" font-family="Times,serif" font-size="14.00">Nein</text>
</g>
<!-- 3 -->
<g id="node6" class="node">
<title>3</title>
<polygon fill="green" stroke="black" points="781.5,-732 479.5,-732 479.5,-696 781.5,-696 781.5,-732"/>
<text text-anchor="start" x="487.5" y="-711.3" font-family="Times,serif" font-weight="bold" font-size="14.00">3: </text>
<text text-anchor="start" x="507.5" y="-711.3" font-family="Times,serif" font-size="14.00">Ist die richtige Regelzone angegeben</text>
</g>
<!-- 2&#45;&gt;3 -->
<g id="edge5" class="edge">
<title>2&#45;&gt;3</title>
<path fill="none" stroke="black" d="M524.41,-782.8C544.79,-769.78 572.95,-751.78 595.14,-737.6"/>
<polygon fill="black" stroke="black" points="597.08,-740.51 603.63,-732.18 593.31,-734.61 597.08,-740.51"/>
<text text-anchor="middle" x="579.5" y="-753.8" font-family="Times,serif" font-size="14.00">Ja</text>
</g>
<!-- A03 -->
<g id="node7" class="node">
<title>A03</title>
<polygon fill="red" stroke="black" points="549.5,-645 495.5,-645 495.5,-609 549.5,-609 549.5,-645"/>
<text text-anchor="start" x="508.5" y="-623.3" font-family="Times,serif" font-size="14.00">A03</text>
</g>
<!-- 3&#45;&gt;A03 -->
<g id="edge6" class="edge">
<title>3&#45;&gt;A03</title>
<path fill="none" stroke="black" d="M608.64,-695.8C592.54,-683.13 570.44,-665.73 552.66,-651.74"/>
<polygon fill="black" stroke="black" points="554.35,-648.61 544.32,-645.18 550.02,-654.11 554.35,-648.61"/>
<text text-anchor="middle" x="600.5" y="-666.8" font-family="Times,serif" font-size="14.00">Nein</text>
</g>
<!-- 4 -->
<g id="node8" class="node">
<title>4</title>
<polygon fill="green" stroke="black" points="1227.5,-645 567.5,-645 567.5,-609 1227.5,-609 1227.5,-645"/>
<text text-anchor="start" x="575.5" y="-624.3" font-family="Times,serif" font-weight="bold" font-size="14.00">4: </text>
<text text-anchor="start" x="595.5" y="-624.3" font-family="Times,serif" font-size="14.00">Ist das Bilanzierungsgebiet zum Aktivierungsbeginn in der Regelzone des BIKO gültig?</text>
</g>
<!-- 3&#45;&gt;4 -->
<g id="edge7" class="edge">
<title>3&#45;&gt;4</title>
<path fill="none" stroke="black" d="M684.21,-695.9C727.48,-682.13 788.42,-662.73 834.08,-648.19"/>
<polygon fill="black" stroke="black" points="835.41,-651.44 843.88,-645.07 833.29,-644.77 835.41,-651.44"/>
<text text-anchor="middle" x="787.5" y="-666.8" font-family="Times,serif" font-size="14.00">Ja</text>
</g>
<!-- A04 -->
<g id="node9" class="node">
<title>A04</title>
<polygon fill="red" stroke="black" points="826.5,-558 772.5,-558 772.5,-522 826.5,-522 826.5,-558"/>
<text text-anchor="start" x="785.5" y="-536.3" font-family="Times,serif" font-size="14.00">A04</text>
</g>
<!-- 4&#45;&gt;A04 -->
<g id="edge8" class="edge">
<title>4&#45;&gt;A04</title>
<path fill="none" stroke="black" d="M877.67,-608.8C863.06,-596.13 843,-578.73 826.87,-564.74"/>
<polygon fill="black" stroke="black" points="829.15,-562.08 819.3,-558.18 824.56,-567.37 829.15,-562.08"/>
<text text-anchor="middle" x="871.5" y="-579.8" font-family="Times,serif" font-size="14.00">Nein</text>
</g>
<!-- 5 -->
<g id="node10" class="node">
<title>5</title>
<polygon fill="green" stroke="black" points="1430.5,-558 844.5,-558 844.5,-522 1430.5,-522 1430.5,-558"/>
<text text-anchor="start" x="852.5" y="-537.3" font-family="Times,serif" font-weight="bold" font-size="14.00">5: </text>
<text text-anchor="start" x="872.5" y="-537.3" font-family="Times,serif" font-size="14.00">Ist der ÜNB zum Aktivierungsbeginn für das Bilanzierungsgebiet zuständig?</text>
</g>
<!-- 4&#45;&gt;5 -->
<g id="edge9" class="edge">
<title>4&#45;&gt;5</title>
<path fill="none" stroke="black" d="M945.78,-608.9C984.43,-595.21 1038.76,-575.97 1079.72,-561.46"/>
<polygon fill="black" stroke="black" points="1081.04,-564.71 1089.3,-558.07 1078.7,-558.11 1081.04,-564.71"/>
<text text-anchor="middle" x="1039.5" y="-579.8" font-family="Times,serif" font-size="14.00">Ja</text>
</g>
<!-- A05 -->
<g id="node11" class="node">
<title>A05</title>
<polygon fill="red" stroke="black" points="1072.5,-471 1018.5,-471 1018.5,-435 1072.5,-435 1072.5,-471"/>
<text text-anchor="start" x="1031.5" y="-449.3" font-family="Times,serif" font-size="14.00">A05</text>
</g>
<!-- 5&#45;&gt;A05 -->
<g id="edge10" class="edge">
<title>5&#45;&gt;A05</title>
<path fill="none" stroke="black" d="M1118.88,-521.8C1105.29,-509.24 1086.68,-492.05 1071.61,-478.12"/>
<polygon fill="black" stroke="black" points="1073.81,-475.39 1064.09,-471.18 1069.06,-480.53 1073.81,-475.39"/>
<text text-anchor="middle" x="1114.5" y="-492.8" font-family="Times,serif" font-size="14.00">Nein</text>
</g>
<!-- 6 -->
<g id="node12" class="node">
<title>6</title>
<polygon fill="green" stroke="black" points="1626,-471 1091,-471 1091,-435 1626,-435 1626,-471"/>
<text text-anchor="start" x="1099" y="-450.3" font-family="Times,serif" font-weight="bold" font-size="14.00">6: </text>
<text text-anchor="start" x="1119" y="-450.3" font-family="Times,serif" font-size="14.00">Existiert bereits ein abweichendes Tupel unter der ID des MaBiS&#45;ZP?</text>
</g>
<!-- 5&#45;&gt;6 -->
<g id="edge11" class="edge">
<title>5&#45;&gt;6</title>
<path fill="none" stroke="black" d="M1181.96,-521.9C1217.25,-508.33 1266.73,-489.29 1304.34,-474.83"/>
<polygon fill="black" stroke="black" points="1306.04,-477.93 1314.11,-471.07 1303.52,-471.39 1306.04,-477.93"/>
<text text-anchor="middle" x="1268.5" y="-492.8" font-family="Times,serif" font-size="14.00">Ja</text>
</g>
<!-- A06 -->
<g id="node13" class="node">
<title>A06</title>
<polygon fill="red" stroke="black" points="1216.5,-384 1162.5,-384 1162.5,-348 1216.5,-348 1216.5,-384"/>
<text text-anchor="start" x="1175.5" y="-362.3" font-family="Times,serif" font-size="14.00">A06</text>
</g>
<!-- 6&#45;&gt;A06 -->
<g id="edge12" class="edge">
<title>6&#45;&gt;A06</title>
<path fill="none" stroke="black" d="M1324.3,-434.8C1295.67,-420.4 1254.92,-399.9 1225.73,-385.22"/>
<polygon fill="black" stroke="black" points="1227.2,-382.04 1216.69,-380.68 1224.05,-388.3 1227.2,-382.04"/>
<text text-anchor="middle" x="1291.5" y="-405.8" font-family="Times,serif" font-size="14.00">Ja</text>
</g>
<!-- 7 -->
<g id="node14" class="node">
<title>7</title>
<polygon fill="green" stroke="black" points="2424.5,-384 1234.5,-384 1234.5,-348 2424.5,-348 2424.5,-384"/>
<text text-anchor="start" x="1242.5" y="-363.3" font-family="Times,serif" font-weight="bold" font-size="14.00">7: </text>
<text text-anchor="start" x="1262.5" y="-363.3" font-family="Times,serif" font-size="14.00">Existiert bereits für das genannte Tupel aus Aggregations&#45;verantwortlicher, Bilanzierungsgebiet, Spannungsebene und ZRT eine abweichende ID des MaBiS&#45;ZP?</text>
</g>
<!-- 6&#45;&gt;7 -->
<g id="edge13" class="edge">
<title>6&#45;&gt;7</title>
<path fill="none" stroke="black" d="M1452.96,-434.95C1531.64,-420.75 1643.56,-400.56 1724.93,-385.87"/>
<polygon fill="black" stroke="black" points="1725.97,-389.24 1735.19,-384.02 1724.73,-382.35 1725.97,-389.24"/>
<text text-anchor="middle" x="1639.5" y="-405.8" font-family="Times,serif" font-size="14.00">Nein</text>
</g>
<!-- A07 -->
<g id="node15" class="node">
<title>A07</title>
<polygon fill="red" stroke="black" points="1787.5,-297 1733.5,-297 1733.5,-261 1787.5,-261 1787.5,-297"/>
<text text-anchor="start" x="1746.5" y="-275.3" font-family="Times,serif" font-size="14.00">A07</text>
</g>
<!-- 7&#45;&gt;A07 -->
<g id="edge14" class="edge">
<title>7&#45;&gt;A07</title>
<path fill="none" stroke="black" d="M1815.54,-347.8C1805.62,-335.59 1792.15,-318.99 1781.02,-305.28"/>
<polygon fill="black" stroke="black" points="1783.46,-302.73 1774.44,-297.18 1778.03,-307.15 1783.46,-302.73"/>
<text text-anchor="middle" x="1806.5" y="-318.8" font-family="Times,serif" font-size="14.00">Ja</text>
</g>
<!-- 8 -->
<g id="node16" class="node">
<title>8</title>
<polygon fill="green" stroke="black" points="2193.5,-297 1805.5,-297 1805.5,-261 2193.5,-261 2193.5,-297"/>
<text text-anchor="start" x="1813.5" y="-276.3" font-family="Times,serif" font-weight="bold" font-size="14.00">8: </text>
<text text-anchor="start" x="1833.5" y="-276.3" font-family="Times,serif" font-size="14.00">Ist der ÜNB zur Aktivierung des ZRT berechtigt?</text>
</g>
<!-- 7&#45;&gt;8 -->
<g id="edge15" class="edge">
<title>7&#45;&gt;8</title>
<path fill="none" stroke="black" d="M1863.9,-347.8C1890.6,-334.45 1927.78,-315.86 1956.45,-301.52"/>
<polygon fill="black" stroke="black" points="1958.06,-304.63 1965.44,-297.03 1954.93,-298.37 1958.06,-304.63"/>
<text text-anchor="middle" x="1942.5" y="-318.8" font-family="Times,serif" font-size="14.00">Nein</text>
</g>
<!-- A08 -->
<g id="node17" class="node">
<title>A08</title>
<polygon fill="red" stroke="black" points="1965.5,-210 1911.5,-210 1911.5,-174 1965.5,-174 1965.5,-210"/>
<text text-anchor="start" x="1924.5" y="-188.3" font-family="Times,serif" font-size="14.00">A08</text>
</g>
<!-- 8&#45;&gt;A08 -->
<g id="edge16" class="edge">
<title>8&#45;&gt;A08</title>
<path fill="none" stroke="black" d="M1987.16,-260.8C1978.47,-248.7 1966.71,-232.3 1956.92,-218.67"/>
<polygon fill="black" stroke="black" points="1959.5,-216.26 1950.83,-210.18 1953.81,-220.34 1959.5,-216.26"/>
<text text-anchor="middle" x="1990.5" y="-231.8" font-family="Times,serif" font-size="14.00">Nein</text>
</g>
<!-- 9 -->
<g id="node18" class="node">
<title>9</title>
<polygon fill="green" stroke="black" points="2271.5,-210 1983.5,-210 1983.5,-174 2271.5,-174 2271.5,-210"/>
<text text-anchor="start" x="1991.5" y="-189.3" font-family="Times,serif" font-weight="bold" font-size="14.00">9: </text>
<text text-anchor="start" x="2011.5" y="-189.3" font-family="Times,serif" font-size="14.00">Passt die OBIS&#45;Kennzahl zum ZRT?</text>
</g>
<!-- 8&#45;&gt;9 -->
<g id="edge17" class="edge">
<title>8&#45;&gt;9</title>
<path fill="none" stroke="black" d="M2025.4,-260.8C2044.92,-247.84 2071.87,-229.94 2093.18,-215.79"/>
<polygon fill="black" stroke="black" points="2095.24,-218.62 2101.64,-210.18 2091.37,-212.79 2095.24,-218.62"/>
<text text-anchor="middle" x="2078.5" y="-231.8" font-family="Times,serif" font-size="14.00">Ja</text>
</g>
<!-- A09 -->
<g id="node19" class="node">
<title>A09</title>
<polygon fill="red" stroke="black" points="2064.5,-123 2010.5,-123 2010.5,-87 2064.5,-87 2064.5,-123"/>
<text text-anchor="start" x="2023.5" y="-101.3" font-family="Times,serif" font-size="14.00">A09</text>
</g>
<!-- 9&#45;&gt;A09 -->
<g id="edge18" class="edge">
<title>9&#45;&gt;A09</title>
<path fill="none" stroke="black" d="M2109.29,-173.8C2095.99,-161.24 2077.79,-144.05 2063.04,-130.12"/>
<polygon fill="black" stroke="black" points="2065.36,-127.5 2055.69,-123.18 2060.55,-132.59 2065.36,-127.5"/>
<text text-anchor="middle" x="2105.5" y="-144.8" font-family="Times,serif" font-size="14.00">Nein</text>
</g>
<!-- 10 -->
<g id="node20" class="node">
<title>10</title>
<polygon fill="green" stroke="black" points="2604.5,-123 2082.5,-123 2082.5,-87 2604.5,-87 2604.5,-123"/>
<text text-anchor="start" x="2090.5" y="-102.3" font-family="Times,serif" font-weight="bold" font-size="14.00">10: </text>
<text text-anchor="start" x="2120.5" y="-102.3" font-family="Times,serif" font-size="14.00">Ist der MaBiS&#45;ZP zum Zeitpunkt der Aktivierung bereits aktiviert?</text>
</g>
<!-- 9&#45;&gt;10 -->
<g id="edge19" class="edge">
<title>9&#45;&gt;10</title>
<path fill="none" stroke="black" d="M2170.95,-173.9C2205.44,-160.33 2253.81,-141.29 2290.56,-126.83"/>
<polygon fill="black" stroke="black" points="2292.09,-129.99 2300.12,-123.07 2289.53,-123.48 2292.09,-129.99"/>
<text text-anchor="middle" x="2255.5" y="-144.8" font-family="Times,serif" font-size="14.00">Ja</text>
</g>
<!-- A10 -->
<g id="node21" class="node">
<title>A10</title>
<polygon fill="red" stroke="black" points="2334.5,-36 2280.5,-36 2280.5,0 2334.5,0 2334.5,-36"/>
<text text-anchor="start" x="2293.5" y="-14.3" font-family="Times,serif" font-size="14.00">A10</text>
</g>
<!-- 10&#45;&gt;A10 -->
<g id="edge20" class="edge">
<title>10&#45;&gt;A10</title>
<path fill="none" stroke="black" d="M2336.21,-86.8C2331.19,-74.93 2324.41,-58.93 2318.7,-45.45"/>
<polygon fill="black" stroke="black" points="2321.9,-44.02 2314.77,-36.18 2315.45,-46.75 2321.9,-44.02"/>
<text text-anchor="middle" x="2335.5" y="-57.8" font-family="Times,serif" font-size="14.00">Ja</text>
</g>
<!-- A11 -->
<g id="node22" class="node">
<title>A11</title>
<polygon fill="red" stroke="black" points="2406.5,-36 2352.5,-36 2352.5,0 2406.5,0 2406.5,-36"/>
<text text-anchor="start" x="2365.5" y="-14.3" font-family="Times,serif" font-size="14.00">A11</text>
</g>
<!-- 10&#45;&gt;A11 -->
<g id="edge21" class="edge">
<title>10&#45;&gt;A11</title>
<path fill="none" stroke="black" d="M2350.79,-86.8C2355.81,-74.93 2362.59,-58.93 2368.3,-45.45"/>
<polygon fill="black" stroke="black" points="2371.55,-46.75 2372.23,-36.18 2365.1,-44.02 2371.55,-46.75"/>
<text text-anchor="middle" x="2380.5" y="-57.8" font-family="Times,serif" font-size="14.00">Nein</text>
</g>
</g>
</svg>
