<?xml version='1.0' encoding='ASCII' standalone='yes'?>
<svg xmlns="http://www.w3.org/2000/svg" xmlns:xlink="http://www.w3.org/1999/xlink" version="1.1" width="1910.6666666666667px" viewBox="0 0 1910.6666666666667 838.6666666666666" height="838.6666666666666px">
  <g>
    <svg version="1.1" width="1910.6666666666667px" viewBox="0 0 1910.6666666666667 838.6666666666666" height="838.6666666666666px">
  <polygon fill="#f3f1f6" points="0,0 1910.6666666666667,0 1910.6666666666667,838.6666666666666 0,838.6666666666666"/><g>
    <g transform="translate(620.115504277132, 83.86666666666665) scale(1 1) translate(0, 0) scale(3.792967158987322 3.792967158987322) "><sodipodi:namedview xmlns:sodipodi="http://sodipodi.sourceforge.net/DTD/sodipodi-0.dtd" xmlns:inkscape="http://www.inkscape.org/namespaces/inkscape" id="namedview7" pagecolor="#ffffff" bordercolor="#999999" borderopacity="1" inkscape:pageshadow="0" inkscape:pageopacity="0" inkscape:pagecheckerboard="0" inkscape:document-units="mm" showgrid="false" fit-margin-top="0" fit-margin-left="0" fit-margin-right="0" fit-margin-bottom="0" inkscape:zoom="0.64052329" inkscape:cx="130.36216" inkscape:cy="412.163" inkscape:window-width="1512" inkscape:window-height="916" inkscape:window-x="3840" inkscape:window-y="136" inkscape:window-maximized="0" inkscape:current-layer="layer1"/>
  <defs id="defs2">
    <clipPath clipPathUnits="userSpaceOnUse" id="clipPath23">
      <path d="M 0,568.156 H 579.236 V 0 H 0 Z" id="path21"/>
    </clipPath>
  </defs>
  <g xmlns:inkscape="http://www.inkscape.org/namespaces/inkscape" inkscape:label="Layer 1" inkscape:groupmode="layer" id="layer1" transform="translate(-16.541937,-55.305267)">
    <g id="g19" clip-path="url(#clipPath23)" transform="matrix(0.35277777,0,0,-0.35277777,0.01017023,243.73675)" style="opacity:0.2">
      <g id="g25" transform="translate(122.444,32.7195)">
        <path d="m 0,0 h -56.104 c -11,0 -19.898,9.123 -19.463,20.115 10.594,267.191 231.277,481.302 501.029,481.302 v -56.02 c 0,-10.98 -8.688,-19.892 -19.658,-20.393 C 180.29,414.697 0,228.005 0,0" style="fill:#6ead83;fill-opacity:0.5;fill-rule:nonzero;stroke:none" id="path27"/>
      </g>
      <g id="g29" transform="translate(273.7828,32.7195)">
        <path d="m 0,0 h -55.926 c -11.228,0 -20.091,9.482 -19.435,20.69 10.744,183.439 163.389,329.388 349.485,329.388 v -56.263 c 0,-10.709 -8.273,-19.617 -18.957,-20.35 C 112.819,263.696 0,144.774 0,0" style="fill:#6ead83;fill-opacity:0.5;fill-rule:nonzero;stroke:none" id="path31"/>
      </g>
      <g id="g33" transform="translate(425.7667,32.7195)">
        <path d="m 0,0 h -55.445 c -11.653,0 -20.604,10.17 -19.334,21.753 10.866,99.032 95.031,176.341 196.919,176.341 v -57.011 c 0,-10.046 -7.283,-18.755 -17.229,-20.165 C 45.688,112.522 0,61.497 0,0" style="fill:#6ead83;fill-opacity:0.5;fill-rule:nonzero;stroke:none" id="path35"/>
      </g>
    </g>
  </g>
</g>
    <svg width="1433pt" height="629pt" viewBox="0.00 0.00 1432.80 629.12">
<g id="graph0" class="graph" transform="scale(1 1) rotate(0) translate(4 625.12)">
<title>D</title>
<text text-anchor="start" x="193.78" y="-601.02" font-family="Times,serif" font-weight="bold" font-size="18.00">7.41 AD: &#220;bermittlung Pr&#252;fmitteilung f&#252;r die Bilanzkreissummenzeitreihe vom BKV an BIKO und &#220;NB</text>
<text text-anchor="start" x="544.78" y="-570.92" font-family="Times,serif" font-weight="bold" font-size="16.00">7.41.2 E_0025_Pr&#252;fmitteilung pr&#252;fen</text>
<!-- Start -->
<g id="node1" class="node">
<title>Start</title>
<polygon fill="#7a8da1" stroke="black" points="448.55,-523.12 274.25,-523.12 274.25,-479.84 448.55,-479.84 448.55,-523.12"/>
<text text-anchor="start" x="333.27" y="-502.18" font-family="Times,serif" font-weight="bold" font-size="14.00">E_0025</text>
<text text-anchor="start" x="288.65" y="-490.08" font-family="Times,serif" font-weight="bold" text-decoration="underline" font-size="12.00">Pr&#252;fende Rolle:</text>
<text text-anchor="start" x="393.65" y="-490.08" font-family="Times,serif" font-weight="bold" font-size="12.00"> BIKO</text>
</g>
<!-- 1 -->
<g id="node2" class="node">
<title>1</title>
<path fill="#7aab8a" stroke="black" d="M672.05,-442.84C672.05,-442.84 50.75,-442.84 50.75,-442.84 44.75,-442.84 38.75,-436.84 38.75,-430.84 38.75,-430.84 38.75,-418.84 38.75,-418.84 38.75,-412.84 44.75,-406.84 50.75,-406.84 50.75,-406.84 672.05,-406.84 672.05,-406.84 678.05,-406.84 684.05,-412.84 684.05,-418.84 684.05,-418.84 684.05,-430.84 684.05,-430.84 684.05,-436.84 678.05,-442.84 672.05,-442.84"/>
<text text-anchor="start" x="53.15" y="-421.16" font-family="Times,serif" font-weight="bold" font-size="14.00">1: </text>
<text text-anchor="start" x="72.65" y="-421.16" font-family="Times,serif" font-size="14.00">Erfolgt der Eingang der Pr&#252;fmitteilung nach Ablauf der Clearingfrist f&#252;r die KBKA?</text>
</g>
<!-- Start&#45;&gt;1 -->
<g id="edge1" class="edge">
<title>Start-&gt;1</title>
<path fill="none" stroke="black" d="M361.4,-479.69C361.4,-471.83 361.4,-462.75 361.4,-454.31"/>
<polygon fill="black" stroke="black" points="364.9,-454.51 361.4,-444.51 357.9,-454.51 364.9,-454.51"/>
</g>
<!-- A01 -->
<g id="node3" class="node">
<title>A01</title>
<polygon fill="#cfb986" stroke="black" points="270.64,-353.59 126.16,-353.59 126.16,-304.07 270.64,-304.07 270.64,-353.59"/>
<text text-anchor="start" x="183.4" y="-335.53" font-family="Times,serif" font-weight="bold" font-size="14.00">A01</text>
<text text-anchor="start" x="138.4" y="-323.43" font-family="Times,serif" text-decoration="underline" font-size="12.00">Hinweis:</text>
<text text-anchor="start" x="138.4" y="-311.43" font-family="Times,serif" font-size="12.00">Frist&#252;berschreitung</text>
</g>
<!-- 1&#45;&gt;A01 -->
<g id="edge2" class="edge">
<title>1-&gt;A01</title>
<path fill="none" stroke="black" d="M331.12,-406.38C308.43,-393.29 276.82,-375.06 250.14,-359.67"/>
<polygon fill="black" stroke="black" points="251.91,-356.65 241.5,-354.69 248.41,-362.72 251.91,-356.65"/>
<text text-anchor="middle" x="305.15" y="-375.54" font-family="Times,serif" font-size="14.00">Ja</text>
</g>
<!-- 2 -->
<g id="node4" class="node">
<title>2</title>
<path fill="#7aab8a" stroke="black" d="M752.3,-346.83C752.3,-346.83 300.5,-346.83 300.5,-346.83 294.5,-346.83 288.5,-340.83 288.5,-334.83 288.5,-334.83 288.5,-322.83 288.5,-322.83 288.5,-316.83 294.5,-310.83 300.5,-310.83 300.5,-310.83 752.3,-310.83 752.3,-310.83 758.3,-310.83 764.3,-316.83 764.3,-322.83 764.3,-322.83 764.3,-334.83 764.3,-334.83 764.3,-340.83 758.3,-346.83 752.3,-346.83"/>
<text text-anchor="start" x="302.9" y="-325.15" font-family="Times,serif" font-weight="bold" font-size="14.00">2: </text>
<text text-anchor="start" x="322.4" y="-325.15" font-family="Times,serif" font-size="14.00">Befindet sich der MaBiS-ZP auf der Aggregationsebene RZ?</text>
</g>
<!-- 1&#45;&gt;2 -->
<g id="edge3" class="edge">
<title>1-&gt;2</title>
<path fill="none" stroke="black" d="M392.05,-406.38C418.56,-391.27 457.08,-369.32 486.09,-352.8"/>
<polygon fill="black" stroke="black" points="487.64,-355.94 494.6,-347.95 484.18,-349.86 487.64,-355.94"/>
<text text-anchor="middle" x="465.27" y="-375.54" font-family="Times,serif" font-size="14.00">Nein</text>
</g>
<!-- 3 -->
<g id="node5" class="node">
<title>3</title>
<path fill="#7aab8a" stroke="black" d="M483.8,-250.82C483.8,-250.82 23,-250.82 23,-250.82 17,-250.82 11,-244.82 11,-238.82 11,-238.82 11,-217.54 11,-217.54 11,-211.54 17,-205.54 23,-205.54 23,-205.54 483.8,-205.54 483.8,-205.54 489.8,-205.54 495.8,-211.54 495.8,-217.54 495.8,-217.54 495.8,-238.82 495.8,-238.82 495.8,-244.82 489.8,-250.82 483.8,-250.82"/>
<text text-anchor="start" x="25.4" y="-229.88" font-family="Times,serif" font-weight="bold" font-size="14.00">3: </text>
<text text-anchor="start" x="44.9" y="-229.88" font-family="Times,serif" font-size="14.00">Hat der BKV f&#252;r den BK dieses MaBiS-ZP in diesem Bilanzie-</text>
<text text-anchor="start" x="25.4" y="-215.88" font-family="Times,serif" font-size="14.00">rungsmonat die Aggregationsebene RZ abbestellt?</text>
</g>
<!-- 2&#45;&gt;3 -->
<g id="edge4" class="edge">
<title>2-&gt;3</title>
<path fill="none" stroke="black" d="M478.22,-310.42C435.81,-295.1 373.47,-272.57 325.19,-255.12"/>
<polygon fill="black" stroke="black" points="326.51,-251.88 315.91,-251.77 324.13,-258.46 326.51,-251.88"/>
<text text-anchor="middle" x="422.27" y="-272.77" font-family="Times,serif" font-size="14.00">Nein</text>
</g>
<!-- 5 -->
<g id="node9" class="node">
<title>5</title>
<path fill="#7aab8a" stroke="black" d="M1412.8,-250.82C1412.8,-250.82 526,-250.82 526,-250.82 520,-250.82 514,-244.82 514,-238.82 514,-238.82 514,-217.54 514,-217.54 514,-211.54 520,-205.54 526,-205.54 526,-205.54 1412.8,-205.54 1412.8,-205.54 1418.8,-205.54 1424.8,-211.54 1424.8,-217.54 1424.8,-217.54 1424.8,-238.82 1424.8,-238.82 1424.8,-244.82 1418.8,-250.82 1412.8,-250.82"/>
<text text-anchor="start" x="528.4" y="-229.88" font-family="Times,serif" font-weight="bold" font-size="14.00">5: </text>
<text text-anchor="start" x="547.9" y="-229.88" font-family="Times,serif" font-size="14.00">Hat der BKV dem BIKO f&#252;r diesen Bilanzierungsmonat bereitsmitgeteilt, dass die weiteren Pr&#252;fungen auf Ebene des BG</text>
<text text-anchor="start" x="528.4" y="-215.88" font-family="Times,serif" font-size="14.00">stattfinden m&#252;ssen?</text>
</g>
<!-- 2&#45;&gt;5 -->
<g id="edge5" class="edge">
<title>2-&gt;5</title>
<path fill="none" stroke="black" d="M604.83,-310.36C675.45,-294.64 779.96,-271.37 859,-253.76"/>
<polygon fill="black" stroke="black" points="859.5,-257.24 868.51,-251.65 857.98,-250.41 859.5,-257.24"/>
<text text-anchor="middle" x="794.15" y="-272.77" font-family="Times,serif" font-size="14.00">Ja</text>
</g>
<!-- Ende -->
<g id="node6" class="node">
<title>Ende</title>
<polygon fill="#7a8da1" stroke="black" points="876.17,-42.76 810.62,-42.76 810.62,-6.76 876.17,-6.76 876.17,-42.76"/>
<text text-anchor="middle" x="843.4" y="-20.08" font-family="Times,serif" font-size="14.00">Ende</text>
</g>
<!-- 3&#45;&gt;Ende -->
<g id="edge7" class="edge">
<title>3-&gt;Ende</title>
<path fill="none" stroke="black" d="M491.76,-205.05C675.24,-187.27 900.67,-163.48 919.4,-152.29 928.12,-147.08 976.71,-85.8 971.4,-77.14"/>
<path fill="none" stroke="black" d="M971.4,-75.14C952.44,-48.25 916.66,-36 887.74,-30.42"/>
<polygon fill="black" stroke="black" points="888.58,-27.01 878.14,-28.79 887.41,-33.91 888.58,-27.01"/>
<text text-anchor="middle" x="966.15" y="-122.86" font-family="Times,serif" font-size="14.00">Ja</text>
</g>
<!-- 4 -->
<g id="node7" class="node">
<title>4</title>
<path fill="#7aab8a" stroke="black" d="M898.8,-150.17C898.8,-150.17 12,-150.17 12,-150.17 6,-150.17 0,-144.17 0,-138.17 0,-138.17 0,-116.89 0,-116.89 0,-110.89 6,-104.89 12,-104.89 12,-104.89 898.8,-104.89 898.8,-104.89 904.8,-104.89 910.8,-110.89 910.8,-116.89 910.8,-116.89 910.8,-138.17 910.8,-138.17 910.8,-144.17 904.8,-150.17 898.8,-150.17"/>
<text text-anchor="start" x="14.4" y="-129.23" font-family="Times,serif" font-weight="bold" font-size="14.00">4: </text>
<text text-anchor="start" x="33.9" y="-129.23" font-family="Times,serif" font-size="14.00">Hat der BKV dem BIKO f&#252;r diesen Bilanzierungsmonat bereitsmitgeteilt, dass die weiteren Pr&#252;fungen auf Ebene des BG</text>
<text text-anchor="start" x="14.4" y="-115.23" font-family="Times,serif" font-size="14.00">stattfinden m&#252;ssen?</text>
</g>
<!-- 3&#45;&gt;4 -->
<g id="edge6" class="edge">
<title>3-&gt;4</title>
<path fill="none" stroke="black" d="M298.73,-205.04C328.75,-190.38 368.31,-171.06 400.17,-155.5"/>
<polygon fill="black" stroke="black" points="401.41,-158.79 408.86,-151.26 398.34,-152.5 401.41,-158.79"/>
<text text-anchor="middle" x="383.27" y="-174.24" font-family="Times,serif" font-size="14.00">Nein</text>
</g>
<!-- 4&#45;&gt;Ende -->
<g id="edge9" class="edge">
<title>4-&gt;Ende</title>
<path fill="none" stroke="black" d="M540.55,-104.42C620.35,-83.69 736.48,-53.53 799.22,-37.23"/>
<polygon fill="black" stroke="black" points="800.03,-40.64 808.83,-34.74 798.27,-33.87 800.03,-40.64"/>
<text text-anchor="middle" x="679.15" y="-71.47" font-family="Times,serif" font-size="14.00">Ja</text>
</g>
<!-- A02 -->
<g id="node8" class="node">
<title>A02</title>
<polygon fill="#cfb986" stroke="black" points="561.76,-49.52 349.03,-49.52 349.03,0 561.76,0 561.76,-49.52"/>
<text text-anchor="start" x="440.4" y="-31.46" font-family="Times,serif" font-weight="bold" font-size="14.00">A02</text>
<text text-anchor="start" x="361.27" y="-19.36" font-family="Times,serif" text-decoration="underline" font-size="12.00">Hinweis:</text>
<text text-anchor="start" x="361.27" y="-7.36" font-family="Times,serif" font-size="12.00">Falsche Aggregationsebene BG</text>
</g>
<!-- 4&#45;&gt;A02 -->
<g id="edge8" class="edge">
<title>4-&gt;A02</title>
<path fill="none" stroke="black" d="M455.4,-104.66C455.4,-91.88 455.4,-75.43 455.4,-60.87"/>
<polygon fill="black" stroke="black" points="458.9,-61.21 455.4,-51.21 451.9,-61.21 458.9,-61.21"/>
<text text-anchor="middle" x="472.27" y="-71.47" font-family="Times,serif" font-size="14.00">Nein</text>
</g>
<!-- 5&#45;&gt;Ende -->
<g id="edge11" class="edge">
<title>5-&gt;Ende</title>
<path fill="none" stroke="black" d="M976.92,-205.11C986.13,-173.74 997.52,-115.77 971.4,-77.14"/>
<text text-anchor="middle" x="1004.27" y="-122.86" font-family="Times,serif" font-size="14.00">Nein</text>
</g>
<!-- A03 -->
<g id="node10" class="node">
<title>A03</title>
<polygon fill="#cfb986" stroke="black" points="1259.02,-152.29 1047.79,-152.29 1047.79,-102.77 1259.02,-102.77 1259.02,-152.29"/>
<text text-anchor="start" x="1138.4" y="-134.23" font-family="Times,serif" font-weight="bold" font-size="14.00">A03</text>
<text text-anchor="start" x="1060.03" y="-122.13" font-family="Times,serif" text-decoration="underline" font-size="12.00">Hinweis:</text>
<text text-anchor="start" x="1060.03" y="-110.13" font-family="Times,serif" font-size="12.00">Falsche Aggregationsebene RZ</text>
</g>
<!-- 5&#45;&gt;A03 -->
<g id="edge10" class="edge">
<title>5-&gt;A03</title>
<path fill="none" stroke="black" d="M1010.69,-205.04C1036.55,-191.18 1070.18,-173.15 1098.29,-158.07"/>
<polygon fill="black" stroke="black" points="1099.89,-161.19 1107.05,-153.38 1096.58,-155.02 1099.89,-161.19"/>
<text text-anchor="middle" x="1079.15" y="-174.24" font-family="Times,serif" font-size="14.00">Ja</text>
</g>
</g>
</svg>
  </g>
</svg>
  </g>
</svg>
