<?xml version='1.0' encoding='ASCII' standalone='yes'?>
<svg xmlns="http://www.w3.org/2000/svg" xmlns:xlink="http://www.w3.org/1999/xlink" version="1.1" width="1442.6666666666667px" viewBox="0 0 1442.6666666666667 834.6666666666666" height="834.6666666666666px">
  <g>
    <svg version="1.1" width="1442.6666666666667px" viewBox="0 0 1442.6666666666667 834.6666666666666" height="834.6666666666666px">
  <polygon fill="#f3f1f6" points="0,0 1442.6666666666667,0 1442.6666666666667,834.6666666666666 0,834.6666666666666"/><g>
    <g transform="translate(387.71431745228085, 83.46666666666664) scale(1 1) translate(0, 0) scale(3.774876695589926 3.774876695589926) "><sodipodi:namedview xmlns:sodipodi="http://sodipodi.sourceforge.net/DTD/sodipodi-0.dtd" xmlns:inkscape="http://www.inkscape.org/namespaces/inkscape" id="namedview7" pagecolor="#ffffff" bordercolor="#999999" borderopacity="1" inkscape:pageshadow="0" inkscape:pageopacity="0" inkscape:pagecheckerboard="0" inkscape:document-units="mm" showgrid="false" fit-margin-top="0" fit-margin-left="0" fit-margin-right="0" fit-margin-bottom="0" inkscape:zoom="0.64052329" inkscape:cx="130.36216" inkscape:cy="412.163" inkscape:window-width="1512" inkscape:window-height="916" inkscape:window-x="3840" inkscape:window-y="136" inkscape:window-maximized="0" inkscape:current-layer="layer1"/>
  <defs id="defs2">
    <clipPath clipPathUnits="userSpaceOnUse" id="clipPath23">
      <path d="M 0,568.156 H 579.236 V 0 H 0 Z" id="path21"/>
    </clipPath>
  </defs>
  <path class="cls-1" d="M122.44,531.2h-56.1c-11,0-19.9-9.12-19.46-20.11C57.47,243.89,278.15,29.78,547.91,29.78v56.02c0,10.98-8.69,19.89-19.66,20.39-225.51,10.31-405.8,197-405.8,425Z"/>
  <path class="cls-1" d="M273.78,531.2h-55.93c-11.23,0-20.09-9.48-19.43-20.69,10.74-183.44,163.39-329.39,349.48-329.39v56.26c0,10.71-8.27,19.62-18.96,20.35-142.35,9.77-255.17,128.69-255.17,273.46Z"/>
  <path class="cls-1" d="M425.77,531.2h-55.45c-11.65,0-20.6-10.17-19.33-21.75,10.87-99.03,95.03-176.34,196.92-176.34v57.01c0,10.05-7.28,18.75-17.23,20.16-59.22,8.4-104.91,59.42-104.91,120.92Z"/>
</g>
    <svg width="1082pt" height="626pt" viewBox="0.00 0.00 1081.55 625.84">
<g id="graph0" class="graph" transform="scale(1 1) rotate(0) translate(4 621.84)">
<title>D</title>
<text text-anchor="start" x="18.15" y="-597.74" font-family="Times,serif" font-weight="bold" font-size="18.00">7.41 AD: &#220;bermittlung Pr&#252;fmitteilung f&#252;r die Bilanzkreissummenzeitreihe vom BKV an BIKO und &#220;NB</text>
<text text-anchor="start" x="369.15" y="-567.64" font-family="Times,serif" font-weight="bold" font-size="16.00">7.41.2 E_0025_Pr&#252;fmitteilung pr&#252;fen</text>
<!-- Start -->
<g id="node1" class="node">
<title>Start</title>
<polygon fill="#7a8da1" stroke="black" points="409.8,-519.84 235.5,-519.84 235.5,-476.56 409.8,-476.56 409.8,-519.84"/>
<text text-anchor="start" x="294.52" y="-498.9" font-family="Times,serif" font-weight="bold" font-size="14.00">E_0025</text>
<text text-anchor="start" x="249.9" y="-486.8" font-family="Times,serif" font-weight="bold" text-decoration="underline" font-size="12.00">Pr&#252;fende Rolle:</text>
<text text-anchor="start" x="354.9" y="-486.8" font-family="Times,serif" font-weight="bold" font-size="12.00"> BIKO</text>
</g>
<!-- 1 -->
<g id="node2" class="node">
<title>1</title>
<path fill="#7aab8a" stroke="black" d="M633.3,-439.56C633.3,-439.56 12,-439.56 12,-439.56 6,-439.56 0,-433.56 0,-427.56 0,-427.56 0,-415.56 0,-415.56 0,-409.56 6,-403.56 12,-403.56 12,-403.56 633.3,-403.56 633.3,-403.56 639.3,-403.56 645.3,-409.56 645.3,-415.56 645.3,-415.56 645.3,-427.56 645.3,-427.56 645.3,-433.56 639.3,-439.56 633.3,-439.56"/>
<text text-anchor="start" x="14.4" y="-417.88" font-family="Times,serif" font-weight="bold" font-size="14.00">1: </text>
<text text-anchor="start" x="33.9" y="-417.88" font-family="Times,serif" font-size="14.00">Erfolgt der Eingang der Pr&#252;fmitteilung nach Ablauf der Clearingfrist f&#252;r die KBKA?</text>
</g>
<!-- Start&#45;&gt;1 -->
<g id="edge1" class="edge">
<title>Start-&gt;1</title>
<path fill="none" stroke="black" d="M322.65,-476.41C322.65,-468.55 322.65,-459.47 322.65,-451.03"/>
<polygon fill="black" stroke="black" points="326.15,-451.23 322.65,-441.23 319.15,-451.23 326.15,-451.23"/>
</g>
<!-- A01 -->
<g id="node3" class="node">
<title>A01</title>
<polygon fill="#cfb986" stroke="black" points="231.89,-350.31 87.41,-350.31 87.41,-314.31 231.89,-314.31 231.89,-350.31"/>
<text text-anchor="start" x="99.65" y="-333.91" font-family="Times,serif" text-decoration="underline" font-size="12.00">Hinweis:</text>
<text text-anchor="start" x="99.65" y="-321.91" font-family="Times,serif" font-size="12.00">Frist&#252;berschreitung</text>
</g>
<!-- 1&#45;&gt;A01 -->
<g id="edge2" class="edge">
<title>1-&gt;A01</title>
<path fill="none" stroke="black" d="M290.06,-403.11C264.85,-389.62 229.73,-370.82 202.29,-356.14"/>
<polygon fill="black" stroke="black" points="203.99,-353.07 193.52,-351.44 200.69,-359.25 203.99,-353.07"/>
<text text-anchor="middle" x="262.4" y="-372.26" font-family="Times,serif" font-size="14.00">Ja</text>
</g>
<!-- 2 -->
<g id="node4" class="node">
<title>2</title>
<path fill="#7aab8a" stroke="black" d="M713.55,-350.31C713.55,-350.31 261.75,-350.31 261.75,-350.31 255.75,-350.31 249.75,-344.31 249.75,-338.31 249.75,-338.31 249.75,-326.31 249.75,-326.31 249.75,-320.31 255.75,-314.31 261.75,-314.31 261.75,-314.31 713.55,-314.31 713.55,-314.31 719.55,-314.31 725.55,-320.31 725.55,-326.31 725.55,-326.31 725.55,-338.31 725.55,-338.31 725.55,-344.31 719.55,-350.31 713.55,-350.31"/>
<text text-anchor="start" x="264.15" y="-328.63" font-family="Times,serif" font-weight="bold" font-size="14.00">2: </text>
<text text-anchor="start" x="283.65" y="-328.63" font-family="Times,serif" font-size="14.00">Befindet sich der MaBiS-ZP auf der Aggregationsebene RZ?</text>
</g>
<!-- 1&#45;&gt;2 -->
<g id="edge3" class="edge">
<title>1-&gt;2</title>
<path fill="none" stroke="black" d="M355.64,-403.11C381.27,-389.56 417.02,-370.66 444.85,-355.94"/>
<polygon fill="black" stroke="black" points="446.17,-359.2 453.38,-351.43 442.9,-353.01 446.17,-359.2"/>
<text text-anchor="middle" x="436.52" y="-372.26" font-family="Times,serif" font-size="14.00">Nein</text>
</g>
<!-- 3 -->
<g id="node5" class="node">
<title>3</title>
<path fill="#7aab8a" stroke="black" d="M550.05,-254.06C550.05,-254.06 89.25,-254.06 89.25,-254.06 83.25,-254.06 77.25,-248.06 77.25,-242.06 77.25,-242.06 77.25,-220.78 77.25,-220.78 77.25,-214.78 83.25,-208.78 89.25,-208.78 89.25,-208.78 550.05,-208.78 550.05,-208.78 556.05,-208.78 562.05,-214.78 562.05,-220.78 562.05,-220.78 562.05,-242.06 562.05,-242.06 562.05,-248.06 556.05,-254.06 550.05,-254.06"/>
<text text-anchor="start" x="91.65" y="-233.12" font-family="Times,serif" font-weight="bold" font-size="14.00">3: </text>
<text text-anchor="start" x="111.15" y="-233.12" font-family="Times,serif" font-size="14.00">Hat der BKV f&#252;r den BK dieses MaBiS-ZP in diesem Bilanzie-</text>
<text text-anchor="start" x="91.65" y="-219.12" font-family="Times,serif" font-size="14.00">rungsmonat die Aggregationsebene RZ abbestellt?</text>
</g>
<!-- 2&#45;&gt;3 -->
<g id="edge4" class="edge">
<title>2-&gt;3</title>
<path fill="none" stroke="black" d="M458,-313.86C432.78,-299.01 396.11,-277.42 366.85,-260.2"/>
<polygon fill="black" stroke="black" points="368.94,-257.37 358.55,-255.32 365.39,-263.41 368.94,-257.37"/>
<text text-anchor="middle" x="439.52" y="-283.01" font-family="Times,serif" font-size="14.00">Nein</text>
</g>
<!-- 5 -->
<g id="node9" class="node">
<title>5</title>
<path fill="#7aab8a" stroke="black" d="M1061.55,-261.06C1061.55,-261.06 591.75,-261.06 591.75,-261.06 585.75,-261.06 579.75,-255.06 579.75,-249.06 579.75,-249.06 579.75,-213.78 579.75,-213.78 579.75,-207.78 585.75,-201.78 591.75,-201.78 591.75,-201.78 1061.55,-201.78 1061.55,-201.78 1067.55,-201.78 1073.55,-207.78 1073.55,-213.78 1073.55,-213.78 1073.55,-249.06 1073.55,-249.06 1073.55,-255.06 1067.55,-261.06 1061.55,-261.06"/>
<text text-anchor="start" x="594.15" y="-240.12" font-family="Times,serif" font-weight="bold" font-size="14.00">5: </text>
<text text-anchor="start" x="613.65" y="-240.12" font-family="Times,serif" font-size="14.00">Hat der BKV dem BIKO f&#252;r diesen Bilanzierungsmonat bereits</text>
<text text-anchor="start" x="594.15" y="-226.12" font-family="Times,serif" font-size="14.00">mitgeteilt, dass die weiteren Pr&#252;fungen auf Ebene des BG</text>
<text text-anchor="start" x="594.15" y="-212.12" font-family="Times,serif" font-size="14.00">stattfinden m&#252;ssen?</text>
</g>
<!-- 2&#45;&gt;5 -->
<g id="edge5" class="edge">
<title>2-&gt;5</title>
<path fill="none" stroke="black" d="M547.48,-313.86C594.08,-300.26 660.08,-281.01 716.2,-264.64"/>
<polygon fill="black" stroke="black" points="716.85,-268.1 725.47,-261.94 714.89,-261.38 716.85,-268.1"/>
<text text-anchor="middle" x="663.4" y="-283.01" font-family="Times,serif" font-size="14.00">Ja</text>
</g>
<!-- Ende -->
<g id="node6" class="node">
<title>Ende</title>
<polygon fill="#7a8da1" stroke="black" points="585.42,-36 519.88,-36 519.88,0 585.42,0 585.42,-36"/>
<text text-anchor="middle" x="552.65" y="-13.32" font-family="Times,serif" font-size="14.00">Ende</text>
</g>
<!-- 3&#45;&gt;Ende -->
<g id="edge7" class="edge">
<title>3-&gt;Ende</title>
<path fill="none" stroke="black" d="M448.09,-208.35C491.85,-196.14 538.94,-177.34 575.65,-148.53 580,-145.11 630.38,-68.43 627.65,-63.62"/>
<path fill="none" stroke="black" d="M627.65,-61.62C620.13,-49.9 608.19,-41.07 596.02,-34.58"/>
<polygon fill="black" stroke="black" points="597.72,-31.52 587.2,-30.32 594.68,-37.82 597.72,-31.52"/>
<text text-anchor="middle" x="621.4" y="-114.22" font-family="Times,serif" font-size="14.00">Ja</text>
</g>
<!-- 4 -->
<g id="node7" class="node">
<title>4</title>
<path fill="#7aab8a" stroke="black" d="M554.55,-148.53C554.55,-148.53 84.75,-148.53 84.75,-148.53 78.75,-148.53 72.75,-142.53 72.75,-136.53 72.75,-136.53 72.75,-101.25 72.75,-101.25 72.75,-95.25 78.75,-89.25 84.75,-89.25 84.75,-89.25 554.55,-89.25 554.55,-89.25 560.55,-89.25 566.55,-95.25 566.55,-101.25 566.55,-101.25 566.55,-136.53 566.55,-136.53 566.55,-142.53 560.55,-148.53 554.55,-148.53"/>
<text text-anchor="start" x="87.15" y="-127.59" font-family="Times,serif" font-weight="bold" font-size="14.00">4: </text>
<text text-anchor="start" x="106.65" y="-127.59" font-family="Times,serif" font-size="14.00">Hat der BKV dem BIKO f&#252;r diesen Bilanzierungsmonat bereits</text>
<text text-anchor="start" x="87.15" y="-113.59" font-family="Times,serif" font-size="14.00">mitgeteilt, dass die weiteren Pr&#252;fungen auf Ebene des BG</text>
<text text-anchor="start" x="87.15" y="-99.59" font-family="Times,serif" font-size="14.00">stattfinden m&#252;ssen?</text>
</g>
<!-- 3&#45;&gt;4 -->
<g id="edge6" class="edge">
<title>3-&gt;4</title>
<path fill="none" stroke="black" d="M319.65,-208.32C319.65,-194.53 319.65,-176.37 319.65,-160.1"/>
<polygon fill="black" stroke="black" points="323.15,-160.18 319.65,-150.18 316.15,-160.18 323.15,-160.18"/>
<text text-anchor="middle" x="336.52" y="-170.48" font-family="Times,serif" font-size="14.00">Nein</text>
</g>
<!-- 4&#45;&gt;Ende -->
<g id="edge9" class="edge">
<title>4-&gt;Ende</title>
<path fill="none" stroke="black" d="M388.3,-88.75C427.3,-72.2 474.96,-51.97 508.9,-37.57"/>
<polygon fill="black" stroke="black" points="510.18,-40.83 518.01,-33.7 507.44,-34.39 510.18,-40.83"/>
<text text-anchor="middle" x="470.4" y="-57.95" font-family="Times,serif" font-size="14.00">Ja</text>
</g>
<!-- A02 -->
<g id="node8" class="node">
<title>A02</title>
<polygon fill="#cfb986" stroke="black" points="426.01,-36 213.28,-36 213.28,0 426.01,0 426.01,-36"/>
<text text-anchor="start" x="225.52" y="-19.6" font-family="Times,serif" text-decoration="underline" font-size="12.00">Hinweis:</text>
<text text-anchor="start" x="225.52" y="-7.6" font-family="Times,serif" font-size="12.00">Falsche Aggregationsebene BG</text>
</g>
<!-- 4&#45;&gt;A02 -->
<g id="edge8" class="edge">
<title>4-&gt;A02</title>
<path fill="none" stroke="black" d="M319.65,-88.75C319.65,-75.89 319.65,-60.8 319.65,-47.96"/>
<polygon fill="black" stroke="black" points="323.15,-47.99 319.65,-37.99 316.15,-47.99 323.15,-47.99"/>
<text text-anchor="middle" x="336.52" y="-57.95" font-family="Times,serif" font-size="14.00">Nein</text>
</g>
<!-- 5&#45;&gt;Ende -->
<g id="edge11" class="edge">
<title>5-&gt;Ende</title>
<path fill="none" stroke="black" d="M756.4,-201.42C729.7,-188.06 700.34,-170.28 677.9,-148.53 646.41,-118.01 651.32,-100.54 627.65,-63.62"/>
<text text-anchor="middle" x="694.52" y="-114.22" font-family="Times,serif" font-size="14.00">Nein</text>
</g>
<!-- A03 -->
<g id="node10" class="node">
<title>A03</title>
<polygon fill="#cfb986" stroke="black" points="932.26,-136.89 721.03,-136.89 721.03,-100.89 932.26,-100.89 932.26,-136.89"/>
<text text-anchor="start" x="733.27" y="-120.49" font-family="Times,serif" text-decoration="underline" font-size="12.00">Hinweis:</text>
<text text-anchor="start" x="733.27" y="-108.49" font-family="Times,serif" font-size="12.00">Falsche Aggregationsebene RZ</text>
</g>
<!-- 5&#45;&gt;A03 -->
<g id="edge10" class="edge">
<title>5-&gt;A03</title>
<path fill="none" stroke="black" d="M826.65,-201.38C826.65,-185.17 826.65,-165.05 826.65,-148.85"/>
<polygon fill="black" stroke="black" points="830.15,-148.88 826.65,-138.88 823.15,-148.88 830.15,-148.88"/>
<text text-anchor="middle" x="833.4" y="-170.48" font-family="Times,serif" font-size="14.00">Ja</text>
</g>
</g>
</svg>
  </g>
</svg>
  </g>
</svg>
