<svg xmlns="http://www.w3.org/2000/svg" xmlns:xlink="http://www.w3.org/1999/xlink" contentStyleType="text/css" data-diagram-type="ACTIVITY" height="445px" preserveAspectRatio="none" style="width:851px;height:445px;background:#FFFFFF;" version="1.1" viewBox="0 0 851 445" width="851px" zoomAndPan="magnify"><title>7.39 AD: Bestellung der Aggregationsebene der Bilanzkreissummenzeitreihe auf Ebene der Regelzone</title><defs/><g><text fill="#888888" font-family="DejaVu Serif Condensed" font-size="10" font-weight="bold" lengthAdjust="spacing" textLength="42.4023" x="796.3369" y="19.2822">FV2210</text><text fill="#888888" font-family="DejaVu Serif Condensed" font-size="10" lengthAdjust="spacing" textLength="58.1152" x="780.624" y="30.9229">2022-12-12</text><text fill="#000000" font-family="DejaVu Serif Condensed" font-size="14" font-weight="bold" lengthAdjust="spacing" textLength="808.7393" x="20" y="57.2764">7.39 AD: Bestellung der Aggregationsebene der Bilanzkreissummenzeitreihe auf Ebene der Regelzone</text><text fill="#000000" font-family="DejaVu Serif Condensed" font-size="14" font-weight="bold" lengthAdjust="spacing" textLength="4.874" x="421.9326" y="73.5732">&#160;</text><text fill="#000000" font-family="DejaVu Serif Condensed" font-size="14" font-weight="bold" lengthAdjust="spacing" textLength="475.166" x="186.7866" y="89.8701">7.39.1 E_0003_Bestellung der Aggregationsebene RZ pr&#252;fen</text><text fill="#000000" font-family="DejaVu Serif Condensed" font-size="14" font-weight="bold" lengthAdjust="spacing" textLength="4.874" x="421.9326" y="106.167">&#160;</text><text fill="#000000" font-family="DejaVu Serif Condensed" font-size="14" font-weight="bold" lengthAdjust="spacing" textLength="4.874" x="421.9326" y="122.4639">&#160;</text><text fill="#000000" font-family="DejaVu Serif Condensed" font-size="14" font-weight="bold" lengthAdjust="spacing" textLength="4.874" x="421.9326" y="138.7607">&#160;</text><path d="M471.2039,161.3906 L471.2039,169.375 L451.2039,173.375 L471.2039,177.375 L471.2039,185.3594 A0,0 0 0 0 471.2039,185.3594 L630.0281,185.3594 A0,0 0 0 0 630.0281,185.3594 L630.0281,171.3906 L620.0281,161.3906 L471.2039,161.3906 A0,0 0 0 0 471.2039,161.3906" fill="#F3F1F6" style="stroke:#F3F1F6;stroke-width:0.5;"/><path d="M620.0281,161.3906 L620.0281,171.3906 L630.0281,171.3906 L620.0281,161.3906" fill="#F3F1F6" style="stroke:#F3F1F6;stroke-width:0.5;"/><text fill="#000000" font-family="DejaVu Serif Condensed" font-size="12" font-style="italic" font-weight="bold" lengthAdjust="spacing" textLength="137.8242" x="477.2039" y="177.5293">Pr&#252;fende Rolle: &#220;NB</text><rect fill="#7A8DA1" height="38.625" rx="12.5" ry="12.5" style="stroke:none;stroke-width:0.5;" width="83.4609" x="367.7429" y="154.0625"/><text fill="#000000" font-family="DejaVu Serif Condensed" font-size="16" font-weight="bold" lengthAdjust="spacing" textLength="63.4609" x="377.7429" y="178.9141">E_0003</text><path d="M225.5164,271.3281 L225.5164,295.2969 A0,0 0 0 0 225.5164,295.2969 L363.821,295.2969 A0,0 0 0 0 363.821,295.2969 L363.821,289.3281 L383.821,283.3125 L363.821,281.3281 L363.821,281.3281 L353.821,271.3281 L225.5164,271.3281 A0,0 0 0 0 225.5164,271.3281" fill="#F3F1F6" style="stroke:#F3F1F6;stroke-width:0.5;"/><path d="M353.821,271.3281 L353.821,281.3281 L363.821,281.3281 L353.821,271.3281" fill="#F3F1F6" style="stroke:#F3F1F6;stroke-width:0.5;"/><text fill="#000000" font-family="DejaVu Serif Condensed" font-size="12" lengthAdjust="spacing" textLength="117.3047" x="231.5164" y="287.4668">Frist&#252;berschreitung</text><rect fill="#7A8DA1" height="38.625" rx="12.5" ry="12.5" style="stroke:none;stroke-width:0.5;" width="51.3047" x="383.821" y="264"/><text fill="#000000" font-family="DejaVu Serif Condensed" font-size="16" lengthAdjust="spacing" textLength="31.3047" x="393.821" y="288.8516">A01</text><polygon fill="#7AAB8A" points="178.4529,212.6875,640.4939,212.6875,652.4939,224.6875,640.4939,236.6875,178.4529,236.6875,166.4529,224.6875,178.4529,212.6875" style="stroke:#7AAB8A;stroke-width:0.5;"/><text fill="#000000" font-family="DejaVu Serif Condensed" font-size="16" lengthAdjust="spacing" textLength="34.5703" x="413.4734" y="251.5391">nein</text><text fill="#000000" font-family="DejaVu Serif Condensed" font-size="18" font-weight="bold" lengthAdjust="spacing" textLength="19.7227" x="178.4529" y="230.9189">1:</text><text fill="#000000" font-family="DejaVu Serif Condensed" font-size="18" lengthAdjust="spacing" textLength="430.3301" x="210.1638" y="230.9189">Erfolgt der Eingang der Bestellung fristgerecht?</text><text fill="#000000" font-family="DejaVu Serif Condensed" font-size="16" lengthAdjust="spacing" textLength="14.25" x="652.4939" y="220.9141">ja</text><path d="M133.5476,403.2656 L133.5476,427.2344 A0,0 0 0 0 133.5476,427.2344 L363.821,427.2344 A0,0 0 0 0 363.821,427.2344 L363.821,421.2656 L383.821,415.25 L363.821,413.2656 L363.821,413.2656 L353.821,403.2656 L133.5476,403.2656 A0,0 0 0 0 133.5476,403.2656" fill="#F3F1F6" style="stroke:#F3F1F6;stroke-width:0.5;"/><path d="M353.821,403.2656 L353.821,413.2656 L363.821,413.2656 L353.821,403.2656" fill="#F3F1F6" style="stroke:#F3F1F6;stroke-width:0.5;"/><text fill="#000000" font-family="DejaVu Serif Condensed" font-size="12" lengthAdjust="spacing" textLength="209.2734" x="139.5476" y="419.4043">Gew&#228;hlter Zeitpunkt nicht zul&#228;ssig</text><rect fill="#7A8DA1" height="38.625" rx="12.5" ry="12.5" style="stroke:none;stroke-width:0.5;" width="51.3047" x="383.821" y="395.9375"/><text fill="#000000" font-family="DejaVu Serif Condensed" font-size="16" lengthAdjust="spacing" textLength="31.3047" x="393.821" y="420.7891">A02</text><polygon fill="#7AAB8A" points="158.0051,344.625,660.9417,344.625,672.9417,356.625,660.9417,368.625,158.0051,368.625,146.0051,356.625,158.0051,344.625" style="stroke:#7AAB8A;stroke-width:0.5;"/><text fill="#000000" font-family="DejaVu Serif Condensed" font-size="16" lengthAdjust="spacing" textLength="34.5703" x="413.4734" y="383.4766">nein</text><text fill="#000000" font-family="DejaVu Serif Condensed" font-size="18" font-weight="bold" lengthAdjust="spacing" textLength="19.7227" x="158.0051" y="362.8564">2:</text><text fill="#000000" font-family="DejaVu Serif Condensed" font-size="18" lengthAdjust="spacing" textLength="471.2256" x="189.7161" y="362.8564">Erfolgt die Bestellung zum Monatsersten 00:00 Uhr?</text><text fill="#000000" font-family="DejaVu Serif Condensed" font-size="16" lengthAdjust="spacing" textLength="14.25" x="672.9417" y="352.8516">ja</text><ellipse cx="707.1917" cy="356.625" fill="none" rx="10" ry="10" style="stroke:#669580;stroke-width:1.5;"/><line style="stroke:#669580;stroke-width:2.5;" x1="701.0045" x2="713.3788" y1="350.4378" y2="362.8122"/><line style="stroke:#669580;stroke-width:2.5;" x1="713.3788" x2="701.0045" y1="350.4378" y2="362.8122"/><line style="stroke:#7AAB8A;stroke-width:1;" x1="409.4734" x2="409.4734" y1="236.6875" y2="264"/><polygon fill="#7AAB8A" points="405.4734,254,409.4734,264,413.4734,254,409.4734,258" style="stroke:#7AAB8A;stroke-width:1;"/><line style="stroke:#7AAB8A;stroke-width:1;" x1="652.4939" x2="664.4939" y1="224.6875" y2="224.6875"/><polygon fill="#7AAB8A" points="660.4939,270.3125,664.4939,280.3125,668.4939,270.3125,664.4939,274.3125" style="stroke:#7AAB8A;stroke-width:1;"/><line style="stroke:#7AAB8A;stroke-width:1;" x1="664.4939" x2="664.4939" y1="224.6875" y2="324.625"/><line style="stroke:#7AAB8A;stroke-width:1;" x1="664.4939" x2="409.4734" y1="324.625" y2="324.625"/><line style="stroke:#7AAB8A;stroke-width:1;" x1="409.4734" x2="409.4734" y1="324.625" y2="344.625"/><polygon fill="#7AAB8A" points="405.4734,334.625,409.4734,344.625,413.4734,334.625,409.4734,338.625" style="stroke:#7AAB8A;stroke-width:1;"/><line style="stroke:#7AAB8A;stroke-width:1;" x1="409.4734" x2="409.4734" y1="192.6875" y2="212.6875"/><polygon fill="#7AAB8A" points="405.4734,202.6875,409.4734,212.6875,413.4734,202.6875,409.4734,206.6875" style="stroke:#7AAB8A;stroke-width:1;"/><line style="stroke:#7AAB8A;stroke-width:1;" x1="409.4734" x2="409.4734" y1="368.625" y2="395.9375"/><polygon fill="#7AAB8A" points="405.4734,385.9375,409.4734,395.9375,413.4734,385.9375,409.4734,389.9375" style="stroke:#7AAB8A;stroke-width:1;"/><line style="stroke:#7AAB8A;stroke-width:1;" x1="672.9417" x2="697.1917" y1="356.625" y2="356.625"/><polygon fill="#7AAB8A" points="687.1917,352.625,697.1917,356.625,687.1917,360.625,691.1917,356.625" style="stroke:#7AAB8A;stroke-width:1;"/><!--SRC=[XPF1Rk8m48RlVegHzWA7xIP1Isb0L51WJukgeksXbygGSUBYsCXs5YtFiiS-Hc-ys4u2IzE8jbOEIUQV__yyYTrQwWstF8T5nXEpbJe5mPL3vawLkV4uDZP1UsEKiV15T4Gekaq5NwrJQmgTVAIQ6UqNSeSGHhNAQENbR-d_r5EqqNXEqeovvBs4XsUKhr5rY96rPdjgvSiURnRVwJkwJYJFZKxEO3Iz6Wtr0NucVaNerKG92bueNnRdF4UOu1E_Bs21LWgueJRK3fCphjCJPRTxzRqNC9OX9nesM0vdzr4K1YmAekXhM5uCTN8iCo-zGdPvqRc2qII6CJgFIXNqZr0PHcbgCULU6ifTeiRgxLWghdThYzAv8izHxr1wUieGU25WUXBUOOfgLtxbAk4YXEbZ40ITnqzZxXvWO_Sl0ZMZHRnm08rfFmUFmRVbiCyq_N1WPPhvSgS3ERmzT2LaOPJ26FP_v-FAe9GoHdDiaJACeJI0gHL6fRwYcDB9u4UY6g2mqlaKBQuoVzq6dw66rXDlCwGp12sDKhSPq8f7GTYlxYegXS9NJ-MQbIRxboLQjyfeL9wSgoAHLM3b_LegrIzPfVZF6JKv9TRPTaKEFutctf6n9x0WY8C0VcNs3Uanw1nnz1xn3zpkdpFbQHWFnBifzDg3bZG4IbNxP-Vanplu1m00]--></g></svg>