<?xml version='1.0' encoding='ASCII' standalone='yes'?>
<svg xmlns="http://www.w3.org/2000/svg" xmlns:xlink="http://www.w3.org/1999/xlink" version="1.1" width="1406.6666666666667px" viewBox="0 0 1406.6666666666667 2904.0" height="2904.0px">
  <g>
    <svg width="1055pt" height="2178pt" viewBox="0.00 0.00 1054.50 2178.28">
<polygon fill="#f3f1f6" points="0,0 1406.6666666666667,0 1406.6666666666667,2904.0 0,2904.0"/><!--curl - -request POST - -url https://kroki.io/ via local kroki docker container instance hosted at http://localhost:8125/- -header 'Content-Type: application/json' - -data 'digraph D {
    labelloc="t";
    label=<<B><FONT POINT-SIZE="18">7.39 AD: Bestellung der Aggregationsebene der Bilanzkreissummenzeitreihe auf Ebene der Regelzone</FONT></B><BR/><BR/><B><FONT POINT-SIZE="16">7.39.1 E_0003_Bestellung der Aggregationsebene RZ pr&#252;fen</FONT></B><BR/><BR/><BR/><BR/>>;
    ratio=3.0;
    "Start" [margin="0.2,0.12", shape=box, style=filled, fillcolor="#7a8da1", label=<<B>E_0003</B><BR align="center"/><FONT point-size="12"><B><U>Pr&#252;fende Rolle:</U> &#220;NB</B></FONT><BR align="center"/>>];
    "1" [margin="0.2,0.12", shape=box, style="filled,rounded", fillcolor="#7aab8a", label=<<B>1: </B>Erfolgt der Eingang der Bestellung fristgerecht?<BR align="left"/>>];
    "A01" [margin="0.17,0.08", shape=box, style=filled, fillcolor="#cfb986", label=<<B>A01</B><BR align="center"/><FONT point-size="12"><U>Hinweis:</U><BR align="left"/>Frist&#252;berschreitung<BR align="left"/></FONT>>];
    "2" [margin="0.2,0.12", shape=box, style="filled,rounded", fillcolor="#7aab8a", label=<<B>2: </B>Erfolgt die Bestellung zum Monatsersten 00:00 Uhr?<BR align="left"/>>];
    "A02" [margin="0.17,0.08", shape=box, style=filled, fillcolor="#cfb986", label=<<B>A02</B><BR align="center"/><FONT point-size="12"><U>Hinweis:</U><BR align="left"/>Gew&#228;hlter Zeitpunkt nicht zul&#228;ssig<BR align="left"/></FONT>>];
    "Ende" [margin="0.2,0.12", shape=box, style=filled, fillcolor="#7a8da1", label="Ende"];

    "Start" -> "1";
    "1" -> "A01" [label="Nein"];
    "1" -> "2" [label="Ja"];
    "2" -> "A02" [label="Nein"];
    "2" -> "Ende" [label="Ja"];

    bgcolor="transparent";
}'--><g id="graph0" class="graph" transform="scale(1 1) rotate(0) translate(4 2174.28)">
<title>D</title>
<text text-anchor="start" x="8" y="-2150.18" font-family="Times,serif" font-weight="bold" font-size="18.00">7.39 AD: Bestellung der Aggregationsebene der Bilanzkreissummenzeitreihe auf Ebene der Regelzone</text>
<text text-anchor="start" x="250.62" y="-2120.08" font-family="Times,serif" font-weight="bold" font-size="16.00">7.39.1 E_0003_Bestellung der Aggregationsebene RZ pr&#252;fen</text>
<!-- Start -->
<g id="node1" class="node">
<title>Start</title>
<polygon fill="#7a8da1" stroke="black" points="462.15,-1954.64 291.6,-1954.64 291.6,-1911.36 462.15,-1911.36 462.15,-1954.64"/>
<text text-anchor="start" x="348.75" y="-1933.7" font-family="Times,serif" font-weight="bold" font-size="14.00">E_0003</text>
<text text-anchor="start" x="306" y="-1921.6" font-family="Times,serif" font-weight="bold" text-decoration="underline" font-size="12.00">Pr&#252;fende Rolle:</text>
<text text-anchor="start" x="411" y="-1921.6" font-family="Times,serif" font-weight="bold" font-size="12.00"> &#220;NB</text>
</g>
<!-- 1 -->
<g id="node2" class="node">
<title>1</title>
<path fill="#7aab8a" stroke="black" d="M563.4,-1457C563.4,-1457 190.35,-1457 190.35,-1457 184.35,-1457 178.35,-1451 178.35,-1445 178.35,-1445 178.35,-1433 178.35,-1433 178.35,-1427 184.35,-1421 190.35,-1421 190.35,-1421 563.4,-1421 563.4,-1421 569.4,-1421 575.4,-1427 575.4,-1433 575.4,-1433 575.4,-1445 575.4,-1445 575.4,-1451 569.4,-1457 563.4,-1457"/>
<text text-anchor="start" x="192.75" y="-1435.33" font-family="Times,serif" font-weight="bold" font-size="14.00">1: </text>
<text text-anchor="start" x="212.25" y="-1435.33" font-family="Times,serif" font-size="14.00">Erfolgt der Eingang der Bestellung fristgerecht?</text>
</g>
<!-- Start&#45;&gt;1 -->
<g id="edge1" class="edge">
<title>Start-&gt;1</title>
<path fill="none" stroke="black" d="M376.88,-1911.17C376.88,-1833.26 376.88,-1558.86 376.88,-1468.84"/>
<polygon fill="black" stroke="black" points="380.38,-1468.92 376.88,-1458.92 373.38,-1468.92 380.38,-1468.92"/>
</g>
<!-- A01 -->
<g id="node3" class="node">
<title>A01</title>
<polygon fill="#cfb986" stroke="black" points="421.12,-845.76 276.63,-845.76 276.63,-796.24 421.12,-796.24 421.12,-845.76"/>
<text text-anchor="start" x="333.88" y="-827.7" font-family="Times,serif" font-weight="bold" font-size="14.00">A01</text>
<text text-anchor="start" x="288.88" y="-815.6" font-family="Times,serif" text-decoration="underline" font-size="12.00">Hinweis:</text>
<text text-anchor="start" x="288.88" y="-803.6" font-family="Times,serif" font-size="12.00">Frist&#252;berschreitung</text>
</g>
<!-- 1&#45;&gt;A01 -->
<g id="edge2" class="edge">
<title>1-&gt;A01</title>
<path fill="none" stroke="black" d="M376.08,-1420.56C372.26,-1336.5 355.72,-972.58 350.48,-857.22"/>
<polygon fill="black" stroke="black" points="353.98,-857.27 350.03,-847.44 346.99,-857.59 353.98,-857.27"/>
<text text-anchor="middle" x="380.75" y="-1147.33" font-family="Times,serif" font-size="14.00">Nein</text>
</g>
<!-- 2 -->
<g id="node4" class="node">
<title>2</title>
<path fill="#7aab8a" stroke="black" d="M856.15,-839C856.15,-839 451.6,-839 451.6,-839 445.6,-839 439.6,-833 439.6,-827 439.6,-827 439.6,-815 439.6,-815 439.6,-809 445.6,-803 451.6,-803 451.6,-803 856.15,-803 856.15,-803 862.15,-803 868.15,-809 868.15,-815 868.15,-815 868.15,-827 868.15,-827 868.15,-833 862.15,-839 856.15,-839"/>
<text text-anchor="start" x="454" y="-817.33" font-family="Times,serif" font-weight="bold" font-size="14.00">2: </text>
<text text-anchor="start" x="473.5" y="-817.33" font-family="Times,serif" font-size="14.00">Erfolgt die Bestellung zum Monatsersten 00:00 Uhr?</text>
</g>
<!-- 1&#45;&gt;2 -->
<g id="edge3" class="edge">
<title>1-&gt;2</title>
<path fill="none" stroke="black" d="M384.72,-1420.56C423.37,-1334.6 593.62,-956 641.38,-849.79"/>
<polygon fill="black" stroke="black" points="644.57,-851.23 645.48,-840.67 638.19,-848.36 644.57,-851.23"/>
<text text-anchor="middle" x="514.62" y="-1147.33" font-family="Times,serif" font-size="14.00">Ja</text>
</g>
<!-- A02 -->
<g id="node5" class="node">
<title>A02</title>
<polygon fill="#cfb986" stroke="black" points="687.12,-183.76 452.63,-183.76 452.63,-134.24 687.12,-134.24 687.12,-183.76"/>
<text text-anchor="start" x="554.88" y="-165.7" font-family="Times,serif" font-weight="bold" font-size="14.00">A02</text>
<text text-anchor="start" x="464.88" y="-153.6" font-family="Times,serif" text-decoration="underline" font-size="12.00">Hinweis:</text>
<text text-anchor="start" x="464.88" y="-141.6" font-family="Times,serif" font-size="12.00">Gew&#228;hlter Zeitpunkt nicht zul&#228;ssig</text>
</g>
<!-- 2&#45;&gt;A02 -->
<g id="edge4" class="edge">
<title>2-&gt;A02</title>
<path fill="none" stroke="black" d="M651.67,-802.69C640.47,-714.7 589.81,-316.6 574.36,-195.23"/>
<polygon fill="black" stroke="black" points="577.86,-195.03 573.13,-185.55 570.92,-195.91 577.86,-195.03"/>
<text text-anchor="middle" x="628.75" y="-485.32" font-family="Times,serif" font-size="14.00">Nein</text>
</g>
<!-- Ende -->
<g id="node6" class="node">
<title>Ende</title>
<polygon fill="#7a8da1" stroke="black" points="770.65,-177 705.1,-177 705.1,-141 770.65,-141 770.65,-177"/>
<text text-anchor="middle" x="737.88" y="-154.32" font-family="Times,serif" font-size="14.00">Ende</text>
</g>
<!-- 2&#45;&gt;Ende -->
<g id="edge5" class="edge">
<title>2-&gt;Ende</title>
<path fill="none" stroke="black" d="M656.08,-802.69C667.49,-713.01 719.91,-301.13 734.24,-188.53"/>
<polygon fill="black" stroke="black" points="737.67,-189.3 735.46,-178.94 730.73,-188.42 737.67,-189.3"/>
<text text-anchor="middle" x="702.62" y="-485.32" font-family="Times,serif" font-size="14.00">Ja</text>
</g>
</g>
</svg>
  </g>
</svg>
