<?xml version="1.0" encoding="UTF-8" standalone="no"?>
<!DOCTYPE svg PUBLIC "-//W3C//DTD SVG 1.1//EN"
 "http://www.w3.org/Graphics/SVG/1.1/DTD/svg11.dtd">
<!-- Generated by graphviz version 3.0.0 (20221109.1736)
 -->
<!-- Title: D Pages: 1 -->
<svg width="3209pt" height="1315pt"
 viewBox="0.00 0.00 3208.50 1315.00" xmlns="http://www.w3.org/2000/svg" xmlns:xlink="http://www.w3.org/1999/xlink">
<g id="graph0" class="graph" transform="scale(1 1) rotate(0) translate(4 1311)">
<title>D</title>
<polygon fill="white" stroke="transparent" points="-4,4 -4,-1311 3204.5,-1311 3204.5,4 -4,4"/>
<!-- Start -->
<g id="node1" class="node">
<title>Start</title>
<polygon fill="#7a8da1" stroke="black" points="352,-1307 177,-1307 177,-1263 352,-1263 352,-1307"/>
<text text-anchor="start" x="236" y="-1287.8" font-family="Times,serif" font-weight="bold" font-size="14.00">E_0015</text>
<text text-anchor="start" x="191" y="-1275.4" font-family="Times,serif" font-weight="bold" text-decoration="underline" font-size="12.00">Prüfende Rolle:</text>
<text text-anchor="start" x="297" y="-1275.4" font-family="Times,serif" font-weight="bold" font-size="12.00"> BIKO</text>
</g>
<!-- 1 -->
<g id="node2" class="node">
<title>1</title>
<path fill="#7aab8a" stroke="black" d="M517,-1226C517,-1226 12,-1226 12,-1226 6,-1226 0,-1220 0,-1214 0,-1214 0,-1202 0,-1202 0,-1196 6,-1190 12,-1190 12,-1190 517,-1190 517,-1190 523,-1190 529,-1196 529,-1202 529,-1202 529,-1214 529,-1214 529,-1220 523,-1226 517,-1226"/>
<text text-anchor="start" x="14" y="-1205.3" font-family="Times,serif" font-weight="bold" font-size="14.00">1: </text>
<text text-anchor="start" x="34" y="-1205.3" font-family="Times,serif" font-size="14.00">Erfolgt die Aktivierung nach Ablauf der Clearingfrist für die KBKA?</text>
</g>
<!-- Start&#45;&gt;1 -->
<g id="edge1" class="edge">
<title>Start&#45;&gt;1</title>
<path fill="none" stroke="black" d="M264.5,-1262.71C264.5,-1254.46 264.5,-1244.91 264.5,-1236.17"/>
<polygon fill="black" stroke="black" points="268,-1236.06 264.5,-1226.06 261,-1236.06 268,-1236.06"/>
</g>
<!-- A01 -->
<g id="node3" class="node">
<title>A01</title>
<polygon fill="#cca9ab" stroke="black" points="321,-1139 172,-1139 172,-1071 321,-1071 321,-1139"/>
<text text-anchor="start" x="231" y="-1119.8" font-family="Times,serif" font-weight="bold" font-size="14.00">A01</text>
<text text-anchor="start" x="186" y="-1107.4" font-family="Times,serif" text-decoration="underline" font-size="12.00">Hinweis:</text>
<text text-anchor="start" x="186" y="-1095.4" font-family="Times,serif" font-size="12.00">Cluster Ablehnung</text>
<text text-anchor="start" x="186" y="-1083.4" font-family="Times,serif" font-size="12.00">Fristüberschreitung</text>
</g>
<!-- 1&#45;&gt;A01 -->
<g id="edge2" class="edge">
<title>1&#45;&gt;A01</title>
<path fill="none" stroke="black" d="M261.45,-1189.87C259.46,-1178.73 256.78,-1163.66 254.23,-1149.38"/>
<polygon fill="black" stroke="black" points="257.61,-1148.41 252.41,-1139.18 250.72,-1149.64 257.61,-1148.41"/>
<text text-anchor="middle" x="265.5" y="-1160.8" font-family="Times,serif" font-size="14.00">Ja</text>
</g>
<!-- 2 -->
<g id="node4" class="node">
<title>2</title>
<path fill="#7aab8a" stroke="black" d="M763.5,-1123C763.5,-1123 351.5,-1123 351.5,-1123 345.5,-1123 339.5,-1117 339.5,-1111 339.5,-1111 339.5,-1099 339.5,-1099 339.5,-1093 345.5,-1087 351.5,-1087 351.5,-1087 763.5,-1087 763.5,-1087 769.5,-1087 775.5,-1093 775.5,-1099 775.5,-1099 775.5,-1111 775.5,-1111 775.5,-1117 769.5,-1123 763.5,-1123"/>
<text text-anchor="start" x="353.5" y="-1102.3" font-family="Times,serif" font-weight="bold" font-size="14.00">2: </text>
<text text-anchor="start" x="373.5" y="-1102.3" font-family="Times,serif" font-size="14.00">Erfolgt die Aktivierung zum Monatsersten 00:00 Uhr?</text>
</g>
<!-- 1&#45;&gt;2 -->
<g id="edge3" class="edge">
<title>1&#45;&gt;2</title>
<path fill="none" stroke="black" d="M313.87,-1189.98C364.8,-1172.43 444.22,-1145.05 498.44,-1126.36"/>
<polygon fill="black" stroke="black" points="499.61,-1129.66 507.93,-1123.09 497.33,-1123.04 499.61,-1129.66"/>
<text text-anchor="middle" x="419.5" y="-1160.8" font-family="Times,serif" font-size="14.00">Nein</text>
</g>
<!-- A02 -->
<g id="node5" class="node">
<title>A02</title>
<polygon fill="#cca9ab" stroke="black" points="589,-1020 350,-1020 350,-952 589,-952 589,-1020"/>
<text text-anchor="start" x="454" y="-1000.8" font-family="Times,serif" font-weight="bold" font-size="14.00">A02</text>
<text text-anchor="start" x="364" y="-988.4" font-family="Times,serif" text-decoration="underline" font-size="12.00">Hinweis:</text>
<text text-anchor="start" x="364" y="-976.4" font-family="Times,serif" font-size="12.00">Cluster Ablehnung</text>
<text text-anchor="start" x="364" y="-964.4" font-family="Times,serif" font-size="12.00">Gewählter Zeitpunkt nicht zulässig</text>
</g>
<!-- 2&#45;&gt;A02 -->
<g id="edge4" class="edge">
<title>2&#45;&gt;A02</title>
<path fill="none" stroke="black" d="M544.7,-1086.99C533.22,-1071.72 515.91,-1048.7 500.78,-1028.59"/>
<polygon fill="black" stroke="black" points="503.48,-1026.36 494.68,-1020.47 497.89,-1030.57 503.48,-1026.36"/>
<text text-anchor="middle" x="536.5" y="-1041.8" font-family="Times,serif" font-size="14.00">Nein</text>
</g>
<!-- 3 -->
<g id="node6" class="node">
<title>3</title>
<path fill="#7aab8a" stroke="black" d="M909.5,-1004C909.5,-1004 619.5,-1004 619.5,-1004 613.5,-1004 607.5,-998 607.5,-992 607.5,-992 607.5,-980 607.5,-980 607.5,-974 613.5,-968 619.5,-968 619.5,-968 909.5,-968 909.5,-968 915.5,-968 921.5,-974 921.5,-980 921.5,-980 921.5,-992 921.5,-992 921.5,-998 915.5,-1004 909.5,-1004"/>
<text text-anchor="start" x="621.5" y="-983.3" font-family="Times,serif" font-weight="bold" font-size="14.00">3: </text>
<text text-anchor="start" x="641.5" y="-983.3" font-family="Times,serif" font-size="14.00">Ist die richtige Regelzone angegeben</text>
</g>
<!-- 2&#45;&gt;3 -->
<g id="edge5" class="edge">
<title>2&#45;&gt;3</title>
<path fill="none" stroke="black" d="M587.6,-1086.99C624.01,-1066.41 685.39,-1031.72 725.42,-1009.09"/>
<polygon fill="black" stroke="black" points="727.38,-1012 734.36,-1004.03 723.94,-1005.91 727.38,-1012"/>
<text text-anchor="middle" x="680.5" y="-1041.8" font-family="Times,serif" font-size="14.00">Ja</text>
</g>
<!-- A03 -->
<g id="node7" class="node">
<title>A03</title>
<polygon fill="#cca9ab" stroke="black" points="714.5,-901 574.5,-901 574.5,-833 714.5,-833 714.5,-901"/>
<text text-anchor="start" x="629" y="-881.8" font-family="Times,serif" font-weight="bold" font-size="14.00">A03</text>
<text text-anchor="start" x="588.5" y="-869.4" font-family="Times,serif" text-decoration="underline" font-size="12.00">Hinweis:</text>
<text text-anchor="start" x="588.5" y="-857.4" font-family="Times,serif" font-size="12.00">Cluster Ablehnung</text>
<text text-anchor="start" x="588.5" y="-845.4" font-family="Times,serif" font-size="12.00">Regelzone falsch</text>
</g>
<!-- 3&#45;&gt;A03 -->
<g id="edge6" class="edge">
<title>3&#45;&gt;A03</title>
<path fill="none" stroke="black" d="M747.05,-967.99C731.12,-952.45 706.94,-928.88 686.06,-908.52"/>
<polygon fill="black" stroke="black" points="688.43,-905.95 678.83,-901.47 683.55,-910.96 688.43,-905.95"/>
<text text-anchor="middle" x="729.5" y="-922.8" font-family="Times,serif" font-size="14.00">Nein</text>
</g>
<!-- 4 -->
<g id="node8" class="node">
<title>4</title>
<path fill="#7aab8a" stroke="black" d="M1392.5,-885C1392.5,-885 744.5,-885 744.5,-885 738.5,-885 732.5,-879 732.5,-873 732.5,-873 732.5,-861 732.5,-861 732.5,-855 738.5,-849 744.5,-849 744.5,-849 1392.5,-849 1392.5,-849 1398.5,-849 1404.5,-855 1404.5,-861 1404.5,-861 1404.5,-873 1404.5,-873 1404.5,-879 1398.5,-885 1392.5,-885"/>
<text text-anchor="start" x="746.5" y="-864.3" font-family="Times,serif" font-weight="bold" font-size="14.00">4: </text>
<text text-anchor="start" x="766.5" y="-864.3" font-family="Times,serif" font-size="14.00">Ist das Bilanzierungsgebiet zum Aktivierungsbeginn in der Regelzone des BIKO gültig?</text>
</g>
<!-- 3&#45;&gt;4 -->
<g id="edge7" class="edge">
<title>3&#45;&gt;4</title>
<path fill="none" stroke="black" d="M808.7,-967.99C863.3,-946.97 956.13,-911.25 1014.78,-888.68"/>
<polygon fill="black" stroke="black" points="1016.17,-891.89 1024.24,-885.03 1013.65,-885.36 1016.17,-891.89"/>
<text text-anchor="middle" x="942.5" y="-922.8" font-family="Times,serif" font-size="14.00">Ja</text>
</g>
<!-- A04 -->
<g id="node9" class="node">
<title>A04</title>
<polygon fill="#cca9ab" stroke="black" points="1057.5,-782 837.5,-782 837.5,-714 1057.5,-714 1057.5,-782"/>
<text text-anchor="start" x="932" y="-762.8" font-family="Times,serif" font-weight="bold" font-size="14.00">A04</text>
<text text-anchor="start" x="851.5" y="-750.4" font-family="Times,serif" text-decoration="underline" font-size="12.00">Hinweis:</text>
<text text-anchor="start" x="851.5" y="-738.4" font-family="Times,serif" font-size="12.00">Cluster Ablehnung</text>
<text text-anchor="start" x="851.5" y="-726.4" font-family="Times,serif" font-size="12.00">Bilanzierungsgebiet nicht gültig</text>
</g>
<!-- 4&#45;&gt;A04 -->
<g id="edge8" class="edge">
<title>4&#45;&gt;A04</title>
<path fill="none" stroke="black" d="M1050.91,-848.99C1034.84,-833.45 1010.46,-809.88 989.41,-789.52"/>
<polygon fill="black" stroke="black" points="991.74,-786.91 982.12,-782.47 986.87,-791.94 991.74,-786.91"/>
<text text-anchor="middle" x="1032.5" y="-803.8" font-family="Times,serif" font-size="14.00">Nein</text>
</g>
<!-- 5 -->
<g id="node10" class="node">
<title>5</title>
<path fill="#7aab8a" stroke="black" d="M1661.5,-766C1661.5,-766 1087.5,-766 1087.5,-766 1081.5,-766 1075.5,-760 1075.5,-754 1075.5,-754 1075.5,-742 1075.5,-742 1075.5,-736 1081.5,-730 1087.5,-730 1087.5,-730 1661.5,-730 1661.5,-730 1667.5,-730 1673.5,-736 1673.5,-742 1673.5,-742 1673.5,-754 1673.5,-754 1673.5,-760 1667.5,-766 1661.5,-766"/>
<text text-anchor="start" x="1089.5" y="-745.3" font-family="Times,serif" font-weight="bold" font-size="14.00">5: </text>
<text text-anchor="start" x="1109.5" y="-745.3" font-family="Times,serif" font-size="14.00">Ist der ÜNB zum Aktivierungsbeginn für das Bilanzierungsgebiet zuständig?</text>
</g>
<!-- 4&#45;&gt;5 -->
<g id="edge9" class="edge">
<title>4&#45;&gt;5</title>
<path fill="none" stroke="black" d="M1113,-848.99C1167.95,-827.97 1261.39,-792.25 1320.42,-769.68"/>
<polygon fill="black" stroke="black" points="1321.86,-772.87 1329.95,-766.03 1319.36,-766.34 1321.86,-772.87"/>
<text text-anchor="middle" x="1247.5" y="-803.8" font-family="Times,serif" font-size="14.00">Ja</text>
</g>
<!-- A05 -->
<g id="node11" class="node">
<title>A05</title>
<polygon fill="#cca9ab" stroke="black" points="1343,-663 1196,-663 1196,-595 1343,-595 1343,-663"/>
<text text-anchor="start" x="1254" y="-643.8" font-family="Times,serif" font-weight="bold" font-size="14.00">A05</text>
<text text-anchor="start" x="1210" y="-631.4" font-family="Times,serif" text-decoration="underline" font-size="12.00">Hinweis:</text>
<text text-anchor="start" x="1210" y="-619.4" font-family="Times,serif" font-size="12.00">Cluster Ablehnung</text>
<text text-anchor="start" x="1210" y="-607.4" font-family="Times,serif" font-size="12.00">Keine Berechtigung</text>
</g>
<!-- 5&#45;&gt;A05 -->
<g id="edge10" class="edge">
<title>5&#45;&gt;A05</title>
<path fill="none" stroke="black" d="M1359.23,-729.99C1345.41,-714.59 1324.5,-691.29 1306.34,-671.05"/>
<polygon fill="black" stroke="black" points="1308.82,-668.58 1299.54,-663.47 1303.61,-673.25 1308.82,-668.58"/>
<text text-anchor="middle" x="1345.5" y="-684.8" font-family="Times,serif" font-size="14.00">Nein</text>
</g>
<!-- 6 -->
<g id="node12" class="node">
<title>6</title>
<path fill="#7aab8a" stroke="black" d="M1896,-647C1896,-647 1373,-647 1373,-647 1367,-647 1361,-641 1361,-635 1361,-635 1361,-623 1361,-623 1361,-617 1367,-611 1373,-611 1373,-611 1896,-611 1896,-611 1902,-611 1908,-617 1908,-623 1908,-623 1908,-635 1908,-635 1908,-641 1902,-647 1896,-647"/>
<text text-anchor="start" x="1375" y="-626.3" font-family="Times,serif" font-weight="bold" font-size="14.00">6: </text>
<text text-anchor="start" x="1395" y="-626.3" font-family="Times,serif" font-size="14.00">Existiert bereits ein abweichendes Tupel unter der ID des MaBiS&#45;ZP?</text>
</g>
<!-- 5&#45;&gt;6 -->
<g id="edge11" class="edge">
<title>5&#45;&gt;6</title>
<path fill="none" stroke="black" d="M1412.31,-729.99C1458.62,-709.15 1537.08,-673.84 1587.31,-651.24"/>
<polygon fill="black" stroke="black" points="1588.97,-654.33 1596.65,-647.03 1586.09,-647.95 1588.97,-654.33"/>
<text text-anchor="middle" x="1527.5" y="-684.8" font-family="Times,serif" font-size="14.00">Ja</text>
</g>
<!-- A06 -->
<g id="node13" class="node">
<title>A06</title>
<polygon fill="#cca9ab" stroke="black" points="1581,-544 1288,-544 1288,-476 1581,-476 1581,-544"/>
<text text-anchor="start" x="1419" y="-524.8" font-family="Times,serif" font-weight="bold" font-size="14.00">A06</text>
<text text-anchor="start" x="1302" y="-512.4" font-family="Times,serif" text-decoration="underline" font-size="12.00">Hinweis:</text>
<text text-anchor="start" x="1302" y="-500.4" font-family="Times,serif" font-size="12.00">Cluster Ablehnung</text>
<text text-anchor="start" x="1302" y="-488.4" font-family="Times,serif" font-size="12.00">Abweichender MaBiS&#45;ZP bereits vorhanden</text>
</g>
<!-- 6&#45;&gt;A06 -->
<g id="edge12" class="edge">
<title>6&#45;&gt;A06</title>
<path fill="none" stroke="black" d="M1605.42,-610.99C1577.95,-594.92 1535.78,-570.25 1500.2,-549.44"/>
<polygon fill="black" stroke="black" points="1501.71,-546.26 1491.31,-544.23 1498.18,-552.31 1501.71,-546.26"/>
<text text-anchor="middle" x="1553.5" y="-565.8" font-family="Times,serif" font-size="14.00">Ja</text>
</g>
<!-- 7 -->
<g id="node14" class="node">
<title>7</title>
<path fill="#7aab8a" stroke="black" d="M2789.5,-528C2789.5,-528 1611.5,-528 1611.5,-528 1605.5,-528 1599.5,-522 1599.5,-516 1599.5,-516 1599.5,-504 1599.5,-504 1599.5,-498 1605.5,-492 1611.5,-492 1611.5,-492 2789.5,-492 2789.5,-492 2795.5,-492 2801.5,-498 2801.5,-504 2801.5,-504 2801.5,-516 2801.5,-516 2801.5,-522 2795.5,-528 2789.5,-528"/>
<text text-anchor="start" x="1613.5" y="-507.3" font-family="Times,serif" font-weight="bold" font-size="14.00">7: </text>
<text text-anchor="start" x="1633.5" y="-507.3" font-family="Times,serif" font-size="14.00">Existiert bereits für das genannte Tupel aus Aggregations&#45;verantwortlicher, Bilanzierungsgebiet, Spannungsebene und ZRT eine abweichende ID des MaBiS&#45;ZP?</text>
</g>
<!-- 6&#45;&gt;7 -->
<g id="edge13" class="edge">
<title>6&#45;&gt;7</title>
<path fill="none" stroke="black" d="M1716.8,-610.99C1820.86,-589.48 1999.51,-552.55 2108.14,-530.09"/>
<polygon fill="black" stroke="black" points="2109.01,-533.49 2118.1,-528.03 2107.6,-526.63 2109.01,-533.49"/>
<text text-anchor="middle" x="1968.5" y="-565.8" font-family="Times,serif" font-size="14.00">Nein</text>
</g>
<!-- A07 -->
<g id="node15" class="node">
<title>A07</title>
<polygon fill="#cca9ab" stroke="black" points="2262.5,-425 1928.5,-425 1928.5,-357 2262.5,-357 2262.5,-425"/>
<text text-anchor="start" x="2080" y="-405.8" font-family="Times,serif" font-weight="bold" font-size="14.00">A07</text>
<text text-anchor="start" x="1942.5" y="-393.4" font-family="Times,serif" text-decoration="underline" font-size="12.00">Hinweis:</text>
<text text-anchor="start" x="1942.5" y="-381.4" font-family="Times,serif" font-size="12.00">Cluster Ablehnung</text>
<text text-anchor="start" x="1942.5" y="-369.4" font-family="Times,serif" font-size="12.00">Abweichende ID zum MaBiS&#45;ZP bereits vorhanden</text>
</g>
<!-- 7&#45;&gt;A07 -->
<g id="edge14" class="edge">
<title>7&#45;&gt;A07</title>
<path fill="none" stroke="black" d="M2185.23,-491.99C2171.41,-476.59 2150.5,-453.29 2132.34,-433.05"/>
<polygon fill="black" stroke="black" points="2134.82,-430.58 2125.54,-425.47 2129.61,-435.25 2134.82,-430.58"/>
<text text-anchor="middle" x="2161.5" y="-446.8" font-family="Times,serif" font-size="14.00">Ja</text>
</g>
<!-- 8 -->
<g id="node16" class="node">
<title>8</title>
<path fill="#7aab8a" stroke="black" d="M2668.5,-409C2668.5,-409 2292.5,-409 2292.5,-409 2286.5,-409 2280.5,-403 2280.5,-397 2280.5,-397 2280.5,-385 2280.5,-385 2280.5,-379 2286.5,-373 2292.5,-373 2292.5,-373 2668.5,-373 2668.5,-373 2674.5,-373 2680.5,-379 2680.5,-385 2680.5,-385 2680.5,-397 2680.5,-397 2680.5,-403 2674.5,-409 2668.5,-409"/>
<text text-anchor="start" x="2294.5" y="-388.3" font-family="Times,serif" font-weight="bold" font-size="14.00">8: </text>
<text text-anchor="start" x="2314.5" y="-388.3" font-family="Times,serif" font-size="14.00">Ist der ÜNB zur Aktivierung des ZRT berechtigt?</text>
</g>
<!-- 7&#45;&gt;8 -->
<g id="edge15" class="edge">
<title>7&#45;&gt;8</title>
<path fill="none" stroke="black" d="M2241.21,-491.99C2291.29,-471.06 2376.29,-435.54 2430.35,-412.96"/>
<polygon fill="black" stroke="black" points="2431.86,-416.12 2439.74,-409.03 2429.16,-409.66 2431.86,-416.12"/>
<text text-anchor="middle" x="2374.5" y="-446.8" font-family="Times,serif" font-size="14.00">Nein</text>
</g>
<!-- A08 -->
<g id="node17" class="node">
<title>A08</title>
<polygon fill="#cca9ab" stroke="black" points="2510,-306 2283,-306 2283,-238 2510,-238 2510,-306"/>
<text text-anchor="start" x="2381" y="-286.8" font-family="Times,serif" font-weight="bold" font-size="14.00">A08</text>
<text text-anchor="start" x="2297" y="-274.4" font-family="Times,serif" text-decoration="underline" font-size="12.00">Hinweis:</text>
<text text-anchor="start" x="2297" y="-262.4" font-family="Times,serif" font-size="12.00">Cluster Ablehnung</text>
<text text-anchor="start" x="2297" y="-250.4" font-family="Times,serif" font-size="12.00">ZRT Aktivierung nicht berechtigt</text>
</g>
<!-- 8&#45;&gt;A08 -->
<g id="edge16" class="edge">
<title>8&#45;&gt;A08</title>
<path fill="none" stroke="black" d="M2468.29,-372.99C2457.38,-357.79 2440.94,-334.9 2426.55,-314.86"/>
<polygon fill="black" stroke="black" points="2429.21,-312.55 2420.53,-306.47 2423.52,-316.64 2429.21,-312.55"/>
<text text-anchor="middle" x="2461.5" y="-327.8" font-family="Times,serif" font-size="14.00">Nein</text>
</g>
<!-- 9 -->
<g id="node18" class="node">
<title>9</title>
<path fill="#7aab8a" stroke="black" d="M2816.5,-290C2816.5,-290 2540.5,-290 2540.5,-290 2534.5,-290 2528.5,-284 2528.5,-278 2528.5,-278 2528.5,-266 2528.5,-266 2528.5,-260 2534.5,-254 2540.5,-254 2540.5,-254 2816.5,-254 2816.5,-254 2822.5,-254 2828.5,-260 2828.5,-266 2828.5,-266 2828.5,-278 2828.5,-278 2828.5,-284 2822.5,-290 2816.5,-290"/>
<text text-anchor="start" x="2542.5" y="-269.3" font-family="Times,serif" font-weight="bold" font-size="14.00">9: </text>
<text text-anchor="start" x="2562.5" y="-269.3" font-family="Times,serif" font-size="14.00">Passt die OBIS&#45;Kennzahl zum ZRT?</text>
</g>
<!-- 8&#45;&gt;9 -->
<g id="edge17" class="edge">
<title>8&#45;&gt;9</title>
<path fill="none" stroke="black" d="M2509.29,-372.99C2544.04,-352.45 2602.58,-317.86 2640.88,-295.23"/>
<polygon fill="black" stroke="black" points="2642.85,-298.13 2649.67,-290.03 2639.28,-292.11 2642.85,-298.13"/>
<text text-anchor="middle" x="2598.5" y="-327.8" font-family="Times,serif" font-size="14.00">Ja</text>
</g>
<!-- A09 -->
<g id="node19" class="node">
<title>A09</title>
<polygon fill="#cca9ab" stroke="black" points="2648.5,-187 2502.5,-187 2502.5,-119 2648.5,-119 2648.5,-187"/>
<text text-anchor="start" x="2560" y="-167.8" font-family="Times,serif" font-weight="bold" font-size="14.00">A09</text>
<text text-anchor="start" x="2516.5" y="-155.4" font-family="Times,serif" text-decoration="underline" font-size="12.00">Hinweis:</text>
<text text-anchor="start" x="2516.5" y="-143.4" font-family="Times,serif" font-size="12.00">Cluster Ablehnung</text>
<text text-anchor="start" x="2516.5" y="-131.4" font-family="Times,serif" font-size="12.00">OBIS nicht passend</text>
</g>
<!-- 9&#45;&gt;A09 -->
<g id="edge18" class="edge">
<title>9&#45;&gt;A09</title>
<path fill="none" stroke="black" d="M2663.52,-253.99C2649.97,-238.59 2629.46,-215.29 2611.64,-195.05"/>
<polygon fill="black" stroke="black" points="2614.2,-192.67 2604.97,-187.47 2608.95,-197.29 2614.2,-192.67"/>
<text text-anchor="middle" x="2650.5" y="-208.8" font-family="Times,serif" font-size="14.00">Nein</text>
</g>
<!-- 10 -->
<g id="node20" class="node">
<title>10</title>
<path fill="#7aab8a" stroke="black" d="M3188.5,-171C3188.5,-171 2678.5,-171 2678.5,-171 2672.5,-171 2666.5,-165 2666.5,-159 2666.5,-159 2666.5,-147 2666.5,-147 2666.5,-141 2672.5,-135 2678.5,-135 2678.5,-135 3188.5,-135 3188.5,-135 3194.5,-135 3200.5,-141 3200.5,-147 3200.5,-147 3200.5,-159 3200.5,-159 3200.5,-165 3194.5,-171 3188.5,-171"/>
<text text-anchor="start" x="2680.5" y="-150.3" font-family="Times,serif" font-weight="bold" font-size="14.00">10: </text>
<text text-anchor="start" x="2710.5" y="-150.3" font-family="Times,serif" font-size="14.00">Ist der MaBiS&#45;ZP zum Zeitpunkt der Aktivierung bereits aktiviert?</text>
</g>
<!-- 9&#45;&gt;10 -->
<g id="edge19" class="edge">
<title>9&#45;&gt;10</title>
<path fill="none" stroke="black" d="M2715.58,-253.99C2761,-233.15 2837.96,-197.84 2887.21,-175.24"/>
<polygon fill="black" stroke="black" points="2888.75,-178.38 2896.38,-171.03 2885.83,-172.02 2888.75,-178.38"/>
<text text-anchor="middle" x="2828.5" y="-208.8" font-family="Times,serif" font-size="14.00">Ja</text>
</g>
<!-- A10 -->
<g id="node21" class="node">
<title>A10</title>
<polygon fill="#cca9ab" stroke="black" points="2926.5,-68 2736.5,-68 2736.5,0 2926.5,0 2926.5,-68"/>
<text text-anchor="start" x="2816" y="-48.8" font-family="Times,serif" font-weight="bold" font-size="14.00">A10</text>
<text text-anchor="start" x="2750.5" y="-36.4" font-family="Times,serif" text-decoration="underline" font-size="12.00">Hinweis:</text>
<text text-anchor="start" x="2750.5" y="-24.4" font-family="Times,serif" font-size="12.00">Cluster Ablehnung</text>
<text text-anchor="start" x="2750.5" y="-12.4" font-family="Times,serif" font-size="12.00">MaBiS&#45;ZP bereits aktiviert</text>
</g>
<!-- 10&#45;&gt;A10 -->
<g id="edge20" class="edge">
<title>10&#45;&gt;A10</title>
<path fill="none" stroke="black" d="M2918.67,-134.99C2905.24,-119.59 2884.93,-96.29 2867.29,-76.05"/>
<polygon fill="black" stroke="black" points="2869.89,-73.71 2860.68,-68.47 2864.61,-78.31 2869.89,-73.71"/>
<text text-anchor="middle" x="2896.5" y="-89.8" font-family="Times,serif" font-size="14.00">Ja</text>
</g>
<!-- A11 -->
<g id="node22" class="node">
<title>A11</title>
<polygon fill="#cca9ab" stroke="black" points="3126.5,-68 2944.5,-68 2944.5,0 3126.5,0 3126.5,-68"/>
<text text-anchor="start" x="3020" y="-48.8" font-family="Times,serif" font-weight="bold" font-size="14.00">A11</text>
<text text-anchor="start" x="2958.5" y="-36.4" font-family="Times,serif" text-decoration="underline" font-size="12.00">Hinweis:</text>
<text text-anchor="start" x="2958.5" y="-24.4" font-family="Times,serif" font-size="12.00">Cluster: Zustimmung</text>
<text text-anchor="start" x="2958.5" y="-12.4" font-family="Times,serif" font-size="12.00">Aktivierung durchgeführt</text>
</g>
<!-- 10&#45;&gt;A11 -->
<g id="edge21" class="edge">
<title>10&#45;&gt;A11</title>
<path fill="none" stroke="black" d="M2948.33,-134.99C2961.76,-119.59 2982.07,-96.29 2999.71,-76.05"/>
<polygon fill="black" stroke="black" points="3002.39,-78.31 3006.32,-68.47 2997.11,-73.71 3002.39,-78.31"/>
<text text-anchor="middle" x="3008.5" y="-89.8" font-family="Times,serif" font-size="14.00">Nein</text>
</g>
</g>
</svg>
