<?xml version="1.0" encoding="UTF-8" standalone="no"?>
<!DOCTYPE svg PUBLIC "-//W3C//DTD SVG 1.1//EN"
 "http://www.w3.org/Graphics/SVG/1.1/DTD/svg11.dtd">
<!-- Generated by graphviz version 3.0.0 (20221109.1736)
 -->
<!-- Title: D Pages: 1 -->
<svg width="1089pt" height="561pt"
 viewBox="0.00 0.00 1089.00 561.00" xmlns="http://www.w3.org/2000/svg" xmlns:xlink="http://www.w3.org/1999/xlink">
<g id="graph0" class="graph" transform="scale(1 1) rotate(0) translate(4 557)">
<title>D</title>
<polygon fill="white" stroke="transparent" points="-4,4 -4,-557 1085,-557 1085,4 -4,4"/>
<!-- Start -->
<g id="node1" class="node">
<title>Start</title>
<polygon fill="#7a8da1" stroke="black" points="410.5,-553 235.5,-553 235.5,-509 410.5,-509 410.5,-553"/>
<text text-anchor="start" x="294.5" y="-533.8" font-family="Times,serif" font-weight="bold" font-size="14.00">E_0025</text>
<text text-anchor="start" x="249.5" y="-521.4" font-family="Times,serif" font-weight="bold" text-decoration="underline" font-size="12.00">Prüfende Rolle:</text>
<text text-anchor="start" x="355.5" y="-521.4" font-family="Times,serif" font-weight="bold" font-size="12.00"> BIKO</text>
</g>
<!-- 1 -->
<g id="node2" class="node">
<title>1</title>
<path fill="#7aab8a" stroke="black" d="M634,-472C634,-472 12,-472 12,-472 6,-472 0,-466 0,-460 0,-460 0,-448 0,-448 0,-442 6,-436 12,-436 12,-436 634,-436 634,-436 640,-436 646,-442 646,-448 646,-448 646,-460 646,-460 646,-466 640,-472 634,-472"/>
<text text-anchor="start" x="14" y="-451.3" font-family="Times,serif" font-weight="bold" font-size="14.00">1: </text>
<text text-anchor="start" x="34" y="-451.3" font-family="Times,serif" font-size="14.00">Erfolgt der Eingang der Prüfmitteilung nach Ablauf der Clearingfrist für die KBKA?</text>
</g>
<!-- Start&#45;&gt;1 -->
<g id="edge1" class="edge">
<title>Start&#45;&gt;1</title>
<path fill="none" stroke="black" d="M323,-508.71C323,-500.46 323,-490.91 323,-482.17"/>
<polygon fill="black" stroke="black" points="326.5,-482.06 323,-472.06 319.5,-482.06 326.5,-482.06"/>
</g>
<!-- A01 -->
<g id="node3" class="node">
<title>A01</title>
<polygon fill="#cca9ab" stroke="black" points="379.5,-385 230.5,-385 230.5,-329 379.5,-329 379.5,-385"/>
<text text-anchor="start" x="289.5" y="-365.8" font-family="Times,serif" font-weight="bold" font-size="14.00">A01</text>
<text text-anchor="start" x="244.5" y="-353.4" font-family="Times,serif" text-decoration="underline" font-size="12.00">Hinweis:</text>
<text text-anchor="start" x="244.5" y="-341.4" font-family="Times,serif" font-size="12.00">Fristüberschreitung</text>
</g>
<!-- 1&#45;&gt;A01 -->
<g id="edge2" class="edge">
<title>1&#45;&gt;A01</title>
<path fill="none" stroke="black" d="M319.7,-435.58C317.54,-424.2 314.65,-408.9 311.99,-394.91"/>
<polygon fill="black" stroke="black" points="315.42,-394.19 310.12,-385.02 308.54,-395.49 315.42,-394.19"/>
<text text-anchor="middle" x="324" y="-406.8" font-family="Times,serif" font-size="14.00">Ja</text>
</g>
<!-- 2 -->
<g id="node4" class="node">
<title>2</title>
<path fill="#7aab8a" stroke="black" d="M862,-375C862,-375 410,-375 410,-375 404,-375 398,-369 398,-363 398,-363 398,-351 398,-351 398,-345 404,-339 410,-339 410,-339 862,-339 862,-339 868,-339 874,-345 874,-351 874,-351 874,-363 874,-363 874,-369 868,-375 862,-375"/>
<text text-anchor="start" x="412" y="-354.3" font-family="Times,serif" font-weight="bold" font-size="14.00">2: </text>
<text text-anchor="start" x="432" y="-354.3" font-family="Times,serif" font-size="14.00">Befindet sich der MaBiS&#45;ZP auf der Aggregationsebene RZ?</text>
</g>
<!-- 1&#45;&gt;2 -->
<g id="edge3" class="edge">
<title>1&#45;&gt;2</title>
<path fill="none" stroke="black" d="M379.32,-435.91C432.87,-419.65 513.41,-395.21 569.95,-378.05"/>
<polygon fill="black" stroke="black" points="571.32,-381.29 579.87,-375.04 569.28,-374.59 571.32,-381.29"/>
<text text-anchor="middle" x="497" y="-406.8" font-family="Times,serif" font-size="14.00">Nein</text>
</g>
<!-- 3 -->
<g id="node5" class="node">
<title>3</title>
<path fill="#7aab8a" stroke="black" d="M556.5,-271C556.5,-271 95.5,-271 95.5,-271 89.5,-271 83.5,-265 83.5,-259 83.5,-259 83.5,-237 83.5,-237 83.5,-231 89.5,-225 95.5,-225 95.5,-225 556.5,-225 556.5,-225 562.5,-225 568.5,-231 568.5,-237 568.5,-237 568.5,-259 568.5,-259 568.5,-265 562.5,-271 556.5,-271"/>
<text text-anchor="start" x="97.5" y="-251.8" font-family="Times,serif" font-weight="bold" font-size="14.00">3: </text>
<text text-anchor="start" x="117.5" y="-251.8" font-family="Times,serif" font-size="14.00">Hat der BKV für den BK dieses MaBiS&#45;ZP in diesem Bilanzie&#45;</text>
<text text-anchor="start" x="97.5" y="-237.8" font-family="Times,serif" font-size="14.00">rungsmonat die Aggregationsebene RZ abbestellt?</text>
</g>
<!-- 2&#45;&gt;3 -->
<g id="edge4" class="edge">
<title>2&#45;&gt;3</title>
<path fill="none" stroke="black" d="M586.54,-338.93C536.12,-321.53 457.33,-294.33 399.59,-274.4"/>
<polygon fill="black" stroke="black" points="400.39,-270.97 389.79,-271.02 398.1,-277.59 400.39,-270.97"/>
<text text-anchor="middle" x="517" y="-299.8" font-family="Times,serif" font-size="14.00">Nein</text>
</g>
<!-- 5 -->
<g id="node9" class="node">
<title>5</title>
<path fill="#7aab8a" stroke="black" d="M1069,-278C1069,-278 599,-278 599,-278 593,-278 587,-272 587,-266 587,-266 587,-230 587,-230 587,-224 593,-218 599,-218 599,-218 1069,-218 1069,-218 1075,-218 1081,-224 1081,-230 1081,-230 1081,-266 1081,-266 1081,-272 1075,-278 1069,-278"/>
<text text-anchor="start" x="601" y="-258.8" font-family="Times,serif" font-weight="bold" font-size="14.00">5: </text>
<text text-anchor="start" x="621" y="-258.8" font-family="Times,serif" font-size="14.00">Hat der BKV dem BIKO für diesen Bilanzierungsmonat bereits</text>
<text text-anchor="start" x="601" y="-244.8" font-family="Times,serif" font-size="14.00">mitgeteilt, dass die weiteren Prüfungen auf Ebene des BG</text>
<text text-anchor="start" x="601" y="-230.8" font-family="Times,serif" font-size="14.00">stattfinden müssen?</text>
</g>
<!-- 2&#45;&gt;5 -->
<g id="edge5" class="edge">
<title>2&#45;&gt;5</title>
<path fill="none" stroke="black" d="M667.81,-338.81C695.61,-323.79 736.79,-301.54 771.2,-282.94"/>
<polygon fill="black" stroke="black" points="773.11,-285.88 780.24,-278.05 769.78,-279.72 773.11,-285.88"/>
<text text-anchor="middle" x="754" y="-299.8" font-family="Times,serif" font-size="14.00">Ja</text>
</g>
<!-- Ende -->
<g id="node6" class="node">
<title>Ende</title>
<polygon fill="#7a8da1" stroke="black" points="641.5,-46 576.5,-46 576.5,-10 641.5,-10 641.5,-46"/>
<text text-anchor="middle" x="609" y="-24.3" font-family="Times,serif" font-size="14.00">Ende</text>
</g>
<!-- 3&#45;&gt;Ende -->
<g id="edge7" class="edge">
<title>3&#45;&gt;Ende</title>
<path fill="none" stroke="black" d="M487.38,-224.9C522.82,-212.96 557.14,-194.74 582,-167 609.25,-136.58 612.42,-87 611.34,-56.28"/>
<polygon fill="black" stroke="black" points="614.83,-56.06 610.81,-46.26 607.84,-56.43 614.83,-56.06"/>
<text text-anchor="middle" x="615" y="-133.3" font-family="Times,serif" font-size="14.00">Ja</text>
</g>
<!-- 4 -->
<g id="node7" class="node">
<title>4</title>
<path fill="#7aab8a" stroke="black" d="M561,-167C561,-167 91,-167 91,-167 85,-167 79,-161 79,-155 79,-155 79,-119 79,-119 79,-113 85,-107 91,-107 91,-107 561,-107 561,-107 567,-107 573,-113 573,-119 573,-119 573,-155 573,-155 573,-161 567,-167 561,-167"/>
<text text-anchor="start" x="93" y="-147.8" font-family="Times,serif" font-weight="bold" font-size="14.00">4: </text>
<text text-anchor="start" x="113" y="-147.8" font-family="Times,serif" font-size="14.00">Hat der BKV dem BIKO für diesen Bilanzierungsmonat bereits</text>
<text text-anchor="start" x="93" y="-133.8" font-family="Times,serif" font-size="14.00">mitgeteilt, dass die weiteren Prüfungen auf Ebene des BG</text>
<text text-anchor="start" x="93" y="-119.8" font-family="Times,serif" font-size="14.00">stattfinden müssen?</text>
</g>
<!-- 3&#45;&gt;4 -->
<g id="edge6" class="edge">
<title>3&#45;&gt;4</title>
<path fill="none" stroke="black" d="M326,-224.94C326,-211.27 326,-193.31 326,-177.26"/>
<polygon fill="black" stroke="black" points="329.5,-177.06 326,-167.06 322.5,-177.06 329.5,-177.06"/>
<text text-anchor="middle" x="343" y="-188.8" font-family="Times,serif" font-size="14.00">Nein</text>
</g>
<!-- 4&#45;&gt;Ende -->
<g id="edge9" class="edge">
<title>4&#45;&gt;Ende</title>
<path fill="none" stroke="black" d="M402.96,-106.9C455.65,-86.98 523.54,-61.31 566.68,-45"/>
<polygon fill="black" stroke="black" points="568.18,-48.18 576.29,-41.37 565.7,-41.63 568.18,-48.18"/>
<text text-anchor="middle" x="492" y="-77.8" font-family="Times,serif" font-size="14.00">Ja</text>
</g>
<!-- A02 -->
<g id="node8" class="node">
<title>A02</title>
<polygon fill="#cca9ab" stroke="black" points="434.5,-56 217.5,-56 217.5,0 434.5,0 434.5,-56"/>
<text text-anchor="start" x="310.5" y="-36.8" font-family="Times,serif" font-weight="bold" font-size="14.00">A02</text>
<text text-anchor="start" x="231.5" y="-24.4" font-family="Times,serif" text-decoration="underline" font-size="12.00">Hinweis:</text>
<text text-anchor="start" x="231.5" y="-12.4" font-family="Times,serif" font-size="12.00">Falsche Aggregationsebene BG</text>
</g>
<!-- 4&#45;&gt;A02 -->
<g id="edge8" class="edge">
<title>4&#45;&gt;A02</title>
<path fill="none" stroke="black" d="M326,-106.76C326,-94.26 326,-79.52 326,-66.25"/>
<polygon fill="black" stroke="black" points="329.5,-66 326,-56 322.5,-66 329.5,-66"/>
<text text-anchor="middle" x="343" y="-77.8" font-family="Times,serif" font-size="14.00">Nein</text>
</g>
<!-- 5&#45;&gt;Ende -->
<g id="edge11" class="edge">
<title>5&#45;&gt;Ende</title>
<path fill="none" stroke="black" d="M758.71,-217.96C732.5,-205.21 704.35,-188.24 683,-167 650.8,-134.96 629.1,-85.94 617.92,-55.77"/>
<polygon fill="black" stroke="black" points="621.2,-54.54 614.53,-46.31 614.61,-56.91 621.2,-54.54"/>
<text text-anchor="middle" x="700" y="-133.3" font-family="Times,serif" font-size="14.00">Nein</text>
</g>
<!-- A03 -->
<g id="node10" class="node">
<title>A03</title>
<polygon fill="#cca9ab" stroke="black" points="941.5,-165 726.5,-165 726.5,-109 941.5,-109 941.5,-165"/>
<text text-anchor="start" x="818.5" y="-145.8" font-family="Times,serif" font-weight="bold" font-size="14.00">A03</text>
<text text-anchor="start" x="740.5" y="-133.4" font-family="Times,serif" text-decoration="underline" font-size="12.00">Hinweis:</text>
<text text-anchor="start" x="740.5" y="-121.4" font-family="Times,serif" font-size="12.00">Falsche Aggregationsebene RZ</text>
</g>
<!-- 5&#45;&gt;A03 -->
<g id="edge10" class="edge">
<title>5&#45;&gt;A03</title>
<path fill="none" stroke="black" d="M834,-217.79C834,-204.72 834,-189.17 834,-175.27"/>
<polygon fill="black" stroke="black" points="837.5,-175.04 834,-165.04 830.5,-175.04 837.5,-175.04"/>
<text text-anchor="middle" x="841" y="-188.8" font-family="Times,serif" font-size="14.00">Ja</text>
</g>
</g>
</svg>
