<?xml version='1.0' encoding='ASCII' standalone='yes'?>
<svg xmlns="http://www.w3.org/2000/svg" xmlns:xlink="http://www.w3.org/1999/xlink" version="1.1" width="1406.6666666666667px" viewBox="0 0 1406.6666666666667 570.6666666666666" height="570.6666666666666px">
  <g>
    <g transform="translate(475.2359870121026, 57.06666666666665) scale(1 1) translate(0, 0) scale(2.580906111361802 2.580906111361802) "><sodipodi:namedview xmlns:sodipodi="http://sodipodi.sourceforge.net/DTD/sodipodi-0.dtd" xmlns:inkscape="http://www.inkscape.org/namespaces/inkscape" id="namedview7" pagecolor="#ffffff" bordercolor="#999999" borderopacity="1" inkscape:pageshadow="0" inkscape:pageopacity="0" inkscape:pagecheckerboard="0" inkscape:document-units="mm" showgrid="false" fit-margin-top="0" fit-margin-left="0" fit-margin-right="0" fit-margin-bottom="0" inkscape:zoom="0.64052329" inkscape:cx="130.36216" inkscape:cy="412.163" inkscape:window-width="1512" inkscape:window-height="916" inkscape:window-x="3840" inkscape:window-y="136" inkscape:window-maximized="0" inkscape:current-layer="layer1"/>
  <defs id="defs2">
    <clipPath clipPathUnits="userSpaceOnUse" id="clipPath23">
      <path d="M 0,568.156 H 579.236 V 0 H 0 Z" id="path21"/>
    </clipPath>
  </defs>
  <g xmlns:inkscape="http://www.inkscape.org/namespaces/inkscape" inkscape:label="Layer 1" inkscape:groupmode="layer" id="layer1" transform="translate(-16.541937,-55.305267)">
    <g id="g19" clip-path="url(#clipPath23)" transform="matrix(0.35277777,0,0,-0.35277777,0.01017023,243.73675)" style="opacity:0.2">
      <g id="g25" transform="translate(122.444,32.7195)">
        <path d="m 0,0 h -56.104 c -11,0 -19.898,9.123 -19.463,20.115 10.594,267.191 231.277,481.302 501.029,481.302 v -56.02 c 0,-10.98 -8.688,-19.892 -19.658,-20.393 C 180.29,414.697 0,228.005 0,0" style="fill:#6ead83;fill-opacity:0.5;fill-rule:nonzero;stroke:none" id="path27"/>
      </g>
      <g id="g29" transform="translate(273.7828,32.7195)">
        <path d="m 0,0 h -55.926 c -11.228,0 -20.091,9.482 -19.435,20.69 10.744,183.439 163.389,329.388 349.485,329.388 v -56.263 c 0,-10.709 -8.273,-19.617 -18.957,-20.35 C 112.819,263.696 0,144.774 0,0" style="fill:#6ead83;fill-opacity:0.5;fill-rule:nonzero;stroke:none" id="path31"/>
      </g>
      <g id="g33" transform="translate(425.7667,32.7195)">
        <path d="m 0,0 h -55.445 c -11.653,0 -20.604,10.17 -19.334,21.753 10.866,99.032 95.031,176.341 196.919,176.341 v -57.011 c 0,-10.046 -7.283,-18.755 -17.229,-20.165 C 45.688,112.522 0,61.497 0,0" style="fill:#6ead83;fill-opacity:0.5;fill-rule:nonzero;stroke:none" id="path35"/>
      </g>
    </g>
  </g>
</g>
    <svg width="1055pt" height="428pt" viewBox="0.00 0.00 1054.50 427.82">
<g id="graph0" class="graph" transform="scale(1 1) rotate(0) translate(4 423.82)">
<title>D</title>
<text text-anchor="start" x="8" y="-399.72" font-family="Times,serif" font-weight="bold" font-size="18.00">7.39 AD: Bestellung der Aggregationsebene der Bilanzkreissummenzeitreihe auf Ebene der Regelzone</text>
<text text-anchor="start" x="250.62" y="-369.62" font-family="Times,serif" font-weight="bold" font-size="16.00">7.39.1 E_0003_Bestellung der Aggregationsebene RZ pr&#252;fen</text>
<!-- Start -->
<g id="node1" class="node">
<title>Start</title>
<path fill="#7a8da1" stroke="black" d="M514.01,-321.82C514.01,-321.82 367.46,-321.82 367.46,-321.82 361.46,-321.82 355.46,-315.82 355.46,-309.82 355.46,-309.82 355.46,-290.54 355.46,-290.54 355.46,-284.54 361.46,-278.54 367.46,-278.54 367.46,-278.54 514.01,-278.54 514.01,-278.54 520.01,-278.54 526.01,-284.54 526.01,-290.54 526.01,-290.54 526.01,-309.82 526.01,-309.82 526.01,-315.82 520.01,-321.82 514.01,-321.82"/>
<text text-anchor="start" x="412.61" y="-300.88" font-family="Times,serif" font-weight="bold" font-size="14.00">E_0003</text>
<text text-anchor="start" x="369.86" y="-288.78" font-family="Times,serif" font-weight="bold" text-decoration="underline" font-size="12.00">Pr&#252;fende Rolle:</text>
<text text-anchor="start" x="474.86" y="-288.78" font-family="Times,serif" font-weight="bold" font-size="12.00"> &#220;NB</text>
</g>
<!-- 1 -->
<g id="node2" class="node">
<title>1</title>
<path fill="#7aab8a" stroke="black" d="M627.26,-241.54C627.26,-241.54 254.21,-241.54 254.21,-241.54 248.21,-241.54 242.21,-235.54 242.21,-229.54 242.21,-229.54 242.21,-217.54 242.21,-217.54 242.21,-211.54 248.21,-205.54 254.21,-205.54 254.21,-205.54 627.26,-205.54 627.26,-205.54 633.26,-205.54 639.26,-211.54 639.26,-217.54 639.26,-217.54 639.26,-229.54 639.26,-229.54 639.26,-235.54 633.26,-241.54 627.26,-241.54"/>
<text text-anchor="start" x="256.61" y="-219.86" font-family="Times,serif" font-weight="bold" font-size="14.00">1: </text>
<text text-anchor="start" x="276.11" y="-219.86" font-family="Times,serif" font-size="14.00">Erfolgt der Eingang der Bestellung fristgerecht?</text>
</g>
<!-- Start&#45;&gt;1 -->
<g id="edge1" class="edge">
<title>Start-&gt;1</title>
<path fill="none" stroke="black" d="M440.73,-278.39C440.73,-270.53 440.73,-261.45 440.73,-253.01"/>
<polygon fill="black" stroke="black" points="444.23,-253.21 440.73,-243.21 437.23,-253.21 444.23,-253.21"/>
</g>
<!-- A01 -->
<g id="node3" class="node">
<title>A01</title>
<path fill="#cfb986" stroke="black" d="M359.97,-152.29C359.97,-152.29 239.49,-152.29 239.49,-152.29 233.49,-152.29 227.49,-146.29 227.49,-140.29 227.49,-140.29 227.49,-114.77 227.49,-114.77 227.49,-108.77 233.49,-102.77 239.49,-102.77 239.49,-102.77 359.97,-102.77 359.97,-102.77 365.97,-102.77 371.97,-108.77 371.97,-114.77 371.97,-114.77 371.97,-140.29 371.97,-140.29 371.97,-146.29 365.97,-152.29 359.97,-152.29"/>
<text text-anchor="start" x="284.73" y="-134.23" font-family="Times,serif" font-weight="bold" font-size="14.00">A01</text>
<text text-anchor="start" x="239.73" y="-122.13" font-family="Times,serif" text-decoration="underline" font-size="12.00">Hinweis:</text>
<text text-anchor="start" x="239.73" y="-110.13" font-family="Times,serif" font-size="12.00">Frist&#252;berschreitung</text>
</g>
<!-- 1&#45;&gt;A01 -->
<g id="edge2" class="edge">
<title>1-&gt;A01</title>
<path fill="none" stroke="black" d="M414.54,-205.08C395.17,-192.16 368.29,-174.24 345.41,-158.98"/>
<polygon fill="black" stroke="black" points="347.4,-156.11 337.14,-153.47 343.52,-161.93 347.4,-156.11"/>
<text text-anchor="start" x="386.73" y="-175.24" font-family="Times,serif" font-weight="bold" font-size="14.00">NEIN</text>
</g>
<!-- 2 -->
<g id="node4" class="node">
<title>2</title>
<path fill="#7aab8a" stroke="black" d="M807.01,-145.53C807.01,-145.53 402.46,-145.53 402.46,-145.53 396.46,-145.53 390.46,-139.53 390.46,-133.53 390.46,-133.53 390.46,-121.53 390.46,-121.53 390.46,-115.53 396.46,-109.53 402.46,-109.53 402.46,-109.53 807.01,-109.53 807.01,-109.53 813.01,-109.53 819.01,-115.53 819.01,-121.53 819.01,-121.53 819.01,-133.53 819.01,-133.53 819.01,-139.53 813.01,-145.53 807.01,-145.53"/>
<text text-anchor="start" x="404.86" y="-123.86" font-family="Times,serif" font-weight="bold" font-size="14.00">2: </text>
<text text-anchor="start" x="424.36" y="-123.86" font-family="Times,serif" font-size="14.00">Erfolgt die Bestellung zum Monatsersten 00:00 Uhr?</text>
</g>
<!-- 1&#45;&gt;2 -->
<g id="edge3" class="edge">
<title>1-&gt;2</title>
<path fill="none" stroke="black" d="M471.2,-205.08C497.55,-189.97 535.84,-168.02 564.67,-151.5"/>
<polygon fill="black" stroke="black" points="566.18,-154.66 573.12,-146.65 562.7,-148.59 566.18,-154.66"/>
<text text-anchor="start" x="526.73" y="-175.24" font-family="Times,serif" font-weight="bold" font-size="14.00">JA</text>
</g>
<!-- A02 -->
<g id="node5" class="node">
<title>A02</title>
<path fill="#cfb986" stroke="black" d="M625.97,-49.52C625.97,-49.52 415.49,-49.52 415.49,-49.52 409.49,-49.52 403.49,-43.52 403.49,-37.52 403.49,-37.52 403.49,-12 403.49,-12 403.49,-6 409.49,0 415.49,0 415.49,0 625.97,0 625.97,0 631.97,0 637.97,-6 637.97,-12 637.97,-12 637.97,-37.52 637.97,-37.52 637.97,-43.52 631.97,-49.52 625.97,-49.52"/>
<text text-anchor="start" x="505.73" y="-31.46" font-family="Times,serif" font-weight="bold" font-size="14.00">A02</text>
<text text-anchor="start" x="415.73" y="-19.36" font-family="Times,serif" text-decoration="underline" font-size="12.00">Hinweis:</text>
<text text-anchor="start" x="415.73" y="-7.36" font-family="Times,serif" font-size="12.00">Gew&#228;hlter Zeitpunkt nicht zul&#228;ssig</text>
</g>
<!-- 2&#45;&gt;A02 -->
<g id="edge4" class="edge">
<title>2-&gt;A02</title>
<path fill="none" stroke="black" d="M590.48,-109.44C578.84,-95.47 562.06,-75.34 547.87,-58.32"/>
<polygon fill="black" stroke="black" points="550.79,-56.35 541.7,-50.91 545.41,-60.83 550.79,-56.35"/>
<text text-anchor="start" x="567.73" y="-72.47" font-family="Times,serif" font-weight="bold" font-size="14.00">NEIN</text>
</g>
<!-- Ende -->
<g id="node6" class="node">
<title>Ende</title>
<path fill="#7a8da1" stroke="black" d="M709.51,-42.76C709.51,-42.76 667.96,-42.76 667.96,-42.76 661.96,-42.76 655.96,-36.76 655.96,-30.76 655.96,-30.76 655.96,-18.76 655.96,-18.76 655.96,-12.76 661.96,-6.76 667.96,-6.76 667.96,-6.76 709.51,-6.76 709.51,-6.76 715.51,-6.76 721.51,-12.76 721.51,-18.76 721.51,-18.76 721.51,-30.76 721.51,-30.76 721.51,-36.76 715.51,-42.76 709.51,-42.76"/>
<text text-anchor="middle" x="688.73" y="-20.08" font-family="Times,serif" font-size="14.00">Ende</text>
</g>
<!-- 2&#45;&gt;Ende -->
<g id="edge5" class="edge">
<title>2-&gt;Ende</title>
<path fill="none" stroke="black" d="M618.98,-109.44C632.26,-93.51 652.22,-69.56 667.4,-51.35"/>
<polygon fill="black" stroke="black" points="669.73,-54.02 673.44,-44.1 664.35,-49.54 669.73,-54.02"/>
<text text-anchor="start" x="651.73" y="-72.47" font-family="Times,serif" font-weight="bold" font-size="14.00">JA</text>
</g>
</g>
</svg>
  </g>
</svg>
