<?xml version='1.0' encoding='ASCII' standalone='yes'?>
<svg xmlns="http://www.w3.org/2000/svg" xmlns:xlink="http://www.w3.org/1999/xlink" version="1.1" width="1920.0px" viewBox="0 0 1920.0 1732.0" height="1732.0px">
  <g>
    <svg version="1.1" width="1920.0px" viewBox="0 0 1920.0 1732.0" height="1732.0px">
  <rect fill="#e7e6e5" x="0" y="0" width="1920.0" height="1732.0" rx="20" ry="20"/><g>
    <g transform="translate(253.68932695015474, 173.19999999999996) scale(1 1) translate(0, 0) scale(2.438749647986483 2.438749647986483) "><!-- note that I manually added the width and height attribute to the root node
  https://chatgpt.com/share/678e3028-70cc-800b-a296-782714735772
  -->
  <defs>
    <style>.cls-1{fill:#fff;}</style>
  </defs>
  <path class="cls-1" d="M122.44,531.2h-56.1c-11,0-19.9-9.12-19.46-20.11C57.47,243.89,278.15,29.78,547.91,29.78v56.02c0,10.98-8.69,19.89-19.66,20.39-225.51,10.31-405.8,197-405.8,425Z"/>
  <path class="cls-1" d="M273.78,531.2h-55.93c-11.23,0-20.09-9.48-19.43-20.69,10.74-183.44,163.39-329.39,349.48-329.39v56.26c0,10.71-8.27,19.62-18.96,20.35-142.35,9.77-255.17,128.69-255.17,273.46Z"/>
  <path class="cls-1" d="M425.77,531.2h-55.45c-11.65,0-20.6-10.17-19.33-21.75,10.87-99.03,95.03-176.34,196.92-176.34v57.01c0,10.05-7.28,18.75-17.23,20.16-59.22,8.4-104.91,59.42-104.91,120.92Z"/>
</g>
    <svg width="1440pt" height="1299pt" viewBox="0.00 0.00 1440.00 1298.90">
<g id="graph0" class="graph" transform="scale(0.775789 0.775789) rotate(0) translate(4 1670.3)">
<title>D</title>
<text text-anchor="start" x="779.34" y="-1646.2" font-family="Roboto, sans-serif" font-weight="bold" font-size="18.00">6.2 AD: Lieferende LF an NB</text>
<text text-anchor="start" x="779.34" y="-1618.1" font-family="Roboto, sans-serif" font-weight="bold" font-size="16.00">6.2.1 E_0401_Abmeldung pr&#252;fen</text>
<!-- Start -->
<g id="node1" class="node">
<title>Start</title>
<path fill="#8ba2d7" stroke="black" stroke-width="0" d="M878.3,-1521.3C878.3,-1521.3 741.5,-1521.3 741.5,-1521.3 735.5,-1521.3 729.5,-1515.3 729.5,-1509.3 729.5,-1509.3 729.5,-1488.02 729.5,-1488.02 729.5,-1482.02 735.5,-1476.02 741.5,-1476.02 741.5,-1476.02 878.3,-1476.02 878.3,-1476.02 884.3,-1476.02 890.3,-1482.02 890.3,-1488.02 890.3,-1488.02 890.3,-1509.3 890.3,-1509.3 890.3,-1515.3 884.3,-1521.3 878.3,-1521.3"/>
<text text-anchor="start" x="743.9" y="-1500.36" font-family="Roboto, sans-serif" font-weight="bold" font-size="14.00">E_0401</text>
<text text-anchor="start" x="743.9" y="-1486.36" font-family="Roboto, sans-serif" font-size="14.00">Pr&#252;fende Rolle: </text>
<text text-anchor="start" x="853.4" y="-1486.36" font-family="Roboto, sans-serif" font-weight="bold" font-size="14.00">NB</text>
</g>
<!-- 1 -->
<g id="node2" class="node">
<title>1</title>
<path fill="#c2cee9" stroke="black" stroke-width="0" d="M1030.55,-1384.02C1030.55,-1384.02 589.25,-1384.02 589.25,-1384.02 583.25,-1384.02 577.25,-1378.02 577.25,-1372.02 577.25,-1372.02 577.25,-1280.74 577.25,-1280.74 577.25,-1274.74 583.25,-1268.74 589.25,-1268.74 589.25,-1268.74 1030.55,-1268.74 1030.55,-1268.74 1036.55,-1268.74 1042.55,-1274.74 1042.55,-1280.74 1042.55,-1280.74 1042.55,-1372.02 1042.55,-1372.02 1042.55,-1378.02 1036.55,-1384.02 1030.55,-1384.02"/>
<text text-anchor="start" x="591.65" y="-1363.08" font-family="Roboto, sans-serif" font-weight="bold" font-size="14.00">1: </text>
<text text-anchor="start" x="611.15" y="-1363.08" font-family="Roboto, sans-serif" font-size="14.00">Liegt ein Transaktionsgrund vor, der eine Abmeldung nur in</text>
<text text-anchor="start" x="591.65" y="-1349.08" font-family="Roboto, sans-serif" font-size="14.00">die Zukunft zul&#228;sst?</text>
<text text-anchor="start" x="591.65" y="-1335.08" font-family="Roboto, sans-serif" font-size="14.00">Das ist bei den folgenden Transaktionsgr&#252;nden der Fall:</text>
<text text-anchor="start" x="591.65" y="-1321.08" font-family="Roboto, sans-serif" font-size="14.00">&#61599; Wechsel</text>
<text text-anchor="start" x="591.65" y="-1307.08" font-family="Roboto, sans-serif" font-size="14.00">&#61599; Ende der ESV ohne Folgelieferung</text>
<text text-anchor="start" x="591.65" y="-1293.08" font-family="Roboto, sans-serif" font-size="14.00">&#61599; Aufhebung einer zuk&#252;nftigen Zuordnung wegen</text>
<text text-anchor="start" x="591.65" y="-1279.08" font-family="Roboto, sans-serif" font-size="14.00">aufgehobenem Vertragsverh&#228;ltnis</text>
</g>
<!-- Start&#45;&gt;1 -->
<g id="edge1" class="edge">
<title>Start-&gt;1</title>
<path fill="none" stroke="#88a0d6" d="M809.9,-1476.09C809.9,-1455.71 809.9,-1424.03 809.9,-1395.14"/>
<polygon fill="#88a0d6" stroke="#88a0d6" points="813.4,-1395.33 809.9,-1385.33 806.4,-1395.33 813.4,-1395.33"/>
</g>
<!-- 2 -->
<g id="node4" class="node">
<title>2</title>
<path fill="#c2cee9" stroke="black" stroke-width="0" d="M1024.92,-1215.49C1024.92,-1215.49 594.88,-1215.49 594.88,-1215.49 588.88,-1215.49 582.88,-1209.49 582.88,-1203.49 582.88,-1203.49 582.88,-1098.21 582.88,-1098.21 582.88,-1092.21 588.88,-1086.21 594.88,-1086.21 594.88,-1086.21 1024.92,-1086.21 1024.92,-1086.21 1030.92,-1086.21 1036.92,-1092.21 1036.92,-1098.21 1036.92,-1098.21 1036.92,-1203.49 1036.92,-1203.49 1036.92,-1209.49 1030.92,-1215.49 1024.92,-1215.49"/>
<text text-anchor="start" x="597.27" y="-1194.55" font-family="Roboto, sans-serif" font-weight="bold" font-size="14.00">2: </text>
<text text-anchor="start" x="616.77" y="-1194.55" font-family="Roboto, sans-serif" font-size="14.00">Liegt ein Transaktionsgrund vor, welcher mitteilt, dass der</text>
<text text-anchor="start" x="597.27" y="-1180.55" font-family="Roboto, sans-serif" font-size="14.00">Kunde vor Lieferbeginn ausgezogen ist, bzw. die</text>
<text text-anchor="start" x="597.27" y="-1166.55" font-family="Roboto, sans-serif" font-size="14.00">Marktlokation vor Lieferbeginn stillgelegt wurde?</text>
<text text-anchor="start" x="597.27" y="-1152.55" font-family="Roboto, sans-serif" font-size="14.00">Das ist bei den folgenden Transaktionsgr&#252;nden der Fall:</text>
<text text-anchor="start" x="597.27" y="-1138.55" font-family="Roboto, sans-serif" font-size="14.00">&#61599; Aufhebung einer zuk&#252;nftigen Zuordnung wegen Auszug</text>
<text text-anchor="start" x="597.27" y="-1124.55" font-family="Roboto, sans-serif" font-size="14.00">des Kunden</text>
<text text-anchor="start" x="597.27" y="-1110.55" font-family="Roboto, sans-serif" font-size="14.00">&#61599; Aufhebung einer zuk&#252;nftigen Zuordnung wegen</text>
<text text-anchor="start" x="597.27" y="-1096.55" font-family="Roboto, sans-serif" font-size="14.00">Stilllegung</text>
</g>
<!-- 1&#45;&gt;2 -->
<g id="edge3" class="edge">
<title>1-&gt;2</title>
<path fill="none" stroke="#88a0d6" d="M809.9,-1269.04C809.9,-1255.53 809.9,-1240.89 809.9,-1226.69"/>
<polygon fill="#88a0d6" stroke="#88a0d6" points="813.4,-1226.94 809.9,-1216.94 806.4,-1226.94 813.4,-1226.94"/>
<text text-anchor="start" x="809.9" y="-1238.44" font-family="Roboto, sans-serif" font-weight="bold" font-size="14.00">NEIN</text>
</g>
<!-- 4 -->
<g id="node8" class="node">
<title>4</title>
<path fill="#c2cee9" stroke="black" stroke-width="0" d="M1455.3,-1173.49C1455.3,-1173.49 1066.5,-1173.49 1066.5,-1173.49 1060.5,-1173.49 1054.5,-1167.49 1054.5,-1161.49 1054.5,-1161.49 1054.5,-1140.21 1054.5,-1140.21 1054.5,-1134.21 1060.5,-1128.21 1066.5,-1128.21 1066.5,-1128.21 1455.3,-1128.21 1455.3,-1128.21 1461.3,-1128.21 1467.3,-1134.21 1467.3,-1140.21 1467.3,-1140.21 1467.3,-1161.49 1467.3,-1161.49 1467.3,-1167.49 1461.3,-1173.49 1455.3,-1173.49"/>
<text text-anchor="start" x="1068.9" y="-1152.55" font-family="Roboto, sans-serif" font-weight="bold" font-size="14.00">4: </text>
<text text-anchor="start" x="1088.4" y="-1152.55" font-family="Roboto, sans-serif" font-size="14.00">Liegt das Eingangsdatum mindestens 6 WT vor dem</text>
<text text-anchor="start" x="1068.9" y="-1138.55" font-family="Roboto, sans-serif" font-size="14.00">Abmeldedatum?</text>
</g>
<!-- 1&#45;&gt;4 -->
<g id="edge2" class="edge">
<title>1-&gt;4</title>
<path fill="none" stroke="#88a0d6" d="M956.95,-1268.8C1037.02,-1237.99 1132.16,-1201.39 1194.4,-1177.44"/>
<polygon fill="#88a0d6" stroke="#88a0d6" points="1195.37,-1180.81 1203.45,-1173.96 1192.86,-1174.28 1195.37,-1180.81"/>
<text text-anchor="start" x="1034.9" y="-1238.44" font-family="Roboto, sans-serif" font-weight="bold" font-size="14.00">JA</text>
</g>
<!-- Hinweis: Es liegt einer der folgenden
Transaktionsgr&#252;nde vor:
&#61599; Ein&#45;/Auszug (Umzug)
&#61599; Auszug wegen Stilllegung
&#61599; Aufhebung einer zuk&#252;nftigen Zuordnung
wegen Auszug des Kunden
&#61599; Aufhebung einer zuk&#252;nftigen Zuordnung
wegen Stilllegung -->
<g id="node3" class="node">
<title>Hinweis: Es liegt einer der folgenden
Transaktionsgr&#252;nde vor:
&#61599; Ein-/Auszug (Umzug)
&#61599; Auszug wegen Stilllegung
&#61599; Aufhebung einer zuk&#252;nftigen Zuordnung
wegen Auszug des Kunden
&#61599; Aufhebung einer zuk&#252;nftigen Zuordnung
wegen Stilllegung</title>
<path fill="#c4cac1" stroke="black" stroke-width="0" d="M1230.18,-1576.3C1230.18,-1576.3 921.63,-1576.3 921.63,-1576.3 915.63,-1576.3 909.63,-1570.3 909.63,-1564.3 909.63,-1564.3 909.63,-1433.02 909.63,-1433.02 909.63,-1427.02 915.63,-1421.02 921.63,-1421.02 921.63,-1421.02 1230.18,-1421.02 1230.18,-1421.02 1236.18,-1421.02 1242.18,-1427.02 1242.18,-1433.02 1242.18,-1433.02 1242.18,-1564.3 1242.18,-1564.3 1242.18,-1570.3 1236.18,-1576.3 1230.18,-1576.3"/>
<text text-anchor="start" x="924.03" y="-1554.36" font-family="Roboto, sans-serif" font-size="14.00">Hinweis: Es liegt einer der folgenden</text>
<text text-anchor="start" x="924.03" y="-1537.11" font-family="Roboto, sans-serif" font-size="14.00">Transaktionsgr&#252;nde vor:</text>
<text text-anchor="start" x="924.03" y="-1519.86" font-family="Roboto, sans-serif" font-size="14.00">&#61599; Ein-/Auszug (Umzug)</text>
<text text-anchor="start" x="924.03" y="-1502.61" font-family="Roboto, sans-serif" font-size="14.00">&#61599; Auszug wegen Stilllegung</text>
<text text-anchor="start" x="924.03" y="-1485.36" font-family="Roboto, sans-serif" font-size="14.00">&#61599; Aufhebung einer zuk&#252;nftigen Zuordnung</text>
<text text-anchor="start" x="924.03" y="-1468.11" font-family="Roboto, sans-serif" font-size="14.00">wegen Auszug des Kunden</text>
<text text-anchor="start" x="924.03" y="-1450.86" font-family="Roboto, sans-serif" font-size="14.00">&#61599; Aufhebung einer zuk&#252;nftigen Zuordnung</text>
<text text-anchor="start" x="924.03" y="-1433.61" font-family="Roboto, sans-serif" font-size="14.00">wegen Stilllegung</text>
</g>
<!-- 3 -->
<g id="node6" class="node">
<title>3</title>
<path fill="#c2cee9" stroke="black" stroke-width="0" d="M1025.8,-1018.96C1025.8,-1018.96 598,-1018.96 598,-1018.96 592,-1018.96 586,-1012.96 586,-1006.96 586,-1006.96 586,-985.68 586,-985.68 586,-979.68 592,-973.68 598,-973.68 598,-973.68 1025.8,-973.68 1025.8,-973.68 1031.8,-973.68 1037.8,-979.68 1037.8,-985.68 1037.8,-985.68 1037.8,-1006.96 1037.8,-1006.96 1037.8,-1012.96 1031.8,-1018.96 1025.8,-1018.96"/>
<text text-anchor="start" x="600.4" y="-998.02" font-family="Roboto, sans-serif" font-weight="bold" font-size="14.00">3: </text>
<text text-anchor="start" x="619.9" y="-998.02" font-family="Roboto, sans-serif" font-size="14.00">Liegt das Abmeldedatum mindestens einen Tag nach dem</text>
<text text-anchor="start" x="600.4" y="-984.02" font-family="Roboto, sans-serif" font-size="14.00">Eingangsdatum der Abmeldung?</text>
</g>
<!-- 2&#45;&gt;3 -->
<g id="edge4" class="edge">
<title>2-&gt;3</title>
<path fill="none" stroke="#88a0d6" d="M810.73,-1086.49C810.99,-1066.99 811.26,-1046.34 811.47,-1029.82"/>
<polygon fill="#88a0d6" stroke="#88a0d6" points="814.97,-1030.16 811.6,-1020.12 807.97,-1030.07 814.97,-1030.16"/>
<text text-anchor="start" x="810.9" y="-1055.91" font-family="Roboto, sans-serif" font-weight="bold" font-size="14.00">JA</text>
</g>
<!-- 6 -->
<g id="node12" class="node">
<title>6</title>
<path fill="#c2cee9" stroke="black" stroke-width="0" d="M555.55,-1025.96C555.55,-1025.96 150.25,-1025.96 150.25,-1025.96 144.25,-1025.96 138.25,-1019.96 138.25,-1013.96 138.25,-1013.96 138.25,-978.68 138.25,-978.68 138.25,-972.68 144.25,-966.68 150.25,-966.68 150.25,-966.68 555.55,-966.68 555.55,-966.68 561.55,-966.68 567.55,-972.68 567.55,-978.68 567.55,-978.68 567.55,-1013.96 567.55,-1013.96 567.55,-1019.96 561.55,-1025.96 555.55,-1025.96"/>
<text text-anchor="start" x="152.65" y="-1005.02" font-family="Roboto, sans-serif" font-weight="bold" font-size="14.00">6: </text>
<text text-anchor="start" x="172.15" y="-1005.02" font-family="Roboto, sans-serif" font-size="14.00">Handelt es sich um eine Marktlokation, deren Mess-</text>
<text text-anchor="start" x="152.65" y="-991.02" font-family="Roboto, sans-serif" font-size="14.00">lokationen vollst&#228;ndig mit iMS ausgestattet sind oder/und</text>
<text text-anchor="start" x="152.65" y="-977.02" font-family="Roboto, sans-serif" font-size="14.00">deren Prognosegrundlage auf Basis von Werten erfolgt?</text>
</g>
<!-- 2&#45;&gt;6 -->
<g id="edge5" class="edge">
<title>2-&gt;6</title>
<path fill="none" stroke="#88a0d6" d="M619.4,-1086.27C560.76,-1066.7 498.68,-1045.98 449.21,-1029.47"/>
<polygon fill="#88a0d6" stroke="#88a0d6" points="450.56,-1026.23 439.97,-1026.38 448.34,-1032.87 450.56,-1026.23"/>
<text text-anchor="start" x="553.9" y="-1055.91" font-family="Roboto, sans-serif" font-weight="bold" font-size="14.00">NEIN</text>
</g>
<!-- Hinweis: Es liegt einer der folgenden
Transaktionsgr&#252;nde vor:
&#61599; Ein&#45;/Auszug (Umzug)
&#61599; Auszug wegen Stilllegung -->
<g id="node5" class="node">
<title>Hinweis: Es liegt einer der folgenden
Transaktionsgr&#252;nde vor:
&#61599; Ein-/Auszug (Umzug)
&#61599; Auszug wegen Stilllegung</title>
<path fill="#c4cac1" stroke="black" stroke-width="0" d="M1533.18,-1541.8C1533.18,-1541.8 1272.62,-1541.8 1272.62,-1541.8 1266.62,-1541.8 1260.62,-1535.8 1260.62,-1529.8 1260.62,-1529.8 1260.62,-1467.52 1260.62,-1467.52 1260.62,-1461.52 1266.62,-1455.52 1272.62,-1455.52 1272.62,-1455.52 1533.18,-1455.52 1533.18,-1455.52 1539.18,-1455.52 1545.18,-1461.52 1545.18,-1467.52 1545.18,-1467.52 1545.18,-1529.8 1545.18,-1529.8 1545.18,-1535.8 1539.18,-1541.8 1533.18,-1541.8"/>
<text text-anchor="start" x="1275.03" y="-1519.86" font-family="Roboto, sans-serif" font-size="14.00">Hinweis: Es liegt einer der folgenden</text>
<text text-anchor="start" x="1275.03" y="-1502.61" font-family="Roboto, sans-serif" font-size="14.00">Transaktionsgr&#252;nde vor:</text>
<text text-anchor="start" x="1275.03" y="-1485.36" font-family="Roboto, sans-serif" font-size="14.00">&#61599; Ein-/Auszug (Umzug)</text>
<text text-anchor="start" x="1275.03" y="-1468.11" font-family="Roboto, sans-serif" font-size="14.00">&#61599; Auszug wegen Stilllegung</text>
</g>
<!-- A01 -->
<g id="node7" class="node">
<title>A01</title>
<path fill="#c4cac1" stroke="black" stroke-width="0" d="M1276.68,-906.43C1276.68,-906.43 947.13,-906.43 947.13,-906.43 941.13,-906.43 935.13,-900.43 935.13,-894.43 935.13,-894.43 935.13,-832.15 935.13,-832.15 935.13,-826.15 941.13,-820.15 947.13,-820.15 947.13,-820.15 1276.68,-820.15 1276.68,-820.15 1282.68,-820.15 1288.68,-826.15 1288.68,-832.15 1288.68,-832.15 1288.68,-894.43 1288.68,-894.43 1288.68,-900.43 1282.68,-906.43 1276.68,-906.43"/>
<text text-anchor="start" x="949.53" y="-884.49" font-family="Roboto, sans-serif" font-size="14.00">Cluster: Ablehnung</text>
<text text-anchor="start" x="949.53" y="-867.24" font-family="Roboto, sans-serif" font-size="14.00">Frist&#252;berschreitung bei Aufhebung einer zu-</text>
<text text-anchor="start" x="949.53" y="-849.99" font-family="Roboto, sans-serif" font-size="14.00">k&#252;nftigen Zuordnung wegen Auszug oder Still-</text>
<text text-anchor="start" x="949.53" y="-832.74" font-family="Roboto, sans-serif" font-size="14.00">legung.</text>
</g>
<!-- 3&#45;&gt;A01 -->
<g id="edge6" class="edge">
<title>3-&gt;A01</title>
<path fill="none" stroke="#88a0d6" d="M861.44,-973.68C900.44,-956.65 956.2,-932.29 1005.22,-910.89"/>
<polygon fill="#88a0d6" stroke="#88a0d6" points="1006.42,-914.18 1014.18,-906.97 1003.61,-907.77 1006.42,-914.18"/>
<text text-anchor="start" x="969.9" y="-929.38" font-family="Roboto, sans-serif" font-weight="bold" font-size="14.00">NEIN</text>
</g>
<!-- 9 -->
<g id="node17" class="node">
<title>9</title>
<path fill="#c2cee9" stroke="black" stroke-width="0" d="M1835.93,-892.93C1835.93,-892.93 1393.88,-892.93 1393.88,-892.93 1387.88,-892.93 1381.88,-886.93 1381.88,-880.93 1381.88,-880.93 1381.88,-845.65 1381.88,-845.65 1381.88,-839.65 1387.88,-833.65 1393.88,-833.65 1393.88,-833.65 1835.93,-833.65 1835.93,-833.65 1841.93,-833.65 1847.93,-839.65 1847.93,-845.65 1847.93,-845.65 1847.93,-880.93 1847.93,-880.93 1847.93,-886.93 1841.93,-892.93 1835.93,-892.93"/>
<text text-anchor="start" x="1396.28" y="-871.99" font-family="Roboto, sans-serif" font-weight="bold" font-size="14.00">9: </text>
<text text-anchor="start" x="1415.78" y="-871.99" font-family="Roboto, sans-serif" font-size="14.00">Erfolgt die Aufhebung einer zuk&#252;nftigen Zuordnung zu dem</text>
<text text-anchor="start" x="1396.28" y="-857.99" font-family="Roboto, sans-serif" font-size="14.00">gleichen Datum (Zeitpunkt), welcher dem Lieferanten im</text>
<text text-anchor="start" x="1396.28" y="-843.99" font-family="Roboto, sans-serif" font-size="14.00">Lieferbeginn best&#228;tigt wurde?</text>
</g>
<!-- 3&#45;&gt;9 -->
<g id="edge7" class="edge">
<title>3-&gt;9</title>
<path fill="none" stroke="#88a0d6" d="M949.63,-973.71C1062.18,-955.95 1225.4,-929.98 1367.9,-906.43 1390.41,-902.71 1414.06,-898.75 1437.44,-894.79"/>
<polygon fill="#88a0d6" stroke="#88a0d6" points="1437.76,-898.29 1447.04,-893.17 1436.59,-891.39 1437.76,-898.29"/>
<text text-anchor="start" x="1245.9" y="-929.38" font-family="Roboto, sans-serif" font-weight="bold" font-size="14.00">JA</text>
</g>
<!-- A02 -->
<g id="node9" class="node">
<title>A02</title>
<path fill="#c4cac1" stroke="black" stroke-width="0" d="M1835.68,-1030.84C1835.68,-1030.84 1494.12,-1030.84 1494.12,-1030.84 1488.12,-1030.84 1482.12,-1024.84 1482.12,-1018.84 1482.12,-1018.84 1482.12,-973.8 1482.12,-973.8 1482.12,-967.8 1488.12,-961.8 1494.12,-961.8 1494.12,-961.8 1835.68,-961.8 1835.68,-961.8 1841.68,-961.8 1847.68,-967.8 1847.68,-973.8 1847.68,-973.8 1847.68,-1018.84 1847.68,-1018.84 1847.68,-1024.84 1841.68,-1030.84 1835.68,-1030.84"/>
<text text-anchor="start" x="1496.53" y="-1008.89" font-family="Roboto, sans-serif" font-size="14.00">Cluster: Ablehnung</text>
<text text-anchor="start" x="1496.53" y="-991.64" font-family="Roboto, sans-serif" font-size="14.00">Frist&#252;berschreitung bei Transaktionsgr&#252;nden f&#252;r</text>
<text text-anchor="start" x="1496.53" y="-974.39" font-family="Roboto, sans-serif" font-size="14.00">eine Abmeldung in der Zukunft.</text>
</g>
<!-- 4&#45;&gt;A02 -->
<g id="edge8" class="edge">
<title>4-&gt;A02</title>
<path fill="none" stroke="#88a0d6" d="M1317.93,-1128.32C1382.25,-1104.04 1488.02,-1064.1 1565.9,-1034.7"/>
<polygon fill="#88a0d6" stroke="#88a0d6" points="1566.68,-1038.14 1574.8,-1031.34 1564.21,-1031.6 1566.68,-1038.14"/>
<text text-anchor="start" x="1521.9" y="-1055.91" font-family="Roboto, sans-serif" font-weight="bold" font-size="14.00">NEIN</text>
</g>
<!-- 5 -->
<g id="node10" class="node">
<title>5</title>
<path fill="#c2cee9" stroke="black" stroke-width="0" d="M1452.05,-1032.96C1452.05,-1032.96 1067.75,-1032.96 1067.75,-1032.96 1061.75,-1032.96 1055.75,-1026.96 1055.75,-1020.96 1055.75,-1020.96 1055.75,-971.68 1055.75,-971.68 1055.75,-965.68 1061.75,-959.68 1067.75,-959.68 1067.75,-959.68 1452.05,-959.68 1452.05,-959.68 1458.05,-959.68 1464.05,-965.68 1464.05,-971.68 1464.05,-971.68 1464.05,-1020.96 1464.05,-1020.96 1464.05,-1026.96 1458.05,-1032.96 1452.05,-1032.96"/>
<text text-anchor="start" x="1070.15" y="-1012.02" font-family="Roboto, sans-serif" font-weight="bold" font-size="14.00">5: </text>
<text text-anchor="start" x="1089.65" y="-1012.02" font-family="Roboto, sans-serif" font-size="14.00">Liegt der Transaktionsgrund</text>
<text text-anchor="start" x="1070.15" y="-998.02" font-family="Roboto, sans-serif" font-size="14.00">&#8226; Aufhebung einer zuk&#252;nftigen Zuordnung wegen auf-</text>
<text text-anchor="start" x="1070.15" y="-984.02" font-family="Roboto, sans-serif" font-size="14.00">gehobenem Vertragsverh&#228;ltnis</text>
<text text-anchor="start" x="1070.15" y="-970.02" font-family="Roboto, sans-serif" font-size="14.00">vor?</text>
</g>
<!-- 4&#45;&gt;5 -->
<g id="edge9" class="edge">
<title>4-&gt;5</title>
<path fill="none" stroke="#88a0d6" d="M1260.76,-1128.32C1260.62,-1106.52 1260.39,-1072.12 1260.21,-1044.04"/>
<polygon fill="#88a0d6" stroke="#88a0d6" points="1263.71,-1044.33 1260.14,-1034.35 1256.71,-1044.38 1263.71,-1044.33"/>
<text text-anchor="start" x="1259.9" y="-1055.91" font-family="Roboto, sans-serif" font-weight="bold" font-size="14.00">JA</text>
</g>
<!-- 5&#45;&gt;9 -->
<g id="edge10" class="edge">
<title>5-&gt;9</title>
<path fill="none" stroke="#88a0d6" d="M1435.15,-959.76C1452.88,-954.43 1470.41,-948.42 1486.9,-941.68 1514.24,-930.51 1542.56,-913.98 1565.59,-899.07"/>
<polygon fill="#88a0d6" stroke="#88a0d6" points="1567.42,-902.05 1573.85,-893.63 1563.57,-896.21 1567.42,-902.05"/>
<text text-anchor="start" x="1519.9" y="-929.38" font-family="Roboto, sans-serif" font-weight="bold" font-size="14.00">JA</text>
</g>
<!-- 10 -->
<g id="node19" class="node">
<title>10</title>
<path fill="#c2cee9" stroke="black" stroke-width="0" d="M1361.05,-766.9C1361.05,-766.9 928.75,-766.9 928.75,-766.9 922.75,-766.9 916.75,-760.9 916.75,-754.9 916.75,-754.9 916.75,-607.62 916.75,-607.62 916.75,-601.62 922.75,-595.62 928.75,-595.62 928.75,-595.62 1361.05,-595.62 1361.05,-595.62 1367.05,-595.62 1373.05,-601.62 1373.05,-607.62 1373.05,-607.62 1373.05,-754.9 1373.05,-754.9 1373.05,-760.9 1367.05,-766.9 1361.05,-766.9"/>
<text text-anchor="start" x="931.15" y="-745.96" font-family="Roboto, sans-serif" font-weight="bold" font-size="14.00">10: </text>
<text text-anchor="start" x="960.4" y="-745.96" font-family="Roboto, sans-serif" font-size="14.00">Wurde die Zuordnung des anfragenden Lieferanten zur</text>
<text text-anchor="start" x="931.15" y="-731.96" font-family="Roboto, sans-serif" font-size="14.00">Marktlokation zum identischen Abmeldedatum bereits durch</text>
<text text-anchor="start" x="931.15" y="-717.96" font-family="Roboto, sans-serif" font-size="14.00">eine Best&#228;tigung in den folgenden Prozessschritten beendet?</text>
<text text-anchor="start" x="931.15" y="-703.96" font-family="Roboto, sans-serif" font-size="14.00">Fall:</text>
<text text-anchor="start" x="931.15" y="-689.96" font-family="Roboto, sans-serif" font-size="14.00">&#61599; SD: Lieferende von LF an NB, Prozessschritt 2 "Antwort</text>
<text text-anchor="start" x="931.15" y="-675.96" font-family="Roboto, sans-serif" font-size="14.00">auf Abmeldung"</text>
<text text-anchor="start" x="931.15" y="-661.96" font-family="Roboto, sans-serif" font-size="14.00">&#61599; SD: Lieferende von NB an LF, Prozessschritt 2 "Antwort</text>
<text text-anchor="start" x="931.15" y="-647.96" font-family="Roboto, sans-serif" font-size="14.00">auf Abmeldung"</text>
<text text-anchor="start" x="931.15" y="-633.96" font-family="Roboto, sans-serif" font-size="14.00">&#61599; SD: Lieferbeginn, Prozessschritt 4 "Beantwortung der</text>
<text text-anchor="start" x="931.15" y="-619.96" font-family="Roboto, sans-serif" font-size="14.00">Abmeldeanfrage" oder die Best&#228;tigung erfolgt durch</text>
<text text-anchor="start" x="931.15" y="-605.96" font-family="Roboto, sans-serif" font-size="14.00">die Fristverstreichung</text>
</g>
<!-- 5&#45;&gt;10 -->
<g id="edge11" class="edge">
<title>5-&gt;10</title>
<path fill="none" stroke="#88a0d6" d="M1280.13,-959.77C1297.99,-923.41 1318.27,-865.92 1297.9,-820.15 1290.68,-803.92 1280.49,-788.79 1268.77,-774.95"/>
<polygon fill="#88a0d6" stroke="#88a0d6" points="1271.54,-772.8 1262.29,-767.64 1266.3,-777.44 1271.54,-772.8"/>
<text text-anchor="start" x="1305.9" y="-859.62" font-family="Roboto, sans-serif" font-weight="bold" font-size="14.00">NEIN</text>
</g>
<!-- Hinweis: Es liegt einer der folgenden
Transaktionsgr&#252;nde vor:
&#8226; Wechsel
&#8226; Ende der ESV ohne Folgelieferung -->
<g id="node11" class="node">
<title>Hinweis: Es liegt einer der folgenden
Transaktionsgr&#252;nde vor:
&#8226; Wechsel
&#8226; Ende der ESV ohne Folgelieferung</title>
<path fill="#c4cac1" stroke="black" stroke-width="0" d="M1836.18,-1541.8C1836.18,-1541.8 1575.62,-1541.8 1575.62,-1541.8 1569.62,-1541.8 1563.62,-1535.8 1563.62,-1529.8 1563.62,-1529.8 1563.62,-1467.52 1563.62,-1467.52 1563.62,-1461.52 1569.62,-1455.52 1575.62,-1455.52 1575.62,-1455.52 1836.18,-1455.52 1836.18,-1455.52 1842.18,-1455.52 1848.18,-1461.52 1848.18,-1467.52 1848.18,-1467.52 1848.18,-1529.8 1848.18,-1529.8 1848.18,-1535.8 1842.18,-1541.8 1836.18,-1541.8"/>
<text text-anchor="start" x="1578.03" y="-1519.86" font-family="Roboto, sans-serif" font-size="14.00">Hinweis: Es liegt einer der folgenden</text>
<text text-anchor="start" x="1578.03" y="-1502.61" font-family="Roboto, sans-serif" font-size="14.00">Transaktionsgr&#252;nde vor:</text>
<text text-anchor="start" x="1578.03" y="-1485.36" font-family="Roboto, sans-serif" font-size="14.00">&#8226; Wechsel</text>
<text text-anchor="start" x="1578.03" y="-1468.11" font-family="Roboto, sans-serif" font-size="14.00">&#8226; Ende der ESV ohne Folgelieferung</text>
</g>
<!-- 7 -->
<g id="node13" class="node">
<title>7</title>
<path fill="#c2cee9" stroke="black" stroke-width="0" d="M439.8,-885.93C439.8,-885.93 12,-885.93 12,-885.93 6,-885.93 0,-879.93 0,-873.93 0,-873.93 0,-852.65 0,-852.65 0,-846.65 6,-840.65 12,-840.65 12,-840.65 439.8,-840.65 439.8,-840.65 445.8,-840.65 451.8,-846.65 451.8,-852.65 451.8,-852.65 451.8,-873.93 451.8,-873.93 451.8,-879.93 445.8,-885.93 439.8,-885.93"/>
<text text-anchor="start" x="14.4" y="-864.99" font-family="Roboto, sans-serif" font-weight="bold" font-size="14.00">7: </text>
<text text-anchor="start" x="33.9" y="-864.99" font-family="Roboto, sans-serif" font-size="14.00">Liegt das Abmeldedatum mindestens einen Tag nach dem</text>
<text text-anchor="start" x="14.4" y="-850.99" font-family="Roboto, sans-serif" font-size="14.00">Eingangsdatum der Abmeldung?</text>
</g>
<!-- 6&#45;&gt;7 -->
<g id="edge12" class="edge">
<title>6-&gt;7</title>
<path fill="none" stroke="#88a0d6" d="M325.34,-966.89C304.48,-945.36 275.89,-915.86 254.72,-894.02"/>
<polygon fill="#88a0d6" stroke="#88a0d6" points="257.24,-891.6 247.77,-886.85 252.22,-896.47 257.24,-891.6"/>
<text text-anchor="start" x="299.9" y="-929.38" font-family="Roboto, sans-serif" font-weight="bold" font-size="14.00">JA</text>
</g>
<!-- 8 -->
<g id="node15" class="node">
<title>8</title>
<path fill="#c2cee9" stroke="black" stroke-width="0" d="M905.55,-885.93C905.55,-885.93 482.25,-885.93 482.25,-885.93 476.25,-885.93 470.25,-879.93 470.25,-873.93 470.25,-873.93 470.25,-852.65 470.25,-852.65 470.25,-846.65 476.25,-840.65 482.25,-840.65 482.25,-840.65 905.55,-840.65 905.55,-840.65 911.55,-840.65 917.55,-846.65 917.55,-852.65 917.55,-852.65 917.55,-873.93 917.55,-873.93 917.55,-879.93 911.55,-885.93 905.55,-885.93"/>
<text text-anchor="start" x="484.65" y="-864.99" font-family="Roboto, sans-serif" font-weight="bold" font-size="14.00">8: </text>
<text text-anchor="start" x="504.15" y="-864.99" font-family="Roboto, sans-serif" font-size="14.00">Liegt das Eingangsdatum der Abmeldung mehr als sechs</text>
<text text-anchor="start" x="484.65" y="-850.99" font-family="Roboto, sans-serif" font-size="14.00">Wochen nach dem Abmeldedatum der Abmeldung?</text>
</g>
<!-- 6&#45;&gt;8 -->
<g id="edge13" class="edge">
<title>6-&gt;8</title>
<path fill="none" stroke="#88a0d6" d="M427.31,-966.73C486.9,-943.83 569.74,-912 627.19,-889.92"/>
<polygon fill="#88a0d6" stroke="#88a0d6" points="628.12,-893.31 636.2,-886.46 625.61,-886.78 628.12,-893.31"/>
<text text-anchor="start" x="532.9" y="-929.38" font-family="Roboto, sans-serif" font-weight="bold" font-size="14.00">NEIN</text>
</g>
<!-- A03 -->
<g id="node14" class="node">
<title>A03</title>
<path fill="#c4cac1" stroke="black" stroke-width="0" d="M383.93,-715.77C383.93,-715.77 67.88,-715.77 67.88,-715.77 61.88,-715.77 55.88,-709.77 55.88,-703.77 55.88,-703.77 55.88,-658.75 55.88,-658.75 55.88,-652.75 61.88,-646.75 67.88,-646.75 67.88,-646.75 383.93,-646.75 383.93,-646.75 389.93,-646.75 395.93,-652.75 395.93,-658.75 395.93,-658.75 395.93,-703.77 395.93,-703.77 395.93,-709.77 389.93,-715.77 383.93,-715.77"/>
<text text-anchor="start" x="70.28" y="-693.84" font-family="Roboto, sans-serif" font-size="14.00">Cluster: Ablehnung</text>
<text text-anchor="start" x="70.28" y="-676.59" font-family="Roboto, sans-serif" font-size="14.00">Eingangsfrist bei iMS/kME mit RLM nicht ein-</text>
<text text-anchor="start" x="70.28" y="-659.34" font-family="Roboto, sans-serif" font-size="14.00">gehalten.</text>
</g>
<!-- 7&#45;&gt;A03 -->
<g id="edge14" class="edge">
<title>7-&gt;A03</title>
<path fill="none" stroke="#88a0d6" d="M225.9,-840.93C225.9,-812.94 225.9,-763.16 225.9,-726.8"/>
<polygon fill="#88a0d6" stroke="#88a0d6" points="229.4,-727.02 225.9,-717.02 222.4,-727.02 229.4,-727.02"/>
<text text-anchor="start" x="225.9" y="-789.85" font-family="Roboto, sans-serif" font-weight="bold" font-size="14.00">NEIN</text>
</g>
<!-- 7&#45;&gt;10 -->
<g id="edge15" class="edge">
<title>7-&gt;10</title>
<path fill="none" stroke="#88a0d6" d="M331.97,-840.66C372.2,-833.15 418.52,-825.32 460.9,-820.15 582.92,-805.28 615.53,-821.66 736.9,-802.15 798.55,-792.24 812.85,-784.01 872.9,-766.9 883.8,-763.79 894.93,-760.56 906.17,-757.26"/>
<polygon fill="#88a0d6" stroke="#88a0d6" points="906.91,-760.69 915.51,-754.5 904.93,-753.97 906.91,-760.69"/>
<text text-anchor="start" x="811.9" y="-789.85" font-family="Roboto, sans-serif" font-weight="bold" font-size="14.00">JA</text>
</g>
<!-- A04 -->
<g id="node16" class="node">
<title>A04</title>
<path fill="#c4cac1" stroke="black" stroke-width="0" d="M851.55,-715.77C851.55,-715.77 536.25,-715.77 536.25,-715.77 530.25,-715.77 524.25,-709.77 524.25,-703.77 524.25,-703.77 524.25,-658.75 524.25,-658.75 524.25,-652.75 530.25,-646.75 536.25,-646.75 536.25,-646.75 851.55,-646.75 851.55,-646.75 857.55,-646.75 863.55,-652.75 863.55,-658.75 863.55,-658.75 863.55,-703.77 863.55,-703.77 863.55,-709.77 857.55,-715.77 851.55,-715.77"/>
<text text-anchor="start" x="538.65" y="-693.84" font-family="Roboto, sans-serif" font-size="14.00">Cluster: Ablehnung</text>
<text text-anchor="start" x="538.65" y="-676.59" font-family="Roboto, sans-serif" font-size="14.00">Frist&#252;berschreitung bei kME ohne RLM/mME/</text>
<text text-anchor="start" x="538.65" y="-659.34" font-family="Roboto, sans-serif" font-size="14.00">Pauschalanlage.</text>
</g>
<!-- 8&#45;&gt;A04 -->
<g id="edge16" class="edge">
<title>8-&gt;A04</title>
<path fill="none" stroke="#88a0d6" d="M693.9,-840.93C693.9,-812.94 693.9,-763.16 693.9,-726.8"/>
<polygon fill="#88a0d6" stroke="#88a0d6" points="697.4,-727.02 693.9,-717.02 690.4,-727.02 697.4,-727.02"/>
<text text-anchor="start" x="693.9" y="-789.85" font-family="Roboto, sans-serif" font-weight="bold" font-size="14.00">NEIN</text>
</g>
<!-- 8&#45;&gt;10 -->
<g id="edge17" class="edge">
<title>8-&gt;10</title>
<path fill="none" stroke="#88a0d6" d="M752.97,-840.78C783.5,-829.52 821.3,-815.37 854.9,-802.15 880.08,-792.25 906.4,-781.68 932.47,-771.07"/>
<polygon fill="#88a0d6" stroke="#88a0d6" points="933.5,-774.43 941.44,-767.41 930.86,-767.94 933.5,-774.43"/>
<text text-anchor="start" x="893.9" y="-789.85" font-family="Roboto, sans-serif" font-weight="bold" font-size="14.00">JA</text>
</g>
<!-- A05 -->
<g id="node18" class="node">
<title>A05</title>
<path fill="#c4cac1" stroke="black" stroke-width="0" d="M1791.3,-724.4C1791.3,-724.4 1438.5,-724.4 1438.5,-724.4 1432.5,-724.4 1426.5,-718.4 1426.5,-712.4 1426.5,-712.4 1426.5,-650.12 1426.5,-650.12 1426.5,-644.12 1432.5,-638.12 1438.5,-638.12 1438.5,-638.12 1791.3,-638.12 1791.3,-638.12 1797.3,-638.12 1803.3,-644.12 1803.3,-650.12 1803.3,-650.12 1803.3,-712.4 1803.3,-712.4 1803.3,-718.4 1797.3,-724.4 1791.3,-724.4"/>
<text text-anchor="start" x="1440.9" y="-702.46" font-family="Roboto, sans-serif" font-size="14.00">Cluster: Ablehnung</text>
<text text-anchor="start" x="1440.9" y="-685.21" font-family="Roboto, sans-serif" font-size="14.00">Die Aufhebung einer zuk&#252;nftigen Zuordnung</text>
<text text-anchor="start" x="1440.9" y="-667.96" font-family="Roboto, sans-serif" font-size="14.00">muss zum Datum (Zeitpunkt) angegeben werden,</text>
<text text-anchor="start" x="1440.9" y="-650.71" font-family="Roboto, sans-serif" font-size="14.00">wie im Lieferbeginn best&#228;tigt.</text>
</g>
<!-- 9&#45;&gt;A05 -->
<g id="edge18" class="edge">
<title>9-&gt;A05</title>
<path fill="none" stroke="#88a0d6" d="M1614.9,-833.76C1614.9,-807.54 1614.9,-767.97 1614.9,-735.85"/>
<polygon fill="#88a0d6" stroke="#88a0d6" points="1618.4,-735.91 1614.9,-725.91 1611.4,-735.91 1618.4,-735.91"/>
<text text-anchor="start" x="1614.9" y="-789.85" font-family="Roboto, sans-serif" font-weight="bold" font-size="14.00">NEIN</text>
</g>
<!-- 9&#45;&gt;10 -->
<g id="edge19" class="edge">
<title>9-&gt;10</title>
<path fill="none" stroke="#88a0d6" d="M1540.17,-833.66C1495.39,-816.51 1435.79,-793.68 1376.48,-770.97"/>
<polygon fill="#88a0d6" stroke="#88a0d6" points="1377.81,-767.73 1367.22,-767.42 1375.31,-774.26 1377.81,-767.73"/>
<text text-anchor="start" x="1448.9" y="-789.85" font-family="Roboto, sans-serif" font-weight="bold" font-size="14.00">JA</text>
</g>
<!-- A06 -->
<g id="node20" class="node">
<title>A06</title>
<path fill="#c4cac1" stroke="black" stroke-width="0" d="M1148.55,-426.09C1148.55,-426.09 947.25,-426.09 947.25,-426.09 941.25,-426.09 935.25,-420.09 935.25,-414.09 935.25,-414.09 935.25,-386.31 935.25,-386.31 935.25,-380.31 941.25,-374.31 947.25,-374.31 947.25,-374.31 1148.55,-374.31 1148.55,-374.31 1154.55,-374.31 1160.55,-380.31 1160.55,-386.31 1160.55,-386.31 1160.55,-414.09 1160.55,-414.09 1160.55,-420.09 1154.55,-426.09 1148.55,-426.09"/>
<text text-anchor="start" x="949.65" y="-404.15" font-family="Roboto, sans-serif" font-size="14.00">Cluster: Zustimmung</text>
<text text-anchor="start" x="949.65" y="-386.9" font-family="Roboto, sans-serif" font-size="14.00">Best&#228;tigung der Abmeldung</text>
</g>
<!-- 10&#45;&gt;A06 -->
<g id="edge21" class="edge">
<title>10-&gt;A06</title>
<path fill="none" stroke="#88a0d6" d="M1081.71,-595.71C1071.79,-578.79 1062.85,-560.59 1056.9,-542.37 1045.64,-507.9 1044.37,-466.23 1045.32,-437.13"/>
<polygon fill="#88a0d6" stroke="#88a0d6" points="1048.8,-437.53 1045.75,-427.39 1041.81,-437.22 1048.8,-437.53"/>
<text text-anchor="start" x="1056.9" y="-516.06" font-family="Roboto, sans-serif" font-weight="bold" font-size="14.00">NEIN</text>
</g>
<!-- 11 -->
<g id="node21" class="node">
<title>11</title>
<path fill="#c2cee9" stroke="black" stroke-width="0" d="M1585.05,-542.37C1585.05,-542.37 1116.75,-542.37 1116.75,-542.37 1110.75,-542.37 1104.75,-536.37 1104.75,-530.37 1104.75,-530.37 1104.75,-509.09 1104.75,-509.09 1104.75,-503.09 1110.75,-497.09 1116.75,-497.09 1116.75,-497.09 1585.05,-497.09 1585.05,-497.09 1591.05,-497.09 1597.05,-503.09 1597.05,-509.09 1597.05,-509.09 1597.05,-530.37 1597.05,-530.37 1597.05,-536.37 1591.05,-542.37 1585.05,-542.37"/>
<text text-anchor="start" x="1119.15" y="-521.43" font-family="Roboto, sans-serif" font-weight="bold" font-size="14.00">11: </text>
<text text-anchor="start" x="1148.4" y="-521.43" font-family="Roboto, sans-serif" font-size="14.00">Ist der anfragende LF am Folgetag des Abmeldungsdatum der</text>
<text text-anchor="start" x="1119.15" y="-507.43" font-family="Roboto, sans-serif" font-size="14.00">Marktlokation noch zugeordnet?</text>
</g>
<!-- 10&#45;&gt;11 -->
<g id="edge20" class="edge">
<title>10-&gt;11</title>
<path fill="none" stroke="#88a0d6" d="M1253.93,-595.82C1275.59,-579.05 1296.9,-562.55 1313.99,-549.31"/>
<polygon fill="#88a0d6" stroke="#88a0d6" points="1316.07,-552.13 1321.84,-543.24 1311.79,-546.59 1316.07,-552.13"/>
<text text-anchor="start" x="1294.9" y="-565.32" font-family="Roboto, sans-serif" font-weight="bold" font-size="14.00">JA</text>
</g>
<!-- 11&#45;&gt;A06 -->
<g id="edge23" class="edge">
<title>11-&gt;A06</title>
<path fill="none" stroke="#88a0d6" d="M1295.33,-497.17C1246.79,-478.35 1175.95,-450.87 1122.5,-430.14"/>
<polygon fill="#88a0d6" stroke="#88a0d6" points="1124.05,-426.98 1113.46,-426.63 1121.52,-433.51 1124.05,-426.98"/>
<text text-anchor="start" x="1243.9" y="-466.79" font-family="Roboto, sans-serif" font-weight="bold" font-size="14.00">JA</text>
</g>
<!-- 12 -->
<g id="node22" class="node">
<title>12</title>
<path fill="#c2cee9" stroke="black" stroke-width="0" d="M1630.8,-443.84C1630.8,-443.84 1191,-443.84 1191,-443.84 1185,-443.84 1179,-437.84 1179,-431.84 1179,-431.84 1179,-368.56 1179,-368.56 1179,-362.56 1185,-356.56 1191,-356.56 1191,-356.56 1630.8,-356.56 1630.8,-356.56 1636.8,-356.56 1642.8,-362.56 1642.8,-368.56 1642.8,-368.56 1642.8,-431.84 1642.8,-431.84 1642.8,-437.84 1636.8,-443.84 1630.8,-443.84"/>
<text text-anchor="start" x="1193.4" y="-422.9" font-family="Roboto, sans-serif" font-weight="bold" font-size="14.00">12: </text>
<text text-anchor="start" x="1222.65" y="-422.9" font-family="Roboto, sans-serif" font-size="14.00">Liegt ein Transaktionsgrund vor, aus welchem hervorgeht,</text>
<text text-anchor="start" x="1193.4" y="-408.9" font-family="Roboto, sans-serif" font-size="14.00">dass der Anschlussnutzer ausgezogen ist?</text>
<text text-anchor="start" x="1193.4" y="-394.9" font-family="Roboto, sans-serif" font-size="14.00">Das ist bei den folgenden Transaktionsgr&#252;nden der Fall:</text>
<text text-anchor="start" x="1193.4" y="-380.9" font-family="Roboto, sans-serif" font-size="14.00">&#61599; Ein-/Auszug (Umzug)</text>
<text text-anchor="start" x="1193.4" y="-366.9" font-family="Roboto, sans-serif" font-size="14.00">&#61599; Auszug wegen Stilllegung</text>
</g>
<!-- 11&#45;&gt;12 -->
<g id="edge22" class="edge">
<title>11-&gt;12</title>
<path fill="none" stroke="#88a0d6" d="M1361.9,-497.17C1368.18,-484.89 1376.33,-468.92 1384.18,-453.54"/>
<polygon fill="#88a0d6" stroke="#88a0d6" points="1387.16,-455.41 1388.58,-444.91 1380.92,-452.23 1387.16,-455.41"/>
<text text-anchor="start" x="1378.9" y="-466.79" font-family="Roboto, sans-serif" font-weight="bold" font-size="14.00">NEIN</text>
</g>
<!-- A07 -->
<g id="node23" class="node">
<title>A07</title>
<path fill="#c4cac1" stroke="black" stroke-width="0" d="M1335.93,-273.19C1335.93,-273.19 1013.88,-273.19 1013.88,-273.19 1007.88,-273.19 1001.88,-267.19 1001.88,-261.19 1001.88,-261.19 1001.88,-216.16 1001.88,-216.16 1001.88,-210.16 1007.88,-204.16 1013.88,-204.16 1013.88,-204.16 1335.93,-204.16 1335.93,-204.16 1341.93,-204.16 1347.93,-210.16 1347.93,-216.16 1347.93,-216.16 1347.93,-261.19 1347.93,-261.19 1347.93,-267.19 1341.93,-273.19 1335.93,-273.19"/>
<text text-anchor="start" x="1016.28" y="-251.25" font-family="Roboto, sans-serif" font-size="14.00">Cluster: Ablehnung</text>
<text text-anchor="start" x="1016.28" y="-234" font-family="Roboto, sans-serif" font-size="14.00">Lieferende zum Abmeldedatum wurde bereits</text>
<text text-anchor="start" x="1016.28" y="-216.75" font-family="Roboto, sans-serif" font-size="14.00">best&#228;tigt</text>
</g>
<!-- 12&#45;&gt;A07 -->
<g id="edge24" class="edge">
<title>12-&gt;A07</title>
<path fill="none" stroke="#88a0d6" d="M1347.97,-356.66C1312.37,-332.6 1268.15,-302.71 1233.32,-279.16"/>
<polygon fill="#88a0d6" stroke="#88a0d6" points="1235.72,-276.56 1225.48,-273.86 1231.8,-282.36 1235.72,-276.56"/>
<text text-anchor="start" x="1320.9" y="-326.26" font-family="Roboto, sans-serif" font-weight="bold" font-size="14.00">NEIN</text>
</g>
<!-- 13 -->
<g id="node24" class="node">
<title>13</title>
<path fill="#c2cee9" stroke="black" stroke-width="0" d="M1800.18,-303.31C1800.18,-303.31 1377.62,-303.31 1377.62,-303.31 1371.62,-303.31 1365.62,-297.31 1365.62,-291.31 1365.62,-291.31 1365.62,-186.03 1365.62,-186.03 1365.62,-180.03 1371.62,-174.03 1377.62,-174.03 1377.62,-174.03 1800.18,-174.03 1800.18,-174.03 1806.18,-174.03 1812.18,-180.03 1812.18,-186.03 1812.18,-186.03 1812.18,-291.31 1812.18,-291.31 1812.18,-297.31 1806.18,-303.31 1800.18,-303.31"/>
<text text-anchor="start" x="1380.03" y="-282.37" font-family="Roboto, sans-serif" font-weight="bold" font-size="14.00">13: </text>
<text text-anchor="start" x="1409.28" y="-282.37" font-family="Roboto, sans-serif" font-size="14.00">Liegt in der bereits best&#228;tigten Abmeldung ein</text>
<text text-anchor="start" x="1380.03" y="-268.37" font-family="Roboto, sans-serif" font-size="14.00">Transaktionsgrund vor, aus welchem nicht hervorgeht, dass</text>
<text text-anchor="start" x="1380.03" y="-254.37" font-family="Roboto, sans-serif" font-size="14.00">der Anschlussnutzer ausgezogen ist?</text>
<text text-anchor="start" x="1380.03" y="-240.37" font-family="Roboto, sans-serif" font-size="14.00">Das ist bei den folgenden Transaktionsgr&#252;nden der Fall:</text>
<text text-anchor="start" x="1380.03" y="-226.37" font-family="Roboto, sans-serif" font-size="14.00">&#61599; Ein-/Auszug (Umzug)</text>
<text text-anchor="start" x="1380.03" y="-212.37" font-family="Roboto, sans-serif" font-size="14.00">&#61599; Auszug wegen Stilllegung</text>
<text text-anchor="start" x="1380.03" y="-198.37" font-family="Roboto, sans-serif" font-size="14.00">&#61599; Aufhebung einer zuk&#252;nftigen Zuordnung wegen</text>
<text text-anchor="start" x="1380.03" y="-184.37" font-family="Roboto, sans-serif" font-size="14.00">Stilllegung</text>
</g>
<!-- 12&#45;&gt;13 -->
<g id="edge25" class="edge">
<title>12-&gt;13</title>
<path fill="none" stroke="#88a0d6" d="M1458.13,-356.87C1473.89,-342.75 1491.9,-326.6 1509.42,-310.9"/>
<polygon fill="#88a0d6" stroke="#88a0d6" points="1511.73,-313.54 1516.84,-304.26 1507.05,-308.32 1511.73,-313.54"/>
<text text-anchor="start" x="1493.9" y="-326.26" font-family="Roboto, sans-serif" font-weight="bold" font-size="14.00">JA</text>
</g>
<!-- A08 -->
<g id="node25" class="node">
<title>A08</title>
<path fill="#c4cac1" stroke="black" stroke-width="0" d="M1402.68,-94.91C1402.68,-94.91 1103.12,-94.91 1103.12,-94.91 1097.12,-94.91 1091.12,-88.91 1091.12,-82.91 1091.12,-82.91 1091.12,-37.88 1091.12,-37.88 1091.12,-31.88 1097.12,-25.88 1103.12,-25.88 1103.12,-25.88 1402.68,-25.88 1402.68,-25.88 1408.68,-25.88 1414.68,-31.88 1414.68,-37.88 1414.68,-37.88 1414.68,-82.91 1414.68,-82.91 1414.68,-88.91 1408.68,-94.91 1402.68,-94.91"/>
<text text-anchor="start" x="1105.53" y="-72.97" font-family="Roboto, sans-serif" font-size="14.00">Cluster: Ablehnung</text>
<text text-anchor="start" x="1105.53" y="-55.72" font-family="Roboto, sans-serif" font-size="14.00">Lieferende zum Abmeldedatum wurde aus</text>
<text text-anchor="start" x="1105.53" y="-38.47" font-family="Roboto, sans-serif" font-size="14.00">gleichem Grund bereits best&#228;tigt.</text>
</g>
<!-- 13&#45;&gt;A08 -->
<g id="edge26" class="edge">
<title>13-&gt;A08</title>
<path fill="none" stroke="#88a0d6" d="M1468.07,-174.28C1420.79,-149.47 1368.1,-121.83 1326.68,-100.1"/>
<polygon fill="#88a0d6" stroke="#88a0d6" points="1328.5,-97.1 1318.02,-95.55 1325.25,-103.3 1328.5,-97.1"/>
<text text-anchor="start" x="1430.9" y="-143.73" font-family="Roboto, sans-serif" font-weight="bold" font-size="14.00">NEIN</text>
</g>
<!-- A09 -->
<g id="node26" class="node">
<title>A09</title>
<path fill="#c4cac1" stroke="black" stroke-width="0" d="M1801.18,-120.78C1801.18,-120.78 1444.62,-120.78 1444.62,-120.78 1438.62,-120.78 1432.62,-114.78 1432.62,-108.78 1432.62,-108.78 1432.62,-12 1432.62,-12 1432.62,-6 1438.62,0 1444.62,0 1444.62,0 1801.18,0 1801.18,0 1807.18,0 1813.18,-6 1813.18,-12 1813.18,-12 1813.18,-108.78 1813.18,-108.78 1813.18,-114.78 1807.18,-120.78 1801.18,-120.78"/>
<text text-anchor="start" x="1447.03" y="-98.84" font-family="Roboto, sans-serif" font-size="14.00">Cluster: Zustimmung</text>
<text text-anchor="start" x="1447.03" y="-81.59" font-family="Roboto, sans-serif" font-size="14.00">Erneute Best&#228;tigung der Abmeldung aufgrund der</text>
<text text-anchor="start" x="1447.03" y="-64.34" font-family="Roboto, sans-serif" font-size="14.00">Information, dass der Anschlussnutzer nicht mehr</text>
<text text-anchor="start" x="1447.03" y="-47.09" font-family="Roboto, sans-serif" font-size="14.00">an der Marktlokation vorhanden ist.</text>
<text text-anchor="start" x="1447.03" y="-29.84" font-family="Roboto, sans-serif" font-size="14.00">Hinweis: Das bisher best&#228;tigte Bilanzierungsende</text>
<text text-anchor="start" x="1447.03" y="-12.59" font-family="Roboto, sans-serif" font-size="14.00">bleibt unver&#228;ndert bestehen.</text>
</g>
<!-- 13&#45;&gt;A09 -->
<g id="edge27" class="edge">
<title>13-&gt;A09</title>
<path fill="none" stroke="#88a0d6" d="M1601.08,-174.53C1603.76,-160.65 1606.61,-145.87 1609.33,-131.74"/>
<polygon fill="#88a0d6" stroke="#88a0d6" points="1612.74,-132.53 1611.2,-122.05 1605.87,-131.2 1612.74,-132.53"/>
<text text-anchor="start" x="1607.9" y="-143.73" font-family="Roboto, sans-serif" font-weight="bold" font-size="14.00">JA</text>
</g>
</g>
</svg>
  </g>
</svg>
  </g>
</svg>
