<?xml version="1.0" encoding="UTF-8" standalone="no"?>
<!DOCTYPE svg PUBLIC "-//W3C//DTD SVG 1.1//EN"
 "http://www.w3.org/Graphics/SVG/1.1/DTD/svg11.dtd">
<!-- Generated by graphviz version 3.0.0 (20221109.1736)
 -->
<!-- Title: D Pages: 1 -->
<svg width="2137pt" height="1467pt"
 viewBox="0.00 0.00 2136.50 1467.00" xmlns="http://www.w3.org/2000/svg" xmlns:xlink="http://www.w3.org/1999/xlink">
<g id="graph0" class="graph" transform="scale(1 1) rotate(0) translate(4 1463)">
<title>D</title>
<polygon fill="white" stroke="transparent" points="-4,4 -4,-1463 2132.5,-1463 2132.5,4 -4,4"/>
<!-- Start -->
<g id="node1" class="node">
<title>Start</title>
<polygon fill="#7a8da1" stroke="black" points="1427,-1459 1266,-1459 1266,-1415 1427,-1415 1427,-1459"/>
<text text-anchor="start" x="1318" y="-1439.8" font-family="Times,serif" font-weight="bold" font-size="14.00">E_0401</text>
<text text-anchor="start" x="1280" y="-1427.4" font-family="Times,serif" font-weight="bold" text-decoration="underline" font-size="12.00">Prüfende Rolle:</text>
<text text-anchor="start" x="1386" y="-1427.4" font-family="Times,serif" font-weight="bold" font-size="12.00"> NB</text>
</g>
<!-- 1 -->
<g id="node2" class="node">
<title>1</title>
<path fill="#7aab8a" stroke="black" d="M1573.5,-1378C1573.5,-1378 1119.5,-1378 1119.5,-1378 1113.5,-1378 1107.5,-1372 1107.5,-1366 1107.5,-1366 1107.5,-1274 1107.5,-1274 1107.5,-1268 1113.5,-1262 1119.5,-1262 1119.5,-1262 1573.5,-1262 1573.5,-1262 1579.5,-1262 1585.5,-1268 1585.5,-1274 1585.5,-1274 1585.5,-1366 1585.5,-1366 1585.5,-1372 1579.5,-1378 1573.5,-1378"/>
<text text-anchor="start" x="1121.5" y="-1358.8" font-family="Times,serif" font-weight="bold" font-size="14.00">1: </text>
<text text-anchor="start" x="1141.5" y="-1358.8" font-family="Times,serif" font-size="14.00">Liegt ein Transaktionsgrund vor, der eine Abmeldung nur in</text>
<text text-anchor="start" x="1121.5" y="-1344.8" font-family="Times,serif" font-size="14.00">die Zukunft zulässt?</text>
<text text-anchor="start" x="1121.5" y="-1330.8" font-family="Times,serif" font-size="14.00">Das ist bei den folgenden Transaktionsgründen der Fall:</text>
<text text-anchor="start" x="1121.5" y="-1316.8" font-family="Times,serif" font-size="14.00"> Wechsel</text>
<text text-anchor="start" x="1121.5" y="-1302.8" font-family="Times,serif" font-size="14.00"> Ende der ESV ohne Folgelieferung</text>
<text text-anchor="start" x="1121.5" y="-1288.8" font-family="Times,serif" font-size="14.00"> Aufhebung einer zukünftigen Zuordnung wegen</text>
<text text-anchor="start" x="1121.5" y="-1274.8" font-family="Times,serif" font-size="14.00">aufgehobenem Vertragsverhältnis</text>
</g>
<!-- Start&#45;&gt;1 -->
<g id="edge1" class="edge">
<title>Start&#45;&gt;1</title>
<path fill="none" stroke="black" d="M1346.5,-1414.91C1346.5,-1407.21 1346.5,-1398.03 1346.5,-1388.47"/>
<polygon fill="black" stroke="black" points="1350,-1388.42 1346.5,-1378.42 1343,-1388.42 1350,-1388.42"/>
</g>
<!-- 2 -->
<g id="node3" class="node">
<title>2</title>
<path fill="#7aab8a" stroke="black" d="M1337.5,-1211C1337.5,-1211 891.5,-1211 891.5,-1211 885.5,-1211 879.5,-1205 879.5,-1199 879.5,-1199 879.5,-1093 879.5,-1093 879.5,-1087 885.5,-1081 891.5,-1081 891.5,-1081 1337.5,-1081 1337.5,-1081 1343.5,-1081 1349.5,-1087 1349.5,-1093 1349.5,-1093 1349.5,-1199 1349.5,-1199 1349.5,-1205 1343.5,-1211 1337.5,-1211"/>
<text text-anchor="start" x="893.5" y="-1191.8" font-family="Times,serif" font-weight="bold" font-size="14.00">2: </text>
<text text-anchor="start" x="913.5" y="-1191.8" font-family="Times,serif" font-size="14.00">Liegt ein Transaktionsgrund vor, welcher mitteilt, dass der</text>
<text text-anchor="start" x="893.5" y="-1177.8" font-family="Times,serif" font-size="14.00">Kunde vor Lieferbeginn ausgezogen ist, bzw. die</text>
<text text-anchor="start" x="893.5" y="-1163.8" font-family="Times,serif" font-size="14.00">Marktlokation vor Lieferbeginn stillgelegt wurde?</text>
<text text-anchor="start" x="893.5" y="-1149.8" font-family="Times,serif" font-size="14.00">Das ist bei den folgenden Transaktionsgründen der Fall:</text>
<text text-anchor="start" x="893.5" y="-1135.8" font-family="Times,serif" font-size="14.00"> Aufhebung einer zukünftigen Zuordnung wegen Auszug</text>
<text text-anchor="start" x="893.5" y="-1121.8" font-family="Times,serif" font-size="14.00">des Kunden</text>
<text text-anchor="start" x="893.5" y="-1107.8" font-family="Times,serif" font-size="14.00"> Aufhebung einer zukünftigen Zuordnung wegen</text>
<text text-anchor="start" x="893.5" y="-1093.8" font-family="Times,serif" font-size="14.00">Stilllegung</text>
</g>
<!-- 1&#45;&gt;2 -->
<g id="edge3" class="edge">
<title>1&#45;&gt;2</title>
<path fill="none" stroke="black" d="M1269.57,-1261.97C1250.21,-1247.61 1229.21,-1232.04 1209.09,-1217.13"/>
<polygon fill="black" stroke="black" points="1210.95,-1214.15 1200.83,-1211.01 1206.78,-1219.77 1210.95,-1214.15"/>
<text text-anchor="middle" x="1260.5" y="-1232.8" font-family="Times,serif" font-size="14.00">Nein</text>
</g>
<!-- 4 -->
<g id="node6" class="node">
<title>4</title>
<path fill="#7aab8a" stroke="black" d="M1779,-1169C1779,-1169 1380,-1169 1380,-1169 1374,-1169 1368,-1163 1368,-1157 1368,-1157 1368,-1135 1368,-1135 1368,-1129 1374,-1123 1380,-1123 1380,-1123 1779,-1123 1779,-1123 1785,-1123 1791,-1129 1791,-1135 1791,-1135 1791,-1157 1791,-1157 1791,-1163 1785,-1169 1779,-1169"/>
<text text-anchor="start" x="1382" y="-1149.8" font-family="Times,serif" font-weight="bold" font-size="14.00">4: </text>
<text text-anchor="start" x="1402" y="-1149.8" font-family="Times,serif" font-size="14.00">Liegt das Eingangsdatum mindestens 6 WT vor dem</text>
<text text-anchor="start" x="1382" y="-1135.8" font-family="Times,serif" font-size="14.00">Abmeldedatum?</text>
</g>
<!-- 1&#45;&gt;4 -->
<g id="edge2" class="edge">
<title>1&#45;&gt;4</title>
<path fill="none" stroke="black" d="M1423.76,-1261.97C1463.28,-1232.79 1509.62,-1198.58 1541.42,-1175.11"/>
<polygon fill="black" stroke="black" points="1543.61,-1177.84 1549.58,-1169.09 1539.46,-1172.21 1543.61,-1177.84"/>
<text text-anchor="middle" x="1469.5" y="-1232.8" font-family="Times,serif" font-size="14.00">Ja</text>
</g>
<!-- 3 -->
<g id="node4" class="node">
<title>3</title>
<path fill="#7aab8a" stroke="black" d="M1339,-1013C1339,-1013 902,-1013 902,-1013 896,-1013 890,-1007 890,-1001 890,-1001 890,-979 890,-979 890,-973 896,-967 902,-967 902,-967 1339,-967 1339,-967 1345,-967 1351,-973 1351,-979 1351,-979 1351,-1001 1351,-1001 1351,-1007 1345,-1013 1339,-1013"/>
<text text-anchor="start" x="904" y="-993.8" font-family="Times,serif" font-weight="bold" font-size="14.00">3: </text>
<text text-anchor="start" x="924" y="-993.8" font-family="Times,serif" font-size="14.00">Liegt das Abmeldedatum mindestens einen Tag nach dem</text>
<text text-anchor="start" x="904" y="-979.8" font-family="Times,serif" font-size="14.00">Eingangsdatum der Abmeldung?</text>
</g>
<!-- 2&#45;&gt;3 -->
<g id="edge4" class="edge">
<title>2&#45;&gt;3</title>
<path fill="none" stroke="black" d="M1117.01,-1080.58C1117.78,-1060.84 1118.59,-1039.96 1119.24,-1023.33"/>
<polygon fill="black" stroke="black" points="1122.75,-1023.2 1119.64,-1013.07 1115.75,-1022.93 1122.75,-1023.2"/>
<text text-anchor="middle" x="1124.5" y="-1051.8" font-family="Times,serif" font-size="14.00">Ja</text>
</g>
<!-- 6 -->
<g id="node9" class="node">
<title>6</title>
<path fill="#7aab8a" stroke="black" d="M860,-1020C860,-1020 439,-1020 439,-1020 433,-1020 427,-1014 427,-1008 427,-1008 427,-972 427,-972 427,-966 433,-960 439,-960 439,-960 860,-960 860,-960 866,-960 872,-966 872,-972 872,-972 872,-1008 872,-1008 872,-1014 866,-1020 860,-1020"/>
<text text-anchor="start" x="441" y="-1000.8" font-family="Times,serif" font-weight="bold" font-size="14.00">6: </text>
<text text-anchor="start" x="461" y="-1000.8" font-family="Times,serif" font-size="14.00">Handelt es sich um eine Marktlokation, deren Mess&#45;</text>
<text text-anchor="start" x="441" y="-986.8" font-family="Times,serif" font-size="14.00">lokationen vollständig mit iMS ausgestattet sind oder/und</text>
<text text-anchor="start" x="441" y="-972.8" font-family="Times,serif" font-size="14.00">deren Prognosegrundlage auf Basis von Werten erfolgt?</text>
</g>
<!-- 2&#45;&gt;6 -->
<g id="edge5" class="edge">
<title>2&#45;&gt;6</title>
<path fill="none" stroke="black" d="M921,-1080.92C860.91,-1061.02 797.25,-1039.93 746.68,-1023.18"/>
<polygon fill="black" stroke="black" points="747.66,-1019.82 737.07,-1020 745.46,-1026.47 747.66,-1019.82"/>
<text text-anchor="middle" x="870.5" y="-1051.8" font-family="Times,serif" font-size="14.00">Nein</text>
</g>
<!-- A01 -->
<g id="node5" class="node">
<title>A01</title>
<polygon fill="#cca9ab" stroke="black" points="1263,-899 954,-899 954,-807 1263,-807 1263,-899"/>
<text text-anchor="start" x="1093" y="-879.8" font-family="Times,serif" font-weight="bold" font-size="14.00">A01</text>
<text text-anchor="start" x="968" y="-867.4" font-family="Times,serif" text-decoration="underline" font-size="12.00">Hinweis:</text>
<text text-anchor="start" x="968" y="-855.4" font-family="Times,serif" font-size="12.00">Cluster: Ablehnung</text>
<text text-anchor="start" x="968" y="-843.4" font-family="Times,serif" font-size="12.00">Fristüberschreitung bei Aufhebung einer zu&#45;</text>
<text text-anchor="start" x="968" y="-831.4" font-family="Times,serif" font-size="12.00">künftigen Zuordnung wegen Auszug oder Still&#45;</text>
<text text-anchor="start" x="968" y="-819.4" font-family="Times,serif" font-size="12.00">legung.</text>
</g>
<!-- 3&#45;&gt;A01 -->
<g id="edge6" class="edge">
<title>3&#45;&gt;A01</title>
<path fill="none" stroke="black" d="M1118.52,-966.71C1117.12,-951.01 1115.19,-929.28 1113.4,-909.08"/>
<polygon fill="black" stroke="black" points="1116.87,-908.67 1112.5,-899.01 1109.9,-909.29 1116.87,-908.67"/>
<text text-anchor="middle" x="1131.5" y="-920.8" font-family="Times,serif" font-size="14.00">Nein</text>
</g>
<!-- 9 -->
<g id="node14" class="node">
<title>9</title>
<path fill="#7aab8a" stroke="black" d="M1816,-883C1816,-883 1363,-883 1363,-883 1357,-883 1351,-877 1351,-871 1351,-871 1351,-835 1351,-835 1351,-829 1357,-823 1363,-823 1363,-823 1816,-823 1816,-823 1822,-823 1828,-829 1828,-835 1828,-835 1828,-871 1828,-871 1828,-877 1822,-883 1816,-883"/>
<text text-anchor="start" x="1365" y="-863.8" font-family="Times,serif" font-weight="bold" font-size="14.00">9: </text>
<text text-anchor="start" x="1385" y="-863.8" font-family="Times,serif" font-size="14.00">Erfolgt die Aufhebung einer zukünftigen Zuordnung zu dem</text>
<text text-anchor="start" x="1365" y="-849.8" font-family="Times,serif" font-size="14.00">gleichen Datum (Zeitpunkt), welcher dem Lieferanten im</text>
<text text-anchor="start" x="1365" y="-835.8" font-family="Times,serif" font-size="14.00">Lieferbeginn bestätigt wurde?</text>
</g>
<!-- 3&#45;&gt;9 -->
<g id="edge7" class="edge">
<title>3&#45;&gt;9</title>
<path fill="none" stroke="black" d="M1197.16,-966.93C1273.76,-944.88 1392.3,-910.76 1479.05,-885.79"/>
<polygon fill="black" stroke="black" points="1480.02,-889.15 1488.67,-883.02 1478.09,-882.43 1480.02,-889.15"/>
<text text-anchor="middle" x="1375.5" y="-920.8" font-family="Times,serif" font-size="14.00">Ja</text>
</g>
<!-- A02 -->
<g id="node7" class="node">
<title>A02</title>
<polygon fill="#cca9ab" stroke="black" points="2128.5,-1030 1802.5,-1030 1802.5,-950 2128.5,-950 2128.5,-1030"/>
<text text-anchor="start" x="1950" y="-1010.8" font-family="Times,serif" font-weight="bold" font-size="14.00">A02</text>
<text text-anchor="start" x="1816.5" y="-998.4" font-family="Times,serif" text-decoration="underline" font-size="12.00">Hinweis:</text>
<text text-anchor="start" x="1816.5" y="-986.4" font-family="Times,serif" font-size="12.00">Cluster: Ablehnung</text>
<text text-anchor="start" x="1816.5" y="-974.4" font-family="Times,serif" font-size="12.00">Fristüberschreitung bei Transaktionsgründen für</text>
<text text-anchor="start" x="1816.5" y="-962.4" font-family="Times,serif" font-size="12.00">eine Abmeldung in der Zukunft.</text>
</g>
<!-- 4&#45;&gt;A02 -->
<g id="edge8" class="edge">
<title>4&#45;&gt;A02</title>
<path fill="none" stroke="black" d="M1634.8,-1122.94C1692.76,-1099.81 1785.28,-1062.9 1857.74,-1033.99"/>
<polygon fill="black" stroke="black" points="1859.39,-1037.1 1867.38,-1030.15 1856.79,-1030.6 1859.39,-1037.1"/>
<text text-anchor="middle" x="1834.5" y="-1051.8" font-family="Times,serif" font-size="14.00">Nein</text>
</g>
<!-- 5 -->
<g id="node8" class="node">
<title>5</title>
<path fill="#7aab8a" stroke="black" d="M1772.5,-1027C1772.5,-1027 1382.5,-1027 1382.5,-1027 1376.5,-1027 1370.5,-1021 1370.5,-1015 1370.5,-1015 1370.5,-965 1370.5,-965 1370.5,-959 1376.5,-953 1382.5,-953 1382.5,-953 1772.5,-953 1772.5,-953 1778.5,-953 1784.5,-959 1784.5,-965 1784.5,-965 1784.5,-1015 1784.5,-1015 1784.5,-1021 1778.5,-1027 1772.5,-1027"/>
<text text-anchor="start" x="1384.5" y="-1007.8" font-family="Times,serif" font-weight="bold" font-size="14.00">5: </text>
<text text-anchor="start" x="1404.5" y="-1007.8" font-family="Times,serif" font-size="14.00">Liegt der Transaktionsgrund</text>
<text text-anchor="start" x="1384.5" y="-993.8" font-family="Times,serif" font-size="14.00">• Aufhebung einer zukünftigen Zuordnung wegen auf&#45;</text>
<text text-anchor="start" x="1384.5" y="-979.8" font-family="Times,serif" font-size="14.00">gehobenem Vertragsverhältnis</text>
<text text-anchor="start" x="1384.5" y="-965.8" font-family="Times,serif" font-size="14.00">vor?</text>
</g>
<!-- 4&#45;&gt;5 -->
<g id="edge9" class="edge">
<title>4&#45;&gt;5</title>
<path fill="none" stroke="black" d="M1579.21,-1122.94C1578.92,-1100.71 1578.47,-1065.76 1578.1,-1037.4"/>
<polygon fill="black" stroke="black" points="1581.6,-1037.25 1577.97,-1027.29 1574.6,-1037.34 1581.6,-1037.25"/>
<text text-anchor="middle" x="1584.5" y="-1051.8" font-family="Times,serif" font-size="14.00">Ja</text>
</g>
<!-- 5&#45;&gt;9 -->
<g id="edge10" class="edge">
<title>5&#45;&gt;9</title>
<path fill="none" stroke="black" d="M1580.72,-952.82C1582.36,-934.37 1584.35,-911.91 1586.03,-893.06"/>
<polygon fill="black" stroke="black" points="1589.52,-893.28 1586.92,-883.01 1582.55,-892.66 1589.52,-893.28"/>
<text text-anchor="middle" x="1590.5" y="-920.8" font-family="Times,serif" font-size="14.00">Ja</text>
</g>
<!-- 10 -->
<g id="node16" class="node">
<title>10</title>
<path fill="#7aab8a" stroke="black" d="M1366.5,-756C1366.5,-756 922.5,-756 922.5,-756 916.5,-756 910.5,-750 910.5,-744 910.5,-744 910.5,-596 910.5,-596 910.5,-590 916.5,-584 922.5,-584 922.5,-584 1366.5,-584 1366.5,-584 1372.5,-584 1378.5,-590 1378.5,-596 1378.5,-596 1378.5,-744 1378.5,-744 1378.5,-750 1372.5,-756 1366.5,-756"/>
<text text-anchor="start" x="924.5" y="-736.8" font-family="Times,serif" font-weight="bold" font-size="14.00">10: </text>
<text text-anchor="start" x="954.5" y="-736.8" font-family="Times,serif" font-size="14.00">Wurde die Zuordnung des anfragenden Lieferanten zur</text>
<text text-anchor="start" x="924.5" y="-722.8" font-family="Times,serif" font-size="14.00">Marktlokation zum identischen Abmeldedatum bereits durch</text>
<text text-anchor="start" x="924.5" y="-708.8" font-family="Times,serif" font-size="14.00">eine Bestätigung in den folgenden Prozessschritten beendet?</text>
<text text-anchor="start" x="924.5" y="-694.8" font-family="Times,serif" font-size="14.00">Fall:</text>
<text text-anchor="start" x="924.5" y="-680.8" font-family="Times,serif" font-size="14.00"> SD: Lieferende von LF an NB, Prozessschritt 2 &quot;Antwort</text>
<text text-anchor="start" x="924.5" y="-666.8" font-family="Times,serif" font-size="14.00">auf Abmeldung&quot;</text>
<text text-anchor="start" x="924.5" y="-652.8" font-family="Times,serif" font-size="14.00"> SD: Lieferende von NB an LF, Prozessschritt 2 &quot;Antwort</text>
<text text-anchor="start" x="924.5" y="-638.8" font-family="Times,serif" font-size="14.00">auf Abmeldung&quot;</text>
<text text-anchor="start" x="924.5" y="-624.8" font-family="Times,serif" font-size="14.00"> SD: Lieferbeginn, Prozessschritt 4 &quot;Beantwortung der</text>
<text text-anchor="start" x="924.5" y="-610.8" font-family="Times,serif" font-size="14.00">Abmeldeanfrage&quot; oder die Bestätigung erfolgt durch</text>
<text text-anchor="start" x="924.5" y="-596.8" font-family="Times,serif" font-size="14.00">die Fristverstreichung</text>
</g>
<!-- 5&#45;&gt;10 -->
<g id="edge11" class="edge">
<title>5&#45;&gt;10</title>
<path fill="none" stroke="black" d="M1389.27,-952.94C1355.79,-945.21 1329.32,-937.68 1322.5,-932 1276.53,-893.69 1304.49,-857.57 1272.5,-807 1263.14,-792.2 1252.03,-777.6 1240.33,-763.76"/>
<polygon fill="black" stroke="black" points="1242.96,-761.45 1233.78,-756.16 1237.66,-766.02 1242.96,-761.45"/>
<text text-anchor="middle" x="1314.5" y="-849.3" font-family="Times,serif" font-size="14.00">Nein</text>
</g>
<!-- 7 -->
<g id="node10" class="node">
<title>7</title>
<path fill="#7aab8a" stroke="black" d="M449,-876C449,-876 12,-876 12,-876 6,-876 0,-870 0,-864 0,-864 0,-842 0,-842 0,-836 6,-830 12,-830 12,-830 449,-830 449,-830 455,-830 461,-836 461,-842 461,-842 461,-864 461,-864 461,-870 455,-876 449,-876"/>
<text text-anchor="start" x="14" y="-856.8" font-family="Times,serif" font-weight="bold" font-size="14.00">7: </text>
<text text-anchor="start" x="34" y="-856.8" font-family="Times,serif" font-size="14.00">Liegt das Abmeldedatum mindestens einen Tag nach dem</text>
<text text-anchor="start" x="14" y="-842.8" font-family="Times,serif" font-size="14.00">Eingangsdatum der Abmeldung?</text>
</g>
<!-- 6&#45;&gt;7 -->
<g id="edge12" class="edge">
<title>6&#45;&gt;7</title>
<path fill="none" stroke="black" d="M559.36,-959.96C484.81,-935.94 380.02,-902.17 308.91,-879.26"/>
<polygon fill="black" stroke="black" points="309.7,-875.84 299.11,-876.1 307.55,-882.5 309.7,-875.84"/>
<text text-anchor="middle" x="472.5" y="-920.8" font-family="Times,serif" font-size="14.00">Ja</text>
</g>
<!-- 8 -->
<g id="node12" class="node">
<title>8</title>
<path fill="#7aab8a" stroke="black" d="M924,-876C924,-876 491,-876 491,-876 485,-876 479,-870 479,-864 479,-864 479,-842 479,-842 479,-836 485,-830 491,-830 491,-830 924,-830 924,-830 930,-830 936,-836 936,-842 936,-842 936,-864 936,-864 936,-870 930,-876 924,-876"/>
<text text-anchor="start" x="493" y="-856.8" font-family="Times,serif" font-weight="bold" font-size="14.00">8: </text>
<text text-anchor="start" x="513" y="-856.8" font-family="Times,serif" font-size="14.00">Liegt das Eingangsdatum der Abmeldung mehr als sechs</text>
<text text-anchor="start" x="493" y="-842.8" font-family="Times,serif" font-size="14.00">Wochen nach dem Abmeldedatum der Abmeldung?</text>
</g>
<!-- 6&#45;&gt;8 -->
<g id="edge13" class="edge">
<title>6&#45;&gt;8</title>
<path fill="none" stroke="black" d="M662.09,-959.71C671.49,-937.82 684.32,-907.94 693.95,-885.53"/>
<polygon fill="black" stroke="black" points="697.26,-886.7 697.99,-876.13 690.83,-883.93 697.26,-886.7"/>
<text text-anchor="middle" x="697.5" y="-920.8" font-family="Times,serif" font-size="14.00">Nein</text>
</g>
<!-- A03 -->
<g id="node11" class="node">
<title>A03</title>
<polygon fill="#cca9ab" stroke="black" points="384,-710 77,-710 77,-630 384,-630 384,-710"/>
<text text-anchor="start" x="215" y="-690.8" font-family="Times,serif" font-weight="bold" font-size="14.00">A03</text>
<text text-anchor="start" x="91" y="-678.4" font-family="Times,serif" text-decoration="underline" font-size="12.00">Hinweis:</text>
<text text-anchor="start" x="91" y="-666.4" font-family="Times,serif" font-size="12.00">Cluster: Ablehnung</text>
<text text-anchor="start" x="91" y="-654.4" font-family="Times,serif" font-size="12.00">Eingangsfrist bei iMS/kME mit RLM nicht ein&#45;</text>
<text text-anchor="start" x="91" y="-642.4" font-family="Times,serif" font-size="12.00">gehalten.</text>
</g>
<!-- 7&#45;&gt;A03 -->
<g id="edge14" class="edge">
<title>7&#45;&gt;A03</title>
<path fill="none" stroke="black" d="M230.5,-829.81C230.5,-802.74 230.5,-756.19 230.5,-720.47"/>
<polygon fill="black" stroke="black" points="234,-720.23 230.5,-710.23 227,-720.23 234,-720.23"/>
<text text-anchor="middle" x="247.5" y="-777.8" font-family="Times,serif" font-size="14.00">Nein</text>
</g>
<!-- 7&#45;&gt;10 -->
<g id="edge15" class="edge">
<title>7&#45;&gt;10</title>
<path fill="none" stroke="black" d="M332.42,-830C374.65,-821.61 424.26,-812.71 469.5,-807 591.46,-791.6 624.17,-808.78 745.5,-789 802.21,-779.75 815.27,-771.85 870.5,-756 880.39,-753.16 890.46,-750.23 900.63,-747.24"/>
<polygon fill="black" stroke="black" points="901.8,-750.54 910.4,-744.35 899.82,-743.83 901.8,-750.54"/>
<text text-anchor="middle" x="817.5" y="-777.8" font-family="Times,serif" font-size="14.00">Ja</text>
</g>
<!-- A04 -->
<g id="node13" class="node">
<title>A04</title>
<polygon fill="#cca9ab" stroke="black" points="861.5,-710 553.5,-710 553.5,-630 861.5,-630 861.5,-710"/>
<text text-anchor="start" x="692" y="-690.8" font-family="Times,serif" font-weight="bold" font-size="14.00">A04</text>
<text text-anchor="start" x="567.5" y="-678.4" font-family="Times,serif" text-decoration="underline" font-size="12.00">Hinweis:</text>
<text text-anchor="start" x="567.5" y="-666.4" font-family="Times,serif" font-size="12.00">Cluster: Ablehnung</text>
<text text-anchor="start" x="567.5" y="-654.4" font-family="Times,serif" font-size="12.00">Fristüberschreitung bei kME ohne RLM/mME/</text>
<text text-anchor="start" x="567.5" y="-642.4" font-family="Times,serif" font-size="12.00">Pauschalanlage.</text>
</g>
<!-- 8&#45;&gt;A04 -->
<g id="edge16" class="edge">
<title>8&#45;&gt;A04</title>
<path fill="none" stroke="black" d="M707.5,-829.81C707.5,-802.74 707.5,-756.19 707.5,-720.47"/>
<polygon fill="black" stroke="black" points="711,-720.23 707.5,-710.23 704,-720.23 711,-720.23"/>
<text text-anchor="middle" x="724.5" y="-777.8" font-family="Times,serif" font-size="14.00">Nein</text>
</g>
<!-- 8&#45;&gt;10 -->
<g id="edge17" class="edge">
<title>8&#45;&gt;10</title>
<path fill="none" stroke="black" d="M839.1,-829.98C881.76,-820.33 928.61,-807 969.5,-789 987.06,-781.27 1004.77,-771.76 1021.81,-761.53"/>
<polygon fill="black" stroke="black" points="1023.96,-764.32 1030.67,-756.12 1020.31,-758.35 1023.96,-764.32"/>
<text text-anchor="middle" x="1001.5" y="-777.8" font-family="Times,serif" font-size="14.00">Ja</text>
</g>
<!-- A05 -->
<g id="node15" class="node">
<title>A05</title>
<polygon fill="#cca9ab" stroke="black" points="1751.5,-716 1427.5,-716 1427.5,-624 1751.5,-624 1751.5,-716"/>
<text text-anchor="start" x="1574" y="-696.8" font-family="Times,serif" font-weight="bold" font-size="14.00">A05</text>
<text text-anchor="start" x="1441.5" y="-684.4" font-family="Times,serif" text-decoration="underline" font-size="12.00">Hinweis:</text>
<text text-anchor="start" x="1441.5" y="-672.4" font-family="Times,serif" font-size="12.00">Cluster: Ablehnung</text>
<text text-anchor="start" x="1441.5" y="-660.4" font-family="Times,serif" font-size="12.00">Die Aufhebung einer zukünftigen Zuordnung</text>
<text text-anchor="start" x="1441.5" y="-648.4" font-family="Times,serif" font-size="12.00">muss zum Datum (Zeitpunkt) angegeben werden,</text>
<text text-anchor="start" x="1441.5" y="-636.4" font-family="Times,serif" font-size="12.00">wie im Lieferbeginn bestätigt.</text>
</g>
<!-- 9&#45;&gt;A05 -->
<g id="edge18" class="edge">
<title>9&#45;&gt;A05</title>
<path fill="none" stroke="black" d="M1589.5,-822.92C1589.5,-796.95 1589.5,-758.2 1589.5,-726.34"/>
<polygon fill="black" stroke="black" points="1593,-726.27 1589.5,-716.27 1586,-726.27 1593,-726.27"/>
<text text-anchor="middle" x="1606.5" y="-777.8" font-family="Times,serif" font-size="14.00">Nein</text>
</g>
<!-- 9&#45;&gt;10 -->
<g id="edge19" class="edge">
<title>9&#45;&gt;10</title>
<path fill="none" stroke="black" d="M1518,-822.92C1475.53,-805.64 1419.16,-782.71 1363.11,-759.92"/>
<polygon fill="black" stroke="black" points="1364.34,-756.64 1353.76,-756.11 1361.7,-763.12 1364.34,-756.64"/>
<text text-anchor="middle" x="1439.5" y="-777.8" font-family="Times,serif" font-size="14.00">Ja</text>
</g>
<!-- A06 -->
<g id="node17" class="node">
<title>A06</title>
<polygon fill="#cca9ab" stroke="black" points="1159,-426 962,-426 962,-358 1159,-358 1159,-426"/>
<text text-anchor="start" x="1045" y="-406.8" font-family="Times,serif" font-weight="bold" font-size="14.00">A06</text>
<text text-anchor="start" x="976" y="-394.4" font-family="Times,serif" text-decoration="underline" font-size="12.00">Hinweis:</text>
<text text-anchor="start" x="976" y="-382.4" font-family="Times,serif" font-size="12.00">Cluster: Zustimmung</text>
<text text-anchor="start" x="976" y="-370.4" font-family="Times,serif" font-size="12.00">Bestätigung der Abmeldung</text>
</g>
<!-- 10&#45;&gt;A06 -->
<g id="edge21" class="edge">
<title>10&#45;&gt;A06</title>
<path fill="none" stroke="black" d="M1090.13,-583.69C1081.89,-567.4 1074.49,-550.08 1069.5,-533 1060.33,-501.59 1058.31,-464.6 1058.45,-436.52"/>
<polygon fill="black" stroke="black" points="1061.96,-436.28 1058.6,-426.23 1054.96,-436.18 1061.96,-436.28"/>
<text text-anchor="middle" x="1086.5" y="-506.3" font-family="Times,serif" font-size="14.00">Nein</text>
</g>
<!-- 11 -->
<g id="node18" class="node">
<title>11</title>
<path fill="#7aab8a" stroke="black" d="M1604.5,-533C1604.5,-533 1124.5,-533 1124.5,-533 1118.5,-533 1112.5,-527 1112.5,-521 1112.5,-521 1112.5,-499 1112.5,-499 1112.5,-493 1118.5,-487 1124.5,-487 1124.5,-487 1604.5,-487 1604.5,-487 1610.5,-487 1616.5,-493 1616.5,-499 1616.5,-499 1616.5,-521 1616.5,-521 1616.5,-527 1610.5,-533 1604.5,-533"/>
<text text-anchor="start" x="1126.5" y="-513.8" font-family="Times,serif" font-weight="bold" font-size="14.00">11: </text>
<text text-anchor="start" x="1156.5" y="-513.8" font-family="Times,serif" font-size="14.00">Ist der anfragende LF am Folgetag des Abmeldungsdatum der</text>
<text text-anchor="start" x="1126.5" y="-499.8" font-family="Times,serif" font-size="14.00">Marktlokation noch zugeordnet?</text>
</g>
<!-- 10&#45;&gt;11 -->
<g id="edge20" class="edge">
<title>10&#45;&gt;11</title>
<path fill="none" stroke="black" d="M1262.87,-583.99C1285.42,-567.79 1307.5,-551.94 1325.28,-539.16"/>
<polygon fill="black" stroke="black" points="1327.57,-541.83 1333.65,-533.15 1323.49,-536.14 1327.57,-541.83"/>
<text text-anchor="middle" x="1311.5" y="-554.8" font-family="Times,serif" font-size="14.00">Ja</text>
</g>
<!-- 11&#45;&gt;A06 -->
<g id="edge23" class="edge">
<title>11&#45;&gt;A06</title>
<path fill="none" stroke="black" d="M1304.32,-486.98C1265.48,-472.67 1213.9,-453.49 1168.5,-436 1163.32,-434 1158.01,-431.94 1152.65,-429.85"/>
<polygon fill="black" stroke="black" points="1153.57,-426.45 1142.98,-426.06 1151.01,-432.97 1153.57,-426.45"/>
<text text-anchor="middle" x="1260.5" y="-457.8" font-family="Times,serif" font-size="14.00">Ja</text>
</g>
<!-- 12 -->
<g id="node19" class="node">
<title>12</title>
<path fill="#7aab8a" stroke="black" d="M1642,-436C1642,-436 1189,-436 1189,-436 1183,-436 1177,-430 1177,-424 1177,-424 1177,-360 1177,-360 1177,-354 1183,-348 1189,-348 1189,-348 1642,-348 1642,-348 1648,-348 1654,-354 1654,-360 1654,-360 1654,-424 1654,-424 1654,-430 1648,-436 1642,-436"/>
<text text-anchor="start" x="1191" y="-416.8" font-family="Times,serif" font-weight="bold" font-size="14.00">12: </text>
<text text-anchor="start" x="1221" y="-416.8" font-family="Times,serif" font-size="14.00">Liegt ein Transaktionsgrund vor, aus welchem hervorgeht,</text>
<text text-anchor="start" x="1191" y="-402.8" font-family="Times,serif" font-size="14.00">dass der Anschlussnutzer ausgezogen ist?</text>
<text text-anchor="start" x="1191" y="-388.8" font-family="Times,serif" font-size="14.00">Das ist bei den folgenden Transaktionsgründen der Fall:</text>
<text text-anchor="start" x="1191" y="-374.8" font-family="Times,serif" font-size="14.00"> Ein&#45;/Auszug (Umzug)</text>
<text text-anchor="start" x="1191" y="-360.8" font-family="Times,serif" font-size="14.00"> Auszug wegen Stilllegung</text>
</g>
<!-- 11&#45;&gt;12 -->
<g id="edge22" class="edge">
<title>11&#45;&gt;12</title>
<path fill="none" stroke="black" d="M1374.21,-486.91C1379.38,-475.15 1385.98,-460.15 1392.37,-445.61"/>
<polygon fill="black" stroke="black" points="1395.71,-446.72 1396.53,-436.16 1389.3,-443.9 1395.71,-446.72"/>
<text text-anchor="middle" x="1404.5" y="-457.8" font-family="Times,serif" font-size="14.00">Nein</text>
</g>
<!-- A07 -->
<g id="node20" class="node">
<title>A07</title>
<polygon fill="#cca9ab" stroke="black" points="1453,-272 1150,-272 1150,-192 1453,-192 1453,-272"/>
<text text-anchor="start" x="1286" y="-252.8" font-family="Times,serif" font-weight="bold" font-size="14.00">A07</text>
<text text-anchor="start" x="1164" y="-240.4" font-family="Times,serif" text-decoration="underline" font-size="12.00">Hinweis:</text>
<text text-anchor="start" x="1164" y="-228.4" font-family="Times,serif" font-size="12.00">Cluster: Ablehnung</text>
<text text-anchor="start" x="1164" y="-216.4" font-family="Times,serif" font-size="12.00">Lieferende zum Abmeldedatum wurde bereits</text>
<text text-anchor="start" x="1164" y="-204.4" font-family="Times,serif" font-size="12.00">bestätigt</text>
</g>
<!-- 12&#45;&gt;A07 -->
<g id="edge24" class="edge">
<title>12&#45;&gt;A07</title>
<path fill="none" stroke="black" d="M1384.35,-347.83C1369.28,-326.93 1351.14,-301.8 1335.69,-280.38"/>
<polygon fill="black" stroke="black" points="1338.38,-278.13 1329.69,-272.07 1332.7,-282.23 1338.38,-278.13"/>
<text text-anchor="middle" x="1385.5" y="-318.8" font-family="Times,serif" font-size="14.00">Nein</text>
</g>
<!-- 13 -->
<g id="node21" class="node">
<title>13</title>
<path fill="#7aab8a" stroke="black" d="M1916,-297C1916,-297 1483,-297 1483,-297 1477,-297 1471,-291 1471,-285 1471,-285 1471,-179 1471,-179 1471,-173 1477,-167 1483,-167 1483,-167 1916,-167 1916,-167 1922,-167 1928,-173 1928,-179 1928,-179 1928,-285 1928,-285 1928,-291 1922,-297 1916,-297"/>
<text text-anchor="start" x="1485" y="-277.8" font-family="Times,serif" font-weight="bold" font-size="14.00">13: </text>
<text text-anchor="start" x="1515" y="-277.8" font-family="Times,serif" font-size="14.00">Liegt in der bereits bestätigten Abmeldung ein</text>
<text text-anchor="start" x="1485" y="-263.8" font-family="Times,serif" font-size="14.00">Transaktionsgrund vor, aus welchem nicht hervorgeht, dass</text>
<text text-anchor="start" x="1485" y="-249.8" font-family="Times,serif" font-size="14.00">der Anschlussnutzer ausgezogen ist?</text>
<text text-anchor="start" x="1485" y="-235.8" font-family="Times,serif" font-size="14.00">Das ist bei den folgenden Transaktionsgründen der Fall:</text>
<text text-anchor="start" x="1485" y="-221.8" font-family="Times,serif" font-size="14.00"> Ein&#45;/Auszug (Umzug)</text>
<text text-anchor="start" x="1485" y="-207.8" font-family="Times,serif" font-size="14.00"> Auszug wegen Stilllegung</text>
<text text-anchor="start" x="1485" y="-193.8" font-family="Times,serif" font-size="14.00"> Aufhebung einer zukünftigen Zuordnung wegen</text>
<text text-anchor="start" x="1485" y="-179.8" font-family="Times,serif" font-size="14.00">Stilllegung</text>
</g>
<!-- 12&#45;&gt;13 -->
<g id="edge25" class="edge">
<title>12&#45;&gt;13</title>
<path fill="none" stroke="black" d="M1493.1,-347.83C1518.52,-333.69 1547.43,-317.6 1575.39,-302.05"/>
<polygon fill="black" stroke="black" points="1577.4,-304.94 1584.43,-297.02 1573.99,-298.82 1577.4,-304.94"/>
<text text-anchor="middle" x="1555.5" y="-318.8" font-family="Times,serif" font-size="14.00">Ja</text>
</g>
<!-- A08 -->
<g id="node22" class="node">
<title>A08</title>
<polygon fill="#cca9ab" stroke="black" points="1678,-98 1395,-98 1395,-18 1678,-18 1678,-98"/>
<text text-anchor="start" x="1521" y="-78.8" font-family="Times,serif" font-weight="bold" font-size="14.00">A08</text>
<text text-anchor="start" x="1409" y="-66.4" font-family="Times,serif" text-decoration="underline" font-size="12.00">Hinweis:</text>
<text text-anchor="start" x="1409" y="-54.4" font-family="Times,serif" font-size="12.00">Cluster: Ablehnung</text>
<text text-anchor="start" x="1409" y="-42.4" font-family="Times,serif" font-size="12.00">Lieferende zum Abmeldedatum wurde aus</text>
<text text-anchor="start" x="1409" y="-30.4" font-family="Times,serif" font-size="12.00">gleichem Grund bereits bestätigt.</text>
</g>
<!-- 13&#45;&gt;A08 -->
<g id="edge26" class="edge">
<title>13&#45;&gt;A08</title>
<path fill="none" stroke="black" d="M1638.8,-166.95C1619.47,-146.55 1598.46,-124.38 1580.53,-105.46"/>
<polygon fill="black" stroke="black" points="1582.99,-102.97 1573.57,-98.12 1577.91,-107.78 1582.99,-102.97"/>
<text text-anchor="middle" x="1634.5" y="-137.8" font-family="Times,serif" font-size="14.00">Nein</text>
</g>
<!-- A09 -->
<g id="node23" class="node">
<title>A09</title>
<polygon fill="#cca9ab" stroke="black" points="2028.5,-116 1696.5,-116 1696.5,0 2028.5,0 2028.5,-116"/>
<text text-anchor="start" x="1847" y="-96.8" font-family="Times,serif" font-weight="bold" font-size="14.00">A09</text>
<text text-anchor="start" x="1710.5" y="-84.4" font-family="Times,serif" text-decoration="underline" font-size="12.00">Hinweis:</text>
<text text-anchor="start" x="1710.5" y="-72.4" font-family="Times,serif" font-size="12.00">Cluster: Zustimmung</text>
<text text-anchor="start" x="1710.5" y="-60.4" font-family="Times,serif" font-size="12.00">Erneute Bestätigung der Abmeldung aufgrund der</text>
<text text-anchor="start" x="1710.5" y="-48.4" font-family="Times,serif" font-size="12.00">Information, dass der Anschlussnutzer nicht mehr</text>
<text text-anchor="start" x="1710.5" y="-36.4" font-family="Times,serif" font-size="12.00">an der Marktlokation vorhanden ist.</text>
<text text-anchor="start" x="1710.5" y="-24.4" font-family="Times,serif" font-size="12.00">Hinweis: Das bisher bestätigte Bilanzierungsende</text>
<text text-anchor="start" x="1710.5" y="-12.4" font-family="Times,serif" font-size="12.00">bleibt unverändert bestehen.</text>
</g>
<!-- 13&#45;&gt;A09 -->
<g id="edge27" class="edge">
<title>13&#45;&gt;A09</title>
<path fill="none" stroke="black" d="M1760.2,-166.95C1773.68,-152.72 1787.99,-137.63 1801.49,-123.38"/>
<polygon fill="black" stroke="black" points="1804.13,-125.68 1808.47,-116.02 1799.05,-120.87 1804.13,-125.68"/>
<text text-anchor="middle" x="1797.5" y="-137.8" font-family="Times,serif" font-size="14.00">Ja</text>
</g>
</g>
</svg>
