<?xml version="1.0" encoding="UTF-8" standalone="no"?>
<!DOCTYPE svg PUBLIC "-//W3C//DTD SVG 1.1//EN"
 "http://www.w3.org/Graphics/SVG/1.1/DTD/svg11.dtd">
<!-- Generated by graphviz version 3.0.0 (20221109.1736)
 -->
<!-- Title: D Pages: 1 -->
<svg width="1635pt" height="1261pt"
 viewBox="0.00 0.00 1634.50 1261.00" xmlns="http://www.w3.org/2000/svg" xmlns:xlink="http://www.w3.org/1999/xlink">
<g id="graph0" class="graph" transform="scale(1 1) rotate(0) translate(4 1257)">
<title>D</title>
<polygon fill="white" stroke="transparent" points="-4,4 -4,-1257 1630.5,-1257 1630.5,4 -4,4"/>
<!-- Start -->
<g id="node1" class="node">
<title>Start</title>
<path fill="none" stroke="black" d="M1144.5,-1253C1144.5,-1253 1114.5,-1253 1114.5,-1253 1108.5,-1253 1102.5,-1247 1102.5,-1241 1102.5,-1241 1102.5,-1229 1102.5,-1229 1102.5,-1223 1108.5,-1217 1114.5,-1217 1114.5,-1217 1144.5,-1217 1144.5,-1217 1150.5,-1217 1156.5,-1223 1156.5,-1229 1156.5,-1229 1156.5,-1241 1156.5,-1241 1156.5,-1247 1150.5,-1253 1144.5,-1253"/>
<text text-anchor="middle" x="1129.5" y="-1231.3" font-family="Times,serif" font-size="14.00">Start</text>
</g>
<!-- 1 -->
<g id="node2" class="node">
<title>1</title>
<polygon fill="green" stroke="black" points="1362.5,-1180 896.5,-1180 896.5,-1074 1362.5,-1074 1362.5,-1180"/>
<text text-anchor="start" x="904.5" y="-1165.8" font-family="Times,serif" font-weight="bold" font-size="14.00">1: </text>
<text text-anchor="start" x="924.5" y="-1165.8" font-family="Times,serif" font-size="14.00">Liegt ein Transaktionsgrund vor, der eine Abmeldung nur in</text>
<text text-anchor="start" x="904.5" y="-1151.8" font-family="Times,serif" font-size="14.00">die Zukunft zulässt?</text>
<text text-anchor="start" x="904.5" y="-1137.8" font-family="Times,serif" font-size="14.00">Das ist bei den folgenden Transaktionsgründen der Fall:</text>
<text text-anchor="start" x="904.5" y="-1123.8" font-family="Times,serif" font-size="14.00"> Wechsel</text>
<text text-anchor="start" x="904.5" y="-1109.8" font-family="Times,serif" font-size="14.00"> Ende der ESV ohne Folgelieferung</text>
<text text-anchor="start" x="904.5" y="-1095.8" font-family="Times,serif" font-size="14.00"> Aufhebung einer zukünftigen Zuordnung wegen</text>
<text text-anchor="start" x="904.5" y="-1081.8" font-family="Times,serif" font-size="14.00">aufgehobenem Vertragsverhältnis</text>
</g>
<!-- Start&#45;&gt;1 -->
<g id="edge1" class="edge">
<title>Start&#45;&gt;1</title>
<path fill="none" stroke="black" d="M1129.5,-1216.97C1129.5,-1209.5 1129.5,-1200.22 1129.5,-1190.51"/>
<polygon fill="black" stroke="black" points="1133,-1190.28 1129.5,-1180.28 1126,-1190.28 1133,-1190.28"/>
</g>
<!-- 2 -->
<g id="node3" class="node">
<title>2</title>
<polygon fill="green" stroke="black" points="1132.5,-1023 674.5,-1023 674.5,-903 1132.5,-903 1132.5,-1023"/>
<text text-anchor="start" x="682.5" y="-1008.8" font-family="Times,serif" font-weight="bold" font-size="14.00">2: </text>
<text text-anchor="start" x="702.5" y="-1008.8" font-family="Times,serif" font-size="14.00">Liegt ein Transaktionsgrund vor, welcher mitteilt, dass der</text>
<text text-anchor="start" x="682.5" y="-994.8" font-family="Times,serif" font-size="14.00">Kunde vor Lieferbeginn ausgezogen ist, bzw. die</text>
<text text-anchor="start" x="682.5" y="-980.8" font-family="Times,serif" font-size="14.00">Marktlokation vor Lieferbeginn stillgelegt wurde?</text>
<text text-anchor="start" x="682.5" y="-966.8" font-family="Times,serif" font-size="14.00">Das ist bei den folgenden Transaktionsgründen der Fall:</text>
<text text-anchor="start" x="682.5" y="-952.8" font-family="Times,serif" font-size="14.00"> Aufhebung einer zukünftigen Zuordnung wegen Auszug</text>
<text text-anchor="start" x="682.5" y="-938.8" font-family="Times,serif" font-size="14.00">des Kunden</text>
<text text-anchor="start" x="682.5" y="-924.8" font-family="Times,serif" font-size="14.00"> Aufhebung einer zukünftigen Zuordnung wegen</text>
<text text-anchor="start" x="682.5" y="-910.8" font-family="Times,serif" font-size="14.00">Stilllegung</text>
</g>
<!-- 1&#45;&gt;2 -->
<g id="edge3" class="edge">
<title>1&#45;&gt;2</title>
<path fill="none" stroke="black" d="M1056.75,-1073.85C1036.81,-1059.56 1014.96,-1043.89 994.15,-1028.98"/>
<polygon fill="black" stroke="black" points="996.09,-1026.07 985.93,-1023.09 992.02,-1031.76 996.09,-1026.07"/>
<text text-anchor="middle" x="1046.5" y="-1044.8" font-family="Times,serif" font-size="14.00">Nein</text>
</g>
<!-- 4 -->
<g id="node6" class="node">
<title>4</title>
<polygon fill="green" stroke="black" points="1562,-981 1151,-981 1151,-945 1562,-945 1562,-981"/>
<text text-anchor="start" x="1159" y="-966.8" font-family="Times,serif" font-weight="bold" font-size="14.00">4: </text>
<text text-anchor="start" x="1179" y="-966.8" font-family="Times,serif" font-size="14.00">Liegt das Eingangsdatum mindestens 6 WT vor dem</text>
<text text-anchor="start" x="1159" y="-952.8" font-family="Times,serif" font-size="14.00">Abmeldedatum?</text>
</g>
<!-- 1&#45;&gt;4 -->
<g id="edge2" class="edge">
<title>1&#45;&gt;4</title>
<path fill="none" stroke="black" d="M1202.57,-1073.85C1243.56,-1044.6 1292.65,-1009.57 1324.18,-987.06"/>
<polygon fill="black" stroke="black" points="1326.49,-989.72 1332.59,-981.06 1322.42,-984.02 1326.49,-989.72"/>
<text text-anchor="middle" x="1249.5" y="-1044.8" font-family="Times,serif" font-size="14.00">Ja</text>
</g>
<!-- 3 -->
<g id="node4" class="node">
<title>3</title>
<polygon fill="green" stroke="black" points="1134,-838 685,-838 685,-802 1134,-802 1134,-838"/>
<text text-anchor="start" x="693" y="-823.8" font-family="Times,serif" font-weight="bold" font-size="14.00">3: </text>
<text text-anchor="start" x="713" y="-823.8" font-family="Times,serif" font-size="14.00">Liegt das Abmeldedatum mindestens einen Tag nach dem</text>
<text text-anchor="start" x="693" y="-809.8" font-family="Times,serif" font-size="14.00">Eingangsdatum der Abmeldung?</text>
</g>
<!-- 2&#45;&gt;3 -->
<g id="edge4" class="edge">
<title>2&#45;&gt;3</title>
<path fill="none" stroke="black" d="M906.03,-902.61C906.83,-883.84 907.67,-863.98 908.33,-848.56"/>
<polygon fill="black" stroke="black" points="911.84,-848.33 908.77,-838.19 904.85,-848.03 911.84,-848.33"/>
<text text-anchor="middle" x="913.5" y="-873.8" font-family="Times,serif" font-size="14.00">Ja</text>
</g>
<!-- 6 -->
<g id="node9" class="node">
<title>6</title>
<polygon fill="green" stroke="black" points="667,-845 234,-845 234,-795 667,-795 667,-845"/>
<text text-anchor="start" x="242" y="-830.8" font-family="Times,serif" font-weight="bold" font-size="14.00">6: </text>
<text text-anchor="start" x="262" y="-830.8" font-family="Times,serif" font-size="14.00">Handelt es sich um eine Marktlokation, deren Mess&#45;</text>
<text text-anchor="start" x="242" y="-816.8" font-family="Times,serif" font-size="14.00">lokationen vollständig mit iMS ausgestattet sind oder/und</text>
<text text-anchor="start" x="242" y="-802.8" font-family="Times,serif" font-size="14.00">deren Prognosegrundlage auf Basis von Werten erfolgt?</text>
</g>
<!-- 2&#45;&gt;6 -->
<g id="edge5" class="edge">
<title>2&#45;&gt;6</title>
<path fill="none" stroke="black" d="M713.68,-902.92C652.47,-883.86 587.58,-863.67 537.55,-848.1"/>
<polygon fill="black" stroke="black" points="538.34,-844.67 527.75,-845.04 536.26,-851.36 538.34,-844.67"/>
<text text-anchor="middle" x="666.5" y="-873.8" font-family="Times,serif" font-size="14.00">Nein</text>
</g>
<!-- A01 -->
<g id="node5" class="node">
<title>A01</title>
<polygon fill="red" stroke="black" points="984.5,-730 930.5,-730 930.5,-694 984.5,-694 984.5,-730"/>
<text text-anchor="start" x="943.5" y="-708.3" font-family="Times,serif" font-size="14.00">A01</text>
</g>
<!-- 3&#45;&gt;A01 -->
<g id="edge6" class="edge">
<title>3&#45;&gt;A01</title>
<path fill="none" stroke="black" d="M917.21,-801.97C924.83,-785.15 936.59,-759.17 945.44,-739.62"/>
<polygon fill="black" stroke="black" points="948.71,-740.89 949.65,-730.34 942.33,-738.01 948.71,-740.89"/>
<text text-anchor="middle" x="954.5" y="-758.8" font-family="Times,serif" font-size="14.00">Nein</text>
</g>
<!-- 9 -->
<g id="node14" class="node">
<title>9</title>
<polygon fill="green" stroke="black" points="1538,-737 1073,-737 1073,-687 1538,-687 1538,-737"/>
<text text-anchor="start" x="1081" y="-722.8" font-family="Times,serif" font-weight="bold" font-size="14.00">9: </text>
<text text-anchor="start" x="1101" y="-722.8" font-family="Times,serif" font-size="14.00">Erfolgt die Aufhebung einer zukünftigen Zuordnung zu dem</text>
<text text-anchor="start" x="1081" y="-708.8" font-family="Times,serif" font-size="14.00">gleichen Datum (Zeitpunkt), welcher dem Lieferanten im</text>
<text text-anchor="start" x="1081" y="-694.8" font-family="Times,serif" font-size="14.00">Lieferbeginn bestätigt wurde?</text>
</g>
<!-- 3&#45;&gt;9 -->
<g id="edge7" class="edge">
<title>3&#45;&gt;9</title>
<path fill="none" stroke="black" d="M973.12,-801.97C1035.9,-785.17 1132.78,-759.23 1205.79,-739.69"/>
<polygon fill="black" stroke="black" points="1206.72,-743.07 1215.47,-737.1 1204.91,-736.3 1206.72,-743.07"/>
<text text-anchor="middle" x="1149.5" y="-758.8" font-family="Times,serif" font-size="14.00">Ja</text>
</g>
<!-- A02 -->
<g id="node7" class="node">
<title>A02</title>
<polygon fill="red" stroke="black" points="1626.5,-838 1572.5,-838 1572.5,-802 1626.5,-802 1626.5,-838"/>
<text text-anchor="start" x="1585.5" y="-816.3" font-family="Times,serif" font-size="14.00">A02</text>
</g>
<!-- 4&#45;&gt;A02 -->
<g id="edge8" class="edge">
<title>4&#45;&gt;A02</title>
<path fill="none" stroke="black" d="M1394.59,-944.91C1437.25,-925.06 1507.73,-890.13 1563.5,-852 1566.78,-849.76 1570.09,-847.27 1573.32,-844.69"/>
<polygon fill="black" stroke="black" points="1575.63,-847.32 1581.08,-838.24 1571.15,-841.94 1575.63,-847.32"/>
<text text-anchor="middle" x="1547.5" y="-873.8" font-family="Times,serif" font-size="14.00">Nein</text>
</g>
<!-- 5 -->
<g id="node8" class="node">
<title>5</title>
<polygon fill="green" stroke="black" points="1554.5,-852 1152.5,-852 1152.5,-788 1554.5,-788 1554.5,-852"/>
<text text-anchor="start" x="1160.5" y="-837.8" font-family="Times,serif" font-weight="bold" font-size="14.00">5: </text>
<text text-anchor="start" x="1180.5" y="-837.8" font-family="Times,serif" font-size="14.00">Liegt der Transaktionsgrund</text>
<text text-anchor="start" x="1160.5" y="-823.8" font-family="Times,serif" font-size="14.00">• Aufhebung einer zukünftigen Zuordnung wegen auf&#45;</text>
<text text-anchor="start" x="1160.5" y="-809.8" font-family="Times,serif" font-size="14.00">gehobenem Vertragsverhältnis</text>
<text text-anchor="start" x="1160.5" y="-795.8" font-family="Times,serif" font-size="14.00">vor?</text>
</g>
<!-- 4&#45;&gt;5 -->
<g id="edge9" class="edge">
<title>4&#45;&gt;5</title>
<path fill="none" stroke="black" d="M1356.14,-944.99C1355.71,-924.66 1354.97,-889.94 1354.38,-862.4"/>
<polygon fill="black" stroke="black" points="1357.88,-862.17 1354.16,-852.24 1350.88,-862.31 1357.88,-862.17"/>
<text text-anchor="middle" x="1361.5" y="-873.8" font-family="Times,serif" font-size="14.00">Ja</text>
</g>
<!-- 5&#45;&gt;9 -->
<g id="edge10" class="edge">
<title>5&#45;&gt;9</title>
<path fill="none" stroke="black" d="M1339.36,-787.77C1333.48,-774.8 1326.65,-759.72 1320.68,-746.51"/>
<polygon fill="black" stroke="black" points="1323.81,-744.95 1316.5,-737.29 1317.43,-747.84 1323.81,-744.95"/>
<text text-anchor="middle" x="1337.5" y="-758.8" font-family="Times,serif" font-size="14.00">Ja</text>
</g>
<!-- 10 -->
<g id="node16" class="node">
<title>10</title>
<polygon fill="green" stroke="black" points="1219.5,-636 763.5,-636 763.5,-474 1219.5,-474 1219.5,-636"/>
<text text-anchor="start" x="771.5" y="-621.8" font-family="Times,serif" font-weight="bold" font-size="14.00">10: </text>
<text text-anchor="start" x="801.5" y="-621.8" font-family="Times,serif" font-size="14.00">Wurde die Zuordnung des anfragenden Lieferanten zur</text>
<text text-anchor="start" x="771.5" y="-607.8" font-family="Times,serif" font-size="14.00">Marktlokation zum identischen Abmeldedatum bereits durch</text>
<text text-anchor="start" x="771.5" y="-593.8" font-family="Times,serif" font-size="14.00">eine Bestätigung in den folgenden Prozessschritten beendet?</text>
<text text-anchor="start" x="771.5" y="-579.8" font-family="Times,serif" font-size="14.00">Fall:</text>
<text text-anchor="start" x="771.5" y="-565.8" font-family="Times,serif" font-size="14.00"> SD: Lieferende von LF an NB, Prozessschritt 2 &quot;Antwort</text>
<text text-anchor="start" x="771.5" y="-551.8" font-family="Times,serif" font-size="14.00">auf Abmeldung&quot;</text>
<text text-anchor="start" x="771.5" y="-537.8" font-family="Times,serif" font-size="14.00"> SD: Lieferende von NB an LF, Prozessschritt 2 &quot;Antwort</text>
<text text-anchor="start" x="771.5" y="-523.8" font-family="Times,serif" font-size="14.00">auf Abmeldung&quot;</text>
<text text-anchor="start" x="771.5" y="-509.8" font-family="Times,serif" font-size="14.00"> SD: Lieferbeginn, Prozessschritt 4 &quot;Beantwortung der</text>
<text text-anchor="start" x="771.5" y="-495.8" font-family="Times,serif" font-size="14.00">Abmeldeanfrage&quot; oder die Bestätigung erfolgt durch</text>
<text text-anchor="start" x="771.5" y="-481.8" font-family="Times,serif" font-size="14.00">die Fristverstreichung</text>
</g>
<!-- 5&#45;&gt;10 -->
<g id="edge11" class="edge">
<title>5&#45;&gt;10</title>
<path fill="none" stroke="black" d="M1152.23,-788.98C1096.75,-776.3 1047.16,-759.22 1030.5,-737 1011.01,-711.01 1000.83,-677.33 995.64,-646.09"/>
<polygon fill="black" stroke="black" points="999.08,-645.41 994.13,-636.04 992.16,-646.45 999.08,-645.41"/>
<text text-anchor="middle" x="1047.5" y="-708.3" font-family="Times,serif" font-size="14.00">Nein</text>
</g>
<!-- 7 -->
<g id="node10" class="node">
<title>7</title>
<polygon fill="green" stroke="black" points="449,-730 0,-730 0,-694 449,-694 449,-730"/>
<text text-anchor="start" x="8" y="-715.8" font-family="Times,serif" font-weight="bold" font-size="14.00">7: </text>
<text text-anchor="start" x="28" y="-715.8" font-family="Times,serif" font-size="14.00">Liegt das Abmeldedatum mindestens einen Tag nach dem</text>
<text text-anchor="start" x="8" y="-701.8" font-family="Times,serif" font-size="14.00">Eingangsdatum der Abmeldung?</text>
</g>
<!-- 6&#45;&gt;7 -->
<g id="edge12" class="edge">
<title>6&#45;&gt;7</title>
<path fill="none" stroke="black" d="M399.22,-794.95C360.32,-776.7 307.34,-751.86 269.95,-734.32"/>
<polygon fill="black" stroke="black" points="271.34,-731.1 260.8,-730.03 268.37,-737.44 271.34,-731.1"/>
<text text-anchor="middle" x="351.5" y="-758.8" font-family="Times,serif" font-size="14.00">Ja</text>
</g>
<!-- 8 -->
<g id="node12" class="node">
<title>8</title>
<polygon fill="green" stroke="black" points="912,-730 467,-730 467,-694 912,-694 912,-730"/>
<text text-anchor="start" x="475" y="-715.8" font-family="Times,serif" font-weight="bold" font-size="14.00">8: </text>
<text text-anchor="start" x="495" y="-715.8" font-family="Times,serif" font-size="14.00">Liegt das Eingangsdatum der Abmeldung mehr als sechs</text>
<text text-anchor="start" x="475" y="-701.8" font-family="Times,serif" font-size="14.00">Wochen nach dem Abmeldedatum der Abmeldung?</text>
</g>
<!-- 6&#45;&gt;8 -->
<g id="edge13" class="edge">
<title>6&#45;&gt;8</title>
<path fill="none" stroke="black" d="M504.73,-794.95C546.04,-776.62 602.37,-751.65 641.93,-734.1"/>
<polygon fill="black" stroke="black" points="643.39,-737.28 651.11,-730.03 640.55,-730.88 643.39,-737.28"/>
<text text-anchor="middle" x="608.5" y="-758.8" font-family="Times,serif" font-size="14.00">Nein</text>
</g>
<!-- A03 -->
<g id="node11" class="node">
<title>A03</title>
<polygon fill="red" stroke="black" points="251.5,-573 197.5,-573 197.5,-537 251.5,-537 251.5,-573"/>
<text text-anchor="start" x="210.5" y="-551.3" font-family="Times,serif" font-size="14.00">A03</text>
</g>
<!-- 7&#45;&gt;A03 -->
<g id="edge14" class="edge">
<title>7&#45;&gt;A03</title>
<path fill="none" stroke="black" d="M224.5,-693.82C224.5,-667.17 224.5,-615.61 224.5,-583.66"/>
<polygon fill="black" stroke="black" points="228,-583.26 224.5,-573.26 221,-583.26 228,-583.26"/>
<text text-anchor="middle" x="241.5" y="-657.8" font-family="Times,serif" font-size="14.00">Nein</text>
</g>
<!-- 7&#45;&gt;10 -->
<g id="edge15" class="edge">
<title>7&#45;&gt;10</title>
<path fill="none" stroke="black" d="M382.03,-693.99C407.26,-691.5 433.09,-689.07 457.5,-687 577.34,-676.84 610.55,-697.06 727.5,-669 757.57,-661.78 788.58,-651.43 818.29,-639.88"/>
<polygon fill="black" stroke="black" points="819.87,-643.02 827.89,-636.09 817.3,-636.51 819.87,-643.02"/>
<text text-anchor="middle" x="779.5" y="-657.8" font-family="Times,serif" font-size="14.00">Ja</text>
</g>
<!-- A04 -->
<g id="node13" class="node">
<title>A04</title>
<polygon fill="red" stroke="black" points="716.5,-573 662.5,-573 662.5,-537 716.5,-537 716.5,-573"/>
<text text-anchor="start" x="675.5" y="-551.3" font-family="Times,serif" font-size="14.00">A04</text>
</g>
<!-- 8&#45;&gt;A04 -->
<g id="edge16" class="edge">
<title>8&#45;&gt;A04</title>
<path fill="none" stroke="black" d="M689.5,-693.82C689.5,-667.17 689.5,-615.61 689.5,-583.66"/>
<polygon fill="black" stroke="black" points="693,-583.26 689.5,-573.26 686,-583.26 693,-583.26"/>
<text text-anchor="middle" x="706.5" y="-657.8" font-family="Times,serif" font-size="14.00">Nein</text>
</g>
<!-- 8&#45;&gt;10 -->
<g id="edge17" class="edge">
<title>8&#45;&gt;10</title>
<path fill="none" stroke="black" d="M751.46,-693.98C772.55,-687.28 795.97,-678.82 816.5,-669 833.45,-660.89 850.72,-651.42 867.49,-641.47"/>
<polygon fill="black" stroke="black" points="869.44,-644.38 876.21,-636.23 865.84,-638.38 869.44,-644.38"/>
<text text-anchor="middle" x="848.5" y="-657.8" font-family="Times,serif" font-size="14.00">Ja</text>
</g>
<!-- A05 -->
<g id="node15" class="node">
<title>A05</title>
<polygon fill="red" stroke="black" points="1332.5,-573 1278.5,-573 1278.5,-537 1332.5,-537 1332.5,-573"/>
<text text-anchor="start" x="1291.5" y="-551.3" font-family="Times,serif" font-size="14.00">A05</text>
</g>
<!-- 9&#45;&gt;A05 -->
<g id="edge18" class="edge">
<title>9&#45;&gt;A05</title>
<path fill="none" stroke="black" d="M1305.5,-686.78C1305.5,-658.85 1305.5,-613.01 1305.5,-583.69"/>
<polygon fill="black" stroke="black" points="1309,-583.33 1305.5,-573.33 1302,-583.33 1309,-583.33"/>
<text text-anchor="middle" x="1322.5" y="-657.8" font-family="Times,serif" font-size="14.00">Nein</text>
</g>
<!-- 9&#45;&gt;10 -->
<g id="edge19" class="edge">
<title>9&#45;&gt;10</title>
<path fill="none" stroke="black" d="M1256.78,-686.95C1230.93,-674.19 1197.44,-657.66 1163,-640.66"/>
<polygon fill="black" stroke="black" points="1164.27,-637.38 1153.76,-636.09 1161.17,-643.66 1164.27,-637.38"/>
<text text-anchor="middle" x="1219.5" y="-657.8" font-family="Times,serif" font-size="14.00">Ja</text>
</g>
<!-- A06 -->
<g id="node17" class="node">
<title>A06</title>
<polygon fill="red" stroke="black" points="945.5,-315 891.5,-315 891.5,-279 945.5,-279 945.5,-315"/>
<text text-anchor="start" x="904.5" y="-293.3" font-family="Times,serif" font-size="14.00">A06</text>
</g>
<!-- 10&#45;&gt;A06 -->
<g id="edge21" class="edge">
<title>10&#45;&gt;A06</title>
<path fill="none" stroke="black" d="M937.88,-473.97C929.46,-457.73 922.05,-440.3 917.5,-423 908.91,-390.31 911.14,-351.13 914.21,-325.45"/>
<polygon fill="black" stroke="black" points="917.7,-325.71 915.54,-315.34 910.76,-324.79 917.7,-325.71"/>
<text text-anchor="middle" x="934.5" y="-401.3" font-family="Times,serif" font-size="14.00">Nein</text>
</g>
<!-- 11 -->
<g id="node18" class="node">
<title>11</title>
<polygon fill="green" stroke="black" points="1452.5,-423 960.5,-423 960.5,-387 1452.5,-387 1452.5,-423"/>
<text text-anchor="start" x="968.5" y="-408.8" font-family="Times,serif" font-weight="bold" font-size="14.00">11: </text>
<text text-anchor="start" x="998.5" y="-408.8" font-family="Times,serif" font-size="14.00">Ist der anfragende LF am Folgetag des Abmeldungsdatum der</text>
<text text-anchor="start" x="968.5" y="-394.8" font-family="Times,serif" font-size="14.00">Marktlokation noch zugeordnet?</text>
</g>
<!-- 10&#45;&gt;11 -->
<g id="edge20" class="edge">
<title>10&#45;&gt;11</title>
<path fill="none" stroke="black" d="M1107.81,-473.94C1131.79,-457.43 1155.18,-441.33 1173.16,-428.95"/>
<polygon fill="black" stroke="black" points="1175.29,-431.74 1181.54,-423.18 1171.32,-425.97 1175.29,-431.74"/>
<text text-anchor="middle" x="1161.5" y="-444.8" font-family="Times,serif" font-size="14.00">Ja</text>
</g>
<!-- 11&#45;&gt;A06 -->
<g id="edge23" class="edge">
<title>11&#45;&gt;A06</title>
<path fill="none" stroke="black" d="M1113.37,-386.98C1067.22,-376.28 1011.64,-359.87 965.5,-336 958.03,-332.14 950.63,-326.96 943.99,-321.69"/>
<polygon fill="black" stroke="black" points="945.95,-318.76 936.03,-315.03 941.46,-324.13 945.95,-318.76"/>
<text text-anchor="middle" x="1048.5" y="-357.8" font-family="Times,serif" font-size="14.00">Ja</text>
</g>
<!-- 12 -->
<g id="node19" class="node">
<title>12</title>
<polygon fill="green" stroke="black" points="1439,-336 974,-336 974,-258 1439,-258 1439,-336"/>
<text text-anchor="start" x="982" y="-321.8" font-family="Times,serif" font-weight="bold" font-size="14.00">12: </text>
<text text-anchor="start" x="1012" y="-321.8" font-family="Times,serif" font-size="14.00">Liegt ein Transaktionsgrund vor, aus welchem hervorgeht,</text>
<text text-anchor="start" x="982" y="-307.8" font-family="Times,serif" font-size="14.00">dass der Anschlussnutzer ausgezogen ist?</text>
<text text-anchor="start" x="982" y="-293.8" font-family="Times,serif" font-size="14.00">Das ist bei den folgenden Transaktionsgründen der Fall:</text>
<text text-anchor="start" x="982" y="-279.8" font-family="Times,serif" font-size="14.00"> Ein&#45;/Auszug (Umzug)</text>
<text text-anchor="start" x="982" y="-265.8" font-family="Times,serif" font-size="14.00"> Auszug wegen Stilllegung</text>
</g>
<!-- 11&#45;&gt;12 -->
<g id="edge22" class="edge">
<title>11&#45;&gt;12</title>
<path fill="none" stroke="black" d="M1206.5,-386.97C1206.5,-375.95 1206.5,-361 1206.5,-346.51"/>
<polygon fill="black" stroke="black" points="1210,-346.09 1206.5,-336.09 1203,-346.09 1210,-346.09"/>
<text text-anchor="middle" x="1223.5" y="-357.8" font-family="Times,serif" font-size="14.00">Nein</text>
</g>
<!-- A07 -->
<g id="node20" class="node">
<title>A07</title>
<polygon fill="red" stroke="black" points="1152.5,-165 1098.5,-165 1098.5,-129 1152.5,-129 1152.5,-165"/>
<text text-anchor="start" x="1111.5" y="-143.3" font-family="Times,serif" font-size="14.00">A07</text>
</g>
<!-- 12&#45;&gt;A07 -->
<g id="edge24" class="edge">
<title>12&#45;&gt;A07</title>
<path fill="none" stroke="black" d="M1185.64,-257.89C1171.22,-231.54 1152.42,-197.19 1139.71,-173.96"/>
<polygon fill="black" stroke="black" points="1142.7,-172.13 1134.83,-165.04 1136.56,-175.49 1142.7,-172.13"/>
<text text-anchor="middle" x="1192.5" y="-228.8" font-family="Times,serif" font-size="14.00">Nein</text>
</g>
<!-- 13 -->
<g id="node21" class="node">
<title>13</title>
<polygon fill="green" stroke="black" points="1616,-207 1171,-207 1171,-87 1616,-87 1616,-207"/>
<text text-anchor="start" x="1179" y="-192.8" font-family="Times,serif" font-weight="bold" font-size="14.00">13: </text>
<text text-anchor="start" x="1209" y="-192.8" font-family="Times,serif" font-size="14.00">Liegt in der bereits bestätigten Abmeldung ein</text>
<text text-anchor="start" x="1179" y="-178.8" font-family="Times,serif" font-size="14.00">Transaktionsgrund vor, aus welchem nicht hervorgeht, dass</text>
<text text-anchor="start" x="1179" y="-164.8" font-family="Times,serif" font-size="14.00">der Anschlussnutzer ausgezogen ist?</text>
<text text-anchor="start" x="1179" y="-150.8" font-family="Times,serif" font-size="14.00">Das ist bei den folgenden Transaktionsgründen der Fall:</text>
<text text-anchor="start" x="1179" y="-136.8" font-family="Times,serif" font-size="14.00"> Ein&#45;/Auszug (Umzug)</text>
<text text-anchor="start" x="1179" y="-122.8" font-family="Times,serif" font-size="14.00"> Auszug wegen Stilllegung</text>
<text text-anchor="start" x="1179" y="-108.8" font-family="Times,serif" font-size="14.00"> Aufhebung einer zukünftigen Zuordnung wegen</text>
<text text-anchor="start" x="1179" y="-94.8" font-family="Times,serif" font-size="14.00">Stilllegung</text>
</g>
<!-- 12&#45;&gt;13 -->
<g id="edge25" class="edge">
<title>12&#45;&gt;13</title>
<path fill="none" stroke="black" d="M1254.66,-257.89C1271.78,-244.34 1291.57,-228.67 1310.76,-213.49"/>
<polygon fill="black" stroke="black" points="1312.97,-216.2 1318.64,-207.24 1308.63,-210.71 1312.97,-216.2"/>
<text text-anchor="middle" x="1300.5" y="-228.8" font-family="Times,serif" font-size="14.00">Ja</text>
</g>
<!-- A08 -->
<g id="node22" class="node">
<title>A08</title>
<polygon fill="red" stroke="black" points="1384.5,-36 1330.5,-36 1330.5,0 1384.5,0 1384.5,-36"/>
<text text-anchor="start" x="1343.5" y="-14.3" font-family="Times,serif" font-size="14.00">A08</text>
</g>
<!-- 13&#45;&gt;A08 -->
<g id="edge26" class="edge">
<title>13&#45;&gt;A08</title>
<path fill="none" stroke="black" d="M1376.76,-86.96C1372.7,-72.63 1368.56,-58 1365.15,-46"/>
<polygon fill="black" stroke="black" points="1368.47,-44.87 1362.38,-36.21 1361.74,-46.78 1368.47,-44.87"/>
<text text-anchor="middle" x="1387.5" y="-57.8" font-family="Times,serif" font-size="14.00">Nein</text>
</g>
<!-- A09 -->
<g id="node23" class="node">
<title>A09</title>
<polygon fill="red" stroke="black" points="1456.5,-36 1402.5,-36 1402.5,0 1456.5,0 1456.5,-36"/>
<text text-anchor="start" x="1415.5" y="-14.3" font-family="Times,serif" font-size="14.00">A09</text>
</g>
<!-- 13&#45;&gt;A09 -->
<g id="edge27" class="edge">
<title>13&#45;&gt;A09</title>
<path fill="none" stroke="black" d="M1410.24,-86.96C1414.3,-72.63 1418.44,-58 1421.85,-46"/>
<polygon fill="black" stroke="black" points="1425.26,-46.78 1424.62,-36.21 1418.53,-44.87 1425.26,-46.78"/>
<text text-anchor="middle" x="1425.5" y="-57.8" font-family="Times,serif" font-size="14.00">Ja</text>
</g>
</g>
</svg>
