<?xml version='1.0' encoding='ASCII' standalone='yes'?>
<svg xmlns="http://www.w3.org/2000/svg" xmlns:xlink="http://www.w3.org/1999/xlink" version="1.1" width="1920.0px" viewBox="0 0 1920.0 1626.6666666666667" height="1626.6666666666667px">
  <g>
    <svg version="1.1" width="1920.0px" viewBox="0 0 1920.0 1626.6666666666667" height="1626.6666666666667px">
  <polygon fill="#f3f1f6" points="0,0 1920.0,0 1920.0,1626.6666666666667 0,1626.6666666666667"/><g>
    <g transform="translate(309.8159754394824, 162.66666666666663) scale(1 1) translate(0, 0) scale(7.356788448274297 7.356788448274297) "><sodipodi:namedview xmlns:sodipodi="http://sodipodi.sourceforge.net/DTD/sodipodi-0.dtd" xmlns:inkscape="http://www.inkscape.org/namespaces/inkscape" id="namedview7" pagecolor="#ffffff" bordercolor="#999999" borderopacity="1" inkscape:pageshadow="0" inkscape:pageopacity="0" inkscape:pagecheckerboard="0" inkscape:document-units="mm" showgrid="false" fit-margin-top="0" fit-margin-left="0" fit-margin-right="0" fit-margin-bottom="0" inkscape:zoom="0.64052329" inkscape:cx="130.36216" inkscape:cy="412.163" inkscape:window-width="1512" inkscape:window-height="916" inkscape:window-x="3840" inkscape:window-y="136" inkscape:window-maximized="0" inkscape:current-layer="layer1"/>
  <defs id="defs2">
    <clipPath clipPathUnits="userSpaceOnUse" id="clipPath23">
      <path d="M 0,568.156 H 579.236 V 0 H 0 Z" id="path21"/>
    </clipPath>
  </defs>
  <g xmlns:inkscape="http://www.inkscape.org/namespaces/inkscape" inkscape:label="Layer 1" inkscape:groupmode="layer" id="layer1" transform="translate(-16.541937,-55.305267)">
    <g id="g19" clip-path="url(#clipPath23)" transform="matrix(0.35277777,0,0,-0.35277777,0.01017023,243.73675)" style="opacity:0.2">
      <g id="g25" transform="translate(122.444,32.7195)">
        <path d="m 0,0 h -56.104 c -11,0 -19.898,9.123 -19.463,20.115 10.594,267.191 231.277,481.302 501.029,481.302 v -56.02 c 0,-10.98 -8.688,-19.892 -19.658,-20.393 C 180.29,414.697 0,228.005 0,0" style="fill:#6ead83;fill-opacity:0.5;fill-rule:nonzero;stroke:none" id="path27"/>
      </g>
      <g id="g29" transform="translate(273.7828,32.7195)">
        <path d="m 0,0 h -55.926 c -11.228,0 -20.091,9.482 -19.435,20.69 10.744,183.439 163.389,329.388 349.485,329.388 v -56.263 c 0,-10.709 -8.273,-19.617 -18.957,-20.35 C 112.819,263.696 0,144.774 0,0" style="fill:#6ead83;fill-opacity:0.5;fill-rule:nonzero;stroke:none" id="path31"/>
      </g>
      <g id="g33" transform="translate(425.7667,32.7195)">
        <path d="m 0,0 h -55.445 c -11.653,0 -20.604,10.17 -19.334,21.753 10.866,99.032 95.031,176.341 196.919,176.341 v -57.011 c 0,-10.046 -7.283,-18.755 -17.229,-20.165 C 45.688,112.522 0,61.497 0,0" style="fill:#6ead83;fill-opacity:0.5;fill-rule:nonzero;stroke:none" id="path35"/>
      </g>
    </g>
  </g>
</g>
    <svg width="1440pt" height="1220pt" viewBox="0.00 0.00 1440.00 1219.93">
<g id="graph0" class="graph" transform="scale(0.782747 0.782747) rotate(0) translate(4 1554.52)">
<title>D</title>
<text text-anchor="start" x="772.21" y="-1530.42" font-family="Times,serif" font-weight="bold" font-size="18.00">6.2 AD: Lieferende LF an NB</text>
<text text-anchor="start" x="769.21" y="-1500.32" font-family="Times,serif" font-weight="bold" font-size="16.00">6.2.1 E_0401_Abmeldung pr&#252;fen</text>
<!-- Start -->
<g id="node1" class="node">
<title>Start</title>
<path fill="#7a8da1" stroke="black" stroke-width="0" d="M1121.43,-1452.52C1121.43,-1452.52 985.38,-1452.52 985.38,-1452.52 979.38,-1452.52 973.38,-1446.52 973.38,-1440.52 973.38,-1440.52 973.38,-1421.24 973.38,-1421.24 973.38,-1415.24 979.38,-1409.24 985.38,-1409.24 985.38,-1409.24 1121.43,-1409.24 1121.43,-1409.24 1127.43,-1409.24 1133.43,-1415.24 1133.43,-1421.24 1133.43,-1421.24 1133.43,-1440.52 1133.43,-1440.52 1133.43,-1446.52 1127.43,-1452.52 1121.43,-1452.52"/>
<text text-anchor="start" x="1025.28" y="-1431.58" font-family="Times,serif" font-weight="bold" font-size="14.00">E_0401</text>
<text text-anchor="start" x="987.78" y="-1419.48" font-family="Times,serif" font-weight="bold" text-decoration="underline" font-size="12.00">Pr&#252;fende Rolle:</text>
<text text-anchor="start" x="1092.78" y="-1419.48" font-family="Times,serif" font-weight="bold" font-size="12.00"> NB</text>
</g>
<!-- 1 -->
<g id="node2" class="node">
<title>1</title>
<path fill="#7aab8a" stroke="black" stroke-width="0" d="M1280.05,-1372.24C1280.05,-1372.24 826.75,-1372.24 826.75,-1372.24 820.75,-1372.24 814.75,-1366.24 814.75,-1360.24 814.75,-1360.24 814.75,-1268.96 814.75,-1268.96 814.75,-1262.96 820.75,-1256.96 826.75,-1256.96 826.75,-1256.96 1280.05,-1256.96 1280.05,-1256.96 1286.05,-1256.96 1292.05,-1262.96 1292.05,-1268.96 1292.05,-1268.96 1292.05,-1360.24 1292.05,-1360.24 1292.05,-1366.24 1286.05,-1372.24 1280.05,-1372.24"/>
<text text-anchor="start" x="829.15" y="-1351.3" font-family="Times,serif" font-weight="bold" font-size="14.00">1: </text>
<text text-anchor="start" x="848.65" y="-1351.3" font-family="Times,serif" font-size="14.00">Liegt ein Transaktionsgrund vor, der eine Abmeldung nur in</text>
<text text-anchor="start" x="829.15" y="-1337.3" font-family="Times,serif" font-size="14.00">die Zukunft zul&#228;sst?</text>
<text text-anchor="start" x="829.15" y="-1323.3" font-family="Times,serif" font-size="14.00">Das ist bei den folgenden Transaktionsgr&#252;nden der Fall:</text>
<text text-anchor="start" x="829.15" y="-1309.3" font-family="Times,serif" font-size="14.00">&#61599; Wechsel</text>
<text text-anchor="start" x="829.15" y="-1295.3" font-family="Times,serif" font-size="14.00">&#61599; Ende der ESV ohne Folgelieferung</text>
<text text-anchor="start" x="829.15" y="-1281.3" font-family="Times,serif" font-size="14.00">&#61599; Aufhebung einer zuk&#252;nftigen Zuordnung wegen</text>
<text text-anchor="start" x="829.15" y="-1267.3" font-family="Times,serif" font-size="14.00">aufgehobenem Vertragsverh&#228;ltnis</text>
</g>
<!-- Start&#45;&gt;1 -->
<g id="edge1" class="edge">
<title>Start-&gt;1</title>
<path fill="none" stroke="black" d="M1053.4,-1409.45C1053.4,-1401.88 1053.4,-1392.82 1053.4,-1383.36"/>
<polygon fill="black" stroke="black" points="1056.9,-1383.65 1053.4,-1373.65 1049.9,-1383.65 1056.9,-1383.65"/>
</g>
<!-- 2 -->
<g id="node3" class="node">
<title>2</title>
<path fill="#7aab8a" stroke="black" stroke-width="0" d="M1045.3,-1203.71C1045.3,-1203.71 599.5,-1203.71 599.5,-1203.71 593.5,-1203.71 587.5,-1197.71 587.5,-1191.71 587.5,-1191.71 587.5,-1086.43 587.5,-1086.43 587.5,-1080.43 593.5,-1074.43 599.5,-1074.43 599.5,-1074.43 1045.3,-1074.43 1045.3,-1074.43 1051.3,-1074.43 1057.3,-1080.43 1057.3,-1086.43 1057.3,-1086.43 1057.3,-1191.71 1057.3,-1191.71 1057.3,-1197.71 1051.3,-1203.71 1045.3,-1203.71"/>
<text text-anchor="start" x="601.9" y="-1182.77" font-family="Times,serif" font-weight="bold" font-size="14.00">2: </text>
<text text-anchor="start" x="621.4" y="-1182.77" font-family="Times,serif" font-size="14.00">Liegt ein Transaktionsgrund vor, welcher mitteilt, dass der</text>
<text text-anchor="start" x="601.9" y="-1168.77" font-family="Times,serif" font-size="14.00">Kunde vor Lieferbeginn ausgezogen ist, bzw. die</text>
<text text-anchor="start" x="601.9" y="-1154.77" font-family="Times,serif" font-size="14.00">Marktlokation vor Lieferbeginn stillgelegt wurde?</text>
<text text-anchor="start" x="601.9" y="-1140.77" font-family="Times,serif" font-size="14.00">Das ist bei den folgenden Transaktionsgr&#252;nden der Fall:</text>
<text text-anchor="start" x="601.9" y="-1126.77" font-family="Times,serif" font-size="14.00">&#61599; Aufhebung einer zuk&#252;nftigen Zuordnung wegen Auszug</text>
<text text-anchor="start" x="601.9" y="-1112.77" font-family="Times,serif" font-size="14.00">des Kunden</text>
<text text-anchor="start" x="601.9" y="-1098.77" font-family="Times,serif" font-size="14.00">&#61599; Aufhebung einer zuk&#252;nftigen Zuordnung wegen</text>
<text text-anchor="start" x="601.9" y="-1084.77" font-family="Times,serif" font-size="14.00">Stilllegung</text>
</g>
<!-- 1&#45;&gt;2 -->
<g id="edge3" class="edge">
<title>1-&gt;2</title>
<path fill="none" stroke="#7aab8a" d="M978.08,-1257.02C958.24,-1242.11 936.59,-1225.85 915.92,-1210.32"/>
<polygon fill="#7aab8a" stroke="#7aab8a" points="918.12,-1207.6 908.02,-1204.39 913.92,-1213.2 918.12,-1207.6"/>
<text text-anchor="start" x="951.4" y="-1226.66" font-family="Times,serif" font-weight="bold" font-size="14.00">NEIN</text>
</g>
<!-- 4 -->
<g id="node6" class="node">
<title>4</title>
<path fill="#7aab8a" stroke="black" stroke-width="0" d="M1485.68,-1161.71C1485.68,-1161.71 1087.12,-1161.71 1087.12,-1161.71 1081.12,-1161.71 1075.12,-1155.71 1075.12,-1149.71 1075.12,-1149.71 1075.12,-1128.43 1075.12,-1128.43 1075.12,-1122.43 1081.12,-1116.43 1087.12,-1116.43 1087.12,-1116.43 1485.68,-1116.43 1485.68,-1116.43 1491.68,-1116.43 1497.68,-1122.43 1497.68,-1128.43 1497.68,-1128.43 1497.68,-1149.71 1497.68,-1149.71 1497.68,-1155.71 1491.68,-1161.71 1485.68,-1161.71"/>
<text text-anchor="start" x="1089.53" y="-1140.77" font-family="Times,serif" font-weight="bold" font-size="14.00">4: </text>
<text text-anchor="start" x="1109.03" y="-1140.77" font-family="Times,serif" font-size="14.00">Liegt das Eingangsdatum mindestens 6 WT vor dem</text>
<text text-anchor="start" x="1089.53" y="-1126.77" font-family="Times,serif" font-size="14.00">Abmeldedatum?</text>
</g>
<!-- 1&#45;&gt;4 -->
<g id="edge2" class="edge">
<title>1-&gt;4</title>
<path fill="none" stroke="#7aab8a" d="M1129.37,-1257.02C1169.26,-1227.31 1216.39,-1192.21 1248.53,-1168.27"/>
<polygon fill="#7aab8a" stroke="#7aab8a" points="1250.45,-1171.21 1256.38,-1162.43 1246.27,-1165.59 1250.45,-1171.21"/>
<text text-anchor="start" x="1169.4" y="-1226.66" font-family="Times,serif" font-weight="bold" font-size="14.00">JA</text>
</g>
<!-- 3 -->
<g id="node4" class="node">
<title>3</title>
<path fill="#7aab8a" stroke="black" stroke-width="0" d="M1046.8,-1007.06C1046.8,-1007.06 610,-1007.06 610,-1007.06 604,-1007.06 598,-1001.06 598,-995.06 598,-995.06 598,-973.78 598,-973.78 598,-967.78 604,-961.78 610,-961.78 610,-961.78 1046.8,-961.78 1046.8,-961.78 1052.8,-961.78 1058.8,-967.78 1058.8,-973.78 1058.8,-973.78 1058.8,-995.06 1058.8,-995.06 1058.8,-1001.06 1052.8,-1007.06 1046.8,-1007.06"/>
<text text-anchor="start" x="612.4" y="-986.12" font-family="Times,serif" font-weight="bold" font-size="14.00">3: </text>
<text text-anchor="start" x="631.9" y="-986.12" font-family="Times,serif" font-size="14.00">Liegt das Abmeldedatum mindestens einen Tag nach dem</text>
<text text-anchor="start" x="612.4" y="-972.12" font-family="Times,serif" font-size="14.00">Eingangsdatum der Abmeldung?</text>
</g>
<!-- 2&#45;&gt;3 -->
<g id="edge4" class="edge">
<title>2-&gt;3</title>
<path fill="none" stroke="#7aab8a" d="M824.89,-1074.66C825.66,-1055.15 826.47,-1034.48 827.12,-1017.95"/>
<polygon fill="#7aab8a" stroke="#7aab8a" points="830.61,-1018.36 827.5,-1008.23 823.61,-1018.09 830.61,-1018.36"/>
<text text-anchor="start" x="825.4" y="-1044.13" font-family="Times,serif" font-weight="bold" font-size="14.00">JA</text>
</g>
<!-- 6 -->
<g id="node9" class="node">
<title>6</title>
<path fill="#7aab8a" stroke="black" stroke-width="0" d="M567.92,-1014.06C567.92,-1014.06 146.88,-1014.06 146.88,-1014.06 140.88,-1014.06 134.87,-1008.06 134.87,-1002.06 134.87,-1002.06 134.87,-966.78 134.87,-966.78 134.87,-960.78 140.87,-954.78 146.87,-954.78 146.87,-954.78 567.92,-954.78 567.92,-954.78 573.92,-954.78 579.92,-960.78 579.92,-966.78 579.92,-966.78 579.92,-1002.06 579.92,-1002.06 579.92,-1008.06 573.92,-1014.06 567.92,-1014.06"/>
<text text-anchor="start" x="149.27" y="-993.12" font-family="Times,serif" font-weight="bold" font-size="14.00">6: </text>
<text text-anchor="start" x="168.77" y="-993.12" font-family="Times,serif" font-size="14.00">Handelt es sich um eine Marktlokation, deren Mess-</text>
<text text-anchor="start" x="149.27" y="-979.12" font-family="Times,serif" font-size="14.00">lokationen vollst&#228;ndig mit iMS ausgestattet sind oder/und</text>
<text text-anchor="start" x="149.27" y="-965.12" font-family="Times,serif" font-size="14.00">deren Prognosegrundlage auf Basis von Werten erfolgt?</text>
</g>
<!-- 2&#45;&gt;6 -->
<g id="edge5" class="edge">
<title>2-&gt;6</title>
<path fill="none" stroke="#7aab8a" d="M628.57,-1074.44C568.9,-1054.85 505.74,-1034.12 455.4,-1017.59"/>
<polygon fill="#7aab8a" stroke="#7aab8a" points="456.56,-1014.29 445.97,-1014.49 454.38,-1020.94 456.56,-1014.29"/>
<text text-anchor="start" x="561.4" y="-1044.13" font-family="Times,serif" font-weight="bold" font-size="14.00">NEIN</text>
</g>
<!-- A01 -->
<g id="node5" class="node">
<title>A01</title>
<path fill="#cfb986" stroke="black" stroke-width="0" d="M1246.89,-894.41C1246.89,-894.41 965.91,-894.41 965.91,-894.41 959.91,-894.41 953.91,-888.41 953.91,-882.41 953.91,-882.41 953.91,-820.89 953.91,-820.89 953.91,-814.89 959.91,-808.89 965.91,-808.89 965.91,-808.89 1246.89,-808.89 1246.89,-808.89 1252.89,-808.89 1258.89,-814.89 1258.89,-820.89 1258.89,-820.89 1258.89,-882.41 1258.89,-882.41 1258.89,-888.41 1252.89,-894.41 1246.89,-894.41"/>
<text text-anchor="start" x="966.15" y="-876.35" font-family="Times,serif" font-weight="bold" font-size="14.00">A01</text>
<text text-anchor="start" x="966.15" y="-864.25" font-family="Times,serif" text-decoration="underline" font-size="12.00">Hinweis:</text>
<text text-anchor="start" x="966.15" y="-852.25" font-family="Times,serif" font-size="12.00">Cluster: Ablehnung</text>
<text text-anchor="start" x="966.15" y="-840.25" font-family="Times,serif" font-size="12.00">Frist&#252;berschreitung bei Aufhebung einer zu-</text>
<text text-anchor="start" x="966.15" y="-828.25" font-family="Times,serif" font-size="12.00">k&#252;nftigen Zuordnung wegen Auszug oder Still-</text>
<text text-anchor="start" x="966.15" y="-816.25" font-family="Times,serif" font-size="12.00">legung.</text>
</g>
<!-- 3&#45;&gt;A01 -->
<g id="edge6" class="edge">
<title>3-&gt;A01</title>
<path fill="none" stroke="#7aab8a" d="M874.31,-961.83C910.44,-944.83 962.1,-920.53 1007.51,-899.17"/>
<polygon fill="#7aab8a" stroke="#7aab8a" points="1008.77,-902.44 1016.33,-895.02 1005.79,-896.11 1008.77,-902.44"/>
<text text-anchor="start" x="975.4" y="-917.36" font-family="Times,serif" font-weight="bold" font-size="14.00">NEIN</text>
</g>
<!-- 9 -->
<g id="node14" class="node">
<title>9</title>
<path fill="#7aab8a" stroke="black" stroke-width="0" d="M1819.68,-881.29C1819.68,-881.29 1367.12,-881.29 1367.12,-881.29 1361.12,-881.29 1355.12,-875.29 1355.12,-869.29 1355.12,-869.29 1355.12,-834.01 1355.12,-834.01 1355.12,-828.01 1361.12,-822.01 1367.12,-822.01 1367.12,-822.01 1819.68,-822.01 1819.68,-822.01 1825.68,-822.01 1831.68,-828.01 1831.68,-834.01 1831.68,-834.01 1831.68,-869.29 1831.68,-869.29 1831.68,-875.29 1825.68,-881.29 1819.68,-881.29"/>
<text text-anchor="start" x="1369.53" y="-860.35" font-family="Times,serif" font-weight="bold" font-size="14.00">9: </text>
<text text-anchor="start" x="1389.03" y="-860.35" font-family="Times,serif" font-size="14.00">Erfolgt die Aufhebung einer zuk&#252;nftigen Zuordnung zu dem</text>
<text text-anchor="start" x="1369.53" y="-846.35" font-family="Times,serif" font-size="14.00">gleichen Datum (Zeitpunkt), welcher dem Lieferanten im</text>
<text text-anchor="start" x="1369.53" y="-832.35" font-family="Times,serif" font-size="14.00">Lieferbeginn best&#228;tigt wurde?</text>
</g>
<!-- 3&#45;&gt;9 -->
<g id="edge7" class="edge">
<title>3-&gt;9</title>
<path fill="none" stroke="#7aab8a" d="M954.72,-961.83C1080.13,-940.39 1273.52,-907.33 1414.65,-883.21"/>
<polygon fill="#7aab8a" stroke="#7aab8a" points="1415.24,-886.66 1424.51,-881.52 1414.06,-879.76 1415.24,-886.66"/>
<text text-anchor="start" x="1233.4" y="-917.36" font-family="Times,serif" font-weight="bold" font-size="14.00">JA</text>
</g>
<!-- A02 -->
<g id="node7" class="node">
<title>A02</title>
<path fill="#cfb986" stroke="black" stroke-width="0" d="M1819.14,-1021.18C1819.14,-1021.18 1521.66,-1021.18 1521.66,-1021.18 1515.66,-1021.18 1509.66,-1015.18 1509.66,-1009.18 1509.66,-1009.18 1509.66,-959.66 1509.66,-959.66 1509.66,-953.66 1515.66,-947.66 1521.66,-947.66 1521.66,-947.66 1819.14,-947.66 1819.14,-947.66 1825.14,-947.66 1831.14,-953.66 1831.14,-959.66 1831.14,-959.66 1831.14,-1009.18 1831.14,-1009.18 1831.14,-1015.18 1825.14,-1021.18 1819.14,-1021.18"/>
<text text-anchor="start" x="1521.9" y="-1003.12" font-family="Times,serif" font-weight="bold" font-size="14.00">A02</text>
<text text-anchor="start" x="1521.9" y="-991.02" font-family="Times,serif" text-decoration="underline" font-size="12.00">Hinweis:</text>
<text text-anchor="start" x="1521.9" y="-979.02" font-family="Times,serif" font-size="12.00">Cluster: Ablehnung</text>
<text text-anchor="start" x="1521.9" y="-967.02" font-family="Times,serif" font-size="12.00">Frist&#252;berschreitung bei Transaktionsgr&#252;nden f&#252;r</text>
<text text-anchor="start" x="1521.9" y="-955.02" font-family="Times,serif" font-size="12.00">eine Abmeldung in der Zukunft.</text>
</g>
<!-- 4&#45;&gt;A02 -->
<g id="edge8" class="edge">
<title>4-&gt;A02</title>
<path fill="none" stroke="#7aab8a" d="M1340.6,-1116.52C1400.01,-1092.91 1496.63,-1054.5 1569.96,-1025.35"/>
<polygon fill="#7aab8a" stroke="#7aab8a" points="1571.2,-1028.62 1579.2,-1021.67 1568.62,-1022.12 1571.2,-1028.62"/>
<text text-anchor="start" x="1523.4" y="-1044.13" font-family="Times,serif" font-weight="bold" font-size="14.00">NEIN</text>
</g>
<!-- 5 -->
<g id="node8" class="node">
<title>5</title>
<path fill="#7aab8a" stroke="black" stroke-width="0" d="M1479.55,-1021.06C1479.55,-1021.06 1089.25,-1021.06 1089.25,-1021.06 1083.25,-1021.06 1077.25,-1015.06 1077.25,-1009.06 1077.25,-1009.06 1077.25,-959.78 1077.25,-959.78 1077.25,-953.78 1083.25,-947.78 1089.25,-947.78 1089.25,-947.78 1479.55,-947.78 1479.55,-947.78 1485.55,-947.78 1491.55,-953.78 1491.55,-959.78 1491.55,-959.78 1491.55,-1009.06 1491.55,-1009.06 1491.55,-1015.06 1485.55,-1021.06 1479.55,-1021.06"/>
<text text-anchor="start" x="1091.65" y="-1000.12" font-family="Times,serif" font-weight="bold" font-size="14.00">5: </text>
<text text-anchor="start" x="1111.15" y="-1000.12" font-family="Times,serif" font-size="14.00">Liegt der Transaktionsgrund</text>
<text text-anchor="start" x="1091.65" y="-986.12" font-family="Times,serif" font-size="14.00">&#8226; Aufhebung einer zuk&#252;nftigen Zuordnung wegen auf-</text>
<text text-anchor="start" x="1091.65" y="-972.12" font-family="Times,serif" font-size="14.00">gehobenem Vertragsverh&#228;ltnis</text>
<text text-anchor="start" x="1091.65" y="-958.12" font-family="Times,serif" font-size="14.00">vor?</text>
</g>
<!-- 4&#45;&gt;5 -->
<g id="edge9" class="edge">
<title>4-&gt;5</title>
<path fill="none" stroke="#7aab8a" d="M1286.12,-1116.52C1285.83,-1094.71 1285.38,-1060.28 1285.01,-1032.17"/>
<polygon fill="#7aab8a" stroke="#7aab8a" points="1288.52,-1032.43 1284.89,-1022.48 1281.52,-1032.53 1288.52,-1032.43"/>
<text text-anchor="start" x="1284.4" y="-1044.13" font-family="Times,serif" font-weight="bold" font-size="14.00">JA</text>
</g>
<!-- 5&#45;&gt;9 -->
<g id="edge10" class="edge">
<title>5-&gt;9</title>
<path fill="none" stroke="#7aab8a" d="M1414.25,-947.81C1430.33,-942.29 1446.39,-936.21 1461.4,-929.66 1488.65,-917.77 1517.34,-901.53 1540.98,-887.03"/>
<polygon fill="#7aab8a" stroke="#7aab8a" points="1542.51,-890.2 1549.16,-881.95 1538.82,-884.25 1542.51,-890.2"/>
<text text-anchor="start" x="1494.4" y="-917.36" font-family="Times,serif" font-weight="bold" font-size="14.00">JA</text>
</g>
<!-- 10 -->
<g id="node16" class="node">
<title>10</title>
<path fill="#7aab8a" stroke="black" stroke-width="0" d="M1368.55,-755.64C1368.55,-755.64 924.25,-755.64 924.25,-755.64 918.25,-755.64 912.25,-749.64 912.25,-743.64 912.25,-743.64 912.25,-596.36 912.25,-596.36 912.25,-590.36 918.25,-584.36 924.25,-584.36 924.25,-584.36 1368.55,-584.36 1368.55,-584.36 1374.55,-584.36 1380.55,-590.36 1380.55,-596.36 1380.55,-596.36 1380.55,-743.64 1380.55,-743.64 1380.55,-749.64 1374.55,-755.64 1368.55,-755.64"/>
<text text-anchor="start" x="926.65" y="-734.7" font-family="Times,serif" font-weight="bold" font-size="14.00">10: </text>
<text text-anchor="start" x="955.9" y="-734.7" font-family="Times,serif" font-size="14.00">Wurde die Zuordnung des anfragenden Lieferanten zur</text>
<text text-anchor="start" x="926.65" y="-720.7" font-family="Times,serif" font-size="14.00">Marktlokation zum identischen Abmeldedatum bereits durch</text>
<text text-anchor="start" x="926.65" y="-706.7" font-family="Times,serif" font-size="14.00">eine Best&#228;tigung in den folgenden Prozessschritten beendet?</text>
<text text-anchor="start" x="926.65" y="-692.7" font-family="Times,serif" font-size="14.00">Fall:</text>
<text text-anchor="start" x="926.65" y="-678.7" font-family="Times,serif" font-size="14.00">&#61599; SD: Lieferende von LF an NB, Prozessschritt 2 "Antwort</text>
<text text-anchor="start" x="926.65" y="-664.7" font-family="Times,serif" font-size="14.00">auf Abmeldung"</text>
<text text-anchor="start" x="926.65" y="-650.7" font-family="Times,serif" font-size="14.00">&#61599; SD: Lieferende von NB an LF, Prozessschritt 2 "Antwort</text>
<text text-anchor="start" x="926.65" y="-636.7" font-family="Times,serif" font-size="14.00">auf Abmeldung"</text>
<text text-anchor="start" x="926.65" y="-622.7" font-family="Times,serif" font-size="14.00">&#61599; SD: Lieferbeginn, Prozessschritt 4 "Beantwortung der</text>
<text text-anchor="start" x="926.65" y="-608.7" font-family="Times,serif" font-size="14.00">Abmeldeanfrage" oder die Best&#228;tigung erfolgt durch</text>
<text text-anchor="start" x="926.65" y="-594.7" font-family="Times,serif" font-size="14.00">die Fristverstreichung</text>
</g>
<!-- 5&#45;&gt;10 -->
<g id="edge11" class="edge">
<title>5-&gt;10</title>
<path fill="none" stroke="#7aab8a" d="M1287.15,-948.07C1288.59,-911.66 1286.94,-854.01 1267.4,-808.89 1260.7,-793.43 1251.61,-778.46 1241.39,-764.46"/>
<polygon fill="#7aab8a" stroke="#7aab8a" points="1244.26,-762.46 1235.44,-756.6 1238.68,-766.69 1244.26,-762.46"/>
<text text-anchor="start" x="1285.4" y="-847.97" font-family="Times,serif" font-weight="bold" font-size="14.00">NEIN</text>
</g>
<!-- 7 -->
<g id="node10" class="node">
<title>7</title>
<path fill="#7aab8a" stroke="black" stroke-width="0" d="M448.8,-874.29C448.8,-874.29 12,-874.29 12,-874.29 6,-874.29 0,-868.29 0,-862.29 0,-862.29 0,-841.01 0,-841.01 0,-835.01 6,-829.01 12,-829.01 12,-829.01 448.8,-829.01 448.8,-829.01 454.8,-829.01 460.8,-835.01 460.8,-841.01 460.8,-841.01 460.8,-862.29 460.8,-862.29 460.8,-868.29 454.8,-874.29 448.8,-874.29"/>
<text text-anchor="start" x="14.4" y="-853.35" font-family="Times,serif" font-weight="bold" font-size="14.00">7: </text>
<text text-anchor="start" x="33.9" y="-853.35" font-family="Times,serif" font-size="14.00">Liegt das Abmeldedatum mindestens einen Tag nach dem</text>
<text text-anchor="start" x="14.4" y="-839.35" font-family="Times,serif" font-size="14.00">Eingangsdatum der Abmeldung?</text>
</g>
<!-- 6&#45;&gt;7 -->
<g id="edge12" class="edge">
<title>6-&gt;7</title>
<path fill="none" stroke="#7aab8a" d="M329.84,-955.04C308.98,-933.56 280.39,-904.12 259.22,-882.32"/>
<polygon fill="#7aab8a" stroke="#7aab8a" points="261.75,-879.9 252.27,-875.17 256.73,-884.78 261.75,-879.9"/>
<text text-anchor="start" x="301.4" y="-917.36" font-family="Times,serif" font-weight="bold" font-size="14.00">JA</text>
</g>
<!-- 8 -->
<g id="node12" class="node">
<title>8</title>
<path fill="#7aab8a" stroke="black" stroke-width="0" d="M923.55,-874.29C923.55,-874.29 491.25,-874.29 491.25,-874.29 485.25,-874.29 479.25,-868.29 479.25,-862.29 479.25,-862.29 479.25,-841.01 479.25,-841.01 479.25,-835.01 485.25,-829.01 491.25,-829.01 491.25,-829.01 923.55,-829.01 923.55,-829.01 929.55,-829.01 935.55,-835.01 935.55,-841.01 935.55,-841.01 935.55,-862.29 935.55,-862.29 935.55,-868.29 929.55,-874.29 923.55,-874.29"/>
<text text-anchor="start" x="493.65" y="-853.35" font-family="Times,serif" font-weight="bold" font-size="14.00">8: </text>
<text text-anchor="start" x="513.15" y="-853.35" font-family="Times,serif" font-size="14.00">Liegt das Eingangsdatum der Abmeldung mehr als sechs</text>
<text text-anchor="start" x="493.65" y="-839.35" font-family="Times,serif" font-size="14.00">Wochen nach dem Abmeldedatum der Abmeldung?</text>
</g>
<!-- 6&#45;&gt;8 -->
<g id="edge13" class="edge">
<title>6-&gt;8</title>
<path fill="none" stroke="#7aab8a" d="M433.78,-954.88C494.94,-932.03 579.96,-900.26 638.93,-878.23"/>
<polygon fill="#7aab8a" stroke="#7aab8a" points="640.07,-881.54 648.21,-874.76 637.62,-874.99 640.07,-881.54"/>
<text text-anchor="start" x="542.4" y="-917.36" font-family="Times,serif" font-weight="bold" font-size="14.00">NEIN</text>
</g>
<!-- A03 -->
<g id="node11" class="node">
<title>A03</title>
<path fill="#cfb986" stroke="black" stroke-width="0" d="M369.76,-706.76C369.76,-706.76 91.03,-706.76 91.03,-706.76 85.03,-706.76 79.03,-700.76 79.03,-694.76 79.03,-694.76 79.03,-645.24 79.03,-645.24 79.03,-639.24 85.03,-633.24 91.03,-633.24 91.03,-633.24 369.76,-633.24 369.76,-633.24 375.76,-633.24 381.76,-639.24 381.76,-645.24 381.76,-645.24 381.76,-694.76 381.76,-694.76 381.76,-700.76 375.76,-706.76 369.76,-706.76"/>
<text text-anchor="start" x="91.28" y="-688.7" font-family="Times,serif" font-weight="bold" font-size="14.00">A03</text>
<text text-anchor="start" x="91.28" y="-676.6" font-family="Times,serif" text-decoration="underline" font-size="12.00">Hinweis:</text>
<text text-anchor="start" x="91.28" y="-664.6" font-family="Times,serif" font-size="12.00">Cluster: Ablehnung</text>
<text text-anchor="start" x="91.28" y="-652.6" font-family="Times,serif" font-size="12.00">Eingangsfrist bei iMS/kME mit RLM nicht ein-</text>
<text text-anchor="start" x="91.28" y="-640.6" font-family="Times,serif" font-size="12.00">gehalten.</text>
</g>
<!-- 7&#45;&gt;A03 -->
<g id="edge14" class="edge">
<title>7-&gt;A03</title>
<path fill="none" stroke="#7aab8a" d="M230.4,-829.34C230.4,-802 230.4,-753.81 230.4,-717.75"/>
<polygon fill="#7aab8a" stroke="#7aab8a" points="233.9,-718.02 230.4,-708.02 226.9,-718.02 233.9,-718.02"/>
<text text-anchor="start" x="230.4" y="-778.59" font-family="Times,serif" font-weight="bold" font-size="14.00">NEIN</text>
</g>
<!-- 7&#45;&gt;10 -->
<g id="edge15" class="edge">
<title>7-&gt;10</title>
<path fill="none" stroke="#7aab8a" d="M339.65,-829.05C380.53,-821.66 427.46,-813.97 470.4,-808.89 596,-794.03 629.97,-813.54 754.4,-790.89 802.57,-782.12 853.16,-769.41 901.39,-755.5"/>
<polygon fill="#7aab8a" stroke="#7aab8a" points="902.21,-758.91 910.84,-752.75 900.26,-752.19 902.21,-758.91"/>
<text text-anchor="start" x="830.4" y="-778.59" font-family="Times,serif" font-weight="bold" font-size="14.00">JA</text>
</g>
<!-- A04 -->
<g id="node13" class="node">
<title>A04</title>
<path fill="#cfb986" stroke="black" stroke-width="0" d="M847.51,-706.76C847.51,-706.76 567.28,-706.76 567.28,-706.76 561.28,-706.76 555.28,-700.76 555.28,-694.76 555.28,-694.76 555.28,-645.24 555.28,-645.24 555.28,-639.24 561.28,-633.24 567.28,-633.24 567.28,-633.24 847.51,-633.24 847.51,-633.24 853.51,-633.24 859.51,-639.24 859.51,-645.24 859.51,-645.24 859.51,-694.76 859.51,-694.76 859.51,-700.76 853.51,-706.76 847.51,-706.76"/>
<text text-anchor="start" x="567.52" y="-688.7" font-family="Times,serif" font-weight="bold" font-size="14.00">A04</text>
<text text-anchor="start" x="567.52" y="-676.6" font-family="Times,serif" text-decoration="underline" font-size="12.00">Hinweis:</text>
<text text-anchor="start" x="567.52" y="-664.6" font-family="Times,serif" font-size="12.00">Cluster: Ablehnung</text>
<text text-anchor="start" x="567.52" y="-652.6" font-family="Times,serif" font-size="12.00">Frist&#252;berschreitung bei kME ohne RLM/mME/</text>
<text text-anchor="start" x="567.52" y="-640.6" font-family="Times,serif" font-size="12.00">Pauschalanlage.</text>
</g>
<!-- 8&#45;&gt;A04 -->
<g id="edge16" class="edge">
<title>8-&gt;A04</title>
<path fill="none" stroke="#7aab8a" d="M707.4,-829.34C707.4,-802 707.4,-753.81 707.4,-717.75"/>
<polygon fill="#7aab8a" stroke="#7aab8a" points="710.9,-718.02 707.4,-708.02 703.9,-718.02 710.9,-718.02"/>
<text text-anchor="start" x="707.4" y="-778.59" font-family="Times,serif" font-weight="bold" font-size="14.00">NEIN</text>
</g>
<!-- 8&#45;&gt;10 -->
<g id="edge17" class="edge">
<title>8-&gt;10</title>
<path fill="none" stroke="#7aab8a" d="M768.48,-829.02C798.95,-818 836.28,-804.15 869.4,-790.89 893.77,-781.13 919.21,-770.6 944.37,-759.97"/>
<polygon fill="#7aab8a" stroke="#7aab8a" points="945.51,-763.29 953.35,-756.17 942.78,-756.84 945.51,-763.29"/>
<text text-anchor="start" x="907.4" y="-778.59" font-family="Times,serif" font-weight="bold" font-size="14.00">JA</text>
</g>
<!-- A05 -->
<g id="node15" class="node">
<title>A05</title>
<path fill="#cfb986" stroke="black" stroke-width="0" d="M1741.39,-712.76C1741.39,-712.76 1445.41,-712.76 1445.41,-712.76 1439.41,-712.76 1433.41,-706.76 1433.41,-700.76 1433.41,-700.76 1433.41,-639.24 1433.41,-639.24 1433.41,-633.24 1439.41,-627.24 1445.41,-627.24 1445.41,-627.24 1741.39,-627.24 1741.39,-627.24 1747.39,-627.24 1753.39,-633.24 1753.39,-639.24 1753.39,-639.24 1753.39,-700.76 1753.39,-700.76 1753.39,-706.76 1747.39,-712.76 1741.39,-712.76"/>
<text text-anchor="start" x="1445.65" y="-694.7" font-family="Times,serif" font-weight="bold" font-size="14.00">A05</text>
<text text-anchor="start" x="1445.65" y="-682.6" font-family="Times,serif" text-decoration="underline" font-size="12.00">Hinweis:</text>
<text text-anchor="start" x="1445.65" y="-670.6" font-family="Times,serif" font-size="12.00">Cluster: Ablehnung</text>
<text text-anchor="start" x="1445.65" y="-658.6" font-family="Times,serif" font-size="12.00">Die Aufhebung einer zuk&#252;nftigen Zuordnung</text>
<text text-anchor="start" x="1445.65" y="-646.6" font-family="Times,serif" font-size="12.00">muss zum Datum (Zeitpunkt) angegeben werden,</text>
<text text-anchor="start" x="1445.65" y="-634.6" font-family="Times,serif" font-size="12.00">wie im Lieferbeginn best&#228;tigt.</text>
</g>
<!-- 9&#45;&gt;A05 -->
<g id="edge18" class="edge">
<title>9-&gt;A05</title>
<path fill="none" stroke="#7aab8a" d="M1593.4,-822.18C1593.4,-795.93 1593.4,-756.27 1593.4,-724.15"/>
<polygon fill="#7aab8a" stroke="#7aab8a" points="1596.9,-724.22 1593.4,-714.22 1589.9,-724.22 1596.9,-724.22"/>
<text text-anchor="start" x="1593.4" y="-778.59" font-family="Times,serif" font-weight="bold" font-size="14.00">NEIN</text>
</g>
<!-- 9&#45;&gt;10 -->
<g id="edge19" class="edge">
<title>9-&gt;10</title>
<path fill="none" stroke="#7aab8a" d="M1522.57,-822.18C1480.16,-805.14 1423.7,-782.45 1367.45,-759.84"/>
<polygon fill="#7aab8a" stroke="#7aab8a" points="1368.94,-756.67 1358.36,-756.19 1366.33,-763.16 1368.94,-756.67"/>
<text text-anchor="start" x="1435.4" y="-778.59" font-family="Times,serif" font-weight="bold" font-size="14.00">JA</text>
</g>
<!-- A06 -->
<g id="node17" class="node">
<title>A06</title>
<path fill="#cfb986" stroke="black" stroke-width="0" d="M1126.64,-419.7C1126.64,-419.7 958.16,-419.7 958.16,-419.7 952.16,-419.7 946.16,-413.7 946.16,-407.7 946.16,-407.7 946.16,-370.18 946.16,-370.18 946.16,-364.18 952.16,-358.18 958.16,-358.18 958.16,-358.18 1126.64,-358.18 1126.64,-358.18 1132.64,-358.18 1138.64,-364.18 1138.64,-370.18 1138.64,-370.18 1138.64,-407.7 1138.64,-407.7 1138.64,-413.7 1132.64,-419.7 1126.64,-419.7"/>
<text text-anchor="start" x="958.4" y="-401.64" font-family="Times,serif" font-weight="bold" font-size="14.00">A06</text>
<text text-anchor="start" x="958.4" y="-389.54" font-family="Times,serif" text-decoration="underline" font-size="12.00">Hinweis:</text>
<text text-anchor="start" x="958.4" y="-377.54" font-family="Times,serif" font-size="12.00">Cluster: Zustimmung</text>
<text text-anchor="start" x="958.4" y="-365.54" font-family="Times,serif" font-size="12.00">Best&#228;tigung der Abmeldung</text>
</g>
<!-- 10&#45;&gt;A06 -->
<g id="edge21" class="edge">
<title>10-&gt;A06</title>
<path fill="none" stroke="#7aab8a" d="M1078.15,-584.57C1067.55,-567.7 1058.02,-549.5 1051.65,-531.11 1040.41,-498.68 1038.68,-459.59 1039.43,-430.77"/>
<polygon fill="#7aab8a" stroke="#7aab8a" points="1042.92,-431.13 1039.81,-421 1035.93,-430.86 1042.92,-431.13"/>
<text text-anchor="start" x="1051.4" y="-504.79" font-family="Times,serif" font-weight="bold" font-size="14.00">NEIN</text>
</g>
<!-- 11 -->
<g id="node18" class="node">
<title>11</title>
<path fill="#7aab8a" stroke="black" stroke-width="0" d="M1595.18,-531.11C1595.18,-531.11 1115.62,-531.11 1115.62,-531.11 1109.62,-531.11 1103.62,-525.11 1103.62,-519.11 1103.62,-519.11 1103.62,-497.83 1103.62,-497.83 1103.62,-491.83 1109.62,-485.83 1115.62,-485.83 1115.62,-485.83 1595.18,-485.83 1595.18,-485.83 1601.18,-485.83 1607.18,-491.83 1607.18,-497.83 1607.18,-497.83 1607.18,-519.11 1607.18,-519.11 1607.18,-525.11 1601.18,-531.11 1595.18,-531.11"/>
<text text-anchor="start" x="1118.03" y="-510.17" font-family="Times,serif" font-weight="bold" font-size="14.00">11: </text>
<text text-anchor="start" x="1147.28" y="-510.17" font-family="Times,serif" font-size="14.00">Ist der anfragende LF am Folgetag des Abmeldungsdatum der</text>
<text text-anchor="start" x="1118.03" y="-496.17" font-family="Times,serif" font-size="14.00">Marktlokation noch zugeordnet?</text>
</g>
<!-- 10&#45;&gt;11 -->
<g id="edge20" class="edge">
<title>10-&gt;11</title>
<path fill="none" stroke="#7aab8a" d="M1257.02,-584.56C1279.2,-567.63 1301.01,-550.99 1318.44,-537.68"/>
<polygon fill="#7aab8a" stroke="#7aab8a" points="1320.1,-540.82 1325.93,-531.97 1315.85,-535.25 1320.1,-540.82"/>
<text text-anchor="start" x="1298.4" y="-554.06" font-family="Times,serif" font-weight="bold" font-size="14.00">JA</text>
</g>
<!-- 11&#45;&gt;A06 -->
<g id="edge23" class="edge">
<title>11-&gt;A06</title>
<path fill="none" stroke="#7aab8a" d="M1294.05,-485.92C1252.75,-471.25 1197.13,-451.19 1148.4,-432.58 1141.09,-429.79 1133.53,-426.85 1125.95,-423.87"/>
<polygon fill="#7aab8a" stroke="#7aab8a" points="1127.25,-420.62 1116.66,-420.2 1124.67,-427.13 1127.25,-420.62"/>
<text text-anchor="start" x="1238.4" y="-455.53" font-family="Times,serif" font-weight="bold" font-size="14.00">JA</text>
</g>
<!-- 12 -->
<g id="node19" class="node">
<title>12</title>
<path fill="#7aab8a" stroke="black" stroke-width="0" d="M1621.68,-432.58C1621.68,-432.58 1169.12,-432.58 1169.12,-432.58 1163.12,-432.58 1157.12,-426.58 1157.12,-420.58 1157.12,-420.58 1157.12,-357.3 1157.12,-357.3 1157.12,-351.3 1163.12,-345.3 1169.12,-345.3 1169.12,-345.3 1621.68,-345.3 1621.68,-345.3 1627.68,-345.3 1633.68,-351.3 1633.68,-357.3 1633.68,-357.3 1633.68,-420.58 1633.68,-420.58 1633.68,-426.58 1627.68,-432.58 1621.68,-432.58"/>
<text text-anchor="start" x="1171.53" y="-411.64" font-family="Times,serif" font-weight="bold" font-size="14.00">12: </text>
<text text-anchor="start" x="1200.78" y="-411.64" font-family="Times,serif" font-size="14.00">Liegt ein Transaktionsgrund vor, aus welchem hervorgeht,</text>
<text text-anchor="start" x="1171.53" y="-397.64" font-family="Times,serif" font-size="14.00">dass der Anschlussnutzer ausgezogen ist?</text>
<text text-anchor="start" x="1171.53" y="-383.64" font-family="Times,serif" font-size="14.00">Das ist bei den folgenden Transaktionsgr&#252;nden der Fall:</text>
<text text-anchor="start" x="1171.53" y="-369.64" font-family="Times,serif" font-size="14.00">&#61599; Ein-/Auszug (Umzug)</text>
<text text-anchor="start" x="1171.53" y="-355.64" font-family="Times,serif" font-size="14.00">&#61599; Auszug wegen Stilllegung</text>
</g>
<!-- 11&#45;&gt;12 -->
<g id="edge22" class="edge">
<title>11-&gt;12</title>
<path fill="none" stroke="#7aab8a" d="M1362.74,-485.91C1366.84,-473.86 1372.15,-458.26 1377.29,-443.16"/>
<polygon fill="#7aab8a" stroke="#7aab8a" points="1380.59,-444.33 1380.49,-433.74 1373.96,-442.08 1380.59,-444.33"/>
<text text-anchor="start" x="1373.4" y="-455.53" font-family="Times,serif" font-weight="bold" font-size="14.00">NEIN</text>
</g>
<!-- A07 -->
<g id="node20" class="node">
<title>A07</title>
<path fill="#cfb986" stroke="black" stroke-width="0" d="M1308.89,-264.17C1308.89,-264.17 1033.91,-264.17 1033.91,-264.17 1027.91,-264.17 1021.91,-258.17 1021.91,-252.17 1021.91,-252.17 1021.91,-202.65 1021.91,-202.65 1021.91,-196.65 1027.91,-190.65 1033.91,-190.65 1033.91,-190.65 1308.89,-190.65 1308.89,-190.65 1314.89,-190.65 1320.89,-196.65 1320.89,-202.65 1320.89,-202.65 1320.89,-252.17 1320.89,-252.17 1320.89,-258.17 1314.89,-264.17 1308.89,-264.17"/>
<text text-anchor="start" x="1034.15" y="-246.11" font-family="Times,serif" font-weight="bold" font-size="14.00">A07</text>
<text text-anchor="start" x="1034.15" y="-234.01" font-family="Times,serif" text-decoration="underline" font-size="12.00">Hinweis:</text>
<text text-anchor="start" x="1034.15" y="-222.01" font-family="Times,serif" font-size="12.00">Cluster: Ablehnung</text>
<text text-anchor="start" x="1034.15" y="-210.01" font-family="Times,serif" font-size="12.00">Lieferende zum Abmeldedatum wurde bereits</text>
<text text-anchor="start" x="1034.15" y="-198.01" font-family="Times,serif" font-size="12.00">best&#228;tigt</text>
</g>
<!-- 12&#45;&gt;A07 -->
<g id="edge24" class="edge">
<title>12-&gt;A07</title>
<path fill="none" stroke="#7aab8a" d="M1335.67,-345.4C1303.23,-322.3 1263.25,-293.82 1230.85,-270.75"/>
<polygon fill="#7aab8a" stroke="#7aab8a" points="1232.9,-267.92 1222.73,-264.97 1228.84,-273.62 1232.9,-267.92"/>
<text text-anchor="start" x="1309.4" y="-315" font-family="Times,serif" font-weight="bold" font-size="14.00">NEIN</text>
</g>
<!-- 13 -->
<g id="node21" class="node">
<title>13</title>
<path fill="#7aab8a" stroke="black" stroke-width="0" d="M1783.93,-292.05C1783.93,-292.05 1350.88,-292.05 1350.88,-292.05 1344.88,-292.05 1338.88,-286.05 1338.88,-280.05 1338.88,-280.05 1338.88,-174.77 1338.88,-174.77 1338.88,-168.77 1344.88,-162.77 1350.88,-162.77 1350.88,-162.77 1783.93,-162.77 1783.93,-162.77 1789.93,-162.77 1795.93,-168.77 1795.93,-174.77 1795.93,-174.77 1795.93,-280.05 1795.93,-280.05 1795.93,-286.05 1789.93,-292.05 1783.93,-292.05"/>
<text text-anchor="start" x="1353.28" y="-271.11" font-family="Times,serif" font-weight="bold" font-size="14.00">13: </text>
<text text-anchor="start" x="1382.53" y="-271.11" font-family="Times,serif" font-size="14.00">Liegt in der bereits best&#228;tigten Abmeldung ein</text>
<text text-anchor="start" x="1353.28" y="-257.11" font-family="Times,serif" font-size="14.00">Transaktionsgrund vor, aus welchem nicht hervorgeht, dass</text>
<text text-anchor="start" x="1353.28" y="-243.11" font-family="Times,serif" font-size="14.00">der Anschlussnutzer ausgezogen ist?</text>
<text text-anchor="start" x="1353.28" y="-229.11" font-family="Times,serif" font-size="14.00">Das ist bei den folgenden Transaktionsgr&#252;nden der Fall:</text>
<text text-anchor="start" x="1353.28" y="-215.11" font-family="Times,serif" font-size="14.00">&#61599; Ein-/Auszug (Umzug)</text>
<text text-anchor="start" x="1353.28" y="-201.11" font-family="Times,serif" font-size="14.00">&#61599; Auszug wegen Stilllegung</text>
<text text-anchor="start" x="1353.28" y="-187.11" font-family="Times,serif" font-size="14.00">&#61599; Aufhebung einer zuk&#252;nftigen Zuordnung wegen</text>
<text text-anchor="start" x="1353.28" y="-173.11" font-family="Times,serif" font-size="14.00">Stilllegung</text>
</g>
<!-- 12&#45;&gt;13 -->
<g id="edge25" class="edge">
<title>12-&gt;13</title>
<path fill="none" stroke="#7aab8a" d="M1441.04,-345.61C1456.27,-331.49 1473.67,-315.34 1490.6,-299.64"/>
<polygon fill="#7aab8a" stroke="#7aab8a" points="1492.79,-302.38 1497.75,-293.01 1488.03,-297.25 1492.79,-302.38"/>
<text text-anchor="start" x="1475.4" y="-315" font-family="Times,serif" font-weight="bold" font-size="14.00">JA</text>
</g>
<!-- A08 -->
<g id="node22" class="node">
<title>A08</title>
<path fill="#cfb986" stroke="black" stroke-width="0" d="M1423.77,-91.52C1423.77,-91.52 1169.04,-91.52 1169.04,-91.52 1163.04,-91.52 1157.04,-85.52 1157.04,-79.52 1157.04,-79.52 1157.04,-30 1157.04,-30 1157.04,-24 1163.04,-18 1169.04,-18 1169.04,-18 1423.77,-18 1423.77,-18 1429.77,-18 1435.77,-24 1435.77,-30 1435.77,-30 1435.77,-79.52 1435.77,-79.52 1435.77,-85.52 1429.77,-91.52 1423.77,-91.52"/>
<text text-anchor="start" x="1169.28" y="-73.46" font-family="Times,serif" font-weight="bold" font-size="14.00">A08</text>
<text text-anchor="start" x="1169.28" y="-61.36" font-family="Times,serif" text-decoration="underline" font-size="12.00">Hinweis:</text>
<text text-anchor="start" x="1169.28" y="-49.36" font-family="Times,serif" font-size="12.00">Cluster: Ablehnung</text>
<text text-anchor="start" x="1169.28" y="-37.36" font-family="Times,serif" font-size="12.00">Lieferende zum Abmeldedatum wurde aus</text>
<text text-anchor="start" x="1169.28" y="-25.36" font-family="Times,serif" font-size="12.00">gleichem Grund bereits best&#228;tigt.</text>
</g>
<!-- 13&#45;&gt;A08 -->
<g id="edge26" class="edge">
<title>13-&gt;A08</title>
<path fill="none" stroke="#7aab8a" d="M1466.49,-162.87C1431.71,-140.97 1393.68,-117.02 1362.41,-97.33"/>
<polygon fill="#7aab8a" stroke="#7aab8a" points="1364.55,-94.54 1354.22,-92.17 1360.82,-100.46 1364.55,-94.54"/>
<text text-anchor="start" x="1431.4" y="-132.47" font-family="Times,serif" font-weight="bold" font-size="14.00">NEIN</text>
</g>
<!-- A09 -->
<g id="node23" class="node">
<title>A09</title>
<path fill="#cfb986" stroke="black" stroke-width="0" d="M1769.14,-109.52C1769.14,-109.52 1465.66,-109.52 1465.66,-109.52 1459.66,-109.52 1453.66,-103.52 1453.66,-97.52 1453.66,-97.52 1453.66,-12 1453.66,-12 1453.66,-6 1459.66,0 1465.66,0 1465.66,0 1769.14,0 1769.14,0 1775.14,0 1781.14,-6 1781.14,-12 1781.14,-12 1781.14,-97.52 1781.14,-97.52 1781.14,-103.52 1775.14,-109.52 1769.14,-109.52"/>
<text text-anchor="start" x="1465.9" y="-91.46" font-family="Times,serif" font-weight="bold" font-size="14.00">A09</text>
<text text-anchor="start" x="1465.9" y="-79.36" font-family="Times,serif" text-decoration="underline" font-size="12.00">Hinweis:</text>
<text text-anchor="start" x="1465.9" y="-67.36" font-family="Times,serif" font-size="12.00">Cluster: Zustimmung</text>
<text text-anchor="start" x="1465.9" y="-55.36" font-family="Times,serif" font-size="12.00">Erneute Best&#228;tigung der Abmeldung aufgrund der</text>
<text text-anchor="start" x="1465.9" y="-43.36" font-family="Times,serif" font-size="12.00">Information, dass der Anschlussnutzer nicht mehr</text>
<text text-anchor="start" x="1465.9" y="-31.36" font-family="Times,serif" font-size="12.00">an der Marktlokation vorhanden ist.</text>
<text text-anchor="start" x="1465.9" y="-19.36" font-family="Times,serif" font-size="12.00">Hinweis: Das bisher best&#228;tigte Bilanzierungsende</text>
<text text-anchor="start" x="1465.9" y="-7.36" font-family="Times,serif" font-size="12.00">bleibt unver&#228;ndert bestehen.</text>
</g>
<!-- 13&#45;&gt;A09 -->
<g id="edge27" class="edge">
<title>13-&gt;A09</title>
<path fill="none" stroke="#7aab8a" d="M1586.02,-162.87C1590.09,-148.96 1594.41,-134.22 1598.5,-120.28"/>
<polygon fill="#7aab8a" stroke="#7aab8a" points="1601.84,-121.33 1601.29,-110.75 1595.12,-119.36 1601.84,-121.33"/>
<text text-anchor="start" x="1594.4" y="-132.47" font-family="Times,serif" font-weight="bold" font-size="14.00">JA</text>
</g>
</g>
</svg>
  </g>
</svg>
  </g>
</svg>
