<?xml version='1.0' encoding='ASCII' standalone='yes'?>
<svg xmlns="http://www.w3.org/2000/svg" xmlns:xlink="http://www.w3.org/1999/xlink" version="1.1" width="1920.0px" viewBox="0 0 1920.0 1660.0" height="1660.0px">
  <g>
    <svg version="1.1" width="1920.0px" viewBox="0 0 1920.0 1660.0" height="1660.0px">
  <polygon fill="#f3f1f6" points="0,0 1920.0,0 1920.0,1660.0 0,1660.0"/><g>
    <g transform="translate(283.0509715573078, 165.99999999999997) scale(1 1) translate(0, 0) scale(2.337369754998592 2.337369754998592) "><!-- note that I manually added the width and height attribute to the root node
  https://chatgpt.com/share/678e3028-70cc-800b-a296-782714735772
  -->
  <defs>
    <style>.cls-1{fill:#fff;}</style>
  </defs>
  <path class="cls-1" d="M122.44,531.2h-56.1c-11,0-19.9-9.12-19.46-20.11C57.47,243.89,278.15,29.78,547.91,29.78v56.02c0,10.98-8.69,19.89-19.66,20.39-225.51,10.31-405.8,197-405.8,425Z"/>
  <path class="cls-1" d="M273.78,531.2h-55.93c-11.23,0-20.09-9.48-19.43-20.69,10.74-183.44,163.39-329.39,349.48-329.39v56.26c0,10.71-8.27,19.62-18.96,20.35-142.35,9.77-255.17,128.69-255.17,273.46Z"/>
  <path class="cls-1" d="M425.77,531.2h-55.45c-11.65,0-20.6-10.17-19.33-21.75,10.87-99.03,95.03-176.34,196.92-176.34v57.01c0,10.05-7.28,18.75-17.23,20.16-59.22,8.4-104.91,59.42-104.91,120.92Z"/>
</g>
    <svg width="1440pt" height="1245pt" viewBox="0.00 0.00 1440.00 1244.73">
<g id="graph0" class="graph" transform="scale(0.798662 0.798662) rotate(0) translate(4 1554.52)">
<title>D</title>
<text text-anchor="start" x="752.76" y="-1530.42" font-family="Roboto, sans-serif" font-weight="bold" font-size="18.00">6.2 AD: Lieferende LF an NB</text>
<text text-anchor="start" x="752.76" y="-1500.32" font-family="Roboto, sans-serif" font-weight="bold" font-size="16.00">6.2.1 E_0401_Abmeldung pr&#252;fen</text>
<!-- Start -->
<g id="node1" class="node">
<title>Start</title>
<path fill="#7a8da1" stroke="black" stroke-width="0" d="M1103.68,-1452.52C1103.68,-1452.52 972.13,-1452.52 972.13,-1452.52 966.13,-1452.52 960.13,-1446.52 960.13,-1440.52 960.13,-1440.52 960.13,-1421.24 960.13,-1421.24 960.13,-1415.24 966.13,-1409.24 972.13,-1409.24 972.13,-1409.24 1103.68,-1409.24 1103.68,-1409.24 1109.68,-1409.24 1115.68,-1415.24 1115.68,-1421.24 1115.68,-1421.24 1115.68,-1440.52 1115.68,-1440.52 1115.68,-1446.52 1109.68,-1452.52 1103.68,-1452.52"/>
<text text-anchor="start" x="1010.15" y="-1431.58" font-family="Roboto, sans-serif" font-weight="bold" font-size="14.00">E_0401</text>
<text text-anchor="start" x="974.53" y="-1419.48" font-family="Roboto, sans-serif" font-weight="bold" text-decoration="underline" font-size="12.00">Pr&#252;fende Rolle:</text>
<text text-anchor="start" x="1078.03" y="-1419.48" font-family="Roboto, sans-serif" font-weight="bold" font-size="12.00"> NB</text>
</g>
<!-- 1 -->
<g id="node2" class="node">
<title>1</title>
<path fill="#7aab8a" stroke="black" stroke-width="0" d="M1258.55,-1372.24C1258.55,-1372.24 817.25,-1372.24 817.25,-1372.24 811.25,-1372.24 805.25,-1366.24 805.25,-1360.24 805.25,-1360.24 805.25,-1268.96 805.25,-1268.96 805.25,-1262.96 811.25,-1256.96 817.25,-1256.96 817.25,-1256.96 1258.55,-1256.96 1258.55,-1256.96 1264.55,-1256.96 1270.55,-1262.96 1270.55,-1268.96 1270.55,-1268.96 1270.55,-1360.24 1270.55,-1360.24 1270.55,-1366.24 1264.55,-1372.24 1258.55,-1372.24"/>
<text text-anchor="start" x="819.65" y="-1351.3" font-family="Roboto, sans-serif" font-weight="bold" font-size="14.00">1: </text>
<text text-anchor="start" x="839.15" y="-1351.3" font-family="Roboto, sans-serif" font-size="14.00">Liegt ein Transaktionsgrund vor, der eine Abmeldung nur in</text>
<text text-anchor="start" x="819.65" y="-1337.3" font-family="Roboto, sans-serif" font-size="14.00">die Zukunft zul&#228;sst?</text>
<text text-anchor="start" x="819.65" y="-1323.3" font-family="Roboto, sans-serif" font-size="14.00">Das ist bei den folgenden Transaktionsgr&#252;nden der Fall:</text>
<text text-anchor="start" x="819.65" y="-1309.3" font-family="Roboto, sans-serif" font-size="14.00">&#61599; Wechsel</text>
<text text-anchor="start" x="819.65" y="-1295.3" font-family="Roboto, sans-serif" font-size="14.00">&#61599; Ende der ESV ohne Folgelieferung</text>
<text text-anchor="start" x="819.65" y="-1281.3" font-family="Roboto, sans-serif" font-size="14.00">&#61599; Aufhebung einer zuk&#252;nftigen Zuordnung wegen</text>
<text text-anchor="start" x="819.65" y="-1267.3" font-family="Roboto, sans-serif" font-size="14.00">aufgehobenem Vertragsverh&#228;ltnis</text>
</g>
<!-- Start&#45;&gt;1 -->
<g id="edge1" class="edge">
<title>Start-&gt;1</title>
<path fill="none" stroke="black" d="M1037.9,-1409.45C1037.9,-1401.88 1037.9,-1392.82 1037.9,-1383.36"/>
<polygon fill="black" stroke="black" points="1041.4,-1383.65 1037.9,-1373.65 1034.4,-1383.65 1041.4,-1383.65"/>
</g>
<!-- 2 -->
<g id="node3" class="node">
<title>2</title>
<path fill="#7aab8a" stroke="black" stroke-width="0" d="M1027.92,-1203.71C1027.92,-1203.71 597.88,-1203.71 597.88,-1203.71 591.88,-1203.71 585.88,-1197.71 585.88,-1191.71 585.88,-1191.71 585.88,-1086.43 585.88,-1086.43 585.88,-1080.43 591.88,-1074.43 597.88,-1074.43 597.88,-1074.43 1027.92,-1074.43 1027.92,-1074.43 1033.92,-1074.43 1039.92,-1080.43 1039.92,-1086.43 1039.92,-1086.43 1039.92,-1191.71 1039.92,-1191.71 1039.92,-1197.71 1033.92,-1203.71 1027.92,-1203.71"/>
<text text-anchor="start" x="600.27" y="-1182.77" font-family="Roboto, sans-serif" font-weight="bold" font-size="14.00">2: </text>
<text text-anchor="start" x="619.77" y="-1182.77" font-family="Roboto, sans-serif" font-size="14.00">Liegt ein Transaktionsgrund vor, welcher mitteilt, dass der</text>
<text text-anchor="start" x="600.27" y="-1168.77" font-family="Roboto, sans-serif" font-size="14.00">Kunde vor Lieferbeginn ausgezogen ist, bzw. die</text>
<text text-anchor="start" x="600.27" y="-1154.77" font-family="Roboto, sans-serif" font-size="14.00">Marktlokation vor Lieferbeginn stillgelegt wurde?</text>
<text text-anchor="start" x="600.27" y="-1140.77" font-family="Roboto, sans-serif" font-size="14.00">Das ist bei den folgenden Transaktionsgr&#252;nden der Fall:</text>
<text text-anchor="start" x="600.27" y="-1126.77" font-family="Roboto, sans-serif" font-size="14.00">&#61599; Aufhebung einer zuk&#252;nftigen Zuordnung wegen Auszug</text>
<text text-anchor="start" x="600.27" y="-1112.77" font-family="Roboto, sans-serif" font-size="14.00">des Kunden</text>
<text text-anchor="start" x="600.27" y="-1098.77" font-family="Roboto, sans-serif" font-size="14.00">&#61599; Aufhebung einer zuk&#252;nftigen Zuordnung wegen</text>
<text text-anchor="start" x="600.27" y="-1084.77" font-family="Roboto, sans-serif" font-size="14.00">Stilllegung</text>
</g>
<!-- 1&#45;&gt;2 -->
<g id="edge3" class="edge">
<title>1-&gt;2</title>
<path fill="none" stroke="#7aab8a" d="M964.54,-1257.02C945.21,-1242.11 924.13,-1225.85 903.99,-1210.32"/>
<polygon fill="#7aab8a" stroke="#7aab8a" points="906.38,-1207.74 896.32,-1204.41 902.1,-1213.29 906.38,-1207.74"/>
<text text-anchor="start" x="937.9" y="-1226.66" font-family="Roboto, sans-serif" font-weight="bold" font-size="14.00">NEIN</text>
</g>
<!-- 4 -->
<g id="node6" class="node">
<title>4</title>
<path fill="#7aab8a" stroke="black" stroke-width="0" d="M1458.3,-1161.71C1458.3,-1161.71 1069.5,-1161.71 1069.5,-1161.71 1063.5,-1161.71 1057.5,-1155.71 1057.5,-1149.71 1057.5,-1149.71 1057.5,-1128.43 1057.5,-1128.43 1057.5,-1122.43 1063.5,-1116.43 1069.5,-1116.43 1069.5,-1116.43 1458.3,-1116.43 1458.3,-1116.43 1464.3,-1116.43 1470.3,-1122.43 1470.3,-1128.43 1470.3,-1128.43 1470.3,-1149.71 1470.3,-1149.71 1470.3,-1155.71 1464.3,-1161.71 1458.3,-1161.71"/>
<text text-anchor="start" x="1071.9" y="-1140.77" font-family="Roboto, sans-serif" font-weight="bold" font-size="14.00">4: </text>
<text text-anchor="start" x="1091.4" y="-1140.77" font-family="Roboto, sans-serif" font-size="14.00">Liegt das Eingangsdatum mindestens 6 WT vor dem</text>
<text text-anchor="start" x="1071.9" y="-1126.77" font-family="Roboto, sans-serif" font-size="14.00">Abmeldedatum?</text>
</g>
<!-- 1&#45;&gt;4 -->
<g id="edge2" class="edge">
<title>1-&gt;4</title>
<path fill="none" stroke="#7aab8a" d="M1111.59,-1257.02C1150.28,-1227.31 1195.99,-1192.21 1227.17,-1168.27"/>
<polygon fill="#7aab8a" stroke="#7aab8a" points="1228.96,-1171.31 1234.76,-1162.45 1224.69,-1165.76 1228.96,-1171.31"/>
<text text-anchor="start" x="1150.9" y="-1226.66" font-family="Roboto, sans-serif" font-weight="bold" font-size="14.00">JA</text>
</g>
<!-- 3 -->
<g id="node4" class="node">
<title>3</title>
<path fill="#7aab8a" stroke="black" stroke-width="0" d="M1028.8,-1007.06C1028.8,-1007.06 601,-1007.06 601,-1007.06 595,-1007.06 589,-1001.06 589,-995.06 589,-995.06 589,-973.78 589,-973.78 589,-967.78 595,-961.78 601,-961.78 601,-961.78 1028.8,-961.78 1028.8,-961.78 1034.8,-961.78 1040.8,-967.78 1040.8,-973.78 1040.8,-973.78 1040.8,-995.06 1040.8,-995.06 1040.8,-1001.06 1034.8,-1007.06 1028.8,-1007.06"/>
<text text-anchor="start" x="603.4" y="-986.12" font-family="Roboto, sans-serif" font-weight="bold" font-size="14.00">3: </text>
<text text-anchor="start" x="622.9" y="-986.12" font-family="Roboto, sans-serif" font-size="14.00">Liegt das Abmeldedatum mindestens einen Tag nach dem</text>
<text text-anchor="start" x="603.4" y="-972.12" font-family="Roboto, sans-serif" font-size="14.00">Eingangsdatum der Abmeldung?</text>
</g>
<!-- 2&#45;&gt;3 -->
<g id="edge4" class="edge">
<title>2-&gt;3</title>
<path fill="none" stroke="#7aab8a" d="M813.73,-1074.66C813.99,-1055.15 814.26,-1034.48 814.47,-1017.95"/>
<polygon fill="#7aab8a" stroke="#7aab8a" points="817.97,-1018.28 814.6,-1008.23 810.97,-1018.19 817.97,-1018.28"/>
<text text-anchor="start" x="813.9" y="-1044.13" font-family="Roboto, sans-serif" font-weight="bold" font-size="14.00">JA</text>
</g>
<!-- 6 -->
<g id="node9" class="node">
<title>6</title>
<path fill="#7aab8a" stroke="black" stroke-width="0" d="M558.55,-1014.06C558.55,-1014.06 153.25,-1014.06 153.25,-1014.06 147.25,-1014.06 141.25,-1008.06 141.25,-1002.06 141.25,-1002.06 141.25,-966.78 141.25,-966.78 141.25,-960.78 147.25,-954.78 153.25,-954.78 153.25,-954.78 558.55,-954.78 558.55,-954.78 564.55,-954.78 570.55,-960.78 570.55,-966.78 570.55,-966.78 570.55,-1002.06 570.55,-1002.06 570.55,-1008.06 564.55,-1014.06 558.55,-1014.06"/>
<text text-anchor="start" x="155.65" y="-993.12" font-family="Roboto, sans-serif" font-weight="bold" font-size="14.00">6: </text>
<text text-anchor="start" x="175.15" y="-993.12" font-family="Roboto, sans-serif" font-size="14.00">Handelt es sich um eine Marktlokation, deren Mess-</text>
<text text-anchor="start" x="155.65" y="-979.12" font-family="Roboto, sans-serif" font-size="14.00">lokationen vollst&#228;ndig mit iMS ausgestattet sind oder/und</text>
<text text-anchor="start" x="155.65" y="-965.12" font-family="Roboto, sans-serif" font-size="14.00">deren Prognosegrundlage auf Basis von Werten erfolgt?</text>
</g>
<!-- 2&#45;&gt;6 -->
<g id="edge5" class="edge">
<title>2-&gt;6</title>
<path fill="none" stroke="#7aab8a" d="M622.4,-1074.44C563.76,-1054.85 501.68,-1034.12 452.21,-1017.59"/>
<polygon fill="#7aab8a" stroke="#7aab8a" points="453.56,-1014.35 442.97,-1014.5 451.34,-1020.99 453.56,-1014.35"/>
<text text-anchor="start" x="556.9" y="-1044.13" font-family="Roboto, sans-serif" font-weight="bold" font-size="14.00">NEIN</text>
</g>
<!-- A01 -->
<g id="node5" class="node">
<title>A01</title>
<path fill="#cfb986" stroke="black" stroke-width="0" d="M1223.77,-894.41C1223.77,-894.41 948.04,-894.41 948.04,-894.41 942.04,-894.41 936.04,-888.41 936.04,-882.41 936.04,-882.41 936.04,-820.89 936.04,-820.89 936.04,-814.89 942.04,-808.89 948.04,-808.89 948.04,-808.89 1223.77,-808.89 1223.77,-808.89 1229.77,-808.89 1235.77,-814.89 1235.77,-820.89 1235.77,-820.89 1235.77,-882.41 1235.77,-882.41 1235.77,-888.41 1229.77,-894.41 1223.77,-894.41"/>
<text text-anchor="start" x="948.28" y="-876.35" font-family="Roboto, sans-serif" font-weight="bold" font-size="14.00">A01</text>
<text text-anchor="start" x="948.28" y="-864.25" font-family="Roboto, sans-serif" text-decoration="underline" font-size="12.00">Hinweis:</text>
<text text-anchor="start" x="948.28" y="-852.25" font-family="Roboto, sans-serif" font-size="12.00">Cluster: Ablehnung</text>
<text text-anchor="start" x="948.28" y="-840.25" font-family="Roboto, sans-serif" font-size="12.00">Frist&#252;berschreitung bei Aufhebung einer zu-</text>
<text text-anchor="start" x="948.28" y="-828.25" font-family="Roboto, sans-serif" font-size="12.00">k&#252;nftigen Zuordnung wegen Auszug oder Still-</text>
<text text-anchor="start" x="948.28" y="-816.25" font-family="Roboto, sans-serif" font-size="12.00">legung.</text>
</g>
<!-- 3&#45;&gt;A01 -->
<g id="edge6" class="edge">
<title>3-&gt;A01</title>
<path fill="none" stroke="#7aab8a" d="M859.65,-961.83C894.8,-944.87 945.02,-920.63 989.22,-899.3"/>
<polygon fill="#7aab8a" stroke="#7aab8a" points="990.58,-902.53 998.07,-895.03 987.54,-896.23 990.58,-902.53"/>
<text text-anchor="start" x="957.9" y="-917.36" font-family="Roboto, sans-serif" font-weight="bold" font-size="14.00">NEIN</text>
</g>
<!-- 9 -->
<g id="node14" class="node">
<title>9</title>
<path fill="#7aab8a" stroke="black" stroke-width="0" d="M1782.93,-881.29C1782.93,-881.29 1340.88,-881.29 1340.88,-881.29 1334.88,-881.29 1328.88,-875.29 1328.88,-869.29 1328.88,-869.29 1328.88,-834.01 1328.88,-834.01 1328.88,-828.01 1334.88,-822.01 1340.88,-822.01 1340.88,-822.01 1782.93,-822.01 1782.93,-822.01 1788.93,-822.01 1794.93,-828.01 1794.93,-834.01 1794.93,-834.01 1794.93,-869.29 1794.93,-869.29 1794.93,-875.29 1788.93,-881.29 1782.93,-881.29"/>
<text text-anchor="start" x="1343.28" y="-860.35" font-family="Roboto, sans-serif" font-weight="bold" font-size="14.00">9: </text>
<text text-anchor="start" x="1362.78" y="-860.35" font-family="Roboto, sans-serif" font-size="14.00">Erfolgt die Aufhebung einer zuk&#252;nftigen Zuordnung zu dem</text>
<text text-anchor="start" x="1343.28" y="-846.35" font-family="Roboto, sans-serif" font-size="14.00">gleichen Datum (Zeitpunkt), welcher dem Lieferanten im</text>
<text text-anchor="start" x="1343.28" y="-832.35" font-family="Roboto, sans-serif" font-size="14.00">Lieferbeginn best&#228;tigt wurde?</text>
</g>
<!-- 3&#45;&gt;9 -->
<g id="edge7" class="edge">
<title>3-&gt;9</title>
<path fill="none" stroke="#7aab8a" d="M938.25,-961.83C1060.7,-940.39 1249.55,-907.33 1387.36,-883.21"/>
<polygon fill="#7aab8a" stroke="#7aab8a" points="1387.7,-886.7 1396.95,-881.53 1386.49,-879.8 1387.7,-886.7"/>
<text text-anchor="start" x="1209.9" y="-917.36" font-family="Roboto, sans-serif" font-weight="bold" font-size="14.00">JA</text>
</g>
<!-- A02 -->
<g id="node7" class="node">
<title>A02</title>
<path fill="#cfb986" stroke="black" stroke-width="0" d="M1783.02,-1021.18C1783.02,-1021.18 1496.79,-1021.18 1496.79,-1021.18 1490.79,-1021.18 1484.79,-1015.18 1484.79,-1009.18 1484.79,-1009.18 1484.79,-959.66 1484.79,-959.66 1484.79,-953.66 1490.79,-947.66 1496.79,-947.66 1496.79,-947.66 1783.02,-947.66 1783.02,-947.66 1789.02,-947.66 1795.02,-953.66 1795.02,-959.66 1795.02,-959.66 1795.02,-1009.18 1795.02,-1009.18 1795.02,-1015.18 1789.02,-1021.18 1783.02,-1021.18"/>
<text text-anchor="start" x="1497.03" y="-1003.12" font-family="Roboto, sans-serif" font-weight="bold" font-size="14.00">A02</text>
<text text-anchor="start" x="1497.03" y="-991.02" font-family="Roboto, sans-serif" text-decoration="underline" font-size="12.00">Hinweis:</text>
<text text-anchor="start" x="1497.03" y="-979.02" font-family="Roboto, sans-serif" font-size="12.00">Cluster: Ablehnung</text>
<text text-anchor="start" x="1497.03" y="-967.02" font-family="Roboto, sans-serif" font-size="12.00">Frist&#252;berschreitung bei Transaktionsgr&#252;nden f&#252;r</text>
<text text-anchor="start" x="1497.03" y="-955.02" font-family="Roboto, sans-serif" font-size="12.00">eine Abmeldung in der Zukunft.</text>
</g>
<!-- 4&#45;&gt;A02 -->
<g id="edge8" class="edge">
<title>4-&gt;A02</title>
<path fill="none" stroke="#7aab8a" d="M1316.97,-1116.52C1375.15,-1092.91 1469.75,-1054.5 1541.56,-1025.35"/>
<polygon fill="#7aab8a" stroke="#7aab8a" points="1542.63,-1028.69 1550.58,-1021.68 1539.99,-1022.2 1542.63,-1028.69"/>
<text text-anchor="start" x="1495.9" y="-1044.13" font-family="Roboto, sans-serif" font-weight="bold" font-size="14.00">NEIN</text>
</g>
<!-- 5 -->
<g id="node8" class="node">
<title>5</title>
<path fill="#7aab8a" stroke="black" stroke-width="0" d="M1455.05,-1021.06C1455.05,-1021.06 1070.75,-1021.06 1070.75,-1021.06 1064.75,-1021.06 1058.75,-1015.06 1058.75,-1009.06 1058.75,-1009.06 1058.75,-959.78 1058.75,-959.78 1058.75,-953.78 1064.75,-947.78 1070.75,-947.78 1070.75,-947.78 1455.05,-947.78 1455.05,-947.78 1461.05,-947.78 1467.05,-953.78 1467.05,-959.78 1467.05,-959.78 1467.05,-1009.06 1467.05,-1009.06 1467.05,-1015.06 1461.05,-1021.06 1455.05,-1021.06"/>
<text text-anchor="start" x="1073.15" y="-1000.12" font-family="Roboto, sans-serif" font-weight="bold" font-size="14.00">5: </text>
<text text-anchor="start" x="1092.65" y="-1000.12" font-family="Roboto, sans-serif" font-size="14.00">Liegt der Transaktionsgrund</text>
<text text-anchor="start" x="1073.15" y="-986.12" font-family="Roboto, sans-serif" font-size="14.00">&#8226; Aufhebung einer zuk&#252;nftigen Zuordnung wegen auf-</text>
<text text-anchor="start" x="1073.15" y="-972.12" font-family="Roboto, sans-serif" font-size="14.00">gehobenem Vertragsverh&#228;ltnis</text>
<text text-anchor="start" x="1073.15" y="-958.12" font-family="Roboto, sans-serif" font-size="14.00">vor?</text>
</g>
<!-- 4&#45;&gt;5 -->
<g id="edge9" class="edge">
<title>4-&gt;5</title>
<path fill="none" stroke="#7aab8a" d="M1263.76,-1116.52C1263.62,-1094.71 1263.39,-1060.28 1263.21,-1032.17"/>
<polygon fill="#7aab8a" stroke="#7aab8a" points="1266.71,-1032.46 1263.14,-1022.48 1259.71,-1032.5 1266.71,-1032.46"/>
<text text-anchor="start" x="1262.9" y="-1044.13" font-family="Roboto, sans-serif" font-weight="bold" font-size="14.00">JA</text>
</g>
<!-- 5&#45;&gt;9 -->
<g id="edge10" class="edge">
<title>5-&gt;9</title>
<path fill="none" stroke="#7aab8a" d="M1387.95,-947.91C1403.63,-942.35 1419.29,-936.24 1433.9,-929.66 1460.28,-917.78 1487.98,-901.63 1510.83,-887.19"/>
<polygon fill="#7aab8a" stroke="#7aab8a" points="1512.5,-890.27 1519.04,-881.93 1508.73,-884.38 1512.5,-890.27"/>
<text text-anchor="start" x="1465.9" y="-917.36" font-family="Roboto, sans-serif" font-weight="bold" font-size="14.00">JA</text>
</g>
<!-- 10 -->
<g id="node16" class="node">
<title>10</title>
<path fill="#7aab8a" stroke="black" stroke-width="0" d="M1336.05,-755.64C1336.05,-755.64 903.75,-755.64 903.75,-755.64 897.75,-755.64 891.75,-749.64 891.75,-743.64 891.75,-743.64 891.75,-596.36 891.75,-596.36 891.75,-590.36 897.75,-584.36 903.75,-584.36 903.75,-584.36 1336.05,-584.36 1336.05,-584.36 1342.05,-584.36 1348.05,-590.36 1348.05,-596.36 1348.05,-596.36 1348.05,-743.64 1348.05,-743.64 1348.05,-749.64 1342.05,-755.64 1336.05,-755.64"/>
<text text-anchor="start" x="906.15" y="-734.7" font-family="Roboto, sans-serif" font-weight="bold" font-size="14.00">10: </text>
<text text-anchor="start" x="935.4" y="-734.7" font-family="Roboto, sans-serif" font-size="14.00">Wurde die Zuordnung des anfragenden Lieferanten zur</text>
<text text-anchor="start" x="906.15" y="-720.7" font-family="Roboto, sans-serif" font-size="14.00">Marktlokation zum identischen Abmeldedatum bereits durch</text>
<text text-anchor="start" x="906.15" y="-706.7" font-family="Roboto, sans-serif" font-size="14.00">eine Best&#228;tigung in den folgenden Prozessschritten beendet?</text>
<text text-anchor="start" x="906.15" y="-692.7" font-family="Roboto, sans-serif" font-size="14.00">Fall:</text>
<text text-anchor="start" x="906.15" y="-678.7" font-family="Roboto, sans-serif" font-size="14.00">&#61599; SD: Lieferende von LF an NB, Prozessschritt 2 "Antwort</text>
<text text-anchor="start" x="906.15" y="-664.7" font-family="Roboto, sans-serif" font-size="14.00">auf Abmeldung"</text>
<text text-anchor="start" x="906.15" y="-650.7" font-family="Roboto, sans-serif" font-size="14.00">&#61599; SD: Lieferende von NB an LF, Prozessschritt 2 "Antwort</text>
<text text-anchor="start" x="906.15" y="-636.7" font-family="Roboto, sans-serif" font-size="14.00">auf Abmeldung"</text>
<text text-anchor="start" x="906.15" y="-622.7" font-family="Roboto, sans-serif" font-size="14.00">&#61599; SD: Lieferbeginn, Prozessschritt 4 "Beantwortung der</text>
<text text-anchor="start" x="906.15" y="-608.7" font-family="Roboto, sans-serif" font-size="14.00">Abmeldeanfrage" oder die Best&#228;tigung erfolgt durch</text>
<text text-anchor="start" x="906.15" y="-594.7" font-family="Roboto, sans-serif" font-size="14.00">die Fristverstreichung</text>
</g>
<!-- 5&#45;&gt;10 -->
<g id="edge11" class="edge">
<title>5-&gt;10</title>
<path fill="none" stroke="#7aab8a" d="M1265.55,-948C1266.86,-911.52 1264.94,-853.82 1244.9,-808.89 1237.99,-793.4 1228.66,-778.46 1218.18,-764.5"/>
<polygon fill="#7aab8a" stroke="#7aab8a" points="1220.99,-762.41 1212.08,-756.67 1215.47,-766.71 1220.99,-762.41"/>
<text text-anchor="start" x="1263.9" y="-847.97" font-family="Roboto, sans-serif" font-weight="bold" font-size="14.00">NEIN</text>
</g>
<!-- 7 -->
<g id="node10" class="node">
<title>7</title>
<path fill="#7aab8a" stroke="black" stroke-width="0" d="M439.8,-874.29C439.8,-874.29 12,-874.29 12,-874.29 6,-874.29 0,-868.29 0,-862.29 0,-862.29 0,-841.01 0,-841.01 0,-835.01 6,-829.01 12,-829.01 12,-829.01 439.8,-829.01 439.8,-829.01 445.8,-829.01 451.8,-835.01 451.8,-841.01 451.8,-841.01 451.8,-862.29 451.8,-862.29 451.8,-868.29 445.8,-874.29 439.8,-874.29"/>
<text text-anchor="start" x="14.4" y="-853.35" font-family="Roboto, sans-serif" font-weight="bold" font-size="14.00">7: </text>
<text text-anchor="start" x="33.9" y="-853.35" font-family="Roboto, sans-serif" font-size="14.00">Liegt das Abmeldedatum mindestens einen Tag nach dem</text>
<text text-anchor="start" x="14.4" y="-839.35" font-family="Roboto, sans-serif" font-size="14.00">Eingangsdatum der Abmeldung?</text>
</g>
<!-- 6&#45;&gt;7 -->
<g id="edge12" class="edge">
<title>6-&gt;7</title>
<path fill="none" stroke="#7aab8a" d="M327.69,-955.04C306.24,-933.46 276.81,-903.86 255.11,-882.04"/>
<polygon fill="#7aab8a" stroke="#7aab8a" points="257.81,-879.78 248.27,-875.16 252.84,-884.72 257.81,-879.78"/>
<text text-anchor="start" x="297.9" y="-917.36" font-family="Roboto, sans-serif" font-weight="bold" font-size="14.00">JA</text>
</g>
<!-- 8 -->
<g id="node12" class="node">
<title>8</title>
<path fill="#7aab8a" stroke="black" stroke-width="0" d="M905.55,-874.29C905.55,-874.29 482.25,-874.29 482.25,-874.29 476.25,-874.29 470.25,-868.29 470.25,-862.29 470.25,-862.29 470.25,-841.01 470.25,-841.01 470.25,-835.01 476.25,-829.01 482.25,-829.01 482.25,-829.01 905.55,-829.01 905.55,-829.01 911.55,-829.01 917.55,-835.01 917.55,-841.01 917.55,-841.01 917.55,-862.29 917.55,-862.29 917.55,-868.29 911.55,-874.29 905.55,-874.29"/>
<text text-anchor="start" x="484.65" y="-853.35" font-family="Roboto, sans-serif" font-weight="bold" font-size="14.00">8: </text>
<text text-anchor="start" x="504.15" y="-853.35" font-family="Roboto, sans-serif" font-size="14.00">Liegt das Eingangsdatum der Abmeldung mehr als sechs</text>
<text text-anchor="start" x="484.65" y="-839.35" font-family="Roboto, sans-serif" font-size="14.00">Wochen nach dem Abmeldedatum der Abmeldung?</text>
</g>
<!-- 6&#45;&gt;8 -->
<g id="edge13" class="edge">
<title>6-&gt;8</title>
<path fill="none" stroke="#7aab8a" d="M429.66,-954.88C488.6,-932.08 570.49,-900.4 627.43,-878.37"/>
<polygon fill="#7aab8a" stroke="#7aab8a" points="628.64,-881.65 636.7,-874.78 626.11,-875.12 628.64,-881.65"/>
<text text-anchor="start" x="534.9" y="-917.36" font-family="Roboto, sans-serif" font-weight="bold" font-size="14.00">NEIN</text>
</g>
<!-- A03 -->
<g id="node11" class="node">
<title>A03</title>
<path fill="#cfb986" stroke="black" stroke-width="0" d="M358.14,-706.76C358.14,-706.76 93.66,-706.76 93.66,-706.76 87.66,-706.76 81.66,-700.76 81.66,-694.76 81.66,-694.76 81.66,-645.24 81.66,-645.24 81.66,-639.24 87.66,-633.24 93.66,-633.24 93.66,-633.24 358.14,-633.24 358.14,-633.24 364.14,-633.24 370.14,-639.24 370.14,-645.24 370.14,-645.24 370.14,-694.76 370.14,-694.76 370.14,-700.76 364.14,-706.76 358.14,-706.76"/>
<text text-anchor="start" x="93.9" y="-688.7" font-family="Roboto, sans-serif" font-weight="bold" font-size="14.00">A03</text>
<text text-anchor="start" x="93.9" y="-676.6" font-family="Roboto, sans-serif" text-decoration="underline" font-size="12.00">Hinweis:</text>
<text text-anchor="start" x="93.9" y="-664.6" font-family="Roboto, sans-serif" font-size="12.00">Cluster: Ablehnung</text>
<text text-anchor="start" x="93.9" y="-652.6" font-family="Roboto, sans-serif" font-size="12.00">Eingangsfrist bei iMS/kME mit RLM nicht ein-</text>
<text text-anchor="start" x="93.9" y="-640.6" font-family="Roboto, sans-serif" font-size="12.00">gehalten.</text>
</g>
<!-- 7&#45;&gt;A03 -->
<g id="edge14" class="edge">
<title>7-&gt;A03</title>
<path fill="none" stroke="#7aab8a" d="M225.9,-829.34C225.9,-802 225.9,-753.81 225.9,-717.75"/>
<polygon fill="#7aab8a" stroke="#7aab8a" points="229.4,-718.02 225.9,-708.02 222.4,-718.02 229.4,-718.02"/>
<text text-anchor="start" x="225.9" y="-778.59" font-family="Roboto, sans-serif" font-weight="bold" font-size="14.00">NEIN</text>
</g>
<!-- 7&#45;&gt;10 -->
<g id="edge15" class="edge">
<title>7-&gt;10</title>
<path fill="none" stroke="#7aab8a" d="M333.16,-829.01C373.11,-821.63 418.94,-813.97 460.9,-808.89 582.94,-794.11 616.05,-813.41 736.9,-790.89 784.08,-782.1 833.6,-769.36 880.79,-755.43"/>
<polygon fill="#7aab8a" stroke="#7aab8a" points="881.74,-758.8 890.32,-752.58 879.74,-752.09 881.74,-758.8"/>
<text text-anchor="start" x="810.9" y="-778.59" font-family="Roboto, sans-serif" font-weight="bold" font-size="14.00">JA</text>
</g>
<!-- A04 -->
<g id="node13" class="node">
<title>A04</title>
<path fill="#cfb986" stroke="black" stroke-width="0" d="M826.89,-706.76C826.89,-706.76 560.91,-706.76 560.91,-706.76 554.91,-706.76 548.91,-700.76 548.91,-694.76 548.91,-694.76 548.91,-645.24 548.91,-645.24 548.91,-639.24 554.91,-633.24 560.91,-633.24 560.91,-633.24 826.89,-633.24 826.89,-633.24 832.89,-633.24 838.89,-639.24 838.89,-645.24 838.89,-645.24 838.89,-694.76 838.89,-694.76 838.89,-700.76 832.89,-706.76 826.89,-706.76"/>
<text text-anchor="start" x="561.15" y="-688.7" font-family="Roboto, sans-serif" font-weight="bold" font-size="14.00">A04</text>
<text text-anchor="start" x="561.15" y="-676.6" font-family="Roboto, sans-serif" text-decoration="underline" font-size="12.00">Hinweis:</text>
<text text-anchor="start" x="561.15" y="-664.6" font-family="Roboto, sans-serif" font-size="12.00">Cluster: Ablehnung</text>
<text text-anchor="start" x="561.15" y="-652.6" font-family="Roboto, sans-serif" font-size="12.00">Frist&#252;berschreitung bei kME ohne RLM/mME/</text>
<text text-anchor="start" x="561.15" y="-640.6" font-family="Roboto, sans-serif" font-size="12.00">Pauschalanlage.</text>
</g>
<!-- 8&#45;&gt;A04 -->
<g id="edge16" class="edge">
<title>8-&gt;A04</title>
<path fill="none" stroke="#7aab8a" d="M693.9,-829.34C693.9,-802 693.9,-753.81 693.9,-717.75"/>
<polygon fill="#7aab8a" stroke="#7aab8a" points="697.4,-718.02 693.9,-708.02 690.4,-718.02 697.4,-718.02"/>
<text text-anchor="start" x="693.9" y="-778.59" font-family="Roboto, sans-serif" font-weight="bold" font-size="14.00">NEIN</text>
</g>
<!-- 8&#45;&gt;10 -->
<g id="edge17" class="edge">
<title>8-&gt;10</title>
<path fill="none" stroke="#7aab8a" d="M761.5,-829.02C793.45,-818.32 831.95,-804.75 865.9,-790.89 889,-781.46 913.02,-771 936.66,-760.31"/>
<polygon fill="#7aab8a" stroke="#7aab8a" points="938.1,-763.51 945.75,-756.18 935.2,-757.13 938.1,-763.51"/>
<text text-anchor="start" x="900.9" y="-778.59" font-family="Roboto, sans-serif" font-weight="bold" font-size="14.00">JA</text>
</g>
<!-- A05 -->
<g id="node15" class="node">
<title>A05</title>
<path fill="#cfb986" stroke="black" stroke-width="0" d="M1711.02,-712.76C1711.02,-712.76 1412.79,-712.76 1412.79,-712.76 1406.79,-712.76 1400.79,-706.76 1400.79,-700.76 1400.79,-700.76 1400.79,-639.24 1400.79,-639.24 1400.79,-633.24 1406.79,-627.24 1412.79,-627.24 1412.79,-627.24 1711.02,-627.24 1711.02,-627.24 1717.02,-627.24 1723.02,-633.24 1723.02,-639.24 1723.02,-639.24 1723.02,-700.76 1723.02,-700.76 1723.02,-706.76 1717.02,-712.76 1711.02,-712.76"/>
<text text-anchor="start" x="1413.03" y="-694.7" font-family="Roboto, sans-serif" font-weight="bold" font-size="14.00">A05</text>
<text text-anchor="start" x="1413.03" y="-682.6" font-family="Roboto, sans-serif" text-decoration="underline" font-size="12.00">Hinweis:</text>
<text text-anchor="start" x="1413.03" y="-670.6" font-family="Roboto, sans-serif" font-size="12.00">Cluster: Ablehnung</text>
<text text-anchor="start" x="1413.03" y="-658.6" font-family="Roboto, sans-serif" font-size="12.00">Die Aufhebung einer zuk&#252;nftigen Zuordnung</text>
<text text-anchor="start" x="1413.03" y="-646.6" font-family="Roboto, sans-serif" font-size="12.00">muss zum Datum (Zeitpunkt) angegeben werden,</text>
<text text-anchor="start" x="1413.03" y="-634.6" font-family="Roboto, sans-serif" font-size="12.00">wie im Lieferbeginn best&#228;tigt.</text>
</g>
<!-- 9&#45;&gt;A05 -->
<g id="edge18" class="edge">
<title>9-&gt;A05</title>
<path fill="none" stroke="#7aab8a" d="M1561.9,-822.18C1561.9,-795.93 1561.9,-756.27 1561.9,-724.15"/>
<polygon fill="#7aab8a" stroke="#7aab8a" points="1565.4,-724.22 1561.9,-714.22 1558.4,-724.22 1565.4,-724.22"/>
<text text-anchor="start" x="1561.9" y="-778.59" font-family="Roboto, sans-serif" font-weight="bold" font-size="14.00">NEIN</text>
</g>
<!-- 9&#45;&gt;10 -->
<g id="edge19" class="edge">
<title>9-&gt;10</title>
<path fill="none" stroke="#7aab8a" d="M1491.86,-822.18C1449.93,-805.14 1394.1,-782.45 1338.48,-759.84"/>
<polygon fill="#7aab8a" stroke="#7aab8a" points="1340.08,-756.71 1329.5,-756.19 1337.44,-763.2 1340.08,-756.71"/>
<text text-anchor="start" x="1405.9" y="-778.59" font-family="Roboto, sans-serif" font-weight="bold" font-size="14.00">JA</text>
</g>
<!-- A06 -->
<g id="node17" class="node">
<title>A06</title>
<path fill="#cfb986" stroke="black" stroke-width="0" d="M1103.76,-419.7C1103.76,-419.7 936.03,-419.7 936.03,-419.7 930.03,-419.7 924.03,-413.7 924.03,-407.7 924.03,-407.7 924.03,-370.18 924.03,-370.18 924.03,-364.18 930.03,-358.18 936.03,-358.18 936.03,-358.18 1103.76,-358.18 1103.76,-358.18 1109.76,-358.18 1115.76,-364.18 1115.76,-370.18 1115.76,-370.18 1115.76,-407.7 1115.76,-407.7 1115.76,-413.7 1109.76,-419.7 1103.76,-419.7"/>
<text text-anchor="start" x="936.27" y="-401.64" font-family="Roboto, sans-serif" font-weight="bold" font-size="14.00">A06</text>
<text text-anchor="start" x="936.27" y="-389.54" font-family="Roboto, sans-serif" text-decoration="underline" font-size="12.00">Hinweis:</text>
<text text-anchor="start" x="936.27" y="-377.54" font-family="Roboto, sans-serif" font-size="12.00">Cluster: Zustimmung</text>
<text text-anchor="start" x="936.27" y="-365.54" font-family="Roboto, sans-serif" font-size="12.00">Best&#228;tigung der Abmeldung</text>
</g>
<!-- 10&#45;&gt;A06 -->
<g id="edge21" class="edge">
<title>10-&gt;A06</title>
<path fill="none" stroke="#7aab8a" d="M1054.55,-584.67C1044.29,-567.73 1035.05,-549.47 1028.9,-531.11 1017.99,-498.57 1016.31,-459.49 1017.03,-430.71"/>
<polygon fill="#7aab8a" stroke="#7aab8a" points="1020.52,-431.07 1017.39,-420.95 1013.53,-430.81 1020.52,-431.07"/>
<text text-anchor="start" x="1028.9" y="-504.79" font-family="Roboto, sans-serif" font-weight="bold" font-size="14.00">NEIN</text>
</g>
<!-- 11 -->
<g id="node18" class="node">
<title>11</title>
<path fill="#7aab8a" stroke="black" stroke-width="0" d="M1557.05,-531.11C1557.05,-531.11 1088.75,-531.11 1088.75,-531.11 1082.75,-531.11 1076.75,-525.11 1076.75,-519.11 1076.75,-519.11 1076.75,-497.83 1076.75,-497.83 1076.75,-491.83 1082.75,-485.83 1088.75,-485.83 1088.75,-485.83 1557.05,-485.83 1557.05,-485.83 1563.05,-485.83 1569.05,-491.83 1569.05,-497.83 1569.05,-497.83 1569.05,-519.11 1569.05,-519.11 1569.05,-525.11 1563.05,-531.11 1557.05,-531.11"/>
<text text-anchor="start" x="1091.15" y="-510.17" font-family="Roboto, sans-serif" font-weight="bold" font-size="14.00">11: </text>
<text text-anchor="start" x="1120.4" y="-510.17" font-family="Roboto, sans-serif" font-size="14.00">Ist der anfragende LF am Folgetag des Abmeldungsdatum der</text>
<text text-anchor="start" x="1091.15" y="-496.17" font-family="Roboto, sans-serif" font-size="14.00">Marktlokation noch zugeordnet?</text>
</g>
<!-- 10&#45;&gt;11 -->
<g id="edge20" class="edge">
<title>10-&gt;11</title>
<path fill="none" stroke="#7aab8a" d="M1227.34,-584.56C1248.69,-567.79 1269.68,-551.29 1286.53,-538.05"/>
<polygon fill="#7aab8a" stroke="#7aab8a" points="1288.55,-540.92 1294.25,-531.98 1284.22,-535.41 1288.55,-540.92"/>
<text text-anchor="start" x="1267.9" y="-554.06" font-family="Roboto, sans-serif" font-weight="bold" font-size="14.00">JA</text>
</g>
<!-- 11&#45;&gt;A06 -->
<g id="edge23" class="edge">
<title>11-&gt;A06</title>
<path fill="none" stroke="#7aab8a" d="M1264.71,-485.88C1225.18,-471.12 1171.78,-450.96 1124.9,-432.58 1117.74,-429.77 1110.32,-426.83 1102.89,-423.86"/>
<polygon fill="#7aab8a" stroke="#7aab8a" points="1104.38,-420.68 1093.8,-420.21 1101.77,-427.18 1104.38,-420.68"/>
<text text-anchor="start" x="1210.9" y="-455.53" font-family="Roboto, sans-serif" font-weight="bold" font-size="14.00">JA</text>
</g>
<!-- 12 -->
<g id="node19" class="node">
<title>12</title>
<path fill="#7aab8a" stroke="black" stroke-width="0" d="M1585.8,-432.58C1585.8,-432.58 1146,-432.58 1146,-432.58 1140,-432.58 1134,-426.58 1134,-420.58 1134,-420.58 1134,-357.3 1134,-357.3 1134,-351.3 1140,-345.3 1146,-345.3 1146,-345.3 1585.8,-345.3 1585.8,-345.3 1591.8,-345.3 1597.8,-351.3 1597.8,-357.3 1597.8,-357.3 1597.8,-420.58 1597.8,-420.58 1597.8,-426.58 1591.8,-432.58 1585.8,-432.58"/>
<text text-anchor="start" x="1148.4" y="-411.64" font-family="Roboto, sans-serif" font-weight="bold" font-size="14.00">12: </text>
<text text-anchor="start" x="1177.65" y="-411.64" font-family="Roboto, sans-serif" font-size="14.00">Liegt ein Transaktionsgrund vor, aus welchem hervorgeht,</text>
<text text-anchor="start" x="1148.4" y="-397.64" font-family="Roboto, sans-serif" font-size="14.00">dass der Anschlussnutzer ausgezogen ist?</text>
<text text-anchor="start" x="1148.4" y="-383.64" font-family="Roboto, sans-serif" font-size="14.00">Das ist bei den folgenden Transaktionsgr&#252;nden der Fall:</text>
<text text-anchor="start" x="1148.4" y="-369.64" font-family="Roboto, sans-serif" font-size="14.00">&#61599; Ein-/Auszug (Umzug)</text>
<text text-anchor="start" x="1148.4" y="-355.64" font-family="Roboto, sans-serif" font-size="14.00">&#61599; Auszug wegen Stilllegung</text>
</g>
<!-- 11&#45;&gt;12 -->
<g id="edge22" class="edge">
<title>11-&gt;12</title>
<path fill="none" stroke="#7aab8a" d="M1330.79,-485.91C1335.24,-473.74 1341.01,-457.96 1346.59,-442.72"/>
<polygon fill="#7aab8a" stroke="#7aab8a" points="1349.73,-444.32 1349.88,-433.72 1343.16,-441.91 1349.73,-444.32"/>
<text text-anchor="start" x="1342.9" y="-455.53" font-family="Roboto, sans-serif" font-weight="bold" font-size="14.00">NEIN</text>
</g>
<!-- A07 -->
<g id="node20" class="node">
<title>A07</title>
<path fill="#cfb986" stroke="black" stroke-width="0" d="M1284.02,-264.17C1284.02,-264.17 1009.79,-264.17 1009.79,-264.17 1003.79,-264.17 997.79,-258.17 997.79,-252.17 997.79,-252.17 997.79,-202.65 997.79,-202.65 997.79,-196.65 1003.79,-190.65 1009.79,-190.65 1009.79,-190.65 1284.02,-190.65 1284.02,-190.65 1290.02,-190.65 1296.02,-196.65 1296.02,-202.65 1296.02,-202.65 1296.02,-252.17 1296.02,-252.17 1296.02,-258.17 1290.02,-264.17 1284.02,-264.17"/>
<text text-anchor="start" x="1010.03" y="-246.11" font-family="Roboto, sans-serif" font-weight="bold" font-size="14.00">A07</text>
<text text-anchor="start" x="1010.03" y="-234.01" font-family="Roboto, sans-serif" text-decoration="underline" font-size="12.00">Hinweis:</text>
<text text-anchor="start" x="1010.03" y="-222.01" font-family="Roboto, sans-serif" font-size="12.00">Cluster: Ablehnung</text>
<text text-anchor="start" x="1010.03" y="-210.01" font-family="Roboto, sans-serif" font-size="12.00">Lieferende zum Abmeldedatum wurde bereits</text>
<text text-anchor="start" x="1010.03" y="-198.01" font-family="Roboto, sans-serif" font-size="12.00">best&#228;tigt</text>
</g>
<!-- 12&#45;&gt;A07 -->
<g id="edge24" class="edge">
<title>12-&gt;A07</title>
<path fill="none" stroke="#7aab8a" d="M1307.5,-345.4C1275.79,-322.3 1236.7,-293.82 1205.03,-270.75"/>
<polygon fill="#7aab8a" stroke="#7aab8a" points="1207.25,-268.04 1197.1,-264.98 1203.12,-273.7 1207.25,-268.04"/>
<text text-anchor="start" x="1281.9" y="-315" font-family="Roboto, sans-serif" font-weight="bold" font-size="14.00">NEIN</text>
</g>
<!-- 13 -->
<g id="node21" class="node">
<title>13</title>
<path fill="#7aab8a" stroke="black" stroke-width="0" d="M1748.18,-292.05C1748.18,-292.05 1325.62,-292.05 1325.62,-292.05 1319.62,-292.05 1313.62,-286.05 1313.62,-280.05 1313.62,-280.05 1313.62,-174.77 1313.62,-174.77 1313.62,-168.77 1319.62,-162.77 1325.62,-162.77 1325.62,-162.77 1748.18,-162.77 1748.18,-162.77 1754.18,-162.77 1760.18,-168.77 1760.18,-174.77 1760.18,-174.77 1760.18,-280.05 1760.18,-280.05 1760.18,-286.05 1754.18,-292.05 1748.18,-292.05"/>
<text text-anchor="start" x="1328.03" y="-271.11" font-family="Roboto, sans-serif" font-weight="bold" font-size="14.00">13: </text>
<text text-anchor="start" x="1357.28" y="-271.11" font-family="Roboto, sans-serif" font-size="14.00">Liegt in der bereits best&#228;tigten Abmeldung ein</text>
<text text-anchor="start" x="1328.03" y="-257.11" font-family="Roboto, sans-serif" font-size="14.00">Transaktionsgrund vor, aus welchem nicht hervorgeht, dass</text>
<text text-anchor="start" x="1328.03" y="-243.11" font-family="Roboto, sans-serif" font-size="14.00">der Anschlussnutzer ausgezogen ist?</text>
<text text-anchor="start" x="1328.03" y="-229.11" font-family="Roboto, sans-serif" font-size="14.00">Das ist bei den folgenden Transaktionsgr&#252;nden der Fall:</text>
<text text-anchor="start" x="1328.03" y="-215.11" font-family="Roboto, sans-serif" font-size="14.00">&#61599; Ein-/Auszug (Umzug)</text>
<text text-anchor="start" x="1328.03" y="-201.11" font-family="Roboto, sans-serif" font-size="14.00">&#61599; Auszug wegen Stilllegung</text>
<text text-anchor="start" x="1328.03" y="-187.11" font-family="Roboto, sans-serif" font-size="14.00">&#61599; Aufhebung einer zuk&#252;nftigen Zuordnung wegen</text>
<text text-anchor="start" x="1328.03" y="-173.11" font-family="Roboto, sans-serif" font-size="14.00">Stilllegung</text>
</g>
<!-- 12&#45;&gt;13 -->
<g id="edge25" class="edge">
<title>12-&gt;13</title>
<path fill="none" stroke="#7aab8a" d="M1411.28,-345.61C1426.41,-331.49 1443.72,-315.34 1460.54,-299.64"/>
<polygon fill="#7aab8a" stroke="#7aab8a" points="1462.72,-302.4 1467.65,-293.02 1457.95,-297.28 1462.72,-302.4"/>
<text text-anchor="start" x="1445.9" y="-315" font-family="Roboto, sans-serif" font-weight="bold" font-size="14.00">JA</text>
</g>
<!-- A08 -->
<g id="node22" class="node">
<title>A08</title>
<path fill="#cfb986" stroke="black" stroke-width="0" d="M1392.27,-91.52C1392.27,-91.52 1137.54,-91.52 1137.54,-91.52 1131.54,-91.52 1125.54,-85.52 1125.54,-79.52 1125.54,-79.52 1125.54,-30 1125.54,-30 1125.54,-24 1131.54,-18 1137.54,-18 1137.54,-18 1392.27,-18 1392.27,-18 1398.27,-18 1404.27,-24 1404.27,-30 1404.27,-30 1404.27,-79.52 1404.27,-79.52 1404.27,-85.52 1398.27,-91.52 1392.27,-91.52"/>
<text text-anchor="start" x="1137.78" y="-73.46" font-family="Roboto, sans-serif" font-weight="bold" font-size="14.00">A08</text>
<text text-anchor="start" x="1137.78" y="-61.36" font-family="Roboto, sans-serif" text-decoration="underline" font-size="12.00">Hinweis:</text>
<text text-anchor="start" x="1137.78" y="-49.36" font-family="Roboto, sans-serif" font-size="12.00">Cluster: Ablehnung</text>
<text text-anchor="start" x="1137.78" y="-37.36" font-family="Roboto, sans-serif" font-size="12.00">Lieferende zum Abmeldedatum wurde aus</text>
<text text-anchor="start" x="1137.78" y="-25.36" font-family="Roboto, sans-serif" font-size="12.00">gleichem Grund bereits best&#228;tigt.</text>
</g>
<!-- 13&#45;&gt;A08 -->
<g id="edge26" class="edge">
<title>13-&gt;A08</title>
<path fill="none" stroke="#7aab8a" d="M1435.62,-162.87C1400.71,-140.97 1362.54,-117.02 1331.16,-97.33"/>
<polygon fill="#7aab8a" stroke="#7aab8a" points="1333.26,-94.52 1322.93,-92.17 1329.54,-100.45 1333.26,-94.52"/>
<text text-anchor="start" x="1400.9" y="-132.47" font-family="Roboto, sans-serif" font-weight="bold" font-size="14.00">NEIN</text>
</g>
<!-- A09 -->
<g id="node23" class="node">
<title>A09</title>
<path fill="#cfb986" stroke="black" stroke-width="0" d="M1735.14,-109.52C1735.14,-109.52 1434.66,-109.52 1434.66,-109.52 1428.66,-109.52 1422.66,-103.52 1422.66,-97.52 1422.66,-97.52 1422.66,-12 1422.66,-12 1422.66,-6 1428.66,0 1434.66,0 1434.66,0 1735.14,0 1735.14,0 1741.14,0 1747.14,-6 1747.14,-12 1747.14,-12 1747.14,-97.52 1747.14,-97.52 1747.14,-103.52 1741.14,-109.52 1735.14,-109.52"/>
<text text-anchor="start" x="1434.9" y="-91.46" font-family="Roboto, sans-serif" font-weight="bold" font-size="14.00">A09</text>
<text text-anchor="start" x="1434.9" y="-79.36" font-family="Roboto, sans-serif" text-decoration="underline" font-size="12.00">Hinweis:</text>
<text text-anchor="start" x="1434.9" y="-67.36" font-family="Roboto, sans-serif" font-size="12.00">Cluster: Zustimmung</text>
<text text-anchor="start" x="1434.9" y="-55.36" font-family="Roboto, sans-serif" font-size="12.00">Erneute Best&#228;tigung der Abmeldung aufgrund der</text>
<text text-anchor="start" x="1434.9" y="-43.36" font-family="Roboto, sans-serif" font-size="12.00">Information, dass der Anschlussnutzer nicht mehr</text>
<text text-anchor="start" x="1434.9" y="-31.36" font-family="Roboto, sans-serif" font-size="12.00">an der Marktlokation vorhanden ist.</text>
<text text-anchor="start" x="1434.9" y="-19.36" font-family="Roboto, sans-serif" font-size="12.00">Hinweis: Das bisher best&#228;tigte Bilanzierungsende</text>
<text text-anchor="start" x="1434.9" y="-7.36" font-family="Roboto, sans-serif" font-size="12.00">bleibt unver&#228;ndert bestehen.</text>
</g>
<!-- 13&#45;&gt;A09 -->
<g id="edge27" class="edge">
<title>13-&gt;A09</title>
<path fill="none" stroke="#7aab8a" d="M1554.77,-162.87C1558.69,-148.96 1562.83,-134.22 1566.75,-120.28"/>
<polygon fill="#7aab8a" stroke="#7aab8a" points="1570.09,-121.32 1569.43,-110.75 1563.36,-119.43 1570.09,-121.32"/>
<text text-anchor="start" x="1562.9" y="-132.47" font-family="Roboto, sans-serif" font-weight="bold" font-size="14.00">JA</text>
</g>
</g>
</svg>
  </g>
</svg>
  </g>
</svg>
