<?xml version='1.0' encoding='ASCII' standalone='yes'?>
<svg xmlns="http://www.w3.org/2000/svg" xmlns:xlink="http://www.w3.org/1999/xlink" version="1.1" width="1920.0px" viewBox="0 0 1920.0 1665.3333333333333" height="1665.3333333333333px">
  <g>
    <svg version="1.1" width="1920.0px" viewBox="0 0 1920.0 1665.3333333333333" height="1665.3333333333333px">
  <rect fill="#e7e6e5" x="0" y="0" width="1920.0" height="1665.3333333333333" rx="20" ry="20"/><g>
    <g transform="translate(280.87603491974096, 166.53333333333327) scale(1 1) translate(0, 0) scale(2.3448793767013987 2.3448793767013987) "><!-- note that I manually added the width and height attribute to the root node
  https://chatgpt.com/share/678e3028-70cc-800b-a296-782714735772
  -->
  <defs>
    <style>.cls-1{fill:#fff;}</style>
  </defs>
  <path class="cls-1" d="M122.44,531.2h-56.1c-11,0-19.9-9.12-19.46-20.11C57.47,243.89,278.15,29.78,547.91,29.78v56.02c0,10.98-8.69,19.89-19.66,20.39-225.51,10.31-405.8,197-405.8,425Z"/>
  <path class="cls-1" d="M273.78,531.2h-55.93c-11.23,0-20.09-9.48-19.43-20.69,10.74-183.44,163.39-329.39,349.48-329.39v56.26c0,10.71-8.27,19.62-18.96,20.35-142.35,9.77-255.17,128.69-255.17,273.46Z"/>
  <path class="cls-1" d="M425.77,531.2h-55.45c-11.65,0-20.6-10.17-19.33-21.75,10.87-99.03,95.03-176.34,196.92-176.34v57.01c0,10.05-7.28,18.75-17.23,20.16-59.22,8.4-104.91,59.42-104.91,120.92Z"/>
</g>
    <svg width="1440pt" height="1249pt" viewBox="0.00 0.00 1440.00 1249.03">
<g id="graph0" class="graph" transform="scale(0.775893 0.775893) rotate(0) translate(4 1605.8)">
<title>D</title>
<text text-anchor="start" x="779.21" y="-1581.7" font-family="Roboto, sans-serif" font-weight="bold" font-size="18.00">6.2 AD: Lieferende LF an NB</text>
<text text-anchor="start" x="779.21" y="-1551.6" font-family="Roboto, sans-serif" font-weight="bold" font-size="16.00">6.2.1 E_0401_Abmeldung pr&#252;fen</text>
<!-- Start -->
<g id="node1" class="node">
<title>Start</title>
<path fill="#8ba2d7" stroke="black" stroke-width="0" d="M1111.18,-1503.8C1111.18,-1503.8 958.63,-1503.8 958.63,-1503.8 952.63,-1503.8 946.63,-1497.8 946.63,-1491.8 946.63,-1491.8 946.63,-1470.52 946.63,-1470.52 946.63,-1464.52 952.63,-1458.52 958.63,-1458.52 958.63,-1458.52 1111.18,-1458.52 1111.18,-1458.52 1117.18,-1458.52 1123.18,-1464.52 1123.18,-1470.52 1123.18,-1470.52 1123.18,-1491.8 1123.18,-1491.8 1123.18,-1497.8 1117.18,-1503.8 1111.18,-1503.8"/>
<text text-anchor="start" x="961.03" y="-1482.86" font-family="Roboto, sans-serif" font-weight="bold" font-size="14.00">E_0401</text>
<text text-anchor="start" x="961.03" y="-1468.86" font-family="Roboto, sans-serif" font-weight="bold" text-decoration="underline" font-size="14.00">Pr&#252;fende Rolle:</text>
<text text-anchor="start" x="1081.78" y="-1468.86" font-family="Roboto, sans-serif" font-weight="bold" font-size="14.00"> NB</text>
</g>
<!-- 1 -->
<g id="node2" class="node">
<title>1</title>
<path fill="#c2cee9" stroke="black" stroke-width="0" d="M1255.55,-1421.52C1255.55,-1421.52 814.25,-1421.52 814.25,-1421.52 808.25,-1421.52 802.25,-1415.52 802.25,-1409.52 802.25,-1409.52 802.25,-1318.24 802.25,-1318.24 802.25,-1312.24 808.25,-1306.24 814.25,-1306.24 814.25,-1306.24 1255.55,-1306.24 1255.55,-1306.24 1261.55,-1306.24 1267.55,-1312.24 1267.55,-1318.24 1267.55,-1318.24 1267.55,-1409.52 1267.55,-1409.52 1267.55,-1415.52 1261.55,-1421.52 1255.55,-1421.52"/>
<text text-anchor="start" x="816.65" y="-1400.58" font-family="Roboto, sans-serif" font-weight="bold" font-size="14.00">1: </text>
<text text-anchor="start" x="836.15" y="-1400.58" font-family="Roboto, sans-serif" font-size="14.00">Liegt ein Transaktionsgrund vor, der eine Abmeldung nur in</text>
<text text-anchor="start" x="816.65" y="-1386.58" font-family="Roboto, sans-serif" font-size="14.00">die Zukunft zul&#228;sst?</text>
<text text-anchor="start" x="816.65" y="-1372.58" font-family="Roboto, sans-serif" font-size="14.00">Das ist bei den folgenden Transaktionsgr&#252;nden der Fall:</text>
<text text-anchor="start" x="816.65" y="-1358.58" font-family="Roboto, sans-serif" font-size="14.00">&#61599; Wechsel</text>
<text text-anchor="start" x="816.65" y="-1344.58" font-family="Roboto, sans-serif" font-size="14.00">&#61599; Ende der ESV ohne Folgelieferung</text>
<text text-anchor="start" x="816.65" y="-1330.58" font-family="Roboto, sans-serif" font-size="14.00">&#61599; Aufhebung einer zuk&#252;nftigen Zuordnung wegen</text>
<text text-anchor="start" x="816.65" y="-1316.58" font-family="Roboto, sans-serif" font-size="14.00">aufgehobenem Vertragsverh&#228;ltnis</text>
</g>
<!-- Start&#45;&gt;1 -->
<g id="edge1" class="edge">
<title>Start-&gt;1</title>
<path fill="none" stroke="#88a0d6" d="M1034.9,-1458.75C1034.9,-1451.07 1034.9,-1441.96 1034.9,-1432.47"/>
<polygon fill="#88a0d6" stroke="#88a0d6" points="1038.4,-1432.74 1034.9,-1422.74 1031.4,-1432.74 1038.4,-1432.74"/>
</g>
<!-- 2 -->
<g id="node3" class="node">
<title>2</title>
<path fill="#c2cee9" stroke="black" stroke-width="0" d="M1024.92,-1252.99C1024.92,-1252.99 594.88,-1252.99 594.88,-1252.99 588.88,-1252.99 582.88,-1246.99 582.88,-1240.99 582.88,-1240.99 582.88,-1135.71 582.88,-1135.71 582.88,-1129.71 588.88,-1123.71 594.88,-1123.71 594.88,-1123.71 1024.92,-1123.71 1024.92,-1123.71 1030.92,-1123.71 1036.92,-1129.71 1036.92,-1135.71 1036.92,-1135.71 1036.92,-1240.99 1036.92,-1240.99 1036.92,-1246.99 1030.92,-1252.99 1024.92,-1252.99"/>
<text text-anchor="start" x="597.27" y="-1232.05" font-family="Roboto, sans-serif" font-weight="bold" font-size="14.00">2: </text>
<text text-anchor="start" x="616.77" y="-1232.05" font-family="Roboto, sans-serif" font-size="14.00">Liegt ein Transaktionsgrund vor, welcher mitteilt, dass der</text>
<text text-anchor="start" x="597.27" y="-1218.05" font-family="Roboto, sans-serif" font-size="14.00">Kunde vor Lieferbeginn ausgezogen ist, bzw. die</text>
<text text-anchor="start" x="597.27" y="-1204.05" font-family="Roboto, sans-serif" font-size="14.00">Marktlokation vor Lieferbeginn stillgelegt wurde?</text>
<text text-anchor="start" x="597.27" y="-1190.05" font-family="Roboto, sans-serif" font-size="14.00">Das ist bei den folgenden Transaktionsgr&#252;nden der Fall:</text>
<text text-anchor="start" x="597.27" y="-1176.05" font-family="Roboto, sans-serif" font-size="14.00">&#61599; Aufhebung einer zuk&#252;nftigen Zuordnung wegen Auszug</text>
<text text-anchor="start" x="597.27" y="-1162.05" font-family="Roboto, sans-serif" font-size="14.00">des Kunden</text>
<text text-anchor="start" x="597.27" y="-1148.05" font-family="Roboto, sans-serif" font-size="14.00">&#61599; Aufhebung einer zuk&#252;nftigen Zuordnung wegen</text>
<text text-anchor="start" x="597.27" y="-1134.05" font-family="Roboto, sans-serif" font-size="14.00">Stilllegung</text>
</g>
<!-- 1&#45;&gt;2 -->
<g id="edge3" class="edge">
<title>1-&gt;2</title>
<path fill="none" stroke="#88a0d6" d="M961.54,-1306.3C942.21,-1291.39 921.13,-1275.13 900.99,-1259.6"/>
<polygon fill="#88a0d6" stroke="#88a0d6" points="903.38,-1257.02 893.32,-1253.69 899.1,-1262.57 903.38,-1257.02"/>
<text text-anchor="start" x="934.9" y="-1275.94" font-family="Roboto, sans-serif" font-weight="bold" font-size="14.00">NEIN</text>
</g>
<!-- 4 -->
<g id="node6" class="node">
<title>4</title>
<path fill="#c2cee9" stroke="black" stroke-width="0" d="M1455.3,-1210.99C1455.3,-1210.99 1066.5,-1210.99 1066.5,-1210.99 1060.5,-1210.99 1054.5,-1204.99 1054.5,-1198.99 1054.5,-1198.99 1054.5,-1177.71 1054.5,-1177.71 1054.5,-1171.71 1060.5,-1165.71 1066.5,-1165.71 1066.5,-1165.71 1455.3,-1165.71 1455.3,-1165.71 1461.3,-1165.71 1467.3,-1171.71 1467.3,-1177.71 1467.3,-1177.71 1467.3,-1198.99 1467.3,-1198.99 1467.3,-1204.99 1461.3,-1210.99 1455.3,-1210.99"/>
<text text-anchor="start" x="1068.9" y="-1190.05" font-family="Roboto, sans-serif" font-weight="bold" font-size="14.00">4: </text>
<text text-anchor="start" x="1088.4" y="-1190.05" font-family="Roboto, sans-serif" font-size="14.00">Liegt das Eingangsdatum mindestens 6 WT vor dem</text>
<text text-anchor="start" x="1068.9" y="-1176.05" font-family="Roboto, sans-serif" font-size="14.00">Abmeldedatum?</text>
</g>
<!-- 1&#45;&gt;4 -->
<g id="edge2" class="edge">
<title>1-&gt;4</title>
<path fill="none" stroke="#88a0d6" d="M1108.59,-1306.3C1147.28,-1276.59 1192.99,-1241.49 1224.17,-1217.55"/>
<polygon fill="#88a0d6" stroke="#88a0d6" points="1225.96,-1220.59 1231.76,-1211.73 1221.69,-1215.04 1225.96,-1220.59"/>
<text text-anchor="start" x="1147.9" y="-1275.94" font-family="Roboto, sans-serif" font-weight="bold" font-size="14.00">JA</text>
</g>
<!-- 3 -->
<g id="node4" class="node">
<title>3</title>
<path fill="#c2cee9" stroke="black" stroke-width="0" d="M1025.8,-1049.46C1025.8,-1049.46 598,-1049.46 598,-1049.46 592,-1049.46 586,-1043.46 586,-1037.46 586,-1037.46 586,-1016.18 586,-1016.18 586,-1010.18 592,-1004.18 598,-1004.18 598,-1004.18 1025.8,-1004.18 1025.8,-1004.18 1031.8,-1004.18 1037.8,-1010.18 1037.8,-1016.18 1037.8,-1016.18 1037.8,-1037.46 1037.8,-1037.46 1037.8,-1043.46 1031.8,-1049.46 1025.8,-1049.46"/>
<text text-anchor="start" x="600.4" y="-1028.52" font-family="Roboto, sans-serif" font-weight="bold" font-size="14.00">3: </text>
<text text-anchor="start" x="619.9" y="-1028.52" font-family="Roboto, sans-serif" font-size="14.00">Liegt das Abmeldedatum mindestens einen Tag nach dem</text>
<text text-anchor="start" x="600.4" y="-1014.52" font-family="Roboto, sans-serif" font-size="14.00">Eingangsdatum der Abmeldung?</text>
</g>
<!-- 2&#45;&gt;3 -->
<g id="edge4" class="edge">
<title>2-&gt;3</title>
<path fill="none" stroke="#88a0d6" d="M810.7,-1123.84C810.97,-1102.28 811.26,-1079.06 811.49,-1060.85"/>
<polygon fill="#88a0d6" stroke="#88a0d6" points="814.98,-1060.96 811.61,-1050.92 807.99,-1060.88 814.98,-1060.96"/>
<text text-anchor="start" x="810.9" y="-1093.41" font-family="Roboto, sans-serif" font-weight="bold" font-size="14.00">JA</text>
</g>
<!-- 6 -->
<g id="node9" class="node">
<title>6</title>
<path fill="#c2cee9" stroke="black" stroke-width="0" d="M555.55,-1056.46C555.55,-1056.46 150.25,-1056.46 150.25,-1056.46 144.25,-1056.46 138.25,-1050.46 138.25,-1044.46 138.25,-1044.46 138.25,-1009.18 138.25,-1009.18 138.25,-1003.18 144.25,-997.18 150.25,-997.18 150.25,-997.18 555.55,-997.18 555.55,-997.18 561.55,-997.18 567.55,-1003.18 567.55,-1009.18 567.55,-1009.18 567.55,-1044.46 567.55,-1044.46 567.55,-1050.46 561.55,-1056.46 555.55,-1056.46"/>
<text text-anchor="start" x="152.65" y="-1035.52" font-family="Roboto, sans-serif" font-weight="bold" font-size="14.00">6: </text>
<text text-anchor="start" x="172.15" y="-1035.52" font-family="Roboto, sans-serif" font-size="14.00">Handelt es sich um eine Marktlokation, deren Mess-</text>
<text text-anchor="start" x="152.65" y="-1021.52" font-family="Roboto, sans-serif" font-size="14.00">lokationen vollst&#228;ndig mit iMS ausgestattet sind oder/und</text>
<text text-anchor="start" x="152.65" y="-1007.52" font-family="Roboto, sans-serif" font-size="14.00">deren Prognosegrundlage auf Basis von Werten erfolgt?</text>
</g>
<!-- 2&#45;&gt;6 -->
<g id="edge5" class="edge">
<title>2-&gt;6</title>
<path fill="none" stroke="#88a0d6" d="M627.64,-1123.73C565.15,-1101.91 497.85,-1078.42 445.5,-1060.14"/>
<polygon fill="#88a0d6" stroke="#88a0d6" points="446.92,-1056.93 436.32,-1056.94 444.61,-1063.54 446.92,-1056.93"/>
<text text-anchor="start" x="566.9" y="-1093.41" font-family="Roboto, sans-serif" font-weight="bold" font-size="14.00">NEIN</text>
</g>
<!-- A01 -->
<g id="node5" class="node">
<title>A01</title>
<path fill="#c4cac1" stroke="black" stroke-width="0" d="M1276.68,-929.93C1276.68,-929.93 947.13,-929.93 947.13,-929.93 941.13,-929.93 935.13,-923.93 935.13,-917.93 935.13,-917.93 935.13,-840.65 935.13,-840.65 935.13,-834.65 941.13,-828.65 947.13,-828.65 947.13,-828.65 1276.68,-828.65 1276.68,-828.65 1282.68,-828.65 1288.68,-834.65 1288.68,-840.65 1288.68,-840.65 1288.68,-917.93 1288.68,-917.93 1288.68,-923.93 1282.68,-929.93 1276.68,-929.93"/>
<text text-anchor="start" x="949.53" y="-908.99" font-family="Roboto, sans-serif" font-weight="bold" font-size="14.00">A01</text>
<text text-anchor="start" x="949.53" y="-894.99" font-family="Roboto, sans-serif" text-decoration="underline" font-size="14.00">Hinweis:</text>
<text text-anchor="start" x="949.53" y="-880.99" font-family="Roboto, sans-serif" font-size="14.00">Cluster: Ablehnung</text>
<text text-anchor="start" x="949.53" y="-866.99" font-family="Roboto, sans-serif" font-size="14.00">Frist&#252;berschreitung bei Aufhebung einer zu-</text>
<text text-anchor="start" x="949.53" y="-852.99" font-family="Roboto, sans-serif" font-size="14.00">k&#252;nftigen Zuordnung wegen Auszug oder Still-</text>
<text text-anchor="start" x="949.53" y="-838.99" font-family="Roboto, sans-serif" font-size="14.00">legung.</text>
</g>
<!-- 3&#45;&gt;A01 -->
<g id="edge6" class="edge">
<title>3-&gt;A01</title>
<path fill="none" stroke="#88a0d6" d="M856.49,-1004.19C894.21,-985.89 949.9,-958.87 999.67,-934.73"/>
<polygon fill="#88a0d6" stroke="#88a0d6" points="1001.03,-937.96 1008.5,-930.45 997.98,-931.66 1001.03,-937.96"/>
<text text-anchor="start" x="969.9" y="-952.88" font-family="Roboto, sans-serif" font-weight="bold" font-size="14.00">NEIN</text>
</g>
<!-- 9 -->
<g id="node14" class="node">
<title>9</title>
<path fill="#c2cee9" stroke="black" stroke-width="0" d="M1835.93,-908.93C1835.93,-908.93 1393.88,-908.93 1393.88,-908.93 1387.88,-908.93 1381.88,-902.93 1381.88,-896.93 1381.88,-896.93 1381.88,-861.65 1381.88,-861.65 1381.88,-855.65 1387.88,-849.65 1393.88,-849.65 1393.88,-849.65 1835.93,-849.65 1835.93,-849.65 1841.93,-849.65 1847.93,-855.65 1847.93,-861.65 1847.93,-861.65 1847.93,-896.93 1847.93,-896.93 1847.93,-902.93 1841.93,-908.93 1835.93,-908.93"/>
<text text-anchor="start" x="1396.28" y="-887.99" font-family="Roboto, sans-serif" font-weight="bold" font-size="14.00">9: </text>
<text text-anchor="start" x="1415.78" y="-887.99" font-family="Roboto, sans-serif" font-size="14.00">Erfolgt die Aufhebung einer zuk&#252;nftigen Zuordnung zu dem</text>
<text text-anchor="start" x="1396.28" y="-873.99" font-family="Roboto, sans-serif" font-size="14.00">gleichen Datum (Zeitpunkt), welcher dem Lieferanten im</text>
<text text-anchor="start" x="1396.28" y="-859.99" font-family="Roboto, sans-serif" font-size="14.00">Lieferbeginn best&#228;tigt wurde?</text>
</g>
<!-- 3&#45;&gt;9 -->
<g id="edge7" class="edge">
<title>3-&gt;9</title>
<path fill="none" stroke="#88a0d6" d="M928.98,-1004.22C966.61,-997.37 1008.5,-989.85 1046.9,-983.18 1189.38,-958.44 1225.66,-956.01 1367.9,-929.93 1399.69,-924.1 1433.71,-917.5 1466.02,-911.06"/>
<polygon fill="#88a0d6" stroke="#88a0d6" points="1466.3,-914.57 1475.42,-909.18 1464.93,-907.71 1466.3,-914.57"/>
<text text-anchor="start" x="1261.9" y="-952.88" font-family="Roboto, sans-serif" font-weight="bold" font-size="14.00">JA</text>
</g>
<!-- A02 -->
<g id="node7" class="node">
<title>A02</title>
<path fill="#c4cac1" stroke="black" stroke-width="0" d="M1835.68,-1070.46C1835.68,-1070.46 1494.12,-1070.46 1494.12,-1070.46 1488.12,-1070.46 1482.12,-1064.46 1482.12,-1058.46 1482.12,-1058.46 1482.12,-995.18 1482.12,-995.18 1482.12,-989.18 1488.12,-983.18 1494.12,-983.18 1494.12,-983.18 1835.68,-983.18 1835.68,-983.18 1841.68,-983.18 1847.68,-989.18 1847.68,-995.18 1847.68,-995.18 1847.68,-1058.46 1847.68,-1058.46 1847.68,-1064.46 1841.68,-1070.46 1835.68,-1070.46"/>
<text text-anchor="start" x="1496.53" y="-1049.52" font-family="Roboto, sans-serif" font-weight="bold" font-size="14.00">A02</text>
<text text-anchor="start" x="1496.53" y="-1035.52" font-family="Roboto, sans-serif" text-decoration="underline" font-size="14.00">Hinweis:</text>
<text text-anchor="start" x="1496.53" y="-1021.52" font-family="Roboto, sans-serif" font-size="14.00">Cluster: Ablehnung</text>
<text text-anchor="start" x="1496.53" y="-1007.52" font-family="Roboto, sans-serif" font-size="14.00">Frist&#252;berschreitung bei Transaktionsgr&#252;nden f&#252;r</text>
<text text-anchor="start" x="1496.53" y="-993.52" font-family="Roboto, sans-serif" font-size="14.00">eine Abmeldung in der Zukunft.</text>
</g>
<!-- 4&#45;&gt;A02 -->
<g id="edge8" class="edge">
<title>4-&gt;A02</title>
<path fill="none" stroke="#88a0d6" d="M1315.39,-1165.84C1374.32,-1142.56 1470.09,-1104.75 1546.49,-1074.58"/>
<polygon fill="#88a0d6" stroke="#88a0d6" points="1547.71,-1077.86 1555.73,-1070.93 1545.14,-1071.35 1547.71,-1077.86"/>
<text text-anchor="start" x="1510.9" y="-1093.41" font-family="Roboto, sans-serif" font-weight="bold" font-size="14.00">NEIN</text>
</g>
<!-- 5 -->
<g id="node8" class="node">
<title>5</title>
<path fill="#c2cee9" stroke="black" stroke-width="0" d="M1452.05,-1063.46C1452.05,-1063.46 1067.75,-1063.46 1067.75,-1063.46 1061.75,-1063.46 1055.75,-1057.46 1055.75,-1051.46 1055.75,-1051.46 1055.75,-1002.18 1055.75,-1002.18 1055.75,-996.18 1061.75,-990.18 1067.75,-990.18 1067.75,-990.18 1452.05,-990.18 1452.05,-990.18 1458.05,-990.18 1464.05,-996.18 1464.05,-1002.18 1464.05,-1002.18 1464.05,-1051.46 1464.05,-1051.46 1464.05,-1057.46 1458.05,-1063.46 1452.05,-1063.46"/>
<text text-anchor="start" x="1070.15" y="-1042.52" font-family="Roboto, sans-serif" font-weight="bold" font-size="14.00">5: </text>
<text text-anchor="start" x="1089.65" y="-1042.52" font-family="Roboto, sans-serif" font-size="14.00">Liegt der Transaktionsgrund</text>
<text text-anchor="start" x="1070.15" y="-1028.52" font-family="Roboto, sans-serif" font-size="14.00">&#8226; Aufhebung einer zuk&#252;nftigen Zuordnung wegen auf-</text>
<text text-anchor="start" x="1070.15" y="-1014.52" font-family="Roboto, sans-serif" font-size="14.00">gehobenem Vertragsverh&#228;ltnis</text>
<text text-anchor="start" x="1070.15" y="-1000.52" font-family="Roboto, sans-serif" font-size="14.00">vor?</text>
</g>
<!-- 4&#45;&gt;5 -->
<g id="edge9" class="edge">
<title>4-&gt;5</title>
<path fill="none" stroke="#88a0d6" d="M1260.77,-1165.84C1260.62,-1142.53 1260.38,-1104.64 1260.19,-1074.46"/>
<polygon fill="#88a0d6" stroke="#88a0d6" points="1263.69,-1074.8 1260.13,-1064.82 1256.69,-1074.85 1263.69,-1074.8"/>
<text text-anchor="start" x="1259.9" y="-1093.41" font-family="Roboto, sans-serif" font-weight="bold" font-size="14.00">JA</text>
</g>
<!-- 5&#45;&gt;9 -->
<g id="edge10" class="edge">
<title>5-&gt;9</title>
<path fill="none" stroke="#88a0d6" d="M1419.42,-990.27C1442.49,-983.11 1465.61,-974.77 1486.9,-965.18 1516.2,-951.98 1546.27,-932.4 1569.91,-915.37"/>
<polygon fill="#88a0d6" stroke="#88a0d6" points="1571.74,-918.36 1577.74,-909.63 1567.6,-912.72 1571.74,-918.36"/>
<text text-anchor="start" x="1515.9" y="-952.88" font-family="Roboto, sans-serif" font-weight="bold" font-size="14.00">JA</text>
</g>
<!-- 10 -->
<g id="node16" class="node">
<title>10</title>
<path fill="#c2cee9" stroke="black" stroke-width="0" d="M1361.05,-775.4C1361.05,-775.4 928.75,-775.4 928.75,-775.4 922.75,-775.4 916.75,-769.4 916.75,-763.4 916.75,-763.4 916.75,-616.12 916.75,-616.12 916.75,-610.12 922.75,-604.12 928.75,-604.12 928.75,-604.12 1361.05,-604.12 1361.05,-604.12 1367.05,-604.12 1373.05,-610.12 1373.05,-616.12 1373.05,-616.12 1373.05,-763.4 1373.05,-763.4 1373.05,-769.4 1367.05,-775.4 1361.05,-775.4"/>
<text text-anchor="start" x="931.15" y="-754.46" font-family="Roboto, sans-serif" font-weight="bold" font-size="14.00">10: </text>
<text text-anchor="start" x="960.4" y="-754.46" font-family="Roboto, sans-serif" font-size="14.00">Wurde die Zuordnung des anfragenden Lieferanten zur</text>
<text text-anchor="start" x="931.15" y="-740.46" font-family="Roboto, sans-serif" font-size="14.00">Marktlokation zum identischen Abmeldedatum bereits durch</text>
<text text-anchor="start" x="931.15" y="-726.46" font-family="Roboto, sans-serif" font-size="14.00">eine Best&#228;tigung in den folgenden Prozessschritten beendet?</text>
<text text-anchor="start" x="931.15" y="-712.46" font-family="Roboto, sans-serif" font-size="14.00">Fall:</text>
<text text-anchor="start" x="931.15" y="-698.46" font-family="Roboto, sans-serif" font-size="14.00">&#61599; SD: Lieferende von LF an NB, Prozessschritt 2 "Antwort</text>
<text text-anchor="start" x="931.15" y="-684.46" font-family="Roboto, sans-serif" font-size="14.00">auf Abmeldung"</text>
<text text-anchor="start" x="931.15" y="-670.46" font-family="Roboto, sans-serif" font-size="14.00">&#61599; SD: Lieferende von NB an LF, Prozessschritt 2 "Antwort</text>
<text text-anchor="start" x="931.15" y="-656.46" font-family="Roboto, sans-serif" font-size="14.00">auf Abmeldung"</text>
<text text-anchor="start" x="931.15" y="-642.46" font-family="Roboto, sans-serif" font-size="14.00">&#61599; SD: Lieferbeginn, Prozessschritt 4 "Beantwortung der</text>
<text text-anchor="start" x="931.15" y="-628.46" font-family="Roboto, sans-serif" font-size="14.00">Abmeldeanfrage" oder die Best&#228;tigung erfolgt durch</text>
<text text-anchor="start" x="931.15" y="-614.46" font-family="Roboto, sans-serif" font-size="14.00">die Fristverstreichung</text>
</g>
<!-- 5&#45;&gt;10 -->
<g id="edge11" class="edge">
<title>5-&gt;10</title>
<path fill="none" stroke="#88a0d6" d="M1279.07,-990.18C1298.18,-949.54 1321.57,-881.84 1297.9,-828.65 1290.68,-812.42 1280.49,-797.29 1268.77,-783.45"/>
<polygon fill="#88a0d6" stroke="#88a0d6" points="1271.54,-781.3 1262.29,-776.14 1266.3,-785.94 1271.54,-781.3"/>
<text text-anchor="start" x="1306.9" y="-875.62" font-family="Roboto, sans-serif" font-weight="bold" font-size="14.00">NEIN</text>
</g>
<!-- 7 -->
<g id="node10" class="node">
<title>7</title>
<path fill="#c2cee9" stroke="black" stroke-width="0" d="M439.8,-901.93C439.8,-901.93 12,-901.93 12,-901.93 6,-901.93 0,-895.93 0,-889.93 0,-889.93 0,-868.65 0,-868.65 0,-862.65 6,-856.65 12,-856.65 12,-856.65 439.8,-856.65 439.8,-856.65 445.8,-856.65 451.8,-862.65 451.8,-868.65 451.8,-868.65 451.8,-889.93 451.8,-889.93 451.8,-895.93 445.8,-901.93 439.8,-901.93"/>
<text text-anchor="start" x="14.4" y="-880.99" font-family="Roboto, sans-serif" font-weight="bold" font-size="14.00">7: </text>
<text text-anchor="start" x="33.9" y="-880.99" font-family="Roboto, sans-serif" font-size="14.00">Liegt das Abmeldedatum mindestens einen Tag nach dem</text>
<text text-anchor="start" x="14.4" y="-866.99" font-family="Roboto, sans-serif" font-size="14.00">Eingangsdatum der Abmeldung?</text>
</g>
<!-- 6&#45;&gt;7 -->
<g id="edge12" class="edge">
<title>6-&gt;7</title>
<path fill="none" stroke="#88a0d6" d="M328.11,-997.41C306.16,-972.26 274.22,-935.66 251.9,-910.09"/>
<polygon fill="#88a0d6" stroke="#88a0d6" points="254.65,-907.91 245.44,-902.68 249.38,-912.52 254.65,-907.91"/>
<text text-anchor="start" x="296.9" y="-952.88" font-family="Roboto, sans-serif" font-weight="bold" font-size="14.00">JA</text>
</g>
<!-- 8 -->
<g id="node12" class="node">
<title>8</title>
<path fill="#c2cee9" stroke="black" stroke-width="0" d="M905.55,-901.93C905.55,-901.93 482.25,-901.93 482.25,-901.93 476.25,-901.93 470.25,-895.93 470.25,-889.93 470.25,-889.93 470.25,-868.65 470.25,-868.65 470.25,-862.65 476.25,-856.65 482.25,-856.65 482.25,-856.65 905.55,-856.65 905.55,-856.65 911.55,-856.65 917.55,-862.65 917.55,-868.65 917.55,-868.65 917.55,-889.93 917.55,-889.93 917.55,-895.93 911.55,-901.93 905.55,-901.93"/>
<text text-anchor="start" x="484.65" y="-880.99" font-family="Roboto, sans-serif" font-weight="bold" font-size="14.00">8: </text>
<text text-anchor="start" x="504.15" y="-880.99" font-family="Roboto, sans-serif" font-size="14.00">Liegt das Eingangsdatum der Abmeldung mehr als sechs</text>
<text text-anchor="start" x="484.65" y="-866.99" font-family="Roboto, sans-serif" font-size="14.00">Wochen nach dem Abmeldedatum der Abmeldung?</text>
</g>
<!-- 6&#45;&gt;8 -->
<g id="edge13" class="edge">
<title>6-&gt;8</title>
<path fill="none" stroke="#88a0d6" d="M419.86,-997.24C481.8,-970.81 573.08,-931.85 633,-906.28"/>
<polygon fill="#88a0d6" stroke="#88a0d6" points="634.23,-909.56 642.05,-902.42 631.48,-903.12 634.23,-909.56"/>
<text text-anchor="start" x="532.9" y="-952.88" font-family="Roboto, sans-serif" font-weight="bold" font-size="14.00">NEIN</text>
</g>
<!-- A03 -->
<g id="node11" class="node">
<title>A03</title>
<path fill="#c4cac1" stroke="black" stroke-width="0" d="M383.93,-733.4C383.93,-733.4 67.88,-733.4 67.88,-733.4 61.87,-733.4 55.88,-727.4 55.88,-721.4 55.88,-721.4 55.88,-658.12 55.88,-658.12 55.88,-652.12 61.88,-646.12 67.88,-646.12 67.88,-646.12 383.93,-646.12 383.93,-646.12 389.93,-646.12 395.93,-652.12 395.93,-658.12 395.93,-658.12 395.93,-721.4 395.93,-721.4 395.93,-727.4 389.93,-733.4 383.93,-733.4"/>
<text text-anchor="start" x="70.28" y="-712.46" font-family="Roboto, sans-serif" font-weight="bold" font-size="14.00">A03</text>
<text text-anchor="start" x="70.28" y="-698.46" font-family="Roboto, sans-serif" text-decoration="underline" font-size="14.00">Hinweis:</text>
<text text-anchor="start" x="70.28" y="-684.46" font-family="Roboto, sans-serif" font-size="14.00">Cluster: Ablehnung</text>
<text text-anchor="start" x="70.28" y="-670.46" font-family="Roboto, sans-serif" font-size="14.00">Eingangsfrist bei iMS/kME mit RLM nicht ein-</text>
<text text-anchor="start" x="70.28" y="-656.46" font-family="Roboto, sans-serif" font-size="14.00">gehalten.</text>
</g>
<!-- 7&#45;&gt;A03 -->
<g id="edge14" class="edge">
<title>7-&gt;A03</title>
<path fill="none" stroke="#88a0d6" d="M225.9,-856.78C225.9,-829.58 225.9,-781.79 225.9,-744.44"/>
<polygon fill="#88a0d6" stroke="#88a0d6" points="229.4,-744.74 225.9,-734.74 222.4,-744.74 229.4,-744.74"/>
<text text-anchor="start" x="225.9" y="-798.35" font-family="Roboto, sans-serif" font-weight="bold" font-size="14.00">NEIN</text>
</g>
<!-- 7&#45;&gt;10 -->
<g id="edge15" class="edge">
<title>7-&gt;10</title>
<path fill="none" stroke="#88a0d6" d="M313.54,-856.66C357.51,-846.61 411.74,-835.41 460.9,-828.65 582.68,-811.9 615.53,-830.16 736.9,-810.65 798.55,-800.74 812.85,-792.51 872.9,-775.4 883.8,-772.29 894.93,-769.06 906.17,-765.76"/>
<polygon fill="#88a0d6" stroke="#88a0d6" points="906.91,-769.19 915.51,-763 904.93,-762.47 906.91,-769.19"/>
<text text-anchor="start" x="811.9" y="-798.35" font-family="Roboto, sans-serif" font-weight="bold" font-size="14.00">JA</text>
</g>
<!-- A04 -->
<g id="node13" class="node">
<title>A04</title>
<path fill="#c4cac1" stroke="black" stroke-width="0" d="M851.55,-733.4C851.55,-733.4 536.25,-733.4 536.25,-733.4 530.25,-733.4 524.25,-727.4 524.25,-721.4 524.25,-721.4 524.25,-658.12 524.25,-658.12 524.25,-652.12 530.25,-646.12 536.25,-646.12 536.25,-646.12 851.55,-646.12 851.55,-646.12 857.55,-646.12 863.55,-652.12 863.55,-658.12 863.55,-658.12 863.55,-721.4 863.55,-721.4 863.55,-727.4 857.55,-733.4 851.55,-733.4"/>
<text text-anchor="start" x="538.65" y="-712.46" font-family="Roboto, sans-serif" font-weight="bold" font-size="14.00">A04</text>
<text text-anchor="start" x="538.65" y="-698.46" font-family="Roboto, sans-serif" text-decoration="underline" font-size="14.00">Hinweis:</text>
<text text-anchor="start" x="538.65" y="-684.46" font-family="Roboto, sans-serif" font-size="14.00">Cluster: Ablehnung</text>
<text text-anchor="start" x="538.65" y="-670.46" font-family="Roboto, sans-serif" font-size="14.00">Frist&#252;berschreitung bei kME ohne RLM/mME/</text>
<text text-anchor="start" x="538.65" y="-656.46" font-family="Roboto, sans-serif" font-size="14.00">Pauschalanlage.</text>
</g>
<!-- 8&#45;&gt;A04 -->
<g id="edge16" class="edge">
<title>8-&gt;A04</title>
<path fill="none" stroke="#88a0d6" d="M693.9,-856.78C693.9,-829.58 693.9,-781.79 693.9,-744.44"/>
<polygon fill="#88a0d6" stroke="#88a0d6" points="697.4,-744.74 693.9,-734.74 690.4,-744.74 697.4,-744.74"/>
<text text-anchor="start" x="693.9" y="-798.35" font-family="Roboto, sans-serif" font-weight="bold" font-size="14.00">NEIN</text>
</g>
<!-- 8&#45;&gt;10 -->
<g id="edge17" class="edge">
<title>8-&gt;10</title>
<path fill="none" stroke="#88a0d6" d="M745.64,-856.78C791.58,-837.68 861.93,-808.42 930.86,-779.76"/>
<polygon fill="#88a0d6" stroke="#88a0d6" points="932.17,-783.01 940.06,-775.93 929.48,-776.54 932.17,-783.01"/>
<text text-anchor="start" x="891.9" y="-798.35" font-family="Roboto, sans-serif" font-weight="bold" font-size="14.00">JA</text>
</g>
<!-- A05 -->
<g id="node15" class="node">
<title>A05</title>
<path fill="#c4cac1" stroke="black" stroke-width="0" d="M1791.3,-740.4C1791.3,-740.4 1438.5,-740.4 1438.5,-740.4 1432.5,-740.4 1426.5,-734.4 1426.5,-728.4 1426.5,-728.4 1426.5,-651.12 1426.5,-651.12 1426.5,-645.12 1432.5,-639.12 1438.5,-639.12 1438.5,-639.12 1791.3,-639.12 1791.3,-639.12 1797.3,-639.12 1803.3,-645.12 1803.3,-651.12 1803.3,-651.12 1803.3,-728.4 1803.3,-728.4 1803.3,-734.4 1797.3,-740.4 1791.3,-740.4"/>
<text text-anchor="start" x="1440.9" y="-719.46" font-family="Roboto, sans-serif" font-weight="bold" font-size="14.00">A05</text>
<text text-anchor="start" x="1440.9" y="-705.46" font-family="Roboto, sans-serif" text-decoration="underline" font-size="14.00">Hinweis:</text>
<text text-anchor="start" x="1440.9" y="-691.46" font-family="Roboto, sans-serif" font-size="14.00">Cluster: Ablehnung</text>
<text text-anchor="start" x="1440.9" y="-677.46" font-family="Roboto, sans-serif" font-size="14.00">Die Aufhebung einer zuk&#252;nftigen Zuordnung</text>
<text text-anchor="start" x="1440.9" y="-663.46" font-family="Roboto, sans-serif" font-size="14.00">muss zum Datum (Zeitpunkt) angegeben werden,</text>
<text text-anchor="start" x="1440.9" y="-649.46" font-family="Roboto, sans-serif" font-size="14.00">wie im Lieferbeginn best&#228;tigt.</text>
</g>
<!-- 9&#45;&gt;A05 -->
<g id="edge18" class="edge">
<title>9-&gt;A05</title>
<path fill="none" stroke="#88a0d6" d="M1614.9,-849.81C1614.9,-823.87 1614.9,-784.7 1614.9,-751.72"/>
<polygon fill="#88a0d6" stroke="#88a0d6" points="1618.4,-751.86 1614.9,-741.86 1611.4,-751.86 1618.4,-751.86"/>
<text text-anchor="start" x="1614.9" y="-798.35" font-family="Roboto, sans-serif" font-weight="bold" font-size="14.00">NEIN</text>
</g>
<!-- 9&#45;&gt;10 -->
<g id="edge19" class="edge">
<title>9-&gt;10</title>
<path fill="none" stroke="#88a0d6" d="M1543.26,-849.71C1495.92,-830.82 1431.06,-804.94 1367.43,-779.55"/>
<polygon fill="#88a0d6" stroke="#88a0d6" points="1368.81,-776.33 1358.22,-775.87 1366.21,-782.83 1368.81,-776.33"/>
<text text-anchor="start" x="1434.9" y="-798.35" font-family="Roboto, sans-serif" font-weight="bold" font-size="14.00">JA</text>
</g>
<!-- A06 -->
<g id="node17" class="node">
<title>A06</title>
<path fill="#c4cac1" stroke="black" stroke-width="0" d="M1148.55,-445.34C1148.55,-445.34 947.25,-445.34 947.25,-445.34 941.25,-445.34 935.25,-439.34 935.25,-433.34 935.25,-433.34 935.25,-384.06 935.25,-384.06 935.25,-378.06 941.25,-372.06 947.25,-372.06 947.25,-372.06 1148.55,-372.06 1148.55,-372.06 1154.55,-372.06 1160.55,-378.06 1160.55,-384.06 1160.55,-384.06 1160.55,-433.34 1160.55,-433.34 1160.55,-439.34 1154.55,-445.34 1148.55,-445.34"/>
<text text-anchor="start" x="949.65" y="-424.4" font-family="Roboto, sans-serif" font-weight="bold" font-size="14.00">A06</text>
<text text-anchor="start" x="949.65" y="-410.4" font-family="Roboto, sans-serif" text-decoration="underline" font-size="14.00">Hinweis:</text>
<text text-anchor="start" x="949.65" y="-396.4" font-family="Roboto, sans-serif" font-size="14.00">Cluster: Zustimmung</text>
<text text-anchor="start" x="949.65" y="-382.4" font-family="Roboto, sans-serif" font-size="14.00">Best&#228;tigung der Abmeldung</text>
</g>
<!-- 10&#45;&gt;A06 -->
<g id="edge21" class="edge">
<title>10-&gt;A06</title>
<path fill="none" stroke="#88a0d6" d="M1081.71,-604.21C1071.79,-587.29 1062.85,-569.09 1056.9,-550.87 1046.99,-520.54 1044.82,-484.63 1045.09,-456.62"/>
<polygon fill="#88a0d6" stroke="#88a0d6" points="1048.59,-456.72 1045.3,-446.65 1041.59,-456.57 1048.59,-456.72"/>
<text text-anchor="start" x="1056.9" y="-524.56" font-family="Roboto, sans-serif" font-weight="bold" font-size="14.00">NEIN</text>
</g>
<!-- 11 -->
<g id="node18" class="node">
<title>11</title>
<path fill="#c2cee9" stroke="black" stroke-width="0" d="M1585.05,-550.87C1585.05,-550.87 1116.75,-550.87 1116.75,-550.87 1110.75,-550.87 1104.75,-544.87 1104.75,-538.87 1104.75,-538.87 1104.75,-517.59 1104.75,-517.59 1104.75,-511.59 1110.75,-505.59 1116.75,-505.59 1116.75,-505.59 1585.05,-505.59 1585.05,-505.59 1591.05,-505.59 1597.05,-511.59 1597.05,-517.59 1597.05,-517.59 1597.05,-538.87 1597.05,-538.87 1597.05,-544.87 1591.05,-550.87 1585.05,-550.87"/>
<text text-anchor="start" x="1119.15" y="-529.93" font-family="Roboto, sans-serif" font-weight="bold" font-size="14.00">11: </text>
<text text-anchor="start" x="1148.4" y="-529.93" font-family="Roboto, sans-serif" font-size="14.00">Ist der anfragende LF am Folgetag des Abmeldungsdatum der</text>
<text text-anchor="start" x="1119.15" y="-515.93" font-family="Roboto, sans-serif" font-size="14.00">Marktlokation noch zugeordnet?</text>
</g>
<!-- 10&#45;&gt;11 -->
<g id="edge20" class="edge">
<title>10-&gt;11</title>
<path fill="none" stroke="#88a0d6" d="M1253.93,-604.32C1275.59,-587.55 1296.9,-571.05 1313.99,-557.81"/>
<polygon fill="#88a0d6" stroke="#88a0d6" points="1316.07,-560.63 1321.84,-551.74 1311.79,-555.09 1316.07,-560.63"/>
<text text-anchor="start" x="1294.9" y="-573.82" font-family="Roboto, sans-serif" font-weight="bold" font-size="14.00">JA</text>
</g>
<!-- 11&#45;&gt;A06 -->
<g id="edge23" class="edge">
<title>11-&gt;A06</title>
<path fill="none" stroke="#88a0d6" d="M1295.33,-505.67C1254.82,-489.96 1198.77,-468.22 1150.25,-449.4"/>
<polygon fill="#88a0d6" stroke="#88a0d6" points="1151.71,-446.21 1141.12,-445.86 1149.17,-452.74 1151.71,-446.21"/>
<text text-anchor="start" x="1243.9" y="-475.29" font-family="Roboto, sans-serif" font-weight="bold" font-size="14.00">JA</text>
</g>
<!-- 12 -->
<g id="node19" class="node">
<title>12</title>
<path fill="#c2cee9" stroke="black" stroke-width="0" d="M1630.8,-452.34C1630.8,-452.34 1191,-452.34 1191,-452.34 1185,-452.34 1179,-446.34 1179,-440.34 1179,-440.34 1179,-377.06 1179,-377.06 1179,-371.06 1185,-365.06 1191,-365.06 1191,-365.06 1630.8,-365.06 1630.8,-365.06 1636.8,-365.06 1642.8,-371.06 1642.8,-377.06 1642.8,-377.06 1642.8,-440.34 1642.8,-440.34 1642.8,-446.34 1636.8,-452.34 1630.8,-452.34"/>
<text text-anchor="start" x="1193.4" y="-431.4" font-family="Roboto, sans-serif" font-weight="bold" font-size="14.00">12: </text>
<text text-anchor="start" x="1222.65" y="-431.4" font-family="Roboto, sans-serif" font-size="14.00">Liegt ein Transaktionsgrund vor, aus welchem hervorgeht,</text>
<text text-anchor="start" x="1193.4" y="-417.4" font-family="Roboto, sans-serif" font-size="14.00">dass der Anschlussnutzer ausgezogen ist?</text>
<text text-anchor="start" x="1193.4" y="-403.4" font-family="Roboto, sans-serif" font-size="14.00">Das ist bei den folgenden Transaktionsgr&#252;nden der Fall:</text>
<text text-anchor="start" x="1193.4" y="-389.4" font-family="Roboto, sans-serif" font-size="14.00">&#61599; Ein-/Auszug (Umzug)</text>
<text text-anchor="start" x="1193.4" y="-375.4" font-family="Roboto, sans-serif" font-size="14.00">&#61599; Auszug wegen Stilllegung</text>
</g>
<!-- 11&#45;&gt;12 -->
<g id="edge22" class="edge">
<title>11-&gt;12</title>
<path fill="none" stroke="#88a0d6" d="M1361.9,-505.67C1368.18,-493.39 1376.33,-477.42 1384.18,-462.04"/>
<polygon fill="#88a0d6" stroke="#88a0d6" points="1387.16,-463.91 1388.58,-453.41 1380.92,-460.73 1387.16,-463.91"/>
<text text-anchor="start" x="1378.9" y="-475.29" font-family="Roboto, sans-serif" font-weight="bold" font-size="14.00">NEIN</text>
</g>
<!-- A07 -->
<g id="node20" class="node">
<title>A07</title>
<path fill="#c4cac1" stroke="black" stroke-width="0" d="M1335.93,-290.81C1335.93,-290.81 1013.88,-290.81 1013.88,-290.81 1007.88,-290.81 1001.88,-284.81 1001.88,-278.81 1001.88,-278.81 1001.88,-215.53 1001.88,-215.53 1001.88,-209.53 1007.88,-203.53 1013.88,-203.53 1013.88,-203.53 1335.93,-203.53 1335.93,-203.53 1341.93,-203.53 1347.93,-209.53 1347.93,-215.53 1347.93,-215.53 1347.93,-278.81 1347.93,-278.81 1347.93,-284.81 1341.93,-290.81 1335.93,-290.81"/>
<text text-anchor="start" x="1016.28" y="-269.87" font-family="Roboto, sans-serif" font-weight="bold" font-size="14.00">A07</text>
<text text-anchor="start" x="1016.28" y="-255.87" font-family="Roboto, sans-serif" text-decoration="underline" font-size="14.00">Hinweis:</text>
<text text-anchor="start" x="1016.28" y="-241.87" font-family="Roboto, sans-serif" font-size="14.00">Cluster: Ablehnung</text>
<text text-anchor="start" x="1016.28" y="-227.87" font-family="Roboto, sans-serif" font-size="14.00">Lieferende zum Abmeldedatum wurde bereits</text>
<text text-anchor="start" x="1016.28" y="-213.87" font-family="Roboto, sans-serif" font-size="14.00">best&#228;tigt</text>
</g>
<!-- 12&#45;&gt;A07 -->
<g id="edge24" class="edge">
<title>12-&gt;A07</title>
<path fill="none" stroke="#88a0d6" d="M1347.97,-365.16C1316.9,-344.16 1279.26,-318.72 1247.03,-296.93"/>
<polygon fill="#88a0d6" stroke="#88a0d6" points="1249.16,-294.14 1238.91,-291.44 1245.24,-299.94 1249.16,-294.14"/>
<text text-anchor="start" x="1320.9" y="-334.76" font-family="Roboto, sans-serif" font-weight="bold" font-size="14.00">NEIN</text>
</g>
<!-- 13 -->
<g id="node21" class="node">
<title>13</title>
<path fill="#c2cee9" stroke="black" stroke-width="0" d="M1800.18,-311.81C1800.18,-311.81 1377.62,-311.81 1377.62,-311.81 1371.62,-311.81 1365.62,-305.81 1365.62,-299.81 1365.62,-299.81 1365.62,-194.53 1365.62,-194.53 1365.62,-188.53 1371.62,-182.53 1377.62,-182.53 1377.62,-182.53 1800.18,-182.53 1800.18,-182.53 1806.18,-182.53 1812.18,-188.53 1812.18,-194.53 1812.18,-194.53 1812.18,-299.81 1812.18,-299.81 1812.18,-305.81 1806.18,-311.81 1800.18,-311.81"/>
<text text-anchor="start" x="1380.03" y="-290.87" font-family="Roboto, sans-serif" font-weight="bold" font-size="14.00">13: </text>
<text text-anchor="start" x="1409.28" y="-290.87" font-family="Roboto, sans-serif" font-size="14.00">Liegt in der bereits best&#228;tigten Abmeldung ein</text>
<text text-anchor="start" x="1380.03" y="-276.87" font-family="Roboto, sans-serif" font-size="14.00">Transaktionsgrund vor, aus welchem nicht hervorgeht, dass</text>
<text text-anchor="start" x="1380.03" y="-262.87" font-family="Roboto, sans-serif" font-size="14.00">der Anschlussnutzer ausgezogen ist?</text>
<text text-anchor="start" x="1380.03" y="-248.87" font-family="Roboto, sans-serif" font-size="14.00">Das ist bei den folgenden Transaktionsgr&#252;nden der Fall:</text>
<text text-anchor="start" x="1380.03" y="-234.87" font-family="Roboto, sans-serif" font-size="14.00">&#61599; Ein-/Auszug (Umzug)</text>
<text text-anchor="start" x="1380.03" y="-220.87" font-family="Roboto, sans-serif" font-size="14.00">&#61599; Auszug wegen Stilllegung</text>
<text text-anchor="start" x="1380.03" y="-206.87" font-family="Roboto, sans-serif" font-size="14.00">&#61599; Aufhebung einer zuk&#252;nftigen Zuordnung wegen</text>
<text text-anchor="start" x="1380.03" y="-192.87" font-family="Roboto, sans-serif" font-size="14.00">Stilllegung</text>
</g>
<!-- 12&#45;&gt;13 -->
<g id="edge25" class="edge">
<title>12-&gt;13</title>
<path fill="none" stroke="#88a0d6" d="M1458.13,-365.37C1473.89,-351.25 1491.9,-335.1 1509.42,-319.4"/>
<polygon fill="#88a0d6" stroke="#88a0d6" points="1511.73,-322.04 1516.84,-312.76 1507.05,-316.82 1511.73,-322.04"/>
<text text-anchor="start" x="1493.9" y="-334.76" font-family="Roboto, sans-serif" font-weight="bold" font-size="14.00">JA</text>
</g>
<!-- A08 -->
<g id="node22" class="node">
<title>A08</title>
<path fill="#c4cac1" stroke="black" stroke-width="0" d="M1402.68,-108.28C1402.68,-108.28 1103.12,-108.28 1103.12,-108.28 1097.12,-108.28 1091.12,-102.28 1091.12,-96.28 1091.12,-96.28 1091.12,-33 1091.12,-33 1091.12,-27 1097.12,-21 1103.12,-21 1103.12,-21 1402.68,-21 1402.68,-21 1408.68,-21 1414.68,-27 1414.68,-33 1414.68,-33 1414.68,-96.28 1414.68,-96.28 1414.68,-102.28 1408.68,-108.28 1402.68,-108.28"/>
<text text-anchor="start" x="1105.53" y="-87.34" font-family="Roboto, sans-serif" font-weight="bold" font-size="14.00">A08</text>
<text text-anchor="start" x="1105.53" y="-73.34" font-family="Roboto, sans-serif" text-decoration="underline" font-size="14.00">Hinweis:</text>
<text text-anchor="start" x="1105.53" y="-59.34" font-family="Roboto, sans-serif" font-size="14.00">Cluster: Ablehnung</text>
<text text-anchor="start" x="1105.53" y="-45.34" font-family="Roboto, sans-serif" font-size="14.00">Lieferende zum Abmeldedatum wurde aus</text>
<text text-anchor="start" x="1105.53" y="-31.34" font-family="Roboto, sans-serif" font-size="14.00">gleichem Grund bereits best&#228;tigt.</text>
</g>
<!-- 13&#45;&gt;A08 -->
<g id="edge26" class="edge">
<title>13-&gt;A08</title>
<path fill="none" stroke="#88a0d6" d="M1470.91,-182.78C1428.64,-160.06 1381.72,-134.86 1342.28,-113.66"/>
<polygon fill="#88a0d6" stroke="#88a0d6" points="1343.95,-110.59 1333.48,-108.94 1340.64,-116.75 1343.95,-110.59"/>
<text text-anchor="start" x="1430.9" y="-152.23" font-family="Roboto, sans-serif" font-weight="bold" font-size="14.00">NEIN</text>
</g>
<!-- A09 -->
<g id="node23" class="node">
<title>A09</title>
<path fill="#c4cac1" stroke="black" stroke-width="0" d="M1801.18,-129.28C1801.18,-129.28 1444.62,-129.28 1444.62,-129.28 1438.62,-129.28 1432.62,-123.28 1432.62,-117.28 1432.62,-117.28 1432.62,-12 1432.62,-12 1432.62,-6 1438.62,0 1444.62,0 1444.62,0 1801.18,0 1801.18,0 1807.18,0 1813.18,-6 1813.18,-12 1813.18,-12 1813.18,-117.28 1813.18,-117.28 1813.18,-123.28 1807.18,-129.28 1801.18,-129.28"/>
<text text-anchor="start" x="1447.03" y="-108.34" font-family="Roboto, sans-serif" font-weight="bold" font-size="14.00">A09</text>
<text text-anchor="start" x="1447.03" y="-94.34" font-family="Roboto, sans-serif" text-decoration="underline" font-size="14.00">Hinweis:</text>
<text text-anchor="start" x="1447.03" y="-80.34" font-family="Roboto, sans-serif" font-size="14.00">Cluster: Zustimmung</text>
<text text-anchor="start" x="1447.03" y="-66.34" font-family="Roboto, sans-serif" font-size="14.00">Erneute Best&#228;tigung der Abmeldung aufgrund der</text>
<text text-anchor="start" x="1447.03" y="-52.34" font-family="Roboto, sans-serif" font-size="14.00">Information, dass der Anschlussnutzer nicht mehr</text>
<text text-anchor="start" x="1447.03" y="-38.34" font-family="Roboto, sans-serif" font-size="14.00">an der Marktlokation vorhanden ist.</text>
<text text-anchor="start" x="1447.03" y="-24.34" font-family="Roboto, sans-serif" font-size="14.00">Hinweis: Das bisher best&#228;tigte Bilanzierungsende</text>
<text text-anchor="start" x="1447.03" y="-10.34" font-family="Roboto, sans-serif" font-size="14.00">bleibt unver&#228;ndert bestehen.</text>
</g>
<!-- 13&#45;&gt;A09 -->
<g id="edge27" class="edge">
<title>13-&gt;A09</title>
<path fill="none" stroke="#88a0d6" d="M1600.84,-182.78C1603.42,-169.07 1606.17,-154.45 1608.83,-140.35"/>
<polygon fill="#88a0d6" stroke="#88a0d6" points="1612.24,-141.15 1610.65,-130.67 1605.36,-139.85 1612.24,-141.15"/>
<text text-anchor="start" x="1606.9" y="-152.23" font-family="Roboto, sans-serif" font-weight="bold" font-size="14.00">JA</text>
</g>
</g>
</svg>
  </g>
</svg>
  </g>
</svg>
