<?xml version='1.0' encoding='ASCII' standalone='yes'?>
<svg xmlns="http://www.w3.org/2000/svg" xmlns:xlink="http://www.w3.org/1999/xlink" version="1.1" width="113.33333333333333px" viewBox="0 0 113.33333333333333 96.0" height="96.0px">
  <g>
    <svg version="1.1" width="113.33333333333333px" viewBox="0 0 113.33333333333333 96.0" height="96.0px">
  <polygon fill="#f3f1f6" points="0,0 113.33333333333333,0 113.33333333333333,96.0 0,96.0"/><g>
    <g transform="translate(18.295150463095126, 9.599999999999998) scale(1 1) translate(0, 0) scale(0.43417112153749954 0.43417112153749954) "><sodipodi:namedview xmlns:sodipodi="http://sodipodi.sourceforge.net/DTD/sodipodi-0.dtd" xmlns:inkscape="http://www.inkscape.org/namespaces/inkscape" id="namedview7" pagecolor="#ffffff" bordercolor="#999999" borderopacity="1" inkscape:pageshadow="0" inkscape:pageopacity="0" inkscape:pagecheckerboard="0" inkscape:document-units="mm" showgrid="false" fit-margin-top="0" fit-margin-left="0" fit-margin-right="0" fit-margin-bottom="0" inkscape:zoom="0.64052329" inkscape:cx="130.36216" inkscape:cy="412.163" inkscape:window-width="1512" inkscape:window-height="916" inkscape:window-x="3840" inkscape:window-y="136" inkscape:window-maximized="0" inkscape:current-layer="layer1"/>
  <defs id="defs2">
    <clipPath clipPathUnits="userSpaceOnUse" id="clipPath23">
      <path d="M 0,568.156 H 579.236 V 0 H 0 Z" id="path21"/>
    </clipPath>
  </defs>
  <g xmlns:inkscape="http://www.inkscape.org/namespaces/inkscape" inkscape:label="Layer 1" inkscape:groupmode="layer" id="layer1" transform="translate(-16.541937,-55.305267)">
    <g id="g19" clip-path="url(#clipPath23)" transform="matrix(0.35277777,0,0,-0.35277777,0.01017023,243.73675)" style="opacity:0.2">
      <g id="g25" transform="translate(122.444,32.7195)">
        <path d="m 0,0 h -56.104 c -11,0 -19.898,9.123 -19.463,20.115 10.594,267.191 231.277,481.302 501.029,481.302 v -56.02 c 0,-10.98 -8.688,-19.892 -19.658,-20.393 C 180.29,414.697 0,228.005 0,0" style="fill:#6ead83;fill-opacity:0.5;fill-rule:nonzero;stroke:none" id="path27"/>
      </g>
      <g id="g29" transform="translate(273.7828,32.7195)">
        <path d="m 0,0 h -55.926 c -11.228,0 -20.091,9.482 -19.435,20.69 10.744,183.439 163.389,329.388 349.485,329.388 v -56.263 c 0,-10.709 -8.273,-19.617 -18.957,-20.35 C 112.819,263.696 0,144.774 0,0" style="fill:#6ead83;fill-opacity:0.5;fill-rule:nonzero;stroke:none" id="path31"/>
      </g>
      <g id="g33" transform="translate(425.7667,32.7195)">
        <path d="m 0,0 h -55.445 c -11.653,0 -20.604,10.17 -19.334,21.753 10.866,99.032 95.031,176.341 196.919,176.341 v -57.011 c 0,-10.046 -7.283,-18.755 -17.229,-20.165 C 45.688,112.522 0,61.497 0,0" style="fill:#6ead83;fill-opacity:0.5;fill-rule:nonzero;stroke:none" id="path35"/>
      </g>
    </g>
  </g>
</g>
    <svg width="85pt" height="72pt" viewBox="0.00 0.00 84.57 72.00">
<!--curl - -request POST - -url https://kroki.io/ via local kroki docker container instance hosted at http://localhost:8125/- -header 'Content-Type: application/json' - -data 'digraph D {
    labelloc="t";
    label=<<B><FONT POINT-SIZE="18">6.2 AD: Lieferende LF an NB</FONT></B><BR/><BR/><B><FONT POINT-SIZE="16">6.2.1 E_0401_Abmeldung pr&#252;fen</FONT></B><BR/><BR/><BR/><BR/>>;
    size="3,1";
    ratio="compress";
    "Start" [margin="0.2,0.12", shape=box, style=filled, fillcolor="#7a8da1", label=<<B>E_0401</B><BR align="center"/><FONT point-size="12"><B><U>Pr&#252;fende Rolle:</U> NB</B></FONT><BR align="center"/>>];
    "1" [margin="0.2,0.12", shape=box, style="filled,rounded", fillcolor="#7aab8a", label=<<B>1: </B>Liegt ein Transaktionsgrund vor, der eine Abmeldung nur in<BR align="left"/>die Zukunft zul&#228;sst?<BR align="left"/>Das ist bei den folgenden Transaktionsgr&#252;nden der Fall:<BR align="left"/>&#61599; Wechsel<BR align="left"/>&#61599; Ende der ESV ohne Folgelieferung<BR align="left"/>&#61599; Aufhebung einer zuk&#252;nftigen Zuordnung wegen<BR align="left"/>aufgehobenem Vertragsverh&#228;ltnis<BR align="left"/>>];
    "2" [margin="0.2,0.12", shape=box, style="filled,rounded", fillcolor="#7aab8a", label=<<B>2: </B>Liegt ein Transaktionsgrund vor, welcher mitteilt, dass der<BR align="left"/>Kunde vor Lieferbeginn ausgezogen ist, bzw. die<BR align="left"/>Marktlokation vor Lieferbeginn stillgelegt wurde?<BR align="left"/>Das ist bei den folgenden Transaktionsgr&#252;nden der Fall:<BR align="left"/>&#61599; Aufhebung einer zuk&#252;nftigen Zuordnung wegen Auszug<BR align="left"/>des Kunden<BR align="left"/>&#61599; Aufhebung einer zuk&#252;nftigen Zuordnung wegen<BR align="left"/>Stilllegung<BR align="left"/>>];
    "3" [margin="0.2,0.12", shape=box, style="filled,rounded", fillcolor="#7aab8a", label=<<B>3: </B>Liegt das Abmeldedatum mindestens einen Tag nach dem<BR align="left"/>Eingangsdatum der Abmeldung?<BR align="left"/>>];
    "A01" [margin="0.17,0.08", shape=box, style=filled, fillcolor="#cfb986", label=<<B>A01</B><BR align="center"/><FONT point-size="12"><U>Hinweis:</U><BR align="left"/>Cluster: Ablehnung<BR align="left"/>Frist&#252;berschreitung bei Aufhebung einer zu-<BR align="left"/>k&#252;nftigen Zuordnung wegen Auszug oder Still-<BR align="left"/>legung.<BR align="left"/></FONT>>];
    "4" [margin="0.2,0.12", shape=box, style="filled,rounded", fillcolor="#7aab8a", label=<<B>4: </B>Liegt das Eingangsdatum mindestens 6 WT vor dem<BR align="left"/>Abmeldedatum?<BR align="left"/>>];
    "A02" [margin="0.17,0.08", shape=box, style=filled, fillcolor="#cfb986", label=<<B>A02</B><BR align="center"/><FONT point-size="12"><U>Hinweis:</U><BR align="left"/>Cluster: Ablehnung<BR align="left"/>Frist&#252;berschreitung bei Transaktionsgr&#252;nden f&#252;r<BR align="left"/>eine Abmeldung in der Zukunft.<BR align="left"/></FONT>>];
    "5" [margin="0.2,0.12", shape=box, style="filled,rounded", fillcolor="#7aab8a", label=<<B>5: </B>Liegt der Transaktionsgrund<BR align="left"/>&#8226; Aufhebung einer zuk&#252;nftigen Zuordnung wegen auf-<BR align="left"/>gehobenem Vertragsverh&#228;ltnis<BR align="left"/>vor?<BR align="left"/>>];
    "6" [margin="0.2,0.12", shape=box, style="filled,rounded", fillcolor="#7aab8a", label=<<B>6: </B>Handelt es sich um eine Marktlokation, deren Mess-<BR align="left"/>lokationen vollst&#228;ndig mit iMS ausgestattet sind oder/und<BR align="left"/>deren Prognosegrundlage auf Basis von Werten erfolgt?<BR align="left"/>>];
    "7" [margin="0.2,0.12", shape=box, style="filled,rounded", fillcolor="#7aab8a", label=<<B>7: </B>Liegt das Abmeldedatum mindestens einen Tag nach dem<BR align="left"/>Eingangsdatum der Abmeldung?<BR align="left"/>>];
    "A03" [margin="0.17,0.08", shape=box, style=filled, fillcolor="#cfb986", label=<<B>A03</B><BR align="center"/><FONT point-size="12"><U>Hinweis:</U><BR align="left"/>Cluster: Ablehnung<BR align="left"/>Eingangsfrist bei iMS/kME mit RLM nicht ein-<BR align="left"/>gehalten.<BR align="left"/></FONT>>];
    "8" [margin="0.2,0.12", shape=box, style="filled,rounded", fillcolor="#7aab8a", label=<<B>8: </B>Liegt das Eingangsdatum der Abmeldung mehr als sechs<BR align="left"/>Wochen nach dem Abmeldedatum der Abmeldung?<BR align="left"/>>];
    "A04" [margin="0.17,0.08", shape=box, style=filled, fillcolor="#cfb986", label=<<B>A04</B><BR align="center"/><FONT point-size="12"><U>Hinweis:</U><BR align="left"/>Cluster: Ablehnung<BR align="left"/>Frist&#252;berschreitung bei kME ohne RLM/mME/<BR align="left"/>Pauschalanlage.<BR align="left"/></FONT>>];
    "9" [margin="0.2,0.12", shape=box, style="filled,rounded", fillcolor="#7aab8a", label=<<B>9: </B>Erfolgt die Aufhebung einer zuk&#252;nftigen Zuordnung zu dem<BR align="left"/>gleichen Datum (Zeitpunkt), welcher dem Lieferanten im<BR align="left"/>Lieferbeginn best&#228;tigt wurde?<BR align="left"/>>];
    "A05" [margin="0.17,0.08", shape=box, style=filled, fillcolor="#cfb986", label=<<B>A05</B><BR align="center"/><FONT point-size="12"><U>Hinweis:</U><BR align="left"/>Cluster: Ablehnung<BR align="left"/>Die Aufhebung einer zuk&#252;nftigen Zuordnung<BR align="left"/>muss zum Datum (Zeitpunkt) angegeben werden,<BR align="left"/>wie im Lieferbeginn best&#228;tigt.<BR align="left"/></FONT>>];
    "10" [margin="0.2,0.12", shape=box, style="filled,rounded", fillcolor="#7aab8a", label=<<B>10: </B>Wurde die Zuordnung des anfragenden Lieferanten zur<BR align="left"/>Marktlokation zum identischen Abmeldedatum bereits durch<BR align="left"/>eine Best&#228;tigung in den folgenden Prozessschritten beendet?<BR align="left"/>Fall:<BR align="left"/>&#61599; SD: Lieferende von LF an NB, Prozessschritt 2 "Antwort<BR align="left"/>auf Abmeldung"<BR align="left"/>&#61599; SD: Lieferende von NB an LF, Prozessschritt 2 "Antwort<BR align="left"/>auf Abmeldung"<BR align="left"/>&#61599; SD: Lieferbeginn, Prozessschritt 4 "Beantwortung der<BR align="left"/>Abmeldeanfrage" oder die Best&#228;tigung erfolgt durch<BR align="left"/>die Fristverstreichung<BR align="left"/>>];
    "A06" [margin="0.17,0.08", shape=box, style=filled, fillcolor="#cfb986", label=<<B>A06</B><BR align="center"/><FONT point-size="12"><U>Hinweis:</U><BR align="left"/>Cluster: Zustimmung<BR align="left"/>Best&#228;tigung der Abmeldung<BR align="left"/></FONT>>];
    "11" [margin="0.2,0.12", shape=box, style="filled,rounded", fillcolor="#7aab8a", label=<<B>11: </B>Ist der anfragende LF am Folgetag des Abmeldungsdatum der<BR align="left"/>Marktlokation noch zugeordnet?<BR align="left"/>>];
    "12" [margin="0.2,0.12", shape=box, style="filled,rounded", fillcolor="#7aab8a", label=<<B>12: </B>Liegt ein Transaktionsgrund vor, aus welchem hervorgeht,<BR align="left"/>dass der Anschlussnutzer ausgezogen ist?<BR align="left"/>Das ist bei den folgenden Transaktionsgr&#252;nden der Fall:<BR align="left"/>&#61599; Ein-/Auszug (Umzug)<BR align="left"/>&#61599; Auszug wegen Stilllegung<BR align="left"/>>];
    "A07" [margin="0.17,0.08", shape=box, style=filled, fillcolor="#cfb986", label=<<B>A07</B><BR align="center"/><FONT point-size="12"><U>Hinweis:</U><BR align="left"/>Cluster: Ablehnung<BR align="left"/>Lieferende zum Abmeldedatum wurde bereits<BR align="left"/>best&#228;tigt<BR align="left"/></FONT>>];
    "13" [margin="0.2,0.12", shape=box, style="filled,rounded", fillcolor="#7aab8a", label=<<B>13: </B>Liegt in der bereits best&#228;tigten Abmeldung ein<BR align="left"/>Transaktionsgrund vor, aus welchem nicht hervorgeht, dass<BR align="left"/>der Anschlussnutzer ausgezogen ist?<BR align="left"/>Das ist bei den folgenden Transaktionsgr&#252;nden der Fall:<BR align="left"/>&#61599; Ein-/Auszug (Umzug)<BR align="left"/>&#61599; Auszug wegen Stilllegung<BR align="left"/>&#61599; Aufhebung einer zuk&#252;nftigen Zuordnung wegen<BR align="left"/>Stilllegung<BR align="left"/>>];
    "A08" [margin="0.17,0.08", shape=box, style=filled, fillcolor="#cfb986", label=<<B>A08</B><BR align="center"/><FONT point-size="12"><U>Hinweis:</U><BR align="left"/>Cluster: Ablehnung<BR align="left"/>Lieferende zum Abmeldedatum wurde aus<BR align="left"/>gleichem Grund bereits best&#228;tigt.<BR align="left"/></FONT>>];
    "A09" [margin="0.17,0.08", shape=box, style=filled, fillcolor="#cfb986", label=<<B>A09</B><BR align="center"/><FONT point-size="12"><U>Hinweis:</U><BR align="left"/>Cluster: Zustimmung<BR align="left"/>Erneute Best&#228;tigung der Abmeldung aufgrund der<BR align="left"/>Information, dass der Anschlussnutzer nicht mehr<BR align="left"/>an der Marktlokation vorhanden ist.<BR align="left"/>Hinweis: Das bisher best&#228;tigte Bilanzierungsende<BR align="left"/>bleibt unver&#228;ndert bestehen.<BR align="left"/></FONT>>];

    "Start" -> "1";
    "1" -> "4" [label="Ja"];
    "1" -> "2" [label="Nein"];
    "2" -> "3" [label="Ja"];
    "2" -> "6" [label="Nein"];
    "3" -> "A01" [label="Nein"];
    "3" -> "9" [label="Ja"];
    "4" -> "A02" [label="Nein"];
    "4" -> "5" [label="Ja"];
    "5" -> "9" [label="Ja"];
    "5" -> "10" [label="Nein"];
    "6" -> "7" [label="Ja"];
    "6" -> "8" [label="Nein"];
    "7" -> "A03" [label="Nein"];
    "7" -> "10" [label="Ja"];
    "8" -> "A04" [label="Nein"];
    "8" -> "10" [label="Ja"];
    "9" -> "A05" [label="Nein"];
    "9" -> "10" [label="Ja"];
    "10" -> "11" [label="Ja"];
    "10" -> "A06" [label="Nein"];
    "11" -> "12" [label="Nein"];
    "11" -> "A06" [label="Ja"];
    "12" -> "A07" [label="Nein"];
    "12" -> "13" [label="Ja"];
    "13" -> "A08" [label="Nein"];
    "13" -> "A09" [label="Ja"];

    bgcolor="transparent";
}'--><g id="graph0" class="graph" transform="scale(0.0461977 0.0461977) rotate(0) translate(4 1554.52)">
<title>D</title>
<text text-anchor="start" x="767.71" y="-1530.42" font-family="Times,serif" font-weight="bold" font-size="18.00">6.2 AD: Lieferende LF an NB</text>
<text text-anchor="start" x="764.71" y="-1500.32" font-family="Times,serif" font-weight="bold" font-size="16.00">6.2.1 E_0401_Abmeldung pr&#252;fen</text>
<!-- Start -->
<g id="node1" class="node">
<title>Start</title>
<polygon fill="#7a8da1" stroke="black" points="1125.43,-1452.52 965.38,-1452.52 965.38,-1409.24 1125.43,-1409.24 1125.43,-1452.52"/>
<text text-anchor="start" x="1017.28" y="-1431.58" font-family="Times,serif" font-weight="bold" font-size="14.00">E_0401</text>
<text text-anchor="start" x="979.78" y="-1419.48" font-family="Times,serif" font-weight="bold" text-decoration="underline" font-size="12.00">Pr&#252;fende Rolle:</text>
<text text-anchor="start" x="1084.78" y="-1419.48" font-family="Times,serif" font-weight="bold" font-size="12.00"> NB</text>
</g>
<!-- 1 -->
<g id="node2" class="node">
<title>1</title>
<path fill="#7aab8a" stroke="black" d="M1272.05,-1372.24C1272.05,-1372.24 818.75,-1372.24 818.75,-1372.24 812.75,-1372.24 806.75,-1366.24 806.75,-1360.24 806.75,-1360.24 806.75,-1268.96 806.75,-1268.96 806.75,-1262.96 812.75,-1256.96 818.75,-1256.96 818.75,-1256.96 1272.05,-1256.96 1272.05,-1256.96 1278.05,-1256.96 1284.05,-1262.96 1284.05,-1268.96 1284.05,-1268.96 1284.05,-1360.24 1284.05,-1360.24 1284.05,-1366.24 1278.05,-1372.24 1272.05,-1372.24"/>
<text text-anchor="start" x="821.15" y="-1351.3" font-family="Times,serif" font-weight="bold" font-size="14.00">1: </text>
<text text-anchor="start" x="840.65" y="-1351.3" font-family="Times,serif" font-size="14.00">Liegt ein Transaktionsgrund vor, der eine Abmeldung nur in</text>
<text text-anchor="start" x="821.15" y="-1337.3" font-family="Times,serif" font-size="14.00">die Zukunft zul&#228;sst?</text>
<text text-anchor="start" x="821.15" y="-1323.3" font-family="Times,serif" font-size="14.00">Das ist bei den folgenden Transaktionsgr&#252;nden der Fall:</text>
<text text-anchor="start" x="821.15" y="-1309.3" font-family="Times,serif" font-size="14.00">&#61599; Wechsel</text>
<text text-anchor="start" x="821.15" y="-1295.3" font-family="Times,serif" font-size="14.00">&#61599; Ende der ESV ohne Folgelieferung</text>
<text text-anchor="start" x="821.15" y="-1281.3" font-family="Times,serif" font-size="14.00">&#61599; Aufhebung einer zuk&#252;nftigen Zuordnung wegen</text>
<text text-anchor="start" x="821.15" y="-1267.3" font-family="Times,serif" font-size="14.00">aufgehobenem Vertragsverh&#228;ltnis</text>
</g>
<!-- Start&#45;&gt;1 -->
<g id="edge1" class="edge">
<title>Start-&gt;1</title>
<path fill="none" stroke="black" d="M1045.4,-1408.92C1045.4,-1401.67 1045.4,-1393.1 1045.4,-1384.14"/>
<polygon fill="black" stroke="black" points="1048.9,-1384.17 1045.4,-1374.17 1041.9,-1384.17 1048.9,-1384.17"/>
</g>
<!-- 2 -->
<g id="node3" class="node">
<title>2</title>
<path fill="#7aab8a" stroke="black" d="M1036.3,-1203.71C1036.3,-1203.71 590.5,-1203.71 590.5,-1203.71 584.5,-1203.71 578.5,-1197.71 578.5,-1191.71 578.5,-1191.71 578.5,-1086.43 578.5,-1086.43 578.5,-1080.43 584.5,-1074.43 590.5,-1074.43 590.5,-1074.43 1036.3,-1074.43 1036.3,-1074.43 1042.3,-1074.43 1048.3,-1080.43 1048.3,-1086.43 1048.3,-1086.43 1048.3,-1191.71 1048.3,-1191.71 1048.3,-1197.71 1042.3,-1203.71 1036.3,-1203.71"/>
<text text-anchor="start" x="592.9" y="-1182.77" font-family="Times,serif" font-weight="bold" font-size="14.00">2: </text>
<text text-anchor="start" x="612.4" y="-1182.77" font-family="Times,serif" font-size="14.00">Liegt ein Transaktionsgrund vor, welcher mitteilt, dass der</text>
<text text-anchor="start" x="592.9" y="-1168.77" font-family="Times,serif" font-size="14.00">Kunde vor Lieferbeginn ausgezogen ist, bzw. die</text>
<text text-anchor="start" x="592.9" y="-1154.77" font-family="Times,serif" font-size="14.00">Marktlokation vor Lieferbeginn stillgelegt wurde?</text>
<text text-anchor="start" x="592.9" y="-1140.77" font-family="Times,serif" font-size="14.00">Das ist bei den folgenden Transaktionsgr&#252;nden der Fall:</text>
<text text-anchor="start" x="592.9" y="-1126.77" font-family="Times,serif" font-size="14.00">&#61599; Aufhebung einer zuk&#252;nftigen Zuordnung wegen Auszug</text>
<text text-anchor="start" x="592.9" y="-1112.77" font-family="Times,serif" font-size="14.00">des Kunden</text>
<text text-anchor="start" x="592.9" y="-1098.77" font-family="Times,serif" font-size="14.00">&#61599; Aufhebung einer zuk&#252;nftigen Zuordnung wegen</text>
<text text-anchor="start" x="592.9" y="-1084.77" font-family="Times,serif" font-size="14.00">Stilllegung</text>
</g>
<!-- 1&#45;&gt;2 -->
<g id="edge3" class="edge">
<title>1-&gt;2</title>
<path fill="none" stroke="black" d="M969.11,-1256.54C949.56,-1241.91 928.29,-1226 907.93,-1210.78"/>
<polygon fill="black" stroke="black" points="910.28,-1208.16 900.17,-1204.97 906.08,-1213.77 910.28,-1208.16"/>
<text text-anchor="middle" x="959.27" y="-1225.66" font-family="Times,serif" font-size="14.00">Nein</text>
</g>
<!-- 4 -->
<g id="node6" class="node">
<title>4</title>
<path fill="#7aab8a" stroke="black" d="M1476.68,-1161.71C1476.68,-1161.71 1078.12,-1161.71 1078.12,-1161.71 1072.12,-1161.71 1066.12,-1155.71 1066.12,-1149.71 1066.12,-1149.71 1066.12,-1128.43 1066.12,-1128.43 1066.12,-1122.43 1072.12,-1116.43 1078.12,-1116.43 1078.12,-1116.43 1476.68,-1116.43 1476.68,-1116.43 1482.68,-1116.43 1488.68,-1122.43 1488.68,-1128.43 1488.68,-1128.43 1488.68,-1149.71 1488.68,-1149.71 1488.68,-1155.71 1482.68,-1161.71 1476.68,-1161.71"/>
<text text-anchor="start" x="1080.53" y="-1140.77" font-family="Times,serif" font-weight="bold" font-size="14.00">4: </text>
<text text-anchor="start" x="1100.03" y="-1140.77" font-family="Times,serif" font-size="14.00">Liegt das Eingangsdatum mindestens 6 WT vor dem</text>
<text text-anchor="start" x="1080.53" y="-1126.77" font-family="Times,serif" font-size="14.00">Abmeldedatum?</text>
</g>
<!-- 1&#45;&gt;4 -->
<g id="edge2" class="edge">
<title>1-&gt;4</title>
<path fill="none" stroke="black" d="M1121.69,-1256.54C1160.99,-1227.14 1207.22,-1192.56 1239.04,-1168.76"/>
<polygon fill="black" stroke="black" points="1240.89,-1171.75 1246.81,-1162.95 1236.7,-1166.14 1240.89,-1171.75"/>
<text text-anchor="middle" x="1168.15" y="-1225.66" font-family="Times,serif" font-size="14.00">Ja</text>
</g>
<!-- 3 -->
<g id="node4" class="node">
<title>3</title>
<path fill="#7aab8a" stroke="black" d="M1037.8,-1007.06C1037.8,-1007.06 601,-1007.06 601,-1007.06 595,-1007.06 589,-1001.06 589,-995.06 589,-995.06 589,-973.78 589,-973.78 589,-967.78 595,-961.78 601,-961.78 601,-961.78 1037.8,-961.78 1037.8,-961.78 1043.8,-961.78 1049.8,-967.78 1049.8,-973.78 1049.8,-973.78 1049.8,-995.06 1049.8,-995.06 1049.8,-1001.06 1043.8,-1007.06 1037.8,-1007.06"/>
<text text-anchor="start" x="603.4" y="-986.12" font-family="Times,serif" font-weight="bold" font-size="14.00">3: </text>
<text text-anchor="start" x="622.9" y="-986.12" font-family="Times,serif" font-size="14.00">Liegt das Abmeldedatum mindestens einen Tag nach dem</text>
<text text-anchor="start" x="603.4" y="-972.12" font-family="Times,serif" font-size="14.00">Eingangsdatum der Abmeldung?</text>
</g>
<!-- 2&#45;&gt;3 -->
<g id="edge4" class="edge">
<title>2-&gt;3</title>
<path fill="none" stroke="black" d="M815.91,-1074.22C816.66,-1055.02 817.46,-1034.74 818.1,-1018.42"/>
<polygon fill="black" stroke="black" points="821.58,-1018.94 818.48,-1008.81 814.59,-1018.67 821.58,-1018.94"/>
<text text-anchor="middle" x="823.15" y="-1043.13" font-family="Times,serif" font-size="14.00">Ja</text>
</g>
<!-- 6 -->
<g id="node9" class="node">
<title>6</title>
<path fill="#7aab8a" stroke="black" d="M558.92,-1014.06C558.92,-1014.06 137.88,-1014.06 137.88,-1014.06 131.88,-1014.06 125.87,-1008.06 125.87,-1002.06 125.87,-1002.06 125.87,-966.78 125.87,-966.78 125.87,-960.78 131.87,-954.78 137.87,-954.78 137.87,-954.78 558.92,-954.78 558.92,-954.78 564.92,-954.78 570.92,-960.78 570.92,-966.78 570.92,-966.78 570.92,-1002.06 570.92,-1002.06 570.92,-1008.06 564.92,-1014.06 558.92,-1014.06"/>
<text text-anchor="start" x="140.27" y="-993.12" font-family="Times,serif" font-weight="bold" font-size="14.00">6: </text>
<text text-anchor="start" x="159.77" y="-993.12" font-family="Times,serif" font-size="14.00">Handelt es sich um eine Marktlokation, deren Mess-</text>
<text text-anchor="start" x="140.27" y="-979.12" font-family="Times,serif" font-size="14.00">lokationen vollst&#228;ndig mit iMS ausgestattet sind oder/und</text>
<text text-anchor="start" x="140.27" y="-965.12" font-family="Times,serif" font-size="14.00">deren Prognosegrundlage auf Basis von Werten erfolgt?</text>
</g>
<!-- 2&#45;&gt;6 -->
<g id="edge5" class="edge">
<title>2-&gt;6</title>
<path fill="none" stroke="black" d="M618.22,-1074C559.52,-1054.73 497.57,-1034.39 447.85,-1018.07"/>
<polygon fill="black" stroke="black" points="449.14,-1014.81 438.54,-1015.01 446.95,-1021.46 449.14,-1014.81"/>
<text text-anchor="middle" x="569.27" y="-1043.13" font-family="Times,serif" font-size="14.00">Nein</text>
</g>
<!-- A01 -->
<g id="node5" class="node">
<title>A01</title>
<polygon fill="#cfb986" stroke="black" points="1258.89,-894.41 953.91,-894.41 953.91,-808.89 1258.89,-808.89 1258.89,-894.41"/>
<text text-anchor="start" x="1091.4" y="-876.35" font-family="Times,serif" font-weight="bold" font-size="14.00">A01</text>
<text text-anchor="start" x="966.15" y="-864.25" font-family="Times,serif" text-decoration="underline" font-size="12.00">Hinweis:</text>
<text text-anchor="start" x="966.15" y="-852.25" font-family="Times,serif" font-size="12.00">Cluster: Ablehnung</text>
<text text-anchor="start" x="966.15" y="-840.25" font-family="Times,serif" font-size="12.00">Frist&#252;berschreitung bei Aufhebung einer zu-</text>
<text text-anchor="start" x="966.15" y="-828.25" font-family="Times,serif" font-size="12.00">k&#252;nftigen Zuordnung wegen Auszug oder Still-</text>
<text text-anchor="start" x="966.15" y="-816.25" font-family="Times,serif" font-size="12.00">legung.</text>
</g>
<!-- 3&#45;&gt;A01 -->
<g id="edge6" class="edge">
<title>3-&gt;A01</title>
<path fill="none" stroke="black" d="M867.76,-961.38C904.74,-944.53 957.07,-920.69 1003.3,-899.63"/>
<polygon fill="black" stroke="black" points="1004.65,-902.86 1012.3,-895.53 1001.75,-896.49 1004.65,-902.86"/>
<text text-anchor="middle" x="988.27" y="-916.36" font-family="Times,serif" font-size="14.00">Nein</text>
</g>
<!-- 9 -->
<g id="node14" class="node">
<title>9</title>
<path fill="#7aab8a" stroke="black" d="M1810.68,-881.29C1810.68,-881.29 1358.12,-881.29 1358.12,-881.29 1352.12,-881.29 1346.12,-875.29 1346.12,-869.29 1346.12,-869.29 1346.12,-834.01 1346.12,-834.01 1346.12,-828.01 1352.12,-822.01 1358.12,-822.01 1358.12,-822.01 1810.68,-822.01 1810.68,-822.01 1816.68,-822.01 1822.68,-828.01 1822.68,-834.01 1822.68,-834.01 1822.68,-869.29 1822.68,-869.29 1822.68,-875.29 1816.68,-881.29 1810.68,-881.29"/>
<text text-anchor="start" x="1360.53" y="-860.35" font-family="Times,serif" font-weight="bold" font-size="14.00">9: </text>
<text text-anchor="start" x="1380.03" y="-860.35" font-family="Times,serif" font-size="14.00">Erfolgt die Aufhebung einer zuk&#252;nftigen Zuordnung zu dem</text>
<text text-anchor="start" x="1360.53" y="-846.35" font-family="Times,serif" font-size="14.00">gleichen Datum (Zeitpunkt), welcher dem Lieferanten im</text>
<text text-anchor="start" x="1360.53" y="-832.35" font-family="Times,serif" font-size="14.00">Lieferbeginn best&#228;tigt wurde?</text>
</g>
<!-- 3&#45;&gt;9 -->
<g id="edge7" class="edge">
<title>3-&gt;9</title>
<path fill="none" stroke="black" d="M948.74,-961.31C1073.39,-940 1263.15,-907.56 1402.91,-883.67"/>
<polygon fill="black" stroke="black" points="1403.39,-887.14 1412.66,-882.01 1402.21,-880.24 1403.39,-887.14"/>
<text text-anchor="middle" x="1231.15" y="-916.36" font-family="Times,serif" font-size="14.00">Ja</text>
</g>
<!-- A02 -->
<g id="node7" class="node">
<title>A02</title>
<polygon fill="#cfb986" stroke="black" points="1822.14,-1021.18 1500.66,-1021.18 1500.66,-947.66 1822.14,-947.66 1822.14,-1021.18"/>
<text text-anchor="start" x="1646.4" y="-1003.12" font-family="Times,serif" font-weight="bold" font-size="14.00">A02</text>
<text text-anchor="start" x="1512.9" y="-991.02" font-family="Times,serif" text-decoration="underline" font-size="12.00">Hinweis:</text>
<text text-anchor="start" x="1512.9" y="-979.02" font-family="Times,serif" font-size="12.00">Cluster: Ablehnung</text>
<text text-anchor="start" x="1512.9" y="-967.02" font-family="Times,serif" font-size="12.00">Frist&#252;berschreitung bei Transaktionsgr&#252;nden f&#252;r</text>
<text text-anchor="start" x="1512.9" y="-955.02" font-family="Times,serif" font-size="12.00">eine Abmeldung in der Zukunft.</text>
</g>
<!-- 4&#45;&gt;A02 -->
<g id="edge8" class="edge">
<title>4-&gt;A02</title>
<path fill="none" stroke="black" d="M1332.83,-1116.04C1392.02,-1092.51 1487.11,-1054.7 1559.8,-1025.81"/>
<polygon fill="black" stroke="black" points="1560.95,-1029.12 1568.95,-1022.17 1558.37,-1022.61 1560.95,-1029.12"/>
<text text-anchor="middle" x="1531.28" y="-1043.13" font-family="Times,serif" font-size="14.00">Nein</text>
</g>
<!-- 5 -->
<g id="node8" class="node">
<title>5</title>
<path fill="#7aab8a" stroke="black" d="M1470.55,-1021.06C1470.55,-1021.06 1080.25,-1021.06 1080.25,-1021.06 1074.25,-1021.06 1068.25,-1015.06 1068.25,-1009.06 1068.25,-1009.06 1068.25,-959.78 1068.25,-959.78 1068.25,-953.78 1074.25,-947.78 1080.25,-947.78 1080.25,-947.78 1470.55,-947.78 1470.55,-947.78 1476.55,-947.78 1482.55,-953.78 1482.55,-959.78 1482.55,-959.78 1482.55,-1009.06 1482.55,-1009.06 1482.55,-1015.06 1476.55,-1021.06 1470.55,-1021.06"/>
<text text-anchor="start" x="1082.65" y="-1000.12" font-family="Times,serif" font-weight="bold" font-size="14.00">5: </text>
<text text-anchor="start" x="1102.15" y="-1000.12" font-family="Times,serif" font-size="14.00">Liegt der Transaktionsgrund</text>
<text text-anchor="start" x="1082.65" y="-986.12" font-family="Times,serif" font-size="14.00">&#8226; Aufhebung einer zuk&#252;nftigen Zuordnung wegen auf-</text>
<text text-anchor="start" x="1082.65" y="-972.12" font-family="Times,serif" font-size="14.00">gehobenem Vertragsverh&#228;ltnis</text>
<text text-anchor="start" x="1082.65" y="-958.12" font-family="Times,serif" font-size="14.00">vor?</text>
</g>
<!-- 4&#45;&gt;5 -->
<g id="edge9" class="edge">
<title>4-&gt;5</title>
<path fill="none" stroke="black" d="M1277.11,-1116.2C1276.83,-1094.56 1276.39,-1060.73 1276.02,-1032.9"/>
<polygon fill="black" stroke="black" points="1279.52,-1032.86 1275.89,-1022.91 1272.52,-1032.96 1279.52,-1032.86"/>
<text text-anchor="middle" x="1282.15" y="-1043.13" font-family="Times,serif" font-size="14.00">Ja</text>
</g>
<!-- 5&#45;&gt;9 -->
<g id="edge10" class="edge">
<title>5-&gt;9</title>
<path fill="none" stroke="black" d="M1409.45,-947.43C1425.15,-942.03 1440.77,-936.09 1455.4,-929.66 1481.83,-918.04 1509.52,-902.07 1532.44,-887.69"/>
<polygon fill="black" stroke="black" points="1534.12,-890.77 1540.68,-882.45 1530.36,-884.86 1534.12,-890.77"/>
<text text-anchor="middle" x="1495.15" y="-916.36" font-family="Times,serif" font-size="14.00">Ja</text>
</g>
<!-- 10 -->
<g id="node16" class="node">
<title>10</title>
<path fill="#7aab8a" stroke="black" d="M1364.55,-755.64C1364.55,-755.64 920.25,-755.64 920.25,-755.64 914.25,-755.64 908.25,-749.64 908.25,-743.64 908.25,-743.64 908.25,-596.36 908.25,-596.36 908.25,-590.36 914.25,-584.36 920.25,-584.36 920.25,-584.36 1364.55,-584.36 1364.55,-584.36 1370.55,-584.36 1376.55,-590.36 1376.55,-596.36 1376.55,-596.36 1376.55,-743.64 1376.55,-743.64 1376.55,-749.64 1370.55,-755.64 1364.55,-755.64"/>
<text text-anchor="start" x="922.65" y="-734.7" font-family="Times,serif" font-weight="bold" font-size="14.00">10: </text>
<text text-anchor="start" x="951.9" y="-734.7" font-family="Times,serif" font-size="14.00">Wurde die Zuordnung des anfragenden Lieferanten zur</text>
<text text-anchor="start" x="922.65" y="-720.7" font-family="Times,serif" font-size="14.00">Marktlokation zum identischen Abmeldedatum bereits durch</text>
<text text-anchor="start" x="922.65" y="-706.7" font-family="Times,serif" font-size="14.00">eine Best&#228;tigung in den folgenden Prozessschritten beendet?</text>
<text text-anchor="start" x="922.65" y="-692.7" font-family="Times,serif" font-size="14.00">Fall:</text>
<text text-anchor="start" x="922.65" y="-678.7" font-family="Times,serif" font-size="14.00">&#61599; SD: Lieferende von LF an NB, Prozessschritt 2 "Antwort</text>
<text text-anchor="start" x="922.65" y="-664.7" font-family="Times,serif" font-size="14.00">auf Abmeldung"</text>
<text text-anchor="start" x="922.65" y="-650.7" font-family="Times,serif" font-size="14.00">&#61599; SD: Lieferende von NB an LF, Prozessschritt 2 "Antwort</text>
<text text-anchor="start" x="922.65" y="-636.7" font-family="Times,serif" font-size="14.00">auf Abmeldung"</text>
<text text-anchor="start" x="922.65" y="-622.7" font-family="Times,serif" font-size="14.00">&#61599; SD: Lieferbeginn, Prozessschritt 4 "Beantwortung der</text>
<text text-anchor="start" x="922.65" y="-608.7" font-family="Times,serif" font-size="14.00">Abmeldeanfrage" oder die Best&#228;tigung erfolgt durch</text>
<text text-anchor="start" x="922.65" y="-594.7" font-family="Times,serif" font-size="14.00">die Fristverstreichung</text>
</g>
<!-- 5&#45;&gt;10 -->
<g id="edge11" class="edge">
<title>5-&gt;10</title>
<path fill="none" stroke="black" d="M1280.64,-947.47C1284.39,-911.07 1285.96,-853.9 1267.4,-808.89 1261.03,-793.45 1252.14,-778.63 1242.01,-764.8"/>
<polygon fill="black" stroke="black" points="1244.95,-762.89 1236.1,-757.06 1239.39,-767.13 1244.95,-762.89"/>
<text text-anchor="middle" x="1299.28" y="-846.97" font-family="Times,serif" font-size="14.00">Nein</text>
</g>
<!-- 7 -->
<g id="node10" class="node">
<title>7</title>
<path fill="#7aab8a" stroke="black" d="M448.8,-874.29C448.8,-874.29 12,-874.29 12,-874.29 6,-874.29 0,-868.29 0,-862.29 0,-862.29 0,-841.01 0,-841.01 0,-835.01 6,-829.01 12,-829.01 12,-829.01 448.8,-829.01 448.8,-829.01 454.8,-829.01 460.8,-835.01 460.8,-841.01 460.8,-841.01 460.8,-862.29 460.8,-862.29 460.8,-868.29 454.8,-874.29 448.8,-874.29"/>
<text text-anchor="start" x="14.4" y="-853.35" font-family="Times,serif" font-weight="bold" font-size="14.00">7: </text>
<text text-anchor="start" x="33.9" y="-853.35" font-family="Times,serif" font-size="14.00">Liegt das Abmeldedatum mindestens einen Tag nach dem</text>
<text text-anchor="start" x="14.4" y="-839.35" font-family="Times,serif" font-size="14.00">Eingangsdatum der Abmeldung?</text>
</g>
<!-- 6&#45;&gt;7 -->
<g id="edge12" class="edge">
<title>6-&gt;7</title>
<path fill="none" stroke="black" d="M322.21,-954.4C303.12,-933.23 277.3,-904.62 257.9,-883.13"/>
<polygon fill="black" stroke="black" points="260.6,-880.89 251.3,-875.81 255.4,-885.58 260.6,-880.89"/>
<text text-anchor="middle" x="303.15" y="-916.36" font-family="Times,serif" font-size="14.00">Ja</text>
</g>
<!-- 8 -->
<g id="node12" class="node">
<title>8</title>
<path fill="#7aab8a" stroke="black" d="M923.55,-874.29C923.55,-874.29 491.25,-874.29 491.25,-874.29 485.25,-874.29 479.25,-868.29 479.25,-862.29 479.25,-862.29 479.25,-841.01 479.25,-841.01 479.25,-835.01 485.25,-829.01 491.25,-829.01 491.25,-829.01 923.55,-829.01 923.55,-829.01 929.55,-829.01 935.55,-835.01 935.55,-841.01 935.55,-841.01 935.55,-862.29 935.55,-862.29 935.55,-868.29 929.55,-874.29 923.55,-874.29"/>
<text text-anchor="start" x="493.65" y="-853.35" font-family="Times,serif" font-weight="bold" font-size="14.00">8: </text>
<text text-anchor="start" x="513.15" y="-853.35" font-family="Times,serif" font-size="14.00">Liegt das Eingangsdatum der Abmeldung mehr als sechs</text>
<text text-anchor="start" x="493.65" y="-839.35" font-family="Times,serif" font-size="14.00">Wochen nach dem Abmeldedatum der Abmeldung?</text>
</g>
<!-- 6&#45;&gt;8 -->
<g id="edge13" class="edge">
<title>6-&gt;8</title>
<path fill="none" stroke="black" d="M428.07,-954.4C490.33,-931.72 576.09,-900.48 636.1,-878.62"/>
<polygon fill="black" stroke="black" points="637,-882.02 645.2,-875.31 634.61,-875.44 637,-882.02"/>
<text text-anchor="middle" x="555.27" y="-916.36" font-family="Times,serif" font-size="14.00">Nein</text>
</g>
<!-- A03 -->
<g id="node11" class="node">
<title>A03</title>
<polygon fill="#cfb986" stroke="black" points="381.76,-706.76 79.03,-706.76 79.03,-633.24 381.76,-633.24 381.76,-706.76"/>
<text text-anchor="start" x="215.4" y="-688.7" font-family="Times,serif" font-weight="bold" font-size="14.00">A03</text>
<text text-anchor="start" x="91.28" y="-676.6" font-family="Times,serif" text-decoration="underline" font-size="12.00">Hinweis:</text>
<text text-anchor="start" x="91.28" y="-664.6" font-family="Times,serif" font-size="12.00">Cluster: Ablehnung</text>
<text text-anchor="start" x="91.28" y="-652.6" font-family="Times,serif" font-size="12.00">Eingangsfrist bei iMS/kME mit RLM nicht ein-</text>
<text text-anchor="start" x="91.28" y="-640.6" font-family="Times,serif" font-size="12.00">gehalten.</text>
</g>
<!-- 7&#45;&gt;A03 -->
<g id="edge14" class="edge">
<title>7-&gt;A03</title>
<path fill="none" stroke="black" d="M230.4,-828.62C230.4,-801.31 230.4,-754.02 230.4,-718.34"/>
<polygon fill="black" stroke="black" points="233.9,-718.72 230.4,-708.72 226.9,-718.72 233.9,-718.72"/>
<text text-anchor="middle" x="247.28" y="-777.59" font-family="Times,serif" font-size="14.00">Nein</text>
</g>
<!-- 7&#45;&gt;10 -->
<g id="edge15" class="edge">
<title>7-&gt;10</title>
<path fill="none" stroke="black" d="M342.67,-828.56C382.83,-821.33 428.51,-813.89 470.4,-808.89 592.02,-794.37 624.73,-811.88 745.4,-790.89 801.43,-781.14 813.9,-771.87 868.4,-755.64 877.76,-752.85 887.3,-750 896.92,-747.1"/>
<polygon fill="black" stroke="black" points="897.82,-750.48 906.38,-744.24 895.8,-743.78 897.82,-750.48"/>
<text text-anchor="middle" x="820.15" y="-777.59" font-family="Times,serif" font-size="14.00">Ja</text>
</g>
<!-- A04 -->
<g id="node13" class="node">
<title>A04</title>
<polygon fill="#cfb986" stroke="black" points="859.51,-706.76 555.28,-706.76 555.28,-633.24 859.51,-633.24 859.51,-706.76"/>
<text text-anchor="start" x="692.4" y="-688.7" font-family="Times,serif" font-weight="bold" font-size="14.00">A04</text>
<text text-anchor="start" x="567.52" y="-676.6" font-family="Times,serif" text-decoration="underline" font-size="12.00">Hinweis:</text>
<text text-anchor="start" x="567.52" y="-664.6" font-family="Times,serif" font-size="12.00">Cluster: Ablehnung</text>
<text text-anchor="start" x="567.52" y="-652.6" font-family="Times,serif" font-size="12.00">Frist&#252;berschreitung bei kME ohne RLM/mME/</text>
<text text-anchor="start" x="567.52" y="-640.6" font-family="Times,serif" font-size="12.00">Pauschalanlage.</text>
</g>
<!-- 8&#45;&gt;A04 -->
<g id="edge16" class="edge">
<title>8-&gt;A04</title>
<path fill="none" stroke="black" d="M707.4,-828.62C707.4,-801.31 707.4,-754.02 707.4,-718.34"/>
<polygon fill="black" stroke="black" points="710.9,-718.72 707.4,-708.72 703.9,-718.72 710.9,-718.72"/>
<text text-anchor="middle" x="724.27" y="-777.59" font-family="Times,serif" font-size="14.00">Nein</text>
</g>
<!-- 8&#45;&gt;10 -->
<g id="edge17" class="edge">
<title>8-&gt;10</title>
<path fill="none" stroke="black" d="M764.96,-828.63C793.71,-817.52 828.98,-803.7 860.4,-790.89 884.21,-781.18 909.09,-770.86 933.78,-760.51"/>
<polygon fill="black" stroke="black" points="935.08,-763.76 942.95,-756.66 932.37,-757.3 935.08,-763.76"/>
<text text-anchor="middle" x="905.15" y="-777.59" font-family="Times,serif" font-size="14.00">Ja</text>
</g>
<!-- A05 -->
<g id="node15" class="node">
<title>A05</title>
<polygon fill="#cfb986" stroke="black" points="1744.39,-712.76 1424.41,-712.76 1424.41,-627.24 1744.39,-627.24 1744.39,-712.76"/>
<text text-anchor="start" x="1569.4" y="-694.7" font-family="Times,serif" font-weight="bold" font-size="14.00">A05</text>
<text text-anchor="start" x="1436.65" y="-682.6" font-family="Times,serif" text-decoration="underline" font-size="12.00">Hinweis:</text>
<text text-anchor="start" x="1436.65" y="-670.6" font-family="Times,serif" font-size="12.00">Cluster: Ablehnung</text>
<text text-anchor="start" x="1436.65" y="-658.6" font-family="Times,serif" font-size="12.00">Die Aufhebung einer zuk&#252;nftigen Zuordnung</text>
<text text-anchor="start" x="1436.65" y="-646.6" font-family="Times,serif" font-size="12.00">muss zum Datum (Zeitpunkt) angegeben werden,</text>
<text text-anchor="start" x="1436.65" y="-634.6" font-family="Times,serif" font-size="12.00">wie im Lieferbeginn best&#228;tigt.</text>
</g>
<!-- 9&#45;&gt;A05 -->
<g id="edge18" class="edge">
<title>9-&gt;A05</title>
<path fill="none" stroke="black" d="M1584.4,-821.79C1584.4,-795.64 1584.4,-756.44 1584.4,-724.57"/>
<polygon fill="black" stroke="black" points="1587.9,-724.7 1584.4,-714.7 1580.9,-724.7 1587.9,-724.7"/>
<text text-anchor="middle" x="1601.28" y="-777.59" font-family="Times,serif" font-size="14.00">Nein</text>
</g>
<!-- 9&#45;&gt;10 -->
<g id="edge19" class="edge">
<title>9-&gt;10</title>
<path fill="none" stroke="black" d="M1512.89,-821.59C1471.46,-804.75 1416.84,-782.54 1362.3,-760.38"/>
<polygon fill="black" stroke="black" points="1363.74,-757.19 1353.16,-756.66 1361.11,-763.67 1363.74,-757.19"/>
<text text-anchor="middle" x="1435.15" y="-777.59" font-family="Times,serif" font-size="14.00">Ja</text>
</g>
<!-- A06 -->
<g id="node17" class="node">
<title>A06</title>
<polygon fill="#cfb986" stroke="black" points="1136.64,-419.7 944.16,-419.7 944.16,-358.18 1136.64,-358.18 1136.64,-419.7"/>
<text text-anchor="start" x="1025.4" y="-401.64" font-family="Times,serif" font-weight="bold" font-size="14.00">A06</text>
<text text-anchor="start" x="956.4" y="-389.54" font-family="Times,serif" text-decoration="underline" font-size="12.00">Hinweis:</text>
<text text-anchor="start" x="956.4" y="-377.54" font-family="Times,serif" font-size="12.00">Cluster: Zustimmung</text>
<text text-anchor="start" x="956.4" y="-365.54" font-family="Times,serif" font-size="12.00">Best&#228;tigung der Abmeldung</text>
</g>
<!-- 10&#45;&gt;A06 -->
<g id="edge21" class="edge">
<title>10-&gt;A06</title>
<path fill="none" stroke="black" d="M1075.36,-584.04C1065.08,-567.3 1055.84,-549.27 1049.65,-531.11 1038.64,-498.83 1036.85,-460.03 1037.52,-431.28"/>
<polygon fill="black" stroke="black" points="1041.01,-431.65 1037.87,-421.53 1034.01,-431.4 1041.01,-431.65"/>
<text text-anchor="middle" x="1066.28" y="-503.79" font-family="Times,serif" font-size="14.00">Nein</text>
</g>
<!-- 11 -->
<g id="node18" class="node">
<title>11</title>
<path fill="#7aab8a" stroke="black" d="M1584.18,-531.11C1584.18,-531.11 1104.62,-531.11 1104.62,-531.11 1098.62,-531.11 1092.62,-525.11 1092.62,-519.11 1092.62,-519.11 1092.62,-497.83 1092.62,-497.83 1092.62,-491.83 1098.62,-485.83 1104.62,-485.83 1104.62,-485.83 1584.18,-485.83 1584.18,-485.83 1590.18,-485.83 1596.18,-491.83 1596.18,-497.83 1596.18,-497.83 1596.18,-519.11 1596.18,-519.11 1596.18,-525.11 1590.18,-531.11 1584.18,-531.11"/>
<text text-anchor="start" x="1107.03" y="-510.17" font-family="Times,serif" font-weight="bold" font-size="14.00">11: </text>
<text text-anchor="start" x="1136.28" y="-510.17" font-family="Times,serif" font-size="14.00">Ist der anfragende LF am Folgetag des Abmeldungsdatum der</text>
<text text-anchor="start" x="1107.03" y="-496.17" font-family="Times,serif" font-size="14.00">Marktlokation noch zugeordnet?</text>
</g>
<!-- 10&#45;&gt;11 -->
<g id="edge20" class="edge">
<title>10-&gt;11</title>
<path fill="none" stroke="black" d="M1250.2,-583.86C1270.98,-567.45 1291.38,-551.34 1307.85,-538.34"/>
<polygon fill="black" stroke="black" points="1309.71,-541.33 1315.39,-532.38 1305.37,-535.84 1309.71,-541.33"/>
<text text-anchor="middle" x="1296.15" y="-553.06" font-family="Times,serif" font-size="14.00">Ja</text>
</g>
<!-- 11&#45;&gt;A06 -->
<g id="edge23" class="edge">
<title>11-&gt;A06</title>
<path fill="none" stroke="black" d="M1284.93,-485.34C1245.54,-470.6 1192.79,-450.68 1146.4,-432.58 1139.57,-429.92 1132.51,-427.13 1125.41,-424.32"/>
<polygon fill="black" stroke="black" points="1127.02,-421.19 1116.43,-420.75 1124.43,-427.7 1127.02,-421.19"/>
<text text-anchor="middle" x="1239.15" y="-454.53" font-family="Times,serif" font-size="14.00">Ja</text>
</g>
<!-- 12 -->
<g id="node19" class="node">
<title>12</title>
<path fill="#7aab8a" stroke="black" d="M1619.68,-432.58C1619.68,-432.58 1167.12,-432.58 1167.12,-432.58 1161.12,-432.58 1155.12,-426.58 1155.12,-420.58 1155.12,-420.58 1155.12,-357.3 1155.12,-357.3 1155.12,-351.3 1161.12,-345.3 1167.12,-345.3 1167.12,-345.3 1619.68,-345.3 1619.68,-345.3 1625.68,-345.3 1631.68,-351.3 1631.68,-357.3 1631.68,-357.3 1631.68,-420.58 1631.68,-420.58 1631.68,-426.58 1625.68,-432.58 1619.68,-432.58"/>
<text text-anchor="start" x="1169.53" y="-411.64" font-family="Times,serif" font-weight="bold" font-size="14.00">12: </text>
<text text-anchor="start" x="1198.78" y="-411.64" font-family="Times,serif" font-size="14.00">Liegt ein Transaktionsgrund vor, aus welchem hervorgeht,</text>
<text text-anchor="start" x="1169.53" y="-397.64" font-family="Times,serif" font-size="14.00">dass der Anschlussnutzer ausgezogen ist?</text>
<text text-anchor="start" x="1169.53" y="-383.64" font-family="Times,serif" font-size="14.00">Das ist bei den folgenden Transaktionsgr&#252;nden der Fall:</text>
<text text-anchor="start" x="1169.53" y="-369.64" font-family="Times,serif" font-size="14.00">&#61599; Ein-/Auszug (Umzug)</text>
<text text-anchor="start" x="1169.53" y="-355.64" font-family="Times,serif" font-size="14.00">&#61599; Auszug wegen Stilllegung</text>
</g>
<!-- 11&#45;&gt;12 -->
<g id="edge22" class="edge">
<title>11-&gt;12</title>
<path fill="none" stroke="black" d="M1353.62,-485.36C1358.57,-473.48 1364.91,-458.28 1371.06,-443.51"/>
<polygon fill="black" stroke="black" points="1374.29,-444.87 1374.91,-434.29 1367.83,-442.17 1374.29,-444.87"/>
<text text-anchor="middle" x="1384.28" y="-454.53" font-family="Times,serif" font-size="14.00">Nein</text>
</g>
<!-- A07 -->
<g id="node20" class="node">
<title>A07</title>
<polygon fill="#cfb986" stroke="black" points="1312.89,-264.17 1013.91,-264.17 1013.91,-190.65 1312.89,-190.65 1312.89,-264.17"/>
<text text-anchor="start" x="1148.4" y="-246.11" font-family="Times,serif" font-weight="bold" font-size="14.00">A07</text>
<text text-anchor="start" x="1026.15" y="-234.01" font-family="Times,serif" text-decoration="underline" font-size="12.00">Hinweis:</text>
<text text-anchor="start" x="1026.15" y="-222.01" font-family="Times,serif" font-size="12.00">Cluster: Ablehnung</text>
<text text-anchor="start" x="1026.15" y="-210.01" font-family="Times,serif" font-size="12.00">Lieferende zum Abmeldedatum wurde bereits</text>
<text text-anchor="start" x="1026.15" y="-198.01" font-family="Times,serif" font-size="12.00">best&#228;tigt</text>
</g>
<!-- 12&#45;&gt;A07 -->
<g id="edge24" class="edge">
<title>12-&gt;A07</title>
<path fill="none" stroke="black" d="M1331.46,-344.98C1298.26,-321.95 1257.5,-293.68 1224.44,-270.75"/>
<polygon fill="black" stroke="black" points="1226.78,-268.11 1216.57,-265.29 1222.79,-273.87 1226.78,-268.11"/>
<text text-anchor="middle" x="1322.28" y="-314" font-family="Times,serif" font-size="14.00">Nein</text>
</g>
<!-- 13 -->
<g id="node21" class="node">
<title>13</title>
<path fill="#7aab8a" stroke="black" d="M1775.93,-292.05C1775.93,-292.05 1342.88,-292.05 1342.88,-292.05 1336.88,-292.05 1330.88,-286.05 1330.88,-280.05 1330.88,-280.05 1330.88,-174.77 1330.88,-174.77 1330.88,-168.77 1336.88,-162.77 1342.88,-162.77 1342.88,-162.77 1775.93,-162.77 1775.93,-162.77 1781.93,-162.77 1787.93,-168.77 1787.93,-174.77 1787.93,-174.77 1787.93,-280.05 1787.93,-280.05 1787.93,-286.05 1781.93,-292.05 1775.93,-292.05"/>
<text text-anchor="start" x="1345.28" y="-271.11" font-family="Times,serif" font-weight="bold" font-size="14.00">13: </text>
<text text-anchor="start" x="1374.53" y="-271.11" font-family="Times,serif" font-size="14.00">Liegt in der bereits best&#228;tigten Abmeldung ein</text>
<text text-anchor="start" x="1345.28" y="-257.11" font-family="Times,serif" font-size="14.00">Transaktionsgrund vor, aus welchem nicht hervorgeht, dass</text>
<text text-anchor="start" x="1345.28" y="-243.11" font-family="Times,serif" font-size="14.00">der Anschlussnutzer ausgezogen ist?</text>
<text text-anchor="start" x="1345.28" y="-229.11" font-family="Times,serif" font-size="14.00">Das ist bei den folgenden Transaktionsgr&#252;nden der Fall:</text>
<text text-anchor="start" x="1345.28" y="-215.11" font-family="Times,serif" font-size="14.00">&#61599; Ein-/Auszug (Umzug)</text>
<text text-anchor="start" x="1345.28" y="-201.11" font-family="Times,serif" font-size="14.00">&#61599; Auszug wegen Stilllegung</text>
<text text-anchor="start" x="1345.28" y="-187.11" font-family="Times,serif" font-size="14.00">&#61599; Aufhebung einer zuk&#252;nftigen Zuordnung wegen</text>
<text text-anchor="start" x="1345.28" y="-173.11" font-family="Times,serif" font-size="14.00">Stilllegung</text>
</g>
<!-- 12&#45;&gt;13 -->
<g id="edge25" class="edge">
<title>12-&gt;13</title>
<path fill="none" stroke="black" d="M1437.88,-345.19C1452.28,-331.36 1468.66,-315.62 1484.63,-300.27"/>
<polygon fill="black" stroke="black" points="1487.05,-302.79 1491.84,-293.34 1482.2,-297.75 1487.05,-302.79"/>
<text text-anchor="middle" x="1478.15" y="-314" font-family="Times,serif" font-size="14.00">Ja</text>
</g>
<!-- A08 -->
<g id="node22" class="node">
<title>A08</title>
<polygon fill="#cfb986" stroke="black" points="1426.77,-91.52 1148.04,-91.52 1148.04,-18 1426.77,-18 1426.77,-91.52"/>
<text text-anchor="start" x="1272.4" y="-73.46" font-family="Times,serif" font-weight="bold" font-size="14.00">A08</text>
<text text-anchor="start" x="1160.28" y="-61.36" font-family="Times,serif" text-decoration="underline" font-size="12.00">Hinweis:</text>
<text text-anchor="start" x="1160.28" y="-49.36" font-family="Times,serif" font-size="12.00">Cluster: Ablehnung</text>
<text text-anchor="start" x="1160.28" y="-37.36" font-family="Times,serif" font-size="12.00">Lieferende zum Abmeldedatum wurde aus</text>
<text text-anchor="start" x="1160.28" y="-25.36" font-family="Times,serif" font-size="12.00">gleichem Grund bereits best&#228;tigt.</text>
</g>
<!-- 13&#45;&gt;A08 -->
<g id="edge26" class="edge">
<title>13-&gt;A08</title>
<path fill="none" stroke="black" d="M1457.34,-162.38C1422.92,-140.78 1385.39,-117.24 1354.38,-97.78"/>
<polygon fill="black" stroke="black" points="1356.59,-95.04 1346.26,-92.69 1352.87,-100.97 1356.59,-95.04"/>
<text text-anchor="middle" x="1440.28" y="-131.47" font-family="Times,serif" font-size="14.00">Nein</text>
</g>
<!-- A09 -->
<g id="node23" class="node">
<title>A09</title>
<polygon fill="#cfb986" stroke="black" points="1772.14,-109.52 1444.66,-109.52 1444.66,0 1772.14,0 1772.14,-109.52"/>
<text text-anchor="start" x="1593.4" y="-91.46" font-family="Times,serif" font-weight="bold" font-size="14.00">A09</text>
<text text-anchor="start" x="1456.9" y="-79.36" font-family="Times,serif" text-decoration="underline" font-size="12.00">Hinweis:</text>
<text text-anchor="start" x="1456.9" y="-67.36" font-family="Times,serif" font-size="12.00">Cluster: Zustimmung</text>
<text text-anchor="start" x="1456.9" y="-55.36" font-family="Times,serif" font-size="12.00">Erneute Best&#228;tigung der Abmeldung aufgrund der</text>
<text text-anchor="start" x="1456.9" y="-43.36" font-family="Times,serif" font-size="12.00">Information, dass der Anschlussnutzer nicht mehr</text>
<text text-anchor="start" x="1456.9" y="-31.36" font-family="Times,serif" font-size="12.00">an der Marktlokation vorhanden ist.</text>
<text text-anchor="start" x="1456.9" y="-19.36" font-family="Times,serif" font-size="12.00">Hinweis: Das bisher best&#228;tigte Bilanzierungsende</text>
<text text-anchor="start" x="1456.9" y="-7.36" font-family="Times,serif" font-size="12.00">bleibt unver&#228;ndert bestehen.</text>
</g>
<!-- 13&#45;&gt;A09 -->
<g id="edge27" class="edge">
<title>13-&gt;A09</title>
<path fill="none" stroke="black" d="M1577.79,-162.38C1581.71,-148.72 1585.85,-134.29 1589.78,-120.6"/>
<polygon fill="black" stroke="black" points="1593.06,-121.85 1592.46,-111.27 1586.34,-119.92 1593.06,-121.85"/>
<text text-anchor="middle" x="1593.15" y="-131.47" font-family="Times,serif" font-size="14.00">Ja</text>
</g>
</g>
</svg>
  </g>
</svg>
  </g>
</svg>
