<?xml version='1.0' encoding='ASCII' standalone='yes'?>
<svg xmlns="http://www.w3.org/2000/svg" xmlns:xlink="http://www.w3.org/1999/xlink" version="1.1" width="1920.0px" viewBox="0 0 1920.0 894.6666666666666" height="894.6666666666666px">
  <g>
    <svg version="1.1" width="1920.0px" viewBox="0 0 1920.0 894.6666666666666" height="894.6666666666666px">
  <polygon fill="#f3f1f6" points="0,0 1920.0,0 1920.0,894.6666666666666 0,894.6666666666666"/><g>
    <g transform="translate(602.3987864917153, 89.46666666666664) scale(1 1) translate(0, 0) scale(4.046233646550863 4.046233646550863) "><sodipodi:namedview xmlns:sodipodi="http://sodipodi.sourceforge.net/DTD/sodipodi-0.dtd" xmlns:inkscape="http://www.inkscape.org/namespaces/inkscape" id="namedview7" pagecolor="#ffffff" bordercolor="#999999" borderopacity="1" inkscape:pageshadow="0" inkscape:pageopacity="0" inkscape:pagecheckerboard="0" inkscape:document-units="mm" showgrid="false" fit-margin-top="0" fit-margin-left="0" fit-margin-right="0" fit-margin-bottom="0" inkscape:zoom="0.64052329" inkscape:cx="130.36216" inkscape:cy="412.163" inkscape:window-width="1512" inkscape:window-height="916" inkscape:window-x="3840" inkscape:window-y="136" inkscape:window-maximized="0" inkscape:current-layer="layer1"/>
  <defs id="defs2">
    <clipPath clipPathUnits="userSpaceOnUse" id="clipPath23">
      <path d="M 0,568.156 H 579.236 V 0 H 0 Z" id="path21"/>
    </clipPath>
  </defs>
  <g xmlns:inkscape="http://www.inkscape.org/namespaces/inkscape" inkscape:label="Layer 1" inkscape:groupmode="layer" id="layer1" transform="translate(-16.541937,-55.305267)">
    <g id="g19" clip-path="url(#clipPath23)" transform="matrix(0.35277777,0,0,-0.35277777,0.01017023,243.73675)" style="opacity:0.2">
      <g id="g25" transform="translate(122.444,32.7195)">
        <path d="m 0,0 h -56.104 c -11,0 -19.898,9.123 -19.463,20.115 10.594,267.191 231.277,481.302 501.029,481.302 v -56.02 c 0,-10.98 -8.688,-19.892 -19.658,-20.393 C 180.29,414.697 0,228.005 0,0" style="fill:#6ead83;fill-opacity:0.5;fill-rule:nonzero;stroke:none" id="path27"/>
      </g>
      <g id="g29" transform="translate(273.7828,32.7195)">
        <path d="m 0,0 h -55.926 c -11.228,0 -20.091,9.482 -19.435,20.69 10.744,183.439 163.389,329.388 349.485,329.388 v -56.263 c 0,-10.709 -8.273,-19.617 -18.957,-20.35 C 112.819,263.696 0,144.774 0,0" style="fill:#6ead83;fill-opacity:0.5;fill-rule:nonzero;stroke:none" id="path31"/>
      </g>
      <g id="g33" transform="translate(425.7667,32.7195)">
        <path d="m 0,0 h -55.445 c -11.653,0 -20.604,10.17 -19.334,21.753 10.866,99.032 95.031,176.341 196.919,176.341 v -57.011 c 0,-10.046 -7.283,-18.755 -17.229,-20.165 C 45.688,112.522 0,61.497 0,0" style="fill:#6ead83;fill-opacity:0.5;fill-rule:nonzero;stroke:none" id="path35"/>
      </g>
    </g>
  </g>
</g>
    <svg width="1440pt" height="671pt" viewBox="0.00 0.00 1440.00 671.01">
<g id="graph0" class="graph" transform="scale(0.549555 0.549555) rotate(0) translate(4 1217)">
<title>D</title>
<text text-anchor="start" x="1162.53" y="-1192.9" font-family="Times,serif" font-weight="bold" font-size="18.00">6.2 AD: Lieferende LF an NB</text>
<text text-anchor="start" x="1159.53" y="-1162.8" font-family="Times,serif" font-weight="bold" font-size="16.00">6.2.1 E_0401_Abmeldung pr&#252;fen</text>
<!-- Start -->
<g id="node1" class="node">
<title>Start</title>
<polygon fill="#7a8da1" stroke="black" points="1583.43,-1115 1423.38,-1115 1423.38,-1071.72 1583.43,-1071.72 1583.43,-1115"/>
<text text-anchor="start" x="1475.28" y="-1094.06" font-family="Times,serif" font-weight="bold" font-size="14.00">E_0401</text>
<text text-anchor="start" x="1437.78" y="-1081.96" font-family="Times,serif" font-weight="bold" text-decoration="underline" font-size="12.00">Pr&#252;fende Rolle:</text>
<text text-anchor="start" x="1542.78" y="-1081.96" font-family="Times,serif" font-weight="bold" font-size="12.00"> NB</text>
</g>
<!-- 1 -->
<g id="node2" class="node">
<title>1</title>
<path fill="#7aab8a" stroke="black" d="M2042.05,-1034.72C2042.05,-1034.72 964.75,-1034.72 964.75,-1034.72 958.75,-1034.72 952.75,-1028.72 952.75,-1022.72 952.75,-1022.72 952.75,-987.44 952.75,-987.44 952.75,-981.44 958.75,-975.44 964.75,-975.44 964.75,-975.44 2042.05,-975.44 2042.05,-975.44 2048.05,-975.44 2054.05,-981.44 2054.05,-987.44 2054.05,-987.44 2054.05,-1022.72 2054.05,-1022.72 2054.05,-1028.72 2048.05,-1034.72 2042.05,-1034.72"/>
<text text-anchor="start" x="967.15" y="-1013.78" font-family="Times,serif" font-weight="bold" font-size="14.00">1: </text>
<text text-anchor="start" x="986.65" y="-1013.78" font-family="Times,serif" font-size="14.00">Liegt ein Transaktionsgrund vor, der eine Abmeldung nur indie Zukunft zul&#228;sst?Das ist bei den folgenden Transaktionsgr&#252;nden der Fall:&#61599; Wechsel</text>
<text text-anchor="start" x="967.15" y="-999.78" font-family="Times,serif" font-size="14.00">&#61599; Ende der ESV ohne Folgelieferung&#61599; Aufhebung einer zuk&#252;nftigen Zuordnung wegen</text>
<text text-anchor="start" x="967.15" y="-985.78" font-family="Times,serif" font-size="14.00">aufgehobenem Vertragsverh&#228;ltnis</text>
</g>
<!-- Start&#45;&gt;1 -->
<g id="edge1" class="edge">
<title>Start-&gt;1</title>
<path fill="none" stroke="black" d="M1503.4,-1071.47C1503.4,-1063.85 1503.4,-1054.94 1503.4,-1046.2"/>
<polygon fill="black" stroke="black" points="1506.9,-1046.44 1503.4,-1036.44 1499.9,-1046.44 1506.9,-1046.44"/>
</g>
<!-- 2 -->
<g id="node3" class="node">
<title>2</title>
<path fill="#7aab8a" stroke="black" d="M1598.68,-922.19C1598.68,-922.19 732.13,-922.19 732.13,-922.19 726.13,-922.19 720.13,-916.19 720.13,-910.19 720.13,-910.19 720.13,-860.91 720.13,-860.91 720.13,-854.91 726.13,-848.91 732.13,-848.91 732.13,-848.91 1598.68,-848.91 1598.68,-848.91 1604.68,-848.91 1610.68,-854.91 1610.68,-860.91 1610.68,-860.91 1610.68,-910.19 1610.68,-910.19 1610.68,-916.19 1604.68,-922.19 1598.68,-922.19"/>
<text text-anchor="start" x="734.53" y="-901.25" font-family="Times,serif" font-weight="bold" font-size="14.00">2: </text>
<text text-anchor="start" x="754.03" y="-901.25" font-family="Times,serif" font-size="14.00">Liegt ein Transaktionsgrund vor, welcher mitteilt, dass derKunde vor Lieferbeginn ausgezogen ist, bzw. die</text>
<text text-anchor="start" x="734.53" y="-887.25" font-family="Times,serif" font-size="14.00">Marktlokation vor Lieferbeginn stillgelegt wurde?Das ist bei den folgenden Transaktionsgr&#252;nden der Fall:</text>
<text text-anchor="start" x="734.53" y="-873.25" font-family="Times,serif" font-size="14.00">&#61599; Aufhebung einer zuk&#252;nftigen Zuordnung wegen Auszugdes Kunden&#61599; Aufhebung einer zuk&#252;nftigen Zuordnung wegen</text>
<text text-anchor="start" x="734.53" y="-859.25" font-family="Times,serif" font-size="14.00">Stilllegung</text>
</g>
<!-- 1&#45;&gt;2 -->
<g id="edge3" class="edge">
<title>1-&gt;2</title>
<path fill="none" stroke="black" d="M1419.85,-975.03C1377.59,-960.33 1325.66,-942.28 1279.76,-926.31"/>
<polygon fill="black" stroke="black" points="1281.17,-923.1 1270.58,-923.12 1278.87,-929.71 1281.17,-923.1"/>
<text text-anchor="middle" x="1381.28" y="-944.14" font-family="Times,serif" font-size="14.00">Nein</text>
</g>
<!-- 4 -->
<g id="node6" class="node">
<title>4</title>
<path fill="#7aab8a" stroke="black" d="M2042.68,-908.19C2042.68,-908.19 1644.12,-908.19 1644.12,-908.19 1638.12,-908.19 1632.12,-902.19 1632.12,-896.19 1632.12,-896.19 1632.12,-874.91 1632.12,-874.91 1632.12,-868.91 1638.12,-862.91 1644.12,-862.91 1644.12,-862.91 2042.68,-862.91 2042.68,-862.91 2048.68,-862.91 2054.68,-868.91 2054.68,-874.91 2054.68,-874.91 2054.68,-896.19 2054.68,-896.19 2054.68,-902.19 2048.68,-908.19 2042.68,-908.19"/>
<text text-anchor="start" x="1646.53" y="-887.25" font-family="Times,serif" font-weight="bold" font-size="14.00">4: </text>
<text text-anchor="start" x="1666.03" y="-887.25" font-family="Times,serif" font-size="14.00">Liegt das Eingangsdatum mindestens 6 WT vor dem</text>
<text text-anchor="start" x="1646.53" y="-873.25" font-family="Times,serif" font-size="14.00">Abmeldedatum?</text>
</g>
<!-- 1&#45;&gt;4 -->
<g id="edge2" class="edge">
<title>1-&gt;4</title>
<path fill="none" stroke="black" d="M1587.44,-975.03C1643,-955.82 1715.19,-930.87 1768.73,-912.36"/>
<polygon fill="black" stroke="black" points="1769.78,-915.7 1778.09,-909.13 1767.49,-909.09 1769.78,-915.7"/>
<text text-anchor="middle" x="1690.15" y="-944.14" font-family="Times,serif" font-size="14.00">Ja</text>
</g>
<!-- 3 -->
<g id="node4" class="node">
<title>3</title>
<path fill="#7aab8a" stroke="black" d="M1383.8,-781.54C1383.8,-781.54 947,-781.54 947,-781.54 941,-781.54 935,-775.54 935,-769.54 935,-769.54 935,-748.26 935,-748.26 935,-742.26 941,-736.26 947,-736.26 947,-736.26 1383.8,-736.26 1383.8,-736.26 1389.8,-736.26 1395.8,-742.26 1395.8,-748.26 1395.8,-748.26 1395.8,-769.54 1395.8,-769.54 1395.8,-775.54 1389.8,-781.54 1383.8,-781.54"/>
<text text-anchor="start" x="949.4" y="-760.6" font-family="Times,serif" font-weight="bold" font-size="14.00">3: </text>
<text text-anchor="start" x="968.9" y="-760.6" font-family="Times,serif" font-size="14.00">Liegt das Abmeldedatum mindestens einen Tag nach dem</text>
<text text-anchor="start" x="949.4" y="-746.6" font-family="Times,serif" font-size="14.00">Eingangsdatum der Abmeldung?</text>
</g>
<!-- 2&#45;&gt;3 -->
<g id="edge4" class="edge">
<title>2-&gt;3</title>
<path fill="none" stroke="black" d="M1165.4,-848.5C1165.4,-830.97 1165.4,-810.05 1165.4,-792.94"/>
<polygon fill="black" stroke="black" points="1168.9,-793.31 1165.4,-783.31 1161.9,-793.31 1168.9,-793.31"/>
<text text-anchor="middle" x="1172.15" y="-817.61" font-family="Times,serif" font-size="14.00">Ja</text>
</g>
<!-- 6 -->
<g id="node9" class="node">
<title>6</title>
<path fill="#7aab8a" stroke="black" d="M905.42,-781.54C905.42,-781.54 91.38,-781.54 91.38,-781.54 85.38,-781.54 79.37,-775.54 79.37,-769.54 79.37,-769.54 79.37,-748.26 79.37,-748.26 79.37,-742.26 85.37,-736.26 91.37,-736.26 91.37,-736.26 905.42,-736.26 905.42,-736.26 911.42,-736.26 917.42,-742.26 917.42,-748.26 917.42,-748.26 917.42,-769.54 917.42,-769.54 917.42,-775.54 911.42,-781.54 905.42,-781.54"/>
<text text-anchor="start" x="93.77" y="-760.6" font-family="Times,serif" font-weight="bold" font-size="14.00">6: </text>
<text text-anchor="start" x="113.27" y="-760.6" font-family="Times,serif" font-size="14.00">Handelt es sich um eine Marktlokation, deren Mess-lokationen vollst&#228;ndig mit iMS ausgestattet sind oder/und</text>
<text text-anchor="start" x="93.77" y="-746.6" font-family="Times,serif" font-size="14.00">deren Prognosegrundlage auf Basis von Werten erfolgt?</text>
</g>
<!-- 2&#45;&gt;6 -->
<g id="edge5" class="edge">
<title>2-&gt;6</title>
<path fill="none" stroke="black" d="M972.03,-848.41C861.27,-827.71 725.32,-802.31 627.52,-784.03"/>
<polygon fill="black" stroke="black" points="628.35,-780.62 617.88,-782.23 627.06,-787.51 628.35,-780.62"/>
<text text-anchor="middle" x="888.27" y="-817.61" font-family="Times,serif" font-size="14.00">Nein</text>
</g>
<!-- A01 -->
<g id="node5" class="node">
<title>A01</title>
<polygon fill="#cfb986" stroke="black" points="1640.77,-668.89 954.04,-668.89 954.04,-607.37 1640.77,-607.37 1640.77,-668.89"/>
<text text-anchor="start" x="1282.4" y="-650.83" font-family="Times,serif" font-weight="bold" font-size="14.00">A01</text>
<text text-anchor="start" x="966.28" y="-638.73" font-family="Times,serif" text-decoration="underline" font-size="12.00">Hinweis:</text>
<text text-anchor="start" x="966.28" y="-626.73" font-family="Times,serif" font-size="12.00">Cluster: AblehnungFrist&#252;berschreitung bei Aufhebung einer zu-k&#252;nftigen Zuordnung wegen Auszug oder Still-</text>
<text text-anchor="start" x="966.28" y="-614.73" font-family="Times,serif" font-size="12.00">legung.</text>
</g>
<!-- 3&#45;&gt;A01 -->
<g id="edge6" class="edge">
<title>3-&gt;A01</title>
<path fill="none" stroke="black" d="M1189.92,-735.84C1208.35,-719.26 1234.04,-696.14 1255.68,-676.67"/>
<polygon fill="black" stroke="black" points="1257.84,-679.44 1262.93,-670.15 1253.15,-674.23 1257.84,-679.44"/>
<text text-anchor="middle" x="1259.28" y="-690.84" font-family="Times,serif" font-size="14.00">Nein</text>
</g>
<!-- 9 -->
<g id="node14" class="node">
<title>9</title>
<path fill="#7aab8a" stroke="black" d="M2600.3,-660.77C2600.3,-660.77 1740.5,-660.77 1740.5,-660.77 1734.5,-660.77 1728.5,-654.77 1728.5,-648.77 1728.5,-648.77 1728.5,-627.49 1728.5,-627.49 1728.5,-621.49 1734.5,-615.49 1740.5,-615.49 1740.5,-615.49 2600.3,-615.49 2600.3,-615.49 2606.3,-615.49 2612.3,-621.49 2612.3,-627.49 2612.3,-627.49 2612.3,-648.77 2612.3,-648.77 2612.3,-654.77 2606.3,-660.77 2600.3,-660.77"/>
<text text-anchor="start" x="1742.9" y="-639.83" font-family="Times,serif" font-weight="bold" font-size="14.00">9: </text>
<text text-anchor="start" x="1762.4" y="-639.83" font-family="Times,serif" font-size="14.00">Erfolgt die Aufhebung einer zuk&#252;nftigen Zuordnung zu demgleichen Datum (Zeitpunkt), welcher dem Lieferanten im</text>
<text text-anchor="start" x="1742.9" y="-625.83" font-family="Times,serif" font-size="14.00">Lieferbeginn best&#228;tigt wurde?</text>
</g>
<!-- 3&#45;&gt;9 -->
<g id="edge7" class="edge">
<title>3-&gt;9</title>
<path fill="none" stroke="black" d="M1306.81,-735.77C1338.86,-731.03 1372.78,-726.22 1404.4,-722.14 1581.07,-699.36 1781.21,-677.82 1932.6,-662.39"/>
<polygon fill="black" stroke="black" points="1932.77,-665.89 1942.37,-661.4 1932.06,-658.93 1932.77,-665.89"/>
<text text-anchor="middle" x="1705.15" y="-690.84" font-family="Times,serif" font-size="14.00">Ja</text>
</g>
<!-- A02 -->
<g id="node7" class="node">
<title>A02</title>
<polygon fill="#cfb986" stroke="black" points="2612.14,-795.66 2290.66,-795.66 2290.66,-722.14 2612.14,-722.14 2612.14,-795.66"/>
<text text-anchor="start" x="2436.4" y="-777.6" font-family="Times,serif" font-weight="bold" font-size="14.00">A02</text>
<text text-anchor="start" x="2302.9" y="-765.5" font-family="Times,serif" text-decoration="underline" font-size="12.00">Hinweis:</text>
<text text-anchor="start" x="2302.9" y="-753.5" font-family="Times,serif" font-size="12.00">Cluster: Ablehnung</text>
<text text-anchor="start" x="2302.9" y="-741.5" font-family="Times,serif" font-size="12.00">Frist&#252;berschreitung bei Transaktionsgr&#252;nden f&#252;r</text>
<text text-anchor="start" x="2302.9" y="-729.5" font-family="Times,serif" font-size="12.00">eine Abmeldung in der Zukunft.</text>
</g>
<!-- 4&#45;&gt;A02 -->
<g id="edge8" class="edge">
<title>4-&gt;A02</title>
<path fill="none" stroke="black" d="M1953.96,-862.44C2039.99,-845.17 2162.7,-820.4 2279.15,-796.33"/>
<polygon fill="black" stroke="black" points="2279.83,-799.76 2288.91,-794.31 2278.41,-792.91 2279.83,-799.76"/>
<text text-anchor="middle" x="2202.28" y="-817.61" font-family="Times,serif" font-size="14.00">Nein</text>
</g>
<!-- 5 -->
<g id="node8" class="node">
<title>5</title>
<path fill="#7aab8a" stroke="black" d="M2260.93,-781.54C2260.93,-781.54 1425.88,-781.54 1425.88,-781.54 1419.88,-781.54 1413.88,-775.54 1413.88,-769.54 1413.88,-769.54 1413.88,-748.26 1413.88,-748.26 1413.88,-742.26 1419.88,-736.26 1425.88,-736.26 1425.88,-736.26 2260.93,-736.26 2260.93,-736.26 2266.93,-736.26 2272.93,-742.26 2272.93,-748.26 2272.93,-748.26 2272.93,-769.54 2272.93,-769.54 2272.93,-775.54 2266.93,-781.54 2260.93,-781.54"/>
<text text-anchor="start" x="1428.28" y="-760.6" font-family="Times,serif" font-weight="bold" font-size="14.00">5: </text>
<text text-anchor="start" x="1447.78" y="-760.6" font-family="Times,serif" font-size="14.00">Liegt der Transaktionsgrund&#8226; Aufhebung einer zuk&#252;nftigen Zuordnung wegen auf-gehobenem Vertragsverh&#228;ltnis</text>
<text text-anchor="start" x="1428.28" y="-746.6" font-family="Times,serif" font-size="14.00">vor?</text>
</g>
<!-- 4&#45;&gt;5 -->
<g id="edge9" class="edge">
<title>4-&gt;5</title>
<path fill="none" stroke="black" d="M1843.4,-862.55C1843.4,-843.33 1843.4,-815.13 1843.4,-793.15"/>
<polygon fill="black" stroke="black" points="1846.9,-793.19 1843.4,-783.19 1839.9,-793.19 1846.9,-793.19"/>
<text text-anchor="middle" x="1850.15" y="-817.61" font-family="Times,serif" font-size="14.00">Ja</text>
</g>
<!-- 5&#45;&gt;9 -->
<g id="edge10" class="edge">
<title>5-&gt;9</title>
<path fill="none" stroke="black" d="M1904.14,-735.84C1959.35,-715.79 2040.84,-686.19 2099.11,-665.02"/>
<polygon fill="black" stroke="black" points="2100.08,-668.39 2108.29,-661.69 2097.69,-661.81 2100.08,-668.39"/>
<text text-anchor="middle" x="2042.15" y="-690.84" font-family="Times,serif" font-size="14.00">Ja</text>
</g>
<!-- 10 -->
<g id="node16" class="node">
<title>10</title>
<path fill="#7aab8a" stroke="black" d="M1833.05,-554.12C1833.05,-554.12 821.75,-554.12 821.75,-554.12 815.75,-554.12 809.75,-548.12 809.75,-542.12 809.75,-542.12 809.75,-478.84 809.75,-478.84 809.75,-472.84 815.75,-466.84 821.75,-466.84 821.75,-466.84 1833.05,-466.84 1833.05,-466.84 1839.05,-466.84 1845.05,-472.84 1845.05,-478.84 1845.05,-478.84 1845.05,-542.12 1845.05,-542.12 1845.05,-548.12 1839.05,-554.12 1833.05,-554.12"/>
<text text-anchor="start" x="824.15" y="-533.18" font-family="Times,serif" font-weight="bold" font-size="14.00">10: </text>
<text text-anchor="start" x="853.4" y="-533.18" font-family="Times,serif" font-size="14.00">Wurde die Zuordnung des anfragenden Lieferanten zurMarktlokation zum identischen Abmeldedatum bereits durch</text>
<text text-anchor="start" x="824.15" y="-519.18" font-family="Times,serif" font-size="14.00">eine Best&#228;tigung in den folgenden Prozessschritten beendet?Fall:&#61599; SD: Lieferende von LF an NB, Prozessschritt 2 "Antwortauf Abmeldung"</text>
<text text-anchor="start" x="824.15" y="-505.18" font-family="Times,serif" font-size="14.00">&#61599; SD: Lieferende von NB an LF, Prozessschritt 2 "Antwortauf Abmeldung"&#61599; SD: Lieferbeginn, Prozessschritt 4 "Beantwortung der</text>
<text text-anchor="start" x="824.15" y="-491.18" font-family="Times,serif" font-size="14.00">Abmeldeanfrage" oder die Best&#228;tigung erfolgt durch</text>
<text text-anchor="start" x="824.15" y="-477.18" font-family="Times,serif" font-size="14.00">die Fristverstreichung</text>
</g>
<!-- 5&#45;&gt;10 -->
<g id="edge11" class="edge">
<title>5-&gt;10</title>
<path fill="none" stroke="black" d="M1742.4,-735.85C1723.49,-728.2 1705.07,-717.92 1690.4,-704.14 1656.35,-672.17 1684.22,-638.51 1649.4,-607.37 1627.04,-587.37 1600.67,-571.53 1572.79,-559"/>
<polygon fill="black" stroke="black" points="1574.42,-555.89 1563.85,-555.13 1571.64,-562.31 1574.42,-555.89"/>
<text text-anchor="middle" x="1688.28" y="-633.46" font-family="Times,serif" font-size="14.00">Nein</text>
</g>
<!-- 7 -->
<g id="node10" class="node">
<title>7</title>
<path fill="#7aab8a" stroke="black" d="M448.8,-660.77C448.8,-660.77 12,-660.77 12,-660.77 6,-660.77 0,-654.77 0,-648.77 0,-648.77 0,-627.49 0,-627.49 0,-621.49 6,-615.49 12,-615.49 12,-615.49 448.8,-615.49 448.8,-615.49 454.8,-615.49 460.8,-621.49 460.8,-627.49 460.8,-627.49 460.8,-648.77 460.8,-648.77 460.8,-654.77 454.8,-660.77 448.8,-660.77"/>
<text text-anchor="start" x="14.4" y="-639.83" font-family="Times,serif" font-weight="bold" font-size="14.00">7: </text>
<text text-anchor="start" x="33.9" y="-639.83" font-family="Times,serif" font-size="14.00">Liegt das Abmeldedatum mindestens einen Tag nach dem</text>
<text text-anchor="start" x="14.4" y="-625.83" font-family="Times,serif" font-size="14.00">Eingangsdatum der Abmeldung?</text>
</g>
<!-- 6&#45;&gt;7 -->
<g id="edge12" class="edge">
<title>6-&gt;7</title>
<path fill="none" stroke="black" d="M448.62,-735.84C403.87,-716.01 338.04,-686.83 290.39,-665.72"/>
<polygon fill="black" stroke="black" points="291.86,-662.54 281.3,-661.69 289.02,-668.94 291.86,-662.54"/>
<text text-anchor="middle" x="379.15" y="-690.84" font-family="Times,serif" font-size="14.00">Ja</text>
</g>
<!-- 8 -->
<g id="node12" class="node">
<title>8</title>
<path fill="#7aab8a" stroke="black" d="M923.55,-660.77C923.55,-660.77 491.25,-660.77 491.25,-660.77 485.25,-660.77 479.25,-654.77 479.25,-648.77 479.25,-648.77 479.25,-627.49 479.25,-627.49 479.25,-621.49 485.25,-615.49 491.25,-615.49 491.25,-615.49 923.55,-615.49 923.55,-615.49 929.55,-615.49 935.55,-621.49 935.55,-627.49 935.55,-627.49 935.55,-648.77 935.55,-648.77 935.55,-654.77 929.55,-660.77 923.55,-660.77"/>
<text text-anchor="start" x="493.65" y="-639.83" font-family="Times,serif" font-weight="bold" font-size="14.00">8: </text>
<text text-anchor="start" x="513.15" y="-639.83" font-family="Times,serif" font-size="14.00">Liegt das Eingangsdatum der Abmeldung mehr als sechs</text>
<text text-anchor="start" x="493.65" y="-625.83" font-family="Times,serif" font-size="14.00">Wochen nach dem Abmeldedatum der Abmeldung?</text>
</g>
<!-- 6&#45;&gt;8 -->
<g id="edge13" class="edge">
<title>6-&gt;8</title>
<path fill="none" stroke="black" d="M537.22,-735.84C571.68,-716.26 622.17,-687.57 659.2,-666.52"/>
<polygon fill="black" stroke="black" points="660.51,-669.8 667.47,-661.82 657.05,-663.72 660.51,-669.8"/>
<text text-anchor="middle" x="638.27" y="-690.84" font-family="Times,serif" font-size="14.00">Nein</text>
</g>
<!-- A03 -->
<g id="node11" class="node">
<title>A03</title>
<polygon fill="#cfb986" stroke="black" points="381.76,-547.24 79.03,-547.24 79.03,-473.72 381.76,-473.72 381.76,-547.24"/>
<text text-anchor="start" x="215.4" y="-529.18" font-family="Times,serif" font-weight="bold" font-size="14.00">A03</text>
<text text-anchor="start" x="91.28" y="-517.08" font-family="Times,serif" text-decoration="underline" font-size="12.00">Hinweis:</text>
<text text-anchor="start" x="91.28" y="-505.08" font-family="Times,serif" font-size="12.00">Cluster: Ablehnung</text>
<text text-anchor="start" x="91.28" y="-493.08" font-family="Times,serif" font-size="12.00">Eingangsfrist bei iMS/kME mit RLM nicht ein-</text>
<text text-anchor="start" x="91.28" y="-481.08" font-family="Times,serif" font-size="12.00">gehalten.</text>
</g>
<!-- 7&#45;&gt;A03 -->
<g id="edge14" class="edge">
<title>7-&gt;A03</title>
<path fill="none" stroke="black" d="M230.4,-615.24C230.4,-599.68 230.4,-578.19 230.4,-558.79"/>
<polygon fill="black" stroke="black" points="233.9,-558.88 230.4,-548.88 226.9,-558.88 233.9,-558.88"/>
<text text-anchor="middle" x="247.28" y="-576.07" font-family="Times,serif" font-size="14.00">Nein</text>
</g>
<!-- 7&#45;&gt;10 -->
<g id="edge15" class="edge">
<title>7-&gt;10</title>
<path fill="none" stroke="black" d="M400.07,-614.99C423.67,-612.23 447.63,-609.6 470.4,-607.37 580.83,-596.54 609,-600.42 719.4,-589.37 812.5,-580.05 913.38,-567.94 1005.7,-556.06"/>
<polygon fill="black" stroke="black" points="1005.94,-559.56 1015.41,-554.81 1005.04,-552.62 1005.94,-559.56"/>
<text text-anchor="middle" x="876.15" y="-576.07" font-family="Times,serif" font-size="14.00">Ja</text>
</g>
<!-- A04 -->
<g id="node13" class="node">
<title>A04</title>
<polygon fill="#cfb986" stroke="black" points="791.51,-547.24 487.28,-547.24 487.28,-473.72 791.51,-473.72 791.51,-547.24"/>
<text text-anchor="start" x="624.4" y="-529.18" font-family="Times,serif" font-weight="bold" font-size="14.00">A04</text>
<text text-anchor="start" x="499.52" y="-517.08" font-family="Times,serif" text-decoration="underline" font-size="12.00">Hinweis:</text>
<text text-anchor="start" x="499.52" y="-505.08" font-family="Times,serif" font-size="12.00">Cluster: Ablehnung</text>
<text text-anchor="start" x="499.52" y="-493.08" font-family="Times,serif" font-size="12.00">Frist&#252;berschreitung bei kME ohne RLM/mME/</text>
<text text-anchor="start" x="499.52" y="-481.08" font-family="Times,serif" font-size="12.00">Pauschalanlage.</text>
</g>
<!-- 8&#45;&gt;A04 -->
<g id="edge16" class="edge">
<title>8-&gt;A04</title>
<path fill="none" stroke="black" d="M695.56,-615.24C686.94,-599.32 674.95,-577.17 664.27,-557.43"/>
<polygon fill="black" stroke="black" points="667.38,-555.83 659.54,-548.7 661.23,-559.16 667.38,-555.83"/>
<text text-anchor="middle" x="698.27" y="-576.07" font-family="Times,serif" font-size="14.00">Nein</text>
</g>
<!-- 8&#45;&gt;10 -->
<g id="edge17" class="edge">
<title>8-&gt;10</title>
<path fill="none" stroke="black" d="M816.46,-615.03C895.75,-598.96 1005.87,-576.64 1103.57,-556.84"/>
<polygon fill="black" stroke="black" points="1104.22,-560.28 1113.33,-554.86 1102.83,-553.42 1104.22,-560.28"/>
<text text-anchor="middle" x="1024.15" y="-576.07" font-family="Times,serif" font-size="14.00">Ja</text>
</g>
<!-- A05 -->
<g id="node15" class="node">
<title>A05</title>
<polygon fill="#cfb986" stroke="black" points="2567.39,-541.24 1863.41,-541.24 1863.41,-479.72 2567.39,-479.72 2567.39,-541.24"/>
<text text-anchor="start" x="2200.4" y="-523.18" font-family="Times,serif" font-weight="bold" font-size="14.00">A05</text>
<text text-anchor="start" x="1875.65" y="-511.08" font-family="Times,serif" text-decoration="underline" font-size="12.00">Hinweis:</text>
<text text-anchor="start" x="1875.65" y="-499.08" font-family="Times,serif" font-size="12.00">Cluster: AblehnungDie Aufhebung einer zuk&#252;nftigen Zuordnungmuss zum Datum (Zeitpunkt) angegeben werden,</text>
<text text-anchor="start" x="1875.65" y="-487.08" font-family="Times,serif" font-size="12.00">wie im Lieferbeginn best&#228;tigt.</text>
</g>
<!-- 9&#45;&gt;A05 -->
<g id="edge18" class="edge">
<title>9-&gt;A05</title>
<path fill="none" stroke="black" d="M2178.24,-615.24C2184.46,-597.88 2193.32,-573.13 2200.83,-552.15"/>
<polygon fill="black" stroke="black" points="2204.03,-553.61 2204.11,-543.01 2197.44,-551.25 2204.03,-553.61"/>
<text text-anchor="middle" x="2209.28" y="-576.07" font-family="Times,serif" font-size="14.00">Nein</text>
</g>
<!-- 9&#45;&gt;10 -->
<g id="edge19" class="edge">
<title>9-&gt;10</title>
<path fill="none" stroke="black" d="M2022.11,-615.03C1913.21,-598.8 1761.54,-576.19 1627.7,-556.24"/>
<polygon fill="black" stroke="black" points="1628.36,-552.8 1617.95,-554.79 1627.32,-559.72 1628.36,-552.8"/>
<text text-anchor="middle" x="1855.15" y="-576.07" font-family="Times,serif" font-size="14.00">Ja</text>
</g>
<!-- A06 -->
<g id="node17" class="node">
<title>A06</title>
<polygon fill="#cfb986" stroke="black" points="1339.64,-315.06 1147.16,-315.06 1147.16,-253.54 1339.64,-253.54 1339.64,-315.06"/>
<text text-anchor="start" x="1228.4" y="-297" font-family="Times,serif" font-weight="bold" font-size="14.00">A06</text>
<text text-anchor="start" x="1159.4" y="-284.9" font-family="Times,serif" text-decoration="underline" font-size="12.00">Hinweis:</text>
<text text-anchor="start" x="1159.4" y="-272.9" font-family="Times,serif" font-size="12.00">Cluster: Zustimmung</text>
<text text-anchor="start" x="1159.4" y="-260.9" font-family="Times,serif" font-size="12.00">Best&#228;tigung der Abmeldung</text>
</g>
<!-- 10&#45;&gt;A06 -->
<g id="edge21" class="edge">
<title>10-&gt;A06</title>
<path fill="none" stroke="black" d="M1285.22,-466.57C1272.51,-451.1 1260,-432.7 1252.65,-413.59 1242.02,-385.94 1239.92,-352.49 1240.37,-326.68"/>
<polygon fill="black" stroke="black" points="1243.86,-327.02 1240.68,-316.92 1236.86,-326.8 1243.86,-327.02"/>
<text text-anchor="middle" x="1269.28" y="-386.27" font-family="Times,serif" font-size="14.00">Nein</text>
</g>
<!-- 11 -->
<g id="node18" class="node">
<title>11</title>
<path fill="#7aab8a" stroke="black" d="M1787.18,-413.59C1787.18,-413.59 1307.62,-413.59 1307.62,-413.59 1301.62,-413.59 1295.62,-407.59 1295.62,-401.59 1295.62,-401.59 1295.62,-380.31 1295.62,-380.31 1295.62,-374.31 1301.62,-368.31 1307.62,-368.31 1307.62,-368.31 1787.18,-368.31 1787.18,-368.31 1793.18,-368.31 1799.18,-374.31 1799.18,-380.31 1799.18,-380.31 1799.18,-401.59 1799.18,-401.59 1799.18,-407.59 1793.18,-413.59 1787.18,-413.59"/>
<text text-anchor="start" x="1310.03" y="-392.65" font-family="Times,serif" font-weight="bold" font-size="14.00">11: </text>
<text text-anchor="start" x="1339.28" y="-392.65" font-family="Times,serif" font-size="14.00">Ist der anfragende LF am Folgetag des Abmeldungsdatum der</text>
<text text-anchor="start" x="1310.03" y="-378.65" font-family="Times,serif" font-size="14.00">Marktlokation noch zugeordnet?</text>
</g>
<!-- 10&#45;&gt;11 -->
<g id="edge20" class="edge">
<title>10-&gt;11</title>
<path fill="none" stroke="black" d="M1408.07,-466.38C1437.52,-450.65 1469.99,-433.3 1496.17,-419.32"/>
<polygon fill="black" stroke="black" points="1497.74,-422.45 1504.91,-414.65 1494.44,-416.27 1497.74,-422.45"/>
<text text-anchor="middle" x="1476.15" y="-435.54" font-family="Times,serif" font-size="14.00">Ja</text>
</g>
<!-- 11&#45;&gt;A06 -->
<g id="edge23" class="edge">
<title>11-&gt;A06</title>
<path fill="none" stroke="black" d="M1483.3,-367.88C1442.25,-353.75 1388.17,-335.14 1341.75,-319.16"/>
<polygon fill="black" stroke="black" points="1343.08,-315.91 1332.48,-315.97 1340.8,-322.53 1343.08,-315.91"/>
<text text-anchor="middle" x="1438.15" y="-337.01" font-family="Times,serif" font-size="14.00">Ja</text>
</g>
<!-- 12 -->
<g id="node19" class="node">
<title>12</title>
<path fill="#7aab8a" stroke="black" d="M2123.43,-313.94C2123.43,-313.94 1369.38,-313.94 1369.38,-313.94 1363.38,-313.94 1357.38,-307.94 1357.38,-301.94 1357.38,-301.94 1357.38,-266.66 1357.38,-266.66 1357.38,-260.66 1363.38,-254.66 1369.38,-254.66 1369.38,-254.66 2123.43,-254.66 2123.43,-254.66 2129.43,-254.66 2135.43,-260.66 2135.43,-266.66 2135.43,-266.66 2135.43,-301.94 2135.43,-301.94 2135.43,-307.94 2129.43,-313.94 2123.43,-313.94"/>
<text text-anchor="start" x="1371.78" y="-293" font-family="Times,serif" font-weight="bold" font-size="14.00">12: </text>
<text text-anchor="start" x="1401.03" y="-293" font-family="Times,serif" font-size="14.00">Liegt ein Transaktionsgrund vor, aus welchem hervorgeht,dass der Anschlussnutzer ausgezogen ist?</text>
<text text-anchor="start" x="1371.78" y="-279" font-family="Times,serif" font-size="14.00">Das ist bei den folgenden Transaktionsgr&#252;nden der Fall:&#61599; Ein-/Auszug (Umzug)</text>
<text text-anchor="start" x="1371.78" y="-265" font-family="Times,serif" font-size="14.00">&#61599; Auszug wegen Stilllegung</text>
</g>
<!-- 11&#45;&gt;12 -->
<g id="edge22" class="edge">
<title>11-&gt;12</title>
<path fill="none" stroke="black" d="M1589.12,-368.01C1615.74,-354.01 1650.81,-335.57 1681.08,-319.65"/>
<polygon fill="black" stroke="black" points="1682.58,-322.82 1689.8,-315.07 1679.32,-316.62 1682.58,-322.82"/>
<text text-anchor="middle" x="1669.28" y="-337.01" font-family="Times,serif" font-size="14.00">Nein</text>
</g>
<!-- A07 -->
<g id="node20" class="node">
<title>A07</title>
<polygon fill="#cfb986" stroke="black" points="1457.89,-200.29 1158.91,-200.29 1158.91,-126.77 1457.89,-126.77 1457.89,-200.29"/>
<text text-anchor="start" x="1293.4" y="-182.23" font-family="Times,serif" font-weight="bold" font-size="14.00">A07</text>
<text text-anchor="start" x="1171.15" y="-170.13" font-family="Times,serif" text-decoration="underline" font-size="12.00">Hinweis:</text>
<text text-anchor="start" x="1171.15" y="-158.13" font-family="Times,serif" font-size="12.00">Cluster: Ablehnung</text>
<text text-anchor="start" x="1171.15" y="-146.13" font-family="Times,serif" font-size="12.00">Lieferende zum Abmeldedatum wurde bereits</text>
<text text-anchor="start" x="1171.15" y="-134.13" font-family="Times,serif" font-size="12.00">best&#228;tigt</text>
</g>
<!-- 12&#45;&gt;A07 -->
<g id="edge24" class="edge">
<title>12-&gt;A07</title>
<path fill="none" stroke="black" d="M1638.97,-254.17C1582.94,-238.98 1513.62,-220.18 1452.95,-203.73"/>
<polygon fill="black" stroke="black" points="1454.15,-200.42 1443.58,-201.19 1452.31,-207.18 1454.15,-200.42"/>
<text text-anchor="middle" x="1583.28" y="-222.24" font-family="Times,serif" font-size="14.00">Nein</text>
</g>
<!-- 13 -->
<g id="node21" class="node">
<title>13</title>
<path fill="#7aab8a" stroke="black" d="M2550.93,-200.17C2550.93,-200.17 1487.88,-200.17 1487.88,-200.17 1481.88,-200.17 1475.88,-194.17 1475.88,-188.17 1475.88,-188.17 1475.88,-138.89 1475.88,-138.89 1475.88,-132.89 1481.88,-126.89 1487.88,-126.89 1487.88,-126.89 2550.93,-126.89 2550.93,-126.89 2556.93,-126.89 2562.93,-132.89 2562.93,-138.89 2562.93,-138.89 2562.93,-188.17 2562.93,-188.17 2562.93,-194.17 2556.93,-200.17 2550.93,-200.17"/>
<text text-anchor="start" x="1490.28" y="-179.23" font-family="Times,serif" font-weight="bold" font-size="14.00">13: </text>
<text text-anchor="start" x="1519.53" y="-179.23" font-family="Times,serif" font-size="14.00">Liegt in der bereits best&#228;tigten Abmeldung einTransaktionsgrund vor, aus welchem nicht hervorgeht, dassder Anschlussnutzer ausgezogen ist?</text>
<text text-anchor="start" x="1490.28" y="-165.23" font-family="Times,serif" font-size="14.00">Das ist bei den folgenden Transaktionsgr&#252;nden der Fall:&#61599; Ein-/Auszug (Umzug)&#61599; Auszug wegen Stilllegung</text>
<text text-anchor="start" x="1490.28" y="-151.23" font-family="Times,serif" font-size="14.00">&#61599; Aufhebung einer zuk&#252;nftigen Zuordnung wegen</text>
<text text-anchor="start" x="1490.28" y="-137.23" font-family="Times,serif" font-size="14.00">Stilllegung</text>
</g>
<!-- 12&#45;&gt;13 -->
<g id="edge25" class="edge">
<title>12-&gt;13</title>
<path fill="none" stroke="black" d="M1813.18,-254.25C1847.16,-239.46 1889.02,-221.25 1926.13,-205.11"/>
<polygon fill="black" stroke="black" points="1927.3,-208.42 1935.07,-201.22 1924.5,-202 1927.3,-208.42"/>
<text text-anchor="middle" x="1897.15" y="-222.24" font-family="Times,serif" font-size="14.00">Ja</text>
</g>
<!-- A08 -->
<g id="node22" class="node">
<title>A08</title>
<polygon fill="#cfb986" stroke="black" points="1731.77,-73.52 1453.04,-73.52 1453.04,0 1731.77,0 1731.77,-73.52"/>
<text text-anchor="start" x="1577.4" y="-55.46" font-family="Times,serif" font-weight="bold" font-size="14.00">A08</text>
<text text-anchor="start" x="1465.28" y="-43.36" font-family="Times,serif" text-decoration="underline" font-size="12.00">Hinweis:</text>
<text text-anchor="start" x="1465.28" y="-31.36" font-family="Times,serif" font-size="12.00">Cluster: Ablehnung</text>
<text text-anchor="start" x="1465.28" y="-19.36" font-family="Times,serif" font-size="12.00">Lieferende zum Abmeldedatum wurde aus</text>
<text text-anchor="start" x="1465.28" y="-7.36" font-family="Times,serif" font-size="12.00">gleichem Grund bereits best&#228;tigt.</text>
</g>
<!-- 13&#45;&gt;A08 -->
<g id="edge26" class="edge">
<title>13-&gt;A08</title>
<path fill="none" stroke="black" d="M1895.89,-126.44C1843.12,-111.02 1781.38,-92.98 1727.41,-77.21"/>
<polygon fill="black" stroke="black" points="1728.4,-73.85 1717.82,-74.41 1726.44,-80.57 1728.4,-73.85"/>
<text text-anchor="middle" x="1848.28" y="-95.47" font-family="Times,serif" font-size="14.00">Nein</text>
</g>
<!-- A09 -->
<g id="node23" class="node">
<title>A09</title>
<polygon fill="#cfb986" stroke="black" points="2504.89,-73.52 1749.91,-73.52 1749.91,0 2504.89,0 2504.89,-73.52"/>
<text text-anchor="start" x="2112.4" y="-55.46" font-family="Times,serif" font-weight="bold" font-size="14.00">A09</text>
<text text-anchor="start" x="1762.15" y="-43.36" font-family="Times,serif" text-decoration="underline" font-size="12.00">Hinweis:</text>
<text text-anchor="start" x="1762.15" y="-31.36" font-family="Times,serif" font-size="12.00">Cluster: ZustimmungErneute Best&#228;tigung der Abmeldung aufgrund derInformation, dass der Anschlussnutzer nicht mehr</text>
<text text-anchor="start" x="1762.15" y="-19.36" font-family="Times,serif" font-size="12.00">an der Marktlokation vorhanden ist.Hinweis: Das bisher best&#228;tigte Bilanzierungsende</text>
<text text-anchor="start" x="1762.15" y="-7.36" font-family="Times,serif" font-size="12.00">bleibt unver&#228;ndert bestehen.</text>
</g>
<!-- 13&#45;&gt;A09 -->
<g id="edge27" class="edge">
<title>13-&gt;A09</title>
<path fill="none" stroke="black" d="M2050.64,-126.44C2062.62,-112.6 2076.42,-96.65 2089,-82.13"/>
<polygon fill="black" stroke="black" points="2091.34,-84.76 2095.24,-74.91 2086.05,-80.18 2091.34,-84.76"/>
<text text-anchor="middle" x="2086.15" y="-95.47" font-family="Times,serif" font-size="14.00">Ja</text>
</g>
</g>
</svg>
  </g>
</svg>
  </g>
</svg>
