<?xml version="1.0" encoding="UTF-8" standalone="no"?>
<!DOCTYPE svg PUBLIC "-//W3C//DTD SVG 1.1//EN"
 "http://www.w3.org/Graphics/SVG/1.1/DTD/svg11.dtd">
<!-- Generated by graphviz version 9.0.0 (20230911.1827)
 -->
<!-- Title: D Pages: 1 -->
<svg width="670pt" height="149pt"
 viewBox="0.00 0.00 669.75 149.28" xmlns="http://www.w3.org/2000/svg" xmlns:xlink="http://www.w3.org/1999/xlink">
<g id="graph0" class="graph" transform="scale(1 1) rotate(0) translate(4 145.28)">
<title>D</title>
<text text-anchor="start" x="8" y="-121.18" font-family="Roboto, sans-serif" font-weight="bold" font-size="18.00">GPKE</text>
<text text-anchor="start" x="8" y="-91.08" font-family="Roboto, sans-serif" font-weight="bold" font-size="16.00">6.24.3: AD: Bestellung zur Stammdatenänderung an LF (verantwortlich)</text>
<!-- Empty -->
<g id="node1" class="node">
<title>Empty</title>
<path fill="#7a8da1" stroke="black" stroke-width="0" d="M641.9,-43.28C641.9,-43.28 19.85,-43.28 19.85,-43.28 13.85,-43.28 7.85,-37.28 7.85,-31.28 7.85,-31.28 7.85,-12 7.85,-12 7.85,-6 13.85,0 19.85,0 19.85,0 641.9,0 641.9,0 647.9,0 653.9,-6 653.9,-12 653.9,-12 653.9,-31.28 653.9,-31.28 653.9,-37.28 647.9,-43.28 641.9,-43.28"/>
<text text-anchor="start" x="303.12" y="-22.34" font-family="Roboto, sans-serif" font-weight="bold" font-size="14.00">E_0590</text>
<text text-anchor="start" x="22.25" y="-10.24" font-family="Roboto, sans-serif" font-size="12.00">Derzeit ist für diese Entscheidung kein Entscheidungsbaum notwendig, da keine Antwort gegeben wird.</text>
</g>
</g>
</svg>
