<?xml version="1.0" encoding="UTF-8" standalone="no"?>
<!DOCTYPE svg PUBLIC "-//W3C//DTD SVG 1.1//EN"
 "http://www.w3.org/Graphics/SVG/1.1/DTD/svg11.dtd">
<!-- Generated by graphviz version 9.0.0 (20230911.1827)
 -->
<!-- Title: D Pages: 1 -->
<svg width="677pt" height="149pt"
 viewBox="0.00 0.00 676.50 149.28" xmlns="http://www.w3.org/2000/svg" xmlns:xlink="http://www.w3.org/1999/xlink">
<g id="graph0" class="graph" transform="scale(1 1) rotate(0) translate(4 145.28)">
<title>D</title>
<text text-anchor="start" x="305.38" y="-121.18" font-family="Times,serif" font-weight="bold" font-size="18.00">GPKE</text>
<text text-anchor="start" x="8" y="-91.08" font-family="Times,serif" font-weight="bold" font-size="16.00">6.24.3: AD: Bestellung zur Stammdatenänderung an LF (verantwortlich)</text>
<!-- Empty -->
<g id="node1" class="node">
<title>Empty</title>
<path fill="#7a8da1" stroke="black" stroke-width="0" d="M649.4,-43.28C649.4,-43.28 19.1,-43.28 19.1,-43.28 13.1,-43.28 7.1,-37.28 7.1,-31.28 7.1,-31.28 7.1,-12 7.1,-12 7.1,-6 13.1,0 19.1,0 19.1,0 649.4,0 649.4,0 655.4,0 661.4,-6 661.4,-12 661.4,-12 661.4,-31.28 661.4,-31.28 661.4,-37.28 655.4,-43.28 649.4,-43.28"/>
<text text-anchor="start" x="306.12" y="-22.34" font-family="Times,serif" font-weight="bold" font-size="14.00">E_0590</text>
<text text-anchor="start" x="21.5" y="-10.24" font-family="Times,serif" font-size="12.00">Derzeit ist für diese Entscheidung kein Entscheidungsbaum notwendig, da keine Antwort gegeben wird.</text>
</g>
</g>
</svg>
