<?xml version="1.0" encoding="UTF-8" standalone="no"?>
<!DOCTYPE svg PUBLIC "-//W3C//DTD SVG 1.1//EN"
 "http://www.w3.org/Graphics/SVG/1.1/DTD/svg11.dtd">
<!-- Generated by graphviz version 9.0.0 (20230911.1827)
 -->
<!-- Title: D Pages: 1 -->
<svg width="761pt" height="151pt"
 viewBox="0.00 0.00 760.55 151.28" xmlns="http://www.w3.org/2000/svg" xmlns:xlink="http://www.w3.org/1999/xlink">
<g id="graph0" class="graph" transform="scale(1 1) rotate(0) translate(4 147.28)">
<title>D</title>
<text text-anchor="start" x="53.4" y="-123.18" font-family="Roboto, sans-serif" font-weight="bold" font-size="18.00">GPKE</text>
<text text-anchor="start" x="53.4" y="-93.08" font-family="Roboto, sans-serif" font-weight="bold" font-size="16.00">6.24.3: AD: Bestellung zur Stammdatenänderung an LF (verantwortlich)</text>
<!-- Empty -->
<g id="node1" class="node">
<title>Empty</title>
<path fill="#7a8da1" stroke="black" stroke-width="0" d="M740.55,-45.28C740.55,-45.28 12,-45.28 12,-45.28 6,-45.28 0,-39.28 0,-33.28 0,-33.28 0,-12 0,-12 0,-6 6,0 12,0 12,0 740.55,0 740.55,0 746.55,0 752.55,-6 752.55,-12 752.55,-12 752.55,-33.28 752.55,-33.28 752.55,-39.28 746.55,-45.28 740.55,-45.28"/>
<text text-anchor="start" x="348.52" y="-24.34" font-family="Roboto, sans-serif" font-weight="bold" font-size="14.00">E_0590</text>
<text text-anchor="start" x="14.4" y="-10.34" font-family="Roboto, sans-serif" font-size="14.00">Derzeit ist für diese Entscheidung kein Entscheidungsbaum notwendig, da keine Antwort gegeben wird.</text>
</g>
</g>
</svg>
