<?xml version="1.0" encoding="UTF-8" standalone="no"?>
<!DOCTYPE svg PUBLIC "-//W3C//DTD SVG 1.1//EN"
 "http://www.w3.org/Graphics/SVG/1.1/DTD/svg11.dtd">
<!-- Generated by graphviz version 9.0.0 (20230911.1827)
 -->
<!-- Title: D Pages: 1 -->
<svg width="880pt" height="552pt"
 viewBox="0.00 0.00 880.30 551.62" xmlns="http://www.w3.org/2000/svg" xmlns:xlink="http://www.w3.org/1999/xlink">
<g id="graph0" class="graph" transform="scale(1 1) rotate(0) translate(18 533.62)">
<title>D</title>
<text text-anchor="start" x="372.27" y="-495.52" font-family="Roboto, sans-serif" font-weight="bold" font-size="18.00">GPKE</text>
<text text-anchor="start" x="372.27" y="-467.42" font-family="Roboto, sans-serif" font-weight="bold" font-size="16.00">MaLo Ident</text>
<!-- Start -->
<g id="node1" class="node">
<title>Start</title>
<path fill="#8ba2d7" stroke="black" stroke-width="0" d="M402.92,-425.62C402.92,-425.62 255.62,-425.62 255.62,-425.62 249.62,-425.62 243.62,-419.62 243.62,-413.62 243.62,-413.62 243.62,-392.34 243.62,-392.34 243.62,-386.34 249.62,-380.34 255.62,-380.34 255.62,-380.34 402.92,-380.34 402.92,-380.34 408.92,-380.34 414.92,-386.34 414.92,-392.34 414.92,-392.34 414.92,-413.62 414.92,-413.62 414.92,-419.62 408.92,-425.62 402.92,-425.62"/>
<text text-anchor="start" x="258.02" y="-404.68" font-family="Roboto, sans-serif" font-weight="bold" font-size="14.00">E_0594</text>
<text text-anchor="start" x="258.02" y="-390.68" font-family="Roboto, sans-serif" font-size="14.00">Prüfende Rolle: </text>
<text text-anchor="start" x="367.52" y="-390.68" font-family="Roboto, sans-serif" font-weight="bold" font-size="14.00">VNB</text>
</g>
<!-- 270 -->
<g id="node2" class="node">
<title>270</title>
<path fill="#c2cee9" stroke="black" stroke-width="0" d="M586.3,-343.34C586.3,-343.34 72.25,-343.34 72.25,-343.34 66.25,-343.34 60.25,-337.34 60.25,-331.34 60.25,-331.34 60.25,-319.34 60.25,-319.34 60.25,-313.34 66.25,-307.34 72.25,-307.34 72.25,-307.34 586.3,-307.34 586.3,-307.34 592.3,-307.34 598.3,-313.34 598.3,-319.34 598.3,-319.34 598.3,-331.34 598.3,-331.34 598.3,-337.34 592.3,-343.34 586.3,-343.34"/>
<text text-anchor="start" x="74.65" y="-321.66" font-family="Roboto, sans-serif" font-weight="bold" font-size="14.00">270: </text>
<text text-anchor="start" x="113.65" y="-321.66" font-family="Roboto, sans-serif" font-size="14.00">Ist das Identifikationskriterium „Adresse“ in der Anfrage enthalten?</text>
</g>
<!-- Start&#45;&gt;270 -->
<g id="edge1" class="edge">
<title>Start&#45;&gt;270</title>
<path fill="none" stroke="#88a0d6" d="M329.27,-380.51C329.27,-372.43 329.27,-363.13 329.27,-354.53"/>
<polygon fill="#88a0d6" stroke="#88a0d6" points="332.78,-354.57 329.28,-344.57 325.78,-354.57 332.78,-354.57"/>
</g>
<!-- 275 -->
<g id="node3" class="node">
<title>275</title>
<path fill="#c2cee9" stroke="black" stroke-width="0" d="M494.55,-254.09C494.55,-254.09 12,-254.09 12,-254.09 6,-254.09 0,-248.09 0,-242.09 0,-242.09 0,-206.81 0,-206.81 0,-200.81 6,-194.81 12,-194.81 12,-194.81 494.55,-194.81 494.55,-194.81 500.55,-194.81 506.55,-200.81 506.55,-206.81 506.55,-206.81 506.55,-242.09 506.55,-242.09 506.55,-248.09 500.55,-254.09 494.55,-254.09"/>
<text text-anchor="start" x="14.4" y="-233.15" font-family="Roboto, sans-serif" font-weight="bold" font-size="14.00">275: </text>
<text text-anchor="start" x="53.4" y="-233.15" font-family="Roboto, sans-serif" font-size="14.00">Vollständige [Adressprüfung]</text>
<text text-anchor="start" x="14.4" y="-219.15" font-family="Roboto, sans-serif" font-size="14.00">Aufnahme von 0..n Treffern in die Trefferliste auf Basis der alleinigen</text>
<text text-anchor="start" x="14.4" y="-205.15" font-family="Roboto, sans-serif" font-size="14.00">Adressprüfung</text>
</g>
<!-- 270&#45;&gt;275 -->
<g id="edge2" class="edge">
<title>270&#45;&gt;275</title>
<path fill="none" stroke="#88a0d6" d="M316.38,-307.56C306.97,-295.31 293.83,-278.21 281.97,-262.79"/>
<polygon fill="#88a0d6" stroke="#88a0d6" points="284.97,-260.95 276.1,-255.15 279.42,-265.21 284.97,-260.95"/>
<text text-anchor="start" x="300.27" y="-277.04" font-family="Roboto, sans-serif" font-weight="bold" font-size="14.00">JA</text>
</g>
<!-- 280 -->
<g id="node4" class="node">
<title>280</title>
<path fill="#c2cee9" stroke="black" stroke-width="0" d="M832.3,-157.81C832.3,-157.81 252.25,-157.81 252.25,-157.81 246.25,-157.81 240.25,-151.81 240.25,-145.81 240.25,-145.81 240.25,-124.53 240.25,-124.53 240.25,-118.53 246.25,-112.53 252.25,-112.53 252.25,-112.53 832.3,-112.53 832.3,-112.53 838.3,-112.53 844.3,-118.53 844.3,-124.53 844.3,-124.53 844.3,-145.81 844.3,-145.81 844.3,-151.81 838.3,-157.81 832.3,-157.81"/>
<text text-anchor="start" x="254.65" y="-136.87" font-family="Roboto, sans-serif" font-weight="bold" font-size="14.00">280: </text>
<text text-anchor="start" x="293.65" y="-136.87" font-family="Roboto, sans-serif" font-size="14.00">Gibt es in der Trefferliste auf Basis der alleinigen Adressprüfung genau einen</text>
<text text-anchor="start" x="254.65" y="-122.87" font-family="Roboto, sans-serif" font-size="14.00">Treffer mit dem Identifikationskriterium Adresse?</text>
</g>
<!-- 270&#45;&gt;280 -->
<g id="edge3" class="edge">
<title>270&#45;&gt;280</title>
<path fill="none" stroke="#88a0d6" d="M419.23,-307.37C453.11,-296.99 489.61,-280.41 515.27,-254.09 540.68,-228.04 521,-206.32 542.27,-176.81"/>
<text text-anchor="start" x="533.27" y="-220.77" font-family="Roboto, sans-serif" font-weight="bold" font-size="14.00">NEIN</text>
</g>
<!-- 275&#45;&gt;280 -->
<g id="edge4" class="edge">
<title>275&#45;&gt;280</title>
<path fill="none" stroke="#88a0d6" d="M506.43,-199.03C523.05,-193.13 535.77,-185.83 542.27,-176.81"/>
<path fill="none" stroke="#88a0d6" d="M542.27,-175.81C543.72,-173.8 544.76,-171.58 545.48,-169.24"/>
<polygon fill="#88a0d6" stroke="#88a0d6" points="548.96,-169.65 546.66,-159.31 542,-168.83 548.96,-169.65"/>
</g>
<!-- A02 -->
<g id="node5" class="node">
<title>A02</title>
<path fill="#c4cac1" stroke="black" stroke-width="0" d="M511.3,-59.28C511.3,-59.28 321.25,-59.28 321.25,-59.28 315.25,-59.28 309.25,-53.28 309.25,-47.28 309.25,-47.28 309.25,-12 309.25,-12 309.25,-6 315.25,0 321.25,0 321.25,0 511.3,0 511.3,0 517.3,0 523.3,-6 523.3,-12 523.3,-12 523.3,-47.28 523.3,-47.28 523.3,-53.28 517.3,-59.28 511.3,-59.28"/>
<text text-anchor="start" x="323.65" y="-38.34" font-family="Roboto, sans-serif" font-weight="bold" font-size="14.00">A02</text>
<text text-anchor="start" x="323.65" y="-10.34" font-family="Roboto, sans-serif" font-size="14.00">Cluster Ablehnung blablba</text>
</g>
<!-- 280&#45;&gt;A02 -->
<g id="edge5" class="edge">
<title>280&#45;&gt;A02</title>
<path fill="none" stroke="#88a0d6" d="M516.17,-112.72C499.86,-99.32 478.47,-81.74 459.67,-66.29"/>
<polygon fill="#88a0d6" stroke="#88a0d6" points="462.08,-63.74 452.13,-60.1 457.63,-69.15 462.08,-63.74"/>
<text text-anchor="start" x="490.27" y="-82.23" font-family="Roboto, sans-serif" font-weight="bold" font-size="14.00">NEIN</text>
</g>
<!-- A123 -->
<g id="node6" class="node">
<title>A123</title>
<path fill="#c4cac1" stroke="black" stroke-width="0" d="M781.05,-59.28C781.05,-59.28 553.5,-59.28 553.5,-59.28 547.5,-59.28 541.5,-53.28 541.5,-47.28 541.5,-47.28 541.5,-12 541.5,-12 541.5,-6 547.5,0 553.5,0 553.5,0 781.05,0 781.05,0 787.05,0 793.05,-6 793.05,-12 793.05,-12 793.05,-47.28 793.05,-47.28 793.05,-53.28 787.05,-59.28 781.05,-59.28"/>
<text text-anchor="start" x="555.9" y="-38.34" font-family="Roboto, sans-serif" font-weight="bold" font-size="14.00">A123</text>
<text text-anchor="start" x="555.9" y="-10.34" font-family="Roboto, sans-serif" font-size="14.00">Cluster keine Ablehnung bliblub</text>
</g>
<!-- 280&#45;&gt;A123 -->
<g id="edge6" class="edge">
<title>280&#45;&gt;A123</title>
<path fill="none" stroke="#88a0d6" d="M568.18,-112.72C584.35,-99.32 605.57,-81.74 624.23,-66.29"/>
<polygon fill="#88a0d6" stroke="#88a0d6" points="626.23,-69.18 631.7,-60.1 621.77,-63.79 626.23,-69.18"/>
<text text-anchor="start" x="608.27" y="-82.23" font-family="Roboto, sans-serif" font-weight="bold" font-size="14.00">JA</text>
</g>
</g>
</svg>
