<?xml version="1.0" encoding="UTF-8" standalone="no"?>
<!DOCTYPE svg PUBLIC "-//W3C//DTD SVG 1.1//EN"
 "http://www.w3.org/Graphics/SVG/1.1/DTD/svg11.dtd">
<!-- Generated by graphviz version 9.0.0 (20230911.1827)
 -->
<!-- Title: D Pages: 1 -->
<svg width="661pt" height="528pt"
 viewBox="0.00 0.00 661.05 528.34" xmlns="http://www.w3.org/2000/svg" xmlns:xlink="http://www.w3.org/1999/xlink">
<g id="graph0" class="graph" transform="scale(1 1) rotate(0) translate(18 510.34)">
<title>D</title>
<text text-anchor="start" x="262.65" y="-472.24" font-family="Roboto, sans-serif" font-weight="bold" font-size="18.00">GPKE</text>
<text text-anchor="start" x="262.65" y="-444.14" font-family="Roboto, sans-serif" font-weight="bold" font-size="16.00">MaLo Ident</text>
<!-- Start -->
<g id="node1" class="node">
<title>Start</title>
<path fill="#8ba2d7" stroke="black" stroke-width="0" d="M342.67,-402.34C342.67,-402.34 195.37,-402.34 195.37,-402.34 189.37,-402.34 183.37,-396.34 183.37,-390.34 183.37,-390.34 183.37,-369.06 183.37,-369.06 183.37,-363.06 189.37,-357.06 195.37,-357.06 195.37,-357.06 342.67,-357.06 342.67,-357.06 348.67,-357.06 354.67,-363.06 354.67,-369.06 354.67,-369.06 354.67,-390.34 354.67,-390.34 354.67,-396.34 348.67,-402.34 342.67,-402.34"/>
<text text-anchor="start" x="197.77" y="-381.4" font-family="Roboto, sans-serif" font-weight="bold" font-size="14.00">E_0594</text>
<text text-anchor="start" x="197.77" y="-367.4" font-family="Roboto, sans-serif" font-size="14.00">Prüfende Rolle: </text>
<text text-anchor="start" x="307.27" y="-367.4" font-family="Roboto, sans-serif" font-weight="bold" font-size="14.00">VNB</text>
</g>
<!-- 270 -->
<g id="node2" class="node">
<title>270</title>
<path fill="#c2cee9" stroke="black" stroke-width="0" d="M526.05,-320.06C526.05,-320.06 12,-320.06 12,-320.06 6,-320.06 0,-314.06 0,-308.06 0,-308.06 0,-296.06 0,-296.06 0,-290.06 6,-284.06 12,-284.06 12,-284.06 526.05,-284.06 526.05,-284.06 532.05,-284.06 538.05,-290.06 538.05,-296.06 538.05,-296.06 538.05,-308.06 538.05,-308.06 538.05,-314.06 532.05,-320.06 526.05,-320.06"/>
<text text-anchor="start" x="14.4" y="-298.38" font-family="Roboto, sans-serif" font-weight="bold" font-size="14.00">270: </text>
<text text-anchor="start" x="53.4" y="-298.38" font-family="Roboto, sans-serif" font-size="14.00">Ist das Identifikationskriterium „Adresse“ in der Anfrage enthalten?</text>
</g>
<!-- Start&#45;&gt;270 -->
<g id="edge1" class="edge">
<title>Start&#45;&gt;270</title>
<path fill="none" stroke="#88a0d6" d="M269.02,-357.23C269.02,-349.15 269.02,-339.85 269.02,-331.25"/>
<polygon fill="#88a0d6" stroke="#88a0d6" points="272.53,-331.29 269.03,-321.29 265.53,-331.29 272.53,-331.29"/>
</g>
<!-- 275 -->
<g id="node3" class="node">
<title>275</title>
<path fill="#c2cee9" stroke="black" stroke-width="0" d="M274.8,-230.81C274.8,-230.81 29.25,-230.81 29.25,-230.81 23.25,-230.81 17.25,-224.81 17.25,-218.81 17.25,-218.81 17.25,-206.81 17.25,-206.81 17.25,-200.81 23.25,-194.81 29.25,-194.81 29.25,-194.81 274.8,-194.81 274.8,-194.81 280.8,-194.81 286.8,-200.81 286.8,-206.81 286.8,-206.81 286.8,-218.81 286.8,-218.81 286.8,-224.81 280.8,-230.81 274.8,-230.81"/>
<text text-anchor="start" x="31.65" y="-209.13" font-family="Roboto, sans-serif" font-weight="bold" font-size="14.00">275: </text>
<text text-anchor="start" x="70.65" y="-209.13" font-family="Roboto, sans-serif" font-size="14.00">Vollständige [Adressprüfung]</text>
</g>
<!-- 270&#45;&gt;275 -->
<g id="edge2" class="edge">
<title>270&#45;&gt;275</title>
<path fill="none" stroke="#88a0d6" d="M246.47,-284.24C228.58,-270.9 203.38,-252.1 183.5,-237.29"/>
<polygon fill="#88a0d6" stroke="#88a0d6" points="185.84,-234.66 175.73,-231.49 181.65,-240.27 185.84,-234.66"/>
<text text-anchor="start" x="220.02" y="-253.76" font-family="Roboto, sans-serif" font-weight="bold" font-size="14.00">JA</text>
</g>
<!-- 280 -->
<g id="node4" class="node">
<title>280</title>
<path fill="#c2cee9" stroke="black" stroke-width="0" d="M613.05,-157.81C613.05,-157.81 33,-157.81 33,-157.81 27,-157.81 21,-151.81 21,-145.81 21,-145.81 21,-124.53 21,-124.53 21,-118.53 27,-112.53 33,-112.53 33,-112.53 613.05,-112.53 613.05,-112.53 619.05,-112.53 625.05,-118.53 625.05,-124.53 625.05,-124.53 625.05,-145.81 625.05,-145.81 625.05,-151.81 619.05,-157.81 613.05,-157.81"/>
<text text-anchor="start" x="35.4" y="-136.87" font-family="Roboto, sans-serif" font-weight="bold" font-size="14.00">280: </text>
<text text-anchor="start" x="74.4" y="-136.87" font-family="Roboto, sans-serif" font-size="14.00">Gibt es in der Trefferliste auf Basis der alleinigen Adressprüfung genau einen</text>
<text text-anchor="start" x="35.4" y="-122.87" font-family="Roboto, sans-serif" font-size="14.00">Treffer mit dem Identifikationskriterium Adresse?</text>
</g>
<!-- 270&#45;&gt;280 -->
<g id="edge3" class="edge">
<title>270&#45;&gt;280</title>
<path fill="none" stroke="#88a0d6" d="M275.49,-284.26C286.93,-254.87 310.71,-195.46 323.02,-176.81"/>
<text text-anchor="start" x="312.02" y="-209.13" font-family="Roboto, sans-serif" font-weight="bold" font-size="14.00">NEIN</text>
</g>
<!-- 275&#45;&gt;280 -->
<g id="edge4" class="edge">
<title>275&#45;&gt;280</title>
<path fill="none" stroke="#88a0d6" d="M286.49,-196.16C303.9,-191.33 317.6,-185.03 323.02,-176.81"/>
<path fill="none" stroke="#88a0d6" d="M323.02,-175.81C324.44,-173.66 325.45,-171.3 326.13,-168.83"/>
<polygon fill="#88a0d6" stroke="#88a0d6" points="329.58,-169.45 327.16,-159.13 322.62,-168.7 329.58,-169.45"/>
</g>
<!-- A02 -->
<g id="node5" class="node">
<title>A02</title>
<path fill="#c4cac1" stroke="black" stroke-width="0" d="M221.05,-59.28C221.05,-59.28 31,-59.28 31,-59.28 25,-59.28 19,-53.28 19,-47.28 19,-47.28 19,-12 19,-12 19,-6 25,0 31,0 31,0 221.05,0 221.05,0 227.05,0 233.05,-6 233.05,-12 233.05,-12 233.05,-47.28 233.05,-47.28 233.05,-53.28 227.05,-59.28 221.05,-59.28"/>
<text text-anchor="start" x="33.4" y="-38.34" font-family="Roboto, sans-serif" font-weight="bold" font-size="14.00">A02</text>
<text text-anchor="start" x="33.4" y="-10.34" font-family="Roboto, sans-serif" font-size="14.00">Cluster Ablehnung blablba</text>
</g>
<!-- 280&#45;&gt;A02 -->
<g id="edge5" class="edge">
<title>280&#45;&gt;A02</title>
<path fill="none" stroke="#88a0d6" d="M282.21,-112.72C255.68,-98.78 220.53,-80.31 190.3,-64.42"/>
<polygon fill="#88a0d6" stroke="#88a0d6" points="192.07,-61.4 181.59,-59.84 188.81,-67.59 192.07,-61.4"/>
<text text-anchor="start" x="242.02" y="-82.23" font-family="Roboto, sans-serif" font-weight="bold" font-size="14.00">NEIN</text>
</g>
<!-- A123 -->
<g id="node6" class="node">
<title>A123</title>
<path fill="#c4cac1" stroke="black" stroke-width="0" d="M490.8,-59.28C490.8,-59.28 263.25,-59.28 263.25,-59.28 257.25,-59.28 251.25,-53.28 251.25,-47.28 251.25,-47.28 251.25,-12 251.25,-12 251.25,-6 257.25,0 263.25,0 263.25,0 490.8,0 490.8,0 496.8,0 502.8,-6 502.8,-12 502.8,-12 502.8,-47.28 502.8,-47.28 502.8,-53.28 496.8,-59.28 490.8,-59.28"/>
<text text-anchor="start" x="265.65" y="-38.34" font-family="Roboto, sans-serif" font-weight="bold" font-size="14.00">A123</text>
<text text-anchor="start" x="265.65" y="-10.34" font-family="Roboto, sans-serif" font-size="14.00">Cluster keine Ablehnung bliblub</text>
</g>
<!-- 280&#45;&gt;A123 -->
<g id="edge6" class="edge">
<title>280&#45;&gt;A123</title>
<path fill="none" stroke="#88a0d6" d="M334.21,-112.72C340.79,-100.11 349.3,-83.8 357,-69.04"/>
<polygon fill="#88a0d6" stroke="#88a0d6" points="359.94,-70.96 361.46,-60.48 353.73,-67.73 359.94,-70.96"/>
<text text-anchor="start" x="351.02" y="-82.23" font-family="Roboto, sans-serif" font-weight="bold" font-size="14.00">JA</text>
</g>
</g>
</svg>
