<?xml version="1.0" encoding="UTF-8" standalone="no"?>
<!DOCTYPE svg PUBLIC "-//W3C//DTD SVG 1.1//EN"
 "http://www.w3.org/Graphics/SVG/1.1/DTD/svg11.dtd">
<!-- Generated by graphviz version 9.0.0 (20230911.1827)
 -->
<!-- Title: D Pages: 1 -->
<svg width="665pt" height="342pt"
 viewBox="0.00 0.00 664.60 342.41" xmlns="http://www.w3.org/2000/svg" xmlns:xlink="http://www.w3.org/1999/xlink">
<g id="graph0" class="graph" transform="scale(1 1) rotate(0) translate(10.8 331.61)">
<title>D</title>
<text text-anchor="start" x="8" y="-300.71" font-family="Roboto, sans-serif" font-weight="bold" font-size="18.00">GPKE</text>
<text text-anchor="start" x="8" y="-272.61" font-family="Roboto, sans-serif" font-weight="bold" font-size="16.00">6.16.1: AD: Wiederherstellung der Anschlussnutzung bei Lieferbeginn</text>
<!-- Start -->
<g id="node1" class="node">
<title>Start</title>
<path fill="#8ba2d7" stroke="black" stroke-width="0" d="M389.9,-230.81C389.9,-230.81 253.1,-230.81 253.1,-230.81 247.1,-230.81 241.1,-224.81 241.1,-218.81 241.1,-218.81 241.1,-197.53 241.1,-197.53 241.1,-191.53 247.1,-185.53 253.1,-185.53 253.1,-185.53 389.9,-185.53 389.9,-185.53 395.9,-185.53 401.9,-191.53 401.9,-197.53 401.9,-197.53 401.9,-218.81 401.9,-218.81 401.9,-224.81 395.9,-230.81 389.9,-230.81"/>
<text text-anchor="start" x="255.5" y="-209.87" font-family="Roboto, sans-serif" font-weight="bold" font-size="14.00">E_0287</text>
<text text-anchor="start" x="255.5" y="-195.87" font-family="Roboto, sans-serif" font-size="14.00">Prüfende Rolle: </text>
<text text-anchor="start" x="365" y="-195.87" font-family="Roboto, sans-serif" font-weight="bold" font-size="14.00">NB</text>
</g>
<!-- 1 -->
<g id="node2" class="node">
<title>1</title>
<path fill="#c2cee9" stroke="black" stroke-width="0" d="M519.27,-148.53C519.27,-148.53 123.73,-148.53 123.73,-148.53 117.73,-148.53 111.72,-142.53 111.72,-136.53 111.72,-136.53 111.72,-124.53 111.72,-124.53 111.72,-118.53 117.72,-112.53 123.72,-112.53 123.72,-112.53 519.27,-112.53 519.27,-112.53 525.27,-112.53 531.27,-118.53 531.27,-124.53 531.27,-124.53 531.27,-136.53 531.27,-136.53 531.27,-142.53 525.27,-148.53 519.27,-148.53"/>
<text text-anchor="start" x="126.12" y="-126.86" font-family="Roboto, sans-serif" font-weight="bold" font-size="14.00">1: </text>
<text text-anchor="start" x="145.62" y="-126.86" font-family="Roboto, sans-serif" font-size="14.00">Ist die Entsperrung erfolgreich durchgeführt worden?</text>
</g>
<!-- Start&#45;&gt;1 -->
<g id="edge1" class="edge">
<title>Start&#45;&gt;1</title>
<path fill="none" stroke="#88a0d6" d="M321.5,-185.7C321.5,-177.62 321.5,-168.32 321.5,-159.72"/>
<polygon fill="#88a0d6" stroke="#88a0d6" points="325,-159.76 321.5,-149.76 318,-159.76 325,-159.76"/>
</g>
<!-- A01 -->
<g id="node3" class="node">
<title>A01</title>
<path fill="#c4cac1" stroke="black" stroke-width="0" d="M314.4,-59.28C314.4,-59.28 126.6,-59.28 126.6,-59.28 120.6,-59.28 114.6,-53.28 114.6,-47.28 114.6,-47.28 114.6,-12 114.6,-12 114.6,-6 120.6,0 126.6,0 126.6,0 314.4,0 314.4,0 320.4,0 326.4,-6 326.4,-12 326.4,-12 326.4,-47.28 326.4,-47.28 326.4,-53.28 320.4,-59.28 314.4,-59.28"/>
<text text-anchor="start" x="129" y="-38.34" font-family="Roboto, sans-serif" font-weight="bold" font-size="14.00">A01</text>
<text text-anchor="start" x="129" y="-10.34" font-family="Roboto, sans-serif" font-size="14.00">Marktlokation ist entsperrt</text>
</g>
<!-- 1&#45;&gt;A01 -->
<g id="edge2" class="edge">
<title>1&#45;&gt;A01</title>
<path fill="none" stroke="#88a0d6" d="M304.37,-112.75C291.62,-100.27 273.73,-82.76 257.76,-67.12"/>
<polygon fill="#88a0d6" stroke="#88a0d6" points="260.29,-64.7 250.69,-60.2 255.39,-69.7 260.29,-64.7"/>
<text text-anchor="start" x="282.5" y="-82.23" font-family="Roboto, sans-serif" font-weight="bold" font-size="14.00">JA</text>
</g>
<!-- Bilaterale Klärung. -->
<g id="node4" class="node">
<title>Bilaterale Klärung.</title>
<path fill="#c4cac1" stroke="black" stroke-width="0" d="M489.02,-47.64C489.02,-47.64 355.98,-47.64 355.98,-47.64 349.98,-47.64 343.98,-41.64 343.98,-35.64 343.98,-35.64 343.98,-23.64 343.98,-23.64 343.98,-17.64 349.98,-11.64 355.98,-11.64 355.98,-11.64 489.02,-11.64 489.02,-11.64 495.02,-11.64 501.02,-17.64 501.02,-23.64 501.02,-23.64 501.02,-35.64 501.02,-35.64 501.02,-41.64 495.02,-47.64 489.02,-47.64"/>
<text text-anchor="start" x="358.38" y="-24.96" font-family="Roboto, sans-serif" font-size="14.00">Bilaterale Klärung.</text>
</g>
<!-- 1&#45;&gt;Bilaterale Klärung. -->
<g id="edge3" class="edge">
<title>1&#45;&gt;Bilaterale Klärung.</title>
<path fill="none" stroke="#88a0d6" d="M338.63,-112.75C354.74,-96.99 379.04,-73.19 397.35,-55.27"/>
<polygon fill="#88a0d6" stroke="#88a0d6" points="399.5,-58.05 404.2,-48.56 394.61,-53.05 399.5,-58.05"/>
<text text-anchor="start" x="371.5" y="-82.23" font-family="Roboto, sans-serif" font-weight="bold" font-size="14.00">NEIN</text>
</g>
</g>
</svg>
