<?xml version="1.0" encoding="UTF-8" standalone="no"?>
<!DOCTYPE svg PUBLIC "-//W3C//DTD SVG 1.1//EN"
 "http://www.w3.org/Graphics/SVG/1.1/DTD/svg11.dtd">
<!-- Generated by graphviz version 9.0.0 (20230911.1827)
 -->
<!-- Title: D Pages: 1 -->
<svg width="651pt" height="306pt"
 viewBox="0.00 0.00 651.00 305.53" xmlns="http://www.w3.org/2000/svg" xmlns:xlink="http://www.w3.org/1999/xlink">
<g id="graph0" class="graph" transform="scale(1 1) rotate(0) translate(4 301.53)">
<title>D</title>
<text text-anchor="start" x="8" y="-277.43" font-family="Roboto, sans-serif" font-weight="bold" font-size="18.00">GPKE</text>
<text text-anchor="start" x="8" y="-249.33" font-family="Roboto, sans-serif" font-weight="bold" font-size="16.00">6.16.1: AD: Wiederherstellung der Anschlussnutzung bei Lieferbeginn</text>
<!-- Start -->
<g id="node1" class="node">
<title>Start</title>
<path fill="#8ba2d7" stroke="black" stroke-width="0" d="M389.9,-207.53C389.9,-207.53 253.1,-207.53 253.1,-207.53 247.1,-207.53 241.1,-201.53 241.1,-195.53 241.1,-195.53 241.1,-174.25 241.1,-174.25 241.1,-168.25 247.1,-162.25 253.1,-162.25 253.1,-162.25 389.9,-162.25 389.9,-162.25 395.9,-162.25 401.9,-168.25 401.9,-174.25 401.9,-174.25 401.9,-195.53 401.9,-195.53 401.9,-201.53 395.9,-207.53 389.9,-207.53"/>
<text text-anchor="start" x="255.5" y="-186.59" font-family="Roboto, sans-serif" font-weight="bold" font-size="14.00">E_0287</text>
<text text-anchor="start" x="255.5" y="-172.59" font-family="Roboto, sans-serif" font-size="14.00">Prüfende Rolle: </text>
<text text-anchor="start" x="365" y="-172.59" font-family="Roboto, sans-serif" font-weight="bold" font-size="14.00">NB</text>
</g>
<!-- 1 -->
<g id="node2" class="node">
<title>1</title>
<path fill="#c2cee9" stroke="black" stroke-width="0" d="M519.27,-125.25C519.27,-125.25 123.73,-125.25 123.73,-125.25 117.73,-125.25 111.72,-119.25 111.72,-113.25 111.72,-113.25 111.72,-101.25 111.72,-101.25 111.72,-95.25 117.72,-89.25 123.72,-89.25 123.72,-89.25 519.27,-89.25 519.27,-89.25 525.27,-89.25 531.27,-95.25 531.27,-101.25 531.27,-101.25 531.27,-113.25 531.27,-113.25 531.27,-119.25 525.27,-125.25 519.27,-125.25"/>
<text text-anchor="start" x="126.12" y="-103.58" font-family="Roboto, sans-serif" font-weight="bold" font-size="14.00">1: </text>
<text text-anchor="start" x="145.62" y="-103.58" font-family="Roboto, sans-serif" font-size="14.00">Ist die Entsperrung erfolgreich durchgeführt worden?</text>
</g>
<!-- Start&#45;&gt;1 -->
<g id="edge1" class="edge">
<title>Start&#45;&gt;1</title>
<path fill="none" stroke="#88a0d6" d="M321.5,-162.42C321.5,-154.34 321.5,-145.04 321.5,-136.44"/>
<polygon fill="#88a0d6" stroke="#88a0d6" points="325,-136.48 321.5,-126.48 318,-136.48 325,-136.48"/>
</g>
<!-- A01 -->
<g id="node3" class="node">
<title>A01</title>
<path fill="#c4cac1" stroke="black" stroke-width="0" d="M314.4,-36C314.4,-36 126.6,-36 126.6,-36 120.6,-36 114.6,-30 114.6,-24 114.6,-24 114.6,-12 114.6,-12 114.6,-6 120.6,0 126.6,0 126.6,0 314.4,0 314.4,0 320.4,0 326.4,-6 326.4,-12 326.4,-12 326.4,-24 326.4,-24 326.4,-30 320.4,-36 314.4,-36"/>
<text text-anchor="start" x="129" y="-13.32" font-family="Roboto, sans-serif" font-size="14.00">Marktlokation ist entsperrt</text>
</g>
<!-- 1&#45;&gt;A01 -->
<g id="edge2" class="edge">
<title>1&#45;&gt;A01</title>
<path fill="none" stroke="#88a0d6" d="M302.03,-89.43C286.8,-76.27 265.42,-57.8 248.38,-43.08"/>
<polygon fill="#88a0d6" stroke="#88a0d6" points="250.91,-40.65 241.06,-36.76 246.34,-45.95 250.91,-40.65"/>
<text text-anchor="start" x="279.5" y="-58.95" font-family="Roboto, sans-serif" font-weight="bold" font-size="14.00">JA</text>
</g>
<!-- Bilaterale Klärung. -->
<g id="node4" class="node">
<title>Bilaterale Klärung.</title>
<path fill="#c4cac1" stroke="black" stroke-width="0" d="M489.02,-36C489.02,-36 355.98,-36 355.98,-36 349.98,-36 343.98,-30 343.98,-24 343.98,-24 343.98,-12 343.98,-12 343.98,-6 349.98,0 355.98,0 355.98,0 489.02,0 489.02,0 495.02,0 501.02,-6 501.02,-12 501.02,-12 501.02,-24 501.02,-24 501.02,-30 495.02,-36 489.02,-36"/>
<text text-anchor="start" x="358.38" y="-13.32" font-family="Roboto, sans-serif" font-size="14.00">Bilaterale Klärung.</text>
</g>
<!-- 1&#45;&gt;Bilaterale Klärung. -->
<g id="edge3" class="edge">
<title>1&#45;&gt;Bilaterale Klärung.</title>
<path fill="none" stroke="#88a0d6" d="M340.97,-89.43C356.2,-76.27 377.58,-57.8 394.62,-43.08"/>
<polygon fill="#88a0d6" stroke="#88a0d6" points="396.66,-45.95 401.94,-36.76 392.09,-40.65 396.66,-45.95"/>
<text text-anchor="start" x="380.5" y="-58.95" font-family="Roboto, sans-serif" font-weight="bold" font-size="14.00">NEIN</text>
</g>
</g>
</svg>
